<svg xmlns="http://www.w3.org/2000/svg" viewBox="0 0 307.7 1158.7"><title>Asset 1@2x</title><g id="Layer_2" data-name="Layer 2"><g id="Layer_1-2" data-name="Layer 1"><rect x="0.25" y="0.25" width="307.2" height="307.2" rx="67.51" ry="67.51" fill="#fff" stroke="#231f20" stroke-miterlimit="10" stroke-width="0.5"/><path d="M96.56,222.06" fill="none" stroke="#231f20" stroke-miterlimit="10" stroke-width="8.65"/><circle cx="155.21" cy="153.87" r="112.91" transform="matrix(0.01, -1, 1, 0.01, -0.55, 307.17)" fill="none" stroke="#bbbdbf" stroke-miterlimit="10" stroke-width="24.84"/><circle cx="152.49" cy="153.83" r="112.91" transform="translate(-3.21 304.41) rotate(-89.29)" fill="none" stroke="#a7a9ac" stroke-miterlimit="10" stroke-width="5.7"/><rect x="153.65" y="43.21" width="2.73" height="31.94" transform="translate(0.74 -1.91) rotate(0.71)" fill="#a7a9ac"/><rect x="151.34" y="230.57" width="2.73" height="31.94" transform="translate(3.05 -1.86) rotate(0.71)" fill="#a7a9ac"/><rect x="244.81" y="138.73" width="2.73" height="31.94" transform="translate(403.89 -89.54) rotate(90.71)" fill="#a7a9ac"/><rect x="57.44" y="136.42" width="2.73" height="31.94" transform="translate(211.91 95.46) rotate(90.71)" fill="#a7a9ac"/><rect x="225.27" y="75.97" width="2.73" height="14.14" transform="translate(127.81 -137.17) rotate(45.71)" fill="#e6e7e7"/><rect x="79.8" y="215.97" width="2.73" height="18" transform="translate(185.51 9.77) rotate(45.71)" fill="#e6e7e7"/><rect x="220.77" y="217.46" width="2.73" height="17.75" transform="translate(539.19 233.21) rotate(135.71)" fill="#e6e7e7"/><rect x="79.5" y="73.39" width="2.73" height="16.3" transform="translate(195.69 83.43) rotate(135.71)" fill="#e6e7e7"/><polygon points="215.73 125.61 181.1 125.61 181.1 90.98 127.78 90.98 127.78 125.61 93.16 125.61 93.16 178.92 127.78 178.92 127.78 213.55 181.1 213.55 181.1 178.92 215.73 178.92 215.73 125.61" fill="#ce2627"/><rect x="0.25" y="425.75" width="307.2" height="307.2" rx="67.51" ry="67.51" fill="#fff" stroke="#231f20" stroke-miterlimit="10" stroke-width="0.5"/><polygon points="277.7 521.81 207.72 521.81 207.72 451.83 99.98 451.83 99.98 521.81 30 521.81 30 629.56 99.98 629.56 99.98 699.54 207.72 699.54 207.72 629.56 277.7 629.56 277.7 521.81" fill="#ed433e"/><path d="M41.28,549.42c4.42,24.19,9.23,48.74,17.42,72q1.76,5,3.81,9.9h8.33q-2.64-4.81-5-9.8C51.1,589.68,46.49,554.82,45.16,520H36.45Q38.6,534.77,41.28,549.42Z" fill="#ce2627"/><path d="M96.76,487.34C104,473.06,116,461.49,131,456.79H113a76.07,76.07,0,0,0-16.26,11.33Z" fill="#ce2627"/><path d="M246.26,540.44c3,17.17,2.45,35.32-.23,52.49a127,127,0,0,1-12.11,38.37h3.43a141.42,141.42,0,0,0,20.1-97.08,142.79,142.79,0,0,0-3-14.19H239.86A75.17,75.17,0,0,1,246.26,540.44Z" fill="#ce2627"/><path d="M96.76,659.26v.08l.09,0Z" fill="#ce2627"/><path d="M49.42,520q.26,7,.71,14c2.23,33.6,8.95,67.85,25.64,97.23H78.5C61.9,596.74,60.34,557.91,60.6,520Z" fill="#ce2627"/><path d="M120.72,668.08a217.41,217.41,0,0,1-17.8-26.68A225.14,225.14,0,0,1,74.16,520H64.87c-.07,8.23-.05,16.45.18,24.68.84,29.34,5,60.17,18.18,86.59H96.76v21.31q2.6,3.25,5.46,6.33a2,2,0,0,1,.39,2.3C108.73,663.3,114.81,665.54,120.72,668.08Z" fill="#ce2627"/><path d="M139.56,661.25a232.73,232.73,0,0,1-32.81-49.93,227.67,227.67,0,0,1-21.22-71.39c-.34-2.73,3.94-2.7,4.28,0a218.41,218.41,0,0,0,9,40.29,226.51,226.51,0,0,0,17.58,40.32,204.91,204.91,0,0,1-9.43-27.3,192.49,192.49,0,0,1-5.81-69.16c1.27-12.37,2.81-26.44,10.25-36.8,7-9.76,18-15.76,29.32-19.1,21.91-6.47,46.08-4.66,67.31,3.75V469.6c-10.11-5-21.18-7.71-32.34-9.14-5.57-.71-11.18-1.12-16.79-1.38a143.24,143.24,0,0,0-17.41-.12,46,46,0,0,0-26.73,11.71c-8.61,7.58-14.29,17.22-18,27.72V520h-5c-.41,3.08-.71,6.16-.93,9.22-.19,2.74-4.47,2.75-4.28,0q.33-4.62.9-9.22h-9a215.29,215.29,0,0,0,.06,23.41c2.65,46.36,20.26,91.85,50,127.52a2.24,2.24,0,0,1,.47.92c11.56,5.75,22.22,13,30.93,22.67h10.66A194.07,194.07,0,0,1,139.56,661.25Z" fill="#ce2627"/><path d="M201.49,615A81.78,81.78,0,0,0,213,547.52c-3.08-11.09-8.91-21.42-17.55-29.13-8.25-7.36-19.58-11.94-30.65-9.14-6,1.51-11.11,5-13.9,10.63-2.88,5.78-3.44,12.73-4,19.06a155.21,155.21,0,0,0,33.53,111A157.35,157.35,0,0,0,208,676.55v-10.2q-3.67-3.77-7.2-7.68c-15-16.65-28-35.36-36.48-56.2-7.27-17.85-13.05-40.07-5.27-58.73a35,35,0,0,1,7.38-11.25c1.78-1.79,3.85-3.65,6.45-4s4.62.85,6.53,2.32A55.8,55.8,0,0,1,196.1,552.6c7.33,16.75,7.36,36.51-1.29,52.78a2.17,2.17,0,0,1-3.69,0,55.94,55.94,0,0,1-9.47-41.52c.29-1.78,2.46-1.81,3.58-.94a13,13,0,0,1,4.86,9c.33,2.73-4,2.7-4.28,0a8,8,0,0,0-.58-2.18A51.8,51.8,0,0,0,192.69,600c7.28-16.43,5.58-36.24-3.57-51.65a52.53,52.53,0,0,0-7.68-10,36.23,36.23,0,0,0-5.17-4.56c-2.59-1.78-4.31-.65-6.35,1.31-6.39,6.16-9.29,14.93-10,23.61-.72,9.36.83,18.65,3.35,27.64A144.9,144.9,0,0,0,175,615.2c8.85,16.65,20.25,31.38,33,44.92V644.89l-1.17-.94a114.9,114.9,0,0,1-33-44.6,107.18,107.18,0,0,1-7.3-27c-.64-4.77-1.55-10.2.49-14.75,1.76-3.94,6.17-6.73,10.48-5.3,2.61.86,1.48,5-1.14,4.13-2.42-.8-4.6.91-5.52,3.09-1.06,2.52-.8,5.42-.57,8.08a97.65,97.65,0,0,0,2.26,13.92A110.06,110.06,0,0,0,208,639.36v-8.06h14.31a140,140,0,0,0,11.08-54.91c0-18.9-3.65-39.31-12.75-56.35H208V502.73A47.27,47.27,0,0,0,184.86,490a45.33,45.33,0,0,0-35.24,7.14,45.8,45.8,0,0,0-18.32,28.16c-1.41,7-1.2,14.29-.81,21.41q.52,9.79,1.26,19.56c1.94,25.11,5.85,51,19.81,72.54a1.93,1.93,0,0,1,.33,1.38A108.49,108.49,0,0,0,208,685.6v-3.71a161.33,161.33,0,0,1-38.58-39.58,159.43,159.43,0,0,1-27.1-79,156.37,156.37,0,0,1,0-21.3c.47-6.8,1-14,3.26-20.5a24.22,24.22,0,0,1,11.91-14A31.45,31.45,0,0,1,175,504.34c24.89,2.65,40.41,28.14,44,50.79,3.93,24.78-3.27,50.87-19.89,69.74-1.82,2.07-4.84-1-3-3A74.6,74.6,0,0,0,201.49,615Z" fill="#ce2627"/><path d="M134,689.53a139.55,139.55,0,0,0-37.24-13.18v3.37c13.17,3,25.89,7.6,37.3,14.84h8.72Q138.48,691.89,134,689.53Z" fill="#ce2627"/><path d="M103.4,666q-3.31-1.14-6.64-2.22V672a144.15,144.15,0,0,1,53.81,22.57h3.58a84.89,84.89,0,0,0-11.54-9.73C130.7,676.43,117.13,670.73,103.4,666Z" fill="#ce2627"/><path d="M57.85,631.31C52,616.93,48,601.76,44.57,586.69Q38,558,33.51,529v49.93c3.65,17.9,8.93,36,17.1,52.4Z" fill="#ce2627"/><path d="M104.56,456.79h-7.8v5.68A80.26,80.26,0,0,1,104.56,456.79Z" fill="#ce2627"/><path d="M33.51,597.57v33.74H45.79A189.22,189.22,0,0,1,33.51,597.57Z" fill="#ce2627"/><path d="M257.32,631.31h14V589.75A248.73,248.73,0,0,1,257.32,631.31Z" fill="#ce2627"/><path d="M180,456.79a104.16,104.16,0,0,1,28,8.07v-8.08H180Z" fill="#ce2627"/><path d="M96.76,684v10.55h29A116.93,116.93,0,0,0,96.76,684Z" fill="#ce2627"/><path d="M169.29,468.64c-12.37-.09-25.26,1.81-36.56,7.05a48,48,0,0,0-14.25,9.75,37.55,37.55,0,0,0-9.09,16.17c-3.26,11.29-4.44,23.42-4.81,35.13a192.61,192.61,0,0,0,9.58,65.72,200.88,200.88,0,0,0,28.65,56,220.65,220.65,0,0,0,39.55,36.08h8.56a170.22,170.22,0,0,1-17.27-17.43,424.92,424.92,0,0,1-39-52.74c-5.3-8.34-10.37-16.84-15-25.59-3.31-6.31-6.57-12.83-8.7-19.66a54.38,54.38,0,0,1-1.92-12.25,117.43,117.43,0,0,1,.88-25.15c2.3-16.29,8.18-32.52,17.81-45.94,4.53-6.32,10.06-12.12,17-15.82,7.31-3.91,15.64-5.19,23.86-4.84,8.56.37,17,2.28,25.25,4.39q7.09,1.81,14.17,3.67v-6.72A103.2,103.2,0,0,0,169.29,468.64Z" fill="#ce2627"/><path d="M237.5,584.2a144.53,144.53,0,0,1-10.56,47.11h2.15a108.14,108.14,0,0,0,7.51-17.38c5.38-16.17,7.35-33.28,7.22-50.27-.11-14.87-1.69-30.38-8.79-43.61h-9.62C235.25,539.55,238.64,562.74,237.5,584.2Z" fill="#ce2627"/><path d="M155.5,488.92a50.08,50.08,0,0,1,38.48-.61A51.4,51.4,0,0,1,208,497v-9.33l-.56-.15c-8.6-2.24-17.18-4.7-25.9-6.42-8-1.58-16.43-2.51-24.51-.93-16.24,3.17-26.48,16.9-33.37,31A107.67,107.67,0,0,0,113,558.31c0,8.76.74,16.92,4,25,5.55,13.65,13.26,26.58,21.31,39-8.39-21.43-10.3-45-11.7-67.83-.85-13.88-1.92-28,4-41A49.66,49.66,0,0,1,155.5,488.92Z" fill="#ce2627"/><path d="M175.36,672.63q2.88,3.3,5.86,6.52a127.46,127.46,0,0,0,16.44,15.41H208v-4.43q-5-1.7-9.89-3.86A111.54,111.54,0,0,1,175.36,672.63Z" fill="#ce2627"/><path d="M271.28,567.27V520H258.81a146.78,146.78,0,0,1-16.45,111.27h10.29q4.27-9.54,7.71-19.44A246.21,246.21,0,0,0,271.28,567.27Z" fill="#ce2627"/><path d="M97.46,693.62v1.68h29a113.21,113.21,0,0,0-25.11-9.6Zm12.21-24.88-3,6.12a143.68,143.68,0,0,1,44.6,20.44h3.58a84.89,84.89,0,0,0-11.54-9.73C133,678.31,121.47,673.07,109.67,668.74ZM140.26,662a232.78,232.78,0,0,1-16.59-21.78l-7.17,14.6a210.17,210.17,0,0,0,12.71,16.9,2.24,2.24,0,0,1,.47.92c11.56,5.75,22.22,13,30.93,22.67h10.66A194.07,194.07,0,0,1,140.26,662Zm68.47-184.76q-2.1-.87-4.25-1.65L201.31,482l7.41,1.93Zm-94.38,182-2.79,5.68c3.32,1.23,6.61,2.53,9.86,3.92Q117.75,664.11,114.34,659.21Zm94.38-170.83-.56-.15c-2.92-.76-5.84-1.55-8.76-2.32l-2.11,4.3a52.35,52.35,0,0,1,11.43,7.5Zm0-18-1.36-.65-1,2.06c.79.29,1.58.59,2.37.9ZM136.16,614.77l-1,2.11q1.95,3.11,3.94,6.19Q137.46,619,136.16,614.77Zm-31.41,64-1.53,3.13a113.14,113.14,0,0,1,31.54,13.41h8.72q-4.3-2.67-8.78-5A139.15,139.15,0,0,0,104.75,678.76ZM272,632V590.49A248.73,248.73,0,0,1,258,632Zm-97.65,45.82a424.93,424.93,0,0,1-39-52.74q-1.21-1.91-2.4-3.83l-5.69,11.6a200.58,200.58,0,0,0,16.24,26.31A220.65,220.65,0,0,0,183,695.3h8.56A170.22,170.22,0,0,1,174.33,677.87ZM258.13,535a142.79,142.79,0,0,0-3-14.19H240.55a75.17,75.17,0,0,1,6.39,20.4c3,17.17,2.45,35.32-.23,52.49A127,127,0,0,1,234.61,632H238A141.42,141.42,0,0,0,258.13,535Zm1.37-14.19A146.78,146.78,0,0,1,243.05,632h10.29q4.27-9.54,7.71-19.44A246.21,246.21,0,0,0,272,568V520.78Zm-15,43.61c-.11-14.87-1.69-30.38-8.79-43.61h-9.62c9.82,19.51,13.21,42.7,12.08,64.16A144.53,144.53,0,0,1,227.64,632h2.15a108.14,108.14,0,0,0,7.51-17.38C242.68,598.49,244.65,581.38,244.52,564.39Zm-74.38,78.66a157.43,157.43,0,0,1-22.75-51.15L139,609a108.18,108.18,0,0,0,13.28,30.52,1.93,1.93,0,0,1,.33,1.38,108.49,108.49,0,0,0,56.14,45.4v-3.71A161.33,161.33,0,0,1,170.14,643.05Zm5.92,30.32q2.88,3.3,5.86,6.52a127.46,127.46,0,0,0,16.44,15.41h10.38v-4.43q-5-1.7-9.89-3.86A111.54,111.54,0,0,1,176.05,673.37Zm45.31-152.59H208.72V503.47a50,50,0,0,0-13.33-9.38l-7.13,14.52c17.54,8.25,28.49,28.71,31.44,47.26,3.93,24.78-3.27,50.87-19.89,69.74-1.82,2.07-4.84-1-3-3a74.6,74.6,0,0,0,5.4-6.87,81.78,81.78,0,0,0,11.5-67.44c-3.08-11.09-8.91-21.42-17.55-29.13a42.38,42.38,0,0,0-9.8-6.58L177.75,530a14.63,14.63,0,0,1,2.38,1.53,55.8,55.8,0,0,1,16.66,21.78c7.33,16.75,7.36,36.51-1.29,52.78a2.17,2.17,0,0,1-3.69,0,55.94,55.94,0,0,1-9.47-41.52c.29-1.78,2.46-1.81,3.58-.94a13,13,0,0,1,4.86,9c.33,2.73-4,2.7-4.28,0a8,8,0,0,0-.58-2.18,51.8,51.8,0,0,0,7.46,30.26c7.28-16.43,5.58-36.24-3.57-51.65a52.53,52.53,0,0,0-7.68-10A36.23,36.23,0,0,0,177,534.5a5.85,5.85,0,0,0-1.11-.61L160.5,565.18A86.82,86.82,0,0,0,164,587.06a144.9,144.9,0,0,0,11.69,28.88c8.85,16.65,20.25,31.38,33,44.92V645.63l-1.17-.94a114.9,114.9,0,0,1-33-44.6,107.18,107.18,0,0,1-7.3-27c-.64-4.77-1.55-10.2.49-14.75,1.76-3.94,6.17-6.73,10.48-5.3,2.61.86,1.48,5-1.14,4.13-2.42-.8-4.6.91-5.52,3.09-1.06,2.52-.8,5.42-.57,8.08a97.65,97.65,0,0,0,2.26,13.92,110.06,110.06,0,0,0,35.48,57.83V632H223a140,140,0,0,0,11.08-54.91C234.07,558.23,230.47,537.83,221.36,520.78ZM165,603.2c-3.76-9.24-7.13-19.65-8.42-30.13l-6.26,12.76a154,154,0,0,0,30.75,64.83,157.35,157.35,0,0,0,27.61,26.62v-10.2q-3.67-3.77-7.2-7.68C186.49,642.75,173.53,624,165,603.2Z" fill="#a91f23"/><rect x="0.25" y="851.25" width="307.2" height="307.2" rx="67.51" ry="67.51" fill="#fff" stroke="#231f20" stroke-miterlimit="10" stroke-width="0.5"/><path d="M187.33,1091.87H107a10.1,10.1,0,0,1,0-20.2h80.37a29.09,29.09,0,0,0,29.06-29.06v-3.54A29.09,29.09,0,0,0,187.33,1010H126.12a49.31,49.31,0,0,1-49.26-49.26v-3.54a49.31,49.31,0,0,1,49.26-49.26h70.24a10.1,10.1,0,0,1,0,20.2H126.12a29.09,29.09,0,0,0-29.06,29.06v3.54a29.09,29.09,0,0,0,29.06,29.06h61.21a49.31,49.31,0,0,1,49.26,49.26v3.54A49.31,49.31,0,0,1,187.33,1091.87Z" fill="#ce2627"/><circle cx="98.08" cy="1080.96" r="26.97" fill="#ce2627" stroke="#fff" stroke-miterlimit="10" stroke-width="9"/><circle cx="189.33" cy="918.78" r="14.72" fill="#ce2627" stroke="#fff" stroke-miterlimit="10" stroke-width="5.4"/><circle cx="98.08" cy="1080.96" r="20.74" fill="#fff" stroke="#ce2627" stroke-miterlimit="10" stroke-width="14.39"/></g></g></svg>