<svg xmlns="http://www.w3.org/2000/svg" viewBox="0 0 1176.01 307.7"><title>Asset 2@2x</title><g id="Layer_2" data-name="Layer 2"><g id="Layer_1-2" data-name="Layer 1"><rect x="0.25" y="0.25" width="307.2" height="307.2" rx="67.51" ry="67.51" fill="#fff" stroke="#231f20" stroke-miterlimit="10" stroke-width="0.5"/><path d="M96.56,222.06" fill="none" stroke="#231f20" stroke-miterlimit="10" stroke-width="8.65"/><circle cx="155.21" cy="153.87" r="112.91" transform="translate(-0.55 307.17) rotate(-89.29)" fill="none" stroke="#bbbdbf" stroke-miterlimit="10" stroke-width="24.84"/><circle cx="152.49" cy="153.83" r="112.91" transform="translate(-3.21 304.41) rotate(-89.29)" fill="none" stroke="#a7a9ac" stroke-miterlimit="10" stroke-width="5.7"/><rect x="153.65" y="43.21" width="2.73" height="31.94" transform="translate(0.74 -1.91) rotate(0.71)" fill="#a7a9ac"/><rect x="151.34" y="230.57" width="2.73" height="31.94" transform="translate(3.05 -1.86) rotate(0.71)" fill="#a7a9ac"/><rect x="244.81" y="138.73" width="2.73" height="31.94" transform="matrix(-0.01, 1, -1, -0.01, 403.89, -89.54)" fill="#a7a9ac"/><rect x="57.44" y="136.42" width="2.73" height="31.94" transform="translate(211.91 95.46) rotate(90.71)" fill="#a7a9ac"/><rect x="225.27" y="75.97" width="2.73" height="14.14" transform="translate(127.81 -137.17) rotate(45.71)" fill="#e6e7e7"/><rect x="79.8" y="215.97" width="2.73" height="18" transform="translate(185.51 9.77) rotate(45.71)" fill="#e6e7e7"/><rect x="220.77" y="217.46" width="2.73" height="17.75" transform="translate(539.19 233.21) rotate(135.71)" fill="#e6e7e7"/><rect x="79.5" y="73.39" width="2.73" height="16.3" transform="translate(195.69 83.43) rotate(135.71)" fill="#e6e7e7"/><polygon points="215.73 125.61 181.1 125.61 181.1 90.98 127.78 90.98 127.78 125.61 93.16 125.61 93.16 178.92 127.78 178.92 127.78 213.55 181.1 213.55 181.1 178.92 215.73 178.92 215.73 125.61" fill="#ce2627"/><rect x="434.41" y="0.25" width="307.2" height="307.2" rx="67.51" ry="67.51" fill="#fff" stroke="#231f20" stroke-miterlimit="10" stroke-width="0.5"/><polygon points="711.86 96.31 641.88 96.31 641.88 26.33 534.13 26.33 534.13 96.31 464.15 96.31 464.15 204.06 534.13 204.06 534.13 274.04 641.88 274.04 641.88 204.06 711.86 204.06 711.86 96.31" fill="#ed433e"/><path d="M475.43,123.92c4.42,24.19,9.23,48.74,17.42,72q1.76,5,3.81,9.9H505q-2.64-4.81-5-9.8c-14.77-31.82-19.39-66.69-20.71-101.47h-8.71Q472.76,109.27,475.43,123.92Z" fill="#ce2627"/><path d="M530.92,61.84c7.22-14.28,19.27-25.85,34.26-30.55h-18a76.07,76.07,0,0,0-16.26,11.33Z" fill="#ce2627"/><path d="M680.41,114.94c3,17.17,2.45,35.32-.23,52.49a127,127,0,0,1-12.11,38.37h3.43a141.42,141.42,0,0,0,20.1-97.08,142.79,142.79,0,0,0-3-14.19H674A75.17,75.17,0,0,1,680.41,114.94Z" fill="#ce2627"/><path d="M530.92,233.76v.08l.09,0Z" fill="#ce2627"/><path d="M483.57,94.54q.26,7,.71,14c2.23,33.6,8.95,67.85,25.64,97.23h2.72c-16.59-34.57-18.15-73.4-17.89-111.27Z" fill="#ce2627"/><path d="M554.88,242.58a217.41,217.41,0,0,1-17.8-26.68A225.14,225.14,0,0,1,508.32,94.54H499c-.07,8.23-.05,16.45.18,24.68.84,29.34,5,60.17,18.18,86.59h13.53v21.31q2.6,3.25,5.46,6.33a2,2,0,0,1,.39,2.3C542.89,237.8,549,240,554.88,242.58Z" fill="#ce2627"/><path d="M573.72,235.75a232.73,232.73,0,0,1-32.81-49.93,227.67,227.67,0,0,1-21.22-71.39c-.34-2.73,3.94-2.7,4.28,0a218.41,218.41,0,0,0,9,40.29A226.51,226.51,0,0,0,550.54,195a204.91,204.91,0,0,1-9.43-27.3,192.49,192.49,0,0,1-5.81-69.16c1.27-12.37,2.81-26.44,10.25-36.8,7-9.76,18-15.76,29.32-19.1C596.78,36.2,621,38,642.19,46.42V44.1c-10.11-5-21.18-7.71-32.34-9.14-5.57-.71-11.18-1.12-16.79-1.38a143.24,143.24,0,0,0-17.41-.12,46,46,0,0,0-26.73,11.71c-8.61,7.58-14.29,17.22-18,27.72V94.54h-5c-.41,3.08-.71,6.16-.93,9.22-.19,2.74-4.47,2.75-4.28,0q.33-4.62.9-9.22h-9a215.29,215.29,0,0,0,.06,23.41c2.65,46.36,20.26,91.85,50,127.52a2.24,2.24,0,0,1,.47.92c11.56,5.75,22.22,13,30.93,22.67h10.66A194.07,194.07,0,0,1,573.72,235.75Z" fill="#ce2627"/><path d="M635.64,189.47A81.78,81.78,0,0,0,647.14,122c-3.08-11.09-8.91-21.42-17.55-29.13C621.34,85.54,610,81,598.94,83.75c-6,1.51-11.11,5-13.9,10.63-2.88,5.78-3.44,12.73-4,19.06a155.21,155.21,0,0,0,33.53,111A157.35,157.35,0,0,0,642.19,251v-10.2q-3.67-3.77-7.2-7.68c-15-16.65-28-35.36-36.48-56.2-7.27-17.85-13.05-40.07-5.27-58.73A35,35,0,0,1,600.61,107c1.78-1.79,3.85-3.65,6.45-4s4.62.85,6.53,2.32a55.8,55.8,0,0,1,16.66,21.78c7.33,16.75,7.36,36.51-1.29,52.78a2.17,2.17,0,0,1-3.69,0,55.94,55.94,0,0,1-9.47-41.52c.29-1.78,2.46-1.81,3.58-.94a13,13,0,0,1,4.86,9c.33,2.73-4,2.7-4.28,0a8,8,0,0,0-.58-2.18,51.8,51.8,0,0,0,7.46,30.26c7.28-16.43,5.58-36.24-3.57-51.65a52.53,52.53,0,0,0-7.68-10,36.23,36.23,0,0,0-5.17-4.56c-2.59-1.78-4.31-.65-6.35,1.31-6.39,6.16-9.29,14.93-10,23.61-.72,9.36.83,18.65,3.35,27.64a144.9,144.9,0,0,0,11.69,28.88c8.85,16.65,20.25,31.38,33,44.92V219.39l-1.17-.94a114.9,114.9,0,0,1-33-44.6,107.18,107.18,0,0,1-7.3-27c-.64-4.77-1.55-10.2.49-14.75,1.76-3.94,6.17-6.73,10.48-5.3,2.61.86,1.48,5-1.14,4.13-2.42-.8-4.6.91-5.52,3.09-1.06,2.52-.8,5.42-.57,8.08A97.65,97.65,0,0,0,606.71,156a110.06,110.06,0,0,0,35.48,57.83v-8.06H656.5a140,140,0,0,0,11.08-54.91c0-18.9-3.65-39.31-12.75-56.35H642.19V77.23A47.27,47.27,0,0,0,619,64.5a45.33,45.33,0,0,0-35.24,7.14,45.8,45.8,0,0,0-18.32,28.16c-1.41,7-1.2,14.29-.81,21.41q.52,9.79,1.26,19.56c1.94,25.11,5.85,51,19.81,72.54a1.93,1.93,0,0,1,.33,1.38,108.49,108.49,0,0,0,56.14,45.4v-3.71a161.33,161.33,0,0,1-38.58-39.58,159.43,159.43,0,0,1-27.1-79,156.37,156.37,0,0,1,0-21.3c.47-6.8,1-14,3.26-20.5a24.22,24.22,0,0,1,11.91-14,31.45,31.45,0,0,1,17.47-3.09c24.89,2.65,40.41,28.14,44,50.79,3.93,24.78-3.27,50.87-19.89,69.74-1.82,2.07-4.84-1-3-3A74.6,74.6,0,0,0,635.64,189.47Z" fill="#ce2627"/><path d="M568.16,264a139.55,139.55,0,0,0-37.24-13.18v3.37c13.17,3,25.89,7.6,37.3,14.84h8.72Q572.64,266.39,568.16,264Z" fill="#ce2627"/><path d="M537.56,240.53q-3.31-1.14-6.64-2.22v8.18a144.15,144.15,0,0,1,53.81,22.57h3.58a84.89,84.89,0,0,0-11.54-9.73C564.85,250.93,551.29,245.23,537.56,240.53Z" fill="#ce2627"/><path d="M492,205.81c-5.85-14.38-9.84-29.55-13.28-44.62q-6.54-28.65-11.06-57.71v49.93c3.65,17.9,8.93,36,17.1,52.4Z" fill="#ce2627"/><path d="M538.72,31.29h-7.8V37A80.26,80.26,0,0,1,538.72,31.29Z" fill="#ce2627"/><path d="M467.67,172.07v33.74h12.28A189.22,189.22,0,0,1,467.67,172.07Z" fill="#ce2627"/><path d="M691.47,205.81h14V164.25A248.73,248.73,0,0,1,691.47,205.81Z" fill="#ce2627"/><path d="M614.2,31.29a104.16,104.16,0,0,1,28,8.07V31.29h-28Z" fill="#ce2627"/><path d="M530.92,258.5v10.55h29A116.93,116.93,0,0,0,530.92,258.5Z" fill="#ce2627"/><path d="M603.45,43.14c-12.37-.09-25.26,1.81-36.56,7.05a48,48,0,0,0-14.25,9.75,37.55,37.55,0,0,0-9.09,16.17c-3.26,11.29-4.44,23.42-4.81,35.13A192.61,192.61,0,0,0,548.31,177,200.88,200.88,0,0,0,577,233a220.65,220.65,0,0,0,39.55,36.08h8.56a170.22,170.22,0,0,1-17.27-17.43,424.92,424.92,0,0,1-39-52.74c-5.3-8.34-10.37-16.84-15-25.59-3.31-6.31-6.57-12.83-8.7-19.66a54.38,54.38,0,0,1-1.92-12.25,117.43,117.43,0,0,1,.88-25.15c2.3-16.29,8.18-32.52,17.81-45.94,4.53-6.32,10.06-12.12,17-15.82,7.31-3.91,15.64-5.19,23.86-4.84,8.56.37,17,2.28,25.25,4.39q7.09,1.81,14.17,3.67V51A103.2,103.2,0,0,0,603.45,43.14Z" fill="#ce2627"/><path d="M671.66,158.7a144.53,144.53,0,0,1-10.56,47.11h2.15a108.14,108.14,0,0,0,7.51-17.38c5.38-16.17,7.35-33.28,7.22-50.27-.11-14.87-1.69-30.38-8.79-43.61h-9.62C669.41,114.05,672.79,137.24,671.66,158.7Z" fill="#ce2627"/><path d="M589.65,63.42a50.08,50.08,0,0,1,38.48-.61,51.4,51.4,0,0,1,14,8.66V62.14l-.56-.15c-8.6-2.24-17.18-4.7-25.9-6.42-8-1.58-16.43-2.51-24.51-.93-16.24,3.17-26.48,16.9-33.37,31a107.67,107.67,0,0,0-10.65,47.21c0,8.76.74,16.92,4,25,5.55,13.65,13.26,26.58,21.31,39-8.39-21.43-10.3-45-11.7-67.83-.85-13.88-1.92-28,4-41A49.66,49.66,0,0,1,589.65,63.42Z" fill="#ce2627"/><path d="M609.52,247.13q2.88,3.3,5.86,6.52a127.46,127.46,0,0,0,16.44,15.41h10.38v-4.43q-5-1.7-9.89-3.86A111.54,111.54,0,0,1,609.52,247.13Z" fill="#ce2627"/><path d="M705.44,141.77V94.54H693a146.78,146.78,0,0,1-16.45,111.27h10.29q4.27-9.54,7.71-19.44A246.21,246.21,0,0,0,705.44,141.77Z" fill="#ce2627"/><path d="M531.61,268.12v1.68h29a113.21,113.21,0,0,0-25.11-9.6Zm12.21-24.88-3,6.12a143.68,143.68,0,0,1,44.6,20.44H589a84.89,84.89,0,0,0-11.54-9.73C567.16,252.81,555.63,247.57,543.82,243.24Zm30.59-6.75a232.78,232.78,0,0,1-16.59-21.78l-7.17,14.6a210.17,210.17,0,0,0,12.71,16.9,2.24,2.24,0,0,1,.47.92c11.56,5.75,22.22,13,30.93,22.67h10.66A194.07,194.07,0,0,1,574.41,236.49ZM642.88,51.73q-2.1-.87-4.25-1.65l-3.16,6.44,7.41,1.93Zm-94.38,182-2.79,5.68c3.32,1.23,6.61,2.53,9.86,3.92Q551.91,238.61,548.5,233.71ZM642.88,62.89l-.56-.15c-2.92-.76-5.84-1.55-8.76-2.32l-2.11,4.3a52.35,52.35,0,0,1,11.43,7.5Zm0-18-1.36-.65-1,2.06c.79.29,1.58.59,2.37.9ZM570.31,189.27l-1,2.11q1.95,3.11,3.94,6.19Q571.61,193.47,570.31,189.27Zm-31.41,64-1.53,3.13a113.14,113.14,0,0,1,31.54,13.41h8.72q-4.3-2.67-8.78-5A139.15,139.15,0,0,0,538.9,253.26Zm167.23-46.72V165a248.73,248.73,0,0,1-14,41.56Zm-97.65,45.82a424.93,424.93,0,0,1-39-52.74q-1.21-1.91-2.4-3.83l-5.69,11.6a200.58,200.58,0,0,0,16.24,26.31A220.65,220.65,0,0,0,617.2,269.8h8.56A170.22,170.22,0,0,1,608.48,252.37Zm83.8-142.9a142.79,142.79,0,0,0-3-14.19H674.71a75.17,75.17,0,0,1,6.39,20.4c3,17.17,2.45,35.32-.23,52.49a127,127,0,0,1-12.11,38.37h3.43a141.42,141.42,0,0,0,20.1-97.08Zm1.37-14.19a146.78,146.78,0,0,1-16.45,111.27H687.5q4.27-9.54,7.71-19.44a246.21,246.21,0,0,0,10.92-44.6V95.28Zm-15,43.61c-.11-14.87-1.69-30.38-8.79-43.61h-9.62c9.82,19.51,13.21,42.7,12.08,64.16a144.53,144.53,0,0,1-10.56,47.11h2.15a108.14,108.14,0,0,0,7.51-17.38C676.84,173,678.81,155.88,678.68,138.89Zm-74.38,78.66a157.43,157.43,0,0,1-22.75-51.15l-8.41,17.13a108.18,108.18,0,0,0,13.28,30.52,1.93,1.93,0,0,1,.33,1.38,108.49,108.49,0,0,0,56.14,45.4v-3.71A161.33,161.33,0,0,1,604.29,217.55Zm5.92,30.32q2.88,3.3,5.86,6.52A127.46,127.46,0,0,0,632.5,269.8h10.38v-4.43q-5-1.7-9.89-3.86A111.54,111.54,0,0,1,610.21,247.87ZM655.52,95.28H642.88V78a50,50,0,0,0-13.33-9.38l-7.13,14.52c17.54,8.25,28.49,28.71,31.44,47.26,3.93,24.78-3.27,50.87-19.89,69.74-1.82,2.07-4.84-1-3-3a74.6,74.6,0,0,0,5.4-6.87,81.78,81.78,0,0,0,11.5-67.44c-3.08-11.09-8.91-21.42-17.55-29.13a42.38,42.38,0,0,0-9.8-6.58l-8.57,17.47a14.63,14.63,0,0,1,2.38,1.53A55.8,55.8,0,0,1,631,127.84c7.33,16.75,7.36,36.51-1.29,52.78a2.17,2.17,0,0,1-3.69,0,55.94,55.94,0,0,1-9.47-41.52c.29-1.78,2.46-1.81,3.58-.94a13,13,0,0,1,4.86,9c.33,2.73-4,2.7-4.28,0a8,8,0,0,0-.58-2.18,51.8,51.8,0,0,0,7.46,30.26c7.28-16.43,5.58-36.24-3.57-51.65a52.53,52.53,0,0,0-7.68-10,36.23,36.23,0,0,0-5.17-4.56,5.85,5.85,0,0,0-1.11-.61l-15.36,31.29a86.82,86.82,0,0,0,3.51,21.88,144.9,144.9,0,0,0,11.69,28.88c8.85,16.65,20.25,31.38,33,44.92V220.13l-1.17-.94a114.9,114.9,0,0,1-33-44.6,107.18,107.18,0,0,1-7.3-27c-.64-4.77-1.55-10.2.49-14.75,1.76-3.94,6.17-6.73,10.48-5.3,2.61.86,1.48,5-1.14,4.13-2.42-.8-4.6.91-5.52,3.09-1.06,2.52-.8,5.42-.57,8.08a97.65,97.65,0,0,0,2.26,13.92,110.06,110.06,0,0,0,35.48,57.83v-8.06h14.31a140,140,0,0,0,11.08-54.91C668.23,132.73,664.62,112.33,655.52,95.28ZM599.2,177.7c-3.76-9.24-7.13-19.65-8.42-30.13l-6.26,12.76a154,154,0,0,0,30.75,64.83,157.35,157.35,0,0,0,27.61,26.62v-10.2q-3.67-3.77-7.2-7.68C620.65,217.25,607.69,198.55,599.2,177.7Z" fill="#a91f23"/><rect x="868.56" y="0.25" width="307.2" height="307.2" rx="67.51" ry="67.51" fill="#fff" stroke="#231f20" stroke-miterlimit="10" stroke-width="0.5"/><path d="M1055.64,240.87H975.27a10.1,10.1,0,1,1,0-20.2h80.37a29.09,29.09,0,0,0,29.06-29.06v-3.54A29.09,29.09,0,0,0,1055.64,159H994.43a49.31,49.31,0,0,1-49.26-49.26v-3.54a49.31,49.31,0,0,1,49.26-49.26h70.24a10.1,10.1,0,1,1,0,20.2H994.43a29.09,29.09,0,0,0-29.06,29.06v3.54a29.09,29.09,0,0,0,29.06,29.06h61.21a49.31,49.31,0,0,1,49.26,49.26v3.54A49.31,49.31,0,0,1,1055.64,240.87Z" fill="#ce2627"/><circle cx="966.39" cy="229.96" r="26.97" fill="#ce2627" stroke="#fff" stroke-miterlimit="10" stroke-width="9"/><circle cx="1057.64" cy="67.78" r="14.72" fill="#ce2627" stroke="#fff" stroke-miterlimit="10" stroke-width="5.4"/><circle cx="966.39" cy="229.96" r="20.74" fill="#fff" stroke="#ce2627" stroke-miterlimit="10" stroke-width="14.39"/></g></g></svg>