<svg xmlns="http://www.w3.org/2000/svg" viewBox="0 0 68.89 73.15"><title>Asset 1@2x</title><g id="Layer_2" data-name="Layer 2"><g id="Layer_1-2" data-name="Layer 1"><circle cx="47.37" cy="9.97" r="8.57" transform="translate(18.84 49.08) rotate(-65.77)" fill="#fff" stroke="#000" stroke-miterlimit="10" stroke-width="2.8"/><circle cx="34.44" cy="38.7" r="33" transform="translate(-14.98 54.23) rotate(-65.77)" fill="#fff" stroke="#000" stroke-miterlimit="10" stroke-width="2.87"/><circle cx="34.44" cy="38.7" r="24.95" transform="translate(-14.98 54.23) rotate(-65.77)" fill="#fff" stroke="#000" stroke-miterlimit="10" stroke-width="2.87"/><circle cx="34.44" cy="38.7" r="4.28" transform="translate(-14.98 54.23) rotate(-65.77)" stroke="#fff" stroke-miterlimit="10"/><path d="M25.16,34.09l-.33.73a1.11,1.11,0,0,1-1.45.55l-7.25-3.26a1.11,1.11,0,0,1-.55-1.45l.33-.73a1.11,1.11,0,0,1,1.45-.55l7.25,3.26A1,1,0,0,1,25.16,34.09Z"/><path d="M52.7,46.48l-.33.73a1.11,1.11,0,0,1-1.45.55L43.67,44.5A1.11,1.11,0,0,1,43.12,43l.33-.73a1.11,1.11,0,0,1,1.45-.55L52.15,45A1,1,0,0,1,52.7,46.48Z"/><path d="M39.13,29.27l-.73-.33a1.11,1.11,0,0,1-.55-1.45l3.26-7.25a1.11,1.11,0,0,1,1.45-.55l.73.33a1.11,1.11,0,0,1,.55,1.45l-3.26,7.25A1,1,0,0,1,39.13,29.27Z"/><path d="M26.74,56.8,26,56.48A1.11,1.11,0,0,1,25.45,55l3.26-7.25a1.11,1.11,0,0,1,1.45-.55l.73.33A1.11,1.11,0,0,1,31.45,49l-3.26,7.25A1,1,0,0,1,26.74,56.8Z"/></g></g></svg>