<svg xmlns="http://www.w3.org/2000/svg" viewBox="0 0 321 39.3"><title>Asset 2@2x</title><g id="Layer_2" data-name="Layer 2"><g id="Layer_1-2" data-name="Layer 1"><circle cx="188.9" cy="18.7" r="18.3" fill="#f78e1e"/><circle cx="243.2" cy="18.3" r="18.3" fill="#f15f24"/><circle cx="131" cy="21" r="18.3" fill="#e2cf22"/><circle cx="77.1" cy="18.7" r="18.3" fill="#b5c355"/><circle cx="302.7" cy="18.8" r="18.3" fill="#e4214c"/><circle cx="18.3" cy="19.8" r="18.3" fill="#7fc356"/><path d="M299.4,21.1a.4.4,0,0,1-.8,0c0-.2.2-1.8.4-1.8A5.26,5.26,0,0,1,299.4,21.1Z"/><path d="M312.7,23.2a.4.4,0,0,1-.8,0c0-.2.2-1.8.4-1.8S312.7,22.9,312.7,23.2Z"/><path d="M313.2,27.8a.5.5,0,0,1-1,0c0-.3.2-2,.5-2S313.2,27.6,313.2,27.8Z"/><circle cx="239.1" cy="15.9" r="1.2"/><circle cx="250" cy="16.2" r="1.2"/><circle cx="183.5" cy="14.2" r="1.2"/><circle cx="194.4" cy="14.5" r="1.2"/><line x1="123.5" y1="24.1" x2="134.4" y2="24.1" fill="none" stroke="#000" stroke-linecap="round" stroke-miterlimit="10"/><circle cx="123.5" cy="14.1" r="1.2"/><circle cx="134.4" cy="14.4" r="1.2"/><path d="M10.4,12.8c.1.6-.3.3-.9.4s-1.3.7-1.4.1A1.24,1.24,0,0,1,9,11.9,1.18,1.18,0,0,1,10.4,12.8Z"/><path d="M21.1,10.7c.1.6-.3.3-.9.4s-1.3.7-1.4.1a1.18,1.18,0,1,1,2.3-.5Z"/><path d="M11.1,19.7c1.6,2,4.5,5.1,7.4,4,2.7-1.1,3.5-4.7,3.4-7.3a.5.5,0,0,0-1,0c.1,2.5-.7,6.7-4,6.3-2.2-.3-3.8-2.1-5.1-3.7-.4-.6-1.1.2-.7.7Z"/><circle cx="68.4" cy="14.2" r="1.2" transform="translate(-0.96 5.9) rotate(-4.91)"/><circle cx="79.3" cy="13.59" r="1.2" transform="translate(-0.87 6.84) rotate(-4.91)"/><path d="M70.9,22.7c3.4.8,8.2,0,10.8-2.4.4-.3-.2-.9-.5-.5C78.8,22,74.3,22.7,71.1,22c-.5-.1-.7.6-.2.7Z"/><path d="M183.9,23.1c2.6-1.9,7.2-2.9,10.2-1.8.5.2.7-.6.2-.7-3.3-1.2-8-.2-10.8,1.9-.4.3,0,.9.4.6Z"/><path d="M239.1,25.8a10.43,10.43,0,0,1,3.9-3.9c3-1.2,5.1,1.6,5.4,4.2.1.6,1,.6.9,0-.3-2.5-1.9-5.3-4.7-5.5s-5.1,2.6-6.4,4.7c-.2.5.6,1,.9.5Z"/><path d="M300,27a8.13,8.13,0,0,1,5-3.3c2.9-.4,4.3,2.5,4.2,5a.45.45,0,1,0,.9,0c0-2.4-1.1-5.2-3.6-6-2.8-.8-5.6,1.7-7.3,3.7-.2.4.4,1.1.8.6Z"/><path d="M301.8,17.9a1.22,1.22,0,0,1-2.4-.4c.1-.6.7-.1,1.4,0S301.9,17.3,301.8,17.9Z"/><path d="M312.5,20a1.22,1.22,0,0,1-2.4-.4c.1-.6.7-.1,1.4,0S312.6,19.3,312.5,20Z"/><circle cx="19.3" cy="20" r="17.8" fill="none" stroke="#000" stroke-miterlimit="10" stroke-width="1.14"/><circle cx="75.7" cy="20" r="17.8" fill="none" stroke="#000" stroke-miterlimit="10" stroke-width="1.14"/><circle cx="132" cy="20" r="17.8" fill="none" stroke="#000" stroke-miterlimit="10" stroke-width="1.14"/><circle cx="188.4" cy="20" r="17.8" fill="none" stroke="#000" stroke-miterlimit="10" stroke-width="1.14"/><circle cx="244.7" cy="20" r="17.8" fill="none" stroke="#000" stroke-miterlimit="10" stroke-width="1.14"/><circle cx="301" cy="20" r="17.8" fill="none" stroke="#000" stroke-miterlimit="10" stroke-width="1.14"/></g></g></svg>