<?xml version="1.0" encoding="utf-8"?>
<!-- Generator: Adobe Illustrator 20.1.0, SVG Export Plug-In . SVG Version: 6.00 Build 0)  -->
<svg version="1.1" id="Layer_1" xmlns="http://www.w3.org/2000/svg" xmlns:xlink="http://www.w3.org/1999/xlink" x="0px" y="0px"
	 viewBox="0 0 360 360" style="enable-background:new 0 0 360 360;" xml:space="preserve">
<style type="text/css">
	.st0{fill:#FFFFFF;}
	.st1{fill:#CCCCCC;}
</style>
<path class="st0" d="M152,163.5c-0.4,19,5.4,36,16.7,51.1c2.6,3.5,5.7,5.4,10,5.5c15.8,0.3,29.3-11.7,29.4-27.4
	c0.1-18.1-6-33.5-22.2-43.5c-3.8-2.3-7.7-4.6-11.7-6.6c-9.6-4.8-20,0.5-21.7,11C152.1,156.8,152.2,160.2,152,163.5z"/>
<path class="st1" d="M152,163.5c0.2-3.3,0.1-6.7,0.6-10c1.7-10.5,12.1-15.8,21.7-11c4,2,7.9,4.2,11.7,6.6
	c16.2,10,22.3,25.5,22.2,43.5c-0.1,15.7-13.6,27.7-29.4,27.4c-4.3-0.1-7.4-2-10-5.5C157.4,199.5,151.6,182.5,152,163.5z
	 M165.4,158.6c-0.8,2.1-2.2,4.2-2.2,6.3c0,11.8,5.3,21.3,13.5,29.4c5.6,5.5,11.4,4.7,16-2c-8.5,4.1-14.1,2.6-19.5-5
	c1.5,1,3,2,4.4,3.1c7.6,5.5,14.4,2.5,15.6-6.7c1.1-8.7-1.5-16.3-6.1-23.6c-3.5-5.6-8.5-7.9-15.1-7.4c-3.7,0.3-6,1.5-6.4,5.4
	C165.6,158.2,165.5,158.4,165.4,158.6z M156.4,158c-0.4,2.1-1.2,4.2-1,6.3c1.5,16,6.5,30.9,17,43.3c4.5,5.2,11.3,8.5,18.2,7.2
	c10.6-2,17.9-15.8,14.8-26.5c0.4,8.4-2.5,15.4-9.1,20.5c-1.7,1.3-4.3,2.3-6.3,2c-9.2-1.1-16.4-5.4-21.6-13.4
	C160.6,185.4,157,172.2,156.4,158z M160.9,167.7c0.4,9.8,5.2,19.9,12.1,29.1c4.4,5.9,10.7,8.7,16,6.7c6-2.3,8.6-7.5,9.6-13.6
	c1.4-9,0-17.6-3.3-25.9c-1-2.5-2.5-4.9-3.7-7.3c-0.6,1.6,0,2.6,0.4,3.6c3.4,9.4,7.1,18.8,4.3,29.1c-1.3,4.8-3.8,8.3-8.9,9.8
	c-4.9,1.4-8.5-0.6-11.6-3.8c-2.3-2.4-4.9-4.8-6.3-7.7C166,180.6,163.2,173.3,160.9,167.7z M171.5,199.2c3.8,5.2,9.2,8.4,16,9.9
	c3.6,0.8,5.9-0.1,8.6-2.1c9.9-7.6,8.9-26.2,4.3-33.8c0,4.6,0.2,10.4-0.1,16.1c-0.5,10.3-7.4,17.5-16.2,16
	C179.6,204.6,175.5,201.2,171.5,199.2z M186.5,216.5c-22.5-5.3-25.2-24.7-31.8-41.2c0,2.1,0.3,4.2,0.7,6.2c2.3,11,7,21,13.3,30.3
	C173.8,219,176.6,220.1,186.5,216.5z M171.9,143.3c-12.2-0.8-17.9,3.7-17.2,12.7C163.1,144.8,163.1,144.8,171.9,143.3z M165.1,153
	c11.7-4.7,19.3-0.4,25.4,8.6C185.9,149.7,173.5,145.3,165.1,153z M165.3,149.4c-4.8,1.6-7.5,7.6-6.8,15.2
	C160.5,160.2,163.1,154.4,165.3,149.4z"/>
<path class="st0" d="M156.4,158c0.7,14.2,4.2,27.4,12,39.4c5.2,8,12.4,12.3,21.6,13.4c2,0.2,4.7-0.7,6.3-2
	c6.5-5.1,9.5-12.1,9.1-20.5c3.1,10.7-4.2,24.5-14.8,26.5c-7,1.3-13.7-2-18.2-7.2c-10.6-12.3-15.5-27.2-17-43.3
	C155.2,162.2,156,160.1,156.4,158z"/>
<path class="st0" d="M160.9,167.7c2.4,5.6,5.2,12.9,8.6,19.9c1.4,2.9,3.9,5.3,6.3,7.7c3.1,3.2,6.7,5.3,11.6,3.8
	c5.1-1.5,7.6-5,8.9-9.8c2.8-10.3-0.9-19.7-4.3-29.1c-0.4-1.1-1-2-0.4-3.6c1.3,2.4,2.7,4.8,3.7,7.3c3.3,8.3,4.7,17,3.3,25.9
	c-0.9,6.1-3.6,11.3-9.6,13.6c-5.3,2-11.5-0.8-16-6.7C166.1,187.6,161.3,177.5,160.9,167.7z"/>
<path class="st0" d="M171.5,199.2c4,2.1,8.1,5.4,12.6,6.2c8.8,1.5,15.6-5.7,16.2-16c0.3-5.8,0.1-11.5,0.1-16.1
	c4.6,7.6,5.6,26.2-4.3,33.8c-2.6,2-4.9,3-8.6,2.1C180.6,207.6,175.3,204.4,171.5,199.2z"/>
<path class="st0" d="M165.7,158c0.5-3.8,2.8-5.1,6.4-5.4c6.6-0.5,11.6,1.7,15.1,7.4c4.5,7.2,7.1,14.9,6.1,23.6
	c-1.1,9.2-8,12.2-15.6,6.7c-1.5-1.1-2.9-2.1-4.4-3.1c-0.7-1.5-1.3-3.1-2-4.6c3.1,2.4,5.9,5.1,9.3,7c6.5,3.8,10.2,1.6,10.5-5.7
	c0.1-2.6,0.2-5.3-0.3-7.9c-1.1-6.4-3.3-12.4-9.1-16.2c-0.1-0.2-0.2-0.3-0.3-0.5C177.5,155,170.5,154.4,165.7,158z"/>
<path class="st0" d="M186.5,216.5c-9.9,3.6-12.7,2.6-17.7-4.7c-6.4-9.3-11.1-19.2-13.3-30.3c-0.4-2-0.7-4.1-0.7-6.2
	C161.4,191.8,164,211.2,186.5,216.5z"/>
<path class="st0" d="M171.4,182.6c0.7,1.5,1.3,3.1,2,4.6c5.3,7.6,11,9.1,19.5,5c-4.6,6.7-10.5,7.5-16,2
	c-8.2-8.1-13.5-17.6-13.5-29.4c0-2.1,1.4-4.2,2.2-6.3c-0.2,8.3-0.8,16.7,6,23.2C171.4,182.1,171.4,182.4,171.4,182.6z"/>
<path class="st1" d="M171.4,181.8c-6.8-6.5-6.2-14.9-6-23.2c0.1-0.2,0.2-0.4,0.3-0.6c4.8-3.6,11.8-3,15.7,1.3
	c-2.5-0.8-4.9-2.1-7.4-2.4c-6.3-0.8-8.3,1.7-7.1,8.5c0.8-1.7,1.6-3.1,2.3-4.5c-1.7,5.2-1.5,10,1,14.8c0.8,1.6,1.5,3.3,2.2,4.9
	C172,181,171.7,181.4,171.4,181.8z"/>
<path class="st0" d="M171.9,143.3c-8.8,1.4-8.8,1.4-17.2,12.7C153.9,147.1,159.7,142.5,171.9,143.3z"/>
<path class="st0" d="M165.1,153c8.4-7.7,20.8-3.3,25.4,8.6C184.4,152.6,176.8,148.3,165.1,153z"/>
<path class="st0" d="M165.3,149.4c-2.2,5-4.8,10.8-6.8,15.2C157.8,157,160.5,151.1,165.3,149.4z"/>
<path class="st0" d="M172.4,180.6c-0.7-1.6-1.4-3.3-2.2-4.9c-2.5-4.8-2.6-9.6-1-14.8c-0.7,1.4-1.5,2.9-2.3,4.5
	c-1.2-6.8,0.8-9.3,7.1-8.5c2.5,0.3,4.9,1.6,7.4,2.4c0.1,0.2,0.2,0.3,0.3,0.5c0.2,0.7,0.4,1.4,0.7,2.1c-0.8-0.2-1.6-0.5-1.2-0.3
	c1.7,6.2,4,12.7,5.1,19.5c0.7,4.4-1.7,5.7-5.9,3.7c-5.7-2.7-7.5-8.2-8.8-13.8c-1.2-4.9,1.6-7.3,6.6-6.1c2.6,4.9,4.6,9.9,3.4,15.9
	c-4.1-2.6-6.5-7.6-5.3-10.5c0.3-0.7,0.6-1.3,0.9-2c-0.6-0.2-1.4-0.8-1.7-0.6c-0.6,0.5-1.3,1.5-1.2,2c1.5,3.9,3.1,7.8,5,11.5
	c0.2,0.3,3.5-0.2,3.9-1c1.6-3.5-1.8-12.9-5.2-15.3c-1.7-0.6-4-2.2-4.8-1.6c-1.5,1-3.2,3.6-2.9,5.1c1.1,4.7,3,9.3,4.6,13.9
	C174.1,181.8,173.2,181.2,172.4,180.6z"/>
<path class="st1" d="M182.4,161.9c-0.2-0.7-0.4-1.4-0.7-2.1c5.9,3.8,8,9.8,9.1,16.2c0.5,2.6,0.3,5.3,0.3,7.9
	c-0.2,7.3-4,9.5-10.5,5.7c-3.3-1.9-6.2-4.7-9.3-7c0-0.3,0-0.5,0-0.8c0.3-0.4,0.7-0.8,1-1.2c0.9,0.6,1.8,1.2,2.7,1.8
	c1,1.1,2.1,2.3,3.1,3.4c3.2,1.2,6.3,2.5,9.5,3.7c0.8-3.1,2.4-6.2,2.3-9.2c-0.4-6.9-1.9-13.7-7.8-18.5L182.4,161.9z"/>
<path class="st1" d="M178.2,185.8c-1-1.1-2.1-2.3-3.1-3.4c-1.6-4.6-3.6-9.2-4.6-13.9c-0.3-1.5,1.4-4.1,2.9-5.1
	c0.9-0.6,3.2,1,4.8,1.6l0.1-0.1c-5-1.2-7.8,1.2-6.6,6.1c1.3,5.5,3.1,11,8.8,13.8c4.2,2,6.6,0.8,5.9-3.7c-1.1-6.7-3.4-13.2-5.1-19.5
	c-0.5-0.1,0.3,0.1,1.2,0.3c0,0-0.2-0.2-0.2-0.2c1.8,4.9,4.1,9.7,5.3,14.8C189.9,186.2,187.4,188.5,178.2,185.8z"/>
<path class="st1" d="M178.1,165c3.3,2.4,6.8,11.8,5.2,15.3c-0.4,0.8-3.7,1.3-3.9,1c-1.9-3.7-3.5-7.6-5-11.5c-0.2-0.5,0.6-1.5,1.2-2
	c0.2-0.2,1.1,0.4,1.7,0.6c-0.3,0.7-0.6,1.3-0.9,2c-1.2,2.9,1.1,8,5.3,10.5C182.9,174.8,180.8,169.8,178.1,165
	C178.2,164.9,178.1,165,178.1,165z"/>
<path class="st0" d="M178.2,185.8c9.2,2.6,11.7,0.3,9.4-9.3c-1.3-5.1-3.5-9.9-5.3-14.8c5.8,4.8,7.3,11.6,7.7,18.5
	c0.2,3-1.5,6.1-2.3,9.2C184.5,188.3,181.3,187.1,178.2,185.8z"/>
</svg>
