<svg xmlns="http://www.w3.org/2000/svg" viewBox="0 0 442.38 304.49"><title>Asset 1@2x</title><g id="Layer_2" data-name="Layer 2"><g id="Layer_1-2" data-name="Layer 1"><path d="M309.45,241.27l-7.4,16.46,1.4.63c2.1-4.43,4.16-8.88,6.31-13.28,1.14-2.34,2.63-4,5.32-1.69l.44,2.11c-1.63.33-4.31.19-4.71,1.08-1.66,3.62-2.62,7.56-3.84,11.38l1.06.46,1.92-2.59,1.69,2.89,1.68-7.95,5.63,7.77,1.38-1.25-8.47-10c1.09.13,2.71-.15,3.64.52,1.58,1.14,2.58,3,4.09,4.3a41.56,41.56,0,0,0,5.09,3.17l.46-1-7.54-6.42c1.63.77,3.32,1.44,4.89,2.32,3.41,1.91,6.41,4.81,10.77,1.26,1.37-1.11,4.31-.24,6.52-.39s4.35-.43,6.52-.65l-.2-1.41c-7.69-2.92-14.35-7.15-18.66-14.42,5.84,5.2,11.79,10,20.05,10.36a1.57,1.57,0,0,0-1-1.13,31.31,31.31,0,0,1-20.35-15.64c-.72-1.28-2.47-2-3.75-3L320,222.53c-3-3.32-6.34-3.87-10.12-1.42,4.4-5.47,11.49-4.94,15.81,1a123.24,123.24,0,0,0,9.46,12.14,15.89,15.89,0,0,0,11.45,5.06c-2.59-2-5.91-2.85-8.16-4.9a77.72,77.72,0,0,1-10.57-11.83c-5.37-7.4-11.72-8.83-19.19-3.54-2.26,1.6-4.28,3.52-6.41,5.3,1.48-2.13,2.6-4.66,4.5-6.3,8.36-7.23,14-6.7,21.2,1.68,2.49,2.9,4.76,6,7.22,8.9,3.33,3.95,7.1,4.88,9.65,3.28-.59-2.29-.61-4.47-1.63-6-5.19-7.67-10.16-15.44-19-19.87-7.67-3.84-13.6-3.78-19.23,2.68-8.37,9.61-16,19.71-14.83,33.62.44,5.15.79,10.32,1.19,15.47l.81,0,3.75-13.69.6.37.68,7.63L302,247l-4.61,11.11.51.18Zm-80.89-97.2-18.71,23.47c11-4.92,12.4-18.37,22.48-23.55l-3.94.25,4.71-3.72a6.2,6.2,0,0,0-4.56.75c-2.4,1.39-4.67,3-7,4.55,4.47-3.5,7.08-10.17,15.64-7.72-3.74-3.74-6.5-3.47-9.13-.91-4.74,4.61-9.4,9.3-14.09,14,5-7.55,10-15,18.86-18.92a20,20,0,0,0-8.54,4.1c-3.55,3.23-6.22,7.46-9.89,10.52s-7.67,6.2-12,7.24c-8,1.9-12.52-4.58-9.45-12.3,2.25-5.63,7-8.09,12.13-10.39a64.78,64.78,0,0,0,10.11-5.22c4.52-3.11,4.71-9.81.79-14,.78,9.9-.26,11.41-9.58,15.93A61.9,61.9,0,0,0,194.86,135c-4.77,3.79-5.73,11.72-2.25,17.36,2.56,4.15,6.81,4.21,11.11,3.22,1.94-.44,3.86-.92,5.8-1.38-1.73,1.24-3.3,2.89-5.22,3.66-7.24,2.93-18.68.57-16.9-10.65,1.45-9.17,5.47-17,14.71-21a71,71,0,0,0,7.23-3.29,8.83,8.83,0,0,0,3.42-12.1,3.19,3.19,0,0,0-.72.63,1.48,1.48,0,0,0-.24.93c1,6.37-2.7,9.41-7.94,11.44-1.69.66-3.31,1.51-5,2.27,2.48-2.86,4.89-5.78,7.45-8.56s3.28-6,3.11-10.2l-7.29,12.16-.9-.58,4.55-10.43-1.68-.71c-.81,1.72-1.58,3.45-2.44,5.15s-1.81,3.39-2.71,5.09c2.39-9.91,2.39-9.91-.07-12.33.19,14.92-12.91,20.32-20.2,30.25l2.11-.31.68,14.12c2.2-9.61,5.13-18.39,15.13-22.59-3.35,5.05-7.31,9.82-9.89,15.24-3.18,6.7-1.11,13.56,3.89,17,5.38,3.67,12.13,3,17.91-1.65,3.46-2.77,7.1-5.33,10.66-8l-12.64,13.32c1.19-.38,2.74-.42,3.6-1.22,3.17-2.9,6.07-6.09,9.15-9.1S225.47,147,228.56,144.07ZM126.24,41.68c-.34,8.67-4.87,15.33-10.29,21.58,8.91-5.4,11.29-14.36,12.52-24.09l-2.35,2.7c.8-5.43,3.74-10.74.91-16.52.24,16-7.59,28.34-17.51,39.93a4.84,4.84,0,0,0,3-1.81C117.16,56.25,121.67,49,126.24,41.68ZM31.43,20.27,44.76,30.94c-.93-4.31-7.43-9.71-13.42-10.56-3.21-3-7.36-3.75-10-.53-2.85,3.49-.27,7.55,1.91,11C25,33.59,26.86,36,30.83,34.94c6.08-1.63,7.36-.9,9.57,4.87.54,1.42,1,2.86,1.56,4.29-.35-9.43-3.47-11.89-12.12-11.24C28,33,25.26,31,24.23,29.2c-1.38-2.37-1.49-5.48-2.15-8.28,2.29-.26,4.58-.55,6.88-.76A18.21,18.21,0,0,1,31.43,20.27ZM199.3,22.39c-.48,3.1-.27,6.54-1.58,9.24-4.26,8.78-9.09,17.28-13.67,25.9-.55,1-.92,2.17-1.37,3.26l2.16.92c5.15-10.79,10.46-21.51,15.3-32.44.83-1.87-.39-4.65-.66-7-.65-.65-1.67-2-1.91-1.86-2.61,1.42-6,2.47-7.44,4.74-4.62,7.45-8.52,15.34-12.59,23.12-.4.77-.05,1.93-.05,2.91a5.46,5.46,0,0,0,2.92-2.85c3.73-7.4,7.35-14.85,11.18-22.19C193.15,23.14,195.52,21.14,199.3,22.39Zm-7.94,10.86c-3.75,6.22-7.62,12.37-11.15,18.71-.56,1,.37,2.85.61,4.31l2,.11,7.74-14.79c3.32-4.32,6.2-8.81,6.14-14.42l-1.35-.73ZM271,13.68c3.89-5,6.51-5.82,11.65-3.09,3.32,1.77,6.3,4.15,9.48,6.2s6.22,4.45,10.74,2.07c-4.08-1.53-7.56-2.46-10.67-4.09-3.76-2-7.12-4.72-10.84-6.79-3.91-2.17-7.49-.77-10.4,2.14-.56.56.06,2.29.13,3.49-6.22,4.75-8.94,11.68-11.61,18.63a32.37,32.37,0,0,0,5.2-8c5.7-11.78,14.8-13.74,24.13-5.13a57.12,57.12,0,0,0-7.69-1.92c-6.54-.74-13,3.88-14.15,9.8,7.77-9.8,10.23-10.09,27-2.73l-2.47-2.64c3.74.76,7,4.67,12.17,2.34-3.88-1.32-6.89-2-9.52-3.34-2.9-1.53-5.43-3.76-8.16-5.63C281.24,11.74,276.24,11.09,271,13.68Zm3.29,27.58.14.07c1.11-3.84,3.27-6.29,7.84-6-1.83-.65-3.76-1.2-5.09-.54-3.66,1.81-9.05,12.44-9,18,6.16-10.27,14.43-8.15,22.82-5.34.95.32,1.85.77,2.81,1,4.5,1.15,4.77,1,7.33-3.8-6.21,1.46-11.69-.18-16.54-3.67C280.91,38.34,277.66,38.47,274.29,41.25Zm-236.93.08c-1.51-1.3-3.15-3.86-4.49-3.71-7.23.82-11.77-1.39-13.34-8.82C18.72,25,19,20,20.87,16.69,23,13,27.82,13.79,31.79,15.1c.22.07.54-.17.81-.28C26,11,19.9,12.59,18,18.54,15.35,26.53,19,36,26.44,39.87c1.3.67,3.54,1.15,4.51.49,2.7-1.85,4.54-.71,6.52.89.11,4.57,1.24,9.42.08,13.63-1.36,5-10,7.28-16.61,5.67C14,58.89,9.83,54,9.71,46.28c1.75,2.16,2.77,3.67,4,4.94,3.75,3.77,8.09,6.42,13.63,6.19,6.16-.25,8.4-4.08,6.07-10.17l-.73-3.7c-6.86,1.59-11,.2-14-5.77C16.33,32.94,15,27.58,13.32,23c-3.25,8.09,5.51,21.41,16.68,24-2.14,3.72-5.24,4.46-9.37,2C15.38,46,13,41,11.59,35.34c-.59-2.43-1.2-4.85-1.8-7.27l-1.4.51C9.63,36.3,11.24,43.88,18,49.23,24,54,27.4,53.53,32.15,47.6c.25-.31.92-.3,1.39-.43-.5,9.19-4.86,11.59-13,7.07C14.93,51.14,10.3,47.06,8,40.44c-3.17,14.4,7.54,24.27,20.85,21.63,3.78-.75,8.31-3.73,10.08-7A11.78,11.78,0,0,0,37.37,41.34Zm352,105.82-.18-.18c1.82,5.83,7.23,6.28,11.5,8.52l-6-8.82,1.05-.7c5.71,7.74,8.64,9.08,11.81,5.38-6.32.06-9.08-2.43-10.24-8.77-.56-3.06-1.13-6.27-2.55-9-.82-1.55-3.51-3.17-5.08-2.94s-3.53,2.5-4.11,4.27C384,139.71,385.41,143.93,389.39,147.15Zm1.53-41.6c-8.4-1.11-15.35.67-19.91,8.74-5.24,9.27-7.91,19.13-6.46,29.6.63,4.57,3.48,8.83,5.32,13.23l1.44-.57c0-.61.17-1.39-.13-1.81-8.4-11.78-6.42-23.91-.82-35.87,7.12-15.22,19.53-15.45,28.27-4.13a66.27,66.27,0,0,0,12.71,12.49c6.38,4.75,14,2.28,16-4.93-1.2.88-2.11,1.45-2.92,2.14-4.65,3.95-7.89,4.26-13,.84a43.42,43.42,0,0,1-6-5.15c-4.92-4.85-9.74-9.8-14.62-14.72l5.12,1.79V86.07L394.62,86l-1.39,18.07c-16.79-6.68-33.41,4.46-32.21,23.34,1.15-2.73,1.61-4.22,2.36-5.54,2.8-5,5.07-10.41,8.7-14.7C377,101.35,384.23,101.21,390.91,105.55ZM130.43,131.39a7.43,7.43,0,0,1,.9,1.7c2.83,12.45-1.29,22.84-9.55,32-1.33,1.47-2.56,3-3.83,4.55,10.17-7.28,15.35-17.43,16.91-29.59,1.36,12.84-3.51,23.24-12.28,32.19,6.92-4,10.93-10.13,13-17.46,2.59-9.33,2-12.61-2-20.77-1.13-2.34-1.07-5.22-2-7.69-5.13-13.79-17.77-18.17-27.57-8.64-4.8,4.66-7.24,11.75-10.74,17.75l1.38.91a25.81,25.81,0,0,0,2.66-3.52c1.77-3.38,3.22-6.93,5.05-10.27,3.73-6.81,12.71-10.4,18.16-7.11,6,3.62,10,8.71,10,16.13-.83-1.94-1.6-3.91-2.49-5.82-2.27-4.89-6.07-7.91-11.45-8.45a11.57,11.57,0,0,0-11.45,5.64C101.54,128.57,98,134.29,94.49,140c-.07.12.32.52,1.14,1.8,1.75-2.47,3.43-4.51,4.73-6.76,2.06-3.59,3.57-7.53,5.84-11,4.7-7.17,14.94-7.27,19.08.09,3.6,6.41,5.9,13.45,3,21-1.77,4.64-3.56,9.27-5.72,14.89C129.56,151,132.15,141.76,130.43,131.39Zm-27.86,2.2,6.57-7c-4.38,9-4.17,20.5-15.09,25.82,6.66,3.14,9.44,2.38,12.12-2.86a31.54,31.54,0,0,0,1.11-3.3c1.81-4.8,3.44-9.68,5.58-14.33.69-1.5,2.73-2.38,4.15-3.55.78,1.69,2.33,3.44,2.2,5.07-.63,8.1-1.61,16.21-11.36,19-.84.24-1.54,1-3.45,2.26a20.25,20.25,0,0,0,3.21-.39c9.89-3.74,11.92-6.63,12.9-21a7.19,7.19,0,0,0-3.14-5.69c-2.95-1.46-4.83.94-5.88,3.68-2,5.27-4,10.56-6,15.82-1.53,3.93-3.39,5.35-5.77,5.33,2.74-5.7,5.66-11.74,8.54-17.8,1.21-2.55,1.9-5.52,3.67-7.57a9.66,9.66,0,0,1,6.29-3.1c1.54-.06,3.86,1.93,4.62,3.57,3.73,8-1.57,22.65-9.58,26.34-4.94,2.28-10.24,3.79-15.46,5.67,6.88.58,12.82-2.43,18.5-5.61,6.28-3.51,7.33-10.4,8.71-16.89l1.17.35-.52,7c2.65-5.74,1.66-11.27-1-16.57-3-5.82-6.5-6.69-12.68-4.52-5.2,1.82-6.73,6.43-9.27,10.34l-8.17,14.2c2.21-.27,8.43-7.63,8.87-11.5C103.47,135.44,102.86,134.5,102.58,133.59Zm311.79,8.63,4.61-2.08c-2.61-1.61-5.32-2.51-6.79-4.39-1.73-2.2-1.73-5.89-3.63-7.79a153.69,153.69,0,0,0-18.16-16.1c-5.54-4-8.68-3.11-13.78,1.42-10.33,9.18-14.21,35.58,5.8,48.16a20.2,20.2,0,0,0-3.12-4C368.35,146.11,368.38,135.11,373,121c.84-2.52,2.95-4.85,5-6.7,5.13-4.62,9-4.25,14.12.86-8.71-.48-10.69.57-14.87,6.22-8.11,11-5.66,20.68,2.29,32,2.13,3,5,5.49,7.58,8.22l1.18-1.23a52.91,52.91,0,0,1-4.26-4c-9.71-11.42-13.52-23.3-5.31-34.19,6-7.94,15.5-7.69,21.09,1-11.29-6.31-21.17-1.71-23.23,10.82-1.17,7.13,6.66,20.76,14.65,24.67a33.31,33.31,0,0,1-2.53-3.09c-3.26-5.3-7-10.4-9.55-16-2.37-5.15.38-12.76,4.56-15.66,7.18-5,15.67-2,18.78,6.63,1.06,3,1.47,6.16,2.67,9C407.07,144,412,145.27,414.37,142.22Zm-236-112.84-1.89,5.26.95.06,11.63-16.13c-3.43,9-10.65,15.94-12.38,25.7a5.61,5.61,0,0,0,2.13-2.41c4.32-7.27,8.54-14.61,13-21.79,2.17-3.48,5.39-4.69,9.49-3.21,4.34,1.57,4,5.37,3.28,8.34A216.12,216.12,0,0,1,197.76,47c-2.05,5.58-4.81,10.91-7.25,16.35a3.22,3.22,0,0,0,2.81-1.76c3.29-7.25,7-14.38,9.59-21.87,1.89-5.4,2.63-11.27,3.39-17,.65-4.88-2.49-7.25-6.9-8.16-1.14-.23-2.33-.22-4.28-.39,6.22-2.5,10.89-1.18,12.34,3.42a15.39,15.39,0,0,1,.53,8.25C204.87,37,201.29,48,197.9,59.13c-.59,1.93-1,3.89-1.56,5.84l1.31.25c1.13-3,2.51-6,3.36-9.08,3-10.86,6.09-21.7,8.56-32.68a9.83,9.83,0,0,0-4.75-11.19c-4.53-2.61-8.68-1.18-12.55,1.58a22.76,22.76,0,0,0-3.69,3.34c-3.21,3.58-6.33,7.25-9.48,10.88,2.82-10,8.83-17,19-19.86,8.08-2.3,13.23,1.75,13.47,10.19.41,14.44-3.94,27.88-8.49,41.29q-.84,2.49-1.7,5l1.47.47c1.4-3.82,3.27-7.53,4.12-11.47,2.45-11.3,5.34-22.61,6.44-34.07,1.06-11.05-9.48-17.1-19.42-12-2.83,1.45-5.42,3.39-8.12,5.1l-.66-.79,8.11-7.32a12.54,12.54,0,0,0-5.73,2.59c-6.47,5.33-7.31,13.73-10.89,20.64C176.59,28,177.79,28.85,178.38,29.38Zm-79.88,18L96,52.65l1.65.91,7.7-12.86.75.39-.1,2,.62.23,4.1-8.33-1.89-1.3L98.41,47.52c1.1-7.5,9.21-17.3,16.37-19l-2.14,8.65a9.18,9.18,0,0,0,2.63-4.53c.3-1.63-.11-3.39-.21-5.1-2,.46-4.3.42-5.83,1.5-2.75,2-5,4.59-7.5,6.93l-1-1c3.61-3.6,7-7.42,10.94-10.65,1.16-1,4.08-.9,5.49-.09,1,.59,1.66,3.53,1.11,4.85-2.53,6.07-5,12.28-8.53,17.78-2.92,4.57-7.28,8.22-11.35,12.67,8.21-3.64,19.48-18.74,21.57-28.38,1.57-7.29-.91-11.4-8.16-13.5,6.52-2.94,9.83-1.4,11.17,5.34a16.25,16.25,0,0,1,.24,5.46c-2.1,14-7.61,26-19.91,34.16-.55.36-.57,1.52-.84,2.31l1.23,1c3.66-3.9,7.62-7.56,10.92-11.74,7.47-9.46,11.47-20.13,10-32.43-.74-6-5.5-8.14-10.47-6.8-3.44.92-6.59,2.94-9.87,4.47l-1-.89c2.34-1.84,4.44-4.29,7.1-5.35s5.66-.58,8.1-.75c-3-3.15-6.85-3.39-10.43-.25C100.4,18.8,97,27.88,94.8,37.25,94.07,40.37,94.34,45.11,98.5,47.41ZM372.35,12.12c-2.31-2-4.56-5.68-6.94-5.77-5.63-.21-11.08.21-16,5.13-6.12,6.07-9.05,15.1-4.84,23.7l.52,6.24-.86.24-4.25-15.74C335,36,341.32,44.19,344.8,52.6c2.09,5,5,10.22,11.13,13.26L349.35,54.6l1-.57,4.19,7.33.43-.3-10.56-25.8,1.33-.95c.42,1.06.8,2.13,1.26,3.17,3,6.82,5.71,13.81,9.2,20.38,2.37,4.46,6.5,5.77,11.92,5,4.94-.74,6.26-4.55,8.66-7.46,4.44-5.4,7.05-11.47,5.87-18.77-.26-1.64.07-4.69.83-4.94,3-1,1.78-2.73,1.33-4.31-2.48-8.55-7.93-15.19-13.94-21.45-.15-.16-.8.15-1.79.36a47.48,47.48,0,0,1,3.77,4.35,21.73,21.73,0,0,1,1.67,3.87ZM221.43,250.28a37.9,37.9,0,0,0-5.08-1.69c-1.39-.27-3.14-.48-4.27.13-3.48,1.88-6.09,15.89-3.65,19,.62.79,1.78,1.14,3.14,2l3.6-14.59,1.26.35a16.31,16.31,0,0,0-.16,2.41,85,85,0,0,0,1.08,10.78c.24,1.15,2.24,1.93,3.43,2.87a18.88,18.88,0,0,0,1.72-3.85,20.89,20.89,0,0,0,.07-4.32l5.71,5.3,1.57-1-2.41-10.32c3,.87,6.39,3,8,2.11,4.11-2.32,6.74-6.35,6-11.69-.38-2.79-.55-5.62-.81-8.42l.44-.05,3.13,10.1,2.12-.16c.1-2.46,1-5.2.17-7.33-2.3-6.19-5.25-12.15-8-18.19-3.77-8.36-10.85-13-19.1-15.63a11.28,11.28,0,0,0-8.73,1.15c-7.4,5.16-10.62,13.28-13.27,21.57,0,.11.44.38,1.16,1,4.29-6.45,5.54-15.24,15.15-17.46s15.16,2.93,22.17,9c-5.28-2.38-9.31-4.62-13.61-6-5.45-1.79-11.09-1-14.41,3.85a92.5,92.5,0,0,0-10,18.8c-1.34,3.49-1.09,8.23.09,11.87s4.42,6.6,6.67,9.74a86.93,86.93,0,0,1,3.16-9.33c3.87-8.5,7.89-9,13.54-1.8Zm-69.06,7.27c-1.34-13.63-6.85-26.89-18.67-36.77-8-6.71-16.36-12.82-28.2-10.55-7,1.34-12,4.48-13.85,11.09-1.15,4-1.68,8.83-.57,12.74,2.34,8.22,5.1,16.56,9.26,24,4.75,8.47,10.86,16.27,17,23.83,4.09,5,7,4.8,12.44,1.42a8.74,8.74,0,0,1,2.86-.75C142.91,280.5,152.29,269.33,152.37,257.55Zm233.82-48.63c-.41,19,5.38,36,16.75,51.13,2.61,3.49,5.72,5.41,10,5.49,15.81.28,29.28-11.68,29.4-27.43.14-18.07-6-33.53-22.2-43.53-3.8-2.35-7.69-4.59-11.68-6.6-9.55-4.8-20,.48-21.66,11C386.31,202.23,386.39,205.6,386.19,208.92ZM58.64,265.34c-6.35-1.66-11.84-2.87-17.18-4.55-11.28-3.55-19.55-14.65-18.8-25.49.18-2.56,1.26-6.46,3-7.17,2.55-1,6,.22,9.13.5l-.15,1.29c-5.8,1.11-8.47,3.89-7.67,9.85a22.54,22.54,0,0,0,4.48,10.71c4.85,6,11.83,9,19.22,10.83,2.43.6,5,.83,7.43,1.22l.29-1.4-13-3.24c6.82-18.44,4.13-17.37-.13-29.87s-20.71-17.13-29.64-9c-4.36,4-6.47,9.2-5.43,14.87a138.54,138.54,0,0,0,5.6,20.62,13.61,13.61,0,0,0,5.64,6.78c6.9,3.93,14.11,7.35,21.38,10.58,2.42,1.08,5.39.94,8.1,1.35l.21-1.43c-2.49-.56-5-1.06-7.47-1.69-20.3-5.23-31.42-18.6-31.64-38C12,224.74,16.6,218,22.55,216.91c9.45-1.78,21,6.86,22.15,15-4.58-3.13-9.93-7.2-15.71-10.5-1.66-.95-5.07-.44-6.83.7-6.43,4.17-6.36,11-5.32,17.42,2.75,16.85,19.4,29.78,37.75,29.38-1.38-.62-2.21-1-3.08-1.38-6.45-2.51-13.27-4.33-19.27-7.64-11.7-6.44-16.17-18.38-12.8-31.47,1.22-4.74,4.92-7.12,9.3-5s8.9,4.73,12.2,8.23c7,7.41,7.71,18.16,2.36,25.18A72.55,72.55,0,0,1,36,252.68c-5-3.6-8.48-8.21-7.43-14.75.32-2,1.75-5.22,3.06-5.43,1.94-.31,4.72,1.07,6.28,2.61,4.93,4.89,5.27,11,3.43,17.57a5.37,5.37,0,0,0,1.71-1.79c3.28-5.07,0-9.43-1.32-14.12C40.08,230.55,35.7,227.46,30,226c-4.41-1.17-8.21.84-8.51,5.27-.35,5.11-.26,10.84,1.7,15.41,5.94,13.83,19,17,32.18,19.31C56.2,266.08,57.1,265.64,58.64,265.34ZM14.91,159c16.62-7,33.63-5.91,50.81-1.57l.25-2-13.48-4.66,14.62-2.63-.21-1.53a6.11,6.11,0,0,0-2.19-.16c-9.69,3.1-19,1.68-28.29-1.89-5.32-2.05-10-1.35-14,3.18A23.09,23.09,0,0,1,16,152.28c-4.76,2.55-9.67,4.82-14.51,7.2,2.24,4.11,4,4.5,8.12,3.23,4.34-1.34,8.89-2,13.35-2.93l.11.67L7.14,165.19l.43,1.76c17.53-6.44,35.07-6.29,52.67-.6-9.34-6.48-20.32-5.28-31.83-6.51,12.25-2.57,23.17-.87,34,2.1C47,153.69,30.93,157.42,14.91,159Zm257.82-22.58,1.47.86-8.13,11.8c2-1.08,5.13-1.7,5.56-3.13A129.23,129.23,0,0,0,276.49,125c.76-6,.47-12.19,5.9-16.18,1.29-.95,4.32-1.12,5.59-.24,5.77,4,10.16,16.06,5.45,23.69,1.8-7.86.5-14.07-4.64-19.19-2.58-2.57-5.74-2.91-7.79-.06s-2.82,6.37-4.16,9.61l1.41.46a73.7,73.7,0,0,1,2.61-7.45c1.75-3.73,4.66-4.12,7.33-1,3.42,4,5,8.6,3.68,13.87-.87-2.14-1-4.58-2-6.55a9.34,9.34,0,0,0-4.4-4.33c-.78-.3-3.17,2.05-3.91,3.63-1.2,2.54-1.65,5.43-2.74,9.34l5.9-12.22c6.56,5.77,6.4,15.28.53,21.58-1.22,1.3-2.9,2.48-3.45,4-1.08,3.06-1.29,6.41-2.26,9.51-1.19,3.81-1.27,7.28,1.68,10.57-3.16-8.12,1-13.87,5.79-19.48a98.72,98.72,0,0,0,6.35-8.33c5.86-8.49,5.08-17-.83-25-1.81-2.44-5.52-5.73-7.55-5.24-3.16.76-6.4,4-8.17,7s-2,7.27-2.74,10.36l-2-7.33-3.14,23.59ZM0,147.68c6.29.43,10.24-6.15,16-8.15l.8,1.3L1.24,151.44c2.87,1.35,5.71-.64,8.14-2.65,4.22-3.48,7.92-7.59,12.15-11.06,4.71-3.86,8-3.62,12-.77-3.27.81-8.48.67-11.59,3.16-6.8,5.46-11.47,13.74-21.37,15.24,2.89.2,5.88.11,7.93-1.33a121.16,121.16,0,0,0,13.82-11.31c3.63-3.44,7.39-4.26,11.83-2.41a41.91,41.91,0,0,1,6.22,3.16c5.14,3.24,10.77,3.37,16.4,2.35,2.08-.38,3.92-2.13,5.86-3.25-9.45-1.75-19.3,1.59-26.67-7.29,7.13,1.33,14.2,4.64,20.41-1.65-8.75,4-17.18,1.39-24.94-2.08-5.66-2.53-8.88-1.1-13.05,2.51C12.59,139.08,6.07,143.25,0,147.68Zm292.36-44.57c-1.91,4.27,1,7,2.8,9.48,6.66,9.27,5.7,17.92-1.2,26.44a62.16,62.16,0,0,0-4.6,5.89c-2,3.21-4.26,6.42-5.46,9.95C281.81,161,288.26,170.24,294,170c-7.71-5.66-10.08-10.32-8-14.66l5.84,9.75,1.23-.74c-6.23-9.49-6-13.3,1.07-18.54-3.27,10-2.54,13.76,3.39,17-5-9.31-5-9.31-2.85-12.13l4.51,10.31c1.07-1,1.32-1.76,1-2.14-5-6.61-3.45-12.59,1.37-18.55,1.52-1.88,3.23-4.39,3.2-6.59-.08-7.9,1.07-16.3-6.14-22.72l.66,4.26-.85.27Zm-90.86,41.73,1.72,1.65,17.59-15.12,1.55,1.78c-5.27,4.68-10.46,9.46-15.89,14-1.13.94-3.16,1.14-4.75,1.09-3.46-.11-4.83-1.78-3.21-5.25,2.26-4.83,6.08-7.54,11-9.4a42.51,42.51,0,0,0,11.15-6.2c2.91-2.28,2.79-4.73.68-7.89,0,8.65-6.63,10-12.27,12.91a46.15,46.15,0,0,0-11.16,8.53c-2.33,2.32-3.12,6.36-.21,8.46,1.89,1.36,6.31,1.59,8.09.28,5.55-4.07,10.38-9.11,15.48-13.79,2.49-2.29,4.93-4.63,7.68-7.22l-4.28-.22,6-9.08-1-.76c-5.43,7.15-10.78,14.12-20,17.14C205.88,137,201.89,139.93,201.51,144.84ZM41.93,165.74c-25.83,3.17-27.29,3.57-28.57,8.18a55.78,55.78,0,0,1,43-2.32c.94-4.34-1.74-5.51-4.43-6.24a66.6,66.6,0,0,0-30.08-1c-7.06,1.33-9.62,2.79-12.62,7.87C20,164.45,30.93,165,41.93,165.74Zm-21,12,.59,2c10.9-9,21.42-4.85,31.92.21l.47-1.47L39.3,172.69l.14-.7,17.62,2.32c-12.88-5.88-34.71-5.46-38.49.65l10.1-2.69.08.56Zm363.43-31.51c-.47-3.57-1-6.32-1.17-9.09-.35-5.69,2.76-10.37,7.09-11s7.85,2.78,9.05,8.72c.56,2.76.71,5.62,1.45,8.32,1.39,5.07,6.31,7,9.76,3.72-5.69,1.16-7.79-1.93-8.52-6.62-.33-2.13-.44-4.31-.92-6.4-1.57-6.76-7.05-10.45-12.65-8.64C380.95,127.73,378.74,138,384.37,146.27Zm-383.42-4c4.93.25,8.38-2.9,11.49-5.84C19.17,130,26,126.32,35.5,130.75c3.25,1.51,7.48,1.15,11.26,1.21,1.53,0,3.07-1.12,4.61-1.74l-.43-1.44c-7.78,2.7-15.06.3-22.53-1.32A13.6,13.6,0,0,0,19.24,129C13,132.86,7.26,137.58.95,142.23ZM304.82,33.32c-4.14-2-6.91-3.06-9.36-4.61-3.07-1.94-5.77-4.48-8.84-6.42-4.22-2.66-9-2.75-12.55.56-4.69,4.33-8.66,9.47-12.8,14.37-.56.67-.38,2-.54,3a97.35,97.35,0,0,0,9.3-11c6.6-8.59,12.7-9.16,21-2.16a63.78,63.78,0,0,0,8.36,6.21C300.58,33.9,302.5,33.32,304.82,33.32ZM10,255.65c6,12.61,29.77,21.82,39.71,20.34-7.47-2.55-14.94-4.19-21.49-7.6C21.5,264.89,15.63,259.66,10,255.65Zm28.86-4.9c2.85-4.61,1.15-13.18-3.41-15.63-.93-.5-3.76.32-4,1.05C30.06,241.14,32.54,250.23,38.9,250.75ZM263.48,42.57l1.07.75c1.31-2.16,2.54-4.37,4-6.46s3.07-4.36,4.76-6.4c4.73-5.71,8.8-5.68,14.27-.67a47.16,47.16,0,0,0,10.12,7c1.71.88,4.26.15,6.42.15l.3-2c-7.73,1.86-12.3-2.72-17-7.36-3.17-3.14-7.3-4.75-11.29-2C270,29.81,267,36.43,263.48,42.57ZM425.1,119.39c-7.76,2.92-15.84.95-20-4.67a26.92,26.92,0,0,1-5.3-20.05c-3.64,7.6.51,19.88,8,24.91C413.48,123.45,420.91,123.7,425.1,119.39ZM47.9,256.79c6.95-7.68,5.56-30.12-2.47-34.88C51.72,233.45,52,244.57,47.9,256.79ZM14,18.32c.62-1.05,1.19-2.13,1.86-3.15,4.47-6.78,10.32-8.6,16.48-4.31,3.87,2.7,6.93,6.56,10.34,9.91.67.66,1.26,1.39,1.89,2.09C40.52,15.14,35.34,8.72,26.11,7.41,20.61,6.64,13.93,12.08,14,18.32Zm265,29.94,1.43,1.41-6.4,4.58c3.81-1.06,6.61-3.91,9.79-4.44S290.5,51.15,294,52c-2.34-3.68-7.88-5.48-14.11-4.76-5.47.63-7.34,1.78-8.85,5.91ZM403.49,95.6c-2.72,5-.07,13.54,6.35,19,4.71,4,8.72,4.66,12.79,1.37-6.83,1.77-11.66-1-14.36-5.74C405.71,105.73,404.93,100.24,403.49,95.6Zm-122,44.14c3.45-4.71,8.13-9.1,4.81-16.48C280.92,128.1,282,134.17,281.48,139.74ZM206.59,63c5-9.22,8.79-18.71,7.94-29.56Zm-153.18,192c4.64-4.84,6.14-20.51,2.32-25.67Zm63.27-121.38-2.54-1L108.84,148l2.45.84Zm-67.25-8.83H26.83C34.23,129.57,45.27,129.84,49.43,124.86ZM423.24,113c-12.34,0-13.46-8.77-16-16.49-.36,5.47.45,10.71,4.45,14.37C414.22,113.23,417.64,115.64,423.24,113Zm-412-53.61c1.48,8.29,9.85,11.45,17.17,5.92C20.55,67.75,15.25,65.4,11.23,59.41ZM389.66,99.35c-4.28-3.95-12.77-4.54-16.32-1.08ZM100.85,171.73l.94,1.52,15.83-11.74-.93-1.3ZM285.33,33.09c4.52,4,8.84,8,15.64,6.88Zm-171,126.69-.8-1.07-16,7.9.66,1.2ZM289.92,54.31l.48-2c-2.26-.41-4.9-1.73-6.7-1-2.49,1-4.35,3.59-6.48,5.49l1,1.3C281.85,56,283.66,48.86,289.92,54.31ZM278.53,167.24l-2.44-13.18A9.38,9.38,0,0,0,278.53,167.24ZM5.09,134.47l.9,1.65,11.64-8.75-.83-1.15ZM426,132.57c-5.78,4.24-10.47,1.11-15.14-2.13C415.49,136.69,421.05,137.49,426,132.57ZM31.86,0,30.67,1.53l10.66,7.4.89-1Z" fill="#fff"/><path d="M152.37,257.55c-.08,11.78-9.46,22.94-19.7,25a8.74,8.74,0,0,0-2.86.75c-5.47,3.39-8.35,3.59-12.44-1.42-6.17-7.56-12.29-15.36-17-23.83-4.16-7.41-6.92-15.75-9.26-24-1.11-3.91-.57-8.72.57-12.74,1.88-6.6,6.84-9.75,13.85-11.09,11.84-2.27,20.18,3.84,28.2,10.55C145.52,230.67,151,243.92,152.37,257.55ZM98.42,249c-.48-1.69-1.05-3.37-1.44-5.08-1.28-5.71-2.29-11.22.87-16.92,5.07-9.12,19.1-9.48,28.76-5.79,13.93,5.32,22.34,29.21,18.78,42.14-2.31,8.41-10.61,14.49-18.68,13.5A17.73,17.73,0,0,1,113,267a201.56,201.56,0,0,1-11-24.94c-3.62-10.05-1.86-14.28,6.65-20.32-6.6.9-11.54,6-11.14,12.18,1.12,17.29,9.39,31.32,21.15,43.35a14.25,14.25,0,0,0,16.8,2.71c8.5-4.23,16.62-12.9,14.59-25.34-2.59-15.92-10.86-28.08-23.67-37.28-7.42-5.33-15.48-8-24.78-4.14-5.47,2.26-8.1,6.29-8.93,11.59C91.29,233.49,94.38,241.37,98.42,249Zm29.23-25.44a13.36,13.36,0,0,0,.54,1.93c1,1.13,2,2.25,3,3.36,7.41,8.16,11.27,17.62,10.11,28.75-.7,6.68-5.06,10.71-10.91,13.12-4.62,1.9-9.28.95-12.28-2.88-6.94-8.85-12.26-18.72-13.54-30.07-1-8.78,6.47-14.73,14.95-12.64,2.46.61,4.92,1.25,7.38,1.87a17.74,17.74,0,0,0-4.94-3.4c-5.36-3-10.53-1.68-15,1.48a11.25,11.25,0,0,0-4.43,12.45c2.91,11.67,6.58,23.06,14.68,32.39,6.61,7.62,16.66,7.28,22.74-.71,4.38-5.76,4.69-12.15,3.41-19C141.34,239.85,137.16,231,127.65,223.51Zm-9.59,17.31c.92,2.62,1.43,5.68,3,8,.73,1,5.21,1,5.31.69.83-2.82,2-6.1,1.2-8.71-.83-2.8-3.42-5.22-5.69-7.34-.5-.47-3.11.68-4.28,1.65-3.29,2.74-3.87,6.35-2.69,10.4,1.36,4.65,3.29,8.93,8.42,10.19,1.41.35,3.55-.62,4.82-1.64,4-3.19,3.33-7.61,3-10.09-1.18,1.88-2.68,5.3-5.18,7.65-.8.76-4.68-.74-6.37-2.15C116.65,246.89,117,243.37,118.06,240.82Zm9-7.53c-5.67-5.72-12.11-4.34-14.81,3.17-2.58,7.17,1.22,17.44,8.09,21.9,4.47,2.9,7.61,1.9,10.47-3.33-5.6,3.49-8.57,3.33-12.71-.67-4.6-4.44-6.11-12.75-3.27-17.93C117.39,231.78,119.55,231.23,127.06,233.29Zm-11,27.83c3.89,8.44,8.85,10.46,15.22,7.21,8-4.08,10.88-13.2,6.47-21.35.6,8.51-1.55,15.76-9.21,19.79C123.51,269.4,120.25,265.13,116,261.12Zm19.09-5.66c-3,2-6.36,5.68-9.88,5.88s-7.16-3.14-11.51-5.3c4.25,3.9,6.47,10.16,12.35,9.57C131.59,265.06,133.74,259.64,135.12,255.46Zm-25.53-15.77c1.51-2.78,2.56-6.58,5-8.77,2.25-2,6-2.2,8.09-2.85C114.11,225,108.12,229.84,109.59,239.69ZM112,227.84c-6.68,2.7-8.12,9-3.32,17.43C107,238.14,106.19,232.24,112,227.84Z" fill="#ccc"/><path d="M386.19,208.92c.2-3.32.12-6.69.64-10,1.67-10.5,12.11-15.78,21.66-11,4,2,7.88,4.25,11.68,6.6,16.19,10,22.34,25.46,22.2,43.53-.12,15.75-13.59,27.71-29.4,27.43-4.32-.08-7.43-2-10-5.49C391.57,244.87,385.78,227.95,386.19,208.92ZM399.54,204c-.75,2.09-2.15,4.18-2.15,6.27,0,11.81,5.35,21.31,13.54,29.41,5.56,5.5,11.4,4.74,16-2-8.49,4.07-14.14,2.61-19.47-5,1.47,1,3,2,4.42,3.1,7.55,5.51,14.43,2.47,15.57-6.73,1.07-8.69-1.54-16.34-6.06-23.56-3.52-5.64-8.53-7.88-15.14-7.38-3.69.28-6,1.54-6.44,5.36A3.79,3.79,0,0,0,399.54,204Zm-9-.58c-.35,2.09-1.18,4.23-1,6.27,1.51,16,6.46,30.93,17,43.26,4.5,5.24,11.26,8.53,18.22,7.23,10.6-2,17.89-15.78,14.76-26.49.43,8.41-2.52,15.4-9.07,20.53a9.62,9.62,0,0,1-6.32,2,28.4,28.4,0,0,1-21.6-13.38C394.73,230.79,391.2,217.62,390.53,203.42Zm4.5,9.7c.39,9.8,5.19,19.86,12.08,29.07,4.43,5.92,10.68,8.74,16,6.7,6-2.31,8.64-7.49,9.56-13.6a49.42,49.42,0,0,0-3.3-25.93c-1-2.53-2.47-4.87-3.72-7.3-.55,1.59,0,2.58.42,3.63,3.38,9.41,7.08,18.76,4.33,29.1-1.28,4.82-3.77,8.3-8.88,9.8-4.92,1.44-8.49-.61-11.63-3.82-2.32-2.37-4.86-4.8-6.27-7.71C400.2,226,397.38,218.68,395,213.12Zm10.59,31.48c3.83,5.21,9.19,8.4,16,9.94,3.65.82,5.93-.13,8.56-2.15,9.87-7.61,8.86-26.21,4.26-33.79,0,4.61.24,10.39-.05,16.15-.53,10.27-7.38,17.48-16.17,16C413.75,250,409.67,246.66,405.63,244.6Zm15.08,17.27c-22.54-5.27-25.16-24.67-31.8-41.23a31.83,31.83,0,0,0,.71,6.21A82.72,82.72,0,0,0,403,257.13C408,264.43,410.77,265.5,420.71,261.87Zm-14.65-73.12c-12.18-.83-17.94,3.72-17.19,12.65C397.23,190.18,397.23,190.18,406.05,188.75Zm-6.75,9.66c11.66-4.74,19.32-.35,25.39,8.62C420.12,195.15,407.69,190.73,399.3,198.41Zm.17-3.55c-4.81,1.63-7.54,7.61-6.81,15.17Z" fill="#ccc"/><path d="M221.42,250.29c-5.65-7.16-9.67-6.7-13.54,1.8a86.93,86.93,0,0,0-3.16,9.33c-2.25-3.14-5.49-6.1-6.67-9.74s-1.43-8.38-.09-11.87a92.5,92.5,0,0,1,10-18.8c3.33-4.89,9-5.64,14.41-3.85,4.3,1.42,8.33,3.66,13.61,6-7-6.05-12.63-11.19-22.17-9s-10.86,11-15.15,17.46c-.72-.59-1.2-.86-1.16-1,2.65-8.29,5.87-16.41,13.27-21.57a11.28,11.28,0,0,1,8.73-1.15c8.25,2.67,15.33,7.27,19.1,15.63,2.72,6,5.67,12,8,18.19.79,2.13-.06,4.87-.17,7.33l-2.12.16-3.13-10.1-.44.05c.26,2.81.43,5.63.81,8.42.73,5.34-1.91,9.37-6,11.69-1.66.93-5.07-1.25-8-2.11l2.41,10.32-1.57,1-5.71-5.3a20.89,20.89,0,0,1-.07,4.32,18.88,18.88,0,0,1-1.72,3.85c-1.19-.95-3.2-1.73-3.43-2.87a85,85,0,0,1-1.08-10.78,16.31,16.31,0,0,1,.16-2.41l-1.26-.35-3.6,14.59c-1.36-.82-2.53-1.18-3.14-2-2.44-3.11.17-17.12,3.65-19,1.13-.61,2.89-.39,4.27-.13a37.89,37.89,0,0,1,5.08,1.69c2.26.14,4.9,1,6.64.15,1.08-.55,1.34-3.89,1-5.81-1.41-8.16-5.71-10.45-13.91-7.6,3,1.3,6.11,2.09,8.46,3.92a8,8,0,0,1,2.84,6C226.35,248.2,223.2,249.18,221.42,250.29Zm17.1.67a16.5,16.5,0,0,0,.8-3.15c.52-9.51-2.76-17-11.1-22.29A16,16,0,0,0,204.68,233C219.26,218.36,240.05,228.84,238.52,251Zm-12.14,15,1.11-.38a50.93,50.93,0,0,1-2-6.91c-.19-1.25.62-2.66,1-4a20.43,20.43,0,0,1,3.53,1.31,23,23,0,0,1,3,2.5l.71-.75L230,252.42l-.36,1.28c-3.45-.9-6.93-1.72-10.35-2.73-2.72-.8-5.94-3.36-7.5,1-1.48,4.13-2,8.61-3,12.93l1.41.29c.69-2.85,1-5.88,2.21-8.48.72-1.53,2.89-2.38,4.41-3.53a28.2,28.2,0,0,1,1.2,4.66c.33,3.7.41,7.42.6,11.13l1.78-.18c-.3-3.08-.78-6.16-.8-9.25,0-1.41.91-2.83,1.41-4.25a18.75,18.75,0,0,1,2.61,3.39C224.73,261,225.48,263.49,226.38,265.91Zm5.5-18.15c1.28-8.75-2.46-14-10.28-15.65-7.5-1.61-15.29,3.62-17.6,12.14,3.49-5.84,8.05-10,15.22-10.12C227.79,233.94,230.14,240.07,231.88,247.76Zm-7.3.28c-.37-1.84-.12-4.58-1.23-5.35-2.43-1.68-6-3.83-8.27-3.08-3,1-5.11,4.56-7.6,7C214.52,242.07,214.52,242.07,224.58,248Zm-14.87-24.77c11.32-7.06,18.88.56,27.51,7.63C230.8,218.22,217.74,214.81,209.71,223.28Zm21.86,11.28c-2.77-6.13-11.56-9-15.68-5.63Z" fill="#ccc"/><path d="M315.52,245.5l-.44-2.11,2.72-.24,14.19,6.7.71-1.55-3.94-2.86c-3.92-2.85-8.13-5.38-11.67-8.65-3.27-3-4.11-3.21-6.72,1L302,247l-4.76,5.16-.68-7.62-.6-.37-3.75,13.69-.81,0c-.39-5.16-.75-10.32-1.19-15.47-1.18-13.91,6.46-24,14.83-33.62,5.63-6.46,11.56-6.52,19.23-2.68,8.85,4.43,13.82,12.2,19,19.87,1,1.51,1,3.69,1.63,6-2.55,1.61-6.32.67-9.65-3.28-2.47-2.92-4.73-6-7.22-8.9-7.2-8.38-12.83-8.91-21.2-1.68-1.9,1.64-3,4.18-4.5,6.3l.2-.18-9.34,15,1.09.64,5.92-9.62,9.74-9.1c3.78-2.45,7.15-1.9,10.12,1.42-8.18-2.6-12.61,0-17.39,10.61,2.84-3.09,5-6,7.74-8.18,1.35-1.06,4.42-1.65,5.66-.84,3.91,2.56,6.28,6.37,5.88,12.88-2.43-3.45-3.91-6-5.78-8.12a3.91,3.91,0,0,0-6.48.43c-1.6,2.81-3.48,5.47-5.33,8.12-1.64,2.35-3.41,4.61-5.13,6.91,3.52-2.43,6.11-5.61,9.12-8.33,5.06-4.57,5.64-4.34,10.32.43,1,1,3.11,1.91,4.2,1.51a4.58,4.58,0,0,0,2.25-3.82c-.48-3-1.75-6-2.71-8.92,1.27,1,3,1.67,3.75,3a31.31,31.31,0,0,0,20.35,15.64,1.57,1.57,0,0,1,1,1.13c-8.26-.32-14.22-5.16-20.05-10.36,4.31,7.27,11,11.5,18.66,14.42l.2,1.41c-2.17.22-4.34.51-6.52.65s-5.15-.72-6.52.39c-4.36,3.56-7.36.66-10.77-1.26-1.57-.88-3.25-1.55-4.89-2.32ZM306,215.79c11.06-7.57,15.91-4.27,21.84.92a42.73,42.73,0,0,1,3.67,4q4.27,4.84,8.52,9.69l1.32-1.21c-5.24-5.58-10-11.67-15.83-16.62C319,207,311.11,208.68,306,215.79Zm27,.25c-9.45-11.64-20.63-14.73-27.5-4.08C316.4,204.24,324.89,208.7,333,216Zm-6.83,22.18L324.78,240l12.65,9,.8-1.1Z" fill="#ccc"/><path d="M58.64,265.34c-1.54.3-2.44.74-3.25.6-13.21-2.32-26.24-5.48-32.18-19.31-2-4.57-2.05-10.3-1.7-15.41.3-4.43,4.09-6.44,8.51-5.27,5.68,1.51,10.06,4.6,11.76,10.83,1.28,4.69,4.6,9,1.32,14.12a5.37,5.37,0,0,1-1.71,1.79c1.84-6.56,1.5-12.68-3.43-17.57-1.55-1.54-4.34-2.92-6.28-2.61-1.31.21-2.73,3.4-3.06,5.43-1,6.54,2.47,11.14,7.43,14.75a72.55,72.55,0,0,0,7.26,4.15c5.34-7,4.63-17.77-2.36-25.18-3.3-3.49-7.81-6.1-12.2-8.23s-8.08.26-9.3,5c-3.37,13.09,1.1,25,12.8,31.47,6,3.31,12.82,5.13,19.27,7.64.87.34,1.7.76,3.08,1.38-18.35.4-35-12.53-37.75-29.38-1-6.39-1.11-13.25,5.32-17.42,1.76-1.14,5.17-1.64,6.83-.7,5.78,3.3,11.13,7.36,15.71,10.5-1.12-8.14-12.7-16.79-22.15-15-6,1.12-10.57,7.83-10.49,15.24.22,19.4,11.33,32.77,31.64,38,2.47.64,5,1.13,7.47,1.69L51,273.27c-2.72-.42-5.68-.28-8.1-1.35-7.27-3.22-14.48-6.65-21.38-10.58a13.61,13.61,0,0,1-5.64-6.78,138.54,138.54,0,0,1-5.6-20.62c-1-5.67,1.07-10.88,5.43-14.87,8.93-8.16,25.39-3.52,29.64,9s6.94,11.43.13,29.87l13,3.24-.29,1.4c-2.48-.4-5-.62-7.43-1.22-7.39-1.84-14.38-4.83-19.22-10.83A22.54,22.54,0,0,1,27,239.78c-.8-6,1.87-8.74,7.67-9.85l.15-1.29c-3.09-.28-6.58-1.55-9.13-.5-1.72.71-2.81,4.61-3,7.17-.74,10.84,7.53,21.94,18.8,25.49C46.8,262.48,52.29,263.68,58.64,265.34Z" fill="#ccc"/><path d="M344.53,35.18c-4.22-8.59-1.28-17.63,4.84-23.7,5-4.92,10.41-5.34,16-5.13,2.38.09,4.63,3.74,6.94,5.77-.28.36-.87.9-.78,1.05,3.14,5.36,6.33,10.68,9.53,16a20.56,20.56,0,0,0-6.54-14.71,21.73,21.73,0,0,0-1.67-3.87,47.48,47.48,0,0,0-3.77-4.35c1-.22,1.64-.52,1.79-.36,6,6.26,11.46,12.91,13.94,21.45.46,1.58,1.65,3.33-1.33,4.31-.77.25-1.1,3.3-.83,4.94,1.18,7.3-1.43,13.37-5.87,18.77-2.4,2.91-3.72,6.73-8.66,7.46-5.41.81-9.54-.5-11.92-5C352.73,51.3,350,44.31,347,37.49c-.46-1-.84-2.11-1.26-3.17l-1.33.95Zm6.53-1.63a35.72,35.72,0,0,0,2.42,3.63c3.09,3.62,5.79,7.81,9.53,10.59,5.29,3.94,10.24,1.32,11.56-5.31-5.56,5.16-8.77,5.34-13.25.74,3.5.9,7.06,3.83,10.41-.36,3.11-3.91,1.64-7.85.06-11.73-.87-2.15-2-4.18-3-6.27,7,6,9,15.62,5.43,25.45,3.74-3.14,5.47-7.41,3.85-12a99.76,99.76,0,0,0-8-17c-3-5.17-9.09-6.06-14.85-3.06-4.93,2.57-6.36,6.56-4.55,12.49a16.56,16.56,0,0,1,.37,2.83c-2.14,6.25,6,19,14.1,22.63,4.41,2,6.77.42,8.81-3.72C361.75,51.38,354.22,45,351.06,33.56Zm-2.32-13.41,4.87-8.59.92.53L352.9,16.4c8.41-7.92,14.27-3.53,20,1.87-4.06-5.33-7.85-11.11-15.52-10C352.17,9.09,349.6,13.08,348.74,20.15Zm4.85,28.73c1.9,5.2,3.49,10.93,9.59,12.18,2.88.59,6.2-1,9.32-1.58l-.39-1.21C363.36,60.18,359,53.54,353.6,48.88Zm-6.95-33.27c-3.48,7.73-1,15.12,2.43,23.05Zm28.8,37.86c7.59-8.16,7.39-19.61-.06-26.75C380.53,35.61,382.48,44.51,375.45,53.47Z" fill="#ccc"/><path d="M14.91,159c16-1.55,32.13-5.28,47.51,3-10.84-3-21.76-4.67-34-2.1,11.51,1.23,22.49,0,31.83,6.51-17.6-5.69-35.13-5.83-52.67.6l-.43-1.76L23,160.46l-.11-.67c-4.46.95-9,1.59-13.35,2.93-4.11,1.27-5.87.88-8.12-3.23,4.85-2.38,9.76-4.65,14.51-7.2a23.09,23.09,0,0,0,6.44-4.61c4-4.53,8.67-5.24,14-3.18,9.25,3.57,18.6,5,28.29,1.89a6.11,6.11,0,0,1,2.19.16l.21,1.53-14.62,2.63L66,155.35l-.25,2C48.54,153.06,31.53,152,14.91,159ZM28,150.9l-.76-1.66,4.29-2.55,1,1.22-3,1.21H42.82c-3.11-1.62-6.31-3.11-9.64-3.45a12.29,12.29,0,0,0-7.37,1.78C21.87,150,18.39,153.26,15,156l24-4.54,0-.56Z" fill="#ccc"/><path d="M98.5,47.41c-4.16-2.31-4.43-7-3.7-10.16C97,27.88,100.4,18.8,108,12.11c3.58-3.14,7.4-2.9,10.43.25-2.44.17-5.56-.26-8.1.75s-4.76,3.51-7.1,5.35l1,.89c3.28-1.53,6.43-3.55,9.87-4.47,5-1.33,9.73.78,10.47,6.8,1.51,12.3-2.49,23-10,32.43-3.3,4.18-7.26,7.84-10.92,11.74l-1.23-1c.27-.79.29-2,.84-2.31,12.29-8.11,17.81-20.15,19.91-34.16a16.25,16.25,0,0,0-.24-5.46c-1.34-6.74-4.65-8.27-11.17-5.34,7.25,2.1,9.73,6.2,8.16,13.5-2.08,9.65-13.36,24.75-21.57,28.38,4.08-4.45,8.43-8.1,11.35-12.67,3.52-5.5,6-11.71,8.53-17.78.55-1.32-.09-4.26-1.11-4.85-1.4-.82-4.33-.87-5.49.09-3.91,3.23-7.33,7.06-10.94,10.65l1,1c2.47-2.35,4.74-5,7.5-6.93,1.53-1.08,3.86-1,5.83-1.5.1,1.7.51,3.47.21,5.1a9.18,9.18,0,0,1-2.63,4.53l2.14-8.65c-7.16,1.73-15.27,11.53-16.37,19Zm17.58-26c-6.37-3.58-16.28,4.6-18.3,14.81C103.33,30.56,106.22,21.81,116.08,21.44Z" fill="#ccc"/><path d="M272.72,136.39l-3.79,3.25,3.14-23.59,2,7.33c.74-3.09.89-7.22,2.74-10.36s5-6.21,8.17-7c2-.49,5.74,2.8,7.55,5.24,5.91,8,6.69,16.48.83,25a98.72,98.72,0,0,1-6.35,8.33c-4.82,5.61-9,11.36-5.79,19.48-2.95-3.29-2.87-6.76-1.68-10.57,1-3.11,1.18-6.46,2.26-9.51.55-1.56,2.23-2.73,3.45-4,5.87-6.29,6-15.8-.53-21.58l-5.9,12.22c1.09-3.91,1.54-6.81,2.74-9.34.75-1.58,3.13-3.93,3.91-3.63a9.34,9.34,0,0,1,4.4,4.33c1,2,1.14,4.41,2,6.55,1.31-5.27-.25-9.87-3.68-13.87-2.68-3.13-5.58-2.74-7.33,1a73.7,73.7,0,0,0-2.61,7.45l-1.41-.46c1.34-3.24,2.16-6.85,4.16-9.61s5.2-2.5,7.79.06c5.14,5.11,6.44,11.33,4.64,19.19,4.71-7.63.32-19.72-5.45-23.69-1.27-.87-4.3-.71-5.59.24-5.43,4-5.13,10.18-5.9,16.18a129.23,129.23,0,0,1-4.86,20.91c-.43,1.43-3.53,2-5.56,3.13l8.13-11.8Z" fill="#ccc"/><path d="M0,147.68c6.07-4.43,12.59-8.6,18.38-13.61,4.18-3.61,7.39-5,13.05-2.51,7.76,3.47,16.19,6.07,24.94,2.08-6.22,6.29-13.28,3-20.41,1.65,7.37,8.88,17.22,5.55,26.67,7.29-1.95,1.12-3.78,2.87-5.86,3.25-5.63,1-11.26.89-16.4-2.35a41.91,41.91,0,0,0-6.22-3.16c-4.44-1.85-8.21-1-11.83,2.41A121.16,121.16,0,0,1,8.48,154c-2,1.43-5,1.52-7.93,1.33,9.9-1.5,14.57-9.78,21.37-15.24,3.1-2.49,8.32-2.35,11.59-3.16-4-2.85-7.28-3.09-12,.77-4.23,3.47-7.93,7.58-12.15,11.06-2.43,2-5.27,4-8.14,2.65l15.6-10.61-.8-1.3C10.24,141.53,6.29,148.11,0,147.68Zm28.56-15.24c-4.08-2.13-7.46-.56-10.81,5.58Z" fill="#ccc"/><path d="M292.36,103.11l6.09,12.51.85-.27-.66-4.26c7.21,6.42,6.07,14.82,6.14,22.72,0,2.2-1.68,4.71-3.2,6.59-4.82,6-6.37,11.93-1.37,18.55.29.39,0,1.19-1,2.14l-4.51-10.31c-2.19,2.82-2.19,2.82,2.85,12.13-5.92-3.27-6.66-7-3.39-17-7.08,5.24-7.3,9-1.07,18.54l-1.23.74L286,155.39c-2.07,4.33.31,9,8,14.66-5.75.2-12.2-9.06-10.11-15.19,1.2-3.53,3.45-6.74,5.46-9.95A62.16,62.16,0,0,1,294,139c6.91-8.52,7.87-17.17,1.2-26.44C293.37,110.09,290.45,107.37,292.36,103.11Z" fill="#ccc"/><path d="M179.11,28.07c3.15-3.63,6.27-7.3,9.48-10.88a22.76,22.76,0,0,1,3.69-3.34c3.87-2.76,8-4.19,12.55-1.58a9.83,9.83,0,0,1,4.75,11.19c-2.47,11-5.56,21.82-8.56,32.68-.85,3.1-2.23,6.06-3.36,9.08L196.35,65c.52-1.95,1-3.92,1.56-5.84C201.29,48,204.87,37,208,25.82a15.39,15.39,0,0,0-.53-8.25c-1.45-4.6-6.12-5.92-12.34-3.42,2,.17,3.14.16,4.28.39,4.42.9,7.55,3.28,6.9,8.16-.76,5.73-1.49,11.59-3.39,17-2.62,7.49-6.3,14.62-9.59,21.87a3.22,3.22,0,0,1-2.81,1.76c2.44-5.44,5.19-10.77,7.25-16.35a216.12,216.12,0,0,0,6.84-21.76c.75-3,1.06-6.77-3.28-8.34-4.1-1.48-7.32-.27-9.49,3.21-4.47,7.18-8.7,14.51-13,21.79a5.61,5.61,0,0,1-2.13,2.41c1.73-9.76,9-16.65,12.38-25.7L177.43,34.7l-.95-.06,1.89-5.26Z" fill="#ccc"/><path d="M399.87,123.17c-5.59-8.7-15.1-9-21.09-1-8.21,10.89-4.4,22.77,5.31,34.19a52.91,52.91,0,0,0,4.26,4l-1.18,1.23c-2.55-2.72-5.46-5.2-7.58-8.22-8-11.32-10.4-21-2.29-32,4.18-5.66,6.17-6.7,14.87-6.22-5.13-5.1-9-5.48-14.12-.86-2,1.84-4.16,4.17-5,6.7-4.67,14.08-4.7,25.08,6.25,36.44a20.2,20.2,0,0,1,3.12,4c-20-12.58-16.13-39-5.8-48.16,5.1-4.53,8.24-5.43,13.78-1.42A153.69,153.69,0,0,1,408.56,128c1.9,1.9,1.9,5.59,3.63,7.79,1.47,1.87,4.18,2.78,6.79,4.39l-4.61,2.08.11.11c-3.63-5.39-7.23-10.81-10.95-16.15-.6-.86-1.77-1.31-2.68-1.95Z" fill="#ccc"/><path d="M102.63,133.59c2.58-3.9,4.1-8.5,9.31-10.32,6.18-2.17,9.72-1.3,12.68,4.52,2.69,5.3,3.68,10.83,1,16.57l.52-7L125,137c-1.38,6.49-2.44,13.38-8.71,16.89-5.68,3.18-11.62,6.19-18.5,5.61,5.22-1.89,10.52-3.4,15.46-5.67,8-3.69,13.31-18.35,9.58-26.34-.76-1.64-3.09-3.62-4.62-3.57a9.66,9.66,0,0,0-6.29,3.1c-1.77,2.05-2.45,5-3.67,7.57-2.88,6.06-5.8,12.1-8.54,17.8,2.38,0,4.24-1.4,5.77-5.33,2-5.26,4-10.54,6-15.82,1-2.74,2.93-5.14,5.88-3.68a7.19,7.19,0,0,1,3.14,5.69c-1,14.36-3,17.25-12.9,21a20.25,20.25,0,0,1-3.21.39c1.91-1.27,2.6-2,3.45-2.26,9.75-2.76,10.73-10.86,11.36-19,.13-1.62-1.42-3.37-2.2-5.07-1.42,1.16-3.46,2-4.15,3.55-2.14,4.65-3.77,9.53-5.58,14.33a31.54,31.54,0,0,1-1.11,3.3c-2.68,5.25-5.46,6-12.12,2.86,10.92-5.32,10.71-16.81,15.09-25.82l-6.57,7Z" fill="#ccc"/><path d="M196.61,127.21c-10,4.2-12.93,13-15.13,22.59l-.68-14.12-2.11.31c7.29-9.93,20.39-15.33,20.2-30.25,2.46,2.42,2.46,2.42.07,12.33.91-1.69,1.85-3.37,2.71-5.09s1.63-3.43,2.44-5.15l1.68.71L201.25,119l.9.58,7.29-12.16c.17,4.2-.52,7.38-3.11,10.2s-5,5.7-7.45,8.56Z" fill="#ccc"/><path d="M130.56,131.55c-.05-7.43-4-12.52-10-16.13-5.46-3.29-14.43.3-18.16,7.11-1.83,3.34-3.28,6.9-5.05,10.27a25.81,25.81,0,0,1-2.66,3.52l-1.38-.91c3.51-6,5.94-13.08,10.74-17.75,9.8-9.52,22.44-5.15,27.57,8.64.92,2.47.86,5.35,2,7.69,3.95,8.16,4.56,11.44,2,20.77-2,7.34-6,13.43-13,17.46,8.77-9,13.65-19.35,12.28-32.19-1.56,12.16-6.74,22.32-16.91,29.59,1.28-1.52,2.51-3.08,3.83-4.55,8.26-9.16,12.38-19.54,9.55-32a7.43,7.43,0,0,0-.9-1.7Z" fill="#ccc"/><path d="M201.51,144.84c.38-4.91,4.37-7.88,8.17-9.13,9.2-3,14.55-10,20-17.14l1,.76-6,9.08,4.28.22c-2.75,2.59-5.19,4.93-7.68,7.22-5.09,4.68-9.93,9.72-15.48,13.79-1.78,1.31-6.2,1.08-8.09-.28-2.91-2.1-2.12-6.14.21-8.46a46.15,46.15,0,0,1,11.16-8.53c5.64-2.88,12.27-4.26,12.27-12.91,2.11,3.17,2.23,5.61-.68,7.89a42.51,42.51,0,0,1-11.15,6.2c-4.95,1.86-8.77,4.57-11,9.4-1.62,3.46-.25,5.14,3.21,5.25,1.59.05,3.62-.16,4.75-1.09,5.43-4.49,10.62-9.27,15.89-14l-1.55-1.78L203.23,146.5Z" fill="#ccc"/><path d="M196.61,127.21l2.27-1.07c1.65-.76,3.27-1.61,5-2.27,5.24-2,9-5.07,7.94-11.44a1.48,1.48,0,0,1,.24-.93,3,3,0,0,1,.73-.62,8.83,8.83,0,0,1-3.42,12.1,71,71,0,0,1-7.23,3.29c-9.24,4-13.26,11.81-14.71,21-1.78,11.23,9.66,13.58,16.9,10.65,1.92-.78,3.49-2.42,5.22-3.66l4.45-3.08c4.69-4.66,9.35-9.35,14.09-14,2.64-2.56,5.39-2.84,9.13.91-8.56-2.46-11.17,4.22-15.64,7.72l-2.36,4c-3.56,2.66-7.2,5.21-10.66,8-5.78,4.63-12.53,5.32-17.91,1.65-5-3.42-7.08-10.27-3.89-17C189.3,137,193.27,132.27,196.61,127.21Z" fill="#ccc"/><path d="M179.11,28.07l-.73,1.31c-.59-.54-1.78-1.38-1.69-1.57,3.58-6.91,4.41-15.31,10.89-20.64a12.54,12.54,0,0,1,5.73-2.59l-8.11,7.32.66.79C188.56,11,191.15,9,194,7.59c9.94-5.09,20.48,1,19.42,12-1.1,11.46-4,22.77-6.44,34.07-.85,3.93-2.72,7.65-4.12,11.47l-1.47-.47q.85-2.48,1.7-5c4.56-13.41,8.9-26.85,8.49-41.29-.24-8.44-5.39-12.49-13.47-10.19C187.95,11.1,181.94,18.1,179.11,28.07Z" fill="#ccc"/><path d="M214,151.16l-4.45,3.08c-1.93.46-3.86.94-5.8,1.38-4.3,1-8.55.93-11.11-3.22-3.48-5.65-2.52-13.58,2.25-17.36a61.9,61.9,0,0,1,11.49-6.89c9.32-4.53,10.37-6,9.58-15.93,3.92,4.15,3.73,10.86-.79,14A64.78,64.78,0,0,1,205,131.4c-5.08,2.3-9.88,4.76-12.13,10.39-3.08,7.71,1.46,14.2,9.45,12.3,4.36-1,8.45-4.26,12-7.24s6.34-7.28,9.89-10.52a20,20,0,0,1,8.54-4.1C224,136.14,218.95,143.61,214,151.16Z" fill="#ccc"/><path d="M390.74,105.41c4.86,4.91,9.68,9.86,14.6,14.7a43.42,43.42,0,0,0,6,5.15c5.08,3.42,8.32,3.11,13-.84.81-.69,1.71-1.26,2.92-2.14-1.94,7.21-9.57,9.69-16,4.93a66.27,66.27,0,0,1-12.71-12.49c-8.74-11.32-21.15-11.08-28.27,4.13-5.6,12-7.58,24.09.82,35.87.3.42.1,1.2.13,1.81l-1.44.57c-1.84-4.4-4.69-8.66-5.32-13.23-1.44-10.47,1.22-20.33,6.46-29.6,4.56-8.07,11.51-9.85,19.91-8.74Z" fill="#ccc"/><path d="M344.43,35.26,355,61.06l-.43.3L350.37,54l-1,.57,6.58,11.26c-6.09-3-9-8.21-11.13-13.26-3.48-8.4-9.84-16.55-4.86-26.68l4.25,15.74.86-.24q-.26-3.12-.52-6.24Z" fill="#ccc"/><path d="M41.93,165.74c-11-.75-22-1.29-32.7,6.51,3-5.09,5.56-6.54,12.62-7.87a66.6,66.6,0,0,1,30.08,1c2.69.73,5.36,1.89,4.43,6.24a55.78,55.78,0,0,0-43,2.32C14.64,169.31,16.09,168.91,41.93,165.74Z" fill="#ccc"/><path d="M322.39,225.21c1,3,2.23,5.88,2.71,8.92a4.58,4.58,0,0,1-2.25,3.82c-1.1.41-3.22-.5-4.2-1.51-4.68-4.76-5.26-5-10.32-.43-3,2.71-5.6,5.89-9.12,8.33,1.71-2.3,3.49-4.56,5.13-6.91,1.85-2.66,3.73-5.31,5.33-8.12a3.91,3.91,0,0,1,6.48-.43c1.87,2.17,3.35,4.67,5.78,8.12.4-6.51-2-10.32-5.88-12.88-1.23-.81-4.31-.22-5.66.84-2.75,2.16-4.9,5.08-7.74,8.18,4.78-10.63,9.21-13.21,17.39-10.61Z" fill="#fff"/><path d="M389.39,147.15c-4-3.22-5.4-7.44-3.83-12.21.58-1.77,2.52-4,4.11-4.27s4.27,1.4,5.08,2.94c1.42,2.69,2,5.9,2.55,9,1.16,6.35,3.92,8.83,10.24,8.77-3.17,3.7-6.1,2.36-11.81-5.38l-1.05.7,6,8.82c-4.27-2.24-9.68-2.69-11.5-8.51l3.06,2.35c-1-4.68-5.65-8.15-2.06-14l4.78,7.76c.06-2.55,0-5.17-1.16-7.23-.86-1.58-3-2.44-4.62-3.63-1,1.74-3.06,3.61-2.87,5.21C386.73,140.75,388.3,143.92,389.39,147.15Z" fill="#ccc"/><path d="M399.87,123.17l1,1.07c1.71,3.85,4,7.56,5,11.59,1.18,5,3.86,6.88,8.66,6.5l-.11-.11c-2.4,3-7.3,1.76-9.15-2.68-1.2-2.88-1.61-6.09-2.67-9-3.11-8.67-11.6-11.61-18.78-6.63-4.18,2.9-6.92,10.51-4.56,15.66,2.58,5.62,6.28,10.72,9.55,16a33.31,33.31,0,0,0,2.53,3.09c-8-3.91-15.83-17.54-14.65-24.67C378.7,121.46,388.58,116.86,399.87,123.17Z" fill="#ccc"/><path d="M20.94,177.78l7.82-4.94-.08-.56L18.57,175c3.78-6.11,25.61-6.53,38.49-.65L39.44,172l-.14.7,14.62,5.85L53.45,180c-10.5-5.07-21-9.16-31.92-.21Z" fill="#ccc"/><path d="M33.55,47.17c-.47.14-1.14.12-1.39.43C27.4,53.53,24,54,18,49.23,11.24,43.88,9.63,36.3,8.38,28.59l1.4-.51c.6,2.42,1.2,4.85,1.8,7.27C13,41,15.38,46,20.63,49.11c4.13,2.42,7.23,1.69,9.37-2C18.83,44.45,10.06,31.13,13.32,23c1.63,4.55,3,9.91,5.43,14.74,3,6,7.11,7.36,14,5.77l.73,3.7Z" fill="#ccc"/><path d="M33.45,47.24c2.33,6.09.09,9.92-6.07,10.17-5.54.23-9.88-2.42-13.63-6.19-1.27-1.27-2.29-2.78-4-4.94C9.83,54,14,58.89,20.94,60.56c6.64,1.61,15.24-.72,16.61-5.67,1.16-4.22,0-9.06-.08-13.63l-.1.08a11.78,11.78,0,0,1,1.57,13.73c-1.76,3.27-6.3,6.25-10.08,7C15.54,64.71,4.83,54.84,8,40.44c2.29,6.63,6.92,10.71,12.52,13.81,8.16,4.52,12.52,2.12,13-7.07Z" fill="#ccc"/><path d="M274.29,41.25c3.37-2.78,6.62-2.91,10.3-.25,4.85,3.49,10.33,5.14,16.54,3.67-2.56,4.8-2.84,5-7.33,3.8-1-.25-1.87-.71-2.81-1-8.39-2.8-16.66-4.93-22.82,5.34,0-5.6,5.37-16.22,9-18,1.33-.66,3.25-.11,5.09.54-4.57-.28-6.73,2.18-7.84,6l-3.86,4,14.66-2c-2.06-1.94-4.75-3.35-8.36-1.57C276.25,42,275.17,41.43,274.29,41.25Z" fill="#ccc"/><path d="M390.91,105.55c-6.68-4.34-13.92-4.2-18.84,1.61-3.63,4.28-5.9,9.73-8.7,14.7-.75,1.33-1.21,2.81-2.36,5.54-1.2-18.88,15.42-30,32.21-23.34L394.62,86l1.22.08v21.12l-5.11-1.78Z" fill="#ccc"/><path d="M130.43,131.39c1.72,10.37-.87,19.56-7.86,28.66,2.16-5.62,4-10.25,5.72-14.89,2.88-7.55.59-14.59-3-21-4.14-7.36-14.38-7.25-19.08-.09-2.26,3.45-3.77,7.38-5.84,11-1.3,2.26-3,4.29-4.73,6.76-.82-1.28-1.22-1.68-1.14-1.8,3.53-5.72,7.05-11.45,10.69-17.11a11.57,11.57,0,0,1,11.45-5.64c5.37.54,9.18,3.56,11.45,8.45.89,1.91,1.66,3.88,2.49,5.83Z" fill="#ccc"/><path d="M309.92,221.11l-9.74,9.1,2.33-6-.2.18c2.13-1.78,4.16-3.7,6.41-5.3,7.46-5.29,13.82-3.86,19.19,3.54a77.72,77.72,0,0,0,10.57,11.83c2.26,2.05,5.58,2.93,8.16,4.9a15.89,15.89,0,0,1-11.45-5.06,123.24,123.24,0,0,1-9.46-12.14C321.41,216.17,314.32,215.64,309.92,221.11Z" fill="#ccc"/><path d="M384.37,146.27c-5.63-8.31-3.42-18.54,4.09-21,5.6-1.81,11.08,1.88,12.65,8.64.49,2.09.59,4.27.92,6.4.73,4.7,2.83,7.79,8.52,6.62-3.45,3.31-8.37,1.35-9.76-3.72-.74-2.7-.9-5.56-1.45-8.32-1.2-5.94-4.76-9.32-9.05-8.72s-7.44,5.28-7.09,11C383.37,140,383.9,142.7,384.37,146.27Z" fill="#ccc"/><path d="M288.82,19.11c-9.33-8.61-18.43-6.65-24.13,5.13a32.37,32.37,0,0,1-5.2,8c2.67-6.95,5.39-13.88,11.61-18.63l-.12.11c5.27-2.62,10.27-2,15,1.28,2.73,1.86,5.26,4.1,8.16,5.63,2.63,1.38,5.64,2,9.52,3.34-5.15,2.33-8.44-1.58-12.17-2.34Z" fill="#ccc"/><path d="M.95,142.23c6.32-4.66,12-9.37,18.29-13.24a13.6,13.6,0,0,1,9.18-1.54c7.47,1.62,14.75,4,22.53,1.32l.43,1.44c-1.54.61-3.08,1.76-4.61,1.74-3.79-.06-8,.31-11.26-1.21-9.51-4.43-16.33-.73-23.06,5.64C9.32,139.34,5.87,142.49.95,142.23Z" fill="#ccc"/><path d="M304.82,33.32c-2.32,0-4.23.58-5.4-.11A63.78,63.78,0,0,1,291.06,27c-8.33-7-14.43-6.43-21,2.16a97.35,97.35,0,0,1-9.3,11c.16-1,0-2.3.54-3,4.15-4.9,8.11-10,12.8-14.37,3.59-3.31,8.34-3.22,12.55-.56,3.07,1.94,5.77,4.48,8.84,6.42C297.91,30.26,300.68,31.31,304.82,33.32Z" fill="#ccc"/><path d="M10,255.65c5.59,4,11.46,9.23,18.22,12.74,6.56,3.4,14,5,21.49,7.6C39.81,277.47,16,268.26,10,255.65Z" fill="#ccc"/><path d="M190.53,41.59,182.8,56.38l-2-.11c-.24-1.46-1.17-3.3-.61-4.31,3.53-6.34,7.39-12.49,11.15-18.71Z" fill="#ccc"/><path d="M38.9,250.75c-6.36-.52-8.85-9.62-7.38-14.58.21-.73,3-1.55,4-1.05C40.05,237.57,41.76,246.14,38.9,250.75Zm-1.06-7,.78-.49L34.51,236l-1.64.46.51,7,.74,0,.58-3.21Z" fill="#ccc"/><path d="M263.48,42.57C267,36.43,270,29.81,276.1,25.63c4-2.73,8.12-1.12,11.29,2,4.69,4.64,9.25,9.22,17,7.36l-.3,2c-2.17,0-4.71.73-6.42-.15a47.16,47.16,0,0,1-10.12-7c-5.46-5-9.54-5-14.27.67-1.7,2-3.27,4.2-4.76,6.4s-2.64,4.3-4,6.46Z" fill="#ccc"/><path d="M315.52,245.5l2.07,2.38,7.54,6.42-.46,1a41.56,41.56,0,0,1-5.09-3.17c-1.51-1.26-2.52-3.16-4.09-4.3-.93-.67-2.54-.4-3.64-.52l8.47,10-1.38,1.25-5.63-7.77-1.68,7.95-1.69-2.89L308,258.42,307,258c1.22-3.82,2.18-7.76,3.84-11.38C311.21,245.69,313.89,245.84,315.52,245.5Z" fill="#ccc"/><path d="M425.1,119.39c-4.19,4.32-11.62,4.06-17.36.19-7.45-5-11.6-17.31-8-24.91a26.92,26.92,0,0,0,5.3,20.05C409.26,120.33,417.34,122.31,425.1,119.39Z" fill="#ccc"/><path d="M199.29,22.39c-3.77-1.25-6.14.75-7.7,3.74-3.83,7.34-7.45,14.79-11.18,22.19a5.46,5.46,0,0,1-2.92,2.85c0-1-.35-2.14.05-2.91,4.07-7.78,8-15.67,12.59-23.12,1.41-2.27,4.84-3.33,7.44-4.74.23-.13,1.25,1.2,1.91,1.86Z" fill="#ccc"/><path d="M37.46,41.25c-2-1.61-3.82-2.74-6.52-.89-1,.66-3.21.18-4.51-.49C19,36,15.35,26.53,18,18.54c1.94-6,8.08-7.51,14.65-3.71-.27.1-.6.34-.81.27-4-1.32-8.81-2.11-10.92,1.59C19,20,18.72,25,19.53,28.81c1.57,7.43,6.11,9.64,13.34,8.82,1.34-.15,3,2.4,4.49,3.71Z" fill="#ccc"/><path d="M31.43,20.27a18,18,0,0,0-2.47-.1c-2.3.21-4.59.5-6.88.76.66,2.79.77,5.9,2.15,8.28C25.26,31,28,33,29.84,32.86,38.49,32.21,41.61,34.68,42,44.1c-.52-1.43-1-2.87-1.56-4.29-2.21-5.77-3.49-6.5-9.57-4.87-4,1.07-5.8-1.35-7.56-4.12-2.18-3.44-4.76-7.49-1.91-11,2.63-3.22,6.78-2.43,10,.53Z" fill="#ccc"/><path d="M199.48,22.25c.27,2.36,1.49,5.14.66,7C195.3,40.19,190,50.91,184.84,61.7l-2.16-.92c.45-1.09.82-2.22,1.37-3.26,4.58-8.62,9.41-17.12,13.67-25.9,1.31-2.7,1.09-6.14,1.57-9.24Z" fill="#ccc"/><path d="M126.22,41.71c-4.55,7.26-9.06,14.54-13.68,21.76a4.84,4.84,0,0,1-3,1.81C119.43,53.7,127.26,41.37,127,25.35c2.83,5.78-.11,11.09-.91,16.52Z" fill="#ccc"/><path d="M219.19,149.8l2.36-4c2.32-1.53,4.59-3.16,7-4.55a6.2,6.2,0,0,1,4.56-.75l-4.71,3.72.17-.18c-3.09,2.91-6.22,5.78-9.26,8.74s-6,6.19-9.15,9.1c-.87.79-2.42.84-3.6,1.22Z" fill="#ccc"/><path d="M271.09,13.59c-.07-1.19-.69-2.93-.13-3.49,2.91-2.91,6.49-4.31,10.4-2.14,3.72,2.07,7.07,4.82,10.84,6.79,3.11,1.63,6.59,2.56,10.67,4.09-4.52,2.39-7.62-.05-10.74-2.07s-6.16-4.43-9.48-6.2c-5.14-2.73-7.76-1.88-11.66,3.1Z" fill="#ccc"/><path d="M47.9,256.79c4.11-12.22,3.82-23.34-2.47-34.88C53.46,226.67,54.84,249.11,47.9,256.79Z" fill="#ccc"/><path d="M14,18.32c-.1-6.24,6.59-11.68,12.08-10.9,9.23,1.3,14.41,7.73,18.49,15.44-.63-.7-1.22-1.43-1.89-2.09-3.41-3.35-6.47-7.21-10.34-9.91-6.16-4.29-12-2.47-16.48,4.31C15.22,16.18,14.65,17.27,14,18.32Z" fill="#ccc"/><path d="M279.06,48.26l-8,4.9c1.51-4.13,3.38-5.27,8.85-5.91,6.23-.72,11.77,1.07,14.11,4.76-3.53-.86-7-2.71-10.15-2.2s-6,3.37-9.79,4.44l6.4-4.58Z" fill="#ccc"/><path d="M403.49,95.6c1.44,4.64,2.22,10.13,4.77,14.61,2.7,4.74,7.54,7.51,14.36,5.74-4.06,3.29-8.07,2.63-12.79-1.37C403.42,109.13,400.77,100.58,403.49,95.6Z" fill="#ccc"/><path d="M98.41,47.52l10.45-13.8,1.89,1.3-4.1,8.33-.62-.23.1-2-.75-.39-7.7,12.86L96,52.65l2.47-5.23Z" fill="#ccc"/><path d="M281.48,139.74c.51-5.57-.56-11.64,4.81-16.48C289.61,130.64,284.93,135,281.48,139.74Z" fill="#ccc"/><path d="M228.39,144.24l3.94-.25c-10.07,5.18-11.46,18.63-22.48,23.55l18.71-23.48Z" fill="#ccc"/><path d="M302,247l8.39-9.16c2.68-1.6,4.13-.21,5.19,2.13l-6.12,1.32-11.56,17-.51-.18Z" fill="#ccc"/><path d="M206.59,63l7.94-29.56C215.37,44.32,211.59,53.81,206.59,63Z" fill="#ccc"/><path d="M53.41,255.07l2.32-25.67C59.55,234.56,58.05,250.23,53.41,255.07Z" fill="#ccc"/><path d="M116.68,133.69l-5.4,15.11-2.45-.84,5.3-15.28Z" fill="#ccc"/><path d="M288.82,19.11l2.68,2.51L294,24.25c-16.76-7.36-19.22-7.07-27,2.73,1.14-5.92,7.61-10.54,14.15-9.8A57.12,57.12,0,0,1,288.82,19.11Z" fill="#ccc"/><path d="M49.43,124.86c-4.16,5-15.2,4.71-22.6,0Z" fill="#ccc"/><path d="M126.11,41.87l2.35-2.7c-1.23,9.73-3.6,18.7-12.52,24.09,5.42-6.25,10-12.91,10.28-21.57Z" fill="#ccc"/><path d="M309.45,241.27l6.12-1.32,2.23,3.2-2.72.24c-2.68-2.3-4.18-.65-5.32,1.69-2.15,4.4-4.21,8.85-6.31,13.28l-1.4-.63Z" fill="#ccc"/><path d="M423.24,113c-5.6,2.62-9,.21-11.56-2.12-4-3.66-4.81-8.91-4.45-14.37C409.78,104.25,410.9,113,423.24,113Z" fill="#ccc"/><path d="M374.54,14.47a20.56,20.56,0,0,1,6.54,14.71c-3.19-5.33-6.39-10.65-9.53-16-.09-.15.51-.69.78-1.05Z" fill="#fff"/><path d="M190.53,41.59l.82-8.34,4-6.8,1.35.73C196.74,32.78,193.85,37.27,190.53,41.59Z" fill="#ccc"/><path d="M11.23,59.41c4,6,9.31,8.34,17.17,5.92C21.09,70.86,12.72,67.7,11.23,59.41Z" fill="#ccc"/><path d="M389.66,99.35l-16.32-1.08C376.89,94.81,385.38,95.41,389.66,99.35Z" fill="#ccc"/><path d="M100.85,171.73l15.84-11.53.93,1.3-15.83,11.74Z" fill="#ccc"/><path d="M285.33,33.09,301,40C294.16,41.13,289.84,37.12,285.33,33.09Z" fill="#ccc"/><path d="M114.32,159.78l-16.12,8-.66-1.2,16-7.9Z" fill="#ccc"/><path d="M289.92,54.31c-6.26-5.45-8.07,1.73-11.67,3.83l-1-1.3c2.13-1.9,4-4.47,6.48-5.49,1.8-.73,4.44.59,6.7,1Z" fill="#ccc"/><path d="M102.58,133.59c.28.91.89,1.85.79,2.72-.44,3.87-6.66,11.23-8.87,11.5,2.58-4.48,5.37-9.34,8.15-14.21Z" fill="#ccc"/><path d="M278.53,167.24a9.38,9.38,0,0,1-2.44-13.18Z" fill="#ccc"/><path d="M5.09,134.47l11.72-8.25.83,1.15L6,136.13Z" fill="#ccc"/><path d="M31.34,20.38c6,.85,12.49,6.25,13.42,10.56L31.43,20.27Z" fill="#ccc"/><path d="M426,132.57c-4.92,4.92-10.48,4.12-15.14-2.13C415.5,133.68,420.19,136.8,426,132.57Z" fill="#ccc"/><path d="M31.86,0,42.22,7.92l-.89,1L30.67,1.53Z" fill="#ccc"/><path d="M98.42,249c-4-7.58-7.14-15.46-5.78-24.16.83-5.3,3.46-9.33,8.93-11.59,9.3-3.85,17.36-1.19,24.78,4.14,12.8,9.2,21.08,21.37,23.67,37.28,2,12.44-6.09,21.11-14.59,25.34a14.25,14.25,0,0,1-16.8-2.71c-11.76-12-20-26.06-21.15-43.35-.4-6.21,4.54-11.28,11.14-12.18-8.51,6-10.27,10.27-6.65,20.32A201.56,201.56,0,0,0,113,267a17.73,17.73,0,0,0,13.74,9.8c8.06,1,16.36-5.08,18.68-13.5,3.56-12.94-4.85-36.82-18.78-42.14-9.66-3.69-23.69-3.33-28.76,5.79-3.17,5.69-2.15,11.21-.87,16.92C97.37,245.58,97.94,247.26,98.42,249Z" fill="#fff"/><path d="M127.65,223.51c9.51,7.46,13.69,16.34,15.63,26.65,1.29,6.84,1,13.23-3.41,19-6.08,8-16.13,8.33-22.74.71-8.1-9.33-11.77-20.72-14.68-32.39A11.25,11.25,0,0,1,106.87,225c4.5-3.16,9.67-4.46,15-1.48a17.74,17.74,0,0,1,4.94,3.4c-2.46-.63-4.92-1.27-7.38-1.87-8.48-2.09-15.94,3.86-14.95,12.64,1.29,11.35,6.6,21.22,13.54,30.07,3,3.83,7.66,4.78,12.28,2.88,5.85-2.41,10.21-6.43,10.91-13.12,1.16-11.12-2.71-20.58-10.11-28.75-1-1.1-2-2.23-3-3.36A13.36,13.36,0,0,1,127.65,223.51Z" fill="#fff"/><path d="M118.06,240.82c-1.08,2.56-1.41,6.08,1.63,8.62,1.68,1.41,5.57,2.9,6.37,2.15,2.49-2.36,4-5.77,5.18-7.65.3,2.48.92,6.9-3,10.09-1.27,1-3.4,2-4.82,1.64-5.14-1.26-7.07-5.54-8.42-10.19-1.18-4.05-.6-7.66,2.69-10.4,1.17-1,3.77-2.12,4.28-1.65,2.26,2.12,4.86,4.54,5.69,7.34.77,2.61-.37,5.88-1.2,8.71-.1.33-4.57.35-5.31-.69C119.5,246.49,119,243.43,118.06,240.82Zm5.06-5.13c.42,4.69,7,9.23-1.84,11.22,2,.1,4.31,0,5-1.16C128.64,242.13,126.29,239.4,123.13,235.68Z" fill="#fff"/><path d="M127.06,233.29c-7.51-2.06-9.67-1.51-12.23,3.14-2.85,5.18-1.33,13.49,3.27,17.93,4.15,4,7.12,4.16,12.71.67-2.85,5.22-6,6.22-10.47,3.33-6.87-4.46-10.67-14.73-8.09-21.9C115,228.95,121.39,227.57,127.06,233.29Z" fill="#fff"/><path d="M116,261.12c4.23,4,7.49,8.28,12.48,5.65,7.66-4,9.81-11.28,9.21-19.79,4.41,8.15,1.54,17.27-6.47,21.35C124.87,271.58,119.92,269.56,116,261.12Z" fill="#fff"/><path d="M135.12,255.46c-1.37,4.18-3.53,9.6-9,10.15-5.88.59-8.11-5.67-12.35-9.57,4.34,2.16,8,5.51,11.51,5.3S132.07,257.41,135.12,255.46Z" fill="#fff"/><path d="M109.59,239.69c-1.46-9.85,4.52-14.7,13.13-11.63-2,.65-5.84.87-8.09,2.85C112.15,233.1,111.09,236.91,109.59,239.69Z" fill="#fff"/><path d="M112,227.84c-5.83,4.39-5,10.3-3.32,17.43C103.91,236.89,105.34,230.55,112,227.84Z" fill="#fff"/><path d="M390.53,203.42c.66,14.19,4.2,27.36,12,39.45a28.4,28.4,0,0,0,21.6,13.38,9.62,9.62,0,0,0,6.32-2c6.55-5.14,9.49-12.12,9.07-20.53,3.13,10.72-4.15,24.51-14.76,26.49-7,1.3-13.73-2-18.22-7.23-10.59-12.33-15.54-27.22-17-43.26C389.36,207.65,390.18,205.52,390.53,203.42Z" fill="#fff"/><path d="M395,213.12c2.35,5.55,5.16,12.88,8.58,19.92,1.41,2.91,3.95,5.34,6.27,7.71,3.14,3.21,6.72,5.26,11.63,3.82,5.1-1.49,7.59-5,8.88-9.8,2.75-10.33-.95-19.69-4.33-29.1-.38-1.06-1-2-.42-3.63,1.25,2.43,2.72,4.77,3.72,7.3a49.42,49.42,0,0,1,3.3,25.93c-.93,6.11-3.55,11.29-9.56,13.6-5.3,2-11.55-.78-16-6.7C400.23,233,395.42,222.93,395,213.12Z" fill="#fff"/><path d="M405.63,244.6c4,2.06,8.12,5.41,12.64,6.16,8.8,1.46,15.65-5.74,16.17-16,.29-5.76.05-11.54.05-16.15,4.61,7.58,5.62,26.18-4.26,33.79-2.63,2-4.91,3-8.56,2.15C414.82,253,409.45,249.81,405.63,244.6Z" fill="#fff"/><path d="M399.85,203.44c.46-3.82,2.75-5.09,6.44-5.36,6.61-.49,11.62,1.75,15.14,7.38,4.52,7.22,7.13,14.87,6.06,23.56-1.14,9.21-8,12.24-15.57,6.73-1.45-1.06-2.95-2.07-4.42-3.1l-2-4.61c3.07,2.37,5.94,5.09,9.27,7,6.46,3.79,10.25,1.61,10.48-5.72a38.8,38.8,0,0,0-.27-7.92c-1.14-6.42-3.27-12.4-9.14-16.2a5.21,5.21,0,0,1-.26-.48A11.91,11.91,0,0,0,399.85,203.44Z" fill="#fff"/><path d="M420.71,261.87c-9.94,3.64-12.73,2.56-17.74-4.73a82.72,82.72,0,0,1-13.35-30.29,31.83,31.83,0,0,1-.71-6.21C395.54,237.19,398.17,256.6,420.71,261.87Z" fill="#fff"/><path d="M405.52,228l2,4.61c5.33,7.63,11,9.08,19.47,5-4.64,6.75-10.49,7.5-16,2-8.2-8.1-13.54-17.6-13.54-29.41,0-2.09,1.4-4.18,2.15-6.27-.23,8.32-.77,16.72,6,23.23Q405.55,227.64,405.52,228Z" fill="#fff"/><path d="M405.56,227.23c-6.78-6.5-6.25-14.9-6-23.23a3.79,3.79,0,0,1,.31-.57,11.91,11.91,0,0,1,15.75,1.32c-2.47-.83-4.89-2.1-7.42-2.4-6.29-.75-8.29,1.71-7.12,8.51l2.32-4.54a18.44,18.44,0,0,0,1,14.82c.82,1.59,1.46,3.27,2.17,4.91Z" fill="#ccc"/><path d="M406.05,188.75c-8.83,1.43-8.83,1.43-17.19,12.65C388.11,192.47,393.87,187.92,406.05,188.75Z" fill="#fff"/><path d="M399.3,198.41c8.38-7.68,20.82-3.26,25.39,8.62C418.62,198.06,411,193.67,399.3,198.41Z" fill="#fff"/><path d="M399.48,194.86,392.66,210C391.94,202.47,394.66,196.49,399.48,194.86Z" fill="#fff"/><path d="M238.52,251c1.53-22.12-19.27-32.6-33.84-18a16,16,0,0,1,23.54-7.48c8.34,5.29,11.62,12.77,11.1,22.29A16.5,16.5,0,0,1,238.52,251Z" fill="#fff"/><path d="M226.38,265.91c-.89-2.42-1.65-4.91-2.74-7.24a18.75,18.75,0,0,0-2.61-3.39c-.5,1.42-1.42,2.84-1.41,4.25,0,3.08.5,6.17.8,9.25l-1.78.18c-.18-3.71-.27-7.43-.6-11.13a28.2,28.2,0,0,0-1.2-4.66c-1.52,1.15-3.69,2-4.41,3.53-1.22,2.6-1.52,5.63-2.21,8.48l-1.41-.29c.95-4.32,1.47-8.8,3-12.93,1.56-4.34,4.78-1.78,7.5-1,3.42,1,6.9,1.83,10.35,2.73l.36-1.28,3.79,5.28-.71.75a23,23,0,0,0-3-2.5,20.43,20.43,0,0,0-3.53-1.31c-.36,1.34-1.17,2.74-1,4a50.93,50.93,0,0,0,2,6.91Z" fill="#fff"/><path d="M231.88,247.76c-1.74-7.69-4.09-13.82-12.66-13.64-7.17.15-11.73,4.29-15.22,10.12,2.32-8.52,10.1-13.75,17.6-12.14C229.42,233.79,233.16,239,231.88,247.76Z" fill="#fff"/><path d="M221.42,250.29c1.79-1.11,4.93-2.09,5-3.35a8,8,0,0,0-2.84-6c-2.35-1.83-5.51-2.62-8.46-3.92,8.21-2.85,12.51-.56,13.91,7.6.33,1.92.07,5.26-1,5.81-1.74.88-4.38,0-6.64-.15Z" fill="#fff"/><path d="M224.58,248c-10.06-6-10.06-6-17.1-1.41,2.49-2.46,4.61-6,7.6-7,2.22-.75,5.84,1.4,8.27,3.08C224.46,243.46,224.21,246.2,224.58,248Z" fill="#fff"/><path d="M209.71,223.28c8-8.46,21.09-5.06,27.51,7.63C228.59,223.84,221,216.22,209.71,223.28Z" fill="#fff"/><path d="M231.58,234.55l-15.68-5.63C220,225.58,228.8,228.43,231.58,234.55Z" fill="#fff"/><path d="M338.28,295.06l2.11,9.43-.57-.16c-1.35-2.48-2.13-6-4.22-7.17s-5.56-.28-8.54-1.31l11.39-.59Z" fill="#fff"/><path d="M317.8,243.15l-2.23-3.2c-1.06-2.34-2.51-3.73-5.19-2.13,2.61-4.23,3.45-4,6.72-1,3.53,3.27,7.75,5.8,11.67,8.65l3.94,2.86-.71,1.55Z" fill="#fff"/><path d="M306,215.79c5.15-7.11,13-8.76,19.52-3.2,5.79,4.94,10.59,11,15.83,16.62L340,230.42q-4.26-4.85-8.52-9.69a42.73,42.73,0,0,0-3.67-4C321.87,211.52,317,208.22,306,215.79Z" fill="#fff"/><path d="M333,216c-8.11-7.34-16.59-11.8-27.5-4.08C312.37,201.31,323.55,204.41,333,216Z" fill="#fff"/><path d="M326.16,238.22l12.07,9.63-.8,1.1-12.65-9Z" fill="#fff"/><path d="M302.51,224.18l-2.33,6-5.92,9.62-1.09-.64Z" fill="#fff"/><path d="M361.32,43.2c4.48,4.61,7.69,4.43,13.25-.74-1.32,6.63-6.26,9.25-11.56,5.31-3.74-2.78-6.44-7-9.53-10.59a35.72,35.72,0,0,1-2.42-3.63h0a16.58,16.58,0,0,0-.37-2.83c-1.81-5.92-.38-9.91,4.55-12.49,5.76-3,11.81-2.11,14.85,3.06a99.76,99.76,0,0,1,8,17c1.63,4.57-.11,8.84-3.85,12,3.54-9.83,1.6-19.42-5.43-25.44-4.11-4.66-9.06-4.52-14.77.39-.72.93-2.23,2.08-2,2.76,1.68,6,3.84,11.84,9.57,15.38Z" fill="#fff"/><path d="M354,25.23c5.72-4.92,10.66-5,14.77-.39,1,2.09,2.16,4.12,3,6.27,1.58,3.89,3.05,7.83-.06,11.73-3.34,4.19-6.9,1.26-10.41.36l.19.16C358.16,37.67,353.19,32.65,354,25.23Zm5.6.88c-1.05,1-2.81,1.93-3,3.12-.58,3.12,4.51,10.47,7.59,10.61,1.75.08,4.77-1.48,5.13-2.85a14.71,14.71,0,0,0-.54-8.21c-1.5-4.24-5.45-5.06-9.35-2.48Z" fill="#fff"/><path d="M351.06,33.56C354.22,45,361.75,51.38,374,52.48c-2,4.15-4.4,5.7-8.81,3.72C357,52.58,348.9,39.82,351,33.57Z" fill="#fff"/><path d="M348.74,20.15c.86-7.06,3.42-11.05,8.65-11.84,7.67-1.15,11.46,4.63,15.52,10-5.74-5.4-11.6-9.79-20-1.87l1.64-4.32-.92-.53Z" fill="#fff"/><path d="M353.6,48.88c5.44,4.66,9.77,11.3,18.52,9.39l.39,1.21c-3.12.59-6.44,2.17-9.32,1.58C357.09,59.8,355.49,54.08,353.6,48.88Z" fill="#fff"/><path d="M346.65,15.61l2.43,23.05C345.6,30.73,343.17,23.34,346.65,15.61Z" fill="#fff"/><path d="M375.45,53.47c7-9,5.08-17.86-.06-26.75C382.84,33.86,383,45.31,375.45,53.47Z" fill="#fff"/><path d="M28,150.9H39l0,.56L15,156c3.41-2.75,6.89-6,10.83-8.55a12.29,12.29,0,0,1,7.37-1.78c3.32.34,6.53,1.83,9.64,3.45H29.53l3-1.21-1-1.22-4.29,2.55Z" fill="#fff"/><path d="M116.08,21.44c-9.86.37-12.76,9.11-18.3,14.81C99.81,26,109.71,17.86,116.08,21.44Z" fill="#fff"/><path d="M28.56,132.44,17.75,138C21.1,131.88,24.48,130.3,28.56,132.44Z" fill="#fff"/><path d="M414.48,142.33c-4.8.38-7.47-1.5-8.66-6.5-1-4-3.26-7.74-5-11.59.91.64,2.08,1.09,2.68,1.95C407.25,131.52,410.84,136.94,414.48,142.33Z" fill="#fff"/><path d="M389.39,147.15c-1.09-3.23-2.66-6.4-3-9.71-.19-1.6,1.84-3.46,2.87-5.21,1.59,1.18,3.75,2,4.62,3.63,1.12,2.06,1.22,4.68,1.16,7.23l-4.78-7.76c-3.59,5.85,1,9.32,2.06,14L389.21,147Z" fill="#fff"/><path d="M274.29,41.25c.87.18,2,.77,2.59.46,3.6-1.78,6.3-.37,8.36,1.57l-14.66,2,3.86-4Z" fill="#fff"/><path d="M37.84,243.74l-3.15-3.53-.58,3.21-.74,0-.51-7,1.64-.46,4.12,7.22Z" fill="#fff"/><path d="M123.13,235.68c3.16,3.71,5.51,6.45,3.2,10.06-.72,1.13-3,1.26-5,1.16C130.09,244.91,123.55,240.37,123.13,235.68Z" fill="#ccc"/><path d="M406.53,226.06c-.72-1.64-1.35-3.32-2.17-4.91a18.44,18.44,0,0,1-1-14.82l-2.32,4.54c-1.17-6.8.83-9.26,7.12-8.51,2.53.3,4.95,1.57,7.42,2.4a5.19,5.19,0,0,0,.26.48l.67,2.1-1.15-.34c1.69,6.22,4,12.75,5.11,19.47.74,4.43-1.71,5.66-5.86,3.67-5.72-2.74-7.48-8.25-8.81-13.76-1.18-4.91,1.63-7.31,6.59-6.1,2.58,4.91,4.63,9.93,3.38,15.95-4.14-2.57-6.49-7.61-5.25-10.54.28-.66.57-1.31.86-2-.57-.21-1.45-.76-1.66-.57-.57.5-1.34,1.52-1.16,2a119.68,119.68,0,0,0,5,11.47c.16.31,3.53-.15,3.9-1,1.61-3.47-1.83-12.92-5.18-15.29-1.66-.59-4-2.15-4.85-1.57-1.51,1-3.23,3.6-2.9,5.1,1.05,4.74,3,9.29,4.62,13.91Z" fill="#fff"/><path d="M416.53,207.33l-.67-2.1c5.87,3.8,8,9.78,9.14,16.2a38.8,38.8,0,0,1,.27,7.92c-.23,7.33-4,9.51-10.48,5.72-3.32-1.95-6.19-4.67-9.27-7q0-.41,0-.81l1-1.17,2.66,1.75,3.13,3.45,9.5,3.68c.81-3.07,2.45-6.2,2.26-9.21-.42-6.93-1.9-13.74-7.75-18.55Z" fill="#ccc"/><path d="M354,25.23c-.8,7.42,4.18,12.44,7.53,18.14-5.73-3.53-7.89-9.36-9.57-15.38C351.76,27.31,353.26,26.16,354,25.23Z" fill="#ccc"/><path d="M359.4,26.3c3.9-2.57,7.85-1.76,9.35,2.48a14.71,14.71,0,0,1,.54,8.21c-.36,1.37-3.38,2.93-5.13,2.85-3.08-.14-8.17-7.49-7.59-10.61.22-1.19,2-2.09,3-3.12-1.81,4.1-.36,9.63,3.27,11.74,2.8,1.62,4.81.9,5.39-2.5C369.29,29.31,365.63,25.59,359.4,26.3Z" fill="#ccc"/><path d="M412.32,231.26l-3.13-3.45c-1.61-4.62-3.56-9.16-4.62-13.91-.33-1.49,1.39-4.08,2.9-5.1.87-.59,3.18,1,4.85,1.57l.09-.1c-5-1.21-7.77,1.19-6.59,6.1,1.33,5.51,3.09,11,8.81,13.76,4.15,2,6.59.75,5.86-3.67-1.12-6.72-3.42-13.24-5.11-19.47l1.15.34-.19-.15c1.82,4.93,4.09,9.74,5.35,14.81C424.07,231.6,421.56,233.88,412.32,231.26Z" fill="#ccc"/><path d="M412.32,210.37c3.34,2.37,6.79,11.82,5.18,15.29-.37.8-3.74,1.27-3.9,1a119.68,119.68,0,0,1-5-11.47c-.18-.47.59-1.49,1.16-2,.22-.19,1.09.36,1.66.57-.29.65-.58,1.3-.86,2-1.24,2.92,1.11,8,5.25,10.54,1.25-6-.79-11-3.38-15.95Z" fill="#ccc"/><path d="M412.32,231.26c9.24,2.63,11.75.34,9.36-9.27-1.26-5.07-3.53-9.88-5.35-14.81,5.85,4.81,7.33,11.62,7.75,18.55.18,3-1.45,6.14-2.26,9.21Z" fill="#fff"/><path d="M359.4,26.3c6.23-.71,9.89,3,8.85,9-.58,3.4-2.6,4.13-5.39,2.5-3.63-2.11-5.08-7.64-3.27-11.74Z" fill="#fff"/></g></g></svg>