<svg xmlns="http://www.w3.org/2000/svg" viewBox="0 0 832.88 118.81"><title>Asset 1@2x</title><g id="Layer_2" data-name="Layer 2"><g id="Layer_1-2" data-name="Layer 1"><path d="M31.52,59.8H22.15A19.74,19.74,0,0,1,2.46,40.11h0A19.74,19.74,0,0,1,22.15,20.43h9.37" fill="none" stroke="#231f20" stroke-linecap="round" stroke-miterlimit="10" stroke-width="4.92"/><path d="M22.15,59.8h9.37A19.74,19.74,0,0,1,51.21,79.49h0A19.74,19.74,0,0,1,31.52,99.17H22.15" fill="none" stroke="#231f20" stroke-linecap="round" stroke-miterlimit="10" stroke-width="4.92"/><circle cx="31.52" cy="20.43" r="5.03" fill="#231f20"/><circle cx="24.46" cy="59.8" r="5.03" fill="#231f20"/><circle cx="14.55" cy="98.35" r="7.09" fill="none" stroke="#231f20" stroke-miterlimit="10" stroke-width="4.92"/><circle cx="614.76" cy="95.95" r="10.27" fill="none" stroke="#231f20" stroke-miterlimit="10" stroke-width="7.13"/><path d="M668.44,55.82H628.65a19.39,19.39,0,0,1-19.39-19.39V34.68a19.39,19.39,0,0,1,19.39-19.39h40.77" fill="none" stroke="#231f20" stroke-linecap="round" stroke-miterlimit="10" stroke-width="8"/><path d="M610.68,96.35" fill="none" stroke="#231f20" stroke-miterlimit="10" stroke-width="4.7"/><path d="M650.66,55.82h19.79A19.39,19.39,0,0,1,689.84,75.2V77a19.39,19.39,0,0,1-19.39,19.39H625" fill="none" stroke="#231f20" stroke-miterlimit="10" stroke-width="4.7"/><path d="M337,0c-14.91.84-32.09,4.89-44.13,14.2-9.21,7.12-15.37,20.4-9.21,31.47,6.5,11.69,21.88,13,33.7,11.26,13.15-2,26-7.73,37.76-13.8,2.86-1.48.33-5.79-2.52-4.32a146.55,146.55,0,0,1-29,11.67c-10.57,2.84-25.11,4.35-33.43-4.37-9.64-10.11-.46-24.44,9.14-30.31,11-6.71,25-10.1,37.7-10.82,3.2-.18,3.22-5.18,0-5Z" fill="#231f20"/><path d="M286.77,48.74c13.65,6.83,28.18,2,41.82-2.21,13.93-4.27,35.68-7,42.54,10.15C377.57,72.83,360.54,85.8,346.84,89c-17.14,4-34.68-.4-51.92-1.08-6.86-.27-15.23,0-20.08,5.69-3.8,4.43-4.13,10.76-.08,15,2.27,2.41,5.9-1.23,3.63-3.63-4.07-4.31.83-9.57,5-11,4-1.34,8.34-1.13,12.46-.94,9.14.42,18.2,1.81,27.32,2.4,14.41.93,30.58-.22,42.35-9.54,9.17-7.26,15-20.24,10.16-31.6-5-11.82-18.81-17.23-31-16.48C326.65,39,307.3,53.28,289.36,44.3c-2.95-1.47-5.55,3-2.59,4.43Z" fill="#231f20"/><circle cx="282.1" cy="96.99" r="10.27" fill="#fff" stroke="#231f20" stroke-miterlimit="10" stroke-width="7.13"/><path d="M184.85,4c-19.55,1.1-59.69,11.17-54.13,38.66,2.34,11.59,14.43,16.27,25.07,16.42,14.19.2,28.46-4,41-10.4,1.43-.73.17-2.89-1.26-2.16A91.22,91.22,0,0,1,162,56.36c-11.21,1-26.83-1.31-28.95-14.9C129.14,16.3,166.77,7.54,184.85,6.53c1.6-.09,1.61-2.59,0-2.5Z" fill="#231f20"/><path d="M133.36,53.57c13.5,7.07,27.76,1.49,41.19-2.74,7.91-2.49,16.29-4.46,24.45-1.95,7.11,2.19,13.42,7.49,15.11,15C217.75,80,201.81,91.62,188,94.41c-16.14,3.25-32.43-1.27-48.61-1.57-6.23-.12-13.5.72-17.6,6-3.46,4.45-3.69,10.46.11,14.7,2.15,2.4,5.68-1.14,3.54-3.54-3.41-3.8,0-8.81,3.71-10.62s8-1.65,11.94-1.49c8.68.34,17.27,1.7,25.92,2.33,13.59,1,28.51,0,39.82-8.46,9.54-7.13,15.6-20.3,11.3-32-4.15-11.26-16.55-17.37-28-17.08-17.81.44-36.64,15.76-54.16,6.58-2.85-1.49-5.38,2.82-2.52,4.32Z" fill="#231f20"/><circle cx="125.82" cy="104.98" r="10.27" fill="#fff" stroke="#231f20" stroke-miterlimit="10" stroke-width="7.13"/><path d="M156.4,8.48c-14.59,5.12-32.1,16-29,34.18,3.36,19.55,27.24,19.16,42.18,16.5,3.16-.56,1.82-5.38-1.33-4.82-12.13,2.16-34.59,3.47-36.1-13.81-1.3-14.87,13.69-23.06,25.56-27.23,3-1.06,1.72-5.89-1.33-4.82Z" fill="#231f20"/><circle cx="184.62" cy="5.01" r="2.77" fill="#231f20"/><circle cx="194.4" cy="48.78" r="2.77" fill="#231f20"/><path d="M497.39,3.14C482.48,4,465.3,8,453.26,17.35,444,24.47,437.88,37.74,444,48.82c6.5,11.69,21.88,13,33.7,11.26,13.15-2,26-7.73,37.76-13.8,2.86-1.48.33-5.79-2.52-4.32a146.55,146.55,0,0,1-29,11.67c-10.57,2.84-25.11,4.35-33.43-4.37-9.64-10.11-.46-24.44,9.14-30.31,11-6.71,25-10.1,37.7-10.82,3.2-.18,3.22-5.18,0-5Z" fill="#231f20"/><path d="M447.18,51.87c13.65,6.83,28.18,2,41.82-2.21,13.93-4.27,38.68-7,45.54,10.15C541,76,521,88.94,507.25,92.15c-17.14,4-34.68-.4-51.92-1.08-6.86-.27-15.23,0-20.08,5.69-3.8,4.43-4.13,10.76-.08,15,2.27,2.41,5.9-1.23,3.63-3.63-4.07-4.31.83-9.57,5-11,4-1.34,8.34-1.13,12.46-.94,9.14.42,18.2,1.81,27.32,2.4,14.41.93,30.58-.22,42.35-9.54,9.17-7.26,15-20.24,10.16-31.6-5-11.82-18.81-17.23-31-16.48-18.12,1.12-36.67,19.28-54.61,10.3-2.95-1.47-6.34-.93-3.38.55Z" fill="#231f20"/><circle cx="442.51" cy="100.13" r="10.27" fill="#fff" stroke="#231f20" stroke-miterlimit="10" stroke-width="7.13"/><path d="M807,55.82H778.19A19.39,19.39,0,0,1,758.8,36.43V34.68a19.39,19.39,0,0,1,19.39-19.39H813" fill="none" stroke="#231f20" stroke-linecap="round" stroke-miterlimit="10" stroke-width="10"/><path d="M760.22,96.35" fill="none" stroke="#231f20" stroke-miterlimit="10" stroke-width="4.7"/><path d="M768.7,96.35H808.5A19.39,19.39,0,0,0,827.88,77V75.2A19.39,19.39,0,0,0,808.5,55.82H780.72" fill="none" stroke="#231f20" stroke-linecap="round" stroke-miterlimit="10" stroke-width="10"/><circle cx="764.31" cy="95.95" r="10.27" fill="#fff" stroke="#231f20" stroke-miterlimit="10" stroke-width="7.13"/></g></g></svg>