<svg xmlns="http://www.w3.org/2000/svg" viewBox="0 0 93.33 126.1"><title>Asset 1@2x</title><g id="Layer_2" data-name="Layer 2"><g id="Layer_1-2" data-name="Layer 1"><rect x="44.63" width="4.37" height="126" rx="1.9" ry="1.9" fill="#231f20"/><rect x="43.77" y="112.89" width="6.08" height="20.33" rx="2.24" ry="2.24" transform="translate(-76.25 169.88) rotate(-90)" fill="#231f20"/><path d="M11.61,51.15h56a3.67,3.67,0,0,0,3.67-3.67V37.84a3.34,3.34,0,0,0-3.34-3.34H11.6a4.79,4.79,0,0,0-3.06,1.11L2.44,40.68a2.79,2.79,0,0,0,0,4.29L8.53,50A4.81,4.81,0,0,0,11.61,51.15Z" fill="#fff" stroke="#231f20" stroke-miterlimit="10" stroke-width="2.87"/><path d="M81.72,27.31h-56a3.67,3.67,0,0,1-3.67-3.67V14a3.34,3.34,0,0,1,3.34-3.34H81.73a4.79,4.79,0,0,1,3.06,1.11l6.09,5.07a2.79,2.79,0,0,1,0,4.29L84.8,26.2A4.81,4.81,0,0,1,81.72,27.31Z" fill="#fff" stroke="#231f20" stroke-miterlimit="10" stroke-width="2.87"/></g></g></svg>