<svg xmlns="http://www.w3.org/2000/svg" viewBox="0 0 80.87 66.14"><title>Asset 1@2x</title><g id="Layer_2" data-name="Layer 2"><g id="Layer_1-2" data-name="Layer 1"><circle cx="71.36" cy="2.15" r="2.15" fill="#231f20"/><path d="M70.15,14.84H59.21A5.2,5.2,0,0,1,54,9.65V9a5.2,5.2,0,0,1,5.19-5.19h8.68a3.06,3.06,0,0,1,.2-3.61H59.21A8.81,8.81,0,0,0,50.41,9v.63a8.81,8.81,0,0,0,8.8,8.8H70.15a5.2,5.2,0,0,1,5.19,5.19v.63a5.2,5.2,0,0,1-5.19,5.19H58.9a5,5,0,1,0-.11,3.61H70.15a8.81,8.81,0,0,0,8.8-8.8v-.63A8.81,8.81,0,0,0,70.15,14.84ZM55.37,33.24l-.08,0L55,33.4l-.19.06-.2.05a2.33,2.33,0,0,1-.44,0h0a2.42,2.42,0,0,1,0-4.84h0a2.43,2.43,0,0,1,.5.05h0a2.41,2.41,0,0,1,.62,4.46Z" fill="#231f20"/><path d="M0,59.3a1.05,1.05,0,0,1,.79-.93,4.68,4.68,0,0,0,4.28,2.38c2.1,0,3.4-1,3.4-2.6,0-1.83-1.76-2.27-3.77-2.76-2.18-.55-4.34-1.28-4.34-4,0-2.34,2-4,4.81-4a5.86,5.86,0,0,1,3.95,1.28,1.9,1.9,0,0,1,.68,1.26,1.07,1.07,0,0,1-.82.95,4.25,4.25,0,0,0-3.82-2.09c-1.87,0-3.2,1-3.2,2.54,0,1.74,1.5,2.1,3.55,2.6,2.32.55,4.59,1.41,4.59,4.15,0,2.49-2,4.08-5,4.08a6.2,6.2,0,0,1-4.41-1.5A2.07,2.07,0,0,1,0,59.3Z" fill="#231f20"/><path d="M14.16,65.7,16,61.31a.76.76,0,0,1-.79-.51l-3.82-9c0-.13.37-.49.86-.49s.75.26,1,.95l3.22,8,2.84-8c.24-.82.68-1,1.08-1s.79.33.77.44L16,65.19c-.24.75-.62.95-1,.95S14.13,65.81,14.16,65.7Z" fill="#231f20"/><path d="M38.87,55.58v5.65c0,.57-.29.75-.71.75H38c-.42,0-.71-.18-.71-.75V55.71c0-2-.9-3.15-2.65-3.15a3.2,3.2,0,0,0-2.93,2.09v6.57c0,.57-.31.75-.71.75h-.18c-.42,0-.71-.18-.71-.75V55.58c0-1.92-.88-3-2.65-3a3.29,3.29,0,0,0-3,2.09v6.57c0,.57-.29.75-.68.75h-.2c-.4,0-.71-.18-.71-.75V51.47a.82.82,0,0,1,.57-.18c.49,0,.93.24,1,1.3l0,.53a3.84,3.84,0,0,1,3.33-2,3.44,3.44,0,0,1,3.48,2.34A3.93,3.93,0,0,1,35,51.14C37.55,51.14,38.87,52.8,38.87,55.58Z" fill="#231f20"/><path d="M59.79,55.73H60v-.44a2.55,2.55,0,0,0-2.84-2.78A3.36,3.36,0,0,0,54,54.38s-1,0-1-.82a1.84,1.84,0,0,1,.64-1.17,5.16,5.16,0,0,1,3.64-1.26c2.8,0,4.32,1.57,4.32,4.17v6.51c0,.07-.29.18-.57.18-.46,0-.84-.22-.93-1,0-.31,0-.64,0-1a4.33,4.33,0,0,1-3.9,2.12c-2.21,0-3.57-1.15-3.57-2.93C52.58,56.81,54.83,55.8,59.79,55.73Zm.24,1-.37,0c-3.84.09-5.49.75-5.49,2.36,0,1.1.88,1.79,2.29,1.79A3.32,3.32,0,0,0,60,57.78Z" fill="#231f20"/><path d="M64.66,58.84V52.73h-1c-.51,0-.68-.22-.68-.6V52c0-.37.18-.6.68-.6h1V49.53c0-.55.29-.77.71-.77h.18c.42,0,.68.2.68.77v1.85H68.9c.49,0,.68.2.68.6v.13c0,.4-.2.62-.71.62H66.2V58.6c0,1.54.46,2.21,1.57,2.21A1.83,1.83,0,0,0,69.34,60c.07,0,.44.18.44.73a1.1,1.1,0,0,1-.4.82,2.59,2.59,0,0,1-1.83.62C65.61,62.15,64.66,61.07,64.66,58.84Z" fill="#231f20"/><path d="M80.87,55.73v5.49c0,.57-.29.75-.68.75H80c-.42,0-.71-.18-.71-.75V55.84c0-2-1-3.26-2.78-3.26a3.1,3.1,0,0,0-3.24,3.24v5.4c0,.57-.29.75-.68.75h-.2c-.42,0-.71-.18-.71-.75V47c0-.07.26-.18.57-.18.51,0,1,.26,1,1.41v5a3.84,3.84,0,0,1,3.55-2.16C79.55,51.14,80.87,53,80.87,55.73Z" fill="#231f20"/><path d="M46.1,47.64H42.49a.89.89,0,0,0-.9,1V61.22a.65.65,0,0,0,.71.75h.22a.68.68,0,0,0,.73-.75V49h2.84c2.38,0,3.62,1.06,3.62,3s-1.24,3.07-3.64,3.07h-2v1.37H46c3.53,0,5.36-1.59,5.36-4.48S49.48,47.64,46.1,47.64Z" fill="#231f20"/></g></g></svg>