<svg width="375" height="812" viewBox="0 0 375 812" fill="none" xmlns="http://www.w3.org/2000/svg">
<g clip-path="url(#clip0)">
<rect width="375" height="812" fill="white"/>
<g filter="url(#filter0_bd)">
<path fill-rule="evenodd" clip-rule="evenodd" d="M0 0H375V88H0V0Z" fill="#F8F8F8"/>
</g>
<path d="M359.625 64.25H357.838C357.7 63.975 357.562 63.7 357.562 63.425L358.8 62.1875C359.35 61.6375 359.35 60.8125 358.8 60.2625L356.875 58.3375C356.325 57.7875 355.5 57.7875 354.95 58.3375L353.713 59.575C353.438 59.4375 353.162 59.3 352.887 59.3V57.375C352.887 56.55 352.337 56 351.512 56H348.762C347.937 56 347.387 56.55 347.387 57.375V59.1625C347.112 59.3 346.838 59.4375 346.562 59.4375L345.325 58.2C344.775 57.65 343.95 57.65 343.4 58.2L341.475 60.125C340.925 60.675 340.925 61.5 341.475 62.05L342.713 63.2875C342.575 63.5625 342.438 63.8375 342.438 64.1125H340.375C339.55 64.1125 339 64.6625 339 65.4875V68.2375C339 69.0625 339.55 69.6125 340.375 69.6125H342.162C342.3 69.8875 342.438 70.1625 342.438 70.4375L341.2 71.675C340.65 72.225 340.65 73.05 341.2 73.6L343.125 75.525C343.675 76.075 344.5 76.075 345.05 75.525L346.287 74.2875C346.562 74.425 346.838 74.5625 347.113 74.5625V76.625C347.113 77.45 347.663 78 348.488 78H351.238C352.063 78 352.613 77.45 352.613 76.625V74.8375C352.888 74.7 353.163 74.5625 353.438 74.5625L354.675 75.8C355.225 76.35 356.05 76.35 356.6 75.8L358.525 73.875C359.075 73.325 359.075 72.5 358.525 71.95L357.287 70.7125C357.425 70.4375 357.562 70.1625 357.562 69.8875H359.625C360.45 69.8875 361 69.3375 361 68.5125V65.7625C361 64.8 360.45 64.25 359.625 64.25ZM359.625 67.6875C359.625 68.1 359.35 68.375 358.938 68.375H356.738C356.6 69.2 356.188 70.025 355.775 70.85L356.738 71.8125L357.287 72.3625C357.562 72.6375 357.562 73.05 357.287 73.325L356.325 74.2875C356.05 74.5625 355.638 74.5625 355.363 74.2875L354.812 73.7375L353.85 72.775C353.162 73.1875 352.337 73.6 351.375 73.7375V75.9375C351.375 76.35 351.1 76.625 350.688 76.625H349.312C348.9 76.625 348.625 76.35 348.625 75.9375V73.7375C347.8 73.6 346.975 73.1875 346.15 72.775L345.05 73.875L344.637 74.2875C344.362 74.5625 343.95 74.5625 343.675 74.2875L342.713 73.325C342.438 73.05 342.438 72.6375 342.713 72.3625L343.263 71.8125L344.225 70.85C343.812 70.1625 343.4 69.3375 343.263 68.375H341.062C340.65 68.375 340.375 68.1 340.375 67.6875V66.3125C340.375 65.9 340.65 65.625 341.062 65.625H343.263C343.4 64.8 343.812 63.975 344.225 63.15L343.263 62.1875L342.713 61.6375C342.438 61.3625 342.438 60.95 342.713 60.675L343.675 59.7125C343.95 59.4375 344.362 59.4375 344.637 59.7125L345.188 60.2625L346.15 61.225C346.838 60.8125 347.663 60.4 348.625 60.2625V58.0625C348.625 57.65 348.9 57.375 349.312 57.375H350.688C351.1 57.375 351.375 57.65 351.375 58.0625V60.2625C352.2 60.4 353.025 60.8125 353.85 61.225L354.812 60.2625L355.363 59.7125C355.638 59.4375 356.05 59.4375 356.325 59.7125L357.287 60.675C357.562 60.95 357.562 61.3625 357.287 61.6375L356.738 62.1875L355.775 63.15C356.188 63.8375 356.6 64.6625 356.738 65.625H358.938C359.35 65.625 359.625 65.9 359.625 66.3125V67.6875ZM350 63.15C347.938 63.15 346.15 64.8 346.15 67C346.15 69.0625 347.8 70.85 350 70.85C352.062 70.85 353.85 69.2 353.85 67C353.712 64.9375 352.062 63.15 350 63.15Z" fill="#C4C4C4"/>
<path d="M349 79C356.18 79 362 73.1797 362 66C362 58.8203 356.18 53 349 53C341.82 53 336 58.8203 336 66C336 73.1797 341.82 79 349 79Z" fill="#EBEBEC"/>
<g opacity="0.1">
<path d="M355.43 61.9459C355.011 61.5265 354.312 61.5265 353.893 61.9459L346.903 68.9351L343.548 65.4405C343.129 65.0211 342.43 65.0211 342.011 65.4405C341.591 65.8598 341.591 66.5588 342.011 66.9781L346.204 71.1717C346.624 71.591 347.323 71.591 347.742 71.1717L355.43 63.4835C355.85 63.0641 355.85 62.3652 355.43 61.9459Z" fill="#010101"/>
</g>
<path d="M132.569 73.2988C135.333 73.2988 137.359 71.647 137.641 69.1982H135.533C135.242 70.543 134.088 71.3896 132.569 71.3896C130.527 71.3896 129.257 69.7129 129.257 67.0068C129.257 64.3091 130.527 62.6323 132.561 62.6323C134.072 62.6323 135.225 63.562 135.524 64.998H137.633C137.384 62.4995 135.283 60.7231 132.561 60.7231C129.166 60.7231 127.066 63.1221 127.066 67.0151C127.066 70.8916 129.174 73.2988 132.569 73.2988ZM139.422 73H141.473V63.9189H139.422V73ZM140.443 62.4414C141.199 62.4414 141.713 61.96 141.713 61.3042C141.713 60.6484 141.199 60.167 140.443 60.167C139.696 60.167 139.173 60.6484 139.173 61.3042C139.173 61.96 139.696 62.4414 140.443 62.4414ZM143.619 73H145.678V67.7124C145.678 66.376 146.45 65.5293 147.678 65.5293C148.932 65.5293 149.513 66.2266 149.513 67.6128V73H151.571V67.123C151.571 64.9565 150.467 63.7363 148.442 63.7363C147.089 63.7363 146.176 64.3589 145.744 65.3716H145.603V63.9189H143.619V73ZM156.889 73.1494C158.151 73.1494 159.197 72.5601 159.711 71.564H159.852V73H161.845V60.4077H159.786V65.3633H159.645C159.163 64.3672 158.134 63.7695 156.889 63.7695C154.598 63.7695 153.154 65.5791 153.154 68.4512C153.154 71.3398 154.59 73.1494 156.889 73.1494ZM157.528 65.521C158.939 65.521 159.811 66.6499 159.811 68.4595C159.811 70.2856 158.948 71.3979 157.528 71.3979C156.117 71.3979 155.262 70.2939 155.262 68.4595C155.262 66.6333 156.125 65.521 157.528 65.521ZM165.029 76.2954C167.062 76.2954 168.034 75.5483 168.806 73.2905L172.084 63.9189H169.91L167.793 71.0078H167.652L165.527 63.9189H163.269L166.515 73.0415L166.407 73.4399C166.141 74.2783 165.651 74.6104 164.78 74.6104C164.639 74.6104 164.331 74.6021 164.215 74.5771V76.2622C164.348 76.2871 164.904 76.2954 165.029 76.2954ZM174.986 65.8779L176.422 61.022H174.314L173.542 65.8779H174.986ZM177.15 66.5171C177.15 67.8867 177.971 68.6919 179.715 69.0903L181.325 69.4639C182.188 69.6548 182.578 69.9785 182.578 70.4932C182.578 71.1655 181.856 71.6221 180.819 71.6221C179.789 71.6221 179.15 71.2236 178.951 70.5513H176.917C177.075 72.2031 178.503 73.1826 180.769 73.1826C183.035 73.1826 184.637 72.0205 184.637 70.2773C184.637 68.9409 183.832 68.1938 182.097 67.8037L180.495 67.4385C179.582 67.231 179.15 66.9155 179.15 66.4009C179.15 65.7451 179.856 65.2969 180.794 65.2969C181.757 65.2969 182.363 65.7036 182.512 66.3428H184.446C184.297 64.6909 182.944 63.7363 180.785 63.7363C178.644 63.7363 177.15 64.8735 177.15 66.5171ZM189.827 69.7378C189.827 71.9043 191.371 73.2988 193.662 73.2988C196.069 73.2988 197.522 71.8877 197.522 69.4224V61.022H195.38V69.4058C195.38 70.6924 194.757 71.373 193.637 71.373C192.616 71.373 191.935 70.7256 191.919 69.7378H189.827ZM203.636 73.1826C206.35 73.1826 208.002 71.4062 208.002 68.4595C208.002 65.521 206.342 63.7363 203.636 63.7363C200.938 63.7363 199.27 65.5293 199.27 68.4595C199.27 71.4062 200.913 73.1826 203.636 73.1826ZM203.636 71.4561C202.2 71.4561 201.378 70.3604 201.378 68.4595C201.378 66.5669 202.2 65.4629 203.636 65.4629C205.064 65.4629 205.885 66.5669 205.885 68.4595C205.885 70.3604 205.072 71.4561 203.636 71.4561ZM217.57 63.9189H215.511V69.2065C215.511 70.5513 214.781 71.373 213.444 71.373C212.216 71.373 211.643 70.6924 211.643 69.3062V63.9189H209.584V69.8208C209.584 71.9458 210.746 73.1826 212.73 73.1826C214.117 73.1826 215.005 72.5933 215.445 71.5557H215.586V73H217.57V63.9189ZM219.683 73H221.742V67.7539C221.742 66.4839 222.671 65.6538 224.008 65.6538C224.357 65.6538 224.904 65.7119 225.062 65.77V63.8608C224.871 63.8027 224.506 63.7695 224.207 63.7695C223.037 63.7695 222.057 64.4336 221.808 65.3301H221.667V63.9189H219.683V73ZM226.462 73H228.52V67.7124C228.52 66.376 229.292 65.5293 230.521 65.5293C231.774 65.5293 232.355 66.2266 232.355 67.6128V73H234.414V67.123C234.414 64.9565 233.31 63.7363 231.284 63.7363C229.931 63.7363 229.018 64.3589 228.587 65.3716H228.446V63.9189H226.462V73ZM239.549 71.5308C238.636 71.5308 237.98 71.0742 237.98 70.3105C237.98 69.5718 238.519 69.1567 239.673 69.082L241.724 68.9492V69.6714C241.724 70.7256 240.794 71.5308 239.549 71.5308ZM238.943 73.1494C240.13 73.1494 241.126 72.6348 241.632 71.7549H241.773V73H243.757V66.7993C243.757 64.8735 242.446 63.7363 240.113 63.7363C237.955 63.7363 236.453 64.7573 236.286 66.3594H238.229C238.42 65.7451 239.067 65.4131 240.014 65.4131C241.126 65.4131 241.724 65.9111 241.724 66.7993V67.563L239.383 67.7041C237.175 67.8369 235.938 68.7832 235.938 70.4268C235.938 72.0869 237.191 73.1494 238.943 73.1494ZM245.912 73H247.971V60.4077H245.912V73Z" fill="black"/>
<path d="M33.2007 72C35.749 72 37.2598 70.7466 37.2598 68.6382C37.2598 67.0527 36.2222 65.9321 34.5869 65.7246V65.5918C35.7407 65.3843 36.6538 64.2554 36.6538 63.0103C36.6538 61.1758 35.3091 60.022 33.1094 60.022H28.5273V72H33.2007ZM30.0215 61.3418H32.7939C34.2798 61.3418 35.1431 62.0474 35.1431 63.2676C35.1431 64.5376 34.2217 65.1851 32.4121 65.1851H30.0215V61.3418ZM30.0215 70.6802V66.4717H32.8354C34.7446 66.4717 35.7241 67.1772 35.7241 68.5635C35.7241 69.9497 34.7778 70.6802 32.9766 70.6802H30.0215ZM41.8634 70.9043C40.8258 70.9043 40.0539 70.373 40.0539 69.46C40.0539 68.5635 40.6515 68.0903 42.0129 67.999L44.4201 67.8413V68.6631C44.4201 69.9414 43.3327 70.9043 41.8634 70.9043ZM41.5978 72.1577C42.7931 72.1577 43.7726 71.6348 44.3537 70.6802H44.4865V72H45.8478V65.874C45.8478 64.0146 44.6276 62.894 42.4445 62.894C40.5353 62.894 39.1242 63.8403 38.9333 65.2764H40.3776C40.5768 64.5708 41.3239 64.1641 42.3947 64.1641C43.7311 64.1641 44.4201 64.77 44.4201 65.874V66.6875L41.8385 66.8452C39.755 66.9697 38.5763 67.8911 38.5763 69.4932C38.5763 71.1284 39.8629 72.1577 41.5978 72.1577ZM55.4818 65.791C55.2327 64.1973 53.9046 62.894 51.7298 62.894C49.223 62.894 47.6292 64.7036 47.6292 67.4927C47.6292 70.3398 49.2313 72.1577 51.7381 72.1577C53.888 72.1577 55.2244 70.9458 55.4818 69.3022H54.0374C53.7718 70.3149 52.9334 70.8711 51.7298 70.8711C50.1361 70.8711 49.1068 69.5596 49.1068 67.4927C49.1068 65.4673 50.1195 64.1807 51.7298 64.1807C53.0164 64.1807 53.805 64.9028 54.0374 65.791H55.4818ZM58.8237 66.9614H58.6909V59.499H57.2632V72H58.6909V68.605L59.5459 67.8081L62.8994 72H64.7173L60.6084 66.8867L64.4599 63.0518H62.7085L58.8237 66.9614Z" fill="#007AFF"/>
<mask id="mask0" mask-type="alpha" maskUnits="userSpaceOnUse" x="8" y="55" width="13" height="22">
<path fill-rule="evenodd" clip-rule="evenodd" d="M18.3308 55.9855L8.96694 64.9755C8.4394 65.4812 8.4394 66.3255 8.96694 66.8333L18.3308 75.8212C18.905 76.3726 19.8116 76.3726 20.3859 75.8212C20.9934 75.2375 20.9934 74.2656 20.3859 73.6809L12.5434 66.1521C12.4011 66.016 12.4011 65.7907 12.5434 65.6546L20.3859 58.1258C20.9934 57.5422 20.9934 56.5702 20.3859 55.9855C20.0982 55.7114 19.7285 55.5732 19.3588 55.5732C18.9881 55.5732 18.6184 55.7114 18.3308 55.9855Z" fill="white"/>
</mask>
<g mask="url(#mask0)">
<path fill-rule="evenodd" clip-rule="evenodd" d="M18.3308 55.9855L8.96694 64.9755C8.4394 65.4812 8.4394 66.3255 8.96694 66.8333L18.3308 75.8212C18.905 76.3726 19.8116 76.3726 20.3859 75.8212C20.9934 75.2375 20.9934 74.2656 20.3859 73.6809L12.5434 66.1521C12.4011 66.016 12.4011 65.7907 12.5434 65.6546L20.3859 58.1258C20.9934 57.5422 20.9934 56.5702 20.3859 55.9855C20.0982 55.7114 19.7285 55.5732 19.3588 55.5732C18.9881 55.5732 18.6184 55.7114 18.3308 55.9855Z" fill="#007AFF"/>
</g>
<path opacity="0.35" d="M336.5 20.0002C336.5 18.8035 337.47 17.8335 338.667 17.8335H355.333C356.53 17.8335 357.5 18.8035 357.5 20.0002V26.0002C357.5 27.1968 356.53 28.1668 355.333 28.1668H338.667C337.47 28.1668 336.5 27.1968 336.5 26.0002V20.0002Z" stroke="black"/>
<path opacity="0.4" d="M359 21V25C359.805 24.6612 360.328 23.8731 360.328 23C360.328 22.1269 359.805 21.3388 359 21Z" fill="black"/>
<path d="M338 20.6668C338 19.9305 338.597 19.3335 339.333 19.3335H354.667C355.403 19.3335 356 19.9304 356 20.6668V25.3335C356 26.0699 355.403 26.6668 354.667 26.6668H339.333C338.597 26.6668 338 26.0699 338 25.3335V20.6668Z" fill="black"/>
<path fill-rule="evenodd" clip-rule="evenodd" d="M323.331 19.6078C325.546 19.6078 327.678 20.4594 329.284 21.9862C329.404 22.1039 329.598 22.1024 329.717 21.9828L330.873 20.8163C330.903 20.7855 330.927 20.7494 330.943 20.7103C330.959 20.6718 330.966 20.6302 330.966 20.5878C330.966 20.5018 330.931 20.4203 330.87 20.3602C326.655 16.3207 320.005 16.3207 315.79 20.3602C315.763 20.3871 315.741 20.4183 315.725 20.4525C315.705 20.4945 315.694 20.5404 315.694 20.5873C315.693 20.6732 315.727 20.7552 315.787 20.8163L316.943 21.9828C317.063 22.1029 317.256 22.1044 317.377 21.9862C318.983 20.4594 321.114 19.6078 323.331 19.6078ZM323.33 23.4032C324.548 23.4032 325.722 23.8558 326.624 24.6732C326.746 24.7889 326.938 24.7865 327.058 24.6674L328.212 23.5009C328.242 23.4711 328.265 23.4364 328.28 23.3993C328.297 23.3588 328.307 23.3148 328.306 23.2704C328.305 23.184 328.27 23.1014 328.208 23.0419C325.459 20.4852 321.204 20.4852 318.455 23.0419C318.431 23.0653 318.41 23.0927 318.395 23.1224C318.371 23.1674 318.357 23.2181 318.357 23.2704C318.356 23.3563 318.39 23.4393 318.451 23.5009L319.605 24.6674C319.724 24.7865 319.917 24.7889 320.039 24.6732C320.94 23.8563 322.114 23.4037 323.33 23.4032ZM325.644 25.9574C325.645 26.0438 325.611 26.1273 325.549 26.1879L323.552 28.2035C323.494 28.2631 323.414 28.2963 323.331 28.2963C323.247 28.2963 323.167 28.2631 323.109 28.2035L321.111 26.1879C321.049 26.1273 321.015 26.0438 321.017 25.9574C321.019 25.871 321.057 25.7889 321.121 25.7308C322.396 24.6522 324.265 24.6522 325.54 25.7308C325.604 25.7889 325.642 25.871 325.644 25.9574Z" fill="black"/>
<path fill-rule="evenodd" clip-rule="evenodd" d="M309.667 17.6665H308.667C308.376 17.6665 308.115 17.79 307.933 17.9873C307.768 18.1655 307.667 18.4043 307.667 18.6665V27.333C307.667 27.8853 308.114 28.333 308.667 28.333H309.667C310.219 28.333 310.667 27.8853 310.667 27.333V18.6665C310.667 18.1143 310.219 17.6665 309.667 17.6665ZM304 20H305C305.552 20 306 20.4478 306 21V27.3335C306 27.8857 305.552 28.3335 305 28.3335H304C303.448 28.3335 303 27.8857 303 27.3335V21C303 20.4478 303.448 20 304 20ZM300.333 22.333H299.333C298.781 22.333 298.333 22.7808 298.333 23.333V27.333C298.333 27.8853 298.781 28.333 299.333 28.333H300.333C300.475 28.333 300.61 28.3032 300.733 28.25C300.863 28.1934 300.979 28.1094 301.073 28.0059C301.11 27.9653 301.144 27.9214 301.174 27.875C301.274 27.7188 301.333 27.5327 301.333 27.333V23.333C301.333 23.0742 301.234 22.8379 301.073 22.6606C300.974 22.5513 300.85 22.4639 300.711 22.4072C300.595 22.3594 300.467 22.333 300.333 22.333ZM295.667 24.333H294.667C294.114 24.333 293.667 24.7808 293.667 25.333V27.333C293.667 27.8853 294.114 28.333 294.667 28.333H295.667C296.219 28.333 296.667 27.8853 296.667 27.333V25.333C296.667 24.7808 296.219 24.333 295.667 24.333Z" fill="black"/>
<path d="M37.2841 28.2563C39.9721 28.2563 41.5688 26.1543 41.5688 22.5947C41.5688 21.2544 41.3124 20.1265 40.8217 19.2549C40.1112 17.8999 38.8881 17.1675 37.3427 17.1675C35.0429 17.1675 33.4169 18.7129 33.4169 20.8809C33.4169 22.917 34.8817 24.3965 36.8959 24.3965C38.1337 24.3965 39.1371 23.8179 39.6352 22.8145H39.6571C39.6571 22.8145 39.6864 22.8145 39.6938 22.8145C39.7084 22.8145 39.7597 22.8145 39.7597 22.8145C39.7597 25.2314 38.8441 26.6743 37.2987 26.6743C36.3905 26.6743 35.6874 26.1763 35.4457 25.3779H33.5634C33.8783 27.1138 35.3505 28.2563 37.2841 28.2563ZM37.35 22.895C36.1342 22.895 35.2699 22.0308 35.2699 20.8223C35.2699 19.6431 36.1781 18.7422 37.3573 18.7422C38.5365 18.7422 39.4447 19.6577 39.4447 20.8516C39.4447 22.0308 38.5585 22.895 37.35 22.895ZM44.5866 26.8794C45.2824 26.8794 45.7585 26.3813 45.7585 25.7222C45.7585 25.0557 45.2824 24.5649 44.5866 24.5649C43.8981 24.5649 43.4147 25.0557 43.4147 25.7222C43.4147 26.3813 43.8981 26.8794 44.5866 26.8794ZM44.5866 21.3862C45.2824 21.3862 45.7585 20.8955 45.7585 20.2363C45.7585 19.5698 45.2824 19.0791 44.5866 19.0791C43.8981 19.0791 43.4147 19.5698 43.4147 20.2363C43.4147 20.8955 43.8981 21.3862 44.5866 21.3862ZM52.7607 28H54.5698V26.0298H55.998V24.4331H54.5698V17.4312H51.9038C50.0361 20.2437 48.5493 22.5947 47.5972 24.3452V26.0298H52.7607V28ZM49.3477 24.3672C50.5781 22.1992 51.6768 20.4634 52.6875 18.9692H52.79V24.4771H49.3477V24.3672ZM60.0267 28H61.9163V17.4312H60.034L57.2728 19.3647V21.1812L59.9021 19.3354H60.0267V28Z" fill="black"/>
<rect x="16" y="114" width="343" height="39" fill="#C4C4C4" fill-opacity="0.4"/>
<path d="M159.337 136.871C159.495 138.938 161.247 140.282 163.787 140.282C166.526 140.282 168.261 138.879 168.261 136.68C168.261 134.92 167.265 133.957 164.783 133.334L163.529 133.002C161.877 132.579 161.222 132.04 161.222 131.102C161.222 129.89 162.276 129.093 163.87 129.093C165.364 129.093 166.376 129.823 166.584 131.052H168.086C167.962 129.118 166.235 127.74 163.919 127.74C161.388 127.74 159.686 129.118 159.686 131.151C159.686 132.853 160.624 133.833 162.791 134.38L164.326 134.779C165.978 135.194 166.725 135.841 166.725 136.862C166.725 138.049 165.538 138.921 163.928 138.921C162.226 138.921 161.031 138.124 160.848 136.871H159.337ZM173.728 132.156C175.147 132.156 176.093 133.202 176.127 134.787H171.196C171.304 133.202 172.3 132.156 173.728 132.156ZM176.085 137.684C175.712 138.473 174.931 138.896 173.778 138.896C172.258 138.896 171.271 137.775 171.196 136.007V135.941H177.629V135.393C177.629 132.612 176.16 130.894 173.744 130.894C171.287 130.894 169.71 132.72 169.71 135.534C169.71 138.365 171.262 140.158 173.744 140.158C175.703 140.158 177.081 139.22 177.513 137.684H176.085ZM183.818 130.894C182.598 130.894 181.527 131.517 180.954 132.546H180.822V131.052H179.46V142.988H180.888V138.655H181.021C181.511 139.602 182.54 140.158 183.818 140.158C186.093 140.158 187.578 138.323 187.578 135.526C187.578 132.712 186.101 130.894 183.818 130.894ZM183.478 138.871C181.868 138.871 180.847 137.576 180.847 135.526C180.847 133.467 181.868 132.181 183.486 132.181C185.121 132.181 186.101 133.434 186.101 135.526C186.101 137.618 185.121 138.871 183.478 138.871ZM193.715 131.392V131.4H195.159V131.392C195.159 129.981 196.105 129.043 197.508 129.043C198.828 129.043 199.849 129.964 199.849 131.16C199.849 132.123 199.475 132.77 197.931 134.447L193.789 138.971V140H201.542V138.655H195.931V138.522L198.811 135.426C200.778 133.318 201.343 132.347 201.343 131.102C201.343 129.201 199.699 127.74 197.549 127.74C195.325 127.74 193.715 129.267 193.715 131.392ZM207.681 140.282C210.371 140.282 211.915 138.008 211.915 134.032C211.915 130.064 210.346 127.74 207.681 127.74C205 127.74 203.431 130.056 203.431 134.007C203.431 137.991 204.984 140.282 207.681 140.282ZM207.681 138.979C205.913 138.979 204.934 137.211 204.934 134.007C204.934 130.844 205.93 129.051 207.681 129.051C209.433 129.051 210.412 130.828 210.412 134.007C210.412 137.219 209.45 138.979 207.681 138.979Z" fill="black"/>
<path d="M92.6309 189.24C92.6309 191.051 92.3177 192.643 91.6914 194.014C91.0651 195.376 90.168 196.426 89 197.162C87.8405 197.89 86.5033 198.254 84.9883 198.254C83.4902 198.254 82.153 197.89 80.9766 197.162C79.8086 196.426 78.903 195.381 78.2598 194.026C77.625 192.672 77.3034 191.111 77.2949 189.342V188.301C77.2949 186.498 77.6123 184.907 78.2471 183.527C78.8903 182.148 79.7917 181.094 80.9512 180.366C82.1191 179.63 83.4564 179.262 84.9629 179.262C86.4694 179.262 87.8024 179.626 88.9619 180.354C90.1299 181.073 91.0312 182.114 91.666 183.477C92.3008 184.831 92.6224 186.409 92.6309 188.212V189.24ZM89.4189 188.275C89.4189 186.227 89.0296 184.657 88.251 183.565C87.4808 182.474 86.3848 181.928 84.9629 181.928C83.5749 181.928 82.4873 182.474 81.7002 183.565C80.9215 184.649 80.5238 186.185 80.5068 188.174V189.24C80.5068 191.271 80.9004 192.841 81.6875 193.95C82.4831 195.059 83.5833 195.613 84.9883 195.613C86.4102 195.613 87.502 195.072 88.2637 193.988C89.0339 192.905 89.4189 191.322 89.4189 189.24V188.275ZM98.3945 184.264L98.4834 185.851C99.499 184.623 100.832 184.01 102.482 184.01C105.343 184.01 106.799 185.647 106.85 188.923V198H103.765V189.101C103.765 188.229 103.574 187.586 103.193 187.171C102.821 186.748 102.207 186.536 101.353 186.536C100.108 186.536 99.1816 187.099 98.5723 188.225V198H95.4873V184.264H98.3945ZM117.704 194.268C117.704 193.717 117.476 193.299 117.019 193.011C116.57 192.723 115.821 192.469 114.771 192.249C113.722 192.029 112.846 191.75 112.144 191.411C110.603 190.666 109.833 189.587 109.833 188.174C109.833 186.989 110.332 185.999 111.331 185.203C112.33 184.408 113.599 184.01 115.14 184.01C116.782 184.01 118.106 184.416 119.113 185.229C120.129 186.041 120.637 187.095 120.637 188.39H117.552C117.552 187.797 117.332 187.306 116.892 186.917C116.451 186.519 115.868 186.32 115.14 186.32C114.463 186.32 113.908 186.477 113.477 186.79C113.053 187.103 112.842 187.522 112.842 188.047C112.842 188.521 113.041 188.889 113.438 189.151C113.836 189.414 114.64 189.68 115.851 189.951C117.061 190.214 118.009 190.531 118.694 190.903C119.388 191.267 119.9 191.707 120.23 192.224C120.569 192.74 120.738 193.366 120.738 194.103C120.738 195.338 120.226 196.341 119.202 197.111C118.178 197.873 116.837 198.254 115.178 198.254C114.052 198.254 113.049 198.051 112.169 197.645C111.289 197.238 110.603 196.68 110.112 195.969C109.621 195.258 109.376 194.492 109.376 193.671H112.372C112.414 194.399 112.689 194.962 113.197 195.359C113.705 195.749 114.378 195.943 115.216 195.943C116.028 195.943 116.646 195.791 117.069 195.486C117.493 195.173 117.704 194.767 117.704 194.268ZM129.485 198.254C127.53 198.254 125.943 197.64 124.725 196.413C123.514 195.177 122.909 193.535 122.909 191.487V191.106C122.909 189.735 123.172 188.512 123.696 187.438C124.229 186.354 124.974 185.512 125.931 184.911C126.887 184.31 127.953 184.01 129.13 184.01C131 184.01 132.443 184.606 133.459 185.8C134.483 186.993 134.995 188.682 134.995 190.865V192.109H126.02C126.113 193.243 126.489 194.141 127.149 194.801C127.818 195.461 128.656 195.791 129.663 195.791C131.076 195.791 132.228 195.22 133.116 194.077L134.779 195.664C134.229 196.485 133.493 197.124 132.57 197.581C131.656 198.03 130.628 198.254 129.485 198.254ZM129.117 186.485C128.271 186.485 127.585 186.782 127.061 187.374C126.544 187.966 126.214 188.792 126.07 189.85H131.948V189.621C131.881 188.589 131.605 187.81 131.123 187.285C130.641 186.752 129.972 186.485 129.117 186.485ZM141.267 180.925V184.264H143.691V186.549H141.267V194.217C141.267 194.742 141.368 195.122 141.571 195.359C141.783 195.588 142.155 195.702 142.688 195.702C143.044 195.702 143.404 195.66 143.768 195.575V197.962C143.065 198.157 142.388 198.254 141.736 198.254C139.367 198.254 138.182 196.946 138.182 194.331V186.549H135.922V184.264H138.182V180.925H141.267Z" fill="#C1BEBE"/>
<path d="M28.0654 238.834C27.9365 240.199 27.4326 241.266 26.5537 242.033C25.6748 242.795 24.5059 243.176 23.0469 243.176C22.0273 243.176 21.1279 242.936 20.3486 242.455C19.5752 241.969 18.9775 241.28 18.5557 240.39C18.1338 239.499 17.9141 238.465 17.8965 237.287V236.092C17.8965 234.885 18.1104 233.821 18.5381 232.901C18.9658 231.981 19.5781 231.272 20.375 230.774C21.1777 230.276 22.1035 230.027 23.1523 230.027C24.5645 230.027 25.7012 230.411 26.5625 231.179C27.4238 231.946 27.9248 233.03 28.0654 234.431H25.8506C25.7451 233.511 25.4756 232.849 25.042 232.444C24.6143 232.034 23.9844 231.829 23.1523 231.829C22.1855 231.829 21.4414 232.184 20.9199 232.893C20.4043 233.596 20.1406 234.63 20.1289 235.995V237.129C20.1289 238.512 20.375 239.566 20.8672 240.293C21.3652 241.02 22.0918 241.383 23.0469 241.383C23.9199 241.383 24.5762 241.187 25.0156 240.794C25.4551 240.401 25.7334 239.748 25.8506 238.834H28.0654ZM34.833 235.441C34.5518 235.395 34.2617 235.371 33.9629 235.371C32.9844 235.371 32.3252 235.746 31.9854 236.496V243H29.8496V233.49H31.8887L31.9414 234.554C32.457 233.728 33.1719 233.314 34.0859 233.314C34.3906 233.314 34.6426 233.355 34.8418 233.438L34.833 235.441ZM40.1943 243.176C38.8408 243.176 37.7422 242.751 36.8984 241.901C36.0605 241.046 35.6416 239.909 35.6416 238.491V238.228C35.6416 237.278 35.8232 236.432 36.1865 235.688C36.5557 234.938 37.0713 234.354 37.7334 233.938C38.3955 233.522 39.1338 233.314 39.9482 233.314C41.2432 233.314 42.2422 233.728 42.9453 234.554C43.6543 235.38 44.0088 236.549 44.0088 238.061V238.922H37.7949C37.8594 239.707 38.1201 240.328 38.5771 240.785C39.04 241.242 39.6201 241.471 40.3174 241.471C41.2959 241.471 42.0928 241.075 42.708 240.284L43.8594 241.383C43.4785 241.951 42.9688 242.394 42.3301 242.71C41.6973 243.021 40.9854 243.176 40.1943 243.176ZM39.9395 235.028C39.3535 235.028 38.8789 235.233 38.5156 235.644C38.1582 236.054 37.9297 236.625 37.8301 237.357H41.8994V237.199C41.8525 236.484 41.6621 235.945 41.3281 235.582C40.9941 235.213 40.5312 235.028 39.9395 235.028ZM51.3564 243C51.2627 242.818 51.1807 242.522 51.1104 242.112C50.4307 242.821 49.5986 243.176 48.6143 243.176C47.6592 243.176 46.8799 242.903 46.2764 242.358C45.6729 241.813 45.3711 241.14 45.3711 240.337C45.3711 239.323 45.7461 238.547 46.4961 238.008C47.252 237.463 48.3301 237.19 49.7305 237.19H51.04V236.566C51.04 236.074 50.9023 235.682 50.627 235.389C50.3516 235.09 49.9326 234.94 49.3701 234.94C48.8838 234.94 48.4854 235.063 48.1748 235.31C47.8643 235.55 47.709 235.857 47.709 236.232H45.5732C45.5732 235.711 45.7461 235.225 46.0918 234.773C46.4375 234.316 46.9062 233.959 47.498 233.701C48.0957 233.443 48.7607 233.314 49.4932 233.314C50.6064 233.314 51.4941 233.596 52.1562 234.158C52.8184 234.715 53.1582 235.5 53.1758 236.514V240.803C53.1758 241.658 53.2959 242.341 53.5361 242.851V243H51.3564ZM49.0098 241.462C49.4316 241.462 49.8271 241.359 50.1963 241.154C50.5713 240.949 50.8525 240.674 51.04 240.328V238.535H49.8887C49.0977 238.535 48.5029 238.673 48.1045 238.948C47.7061 239.224 47.5068 239.613 47.5068 240.117C47.5068 240.527 47.6416 240.855 47.9111 241.102C48.1865 241.342 48.5527 241.462 49.0098 241.462ZM58.0889 231.179V233.49H59.7676V235.072H58.0889V240.381C58.0889 240.744 58.1592 241.008 58.2998 241.172C58.4463 241.33 58.7041 241.409 59.0732 241.409C59.3193 241.409 59.5684 241.38 59.8203 241.321V242.974C59.334 243.108 58.8652 243.176 58.4141 243.176C56.7734 243.176 55.9531 242.271 55.9531 240.46V235.072H54.3887V233.49H55.9531V231.179H58.0889ZM65.5947 243.176C64.2412 243.176 63.1426 242.751 62.2988 241.901C61.4609 241.046 61.042 239.909 61.042 238.491V238.228C61.042 237.278 61.2236 236.432 61.5869 235.688C61.9561 234.938 62.4717 234.354 63.1338 233.938C63.7959 233.522 64.5342 233.314 65.3486 233.314C66.6436 233.314 67.6426 233.728 68.3457 234.554C69.0547 235.38 69.4092 236.549 69.4092 238.061V238.922H63.1953C63.2598 239.707 63.5205 240.328 63.9775 240.785C64.4404 241.242 65.0205 241.471 65.7178 241.471C66.6963 241.471 67.4932 241.075 68.1084 240.284L69.2598 241.383C68.8789 241.951 68.3691 242.394 67.7305 242.71C67.0977 243.021 66.3857 243.176 65.5947 243.176ZM65.3398 235.028C64.7539 235.028 64.2793 235.233 63.916 235.644C63.5586 236.054 63.3301 236.625 63.2305 237.357H67.2998V237.199C67.2529 236.484 67.0625 235.945 66.7285 235.582C66.3945 235.213 65.9316 235.028 65.3398 235.028ZM81.2393 243C81.1455 242.818 81.0635 242.522 80.9932 242.112C80.3135 242.821 79.4814 243.176 78.4971 243.176C77.542 243.176 76.7627 242.903 76.1592 242.358C75.5557 241.813 75.2539 241.14 75.2539 240.337C75.2539 239.323 75.6289 238.547 76.3789 238.008C77.1348 237.463 78.2129 237.19 79.6133 237.19H80.9229V236.566C80.9229 236.074 80.7852 235.682 80.5098 235.389C80.2344 235.09 79.8154 234.94 79.2529 234.94C78.7666 234.94 78.3682 235.063 78.0576 235.31C77.7471 235.55 77.5918 235.857 77.5918 236.232H75.4561C75.4561 235.711 75.6289 235.225 75.9746 234.773C76.3203 234.316 76.7891 233.959 77.3809 233.701C77.9785 233.443 78.6436 233.314 79.376 233.314C80.4893 233.314 81.377 233.596 82.0391 234.158C82.7012 234.715 83.041 235.5 83.0586 236.514V240.803C83.0586 241.658 83.1787 242.341 83.4189 242.851V243H81.2393ZM78.8926 241.462C79.3145 241.462 79.71 241.359 80.0791 241.154C80.4541 240.949 80.7354 240.674 80.9229 240.328V238.535H79.7715C78.9805 238.535 78.3857 238.673 77.9873 238.948C77.5889 239.224 77.3896 239.613 77.3896 240.117C77.3896 240.527 77.5244 240.855 77.7939 241.102C78.0693 241.342 78.4355 241.462 78.8926 241.462ZM92.0498 243H89.9141V229.5H92.0498V243ZM96.6553 243H94.5195V233.49H96.6553V243ZM94.3877 231.021C94.3877 230.692 94.4902 230.42 94.6953 230.203C94.9062 229.986 95.2051 229.878 95.5918 229.878C95.9785 229.878 96.2773 229.986 96.4883 230.203C96.6992 230.42 96.8047 230.692 96.8047 231.021C96.8047 231.343 96.6992 231.612 96.4883 231.829C96.2773 232.04 95.9785 232.146 95.5918 232.146C95.2051 232.146 94.9062 232.04 94.6953 231.829C94.4902 231.612 94.3877 231.343 94.3877 231.021ZM104.319 240.416C104.319 240.035 104.161 239.745 103.845 239.546C103.534 239.347 103.016 239.171 102.289 239.019C101.562 238.866 100.956 238.673 100.47 238.438C99.4033 237.923 98.8701 237.176 98.8701 236.197C98.8701 235.377 99.2158 234.691 99.9072 234.141C100.599 233.59 101.478 233.314 102.544 233.314C103.681 233.314 104.598 233.596 105.295 234.158C105.998 234.721 106.35 235.45 106.35 236.347H104.214C104.214 235.937 104.062 235.597 103.757 235.327C103.452 235.052 103.048 234.914 102.544 234.914C102.075 234.914 101.691 235.022 101.393 235.239C101.1 235.456 100.953 235.746 100.953 236.109C100.953 236.438 101.091 236.692 101.366 236.874C101.642 237.056 102.198 237.24 103.036 237.428C103.874 237.609 104.53 237.829 105.005 238.087C105.485 238.339 105.84 238.644 106.068 239.001C106.303 239.358 106.42 239.792 106.42 240.302C106.42 241.157 106.065 241.852 105.356 242.385C104.647 242.912 103.719 243.176 102.57 243.176C101.791 243.176 101.097 243.035 100.487 242.754C99.8779 242.473 99.4033 242.086 99.0635 241.594C98.7236 241.102 98.5537 240.571 98.5537 240.003H100.628C100.657 240.507 100.848 240.896 101.199 241.172C101.551 241.441 102.017 241.576 102.597 241.576C103.159 241.576 103.587 241.471 103.88 241.26C104.173 241.043 104.319 240.762 104.319 240.416ZM110.964 231.179V233.49H112.643V235.072H110.964V240.381C110.964 240.744 111.034 241.008 111.175 241.172C111.321 241.33 111.579 241.409 111.948 241.409C112.194 241.409 112.443 241.38 112.695 241.321V242.974C112.209 243.108 111.74 243.176 111.289 243.176C109.648 243.176 108.828 242.271 108.828 240.46V235.072H107.264V233.49H108.828V231.179H110.964ZM118.364 238.157C118.364 237.226 118.549 236.388 118.918 235.644C119.287 234.894 119.806 234.319 120.474 233.921C121.142 233.517 121.909 233.314 122.776 233.314C124.06 233.314 125.1 233.728 125.896 234.554C126.699 235.38 127.133 236.476 127.197 237.841L127.206 238.342C127.206 239.279 127.024 240.117 126.661 240.855C126.304 241.594 125.788 242.165 125.114 242.569C124.446 242.974 123.673 243.176 122.794 243.176C121.452 243.176 120.377 242.73 119.568 241.84C118.766 240.943 118.364 239.751 118.364 238.263V238.157ZM120.5 238.342C120.5 239.32 120.702 240.088 121.106 240.645C121.511 241.195 122.073 241.471 122.794 241.471C123.515 241.471 124.074 241.189 124.473 240.627C124.877 240.064 125.079 239.241 125.079 238.157C125.079 237.196 124.871 236.435 124.455 235.872C124.045 235.31 123.485 235.028 122.776 235.028C122.079 235.028 121.525 235.307 121.115 235.863C120.705 236.414 120.5 237.24 120.5 238.342ZM129.764 243V235.072H128.313V233.49H129.764V232.62C129.764 231.565 130.057 230.751 130.643 230.177C131.229 229.603 132.049 229.315 133.104 229.315C133.479 229.315 133.877 229.368 134.299 229.474L134.246 231.144C134.012 231.097 133.739 231.073 133.429 231.073C132.409 231.073 131.899 231.598 131.899 232.646V233.49H133.833V235.072H131.899V243H129.764ZM145.206 240.416C145.206 240.035 145.048 239.745 144.731 239.546C144.421 239.347 143.902 239.171 143.176 239.019C142.449 238.866 141.843 238.673 141.356 238.438C140.29 237.923 139.757 237.176 139.757 236.197C139.757 235.377 140.103 234.691 140.794 234.141C141.485 233.59 142.364 233.314 143.431 233.314C144.567 233.314 145.484 233.596 146.182 234.158C146.885 234.721 147.236 235.45 147.236 236.347H145.101C145.101 235.937 144.948 235.597 144.644 235.327C144.339 235.052 143.935 234.914 143.431 234.914C142.962 234.914 142.578 235.022 142.279 235.239C141.986 235.456 141.84 235.746 141.84 236.109C141.84 236.438 141.978 236.692 142.253 236.874C142.528 237.056 143.085 237.24 143.923 237.428C144.761 237.609 145.417 237.829 145.892 238.087C146.372 238.339 146.727 238.644 146.955 239.001C147.189 239.358 147.307 239.792 147.307 240.302C147.307 241.157 146.952 241.852 146.243 242.385C145.534 242.912 144.605 243.176 143.457 243.176C142.678 243.176 141.983 243.035 141.374 242.754C140.765 242.473 140.29 242.086 139.95 241.594C139.61 241.102 139.44 240.571 139.44 240.003H141.515C141.544 240.507 141.734 240.896 142.086 241.172C142.438 241.441 142.903 241.576 143.483 241.576C144.046 241.576 144.474 241.471 144.767 241.26C145.06 241.043 145.206 240.762 145.206 240.416ZM152.501 239.941L154.435 233.49H156.711L152.932 244.441C152.352 246.041 151.367 246.841 149.979 246.841C149.668 246.841 149.325 246.788 148.95 246.683V245.03L149.354 245.057C149.894 245.057 150.298 244.957 150.567 244.758C150.843 244.564 151.06 244.236 151.218 243.773L151.525 242.956L148.186 233.49H150.488L152.501 239.941ZM159.954 233.49L160.016 234.483C160.684 233.704 161.598 233.314 162.758 233.314C164.029 233.314 164.899 233.801 165.368 234.773C166.06 233.801 167.032 233.314 168.286 233.314C169.335 233.314 170.114 233.604 170.624 234.185C171.14 234.765 171.403 235.62 171.415 236.751V243H169.279V236.812C169.279 236.209 169.147 235.767 168.884 235.485C168.62 235.204 168.184 235.063 167.574 235.063C167.088 235.063 166.689 235.195 166.379 235.459C166.074 235.717 165.86 236.057 165.737 236.479L165.746 243H163.61V236.742C163.581 235.623 163.01 235.063 161.896 235.063C161.041 235.063 160.435 235.412 160.077 236.109V243H157.941V233.49H159.954ZM181.936 238.342C181.936 239.812 181.602 240.987 180.934 241.866C180.266 242.739 179.369 243.176 178.244 243.176C177.201 243.176 176.366 242.833 175.739 242.147V246.656H173.604V233.49H175.572L175.66 234.457C176.287 233.695 177.14 233.314 178.218 233.314C179.378 233.314 180.286 233.748 180.942 234.615C181.604 235.477 181.936 236.675 181.936 238.21V238.342ZM179.809 238.157C179.809 237.208 179.618 236.455 179.237 235.898C178.862 235.342 178.323 235.063 177.62 235.063C176.747 235.063 176.12 235.424 175.739 236.145V240.363C176.126 241.102 176.759 241.471 177.638 241.471C178.317 241.471 178.848 241.198 179.229 240.653C179.615 240.103 179.809 239.271 179.809 238.157ZM186.427 231.179V233.49H188.105V235.072H186.427V240.381C186.427 240.744 186.497 241.008 186.638 241.172C186.784 241.33 187.042 241.409 187.411 241.409C187.657 241.409 187.906 241.38 188.158 241.321V242.974C187.672 243.108 187.203 243.176 186.752 243.176C185.111 243.176 184.291 242.271 184.291 240.46V235.072H182.727V233.49H184.291V231.179H186.427ZM189.081 238.157C189.081 237.226 189.266 236.388 189.635 235.644C190.004 234.894 190.522 234.319 191.19 233.921C191.858 233.517 192.626 233.314 193.493 233.314C194.776 233.314 195.816 233.728 196.613 234.554C197.416 235.38 197.85 236.476 197.914 237.841L197.923 238.342C197.923 239.279 197.741 240.117 197.378 240.855C197.021 241.594 196.505 242.165 195.831 242.569C195.163 242.974 194.39 243.176 193.511 243.176C192.169 243.176 191.094 242.73 190.285 241.84C189.482 240.943 189.081 239.751 189.081 238.263V238.157ZM191.217 238.342C191.217 239.32 191.419 240.088 191.823 240.645C192.228 241.195 192.79 241.471 193.511 241.471C194.231 241.471 194.791 241.189 195.189 240.627C195.594 240.064 195.796 239.241 195.796 238.157C195.796 237.196 195.588 236.435 195.172 235.872C194.762 235.31 194.202 235.028 193.493 235.028C192.796 235.028 192.242 235.307 191.832 235.863C191.422 236.414 191.217 237.24 191.217 238.342ZM201.737 233.49L201.799 234.483C202.467 233.704 203.381 233.314 204.541 233.314C205.812 233.314 206.683 233.801 207.151 234.773C207.843 233.801 208.815 233.314 210.069 233.314C211.118 233.314 211.897 233.604 212.407 234.185C212.923 234.765 213.187 235.62 213.198 236.751V243H211.062V236.812C211.062 236.209 210.931 235.767 210.667 235.485C210.403 235.204 209.967 235.063 209.357 235.063C208.871 235.063 208.473 235.195 208.162 235.459C207.857 235.717 207.644 236.057 207.521 236.479L207.529 243H205.394V236.742C205.364 235.623 204.793 235.063 203.68 235.063C202.824 235.063 202.218 235.412 201.86 236.109V243H199.725V233.49H201.737ZM220.722 240.416C220.722 240.035 220.563 239.745 220.247 239.546C219.937 239.347 219.418 239.171 218.691 239.019C217.965 238.866 217.358 238.673 216.872 238.438C215.806 237.923 215.272 237.176 215.272 236.197C215.272 235.377 215.618 234.691 216.31 234.141C217.001 233.59 217.88 233.314 218.946 233.314C220.083 233.314 221 233.596 221.697 234.158C222.4 234.721 222.752 235.45 222.752 236.347H220.616C220.616 235.937 220.464 235.597 220.159 235.327C219.854 235.052 219.45 234.914 218.946 234.914C218.478 234.914 218.094 235.022 217.795 235.239C217.502 235.456 217.355 235.746 217.355 236.109C217.355 236.438 217.493 236.692 217.769 236.874C218.044 237.056 218.601 237.24 219.438 237.428C220.276 237.609 220.933 237.829 221.407 238.087C221.888 238.339 222.242 238.644 222.471 239.001C222.705 239.358 222.822 239.792 222.822 240.302C222.822 241.157 222.468 241.852 221.759 242.385C221.05 242.912 220.121 243.176 218.973 243.176C218.193 243.176 217.499 243.035 216.89 242.754C216.28 242.473 215.806 242.086 215.466 241.594C215.126 241.102 214.956 240.571 214.956 240.003H217.03C217.06 240.507 217.25 240.896 217.602 241.172C217.953 241.441 218.419 241.576 218.999 241.576C219.562 241.576 219.989 241.471 220.282 241.26C220.575 241.043 220.722 240.762 220.722 240.416ZM226.021 240.75C226.42 240.75 226.728 240.864 226.944 241.093C227.161 241.315 227.27 241.597 227.27 241.937C227.27 242.271 227.161 242.549 226.944 242.771C226.728 242.988 226.42 243.097 226.021 243.097C225.641 243.097 225.339 242.988 225.116 242.771C224.894 242.555 224.782 242.276 224.782 241.937C224.782 241.597 224.891 241.315 225.107 241.093C225.324 240.864 225.629 240.75 226.021 240.75ZM21.6992 305.66V312H18.7344V294.938H25.2617C27.168 294.938 28.6797 295.434 29.7969 296.426C30.9219 297.418 31.4844 298.73 31.4844 300.363C31.4844 302.035 30.9336 303.336 29.832 304.266C28.7383 305.195 27.2031 305.66 25.2266 305.66H21.6992ZM21.6992 303.281H25.2617C26.3164 303.281 27.1211 303.035 27.6758 302.543C28.2305 302.043 28.5078 301.324 28.5078 300.387C28.5078 299.465 28.2266 298.73 27.6641 298.184C27.1016 297.629 26.3281 297.344 25.3438 297.328H21.6992V303.281ZM41.2461 312C41.1211 311.758 41.0117 311.363 40.918 310.816C40.0117 311.762 38.9023 312.234 37.5898 312.234C36.3164 312.234 35.2773 311.871 34.4727 311.145C33.668 310.418 33.2656 309.52 33.2656 308.449C33.2656 307.098 33.7656 306.062 34.7656 305.344C35.7734 304.617 37.2109 304.254 39.0781 304.254H40.8242V303.422C40.8242 302.766 40.6406 302.242 40.2734 301.852C39.9062 301.453 39.3477 301.254 38.5977 301.254C37.9492 301.254 37.418 301.418 37.0039 301.746C36.5898 302.066 36.3828 302.477 36.3828 302.977H33.5352C33.5352 302.281 33.7656 301.633 34.2266 301.031C34.6875 300.422 35.3125 299.945 36.1016 299.602C36.8984 299.258 37.7852 299.086 38.7617 299.086C40.2461 299.086 41.4297 299.461 42.3125 300.211C43.1953 300.953 43.6484 302 43.6719 303.352V309.07C43.6719 310.211 43.832 311.121 44.1523 311.801V312H41.2461ZM38.1172 309.949C38.6797 309.949 39.207 309.812 39.6992 309.539C40.1992 309.266 40.5742 308.898 40.8242 308.438V306.047H39.2891C38.2344 306.047 37.4414 306.23 36.9102 306.598C36.3789 306.965 36.1133 307.484 36.1133 308.156C36.1133 308.703 36.293 309.141 36.6523 309.469C37.0195 309.789 37.5078 309.949 38.1172 309.949ZM49.6836 312H46.8359V299.32H49.6836V312ZM46.6602 296.027C46.6602 295.59 46.7969 295.227 47.0703 294.938C47.3516 294.648 47.75 294.504 48.2656 294.504C48.7812 294.504 49.1797 294.648 49.4609 294.938C49.7422 295.227 49.8828 295.59 49.8828 296.027C49.8828 296.457 49.7422 296.816 49.4609 297.105C49.1797 297.387 48.7812 297.527 48.2656 297.527C47.75 297.527 47.3516 297.387 47.0703 297.105C46.7969 296.816 46.6602 296.457 46.6602 296.027ZM55.4375 299.32L55.5195 300.785C56.457 299.652 57.6875 299.086 59.2109 299.086C61.8516 299.086 63.1953 300.598 63.2422 303.621V312H60.3945V303.785C60.3945 302.98 60.2188 302.387 59.8672 302.004C59.5234 301.613 58.957 301.418 58.168 301.418C57.0195 301.418 56.1641 301.938 55.6016 302.977V312H52.7539V299.32H55.4375ZM73.5371 306.349L76.1035 302.49H77.3516L74.126 307.157L77.4922 312H76.2529L73.5459 307.975L70.8389 312H69.5996L72.957 307.157L69.7314 302.49H70.9707L73.5371 306.349ZM27.1875 353H25.2188V347.945H20.1328V353H18.1562V341.625H20.1328V346.359H25.2188V341.625H27.1875V353ZM28.9922 348.695C28.9922 347.867 29.1562 347.122 29.4844 346.461C29.8125 345.794 30.2734 345.284 30.8672 344.93C31.4609 344.57 32.1432 344.391 32.9141 344.391C34.0547 344.391 34.9792 344.758 35.6875 345.492C36.401 346.227 36.7865 347.201 36.8438 348.414L36.8516 348.859C36.8516 349.693 36.6901 350.438 36.3672 351.094C36.0495 351.75 35.5911 352.258 34.9922 352.617C34.3984 352.977 33.7109 353.156 32.9297 353.156C31.737 353.156 30.7812 352.76 30.0625 351.969C29.349 351.172 28.9922 350.112 28.9922 348.789V348.695ZM30.8906 348.859C30.8906 349.729 31.0703 350.411 31.4297 350.906C31.7891 351.396 32.2891 351.641 32.9297 351.641C33.5703 351.641 34.0677 351.391 34.4219 350.891C34.7812 350.391 34.9609 349.659 34.9609 348.695C34.9609 347.841 34.776 347.164 34.4062 346.664C34.0417 346.164 33.5443 345.914 32.9141 345.914C32.2943 345.914 31.8021 346.161 31.4375 346.656C31.0729 347.146 30.8906 347.88 30.8906 348.859ZM45.8828 350.383L47.2266 344.547H49.0781L46.7734 353H45.2109L43.3984 347.195L41.6172 353H40.0547L37.7422 344.547H39.5938L40.9609 350.32L42.6953 344.547H44.125L45.8828 350.383ZM59.3828 353C59.2995 352.839 59.2266 352.576 59.1641 352.211C58.5599 352.841 57.8203 353.156 56.9453 353.156C56.0964 353.156 55.4036 352.914 54.8672 352.43C54.3307 351.945 54.0625 351.346 54.0625 350.633C54.0625 349.732 54.3958 349.042 55.0625 348.562C55.7344 348.078 56.6927 347.836 57.9375 347.836H59.1016V347.281C59.1016 346.844 58.9792 346.495 58.7344 346.234C58.4896 345.969 58.1172 345.836 57.6172 345.836C57.1849 345.836 56.8307 345.945 56.5547 346.164C56.2786 346.378 56.1406 346.651 56.1406 346.984H54.2422C54.2422 346.521 54.3958 346.089 54.7031 345.688C55.0104 345.281 55.4271 344.964 55.9531 344.734C56.4844 344.505 57.0755 344.391 57.7266 344.391C58.7161 344.391 59.5052 344.641 60.0938 345.141C60.6823 345.635 60.9844 346.333 61 347.234V351.047C61 351.807 61.1068 352.414 61.3203 352.867V353H59.3828ZM57.2969 351.633C57.6719 351.633 58.0234 351.542 58.3516 351.359C58.6849 351.177 58.9349 350.932 59.1016 350.625V349.031H58.0781C57.375 349.031 56.8464 349.154 56.4922 349.398C56.138 349.643 55.9609 349.99 55.9609 350.438C55.9609 350.802 56.0807 351.094 56.3203 351.312C56.5651 351.526 56.8906 351.633 57.2969 351.633ZM66.4609 351.641C66.9349 351.641 67.3281 351.503 67.6406 351.227C67.9531 350.951 68.1198 350.609 68.1406 350.203H69.9297C69.9089 350.729 69.7448 351.221 69.4375 351.68C69.1302 352.133 68.7135 352.492 68.1875 352.758C67.6615 353.023 67.0938 353.156 66.4844 353.156C65.3021 353.156 64.3646 352.773 63.6719 352.008C62.9792 351.242 62.6328 350.185 62.6328 348.836V348.641C62.6328 347.354 62.9766 346.326 63.6641 345.555C64.3516 344.779 65.2891 344.391 66.4766 344.391C67.4818 344.391 68.2995 344.685 68.9297 345.273C69.5651 345.857 69.8984 346.625 69.9297 347.578H68.1406C68.1198 347.094 67.9531 346.695 67.6406 346.383C67.3333 346.07 66.9401 345.914 66.4609 345.914C65.8464 345.914 65.3724 346.138 65.0391 346.586C64.7057 347.029 64.5365 347.703 64.5312 348.609V348.914C64.5312 349.831 64.6953 350.516 65.0234 350.969C65.3568 351.417 65.8359 351.641 66.4609 351.641ZM73.7422 342.492V344.547H75.2344V345.953H73.7422V350.672C73.7422 350.995 73.8047 351.229 73.9297 351.375C74.0599 351.516 74.2891 351.586 74.6172 351.586C74.8359 351.586 75.0573 351.56 75.2812 351.508V352.977C74.849 353.096 74.4323 353.156 74.0312 353.156C72.5729 353.156 71.8438 352.352 71.8438 350.742V345.953H70.4531V344.547H71.8438V342.492H73.7422ZM78.7109 353H76.8125V344.547H78.7109V353ZM76.6953 342.352C76.6953 342.06 76.7865 341.818 76.9688 341.625C77.1562 341.432 77.4219 341.336 77.7656 341.336C78.1094 341.336 78.375 341.432 78.5625 341.625C78.75 341.818 78.8438 342.06 78.8438 342.352C78.8438 342.638 78.75 342.878 78.5625 343.07C78.375 343.258 78.1094 343.352 77.7656 343.352C77.4219 343.352 77.1562 343.258 76.9688 343.07C76.7865 342.878 76.6953 342.638 76.6953 342.352ZM83.7656 350.594L85.5547 344.547H87.5156L84.5859 353H82.9375L79.9844 344.547H81.9531L83.7656 350.594ZM92.3203 353.156C91.1172 353.156 90.1406 352.779 89.3906 352.023C88.6458 351.263 88.2734 350.253 88.2734 348.992V348.758C88.2734 347.914 88.4349 347.161 88.7578 346.5C89.0859 345.833 89.5443 345.315 90.1328 344.945C90.7214 344.576 91.3776 344.391 92.1016 344.391C93.2526 344.391 94.1406 344.758 94.7656 345.492C95.3958 346.227 95.7109 347.266 95.7109 348.609V349.375H90.1875C90.2448 350.073 90.4766 350.625 90.8828 351.031C91.2943 351.438 91.8099 351.641 92.4297 351.641C93.2995 351.641 94.0078 351.289 94.5547 350.586L95.5781 351.562C95.2396 352.068 94.7865 352.461 94.2188 352.742C93.6562 353.018 93.0234 353.156 92.3203 353.156ZM92.0938 345.914C91.5729 345.914 91.151 346.096 90.8281 346.461C90.5104 346.826 90.3073 347.333 90.2188 347.984H93.8359V347.844C93.7943 347.208 93.625 346.729 93.3281 346.406C93.0312 346.078 92.6198 345.914 92.0938 345.914ZM108.602 350.383L109.945 344.547H111.797L109.492 353H107.93L106.117 347.195L104.336 353H102.773L100.461 344.547H102.312L103.68 350.32L105.414 344.547H106.844L108.602 350.383ZM118.117 353C118.034 352.839 117.961 352.576 117.898 352.211C117.294 352.841 116.555 353.156 115.68 353.156C114.831 353.156 114.138 352.914 113.602 352.43C113.065 351.945 112.797 351.346 112.797 350.633C112.797 349.732 113.13 349.042 113.797 348.562C114.469 348.078 115.427 347.836 116.672 347.836H117.836V347.281C117.836 346.844 117.714 346.495 117.469 346.234C117.224 345.969 116.852 345.836 116.352 345.836C115.919 345.836 115.565 345.945 115.289 346.164C115.013 346.378 114.875 346.651 114.875 346.984H112.977C112.977 346.521 113.13 346.089 113.438 345.688C113.745 345.281 114.161 344.964 114.688 344.734C115.219 344.505 115.81 344.391 116.461 344.391C117.451 344.391 118.24 344.641 118.828 345.141C119.417 345.635 119.719 346.333 119.734 347.234V351.047C119.734 351.807 119.841 352.414 120.055 352.867V353H118.117ZM116.031 351.633C116.406 351.633 116.758 351.542 117.086 351.359C117.419 351.177 117.669 350.932 117.836 350.625V349.031H116.812C116.109 349.031 115.581 349.154 115.227 349.398C114.872 349.643 114.695 349.99 114.695 350.438C114.695 350.802 114.815 351.094 115.055 351.312C115.299 351.526 115.625 351.633 116.031 351.633ZM126.461 350.703C126.461 350.365 126.32 350.107 126.039 349.93C125.763 349.753 125.302 349.596 124.656 349.461C124.01 349.326 123.471 349.154 123.039 348.945C122.091 348.487 121.617 347.823 121.617 346.953C121.617 346.224 121.924 345.615 122.539 345.125C123.154 344.635 123.935 344.391 124.883 344.391C125.893 344.391 126.708 344.641 127.328 345.141C127.953 345.641 128.266 346.289 128.266 347.086H126.367C126.367 346.721 126.232 346.419 125.961 346.18C125.69 345.935 125.331 345.812 124.883 345.812C124.466 345.812 124.125 345.909 123.859 346.102C123.599 346.294 123.469 346.552 123.469 346.875C123.469 347.167 123.591 347.393 123.836 347.555C124.081 347.716 124.576 347.88 125.32 348.047C126.065 348.208 126.648 348.404 127.07 348.633C127.497 348.857 127.812 349.128 128.016 349.445C128.224 349.763 128.328 350.148 128.328 350.602C128.328 351.362 128.013 351.979 127.383 352.453C126.753 352.922 125.927 353.156 124.906 353.156C124.214 353.156 123.596 353.031 123.055 352.781C122.513 352.531 122.091 352.188 121.789 351.75C121.487 351.312 121.336 350.841 121.336 350.336H123.18C123.206 350.784 123.375 351.13 123.688 351.375C124 351.615 124.414 351.734 124.93 351.734C125.43 351.734 125.81 351.641 126.07 351.453C126.331 351.26 126.461 351.01 126.461 350.703ZM135.992 353H134.094V344.547H135.992V353ZM133.977 342.352C133.977 342.06 134.068 341.818 134.25 341.625C134.438 341.432 134.703 341.336 135.047 341.336C135.391 341.336 135.656 341.432 135.844 341.625C136.031 341.818 136.125 342.06 136.125 342.352C136.125 342.638 136.031 342.878 135.844 343.07C135.656 343.258 135.391 343.352 135.047 343.352C134.703 343.352 134.438 343.258 134.25 343.07C134.068 342.878 133.977 342.638 133.977 342.352ZM140.445 342.492V344.547H141.938V345.953H140.445V350.672C140.445 350.995 140.508 351.229 140.633 351.375C140.763 351.516 140.992 351.586 141.32 351.586C141.539 351.586 141.76 351.56 141.984 351.508V352.977C141.552 353.096 141.135 353.156 140.734 353.156C139.276 353.156 138.547 352.352 138.547 350.742V345.953H137.156V344.547H138.547V342.492H140.445ZM145.156 349.656C145.156 348.964 145.242 348.411 145.414 348C145.586 347.589 145.924 347.138 146.43 346.648C146.94 346.154 147.263 345.802 147.398 345.594C147.607 345.276 147.711 344.932 147.711 344.562C147.711 344.073 147.589 343.701 147.344 343.445C147.104 343.185 146.75 343.055 146.281 343.055C145.833 343.055 145.471 343.182 145.195 343.438C144.924 343.688 144.789 344.029 144.789 344.461H142.891C142.901 343.539 143.214 342.81 143.828 342.273C144.448 341.737 145.266 341.469 146.281 341.469C147.328 341.469 148.143 341.734 148.727 342.266C149.315 342.797 149.609 343.539 149.609 344.492C149.609 345.341 149.214 346.177 148.422 347L147.461 347.945C147.117 348.336 146.94 348.906 146.93 349.656H145.156ZM145.023 352.086C145.023 351.779 145.12 351.531 145.312 351.344C145.505 351.151 145.766 351.055 146.094 351.055C146.427 351.055 146.69 351.154 146.883 351.352C147.076 351.544 147.172 351.789 147.172 352.086C147.172 352.372 147.078 352.612 146.891 352.805C146.703 352.997 146.438 353.094 146.094 353.094C145.75 353.094 145.484 352.997 145.297 352.805C145.115 352.612 145.023 352.372 145.023 352.086Z" fill="#C1BEBE"/>
<circle cx="38.5" cy="188.5" r="22.5" fill="#C4C4C4"/>
<circle cx="38.5" cy="388.5" r="22" stroke="#C4C4C4"/>
<circle cx="103.5" cy="388.5" r="22" stroke="#C4C4C4"/>
<circle cx="168.5" cy="388.5" r="22" stroke="#C4C4C4"/>
<circle cx="233.5" cy="388.5" r="22" stroke="#C4C4C4"/>
<circle cx="298.5" cy="388.5" r="22" stroke="#C4C4C4"/>
<path d="M46.5742 189.139C46.5742 190.941 46.2399 192.537 45.5713 193.925C44.9027 195.313 43.9505 196.383 42.7148 197.137C41.4876 197.882 40.0869 198.254 38.5127 198.254C36.9385 198.254 35.542 197.894 34.3232 197.175C33.1045 196.447 32.1523 195.41 31.4668 194.064C30.7897 192.719 30.4342 191.174 30.4004 189.431V188.39C30.4004 186.578 30.7305 184.983 31.3906 183.604C32.0592 182.215 33.0114 181.145 34.2471 180.392C35.4912 179.638 36.9046 179.262 38.4873 179.262C40.0531 179.262 41.4495 179.634 42.6768 180.379C43.904 181.124 44.8561 182.186 45.5332 183.565C46.2188 184.937 46.5658 186.511 46.5742 188.288V189.139ZM42.042 188.364C42.042 186.528 41.7331 185.135 41.1152 184.188C40.5059 183.231 39.6299 182.753 38.4873 182.753C36.2529 182.753 35.0723 184.429 34.9453 187.78L34.9326 189.139C34.9326 190.95 35.2331 192.342 35.834 193.315C36.4349 194.289 37.3278 194.775 38.5127 194.775C39.6383 194.775 40.5059 194.297 41.1152 193.341C41.7246 192.384 42.0335 191.009 42.042 189.215V188.364Z" fill="white"/>
<path d="M27.229 392.032C28.8179 393.35 30.2277 394.854 31.8493 396.14C33.913 397.777 36.9203 398.008 39.4436 398.008C43.6941 398.008 47.1183 396.112 50.0813 393.083C50.9676 392.177 51.2098 391.045 51.8796 390.04" stroke="#C4C4C4" stroke-linecap="round" stroke-linejoin="round"/>
<path d="M33.2049 380.329C32.5113 384.392 35.355 379.712 33.2049 379.831C32.3501 379.879 32.2667 381.092 32.9559 381.436C33.6829 381.8 34.4202 381.178 34.1456 380.385C33.8769 379.609 32.8327 379.629 32.5825 380.329C32.3893 380.87 32.8809 382.206 33.3986 381.325C34.3432 379.72 31.96 379.729 31.96 381.076" stroke="#C4C4C4" stroke-linecap="round" stroke-linejoin="round"/>
<path d="M42.6667 380.827C44.2527 381.933 44.5524 380.08 43.9117 380.08C42.9172 380.08 42.6059 380.231 42.6667 381.325C42.7239 382.355 44.3212 382.085 44.6034 381.27C44.9034 380.403 44.5288 379.804 43.6074 380.136C40.7147 381.177 45.0638 382.65 43.967 380.578C43.5702 379.829 42.6954 380.809 42.6667 381.325C42.6065 382.409 43.4137 381.968 43.4137 381.076" stroke="#C4C4C4" stroke-linecap="round" stroke-linejoin="round"/>
<rect x="17" y="456" width="343" height="39" fill="white" fill-opacity="0.4"/>
<rect x="17.5" y="456.5" width="342" height="38" stroke="#C4C4C4" stroke-opacity="0.4"/>
<path d="M265.692 477.385L271.385 471.692H260L265.692 477.385Z" fill="#C4C4C4"/>
<path d="M135.929 477.66H130.567L129.363 481H127.623L132.51 468.203H133.986L138.882 481H137.15L135.929 477.66ZM131.077 476.271H135.428L133.248 470.286L131.077 476.271ZM139.954 476.166C139.954 474.707 140.3 473.535 140.991 472.65C141.683 471.76 142.588 471.314 143.707 471.314C144.82 471.314 145.702 471.695 146.353 472.457V467.5H147.979V481H146.484L146.405 479.98C145.755 480.777 144.85 481.176 143.689 481.176C142.588 481.176 141.688 480.725 140.991 479.822C140.3 478.92 139.954 477.742 139.954 476.289V476.166ZM141.58 476.351C141.58 477.429 141.803 478.272 142.248 478.882C142.693 479.491 143.309 479.796 144.094 479.796C145.125 479.796 145.878 479.333 146.353 478.407V474.039C145.866 473.143 145.119 472.694 144.111 472.694C143.314 472.694 142.693 473.002 142.248 473.617C141.803 474.232 141.58 475.144 141.58 476.351ZM150.114 476.166C150.114 474.707 150.46 473.535 151.151 472.65C151.843 471.76 152.748 471.314 153.867 471.314C154.98 471.314 155.862 471.695 156.513 472.457V467.5H158.139V481H156.645L156.565 479.98C155.915 480.777 155.01 481.176 153.85 481.176C152.748 481.176 151.849 480.725 151.151 479.822C150.46 478.92 150.114 477.742 150.114 476.289V476.166ZM151.74 476.351C151.74 477.429 151.963 478.272 152.408 478.882C152.854 479.491 153.469 479.796 154.254 479.796C155.285 479.796 156.038 479.333 156.513 478.407V474.039C156.026 473.143 155.279 472.694 154.271 472.694C153.475 472.694 152.854 473.002 152.408 473.617C151.963 474.232 151.74 475.144 151.74 476.351ZM171.006 481C170.912 480.812 170.836 480.479 170.777 479.998C170.021 480.783 169.119 481.176 168.07 481.176C167.133 481.176 166.362 480.912 165.759 480.385C165.161 479.852 164.862 479.178 164.862 478.363C164.862 477.373 165.237 476.605 165.987 476.061C166.743 475.51 167.804 475.234 169.169 475.234H170.751V474.487C170.751 473.919 170.581 473.468 170.241 473.134C169.901 472.794 169.4 472.624 168.738 472.624C168.158 472.624 167.672 472.771 167.279 473.063C166.887 473.356 166.69 473.711 166.69 474.127H165.056C165.056 473.652 165.223 473.195 165.557 472.756C165.896 472.311 166.354 471.959 166.928 471.701C167.508 471.443 168.144 471.314 168.835 471.314C169.931 471.314 170.789 471.59 171.41 472.141C172.031 472.686 172.354 473.438 172.377 474.399V478.776C172.377 479.649 172.488 480.344 172.711 480.859V481H171.006ZM168.308 479.761C168.817 479.761 169.301 479.629 169.758 479.365C170.215 479.102 170.546 478.759 170.751 478.337V476.386H169.477C167.484 476.386 166.488 476.969 166.488 478.135C166.488 478.645 166.658 479.043 166.998 479.33C167.338 479.617 167.774 479.761 168.308 479.761ZM184.928 478.478C184.928 478.038 184.761 477.698 184.427 477.458C184.099 477.212 183.521 477.001 182.695 476.825C181.875 476.649 181.222 476.438 180.735 476.192C180.255 475.946 179.897 475.653 179.663 475.313C179.435 474.974 179.32 474.569 179.32 474.101C179.32 473.321 179.648 472.662 180.305 472.123C180.967 471.584 181.811 471.314 182.836 471.314C183.914 471.314 184.787 471.593 185.455 472.149C186.129 472.706 186.466 473.418 186.466 474.285H184.831C184.831 473.84 184.641 473.456 184.26 473.134C183.885 472.812 183.41 472.65 182.836 472.65C182.244 472.65 181.781 472.779 181.447 473.037C181.113 473.295 180.946 473.632 180.946 474.048C180.946 474.44 181.102 474.736 181.412 474.936C181.723 475.135 182.282 475.325 183.091 475.507C183.905 475.688 184.564 475.905 185.068 476.157C185.572 476.409 185.944 476.714 186.185 477.071C186.431 477.423 186.554 477.854 186.554 478.363C186.554 479.213 186.214 479.896 185.534 480.411C184.854 480.921 183.973 481.176 182.889 481.176C182.127 481.176 181.453 481.041 180.867 480.771C180.281 480.502 179.821 480.127 179.487 479.646C179.159 479.16 178.995 478.636 178.995 478.073H180.621C180.65 478.618 180.867 479.052 181.271 479.374C181.682 479.69 182.221 479.849 182.889 479.849C183.504 479.849 183.996 479.726 184.365 479.479C184.74 479.228 184.928 478.894 184.928 478.478ZM191.783 478.618L193.998 471.49H195.738L191.915 482.468C191.323 484.05 190.383 484.841 189.094 484.841L188.786 484.814L188.18 484.7V483.382L188.619 483.417C189.17 483.417 189.598 483.306 189.902 483.083C190.213 482.86 190.468 482.453 190.667 481.861L191.027 480.895L187.635 471.49H189.41L191.783 478.618ZM198.727 471.49L198.771 472.545C199.468 471.725 200.408 471.314 201.592 471.314C202.922 471.314 203.827 471.824 204.308 472.844C204.624 472.387 205.034 472.018 205.538 471.736C206.048 471.455 206.648 471.314 207.34 471.314C209.426 471.314 210.486 472.419 210.521 474.628V481H208.896V474.725C208.896 474.045 208.74 473.538 208.43 473.204C208.119 472.864 207.598 472.694 206.865 472.694C206.262 472.694 205.761 472.876 205.362 473.239C204.964 473.597 204.732 474.08 204.668 474.689V481H203.033V474.769C203.033 473.386 202.356 472.694 201.003 472.694C199.937 472.694 199.207 473.148 198.814 474.057V481H197.188V471.49H198.727ZM221.016 476.351C221.016 477.798 220.685 478.964 220.022 479.849C219.36 480.733 218.464 481.176 217.333 481.176C216.179 481.176 215.271 480.81 214.608 480.077V484.656H212.982V471.49H214.468L214.547 472.545C215.209 471.725 216.129 471.314 217.307 471.314C218.449 471.314 219.352 471.745 220.014 472.606C220.682 473.468 221.016 474.666 221.016 476.201V476.351ZM219.39 476.166C219.39 475.094 219.161 474.247 218.704 473.626C218.247 473.005 217.62 472.694 216.823 472.694C215.839 472.694 215.101 473.131 214.608 474.004V478.548C215.095 479.415 215.839 479.849 216.841 479.849C217.62 479.849 218.238 479.541 218.695 478.926C219.158 478.305 219.39 477.385 219.39 476.166ZM225.296 469.188V471.49H227.071V472.747H225.296V478.645C225.296 479.025 225.375 479.312 225.533 479.506C225.691 479.693 225.961 479.787 226.342 479.787C226.529 479.787 226.787 479.752 227.115 479.682V481C226.688 481.117 226.271 481.176 225.867 481.176C225.141 481.176 224.593 480.956 224.224 480.517C223.854 480.077 223.67 479.453 223.67 478.645V472.747H221.938V471.49H223.67V469.188H225.296ZM228.372 476.157C228.372 475.226 228.554 474.388 228.917 473.644C229.286 472.899 229.796 472.325 230.446 471.921C231.103 471.517 231.85 471.314 232.688 471.314C233.982 471.314 235.028 471.763 235.825 472.659C236.628 473.556 237.029 474.748 237.029 476.236V476.351C237.029 477.276 236.851 478.108 236.493 478.847C236.142 479.579 235.635 480.15 234.973 480.561C234.316 480.971 233.561 481.176 232.705 481.176C231.416 481.176 230.37 480.728 229.567 479.831C228.771 478.935 228.372 477.748 228.372 476.271V476.157ZM230.007 476.351C230.007 477.405 230.25 478.252 230.736 478.891C231.229 479.529 231.885 479.849 232.705 479.849C233.531 479.849 234.188 479.526 234.674 478.882C235.16 478.231 235.403 477.323 235.403 476.157C235.403 475.114 235.154 474.271 234.656 473.626C234.164 472.976 233.508 472.65 232.688 472.65C231.885 472.65 231.237 472.97 230.745 473.608C230.253 474.247 230.007 475.161 230.007 476.351ZM240.598 471.49L240.642 472.545C241.339 471.725 242.279 471.314 243.463 471.314C244.793 471.314 245.698 471.824 246.179 472.844C246.495 472.387 246.905 472.018 247.409 471.736C247.919 471.455 248.52 471.314 249.211 471.314C251.297 471.314 252.357 472.419 252.393 474.628V481H250.767V474.725C250.767 474.045 250.611 473.538 250.301 473.204C249.99 472.864 249.469 472.694 248.736 472.694C248.133 472.694 247.632 472.876 247.233 473.239C246.835 473.597 246.604 474.08 246.539 474.689V481H244.904V474.769C244.904 473.386 244.228 472.694 242.874 472.694C241.808 472.694 241.078 473.148 240.686 474.057V481H239.06V471.49H240.598Z" fill="#C1BEBE"/>
</g>
<defs>
<filter id="filter0_bd" x="-27.1828" y="-27.1828" width="429.366" height="142.366" filterUnits="userSpaceOnUse" color-interpolation-filters="sRGB">
<feFlood flood-opacity="0" result="BackgroundImageFix"/>
<feGaussianBlur in="BackgroundImage" stdDeviation="13.5914"/>
<feComposite in2="SourceAlpha" operator="in" result="effect1_backgroundBlur"/>
<feColorMatrix in="SourceAlpha" type="matrix" values="0 0 0 0 0 0 0 0 0 0 0 0 0 0 0 0 0 0 127 0"/>
<feOffset dy="0.5"/>
<feColorMatrix type="matrix" values="0 0 0 0 0 0 0 0 0 0 0 0 0 0 0 0 0 0 0.3 0"/>
<feBlend mode="normal" in2="effect1_backgroundBlur" result="effect2_dropShadow"/>
<feBlend mode="normal" in="SourceGraphic" in2="effect2_dropShadow" result="shape"/>
</filter>
<clipPath id="clip0">
<rect width="375" height="812" fill="white"/>
</clipPath>
</defs>
</svg>
