<svg width="375" height="812" viewBox="0 0 375 812" fill="none" xmlns="http://www.w3.org/2000/svg">
<g clip-path="url(#clip0)">
<rect width="375" height="812" fill="white"/>
<rect x="-1" y="37" width="375" height="712" fill="white"/>
<path opacity="0.35" d="M336.5 20C336.5 18.8034 337.47 17.8334 338.667 17.8334H355.333C356.53 17.8334 357.5 18.8034 357.5 20V26C357.5 27.1967 356.53 28.1667 355.333 28.1667H338.667C337.47 28.1667 336.5 27.1967 336.5 26V20Z" stroke="black"/>
<path opacity="0.4" d="M359 21V25C359.805 24.6612 360.328 23.8731 360.328 23C360.328 22.1269 359.805 21.3388 359 21Z" fill="black"/>
<path d="M338 20.6667C338 19.9303 338.597 19.3334 339.333 19.3334H354.667C355.403 19.3334 356 19.9303 356 20.6667V25.3334C356 26.0698 355.403 26.6667 354.667 26.6667H339.333C338.597 26.6667 338 26.0698 338 25.3334V20.6667Z" fill="black"/>
<path fill-rule="evenodd" clip-rule="evenodd" d="M323.33 19.608C325.546 19.6082 327.677 20.4596 329.283 21.9863C329.404 22.1042 329.598 22.1028 329.717 21.983L330.873 20.8164C330.933 20.7556 330.967 20.6733 330.966 20.5878C330.966 20.5522 330.96 20.5175 330.948 20.4846C330.941 20.4624 330.931 20.441 330.918 20.4209C330.905 20.399 330.889 20.3787 330.87 20.3604C326.655 16.3208 320.005 16.3208 315.79 20.3604C315.729 20.4203 315.694 20.5022 315.694 20.5878C315.693 20.623 315.699 20.6578 315.71 20.6907C315.725 20.7375 315.752 20.7806 315.787 20.8164L316.943 21.983C317.062 22.1029 317.256 22.1044 317.377 21.9863C318.983 20.4595 321.114 19.608 323.33 19.608ZM323.33 23.4037C324.548 23.4037 325.722 23.8562 326.624 24.6733C326.746 24.7893 326.939 24.7869 327.058 24.6677L328.212 23.5011C328.273 23.4398 328.307 23.3568 328.306 23.2705C328.305 23.1843 328.27 23.1019 328.208 23.042C325.459 20.4857 321.203 20.4857 318.455 23.042C318.393 23.1019 318.358 23.1843 318.357 23.2706C318.356 23.3569 318.39 23.4399 318.451 23.5011L319.605 24.6677C319.724 24.7869 319.917 24.7893 320.039 24.6733C320.941 23.8567 322.114 23.4042 323.33 23.4037ZM325.643 25.9575C325.645 26.0441 325.611 26.1274 325.549 26.188L323.552 28.2037C323.513 28.2428 323.465 28.2706 323.413 28.2849C323.387 28.2924 323.359 28.2963 323.33 28.2963C323.247 28.2963 323.167 28.2629 323.109 28.2037L321.111 26.188C321.049 26.1274 321.015 26.0439 321.017 25.9574C321.019 25.871 321.056 25.7891 321.121 25.7311C322.396 24.6521 324.264 24.6521 325.54 25.7311C325.604 25.7891 325.642 25.871 325.643 25.9575Z" fill="black"/>
<path fill-rule="evenodd" clip-rule="evenodd" d="M309.667 17.6666H308.667C308.114 17.6666 307.667 18.1144 307.667 18.6666V27.3333C307.667 27.8856 308.114 28.3333 308.667 28.3333H309.667C310.219 28.3333 310.667 27.8856 310.667 27.3333V18.6666C310.667 18.1144 310.219 17.6666 309.667 17.6666ZM304 20H305C305.552 20 306 20.4478 306 21V27.3334C306 27.8856 305.552 28.3334 305 28.3334H304C303.448 28.3334 303 27.8856 303 27.3334V21C303 20.4478 303.448 20 304 20ZM300.333 22.3333H299.333C298.781 22.3333 298.333 22.781 298.333 23.3333V27.3333C298.333 27.8855 298.781 28.3333 299.333 28.3333H300.333C300.886 28.3333 301.333 27.8855 301.333 27.3333V23.3333C301.333 22.781 300.886 22.3333 300.333 22.3333ZM295.667 24.3333H294.667C294.114 24.3333 293.667 24.781 293.667 25.3333V27.3333C293.667 27.8855 294.114 28.3333 294.667 28.3333H295.667C296.219 28.3333 296.667 27.8855 296.667 27.3333V25.3333C296.667 24.781 296.219 24.3333 295.667 24.3333Z" fill="black"/>
<path d="M37.2841 28.2563C39.9721 28.2563 41.5688 26.1543 41.5688 22.5947C41.5688 21.2544 41.3124 20.1265 40.8217 19.2549C40.1112 17.8999 38.8881 17.1675 37.3427 17.1675C35.0429 17.1675 33.4169 18.7129 33.4169 20.8809C33.4169 22.917 34.8817 24.3965 36.8959 24.3965C38.1337 24.3965 39.1371 23.8179 39.6352 22.8145H39.6571C39.6571 22.8145 39.6864 22.8145 39.6938 22.8145C39.7084 22.8145 39.7597 22.8145 39.7597 22.8145C39.7597 25.2314 38.8441 26.6743 37.2987 26.6743C36.3905 26.6743 35.6874 26.1763 35.4457 25.3779H33.5634C33.8783 27.1138 35.3505 28.2563 37.2841 28.2563ZM37.35 22.895C36.1342 22.895 35.2699 22.0308 35.2699 20.8223C35.2699 19.6431 36.1781 18.7422 37.3573 18.7422C38.5365 18.7422 39.4447 19.6577 39.4447 20.8516C39.4447 22.0308 38.5585 22.895 37.35 22.895ZM44.5866 26.8794C45.2824 26.8794 45.7585 26.3813 45.7585 25.7222C45.7585 25.0557 45.2824 24.5649 44.5866 24.5649C43.8981 24.5649 43.4147 25.0557 43.4147 25.7222C43.4147 26.3813 43.8981 26.8794 44.5866 26.8794ZM44.5866 21.3862C45.2824 21.3862 45.7585 20.8955 45.7585 20.2363C45.7585 19.5698 45.2824 19.0791 44.5866 19.0791C43.8981 19.0791 43.4147 19.5698 43.4147 20.2363C43.4147 20.8955 43.8981 21.3862 44.5866 21.3862ZM52.7607 28H54.5698V26.0298H55.998V24.4331H54.5698V17.4312H51.9038C50.0361 20.2437 48.5493 22.5947 47.5972 24.3452V26.0298H52.7607V28ZM49.3477 24.3672C50.5781 22.1992 51.6768 20.4634 52.6875 18.9692H52.79V24.4771H49.3477V24.3672ZM60.0267 28H61.9163V17.4312H60.034L57.2728 19.3647V21.1812L59.9021 19.3354H60.0267V28Z" fill="black"/>
<circle r="6" transform="matrix(1 0 0 -1 147 713)" fill="#D1D0D0"/>
<circle r="6" transform="matrix(1 0 0 -1 174 713)" fill="#D1D0D0"/>
<circle r="5.5" transform="matrix(1 0 0 -1 174.333 713)" stroke="#DADADA"/>
<circle r="5.5" transform="matrix(1 0 0 -1 201.667 713)" stroke="#DADADA"/>
<circle r="5.5" transform="matrix(1 0 0 -1 229 713)" stroke="#DADADA"/>
<rect x="133" y="193" width="109" height="124" fill="#C1BEBE"/>
<rect y="749" width="375" height="63" fill="#C1BEBE"/>
<path d="M174.287 779.662C172.679 779.2 171.507 778.633 170.771 777.963C170.042 777.286 169.678 776.452 169.678 775.463C169.678 774.343 170.124 773.419 171.016 772.689C171.914 771.954 173.079 771.586 174.512 771.586C175.488 771.586 176.357 771.775 177.119 772.152C177.887 772.53 178.48 773.051 178.896 773.715C179.32 774.379 179.531 775.105 179.531 775.893H177.646C177.646 775.033 177.373 774.359 176.826 773.871C176.279 773.376 175.508 773.129 174.512 773.129C173.587 773.129 172.865 773.334 172.344 773.744C171.829 774.148 171.572 774.711 171.572 775.434C171.572 776.013 171.816 776.505 172.305 776.908C172.799 777.305 173.636 777.67 174.814 778.002C175.999 778.334 176.924 778.702 177.588 779.105C178.258 779.503 178.753 779.968 179.072 780.502C179.398 781.036 179.561 781.664 179.561 782.387C179.561 783.539 179.111 784.464 178.213 785.16C177.314 785.85 176.113 786.195 174.609 786.195C173.633 786.195 172.721 786.01 171.875 785.639C171.029 785.261 170.374 784.747 169.912 784.096C169.456 783.445 169.229 782.706 169.229 781.879H171.113C171.113 782.738 171.429 783.419 172.061 783.92C172.699 784.415 173.548 784.662 174.609 784.662C175.599 784.662 176.357 784.46 176.885 784.057C177.412 783.653 177.676 783.103 177.676 782.406C177.676 781.71 177.432 781.173 176.943 780.795C176.455 780.411 175.57 780.033 174.287 779.662ZM184.639 781.107L183.506 782.289V786H181.699V771H183.506V780.072L184.473 778.91L187.764 775.434H189.961L185.85 779.848L190.439 786H188.32L184.639 781.107ZM193.789 786H191.982V775.434H193.789V786ZM191.836 772.631C191.836 772.338 191.924 772.09 192.1 771.889C192.282 771.687 192.549 771.586 192.9 771.586C193.252 771.586 193.519 771.687 193.701 771.889C193.883 772.09 193.975 772.338 193.975 772.631C193.975 772.924 193.883 773.168 193.701 773.363C193.519 773.559 193.252 773.656 192.9 773.656C192.549 773.656 192.282 773.559 192.1 773.363C191.924 773.168 191.836 772.924 191.836 772.631ZM205.615 780.834C205.615 782.442 205.247 783.738 204.512 784.721C203.776 785.704 202.78 786.195 201.523 786.195C200.241 786.195 199.232 785.788 198.496 784.975V790.062H196.689V775.434H198.34L198.428 776.605C199.163 775.694 200.186 775.238 201.494 775.238C202.764 775.238 203.766 775.717 204.502 776.674C205.244 777.631 205.615 778.962 205.615 780.668V780.834ZM203.809 780.629C203.809 779.438 203.555 778.497 203.047 777.807C202.539 777.117 201.842 776.771 200.957 776.771C199.863 776.771 199.043 777.257 198.496 778.227V783.275C199.036 784.239 199.863 784.721 200.977 784.721C201.842 784.721 202.529 784.379 203.037 783.695C203.551 783.005 203.809 781.983 203.809 780.629Z" fill="white"/>
<path d="M118.809 363.781H122.227V373.537C122.227 374.442 122.015 375.249 121.592 375.959C121.175 376.669 120.589 377.219 119.834 377.609C119.085 378 118.249 378.195 117.324 378.195C115.775 378.195 114.57 377.805 113.711 377.023C112.852 376.242 112.422 375.135 112.422 373.703H115.859C115.859 374.354 115.97 374.826 116.191 375.119C116.419 375.412 116.797 375.559 117.324 375.559C117.799 375.559 118.164 375.383 118.418 375.031C118.678 374.673 118.809 374.175 118.809 373.537V363.781ZM123.828 372.619C123.828 371.564 124.033 370.627 124.443 369.807C124.854 368.98 125.443 368.345 126.211 367.902C126.979 367.46 127.881 367.238 128.916 367.238C130.498 367.238 131.745 367.73 132.656 368.713C133.568 369.689 134.023 371.021 134.023 372.707V372.824C134.023 374.471 133.564 375.78 132.646 376.75C131.735 377.714 130.498 378.195 128.936 378.195C127.432 378.195 126.224 377.746 125.312 376.848C124.401 375.943 123.91 374.719 123.838 373.176L123.828 372.619ZM127.119 372.824C127.119 373.801 127.272 374.517 127.578 374.973C127.884 375.428 128.337 375.656 128.936 375.656C130.107 375.656 130.706 374.755 130.732 372.951V372.619C130.732 370.725 130.127 369.777 128.916 369.777C127.816 369.777 127.22 370.594 127.129 372.229L127.119 372.824ZM141.768 376.857C141.071 377.749 140.13 378.195 138.945 378.195C137.786 378.195 136.908 377.86 136.309 377.189C135.716 376.512 135.42 375.542 135.42 374.279V367.434H138.711V374.299C138.711 375.204 139.15 375.656 140.029 375.656C140.785 375.656 141.322 375.386 141.641 374.846V367.434H144.951V378H141.865L141.768 376.857ZM153.154 370.412L152.07 370.334C151.035 370.334 150.371 370.66 150.078 371.311V378H146.787V367.434H149.873L149.98 368.791C150.534 367.756 151.305 367.238 152.295 367.238C152.646 367.238 152.952 367.277 153.213 367.355L153.154 370.412ZM157.363 367.434L157.471 368.674C158.2 367.717 159.206 367.238 160.488 367.238C161.589 367.238 162.409 367.567 162.949 368.225C163.496 368.882 163.779 369.872 163.799 371.193V378H160.498V371.33C160.498 370.796 160.391 370.406 160.176 370.158C159.961 369.904 159.57 369.777 159.004 369.777C158.359 369.777 157.881 370.031 157.568 370.539V378H154.277V367.434H157.363ZM171.582 378C171.465 377.785 171.361 377.469 171.27 377.053C170.664 377.814 169.818 378.195 168.73 378.195C167.734 378.195 166.888 377.896 166.191 377.297C165.495 376.691 165.146 375.933 165.146 375.021C165.146 373.876 165.57 373.01 166.416 372.424C167.262 371.838 168.493 371.545 170.107 371.545H171.123V370.988C171.123 370.018 170.703 369.533 169.863 369.533C169.082 369.533 168.691 369.917 168.691 370.686H165.4C165.4 369.663 165.833 368.833 166.699 368.195C167.572 367.557 168.682 367.238 170.029 367.238C171.377 367.238 172.441 367.567 173.223 368.225C174.004 368.882 174.404 369.784 174.424 370.93V375.607C174.437 376.577 174.587 377.32 174.873 377.834V378H171.582ZM169.521 375.852C169.932 375.852 170.27 375.764 170.537 375.588C170.811 375.412 171.006 375.214 171.123 374.992V373.303H170.166C169.02 373.303 168.447 373.817 168.447 374.846C168.447 375.145 168.548 375.389 168.75 375.578C168.952 375.76 169.209 375.852 169.521 375.852ZM179.727 378H176.426V363H179.727V378ZM190.322 373.176V378H186.895V363.781H192.568C193.656 363.781 194.616 363.983 195.449 364.387C196.289 364.784 196.937 365.354 197.393 366.096C197.855 366.831 198.086 367.668 198.086 368.605C198.086 369.992 197.588 371.102 196.592 371.936C195.602 372.762 194.242 373.176 192.51 373.176H190.322ZM190.322 370.529H192.568C193.232 370.529 193.737 370.363 194.082 370.031C194.434 369.699 194.609 369.23 194.609 368.625C194.609 367.961 194.43 367.43 194.072 367.033C193.714 366.636 193.226 366.434 192.607 366.428H190.322V370.529ZM206.162 370.412L205.078 370.334C204.043 370.334 203.379 370.66 203.086 371.311V378H199.795V367.434H202.881L202.988 368.791C203.542 367.756 204.313 367.238 205.303 367.238C205.654 367.238 205.96 367.277 206.221 367.355L206.162 370.412ZM206.582 372.619C206.582 371.564 206.787 370.627 207.197 369.807C207.607 368.98 208.197 368.345 208.965 367.902C209.733 367.46 210.635 367.238 211.67 367.238C213.252 367.238 214.499 367.73 215.41 368.713C216.322 369.689 216.777 371.021 216.777 372.707V372.824C216.777 374.471 216.318 375.78 215.4 376.75C214.489 377.714 213.252 378.195 211.689 378.195C210.186 378.195 208.978 377.746 208.066 376.848C207.155 375.943 206.663 374.719 206.592 373.176L206.582 372.619ZM209.873 372.824C209.873 373.801 210.026 374.517 210.332 374.973C210.638 375.428 211.09 375.656 211.689 375.656C212.861 375.656 213.46 374.755 213.486 372.951V372.619C213.486 370.725 212.881 369.777 211.67 369.777C210.57 369.777 209.974 370.594 209.883 372.229L209.873 372.824ZM221.338 367.434L221.445 368.674C222.194 367.717 223.2 367.238 224.463 367.238C225.798 367.238 226.699 367.769 227.168 368.83C227.884 367.769 228.919 367.238 230.273 367.238C232.415 367.238 233.516 368.534 233.574 371.125V378H230.273V371.33C230.273 370.79 230.182 370.396 230 370.148C229.818 369.901 229.486 369.777 229.004 369.777C228.353 369.777 227.868 370.067 227.549 370.646L227.559 370.783V378H224.258V371.35C224.258 370.796 224.17 370.396 223.994 370.148C223.818 369.901 223.483 369.777 222.988 369.777C222.357 369.777 221.875 370.067 221.543 370.646V378H218.252V367.434H221.338ZM245.264 372.795C245.264 374.436 244.893 375.747 244.15 376.73C243.415 377.707 242.419 378.195 241.162 378.195C240.192 378.195 239.395 377.84 238.77 377.131V382.062H235.479V367.434H238.555L238.652 368.41C239.284 367.629 240.114 367.238 241.143 367.238C242.445 367.238 243.457 367.72 244.18 368.684C244.902 369.641 245.264 370.959 245.264 372.639V372.795ZM241.973 372.59C241.973 370.715 241.426 369.777 240.332 369.777C239.551 369.777 239.03 370.057 238.77 370.617V374.777C239.056 375.363 239.583 375.656 240.352 375.656C241.4 375.656 241.94 374.751 241.973 372.941V372.59ZM250.557 364.807V367.434H252.295V369.719H250.557V374.553C250.557 374.95 250.628 375.227 250.771 375.383C250.915 375.539 251.198 375.617 251.621 375.617C251.947 375.617 252.22 375.598 252.441 375.559V377.912C251.849 378.101 251.23 378.195 250.586 378.195C249.453 378.195 248.617 377.928 248.076 377.395C247.536 376.861 247.266 376.05 247.266 374.963V369.719H245.918V367.434H247.266V364.807H250.557ZM259.131 375.031C259.131 374.751 258.984 374.527 258.691 374.357C258.398 374.188 257.842 374.012 257.021 373.83C256.201 373.648 255.524 373.41 254.99 373.117C254.456 372.818 254.049 372.456 253.77 372.033C253.49 371.61 253.35 371.125 253.35 370.578C253.35 369.608 253.75 368.811 254.551 368.186C255.352 367.554 256.4 367.238 257.695 367.238C259.089 367.238 260.208 367.554 261.055 368.186C261.901 368.817 262.324 369.647 262.324 370.676H259.023C259.023 369.829 258.577 369.406 257.686 369.406C257.34 369.406 257.051 369.504 256.816 369.699C256.582 369.888 256.465 370.126 256.465 370.412C256.465 370.705 256.608 370.943 256.895 371.125C257.181 371.307 257.637 371.457 258.262 371.574C258.893 371.691 259.447 371.831 259.922 371.994C261.51 372.541 262.305 373.521 262.305 374.934C262.305 375.897 261.875 376.682 261.016 377.287C260.163 377.893 259.056 378.195 257.695 378.195C256.79 378.195 255.983 378.033 255.273 377.707C254.564 377.382 254.01 376.939 253.613 376.379C253.216 375.819 253.018 375.23 253.018 374.611H256.094C256.107 375.1 256.27 375.458 256.582 375.686C256.895 375.907 257.295 376.018 257.783 376.018C258.232 376.018 258.568 375.926 258.789 375.744C259.017 375.562 259.131 375.324 259.131 375.031ZM162.178 429.488C162.002 430.992 161.445 432.154 160.508 432.975C159.577 433.788 158.337 434.195 156.787 434.195C155.107 434.195 153.76 433.593 152.744 432.389C151.735 431.184 151.23 429.573 151.23 427.555V426.188C151.23 424.866 151.465 423.704 151.934 422.701C152.409 421.699 153.079 420.93 153.945 420.396C154.811 419.856 155.814 419.586 156.953 419.586C158.464 419.586 159.674 420.009 160.586 420.855C161.497 421.695 162.028 422.861 162.178 424.352H160.293C160.13 423.219 159.775 422.398 159.229 421.891C158.688 421.383 157.93 421.129 156.953 421.129C155.755 421.129 154.814 421.572 154.131 422.457C153.454 423.342 153.115 424.602 153.115 426.236V427.613C153.115 429.156 153.438 430.383 154.082 431.295C154.727 432.206 155.628 432.662 156.787 432.662C157.829 432.662 158.626 432.428 159.18 431.959C159.74 431.484 160.111 430.66 160.293 429.488H162.178ZM170.986 434C170.882 433.792 170.798 433.421 170.732 432.887C169.893 433.759 168.89 434.195 167.725 434.195C166.683 434.195 165.827 433.902 165.156 433.316C164.492 432.724 164.16 431.975 164.16 431.07C164.16 429.97 164.577 429.117 165.41 428.512C166.25 427.9 167.428 427.594 168.945 427.594H170.703V426.764C170.703 426.132 170.514 425.631 170.137 425.26C169.759 424.882 169.202 424.693 168.467 424.693C167.822 424.693 167.282 424.856 166.846 425.182C166.41 425.507 166.191 425.901 166.191 426.363H164.375C164.375 425.836 164.561 425.328 164.932 424.84C165.309 424.345 165.817 423.954 166.455 423.668C167.1 423.382 167.806 423.238 168.574 423.238C169.792 423.238 170.745 423.544 171.436 424.156C172.126 424.762 172.484 425.598 172.51 426.666V431.529C172.51 432.499 172.633 433.271 172.881 433.844V434H170.986ZM167.988 432.623C168.555 432.623 169.092 432.477 169.6 432.184C170.107 431.891 170.475 431.51 170.703 431.041V428.873H169.287C167.074 428.873 165.967 429.521 165.967 430.816C165.967 431.383 166.156 431.826 166.533 432.145C166.911 432.464 167.396 432.623 167.988 432.623ZM184.268 428.834C184.268 430.442 183.9 431.738 183.164 432.721C182.428 433.704 181.432 434.195 180.176 434.195C178.893 434.195 177.884 433.788 177.148 432.975V438.062H175.342V423.434H176.992L177.08 424.605C177.816 423.694 178.838 423.238 180.146 423.238C181.416 423.238 182.419 423.717 183.154 424.674C183.896 425.631 184.268 426.962 184.268 428.668V428.834ZM182.461 428.629C182.461 427.438 182.207 426.497 181.699 425.807C181.191 425.117 180.495 424.771 179.609 424.771C178.516 424.771 177.695 425.257 177.148 426.227V431.275C177.689 432.239 178.516 432.721 179.629 432.721C180.495 432.721 181.182 432.379 181.689 431.695C182.204 431.005 182.461 429.983 182.461 428.629ZM189.023 420.875V423.434H190.996V424.83H189.023V431.383C189.023 431.806 189.111 432.125 189.287 432.34C189.463 432.548 189.762 432.652 190.186 432.652C190.394 432.652 190.68 432.613 191.045 432.535V434C190.57 434.13 190.107 434.195 189.658 434.195C188.851 434.195 188.242 433.951 187.832 433.463C187.422 432.975 187.217 432.281 187.217 431.383V424.83H185.293V423.434H187.217V420.875H189.023ZM199.639 432.955C198.936 433.782 197.904 434.195 196.543 434.195C195.417 434.195 194.557 433.87 193.965 433.219C193.379 432.561 193.083 431.591 193.076 430.309V423.434H194.883V430.26C194.883 431.861 195.534 432.662 196.836 432.662C198.216 432.662 199.134 432.148 199.59 431.119V423.434H201.396V434H199.678L199.639 432.955ZM209.258 425.055C208.984 425.009 208.688 424.986 208.369 424.986C207.184 424.986 206.38 425.491 205.957 426.5V434H204.15V423.434H205.908L205.938 424.654C206.53 423.71 207.37 423.238 208.457 423.238C208.809 423.238 209.076 423.284 209.258 423.375V425.055ZM215.117 434.195C213.685 434.195 212.52 433.727 211.621 432.789C210.723 431.845 210.273 430.585 210.273 429.01V428.678C210.273 427.63 210.472 426.695 210.869 425.875C211.273 425.048 211.833 424.404 212.549 423.941C213.271 423.473 214.053 423.238 214.893 423.238C216.266 423.238 217.334 423.691 218.096 424.596C218.857 425.501 219.238 426.796 219.238 428.482V429.234H212.08C212.106 430.276 212.409 431.119 212.988 431.764C213.574 432.402 214.316 432.721 215.215 432.721C215.853 432.721 216.393 432.59 216.836 432.33C217.279 432.07 217.666 431.725 217.998 431.295L219.102 432.154C218.216 433.515 216.888 434.195 215.117 434.195ZM214.893 424.723C214.163 424.723 213.551 424.99 213.057 425.523C212.562 426.051 212.256 426.793 212.139 427.75H217.432V427.613C217.38 426.695 217.132 425.986 216.689 425.484C216.247 424.977 215.648 424.723 214.893 424.723ZM126.562 453.055C126.289 453.009 125.993 452.986 125.674 452.986C124.489 452.986 123.685 453.491 123.262 454.5V462H121.455V451.434H123.213L123.242 452.654C123.835 451.71 124.674 451.238 125.762 451.238C126.113 451.238 126.38 451.284 126.562 451.375V453.055ZM132.422 462.195C130.99 462.195 129.824 461.727 128.926 460.789C128.027 459.845 127.578 458.585 127.578 457.01V456.678C127.578 455.63 127.777 454.695 128.174 453.875C128.577 453.048 129.137 452.404 129.854 451.941C130.576 451.473 131.357 451.238 132.197 451.238C133.571 451.238 134.639 451.691 135.4 452.596C136.162 453.501 136.543 454.796 136.543 456.482V457.234H129.385C129.411 458.276 129.714 459.119 130.293 459.764C130.879 460.402 131.621 460.721 132.52 460.721C133.158 460.721 133.698 460.59 134.141 460.33C134.583 460.07 134.971 459.725 135.303 459.295L136.406 460.154C135.521 461.515 134.193 462.195 132.422 462.195ZM132.197 452.723C131.468 452.723 130.856 452.99 130.361 453.523C129.867 454.051 129.561 454.793 129.443 455.75H134.736V455.613C134.684 454.695 134.437 453.986 133.994 453.484C133.551 452.977 132.952 452.723 132.197 452.723ZM140.605 462H138.799V447H140.605V462ZM147.891 462.195C146.458 462.195 145.293 461.727 144.395 460.789C143.496 459.845 143.047 458.585 143.047 457.01V456.678C143.047 455.63 143.245 454.695 143.643 453.875C144.046 453.048 144.606 452.404 145.322 451.941C146.045 451.473 146.826 451.238 147.666 451.238C149.04 451.238 150.107 451.691 150.869 452.596C151.631 453.501 152.012 454.796 152.012 456.482V457.234H144.854C144.88 458.276 145.182 459.119 145.762 459.764C146.348 460.402 147.09 460.721 147.988 460.721C148.626 460.721 149.167 460.59 149.609 460.33C150.052 460.07 150.439 459.725 150.771 459.295L151.875 460.154C150.99 461.515 149.661 462.195 147.891 462.195ZM147.666 452.723C146.937 452.723 146.325 452.99 145.83 453.523C145.335 454.051 145.029 454.793 144.912 455.75H150.205V455.613C150.153 454.695 149.906 453.986 149.463 453.484C149.02 452.977 148.421 452.723 147.666 452.723ZM157.461 459.549L160.078 451.434H161.924L158.135 462H156.758L152.93 451.434H154.775L157.461 459.549ZM170.029 462C169.925 461.792 169.84 461.421 169.775 460.887C168.936 461.759 167.933 462.195 166.768 462.195C165.726 462.195 164.87 461.902 164.199 461.316C163.535 460.724 163.203 459.975 163.203 459.07C163.203 457.97 163.62 457.117 164.453 456.512C165.293 455.9 166.471 455.594 167.988 455.594H169.746V454.764C169.746 454.132 169.557 453.631 169.18 453.26C168.802 452.882 168.245 452.693 167.51 452.693C166.865 452.693 166.325 452.856 165.889 453.182C165.452 453.507 165.234 453.901 165.234 454.363H163.418C163.418 453.836 163.604 453.328 163.975 452.84C164.352 452.345 164.86 451.954 165.498 451.668C166.143 451.382 166.849 451.238 167.617 451.238C168.835 451.238 169.788 451.544 170.479 452.156C171.169 452.762 171.527 453.598 171.553 454.666V459.529C171.553 460.499 171.676 461.271 171.924 461.844V462H170.029ZM167.031 460.623C167.598 460.623 168.135 460.477 168.643 460.184C169.15 459.891 169.518 459.51 169.746 459.041V456.873H168.33C166.117 456.873 165.01 457.521 165.01 458.816C165.01 459.383 165.199 459.826 165.576 460.145C165.954 460.464 166.439 460.623 167.031 460.623ZM176.094 451.434L176.152 452.762C176.96 451.746 178.014 451.238 179.316 451.238C181.549 451.238 182.676 452.498 182.695 455.018V462H180.889V455.008C180.882 454.246 180.706 453.683 180.361 453.318C180.023 452.954 179.492 452.771 178.77 452.771C178.184 452.771 177.669 452.928 177.227 453.24C176.784 453.553 176.439 453.963 176.191 454.471V462H174.385V451.434H176.094ZM187.871 448.875V451.434H189.844V452.83H187.871V459.383C187.871 459.806 187.959 460.125 188.135 460.34C188.311 460.548 188.61 460.652 189.033 460.652C189.242 460.652 189.528 460.613 189.893 460.535V462C189.417 462.13 188.955 462.195 188.506 462.195C187.699 462.195 187.09 461.951 186.68 461.463C186.27 460.975 186.064 460.281 186.064 459.383V452.83H184.141V451.434H186.064V448.875H187.871ZM196.484 456.629C196.484 455.008 196.868 453.706 197.637 452.723C198.405 451.733 199.411 451.238 200.654 451.238C201.891 451.238 202.871 451.661 203.594 452.508V447H205.4V462H203.74L203.652 460.867C202.93 461.753 201.924 462.195 200.635 462.195C199.411 462.195 198.411 461.694 197.637 460.691C196.868 459.689 196.484 458.38 196.484 456.766V456.629ZM198.291 456.834C198.291 458.032 198.538 458.969 199.033 459.646C199.528 460.324 200.212 460.662 201.084 460.662C202.23 460.662 203.066 460.148 203.594 459.119V454.266C203.053 453.27 202.223 452.771 201.104 452.771C200.218 452.771 199.528 453.113 199.033 453.797C198.538 454.48 198.291 455.493 198.291 456.834ZM212.598 462.195C211.165 462.195 210 461.727 209.102 460.789C208.203 459.845 207.754 458.585 207.754 457.01V456.678C207.754 455.63 207.952 454.695 208.35 453.875C208.753 453.048 209.313 452.404 210.029 451.941C210.752 451.473 211.533 451.238 212.373 451.238C213.747 451.238 214.814 451.691 215.576 452.596C216.338 453.501 216.719 454.796 216.719 456.482V457.234H209.561C209.587 458.276 209.889 459.119 210.469 459.764C211.055 460.402 211.797 460.721 212.695 460.721C213.333 460.721 213.874 460.59 214.316 460.33C214.759 460.07 215.146 459.725 215.479 459.295L216.582 460.154C215.697 461.515 214.368 462.195 212.598 462.195ZM212.373 452.723C211.644 452.723 211.032 452.99 210.537 453.523C210.042 454.051 209.736 454.793 209.619 455.75H214.912V455.613C214.86 454.695 214.613 453.986 214.17 453.484C213.727 452.977 213.128 452.723 212.373 452.723ZM221.27 448.875V451.434H223.242V452.83H221.27V459.383C221.27 459.806 221.357 460.125 221.533 460.34C221.709 460.548 222.008 460.652 222.432 460.652C222.64 460.652 222.926 460.613 223.291 460.535V462C222.816 462.13 222.354 462.195 221.904 462.195C221.097 462.195 220.488 461.951 220.078 461.463C219.668 460.975 219.463 460.281 219.463 459.383V452.83H217.539V451.434H219.463V448.875H221.27ZM231.885 462C231.781 461.792 231.696 461.421 231.631 460.887C230.791 461.759 229.788 462.195 228.623 462.195C227.581 462.195 226.725 461.902 226.055 461.316C225.391 460.724 225.059 459.975 225.059 459.07C225.059 457.97 225.475 457.117 226.309 456.512C227.148 455.9 228.327 455.594 229.844 455.594H231.602V454.764C231.602 454.132 231.413 453.631 231.035 453.26C230.658 452.882 230.101 452.693 229.365 452.693C228.721 452.693 228.18 452.856 227.744 453.182C227.308 453.507 227.09 453.901 227.09 454.363H225.273C225.273 453.836 225.459 453.328 225.83 452.84C226.208 452.345 226.715 451.954 227.354 451.668C227.998 451.382 228.704 451.238 229.473 451.238C230.69 451.238 231.644 451.544 232.334 452.156C233.024 452.762 233.382 453.598 233.408 454.666V459.529C233.408 460.499 233.532 461.271 233.779 461.844V462H231.885ZM228.887 460.623C229.453 460.623 229.99 460.477 230.498 460.184C231.006 459.891 231.374 459.51 231.602 459.041V456.873H230.186C227.972 456.873 226.865 457.521 226.865 458.816C226.865 459.383 227.054 459.826 227.432 460.145C227.809 460.464 228.294 460.623 228.887 460.623ZM238.203 462H236.396V451.434H238.203V462ZM236.25 448.631C236.25 448.338 236.338 448.09 236.514 447.889C236.696 447.687 236.963 447.586 237.314 447.586C237.666 447.586 237.933 447.687 238.115 447.889C238.298 448.09 238.389 448.338 238.389 448.631C238.389 448.924 238.298 449.168 238.115 449.363C237.933 449.559 237.666 449.656 237.314 449.656C236.963 449.656 236.696 449.559 236.514 449.363C236.338 449.168 236.25 448.924 236.25 448.631ZM243.066 462H241.26V447H243.066V462ZM252.119 459.197C252.119 458.709 251.934 458.331 251.562 458.064C251.198 457.791 250.557 457.557 249.639 457.361C248.727 457.166 248.001 456.932 247.461 456.658C246.927 456.385 246.53 456.059 246.27 455.682C246.016 455.304 245.889 454.855 245.889 454.334C245.889 453.468 246.253 452.736 246.982 452.137C247.718 451.538 248.656 451.238 249.795 451.238C250.993 451.238 251.963 451.548 252.705 452.166C253.454 452.785 253.828 453.576 253.828 454.539H252.012C252.012 454.044 251.8 453.618 251.377 453.26C250.96 452.902 250.433 452.723 249.795 452.723C249.137 452.723 248.623 452.866 248.252 453.152C247.881 453.439 247.695 453.813 247.695 454.275C247.695 454.712 247.868 455.04 248.213 455.262C248.558 455.483 249.18 455.695 250.078 455.896C250.983 456.098 251.715 456.339 252.275 456.619C252.835 456.899 253.249 457.238 253.516 457.635C253.789 458.025 253.926 458.504 253.926 459.07C253.926 460.014 253.548 460.773 252.793 461.346C252.038 461.912 251.058 462.195 249.854 462.195C249.007 462.195 248.258 462.046 247.607 461.746C246.956 461.447 246.445 461.03 246.074 460.496C245.71 459.956 245.527 459.373 245.527 458.748H247.334C247.367 459.354 247.607 459.835 248.057 460.193C248.512 460.545 249.111 460.721 249.854 460.721C250.537 460.721 251.084 460.584 251.494 460.311C251.911 460.031 252.119 459.66 252.119 459.197ZM102.871 476.875V479.434H104.844V480.83H102.871V487.383C102.871 487.806 102.959 488.125 103.135 488.34C103.311 488.548 103.61 488.652 104.033 488.652C104.242 488.652 104.528 488.613 104.893 488.535V490C104.417 490.13 103.955 490.195 103.506 490.195C102.699 490.195 102.09 489.951 101.68 489.463C101.27 488.975 101.064 488.281 101.064 487.383V480.83H99.1406V479.434H101.064V476.875H102.871ZM108.77 480.713C109.57 479.73 110.612 479.238 111.895 479.238C114.128 479.238 115.254 480.498 115.273 483.018V490H113.467V483.008C113.46 482.246 113.285 481.683 112.939 481.318C112.601 480.954 112.07 480.771 111.348 480.771C110.762 480.771 110.247 480.928 109.805 481.24C109.362 481.553 109.017 481.963 108.77 482.471V490H106.963V475H108.77V480.713ZM124.502 490C124.398 489.792 124.313 489.421 124.248 488.887C123.408 489.759 122.406 490.195 121.24 490.195C120.199 490.195 119.342 489.902 118.672 489.316C118.008 488.724 117.676 487.975 117.676 487.07C117.676 485.97 118.092 485.117 118.926 484.512C119.766 483.9 120.944 483.594 122.461 483.594H124.219V482.764C124.219 482.132 124.03 481.631 123.652 481.26C123.275 480.882 122.718 480.693 121.982 480.693C121.338 480.693 120.798 480.856 120.361 481.182C119.925 481.507 119.707 481.901 119.707 482.363H117.891C117.891 481.836 118.076 481.328 118.447 480.84C118.825 480.345 119.333 479.954 119.971 479.668C120.615 479.382 121.322 479.238 122.09 479.238C123.307 479.238 124.261 479.544 124.951 480.156C125.641 480.762 125.999 481.598 126.025 482.666V487.529C126.025 488.499 126.149 489.271 126.396 489.844V490H124.502ZM121.504 488.623C122.07 488.623 122.607 488.477 123.115 488.184C123.623 487.891 123.991 487.51 124.219 487.041V484.873H122.803C120.589 484.873 119.482 485.521 119.482 486.816C119.482 487.383 119.671 487.826 120.049 488.145C120.426 488.464 120.911 488.623 121.504 488.623ZM131.309 476.875V479.434H133.281V480.83H131.309V487.383C131.309 487.806 131.396 488.125 131.572 488.34C131.748 488.548 132.048 488.652 132.471 488.652C132.679 488.652 132.965 488.613 133.33 488.535V490C132.855 490.13 132.393 490.195 131.943 490.195C131.136 490.195 130.527 489.951 130.117 489.463C129.707 488.975 129.502 488.281 129.502 487.383V480.83H127.578V479.434H129.502V476.875H131.309ZM143.818 487.354L146.279 479.434H148.213L143.965 491.631C143.307 493.389 142.262 494.268 140.83 494.268L140.488 494.238L139.814 494.111V492.646L140.303 492.686C140.915 492.686 141.39 492.562 141.729 492.314C142.074 492.067 142.357 491.615 142.578 490.957L142.979 489.883L139.209 479.434H141.182L143.818 487.354ZM149.199 484.619C149.199 483.584 149.401 482.653 149.805 481.826C150.215 480.999 150.781 480.361 151.504 479.912C152.233 479.463 153.063 479.238 153.994 479.238C155.433 479.238 156.595 479.736 157.48 480.732C158.372 481.729 158.818 483.053 158.818 484.707V484.834C158.818 485.863 158.62 486.787 158.223 487.607C157.832 488.421 157.269 489.056 156.533 489.512C155.804 489.967 154.964 490.195 154.014 490.195C152.581 490.195 151.419 489.697 150.527 488.701C149.642 487.705 149.199 486.387 149.199 484.746V484.619ZM151.016 484.834C151.016 486.006 151.286 486.947 151.826 487.656C152.373 488.366 153.102 488.721 154.014 488.721C154.932 488.721 155.661 488.363 156.201 487.646C156.742 486.924 157.012 485.915 157.012 484.619C157.012 483.46 156.735 482.523 156.182 481.807C155.635 481.084 154.906 480.723 153.994 480.723C153.102 480.723 152.383 481.077 151.836 481.787C151.289 482.497 151.016 483.512 151.016 484.834ZM167.607 488.955C166.904 489.782 165.872 490.195 164.512 490.195C163.385 490.195 162.526 489.87 161.934 489.219C161.348 488.561 161.051 487.591 161.045 486.309V479.434H162.852V486.26C162.852 487.861 163.503 488.662 164.805 488.662C166.185 488.662 167.103 488.148 167.559 487.119V479.434H169.365V490H167.646L167.607 488.955ZM177.227 481.055C176.953 481.009 176.657 480.986 176.338 480.986C175.153 480.986 174.349 481.491 173.926 482.5V490H172.119V479.434H173.877L173.906 480.654C174.499 479.71 175.339 479.238 176.426 479.238C176.777 479.238 177.044 479.284 177.227 479.375V481.055ZM185.664 480.713C186.465 479.73 187.507 479.238 188.789 479.238C191.022 479.238 192.148 480.498 192.168 483.018V490H190.361V483.008C190.355 482.246 190.179 481.683 189.834 481.318C189.495 480.954 188.965 480.771 188.242 480.771C187.656 480.771 187.142 480.928 186.699 481.24C186.257 481.553 185.911 481.963 185.664 482.471V490H183.857V475H185.664V480.713ZM199.258 490.195C197.826 490.195 196.66 489.727 195.762 488.789C194.863 487.845 194.414 486.585 194.414 485.01V484.678C194.414 483.63 194.613 482.695 195.01 481.875C195.413 481.048 195.973 480.404 196.689 479.941C197.412 479.473 198.193 479.238 199.033 479.238C200.407 479.238 201.475 479.691 202.236 480.596C202.998 481.501 203.379 482.796 203.379 484.482V485.234H196.221C196.247 486.276 196.549 487.119 197.129 487.764C197.715 488.402 198.457 488.721 199.355 488.721C199.993 488.721 200.534 488.59 200.977 488.33C201.419 488.07 201.807 487.725 202.139 487.295L203.242 488.154C202.357 489.515 201.029 490.195 199.258 490.195ZM199.033 480.723C198.304 480.723 197.692 480.99 197.197 481.523C196.702 482.051 196.396 482.793 196.279 483.75H201.572V483.613C201.52 482.695 201.273 481.986 200.83 481.484C200.387 480.977 199.788 480.723 199.033 480.723ZM212.002 490C211.898 489.792 211.813 489.421 211.748 488.887C210.908 489.759 209.906 490.195 208.74 490.195C207.699 490.195 206.842 489.902 206.172 489.316C205.508 488.724 205.176 487.975 205.176 487.07C205.176 485.97 205.592 485.117 206.426 484.512C207.266 483.9 208.444 483.594 209.961 483.594H211.719V482.764C211.719 482.132 211.53 481.631 211.152 481.26C210.775 480.882 210.218 480.693 209.482 480.693C208.838 480.693 208.298 480.856 207.861 481.182C207.425 481.507 207.207 481.901 207.207 482.363H205.391C205.391 481.836 205.576 481.328 205.947 480.84C206.325 480.345 206.833 479.954 207.471 479.668C208.115 479.382 208.822 479.238 209.59 479.238C210.807 479.238 211.761 479.544 212.451 480.156C213.141 480.762 213.499 481.598 213.525 482.666V487.529C213.525 488.499 213.649 489.271 213.896 489.844V490H212.002ZM209.004 488.623C209.57 488.623 210.107 488.477 210.615 488.184C211.123 487.891 211.491 487.51 211.719 487.041V484.873H210.303C208.089 484.873 206.982 485.521 206.982 486.816C206.982 487.383 207.171 487.826 207.549 488.145C207.926 488.464 208.411 488.623 209.004 488.623ZM218.32 490H216.514V475H218.32V490ZM223.672 476.875V479.434H225.645V480.83H223.672V487.383C223.672 487.806 223.76 488.125 223.936 488.34C224.111 488.548 224.411 488.652 224.834 488.652C225.042 488.652 225.329 488.613 225.693 488.535V490C225.218 490.13 224.756 490.195 224.307 490.195C223.499 490.195 222.891 489.951 222.48 489.463C222.07 488.975 221.865 488.281 221.865 487.383V480.83H219.941V479.434H221.865V476.875H223.672ZM229.57 480.713C230.371 479.73 231.413 479.238 232.695 479.238C234.928 479.238 236.055 480.498 236.074 483.018V490H234.268V483.008C234.261 482.246 234.085 481.683 233.74 481.318C233.402 480.954 232.871 480.771 232.148 480.771C231.562 480.771 231.048 480.928 230.605 481.24C230.163 481.553 229.818 481.963 229.57 482.471V490H227.764V475H229.57V480.713ZM243.018 488.721C243.662 488.721 244.225 488.525 244.707 488.135C245.189 487.744 245.456 487.256 245.508 486.67H247.217C247.184 487.275 246.976 487.852 246.592 488.398C246.208 488.945 245.693 489.382 245.049 489.707C244.411 490.033 243.734 490.195 243.018 490.195C241.579 490.195 240.433 489.717 239.58 488.76C238.734 487.796 238.311 486.481 238.311 484.814V484.512C238.311 483.483 238.499 482.568 238.877 481.768C239.255 480.967 239.795 480.345 240.498 479.902C241.208 479.46 242.044 479.238 243.008 479.238C244.193 479.238 245.176 479.593 245.957 480.303C246.745 481.012 247.165 481.934 247.217 483.066H245.508C245.456 482.383 245.195 481.823 244.727 481.387C244.264 480.944 243.691 480.723 243.008 480.723C242.09 480.723 241.377 481.055 240.869 481.719C240.368 482.376 240.117 483.33 240.117 484.58V484.922C240.117 486.139 240.368 487.077 240.869 487.734C241.37 488.392 242.087 488.721 243.018 488.721ZM255.771 490C255.667 489.792 255.583 489.421 255.518 488.887C254.678 489.759 253.675 490.195 252.51 490.195C251.468 490.195 250.612 489.902 249.941 489.316C249.277 488.724 248.945 487.975 248.945 487.07C248.945 485.97 249.362 485.117 250.195 484.512C251.035 483.9 252.214 483.594 253.73 483.594H255.488V482.764C255.488 482.132 255.299 481.631 254.922 481.26C254.544 480.882 253.988 480.693 253.252 480.693C252.607 480.693 252.067 480.856 251.631 481.182C251.195 481.507 250.977 481.901 250.977 482.363H249.16C249.16 481.836 249.346 481.328 249.717 480.84C250.094 480.345 250.602 479.954 251.24 479.668C251.885 479.382 252.591 479.238 253.359 479.238C254.577 479.238 255.531 479.544 256.221 480.156C256.911 480.762 257.269 481.598 257.295 482.666V487.529C257.295 488.499 257.419 489.271 257.666 489.844V490H255.771ZM252.773 488.623C253.34 488.623 253.877 488.477 254.385 488.184C254.893 487.891 255.26 487.51 255.488 487.041V484.873H254.072C251.859 484.873 250.752 485.521 250.752 486.816C250.752 487.383 250.941 487.826 251.318 488.145C251.696 488.464 252.181 488.623 252.773 488.623ZM265.234 481.055C264.961 481.009 264.665 480.986 264.346 480.986C263.161 480.986 262.357 481.491 261.934 482.5V490H260.127V479.434H261.885L261.914 480.654C262.507 479.71 263.346 479.238 264.434 479.238C264.785 479.238 265.052 479.284 265.234 479.375V481.055ZM271.094 490.195C269.661 490.195 268.496 489.727 267.598 488.789C266.699 487.845 266.25 486.585 266.25 485.01V484.678C266.25 483.63 266.449 482.695 266.846 481.875C267.249 481.048 267.809 480.404 268.525 479.941C269.248 479.473 270.029 479.238 270.869 479.238C272.243 479.238 273.311 479.691 274.072 480.596C274.834 481.501 275.215 482.796 275.215 484.482V485.234H268.057C268.083 486.276 268.385 487.119 268.965 487.764C269.551 488.402 270.293 488.721 271.191 488.721C271.829 488.721 272.37 488.59 272.812 488.33C273.255 488.07 273.643 487.725 273.975 487.295L275.078 488.154C274.193 489.515 272.865 490.195 271.094 490.195ZM270.869 480.723C270.14 480.723 269.528 480.99 269.033 481.523C268.538 482.051 268.232 482.793 268.115 483.75H273.408V483.613C273.356 482.695 273.109 481.986 272.666 481.484C272.223 480.977 271.624 480.723 270.869 480.723ZM139.199 512.834C139.199 514.442 138.831 515.738 138.096 516.721C137.36 517.704 136.364 518.195 135.107 518.195C133.825 518.195 132.816 517.788 132.08 516.975V522.062H130.273V507.434H131.924L132.012 508.605C132.747 507.694 133.77 507.238 135.078 507.238C136.348 507.238 137.35 507.717 138.086 508.674C138.828 509.631 139.199 510.962 139.199 512.668V512.834ZM137.393 512.629C137.393 511.438 137.139 510.497 136.631 509.807C136.123 509.117 135.426 508.771 134.541 508.771C133.447 508.771 132.627 509.257 132.08 510.227V515.275C132.62 516.239 133.447 516.721 134.561 516.721C135.426 516.721 136.113 516.379 136.621 515.695C137.135 515.005 137.393 513.983 137.393 512.629ZM146.611 509.055C146.338 509.009 146.042 508.986 145.723 508.986C144.538 508.986 143.734 509.491 143.311 510.5V518H141.504V507.434H143.262L143.291 508.654C143.883 507.71 144.723 507.238 145.811 507.238C146.162 507.238 146.429 507.284 146.611 507.375V509.055ZM147.607 512.619C147.607 511.584 147.809 510.653 148.213 509.826C148.623 508.999 149.189 508.361 149.912 507.912C150.641 507.463 151.471 507.238 152.402 507.238C153.841 507.238 155.003 507.736 155.889 508.732C156.781 509.729 157.227 511.053 157.227 512.707V512.834C157.227 513.863 157.028 514.787 156.631 515.607C156.24 516.421 155.677 517.056 154.941 517.512C154.212 517.967 153.372 518.195 152.422 518.195C150.99 518.195 149.827 517.697 148.936 516.701C148.05 515.705 147.607 514.387 147.607 512.746V512.619ZM149.424 512.834C149.424 514.006 149.694 514.947 150.234 515.656C150.781 516.366 151.51 516.721 152.422 516.721C153.34 516.721 154.069 516.363 154.609 515.646C155.15 514.924 155.42 513.915 155.42 512.619C155.42 511.46 155.143 510.523 154.59 509.807C154.043 509.084 153.314 508.723 152.402 508.723C151.51 508.723 150.791 509.077 150.244 509.787C149.697 510.497 149.424 511.512 149.424 512.834ZM162.822 515.549L165.439 507.434H167.285L163.496 518H162.119L158.291 507.434H160.137L162.822 515.549ZM170.986 518H169.18V507.434H170.986V518ZM169.033 504.631C169.033 504.338 169.121 504.09 169.297 503.889C169.479 503.687 169.746 503.586 170.098 503.586C170.449 503.586 170.716 503.687 170.898 503.889C171.081 504.09 171.172 504.338 171.172 504.631C171.172 504.924 171.081 505.168 170.898 505.363C170.716 505.559 170.449 505.656 170.098 505.656C169.746 505.656 169.479 505.559 169.297 505.363C169.121 505.168 169.033 504.924 169.033 504.631ZM173.447 512.629C173.447 511.008 173.831 509.706 174.6 508.723C175.368 507.733 176.374 507.238 177.617 507.238C178.854 507.238 179.834 507.661 180.557 508.508V503H182.363V518H180.703L180.615 516.867C179.893 517.753 178.887 518.195 177.598 518.195C176.374 518.195 175.374 517.694 174.6 516.691C173.831 515.689 173.447 514.38 173.447 512.766V512.629ZM175.254 512.834C175.254 514.032 175.501 514.969 175.996 515.646C176.491 516.324 177.174 516.662 178.047 516.662C179.193 516.662 180.029 516.148 180.557 515.119V510.266C180.016 509.27 179.186 508.771 178.066 508.771C177.181 508.771 176.491 509.113 175.996 509.797C175.501 510.48 175.254 511.493 175.254 512.834ZM189.561 518.195C188.128 518.195 186.963 517.727 186.064 516.789C185.166 515.845 184.717 514.585 184.717 513.01V512.678C184.717 511.63 184.915 510.695 185.312 509.875C185.716 509.048 186.276 508.404 186.992 507.941C187.715 507.473 188.496 507.238 189.336 507.238C190.71 507.238 191.777 507.691 192.539 508.596C193.301 509.501 193.682 510.796 193.682 512.482V513.234H186.523C186.549 514.276 186.852 515.119 187.432 515.764C188.018 516.402 188.76 516.721 189.658 516.721C190.296 516.721 190.837 516.59 191.279 516.33C191.722 516.07 192.109 515.725 192.441 515.295L193.545 516.154C192.66 517.515 191.331 518.195 189.561 518.195ZM189.336 508.723C188.607 508.723 187.995 508.99 187.5 509.523C187.005 510.051 186.699 510.793 186.582 511.75H191.875V511.613C191.823 510.695 191.576 509.986 191.133 509.484C190.69 508.977 190.091 508.723 189.336 508.723ZM200.889 509.055C200.615 509.009 200.319 508.986 200 508.986C198.815 508.986 198.011 509.491 197.588 510.5V518H195.781V507.434H197.539L197.568 508.654C198.161 507.71 199.001 507.238 200.088 507.238C200.439 507.238 200.706 507.284 200.889 507.375V509.055ZM208.711 515.197C208.711 514.709 208.525 514.331 208.154 514.064C207.79 513.791 207.148 513.557 206.23 513.361C205.319 513.166 204.593 512.932 204.053 512.658C203.519 512.385 203.122 512.059 202.861 511.682C202.607 511.304 202.48 510.855 202.48 510.334C202.48 509.468 202.845 508.736 203.574 508.137C204.31 507.538 205.247 507.238 206.387 507.238C207.585 507.238 208.555 507.548 209.297 508.166C210.046 508.785 210.42 509.576 210.42 510.539H208.604C208.604 510.044 208.392 509.618 207.969 509.26C207.552 508.902 207.025 508.723 206.387 508.723C205.729 508.723 205.215 508.866 204.844 509.152C204.473 509.439 204.287 509.813 204.287 510.275C204.287 510.712 204.46 511.04 204.805 511.262C205.15 511.483 205.771 511.695 206.67 511.896C207.575 512.098 208.307 512.339 208.867 512.619C209.427 512.899 209.84 513.238 210.107 513.635C210.381 514.025 210.518 514.504 210.518 515.07C210.518 516.014 210.14 516.773 209.385 517.346C208.63 517.912 207.65 518.195 206.445 518.195C205.599 518.195 204.85 518.046 204.199 517.746C203.548 517.447 203.037 517.03 202.666 516.496C202.301 515.956 202.119 515.373 202.119 514.748H203.926C203.958 515.354 204.199 515.835 204.648 516.193C205.104 516.545 205.703 516.721 206.445 516.721C207.129 516.721 207.676 516.584 208.086 516.311C208.503 516.031 208.711 515.66 208.711 515.197ZM227.188 515.51L229.219 507.434H231.025L227.949 518H226.484L223.916 509.992L221.416 518H219.951L216.885 507.434H218.682L220.762 515.344L223.223 507.434H224.678L227.188 515.51ZM234.834 518H233.027V507.434H234.834V518ZM232.881 504.631C232.881 504.338 232.969 504.09 233.145 503.889C233.327 503.687 233.594 503.586 233.945 503.586C234.297 503.586 234.564 503.687 234.746 503.889C234.928 504.09 235.02 504.338 235.02 504.631C235.02 504.924 234.928 505.168 234.746 505.363C234.564 505.559 234.297 505.656 233.945 505.656C233.594 505.656 233.327 505.559 233.145 505.363C232.969 505.168 232.881 504.924 232.881 504.631ZM239.697 518H237.891V503H239.697V518ZM244.561 518H242.754V503H244.561V518ZM138.828 543.51L140.859 535.434H142.666L139.59 546H138.125L135.557 537.992L133.057 546H131.592L128.525 535.434H130.322L132.402 543.344L134.863 535.434H136.318L138.828 543.51ZM151.035 546C150.931 545.792 150.846 545.421 150.781 544.887C149.941 545.759 148.939 546.195 147.773 546.195C146.732 546.195 145.876 545.902 145.205 545.316C144.541 544.724 144.209 543.975 144.209 543.07C144.209 541.97 144.626 541.117 145.459 540.512C146.299 539.9 147.477 539.594 148.994 539.594H150.752V538.764C150.752 538.132 150.563 537.631 150.186 537.26C149.808 536.882 149.251 536.693 148.516 536.693C147.871 536.693 147.331 536.856 146.895 537.182C146.458 537.507 146.24 537.901 146.24 538.363H144.424C144.424 537.836 144.609 537.328 144.98 536.84C145.358 536.345 145.866 535.954 146.504 535.668C147.148 535.382 147.855 535.238 148.623 535.238C149.84 535.238 150.794 535.544 151.484 536.156C152.174 536.762 152.533 537.598 152.559 538.666V543.529C152.559 544.499 152.682 545.271 152.93 545.844V546H151.035ZM148.037 544.623C148.604 544.623 149.141 544.477 149.648 544.184C150.156 543.891 150.524 543.51 150.752 543.041V540.873H149.336C147.122 540.873 146.016 541.521 146.016 542.816C146.016 543.383 146.204 543.826 146.582 544.145C146.96 544.464 147.445 544.623 148.037 544.623ZM157.1 535.434L157.158 536.762C157.965 535.746 159.02 535.238 160.322 535.238C162.555 535.238 163.682 536.498 163.701 539.018V546H161.895V539.008C161.888 538.246 161.712 537.683 161.367 537.318C161.029 536.954 160.498 536.771 159.775 536.771C159.189 536.771 158.675 536.928 158.232 537.24C157.79 537.553 157.445 537.963 157.197 538.471V546H155.391V535.434H157.1ZM168.877 532.875V535.434H170.85V536.83H168.877V543.383C168.877 543.806 168.965 544.125 169.141 544.34C169.316 544.548 169.616 544.652 170.039 544.652C170.247 544.652 170.534 544.613 170.898 544.535V546C170.423 546.13 169.961 546.195 169.512 546.195C168.704 546.195 168.096 545.951 167.686 545.463C167.275 544.975 167.07 544.281 167.07 543.383V536.83H165.146V535.434H167.07V532.875H168.877ZM180.381 532.875V535.434H182.354V536.83H180.381V543.383C180.381 543.806 180.469 544.125 180.645 544.34C180.82 544.548 181.12 544.652 181.543 544.652C181.751 544.652 182.038 544.613 182.402 544.535V546C181.927 546.13 181.465 546.195 181.016 546.195C180.208 546.195 179.6 545.951 179.189 545.463C178.779 544.975 178.574 544.281 178.574 543.383V536.83H176.65V535.434H178.574V532.875H180.381ZM183.799 540.619C183.799 539.584 184.001 538.653 184.404 537.826C184.814 536.999 185.381 536.361 186.104 535.912C186.833 535.463 187.663 535.238 188.594 535.238C190.033 535.238 191.195 535.736 192.08 536.732C192.972 537.729 193.418 539.053 193.418 540.707V540.834C193.418 541.863 193.219 542.787 192.822 543.607C192.432 544.421 191.868 545.056 191.133 545.512C190.404 545.967 189.564 546.195 188.613 546.195C187.181 546.195 186.019 545.697 185.127 544.701C184.242 543.705 183.799 542.387 183.799 540.746V540.619ZM185.615 540.834C185.615 542.006 185.885 542.947 186.426 543.656C186.973 544.366 187.702 544.721 188.613 544.721C189.531 544.721 190.26 544.363 190.801 543.646C191.341 542.924 191.611 541.915 191.611 540.619C191.611 539.46 191.335 538.523 190.781 537.807C190.234 537.084 189.505 536.723 188.594 536.723C187.702 536.723 186.982 537.077 186.436 537.787C185.889 538.497 185.615 539.512 185.615 540.834ZM203.594 541.107L202.461 542.289V546H200.654V531H202.461V540.072L203.428 538.91L206.719 535.434H208.916L204.805 539.848L209.395 546H207.275L203.594 541.107ZM212.49 535.434L212.549 536.762C213.356 535.746 214.411 535.238 215.713 535.238C217.946 535.238 219.072 536.498 219.092 539.018V546H217.285V539.008C217.279 538.246 217.103 537.683 216.758 537.318C216.419 536.954 215.889 536.771 215.166 536.771C214.58 536.771 214.066 536.928 213.623 537.24C213.18 537.553 212.835 537.963 212.588 538.471V546H210.781V535.434H212.49ZM221.338 540.619C221.338 539.584 221.54 538.653 221.943 537.826C222.354 536.999 222.92 536.361 223.643 535.912C224.372 535.463 225.202 535.238 226.133 535.238C227.572 535.238 228.734 535.736 229.619 536.732C230.511 537.729 230.957 539.053 230.957 540.707V540.834C230.957 541.863 230.758 542.787 230.361 543.607C229.971 544.421 229.408 545.056 228.672 545.512C227.943 545.967 227.103 546.195 226.152 546.195C224.72 546.195 223.558 545.697 222.666 544.701C221.781 543.705 221.338 542.387 221.338 540.746V540.619ZM223.154 540.834C223.154 542.006 223.424 542.947 223.965 543.656C224.512 544.366 225.241 544.721 226.152 544.721C227.07 544.721 227.799 544.363 228.34 543.646C228.88 542.924 229.15 541.915 229.15 540.619C229.15 539.46 228.874 538.523 228.32 537.807C227.773 537.084 227.044 536.723 226.133 536.723C225.241 536.723 224.521 537.077 223.975 537.787C223.428 538.497 223.154 539.512 223.154 540.834ZM242.578 543.51L244.609 535.434H246.416L243.34 546H241.875L239.307 537.992L236.807 546H235.342L232.275 535.434H234.072L236.152 543.344L238.613 535.434H240.068L242.578 543.51Z" fill="#C1BEBE"/>
</g>
<defs>
<clipPath id="clip0">
<rect width="375" height="812" fill="white"/>
</clipPath>
</defs>
</svg>
