<svg width="375" height="812" viewBox="0 0 375 812" fill="none" xmlns="http://www.w3.org/2000/svg">
<g clip-path="url(#clip0)">
<rect width="375" height="812" fill="white"/>
<g filter="url(#filter0_bd)">
<path fill-rule="evenodd" clip-rule="evenodd" d="M0 0H375V88H0V0Z" fill="#F8F8F8"/>
</g>
<path d="M359.625 64.25H357.838C357.7 63.975 357.562 63.7 357.562 63.425L358.8 62.1875C359.35 61.6375 359.35 60.8125 358.8 60.2625L356.875 58.3375C356.325 57.7875 355.5 57.7875 354.95 58.3375L353.713 59.575C353.438 59.4375 353.162 59.3 352.887 59.3V57.375C352.887 56.55 352.337 56 351.512 56H348.762C347.937 56 347.387 56.55 347.387 57.375V59.1625C347.112 59.3 346.838 59.4375 346.562 59.4375L345.325 58.2C344.775 57.65 343.95 57.65 343.4 58.2L341.475 60.125C340.925 60.675 340.925 61.5 341.475 62.05L342.713 63.2875C342.575 63.5625 342.438 63.8375 342.438 64.1125H340.375C339.55 64.1125 339 64.6625 339 65.4875V68.2375C339 69.0625 339.55 69.6125 340.375 69.6125H342.162C342.3 69.8875 342.438 70.1625 342.438 70.4375L341.2 71.675C340.65 72.225 340.65 73.05 341.2 73.6L343.125 75.525C343.675 76.075 344.5 76.075 345.05 75.525L346.287 74.2875C346.562 74.425 346.838 74.5625 347.113 74.5625V76.625C347.113 77.45 347.663 78 348.488 78H351.238C352.063 78 352.613 77.45 352.613 76.625V74.8375C352.888 74.7 353.162 74.5625 353.438 74.5625L354.675 75.8C355.225 76.35 356.05 76.35 356.6 75.8L358.525 73.875C359.075 73.325 359.075 72.5 358.525 71.95L357.287 70.7125C357.425 70.4375 357.562 70.1625 357.562 69.8875H359.625C360.45 69.8875 361 69.3375 361 68.5125V65.7625C361 64.8 360.45 64.25 359.625 64.25ZM359.625 67.6875C359.625 68.1 359.35 68.375 358.938 68.375H356.738C356.6 69.2 356.188 70.025 355.775 70.85L356.738 71.8125L357.287 72.3625C357.562 72.6375 357.562 73.05 357.287 73.325L356.325 74.2875C356.05 74.5625 355.638 74.5625 355.363 74.2875L354.812 73.7375L353.85 72.775C353.162 73.1875 352.337 73.6 351.375 73.7375V75.9375C351.375 76.35 351.1 76.625 350.688 76.625H349.312C348.9 76.625 348.625 76.35 348.625 75.9375V73.7375C347.8 73.6 346.975 73.1875 346.15 72.775L345.05 73.875L344.637 74.2875C344.362 74.5625 343.95 74.5625 343.675 74.2875L342.713 73.325C342.438 73.05 342.438 72.6375 342.713 72.3625L343.263 71.8125L344.225 70.85C343.812 70.1625 343.4 69.3375 343.263 68.375H341.062C340.65 68.375 340.375 68.1 340.375 67.6875V66.3125C340.375 65.9 340.65 65.625 341.062 65.625H343.263C343.4 64.8 343.812 63.975 344.225 63.15L343.263 62.1875L342.713 61.6375C342.438 61.3625 342.438 60.95 342.713 60.675L343.675 59.7125C343.95 59.4375 344.362 59.4375 344.637 59.7125L345.188 60.2625L346.15 61.225C346.838 60.8125 347.663 60.4 348.625 60.2625V58.0625C348.625 57.65 348.9 57.375 349.312 57.375H350.688C351.1 57.375 351.375 57.65 351.375 58.0625V60.2625C352.2 60.4 353.025 60.8125 353.85 61.225L354.812 60.2625L355.363 59.7125C355.638 59.4375 356.05 59.4375 356.325 59.7125L357.287 60.675C357.562 60.95 357.562 61.3625 357.287 61.6375L356.738 62.1875L355.775 63.15C356.188 63.8375 356.6 64.6625 356.738 65.625H358.938C359.35 65.625 359.625 65.9 359.625 66.3125V67.6875V67.6875ZM350 63.15C347.938 63.15 346.15 64.8 346.15 67C346.15 69.0625 347.8 70.85 350 70.85C352.062 70.85 353.85 69.2 353.85 67C353.712 64.9375 352.062 63.15 350 63.15Z" fill="#C4C4C4"/>
<path d="M349 79C356.18 79 362 73.1797 362 66C362 58.8203 356.18 53 349 53C341.82 53 336 58.8203 336 66C336 73.1797 341.82 79 349 79Z" fill="#EBEBEC"/>
<g opacity="0.1">
<path d="M355.43 61.9459C355.011 61.5265 354.312 61.5265 353.893 61.9459L346.903 68.9351L343.548 65.4405C343.129 65.0211 342.43 65.0211 342.011 65.4405C341.591 65.8598 341.591 66.5588 342.011 66.9781L346.204 71.1717C346.624 71.591 347.323 71.591 347.742 71.1717L355.43 63.4835C355.85 63.0641 355.85 62.3652 355.43 61.9459Z" fill="#010101"/>
</g>
<path d="M132.569 73.2988C135.333 73.2988 137.359 71.647 137.641 69.1982H135.533C135.242 70.543 134.088 71.3896 132.569 71.3896C130.527 71.3896 129.257 69.7129 129.257 67.0068C129.257 64.3091 130.527 62.6323 132.561 62.6323C134.072 62.6323 135.225 63.562 135.524 64.998H137.633C137.384 62.4995 135.283 60.7231 132.561 60.7231C129.166 60.7231 127.066 63.1221 127.066 67.0151C127.066 70.8916 129.174 73.2988 132.569 73.2988ZM139.422 73H141.473V63.9189H139.422V73ZM140.443 62.4414C141.199 62.4414 141.713 61.96 141.713 61.3042C141.713 60.6484 141.199 60.167 140.443 60.167C139.696 60.167 139.173 60.6484 139.173 61.3042C139.173 61.96 139.696 62.4414 140.443 62.4414ZM143.619 73H145.678V67.7124C145.678 66.376 146.45 65.5293 147.678 65.5293C148.932 65.5293 149.513 66.2266 149.513 67.6128V73H151.571V67.123C151.571 64.9565 150.467 63.7363 148.442 63.7363C147.089 63.7363 146.176 64.3589 145.744 65.3716H145.603V63.9189H143.619V73ZM156.889 73.1494C158.151 73.1494 159.197 72.5601 159.711 71.564H159.852V73H161.845V60.4077H159.786V65.3633H159.645C159.163 64.3672 158.134 63.7695 156.889 63.7695C154.598 63.7695 153.154 65.5791 153.154 68.4512C153.154 71.3398 154.59 73.1494 156.889 73.1494ZM157.528 65.521C158.939 65.521 159.811 66.6499 159.811 68.4595C159.811 70.2856 158.948 71.3979 157.528 71.3979C156.117 71.3979 155.262 70.2939 155.262 68.4595C155.262 66.6333 156.125 65.521 157.528 65.521ZM165.029 76.2954C167.062 76.2954 168.034 75.5483 168.806 73.2905L172.084 63.9189H169.91L167.793 71.0078H167.652L165.527 63.9189H163.269L166.515 73.0415L166.407 73.4399C166.141 74.2783 165.651 74.6104 164.78 74.6104C164.639 74.6104 164.331 74.6021 164.215 74.5771V76.2622C164.348 76.2871 164.904 76.2954 165.029 76.2954ZM174.986 65.8779L176.422 61.022H174.314L173.542 65.8779H174.986ZM177.15 66.5171C177.15 67.8867 177.971 68.6919 179.715 69.0903L181.325 69.4639C182.188 69.6548 182.578 69.9785 182.578 70.4932C182.578 71.1655 181.856 71.6221 180.819 71.6221C179.789 71.6221 179.15 71.2236 178.951 70.5513H176.917C177.075 72.2031 178.503 73.1826 180.769 73.1826C183.035 73.1826 184.637 72.0205 184.637 70.2773C184.637 68.9409 183.832 68.1938 182.097 67.8037L180.495 67.4385C179.582 67.231 179.15 66.9155 179.15 66.4009C179.15 65.7451 179.856 65.2969 180.794 65.2969C181.757 65.2969 182.363 65.7036 182.512 66.3428H184.446C184.297 64.6909 182.944 63.7363 180.785 63.7363C178.644 63.7363 177.15 64.8735 177.15 66.5171ZM189.827 69.7378C189.827 71.9043 191.371 73.2988 193.662 73.2988C196.069 73.2988 197.522 71.8877 197.522 69.4224V61.022H195.38V69.4058C195.38 70.6924 194.757 71.373 193.637 71.373C192.616 71.373 191.935 70.7256 191.919 69.7378H189.827ZM203.636 73.1826C206.35 73.1826 208.002 71.4062 208.002 68.4595C208.002 65.521 206.342 63.7363 203.636 63.7363C200.938 63.7363 199.27 65.5293 199.27 68.4595C199.27 71.4062 200.913 73.1826 203.636 73.1826ZM203.636 71.4561C202.2 71.4561 201.378 70.3604 201.378 68.4595C201.378 66.5669 202.2 65.4629 203.636 65.4629C205.064 65.4629 205.885 66.5669 205.885 68.4595C205.885 70.3604 205.072 71.4561 203.636 71.4561ZM217.57 63.9189H215.511V69.2065C215.511 70.5513 214.781 71.373 213.444 71.373C212.216 71.373 211.643 70.6924 211.643 69.3062V63.9189H209.584V69.8208C209.584 71.9458 210.746 73.1826 212.73 73.1826C214.117 73.1826 215.005 72.5933 215.445 71.5557H215.586V73H217.57V63.9189ZM219.683 73H221.742V67.7539C221.742 66.4839 222.671 65.6538 224.008 65.6538C224.357 65.6538 224.904 65.7119 225.062 65.77V63.8608C224.871 63.8027 224.506 63.7695 224.207 63.7695C223.037 63.7695 222.057 64.4336 221.808 65.3301H221.667V63.9189H219.683V73ZM226.462 73H228.52V67.7124C228.52 66.376 229.292 65.5293 230.521 65.5293C231.774 65.5293 232.355 66.2266 232.355 67.6128V73H234.414V67.123C234.414 64.9565 233.31 63.7363 231.284 63.7363C229.931 63.7363 229.018 64.3589 228.587 65.3716H228.446V63.9189H226.462V73ZM239.549 71.5308C238.636 71.5308 237.98 71.0742 237.98 70.3105C237.98 69.5718 238.519 69.1567 239.673 69.082L241.724 68.9492V69.6714C241.724 70.7256 240.794 71.5308 239.549 71.5308ZM238.943 73.1494C240.13 73.1494 241.126 72.6348 241.632 71.7549H241.773V73H243.757V66.7993C243.757 64.8735 242.446 63.7363 240.113 63.7363C237.955 63.7363 236.453 64.7573 236.286 66.3594H238.229C238.42 65.7451 239.067 65.4131 240.014 65.4131C241.126 65.4131 241.724 65.9111 241.724 66.7993V67.563L239.383 67.7041C237.175 67.8369 235.938 68.7832 235.938 70.4268C235.938 72.0869 237.191 73.1494 238.943 73.1494ZM245.912 73H247.971V60.4077H245.912V73Z" fill="black"/>
<path d="M33.2007 72C35.749 72 37.2598 70.7466 37.2598 68.6382C37.2598 67.0527 36.2222 65.9321 34.5869 65.7246V65.5918C35.7407 65.3843 36.6538 64.2554 36.6538 63.0103C36.6538 61.1758 35.3091 60.022 33.1094 60.022H28.5273V72H33.2007ZM30.0215 61.3418H32.7939C34.2798 61.3418 35.1431 62.0474 35.1431 63.2676C35.1431 64.5376 34.2217 65.1851 32.4121 65.1851H30.0215V61.3418ZM30.0215 70.6802V66.4717H32.8354C34.7446 66.4717 35.7241 67.1772 35.7241 68.5635C35.7241 69.9497 34.7778 70.6802 32.9766 70.6802H30.0215ZM41.8634 70.9043C40.8258 70.9043 40.0539 70.373 40.0539 69.46C40.0539 68.5635 40.6515 68.0903 42.0129 67.999L44.4201 67.8413V68.6631C44.4201 69.9414 43.3327 70.9043 41.8634 70.9043ZM41.5978 72.1577C42.7931 72.1577 43.7726 71.6348 44.3537 70.6802H44.4865V72H45.8478V65.874C45.8478 64.0146 44.6276 62.894 42.4445 62.894C40.5353 62.894 39.1242 63.8403 38.9333 65.2764H40.3776C40.5768 64.5708 41.3239 64.1641 42.3947 64.1641C43.7311 64.1641 44.4201 64.77 44.4201 65.874V66.6875L41.8385 66.8452C39.755 66.9697 38.5763 67.8911 38.5763 69.4932C38.5763 71.1284 39.8629 72.1577 41.5978 72.1577ZM55.4818 65.791C55.2327 64.1973 53.9046 62.894 51.7298 62.894C49.223 62.894 47.6292 64.7036 47.6292 67.4927C47.6292 70.3398 49.2313 72.1577 51.7381 72.1577C53.888 72.1577 55.2244 70.9458 55.4818 69.3022H54.0374C53.7718 70.3149 52.9334 70.8711 51.7298 70.8711C50.1361 70.8711 49.1068 69.5596 49.1068 67.4927C49.1068 65.4673 50.1195 64.1807 51.7298 64.1807C53.0164 64.1807 53.805 64.9028 54.0374 65.791H55.4818ZM58.8237 66.9614H58.6909V59.499H57.2632V72H58.6909V68.605L59.5459 67.8081L62.8994 72H64.7173L60.6084 66.8867L64.4599 63.0518H62.7085L58.8237 66.9614Z" fill="#007AFF"/>
<mask id="mask0" mask-type="alpha" maskUnits="userSpaceOnUse" x="8" y="55" width="13" height="22">
<path fill-rule="evenodd" clip-rule="evenodd" d="M18.3308 55.9855L8.96694 64.9755C8.4394 65.4812 8.4394 66.3255 8.96694 66.8333L18.3308 75.8212C18.905 76.3726 19.8116 76.3726 20.3859 75.8212C20.9934 75.2375 20.9934 74.2656 20.3859 73.6809L12.5434 66.1521C12.4011 66.016 12.4011 65.7907 12.5434 65.6546L20.3859 58.1258C20.9934 57.5422 20.9934 56.5702 20.3859 55.9855C20.0982 55.7114 19.7285 55.5732 19.3588 55.5732C18.9881 55.5732 18.6184 55.7114 18.3308 55.9855Z" fill="white"/>
</mask>
<g mask="url(#mask0)">
<path fill-rule="evenodd" clip-rule="evenodd" d="M18.3308 55.9855L8.96694 64.9755C8.4394 65.4812 8.4394 66.3255 8.96694 66.8333L18.3308 75.8212C18.905 76.3726 19.8116 76.3726 20.3859 75.8212C20.9934 75.2375 20.9934 74.2656 20.3859 73.6809L12.5434 66.1521C12.4011 66.016 12.4011 65.7907 12.5434 65.6546L20.3859 58.1258C20.9934 57.5422 20.9934 56.5702 20.3859 55.9855C20.0982 55.7114 19.7285 55.5732 19.3588 55.5732C18.9881 55.5732 18.6184 55.7114 18.3308 55.9855Z" fill="#007AFF"/>
</g>
<path opacity="0.35" d="M338.667 17.8335H355.333C356.53 17.8335 357.5 18.8035 357.5 20.0002V26.0002C357.5 27.1968 356.53 28.1668 355.333 28.1668H338.667C337.47 28.1668 336.5 27.1968 336.5 26.0002V20.0002C336.5 18.8035 337.47 17.8335 338.667 17.8335Z" stroke="black"/>
<path opacity="0.4" d="M359 21V25C359.805 24.6612 360.328 23.8731 360.328 23C360.328 22.1269 359.805 21.3388 359 21" fill="black"/>
<path d="M338 20.6668C338 19.9305 338.597 19.3335 339.333 19.3335H354.667C355.403 19.3335 356 19.9304 356 20.6668V25.3335C356 26.0699 355.403 26.6668 354.667 26.6668H339.333C338.597 26.6668 338 26.0699 338 25.3335V20.6668Z" fill="black"/>
<path fill-rule="evenodd" clip-rule="evenodd" d="M323.33 19.6079C325.546 19.608 327.678 20.4594 329.283 21.9862C329.404 22.1041 329.598 22.1026 329.717 21.9829L330.873 20.8162C330.933 20.7555 330.967 20.6733 330.966 20.5877C330.966 20.5021 330.931 20.4202 330.87 20.3602C326.655 16.3207 320.005 16.3207 315.79 20.3602C315.729 20.4202 315.694 20.502 315.694 20.5876C315.693 20.6732 315.727 20.7555 315.787 20.8162L316.943 21.9829C317.062 22.1028 317.256 22.1043 317.377 21.9862C318.983 20.4593 321.114 19.6079 323.33 19.6079ZM323.33 23.4036C324.548 23.4035 325.722 23.856 326.624 24.6732C326.747 24.7892 326.939 24.7867 327.058 24.6676L328.212 23.5009C328.273 23.4397 328.307 23.3567 328.306 23.2704C328.305 23.1842 328.27 23.1018 328.208 23.0419C325.46 20.4855 321.204 20.4855 318.455 23.0419C318.393 23.1018 318.358 23.1842 318.357 23.2705C318.356 23.3568 318.39 23.4398 318.451 23.5009L319.605 24.6676C319.724 24.7867 319.917 24.7892 320.039 24.6732C320.941 23.8566 322.114 23.4041 323.33 23.4036ZM325.643 25.9574C325.645 26.0439 325.611 26.1273 325.549 26.1879L323.552 28.2036C323.494 28.2628 323.414 28.2961 323.33 28.2961C323.247 28.2961 323.167 28.2628 323.109 28.2036L321.111 26.1879C321.049 26.1272 321.015 26.0438 321.017 25.9573C321.019 25.8708 321.057 25.7889 321.121 25.7309C322.396 24.652 324.265 24.652 325.54 25.7309C325.604 25.7889 325.642 25.8709 325.643 25.9574Z" fill="black"/>
<path fill-rule="evenodd" clip-rule="evenodd" d="M309.667 17.6665H308.667C308.114 17.6665 307.667 18.1142 307.667 18.6665V27.3332C307.667 27.8855 308.114 28.3332 308.667 28.3332H309.667C310.219 28.3332 310.667 27.8855 310.667 27.3332V18.6665C310.667 18.1142 310.219 17.6665 309.667 17.6665ZM304 19.9998H305C305.552 19.9998 306 20.4476 306 20.9998V27.3332C306 27.8855 305.552 28.3332 305 28.3332H304C303.448 28.3332 303 27.8855 303 27.3332V20.9998C303 20.4476 303.448 19.9998 304 19.9998ZM300.333 22.3332H299.333C298.781 22.3332 298.333 22.7809 298.333 23.3332V27.3332C298.333 27.8855 298.781 28.3332 299.333 28.3332H300.333C300.885 28.3332 301.333 27.8855 301.333 27.3332V23.3332C301.333 22.7809 300.885 22.3332 300.333 22.3332ZM295.667 24.3332H294.667C294.114 24.3332 293.667 24.7809 293.667 25.3332V27.3332C293.667 27.8855 294.114 28.3332 294.667 28.3332H295.667C296.219 28.3332 296.667 27.8855 296.667 27.3332V25.3332C296.667 24.7809 296.219 24.3332 295.667 24.3332Z" fill="black"/>
<path d="M37.2841 28.2563C39.9721 28.2563 41.5688 26.1543 41.5688 22.5947C41.5688 21.2544 41.3124 20.1265 40.8217 19.2549C40.1112 17.8999 38.8881 17.1675 37.3427 17.1675C35.0429 17.1675 33.4169 18.7129 33.4169 20.8809C33.4169 22.917 34.8817 24.3965 36.8959 24.3965C38.1337 24.3965 39.1371 23.8179 39.6352 22.8145H39.6571C39.6571 22.8145 39.6864 22.8145 39.6938 22.8145C39.7084 22.8145 39.7597 22.8145 39.7597 22.8145C39.7597 25.2314 38.8441 26.6743 37.2987 26.6743C36.3905 26.6743 35.6874 26.1763 35.4457 25.3779H33.5634C33.8783 27.1138 35.3505 28.2563 37.2841 28.2563ZM37.35 22.895C36.1342 22.895 35.2699 22.0308 35.2699 20.8223C35.2699 19.6431 36.1781 18.7422 37.3573 18.7422C38.5365 18.7422 39.4447 19.6577 39.4447 20.8516C39.4447 22.0308 38.5585 22.895 37.35 22.895ZM44.5866 26.8794C45.2824 26.8794 45.7585 26.3813 45.7585 25.7222C45.7585 25.0557 45.2824 24.5649 44.5866 24.5649C43.8981 24.5649 43.4147 25.0557 43.4147 25.7222C43.4147 26.3813 43.8981 26.8794 44.5866 26.8794ZM44.5866 21.3862C45.2824 21.3862 45.7585 20.8955 45.7585 20.2363C45.7585 19.5698 45.2824 19.0791 44.5866 19.0791C43.8981 19.0791 43.4147 19.5698 43.4147 20.2363C43.4147 20.8955 43.8981 21.3862 44.5866 21.3862ZM52.7607 28H54.5698V26.0298H55.998V24.4331H54.5698V17.4312H51.9038C50.0361 20.2437 48.5493 22.5947 47.5972 24.3452V26.0298H52.7607V28ZM49.3477 24.3672C50.5781 22.1992 51.6768 20.4634 52.6875 18.9692H52.79V24.4771H49.3477V24.3672ZM60.0267 28H61.9163V17.4312H60.034L57.2728 19.3647V21.1812L59.9021 19.3354H60.0267V28Z" fill="black"/>
<rect x="16" y="114" width="343" height="39" fill="#C4C4C4" fill-opacity="0.4"/>
<path d="M159.337 136.871C159.495 138.938 161.247 140.282 163.787 140.282C166.526 140.282 168.261 138.879 168.261 136.68C168.261 134.92 167.265 133.957 164.783 133.334L163.529 133.002C161.877 132.579 161.222 132.04 161.222 131.102C161.222 129.89 162.276 129.093 163.87 129.093C165.364 129.093 166.376 129.823 166.584 131.052H168.086C167.962 129.118 166.235 127.74 163.919 127.74C161.388 127.74 159.686 129.118 159.686 131.151C159.686 132.853 160.624 133.833 162.791 134.38L164.326 134.779C165.978 135.194 166.725 135.841 166.725 136.862C166.725 138.049 165.538 138.921 163.928 138.921C162.226 138.921 161.031 138.124 160.848 136.871H159.337ZM173.728 132.156C175.147 132.156 176.093 133.202 176.127 134.787H171.196C171.304 133.202 172.3 132.156 173.728 132.156ZM176.085 137.684C175.712 138.473 174.931 138.896 173.778 138.896C172.258 138.896 171.271 137.775 171.196 136.007V135.941H177.629V135.393C177.629 132.612 176.16 130.894 173.744 130.894C171.287 130.894 169.71 132.72 169.71 135.534C169.71 138.365 171.262 140.158 173.744 140.158C175.703 140.158 177.081 139.22 177.513 137.684H176.085ZM183.818 130.894C182.598 130.894 181.527 131.517 180.954 132.546H180.822V131.052H179.46V142.988H180.888V138.655H181.021C181.511 139.602 182.54 140.158 183.818 140.158C186.093 140.158 187.578 138.323 187.578 135.526C187.578 132.712 186.101 130.894 183.818 130.894ZM183.478 138.871C181.868 138.871 180.847 137.576 180.847 135.526C180.847 133.467 181.868 132.181 183.486 132.181C185.121 132.181 186.101 133.434 186.101 135.526C186.101 137.618 185.121 138.871 183.478 138.871ZM193.715 131.392V131.4H195.159V131.392C195.159 129.981 196.105 129.043 197.508 129.043C198.828 129.043 199.849 129.964 199.849 131.16C199.849 132.123 199.475 132.77 197.931 134.447L193.789 138.971V140H201.542V138.655H195.931V138.522L198.811 135.426C200.778 133.318 201.343 132.347 201.343 131.102C201.343 129.201 199.699 127.74 197.549 127.74C195.325 127.74 193.715 129.267 193.715 131.392ZM207.681 140.282C210.371 140.282 211.915 138.008 211.915 134.032C211.915 130.064 210.346 127.74 207.681 127.74C205 127.74 203.431 130.056 203.431 134.007C203.431 137.991 204.984 140.282 207.681 140.282ZM207.681 138.979C205.913 138.979 204.934 137.211 204.934 134.007C204.934 130.844 205.93 129.051 207.681 129.051C209.433 129.051 210.412 130.828 210.412 134.007C210.412 137.219 209.45 138.979 207.681 138.979Z" fill="black"/>
<path d="M92.6309 189.24C92.6309 191.051 92.3177 192.643 91.6914 194.014C91.0651 195.376 90.168 196.426 89 197.162C87.8405 197.89 86.5033 198.254 84.9883 198.254C83.4902 198.254 82.153 197.89 80.9766 197.162C79.8086 196.426 78.903 195.381 78.2598 194.026C77.625 192.672 77.3034 191.111 77.2949 189.342V188.301C77.2949 186.498 77.6123 184.907 78.2471 183.527C78.8903 182.148 79.7917 181.094 80.9512 180.366C82.1191 179.63 83.4564 179.262 84.9629 179.262C86.4694 179.262 87.8024 179.626 88.9619 180.354C90.1299 181.073 91.0312 182.114 91.666 183.477C92.3008 184.831 92.6224 186.409 92.6309 188.212V189.24ZM89.4189 188.275C89.4189 186.227 89.0296 184.657 88.251 183.565C87.4808 182.474 86.3848 181.928 84.9629 181.928C83.5749 181.928 82.4873 182.474 81.7002 183.565C80.9215 184.649 80.5238 186.185 80.5068 188.174V189.24C80.5068 191.271 80.9004 192.841 81.6875 193.95C82.4831 195.059 83.5833 195.613 84.9883 195.613C86.4102 195.613 87.502 195.072 88.2637 193.988C89.0339 192.905 89.4189 191.322 89.4189 189.24V188.275ZM98.3945 184.264L98.4834 185.851C99.499 184.623 100.832 184.01 102.482 184.01C105.343 184.01 106.799 185.647 106.85 188.923V198H103.765V189.101C103.765 188.229 103.574 187.586 103.193 187.171C102.821 186.748 102.207 186.536 101.353 186.536C100.108 186.536 99.1816 187.099 98.5723 188.225V198H95.4873V184.264H98.3945ZM117.704 194.268C117.704 193.717 117.476 193.299 117.019 193.011C116.57 192.723 115.821 192.469 114.771 192.249C113.722 192.029 112.846 191.75 112.144 191.411C110.603 190.666 109.833 189.587 109.833 188.174C109.833 186.989 110.332 185.999 111.331 185.203C112.33 184.408 113.599 184.01 115.14 184.01C116.782 184.01 118.106 184.416 119.113 185.229C120.129 186.041 120.637 187.095 120.637 188.39H117.552C117.552 187.797 117.332 187.306 116.892 186.917C116.451 186.519 115.868 186.32 115.14 186.32C114.463 186.32 113.908 186.477 113.477 186.79C113.053 187.103 112.842 187.522 112.842 188.047C112.842 188.521 113.041 188.889 113.438 189.151C113.836 189.414 114.64 189.68 115.851 189.951C117.061 190.214 118.009 190.531 118.694 190.903C119.388 191.267 119.9 191.707 120.23 192.224C120.569 192.74 120.738 193.366 120.738 194.103C120.738 195.338 120.226 196.341 119.202 197.111C118.178 197.873 116.837 198.254 115.178 198.254C114.052 198.254 113.049 198.051 112.169 197.645C111.289 197.238 110.603 196.68 110.112 195.969C109.621 195.258 109.376 194.492 109.376 193.671H112.372C112.414 194.399 112.689 194.962 113.197 195.359C113.705 195.749 114.378 195.943 115.216 195.943C116.028 195.943 116.646 195.791 117.069 195.486C117.493 195.173 117.704 194.767 117.704 194.268ZM129.485 198.254C127.53 198.254 125.943 197.64 124.725 196.413C123.514 195.177 122.909 193.535 122.909 191.487V191.106C122.909 189.735 123.172 188.512 123.696 187.438C124.229 186.354 124.974 185.512 125.931 184.911C126.887 184.31 127.953 184.01 129.13 184.01C131 184.01 132.443 184.606 133.459 185.8C134.483 186.993 134.995 188.682 134.995 190.865V192.109H126.02C126.113 193.243 126.489 194.141 127.149 194.801C127.818 195.461 128.656 195.791 129.663 195.791C131.076 195.791 132.228 195.22 133.116 194.077L134.779 195.664C134.229 196.485 133.493 197.124 132.57 197.581C131.656 198.03 130.628 198.254 129.485 198.254ZM129.117 186.485C128.271 186.485 127.585 186.782 127.061 187.374C126.544 187.966 126.214 188.792 126.07 189.85H131.948V189.621C131.881 188.589 131.605 187.81 131.123 187.285C130.641 186.752 129.972 186.485 129.117 186.485ZM141.267 180.925V184.264H143.691V186.549H141.267V194.217C141.267 194.742 141.368 195.122 141.571 195.359C141.783 195.588 142.155 195.702 142.688 195.702C143.044 195.702 143.404 195.66 143.768 195.575V197.962C143.065 198.157 142.388 198.254 141.736 198.254C139.367 198.254 138.182 196.946 138.182 194.331V186.549H135.922V184.264H138.182V180.925H141.267Z" fill="#C1BEBE"/>
<path d="M28.0654 229.834C27.9365 231.199 27.4326 232.266 26.5537 233.033C25.6748 233.795 24.5059 234.176 23.0469 234.176C22.0273 234.176 21.1279 233.936 20.3486 233.455C19.5752 232.969 18.9775 232.28 18.5557 231.39C18.1338 230.499 17.9141 229.465 17.8965 228.287V227.092C17.8965 225.885 18.1104 224.821 18.5381 223.901C18.9658 222.981 19.5781 222.272 20.375 221.774C21.1777 221.276 22.1035 221.027 23.1523 221.027C24.5645 221.027 25.7012 221.411 26.5625 222.179C27.4238 222.946 27.9248 224.03 28.0654 225.431H25.8506C25.7451 224.511 25.4756 223.849 25.042 223.444C24.6143 223.034 23.9844 222.829 23.1523 222.829C22.1855 222.829 21.4414 223.184 20.9199 223.893C20.4043 224.596 20.1406 225.63 20.1289 226.995V228.129C20.1289 229.512 20.375 230.566 20.8672 231.293C21.3652 232.02 22.0918 232.383 23.0469 232.383C23.9199 232.383 24.5762 232.187 25.0156 231.794C25.4551 231.401 25.7334 230.748 25.8506 229.834H28.0654ZM34.833 226.441C34.5518 226.395 34.2617 226.371 33.9629 226.371C32.9844 226.371 32.3252 226.746 31.9854 227.496V234H29.8496V224.49H31.8887L31.9414 225.554C32.457 224.728 33.1719 224.314 34.0859 224.314C34.3906 224.314 34.6426 224.355 34.8418 224.438L34.833 226.441ZM40.1943 234.176C38.8408 234.176 37.7422 233.751 36.8984 232.901C36.0605 232.046 35.6416 230.909 35.6416 229.491V229.228C35.6416 228.278 35.8232 227.432 36.1865 226.688C36.5557 225.938 37.0713 225.354 37.7334 224.938C38.3955 224.522 39.1338 224.314 39.9482 224.314C41.2432 224.314 42.2422 224.728 42.9453 225.554C43.6543 226.38 44.0088 227.549 44.0088 229.061V229.922H37.7949C37.8594 230.707 38.1201 231.328 38.5771 231.785C39.04 232.242 39.6201 232.471 40.3174 232.471C41.2959 232.471 42.0928 232.075 42.708 231.284L43.8594 232.383C43.4785 232.951 42.9688 233.394 42.3301 233.71C41.6973 234.021 40.9854 234.176 40.1943 234.176ZM39.9395 226.028C39.3535 226.028 38.8789 226.233 38.5156 226.644C38.1582 227.054 37.9297 227.625 37.8301 228.357H41.8994V228.199C41.8525 227.484 41.6621 226.945 41.3281 226.582C40.9941 226.213 40.5312 226.028 39.9395 226.028ZM51.3564 234C51.2627 233.818 51.1807 233.522 51.1104 233.112C50.4307 233.821 49.5986 234.176 48.6143 234.176C47.6592 234.176 46.8799 233.903 46.2764 233.358C45.6729 232.813 45.3711 232.14 45.3711 231.337C45.3711 230.323 45.7461 229.547 46.4961 229.008C47.252 228.463 48.3301 228.19 49.7305 228.19H51.04V227.566C51.04 227.074 50.9023 226.682 50.627 226.389C50.3516 226.09 49.9326 225.94 49.3701 225.94C48.8838 225.94 48.4854 226.063 48.1748 226.31C47.8643 226.55 47.709 226.857 47.709 227.232H45.5732C45.5732 226.711 45.7461 226.225 46.0918 225.773C46.4375 225.316 46.9062 224.959 47.498 224.701C48.0957 224.443 48.7607 224.314 49.4932 224.314C50.6064 224.314 51.4941 224.596 52.1562 225.158C52.8184 225.715 53.1582 226.5 53.1758 227.514V231.803C53.1758 232.658 53.2959 233.341 53.5361 233.851V234H51.3564ZM49.0098 232.462C49.4316 232.462 49.8271 232.359 50.1963 232.154C50.5713 231.949 50.8525 231.674 51.04 231.328V229.535H49.8887C49.0977 229.535 48.5029 229.673 48.1045 229.948C47.7061 230.224 47.5068 230.613 47.5068 231.117C47.5068 231.527 47.6416 231.855 47.9111 232.102C48.1865 232.342 48.5527 232.462 49.0098 232.462ZM58.0889 222.179V224.49H59.7676V226.072H58.0889V231.381C58.0889 231.744 58.1592 232.008 58.2998 232.172C58.4463 232.33 58.7041 232.409 59.0732 232.409C59.3193 232.409 59.5684 232.38 59.8203 232.321V233.974C59.334 234.108 58.8652 234.176 58.4141 234.176C56.7734 234.176 55.9531 233.271 55.9531 231.46V226.072H54.3887V224.49H55.9531V222.179H58.0889ZM65.5947 234.176C64.2412 234.176 63.1426 233.751 62.2988 232.901C61.4609 232.046 61.042 230.909 61.042 229.491V229.228C61.042 228.278 61.2236 227.432 61.5869 226.688C61.9561 225.938 62.4717 225.354 63.1338 224.938C63.7959 224.522 64.5342 224.314 65.3486 224.314C66.6436 224.314 67.6426 224.728 68.3457 225.554C69.0547 226.38 69.4092 227.549 69.4092 229.061V229.922H63.1953C63.2598 230.707 63.5205 231.328 63.9775 231.785C64.4404 232.242 65.0205 232.471 65.7178 232.471C66.6963 232.471 67.4932 232.075 68.1084 231.284L69.2598 232.383C68.8789 232.951 68.3691 233.394 67.7305 233.71C67.0977 234.021 66.3857 234.176 65.5947 234.176ZM65.3398 226.028C64.7539 226.028 64.2793 226.233 63.916 226.644C63.5586 227.054 63.3301 227.625 63.2305 228.357H67.2998V228.199C67.2529 227.484 67.0625 226.945 66.7285 226.582C66.3945 226.213 65.9316 226.028 65.3398 226.028ZM81.2393 234C81.1455 233.818 81.0635 233.522 80.9932 233.112C80.3135 233.821 79.4814 234.176 78.4971 234.176C77.542 234.176 76.7627 233.903 76.1592 233.358C75.5557 232.813 75.2539 232.14 75.2539 231.337C75.2539 230.323 75.6289 229.547 76.3789 229.008C77.1348 228.463 78.2129 228.19 79.6133 228.19H80.9229V227.566C80.9229 227.074 80.7852 226.682 80.5098 226.389C80.2344 226.09 79.8154 225.94 79.2529 225.94C78.7666 225.94 78.3682 226.063 78.0576 226.31C77.7471 226.55 77.5918 226.857 77.5918 227.232H75.4561C75.4561 226.711 75.6289 226.225 75.9746 225.773C76.3203 225.316 76.7891 224.959 77.3809 224.701C77.9785 224.443 78.6436 224.314 79.376 224.314C80.4893 224.314 81.377 224.596 82.0391 225.158C82.7012 225.715 83.041 226.5 83.0586 227.514V231.803C83.0586 232.658 83.1787 233.341 83.4189 233.851V234H81.2393ZM78.8926 232.462C79.3145 232.462 79.71 232.359 80.0791 232.154C80.4541 231.949 80.7354 231.674 80.9229 231.328V229.535H79.7715C78.9805 229.535 78.3857 229.673 77.9873 229.948C77.5889 230.224 77.3896 230.613 77.3896 231.117C77.3896 231.527 77.5244 231.855 77.7939 232.102C78.0693 232.342 78.4355 232.462 78.8926 232.462ZM92.0498 234H89.9141V220.5H92.0498V234ZM96.6553 234H94.5195V224.49H96.6553V234ZM94.3877 222.021C94.3877 221.692 94.4902 221.42 94.6953 221.203C94.9062 220.986 95.2051 220.878 95.5918 220.878C95.9785 220.878 96.2773 220.986 96.4883 221.203C96.6992 221.42 96.8047 221.692 96.8047 222.021C96.8047 222.343 96.6992 222.612 96.4883 222.829C96.2773 223.04 95.9785 223.146 95.5918 223.146C95.2051 223.146 94.9062 223.04 94.6953 222.829C94.4902 222.612 94.3877 222.343 94.3877 222.021ZM104.319 231.416C104.319 231.035 104.161 230.745 103.845 230.546C103.534 230.347 103.016 230.171 102.289 230.019C101.562 229.866 100.956 229.673 100.47 229.438C99.4033 228.923 98.8701 228.176 98.8701 227.197C98.8701 226.377 99.2158 225.691 99.9072 225.141C100.599 224.59 101.478 224.314 102.544 224.314C103.681 224.314 104.598 224.596 105.295 225.158C105.998 225.721 106.35 226.45 106.35 227.347H104.214C104.214 226.937 104.062 226.597 103.757 226.327C103.452 226.052 103.048 225.914 102.544 225.914C102.075 225.914 101.691 226.022 101.393 226.239C101.1 226.456 100.953 226.746 100.953 227.109C100.953 227.438 101.091 227.692 101.366 227.874C101.642 228.056 102.198 228.24 103.036 228.428C103.874 228.609 104.53 228.829 105.005 229.087C105.485 229.339 105.84 229.644 106.068 230.001C106.303 230.358 106.42 230.792 106.42 231.302C106.42 232.157 106.065 232.852 105.356 233.385C104.647 233.912 103.719 234.176 102.57 234.176C101.791 234.176 101.097 234.035 100.487 233.754C99.8779 233.473 99.4033 233.086 99.0635 232.594C98.7236 232.102 98.5537 231.571 98.5537 231.003H100.628C100.657 231.507 100.848 231.896 101.199 232.172C101.551 232.441 102.017 232.576 102.597 232.576C103.159 232.576 103.587 232.471 103.88 232.26C104.173 232.043 104.319 231.762 104.319 231.416ZM110.964 222.179V224.49H112.643V226.072H110.964V231.381C110.964 231.744 111.034 232.008 111.175 232.172C111.321 232.33 111.579 232.409 111.948 232.409C112.194 232.409 112.443 232.38 112.695 232.321V233.974C112.209 234.108 111.74 234.176 111.289 234.176C109.648 234.176 108.828 233.271 108.828 231.46V226.072H107.264V224.49H108.828V222.179H110.964ZM118.364 229.157C118.364 228.226 118.549 227.388 118.918 226.644C119.287 225.894 119.806 225.319 120.474 224.921C121.142 224.517 121.909 224.314 122.776 224.314C124.06 224.314 125.1 224.728 125.896 225.554C126.699 226.38 127.133 227.476 127.197 228.841L127.206 229.342C127.206 230.279 127.024 231.117 126.661 231.855C126.304 232.594 125.788 233.165 125.114 233.569C124.446 233.974 123.673 234.176 122.794 234.176C121.452 234.176 120.377 233.73 119.568 232.84C118.766 231.943 118.364 230.751 118.364 229.263V229.157ZM120.5 229.342C120.5 230.32 120.702 231.088 121.106 231.645C121.511 232.195 122.073 232.471 122.794 232.471C123.515 232.471 124.074 232.189 124.473 231.627C124.877 231.064 125.079 230.241 125.079 229.157C125.079 228.196 124.871 227.435 124.455 226.872C124.045 226.31 123.485 226.028 122.776 226.028C122.079 226.028 121.525 226.307 121.115 226.863C120.705 227.414 120.5 228.24 120.5 229.342ZM129.764 234V226.072H128.313V224.49H129.764V223.62C129.764 222.565 130.057 221.751 130.643 221.177C131.229 220.603 132.049 220.315 133.104 220.315C133.479 220.315 133.877 220.368 134.299 220.474L134.246 222.144C134.012 222.097 133.739 222.073 133.429 222.073C132.409 222.073 131.899 222.598 131.899 223.646V224.49H133.833V226.072H131.899V234H129.764ZM145.206 231.416C145.206 231.035 145.048 230.745 144.731 230.546C144.421 230.347 143.902 230.171 143.176 230.019C142.449 229.866 141.843 229.673 141.356 229.438C140.29 228.923 139.757 228.176 139.757 227.197C139.757 226.377 140.103 225.691 140.794 225.141C141.485 224.59 142.364 224.314 143.431 224.314C144.567 224.314 145.484 224.596 146.182 225.158C146.885 225.721 147.236 226.45 147.236 227.347H145.101C145.101 226.937 144.948 226.597 144.644 226.327C144.339 226.052 143.935 225.914 143.431 225.914C142.962 225.914 142.578 226.022 142.279 226.239C141.986 226.456 141.84 226.746 141.84 227.109C141.84 227.438 141.978 227.692 142.253 227.874C142.528 228.056 143.085 228.24 143.923 228.428C144.761 228.609 145.417 228.829 145.892 229.087C146.372 229.339 146.727 229.644 146.955 230.001C147.189 230.358 147.307 230.792 147.307 231.302C147.307 232.157 146.952 232.852 146.243 233.385C145.534 233.912 144.605 234.176 143.457 234.176C142.678 234.176 141.983 234.035 141.374 233.754C140.765 233.473 140.29 233.086 139.95 232.594C139.61 232.102 139.44 231.571 139.44 231.003H141.515C141.544 231.507 141.734 231.896 142.086 232.172C142.438 232.441 142.903 232.576 143.483 232.576C144.046 232.576 144.474 232.471 144.767 232.26C145.06 232.043 145.206 231.762 145.206 231.416ZM152.501 230.941L154.435 224.49H156.711L152.932 235.441C152.352 237.041 151.367 237.841 149.979 237.841C149.668 237.841 149.325 237.788 148.95 237.683V236.03L149.354 236.057C149.894 236.057 150.298 235.957 150.567 235.758C150.843 235.564 151.06 235.236 151.218 234.773L151.525 233.956L148.186 224.49H150.488L152.501 230.941ZM159.954 224.49L160.016 225.483C160.684 224.704 161.598 224.314 162.758 224.314C164.029 224.314 164.899 224.801 165.368 225.773C166.06 224.801 167.032 224.314 168.286 224.314C169.335 224.314 170.114 224.604 170.624 225.185C171.14 225.765 171.403 226.62 171.415 227.751V234H169.279V227.812C169.279 227.209 169.147 226.767 168.884 226.485C168.62 226.204 168.184 226.063 167.574 226.063C167.088 226.063 166.689 226.195 166.379 226.459C166.074 226.717 165.86 227.057 165.737 227.479L165.746 234H163.61V227.742C163.581 226.623 163.01 226.063 161.896 226.063C161.041 226.063 160.435 226.412 160.077 227.109V234H157.941V224.49H159.954ZM181.936 229.342C181.936 230.812 181.602 231.987 180.934 232.866C180.266 233.739 179.369 234.176 178.244 234.176C177.201 234.176 176.366 233.833 175.739 233.147V237.656H173.604V224.49H175.572L175.66 225.457C176.287 224.695 177.14 224.314 178.218 224.314C179.378 224.314 180.286 224.748 180.942 225.615C181.604 226.477 181.936 227.675 181.936 229.21V229.342ZM179.809 229.157C179.809 228.208 179.618 227.455 179.237 226.898C178.862 226.342 178.323 226.063 177.62 226.063C176.747 226.063 176.12 226.424 175.739 227.145V231.363C176.126 232.102 176.759 232.471 177.638 232.471C178.317 232.471 178.848 232.198 179.229 231.653C179.615 231.103 179.809 230.271 179.809 229.157ZM186.427 222.179V224.49H188.105V226.072H186.427V231.381C186.427 231.744 186.497 232.008 186.638 232.172C186.784 232.33 187.042 232.409 187.411 232.409C187.657 232.409 187.906 232.38 188.158 232.321V233.974C187.672 234.108 187.203 234.176 186.752 234.176C185.111 234.176 184.291 233.271 184.291 231.46V226.072H182.727V224.49H184.291V222.179H186.427ZM189.081 229.157C189.081 228.226 189.266 227.388 189.635 226.644C190.004 225.894 190.522 225.319 191.19 224.921C191.858 224.517 192.626 224.314 193.493 224.314C194.776 224.314 195.816 224.728 196.613 225.554C197.416 226.38 197.85 227.476 197.914 228.841L197.923 229.342C197.923 230.279 197.741 231.117 197.378 231.855C197.021 232.594 196.505 233.165 195.831 233.569C195.163 233.974 194.39 234.176 193.511 234.176C192.169 234.176 191.094 233.73 190.285 232.84C189.482 231.943 189.081 230.751 189.081 229.263V229.157ZM191.217 229.342C191.217 230.32 191.419 231.088 191.823 231.645C192.228 232.195 192.79 232.471 193.511 232.471C194.231 232.471 194.791 232.189 195.189 231.627C195.594 231.064 195.796 230.241 195.796 229.157C195.796 228.196 195.588 227.435 195.172 226.872C194.762 226.31 194.202 226.028 193.493 226.028C192.796 226.028 192.242 226.307 191.832 226.863C191.422 227.414 191.217 228.24 191.217 229.342ZM201.737 224.49L201.799 225.483C202.467 224.704 203.381 224.314 204.541 224.314C205.812 224.314 206.683 224.801 207.151 225.773C207.843 224.801 208.815 224.314 210.069 224.314C211.118 224.314 211.897 224.604 212.407 225.185C212.923 225.765 213.187 226.62 213.198 227.751V234H211.062V227.812C211.062 227.209 210.931 226.767 210.667 226.485C210.403 226.204 209.967 226.063 209.357 226.063C208.871 226.063 208.473 226.195 208.162 226.459C207.857 226.717 207.644 227.057 207.521 227.479L207.529 234H205.394V227.742C205.364 226.623 204.793 226.063 203.68 226.063C202.824 226.063 202.218 226.412 201.86 227.109V234H199.725V224.49H201.737ZM220.722 231.416C220.722 231.035 220.563 230.745 220.247 230.546C219.937 230.347 219.418 230.171 218.691 230.019C217.965 229.866 217.358 229.673 216.872 229.438C215.806 228.923 215.272 228.176 215.272 227.197C215.272 226.377 215.618 225.691 216.31 225.141C217.001 224.59 217.88 224.314 218.946 224.314C220.083 224.314 221 224.596 221.697 225.158C222.4 225.721 222.752 226.45 222.752 227.347H220.616C220.616 226.937 220.464 226.597 220.159 226.327C219.854 226.052 219.45 225.914 218.946 225.914C218.478 225.914 218.094 226.022 217.795 226.239C217.502 226.456 217.355 226.746 217.355 227.109C217.355 227.438 217.493 227.692 217.769 227.874C218.044 228.056 218.601 228.24 219.438 228.428C220.276 228.609 220.933 228.829 221.407 229.087C221.888 229.339 222.242 229.644 222.471 230.001C222.705 230.358 222.822 230.792 222.822 231.302C222.822 232.157 222.468 232.852 221.759 233.385C221.05 233.912 220.121 234.176 218.973 234.176C218.193 234.176 217.499 234.035 216.89 233.754C216.28 233.473 215.806 233.086 215.466 232.594C215.126 232.102 214.956 231.571 214.956 231.003H217.03C217.06 231.507 217.25 231.896 217.602 232.172C217.953 232.441 218.419 232.576 218.999 232.576C219.562 232.576 219.989 232.471 220.282 232.26C220.575 232.043 220.722 231.762 220.722 231.416ZM226.021 231.75C226.42 231.75 226.728 231.864 226.944 232.093C227.161 232.315 227.27 232.597 227.27 232.937C227.27 233.271 227.161 233.549 226.944 233.771C226.728 233.988 226.42 234.097 226.021 234.097C225.641 234.097 225.339 233.988 225.116 233.771C224.894 233.555 224.782 233.276 224.782 232.937C224.782 232.597 224.891 232.315 225.107 232.093C225.324 231.864 225.629 231.75 226.021 231.75ZM21.6992 296.66V303H18.7344V285.938H25.2617C27.168 285.938 28.6797 286.434 29.7969 287.426C30.9219 288.418 31.4844 289.73 31.4844 291.363C31.4844 293.035 30.9336 294.336 29.832 295.266C28.7383 296.195 27.2031 296.66 25.2266 296.66H21.6992ZM21.6992 294.281H25.2617C26.3164 294.281 27.1211 294.035 27.6758 293.543C28.2305 293.043 28.5078 292.324 28.5078 291.387C28.5078 290.465 28.2266 289.73 27.6641 289.184C27.1016 288.629 26.3281 288.344 25.3438 288.328H21.6992V294.281ZM41.2461 303C41.1211 302.758 41.0117 302.363 40.918 301.816C40.0117 302.762 38.9023 303.234 37.5898 303.234C36.3164 303.234 35.2773 302.871 34.4727 302.145C33.668 301.418 33.2656 300.52 33.2656 299.449C33.2656 298.098 33.7656 297.062 34.7656 296.344C35.7734 295.617 37.2109 295.254 39.0781 295.254H40.8242V294.422C40.8242 293.766 40.6406 293.242 40.2734 292.852C39.9062 292.453 39.3477 292.254 38.5977 292.254C37.9492 292.254 37.418 292.418 37.0039 292.746C36.5898 293.066 36.3828 293.477 36.3828 293.977H33.5352C33.5352 293.281 33.7656 292.633 34.2266 292.031C34.6875 291.422 35.3125 290.945 36.1016 290.602C36.8984 290.258 37.7852 290.086 38.7617 290.086C40.2461 290.086 41.4297 290.461 42.3125 291.211C43.1953 291.953 43.6484 293 43.6719 294.352V300.07C43.6719 301.211 43.832 302.121 44.1523 302.801V303H41.2461ZM38.1172 300.949C38.6797 300.949 39.207 300.812 39.6992 300.539C40.1992 300.266 40.5742 299.898 40.8242 299.438V297.047H39.2891C38.2344 297.047 37.4414 297.23 36.9102 297.598C36.3789 297.965 36.1133 298.484 36.1133 299.156C36.1133 299.703 36.293 300.141 36.6523 300.469C37.0195 300.789 37.5078 300.949 38.1172 300.949ZM49.6836 303H46.8359V290.32H49.6836V303ZM46.6602 287.027C46.6602 286.59 46.7969 286.227 47.0703 285.938C47.3516 285.648 47.75 285.504 48.2656 285.504C48.7812 285.504 49.1797 285.648 49.4609 285.938C49.7422 286.227 49.8828 286.59 49.8828 287.027C49.8828 287.457 49.7422 287.816 49.4609 288.105C49.1797 288.387 48.7812 288.527 48.2656 288.527C47.75 288.527 47.3516 288.387 47.0703 288.105C46.7969 287.816 46.6602 287.457 46.6602 287.027ZM55.4375 290.32L55.5195 291.785C56.457 290.652 57.6875 290.086 59.2109 290.086C61.8516 290.086 63.1953 291.598 63.2422 294.621V303H60.3945V294.785C60.3945 293.98 60.2188 293.387 59.8672 293.004C59.5234 292.613 58.957 292.418 58.168 292.418C57.0195 292.418 56.1641 292.938 55.6016 293.977V303H52.7539V290.32H55.4375ZM73.5371 297.349L76.1035 293.49H77.3516L74.126 298.157L77.4922 303H76.2529L73.5459 298.975L70.8389 303H69.5996L72.957 298.157L69.7314 293.49H70.9707L73.5371 297.349ZM27.1875 344H25.2188V338.945H20.1328V344H18.1562V332.625H20.1328V337.359H25.2188V332.625H27.1875V344ZM28.9922 339.695C28.9922 338.867 29.1562 338.122 29.4844 337.461C29.8125 336.794 30.2734 336.284 30.8672 335.93C31.4609 335.57 32.1432 335.391 32.9141 335.391C34.0547 335.391 34.9792 335.758 35.6875 336.492C36.401 337.227 36.7865 338.201 36.8438 339.414L36.8516 339.859C36.8516 340.693 36.6901 341.438 36.3672 342.094C36.0495 342.75 35.5911 343.258 34.9922 343.617C34.3984 343.977 33.7109 344.156 32.9297 344.156C31.737 344.156 30.7812 343.76 30.0625 342.969C29.349 342.172 28.9922 341.112 28.9922 339.789V339.695ZM30.8906 339.859C30.8906 340.729 31.0703 341.411 31.4297 341.906C31.7891 342.396 32.2891 342.641 32.9297 342.641C33.5703 342.641 34.0677 342.391 34.4219 341.891C34.7812 341.391 34.9609 340.659 34.9609 339.695C34.9609 338.841 34.776 338.164 34.4062 337.664C34.0417 337.164 33.5443 336.914 32.9141 336.914C32.2943 336.914 31.8021 337.161 31.4375 337.656C31.0729 338.146 30.8906 338.88 30.8906 339.859ZM45.8828 341.383L47.2266 335.547H49.0781L46.7734 344H45.2109L43.3984 338.195L41.6172 344H40.0547L37.7422 335.547H39.5938L40.9609 341.32L42.6953 335.547H44.125L45.8828 341.383ZM59.3828 344C59.2995 343.839 59.2266 343.576 59.1641 343.211C58.5599 343.841 57.8203 344.156 56.9453 344.156C56.0964 344.156 55.4036 343.914 54.8672 343.43C54.3307 342.945 54.0625 342.346 54.0625 341.633C54.0625 340.732 54.3958 340.042 55.0625 339.562C55.7344 339.078 56.6927 338.836 57.9375 338.836H59.1016V338.281C59.1016 337.844 58.9792 337.495 58.7344 337.234C58.4896 336.969 58.1172 336.836 57.6172 336.836C57.1849 336.836 56.8307 336.945 56.5547 337.164C56.2786 337.378 56.1406 337.651 56.1406 337.984H54.2422C54.2422 337.521 54.3958 337.089 54.7031 336.688C55.0104 336.281 55.4271 335.964 55.9531 335.734C56.4844 335.505 57.0755 335.391 57.7266 335.391C58.7161 335.391 59.5052 335.641 60.0938 336.141C60.6823 336.635 60.9844 337.333 61 338.234V342.047C61 342.807 61.1068 343.414 61.3203 343.867V344H59.3828ZM57.2969 342.633C57.6719 342.633 58.0234 342.542 58.3516 342.359C58.6849 342.177 58.9349 341.932 59.1016 341.625V340.031H58.0781C57.375 340.031 56.8464 340.154 56.4922 340.398C56.138 340.643 55.9609 340.99 55.9609 341.438C55.9609 341.802 56.0807 342.094 56.3203 342.312C56.5651 342.526 56.8906 342.633 57.2969 342.633ZM66.4609 342.641C66.9349 342.641 67.3281 342.503 67.6406 342.227C67.9531 341.951 68.1198 341.609 68.1406 341.203H69.9297C69.9089 341.729 69.7448 342.221 69.4375 342.68C69.1302 343.133 68.7135 343.492 68.1875 343.758C67.6615 344.023 67.0938 344.156 66.4844 344.156C65.3021 344.156 64.3646 343.773 63.6719 343.008C62.9792 342.242 62.6328 341.185 62.6328 339.836V339.641C62.6328 338.354 62.9766 337.326 63.6641 336.555C64.3516 335.779 65.2891 335.391 66.4766 335.391C67.4818 335.391 68.2995 335.685 68.9297 336.273C69.5651 336.857 69.8984 337.625 69.9297 338.578H68.1406C68.1198 338.094 67.9531 337.695 67.6406 337.383C67.3333 337.07 66.9401 336.914 66.4609 336.914C65.8464 336.914 65.3724 337.138 65.0391 337.586C64.7057 338.029 64.5365 338.703 64.5312 339.609V339.914C64.5312 340.831 64.6953 341.516 65.0234 341.969C65.3568 342.417 65.8359 342.641 66.4609 342.641ZM73.7422 333.492V335.547H75.2344V336.953H73.7422V341.672C73.7422 341.995 73.8047 342.229 73.9297 342.375C74.0599 342.516 74.2891 342.586 74.6172 342.586C74.8359 342.586 75.0573 342.56 75.2812 342.508V343.977C74.849 344.096 74.4323 344.156 74.0312 344.156C72.5729 344.156 71.8438 343.352 71.8438 341.742V336.953H70.4531V335.547H71.8438V333.492H73.7422ZM78.7109 344H76.8125V335.547H78.7109V344ZM76.6953 333.352C76.6953 333.06 76.7865 332.818 76.9688 332.625C77.1562 332.432 77.4219 332.336 77.7656 332.336C78.1094 332.336 78.375 332.432 78.5625 332.625C78.75 332.818 78.8438 333.06 78.8438 333.352C78.8438 333.638 78.75 333.878 78.5625 334.07C78.375 334.258 78.1094 334.352 77.7656 334.352C77.4219 334.352 77.1562 334.258 76.9688 334.07C76.7865 333.878 76.6953 333.638 76.6953 333.352ZM83.7656 341.594L85.5547 335.547H87.5156L84.5859 344H82.9375L79.9844 335.547H81.9531L83.7656 341.594ZM92.3203 344.156C91.1172 344.156 90.1406 343.779 89.3906 343.023C88.6458 342.263 88.2734 341.253 88.2734 339.992V339.758C88.2734 338.914 88.4349 338.161 88.7578 337.5C89.0859 336.833 89.5443 336.315 90.1328 335.945C90.7214 335.576 91.3776 335.391 92.1016 335.391C93.2526 335.391 94.1406 335.758 94.7656 336.492C95.3958 337.227 95.7109 338.266 95.7109 339.609V340.375H90.1875C90.2448 341.073 90.4766 341.625 90.8828 342.031C91.2943 342.438 91.8099 342.641 92.4297 342.641C93.2995 342.641 94.0078 342.289 94.5547 341.586L95.5781 342.562C95.2396 343.068 94.7865 343.461 94.2188 343.742C93.6562 344.018 93.0234 344.156 92.3203 344.156ZM92.0938 336.914C91.5729 336.914 91.151 337.096 90.8281 337.461C90.5104 337.826 90.3073 338.333 90.2188 338.984H93.8359V338.844C93.7943 338.208 93.625 337.729 93.3281 337.406C93.0312 337.078 92.6198 336.914 92.0938 336.914ZM108.602 341.383L109.945 335.547H111.797L109.492 344H107.93L106.117 338.195L104.336 344H102.773L100.461 335.547H102.312L103.68 341.32L105.414 335.547H106.844L108.602 341.383ZM118.117 344C118.034 343.839 117.961 343.576 117.898 343.211C117.294 343.841 116.555 344.156 115.68 344.156C114.831 344.156 114.138 343.914 113.602 343.43C113.065 342.945 112.797 342.346 112.797 341.633C112.797 340.732 113.13 340.042 113.797 339.562C114.469 339.078 115.427 338.836 116.672 338.836H117.836V338.281C117.836 337.844 117.714 337.495 117.469 337.234C117.224 336.969 116.852 336.836 116.352 336.836C115.919 336.836 115.565 336.945 115.289 337.164C115.013 337.378 114.875 337.651 114.875 337.984H112.977C112.977 337.521 113.13 337.089 113.438 336.688C113.745 336.281 114.161 335.964 114.688 335.734C115.219 335.505 115.81 335.391 116.461 335.391C117.451 335.391 118.24 335.641 118.828 336.141C119.417 336.635 119.719 337.333 119.734 338.234V342.047C119.734 342.807 119.841 343.414 120.055 343.867V344H118.117ZM116.031 342.633C116.406 342.633 116.758 342.542 117.086 342.359C117.419 342.177 117.669 341.932 117.836 341.625V340.031H116.812C116.109 340.031 115.581 340.154 115.227 340.398C114.872 340.643 114.695 340.99 114.695 341.438C114.695 341.802 114.815 342.094 115.055 342.312C115.299 342.526 115.625 342.633 116.031 342.633ZM126.461 341.703C126.461 341.365 126.32 341.107 126.039 340.93C125.763 340.753 125.302 340.596 124.656 340.461C124.01 340.326 123.471 340.154 123.039 339.945C122.091 339.487 121.617 338.823 121.617 337.953C121.617 337.224 121.924 336.615 122.539 336.125C123.154 335.635 123.935 335.391 124.883 335.391C125.893 335.391 126.708 335.641 127.328 336.141C127.953 336.641 128.266 337.289 128.266 338.086H126.367C126.367 337.721 126.232 337.419 125.961 337.18C125.69 336.935 125.331 336.812 124.883 336.812C124.466 336.812 124.125 336.909 123.859 337.102C123.599 337.294 123.469 337.552 123.469 337.875C123.469 338.167 123.591 338.393 123.836 338.555C124.081 338.716 124.576 338.88 125.32 339.047C126.065 339.208 126.648 339.404 127.07 339.633C127.497 339.857 127.812 340.128 128.016 340.445C128.224 340.763 128.328 341.148 128.328 341.602C128.328 342.362 128.013 342.979 127.383 343.453C126.753 343.922 125.927 344.156 124.906 344.156C124.214 344.156 123.596 344.031 123.055 343.781C122.513 343.531 122.091 343.188 121.789 342.75C121.487 342.312 121.336 341.841 121.336 341.336H123.18C123.206 341.784 123.375 342.13 123.688 342.375C124 342.615 124.414 342.734 124.93 342.734C125.43 342.734 125.81 342.641 126.07 342.453C126.331 342.26 126.461 342.01 126.461 341.703ZM135.992 344H134.094V335.547H135.992V344ZM133.977 333.352C133.977 333.06 134.068 332.818 134.25 332.625C134.438 332.432 134.703 332.336 135.047 332.336C135.391 332.336 135.656 332.432 135.844 332.625C136.031 332.818 136.125 333.06 136.125 333.352C136.125 333.638 136.031 333.878 135.844 334.07C135.656 334.258 135.391 334.352 135.047 334.352C134.703 334.352 134.438 334.258 134.25 334.07C134.068 333.878 133.977 333.638 133.977 333.352ZM140.445 333.492V335.547H141.938V336.953H140.445V341.672C140.445 341.995 140.508 342.229 140.633 342.375C140.763 342.516 140.992 342.586 141.32 342.586C141.539 342.586 141.76 342.56 141.984 342.508V343.977C141.552 344.096 141.135 344.156 140.734 344.156C139.276 344.156 138.547 343.352 138.547 341.742V336.953H137.156V335.547H138.547V333.492H140.445ZM145.156 340.656C145.156 339.964 145.242 339.411 145.414 339C145.586 338.589 145.924 338.138 146.43 337.648C146.94 337.154 147.263 336.802 147.398 336.594C147.607 336.276 147.711 335.932 147.711 335.562C147.711 335.073 147.589 334.701 147.344 334.445C147.104 334.185 146.75 334.055 146.281 334.055C145.833 334.055 145.471 334.182 145.195 334.438C144.924 334.688 144.789 335.029 144.789 335.461H142.891C142.901 334.539 143.214 333.81 143.828 333.273C144.448 332.737 145.266 332.469 146.281 332.469C147.328 332.469 148.143 332.734 148.727 333.266C149.315 333.797 149.609 334.539 149.609 335.492C149.609 336.341 149.214 337.177 148.422 338L147.461 338.945C147.117 339.336 146.94 339.906 146.93 340.656H145.156ZM145.023 343.086C145.023 342.779 145.12 342.531 145.312 342.344C145.505 342.151 145.766 342.055 146.094 342.055C146.427 342.055 146.69 342.154 146.883 342.352C147.076 342.544 147.172 342.789 147.172 343.086C147.172 343.372 147.078 343.612 146.891 343.805C146.703 343.997 146.438 344.094 146.094 344.094C145.75 344.094 145.484 343.997 145.297 343.805C145.115 343.612 145.023 343.372 145.023 343.086Z" fill="#C1BEBE"/>
<circle cx="38.5" cy="188.5" r="22.5" fill="#C4C4C4"/>
<circle cx="38.5" cy="388.5" r="22" stroke="#C4C4C4"/>
<circle cx="103.5" cy="388.5" r="22" stroke="#C4C4C4"/>
<circle cx="168.5" cy="388.5" r="22" stroke="#C4C4C4"/>
<circle cx="233.5" cy="388.5" r="22" stroke="#C4C4C4"/>
<circle cx="298.5" cy="388.5" r="22" stroke="#C4C4C4"/>
<path d="M46.5742 189.139C46.5742 190.941 46.2399 192.537 45.5713 193.925C44.9027 195.313 43.9505 196.383 42.7148 197.137C41.4876 197.882 40.0869 198.254 38.5127 198.254C36.9385 198.254 35.542 197.894 34.3232 197.175C33.1045 196.447 32.1523 195.41 31.4668 194.064C30.7897 192.719 30.4342 191.174 30.4004 189.431V188.39C30.4004 186.578 30.7305 184.983 31.3906 183.604C32.0592 182.215 33.0114 181.145 34.2471 180.392C35.4912 179.638 36.9046 179.262 38.4873 179.262C40.0531 179.262 41.4495 179.634 42.6768 180.379C43.904 181.124 44.8561 182.186 45.5332 183.565C46.2188 184.937 46.5658 186.511 46.5742 188.288V189.139ZM42.042 188.364C42.042 186.528 41.7331 185.135 41.1152 184.188C40.5059 183.231 39.6299 182.753 38.4873 182.753C36.2529 182.753 35.0723 184.429 34.9453 187.78L34.9326 189.139C34.9326 190.95 35.2331 192.342 35.834 193.315C36.4349 194.289 37.3278 194.775 38.5127 194.775C39.6383 194.775 40.5059 194.297 41.1152 193.341C41.7246 192.384 42.0335 191.009 42.042 189.215V188.364Z" fill="white"/>
<path d="M27.229 392.032C28.8179 393.35 30.2277 394.854 31.8493 396.14C33.913 397.777 36.9203 398.008 39.4436 398.008C43.6941 398.008 47.1183 396.112 50.0813 393.083C50.9676 392.177 51.2098 391.045 51.8796 390.04" stroke="#C4C4C4" stroke-linecap="round" stroke-linejoin="round"/>
<path d="M33.2049 380.329C32.5113 384.392 35.355 379.712 33.2049 379.831C32.3501 379.879 32.2667 381.092 32.9559 381.436C33.6829 381.8 34.4202 381.178 34.1456 380.385C33.8769 379.609 32.8327 379.629 32.5825 380.329C32.3893 380.87 32.8809 382.206 33.3986 381.325C34.3432 379.72 31.96 379.729 31.96 381.076" stroke="#C4C4C4" stroke-linecap="round" stroke-linejoin="round"/>
<path d="M42.6667 380.827C44.2527 381.933 44.5524 380.08 43.9117 380.08C42.9172 380.08 42.6059 380.231 42.6667 381.325C42.7239 382.355 44.3212 382.085 44.6034 381.27C44.9034 380.403 44.5288 379.804 43.6074 380.136C40.7147 381.177 45.0638 382.65 43.967 380.578C43.5702 379.829 42.6954 380.809 42.6667 381.325C42.6065 382.409 43.4137 381.968 43.4137 381.076" stroke="#C4C4C4" stroke-linecap="round" stroke-linejoin="round"/>
<path d="M21.6992 487.633H29.4453V490H18.7344V472.938H21.6992V487.633ZM30.9102 483.543C30.9102 482.301 31.1562 481.184 31.6484 480.191C32.1406 479.191 32.832 478.426 33.7227 477.895C34.6133 477.355 35.6367 477.086 36.793 477.086C38.5039 477.086 39.8906 477.637 40.9531 478.738C42.0234 479.84 42.6016 481.301 42.6875 483.121L42.6992 483.789C42.6992 485.039 42.457 486.156 41.9727 487.141C41.4961 488.125 40.8086 488.887 39.9102 489.426C39.0195 489.965 37.9883 490.234 36.8164 490.234C35.0273 490.234 33.5938 489.641 32.5156 488.453C31.4453 487.258 30.9102 485.668 30.9102 483.684V483.543ZM33.7578 483.789C33.7578 485.094 34.0273 486.117 34.5664 486.859C35.1055 487.594 35.8555 487.961 36.8164 487.961C37.7773 487.961 38.5234 487.586 39.0547 486.836C39.5938 486.086 39.8633 484.988 39.8633 483.543C39.8633 482.262 39.5859 481.246 39.0312 480.496C38.4844 479.746 37.7383 479.371 36.793 479.371C35.8633 479.371 35.125 479.742 34.5781 480.484C34.0312 481.219 33.7578 482.32 33.7578 483.789ZM56.2461 486.074L58.2617 477.32H61.0391L57.582 490H55.2383L52.5195 481.293L49.8477 490H47.5039L44.0352 477.32H46.8125L48.8633 485.98L51.4648 477.32H53.6094L56.2461 486.074ZM79.168 482.383H72.1602V487.633H80.3516V490H69.1953V472.938H80.2695V475.328H72.1602V480.039H79.168V482.383ZM85.1328 477.32L85.2148 478.785C86.1523 477.652 87.3828 477.086 88.9062 477.086C91.5469 477.086 92.8906 478.598 92.9375 481.621V490H90.0898V481.785C90.0898 480.98 89.9141 480.387 89.5625 480.004C89.2188 479.613 88.6523 479.418 87.8633 479.418C86.7148 479.418 85.8594 479.938 85.2969 480.977V490H82.4492V477.32H85.1328ZM101.434 490.234C99.6289 490.234 98.1641 489.668 97.0391 488.535C95.9219 487.395 95.3633 485.879 95.3633 483.988V483.637C95.3633 482.371 95.6055 481.242 96.0898 480.25C96.582 479.25 97.2695 478.473 98.1523 477.918C99.0352 477.363 100.02 477.086 101.105 477.086C102.832 477.086 104.164 477.637 105.102 478.738C106.047 479.84 106.52 481.398 106.52 483.414V484.562H98.2344C98.3203 485.609 98.668 486.438 99.2773 487.047C99.8945 487.656 100.668 487.961 101.598 487.961C102.902 487.961 103.965 487.434 104.785 486.379L106.32 487.844C105.812 488.602 105.133 489.191 104.281 489.613C103.438 490.027 102.488 490.234 101.434 490.234ZM101.094 479.371C100.312 479.371 99.6797 479.645 99.1953 480.191C98.7188 480.738 98.4141 481.5 98.2812 482.477H103.707V482.266C103.645 481.312 103.391 480.594 102.945 480.109C102.5 479.617 101.883 479.371 101.094 479.371ZM115.379 479.922C115.004 479.859 114.617 479.828 114.219 479.828C112.914 479.828 112.035 480.328 111.582 481.328V490H108.734V477.32H111.453L111.523 478.738C112.211 477.637 113.164 477.086 114.383 477.086C114.789 477.086 115.125 477.141 115.391 477.25L115.379 479.922ZM116.445 483.566C116.445 481.598 116.906 480.027 117.828 478.855C118.758 477.676 119.988 477.086 121.52 477.086C122.965 477.086 124.102 477.59 124.93 478.598L125.059 477.32H127.625V489.613C127.625 491.277 127.105 492.59 126.066 493.551C125.035 494.512 123.641 494.992 121.883 494.992C120.953 494.992 120.043 494.797 119.152 494.406C118.27 494.023 117.598 493.52 117.137 492.895L118.484 491.184C119.359 492.223 120.438 492.742 121.719 492.742C122.664 492.742 123.41 492.484 123.957 491.969C124.504 491.461 124.777 490.711 124.777 489.719V488.863C123.957 489.777 122.863 490.234 121.496 490.234C120.012 490.234 118.797 489.645 117.852 488.465C116.914 487.285 116.445 485.652 116.445 483.566ZM119.281 483.812C119.281 485.086 119.539 486.09 120.055 486.824C120.578 487.551 121.301 487.914 122.223 487.914C123.371 487.914 124.223 487.422 124.777 486.438V480.859C124.238 479.898 123.395 479.418 122.246 479.418C121.309 479.418 120.578 479.789 120.055 480.531C119.539 481.273 119.281 482.367 119.281 483.812ZM134.996 485.922L137.574 477.32H140.609L135.57 491.922C134.797 494.055 133.484 495.121 131.633 495.121C131.219 495.121 130.762 495.051 130.262 494.91V492.707L130.801 492.742C131.52 492.742 132.059 492.609 132.418 492.344C132.785 492.086 133.074 491.648 133.285 491.031L133.695 489.941L129.242 477.32H132.312L134.996 485.922ZM149.639 484.349L152.205 480.49H153.453L150.228 485.157L153.594 490H152.354L149.647 485.975L146.94 490H145.701L149.059 485.157L145.833 480.49H147.072L149.639 484.349ZM27.1875 529H25.2188V523.945H20.1328V529H18.1562V517.625H20.1328V522.359H25.2188V517.625H27.1875V529ZM28.9922 524.695C28.9922 523.867 29.1562 523.122 29.4844 522.461C29.8125 521.794 30.2734 521.284 30.8672 520.93C31.4609 520.57 32.1432 520.391 32.9141 520.391C34.0547 520.391 34.9792 520.758 35.6875 521.492C36.401 522.227 36.7865 523.201 36.8438 524.414L36.8516 524.859C36.8516 525.693 36.6901 526.438 36.3672 527.094C36.0495 527.75 35.5911 528.258 34.9922 528.617C34.3984 528.977 33.7109 529.156 32.9297 529.156C31.737 529.156 30.7812 528.76 30.0625 527.969C29.349 527.172 28.9922 526.112 28.9922 524.789V524.695ZM30.8906 524.859C30.8906 525.729 31.0703 526.411 31.4297 526.906C31.7891 527.396 32.2891 527.641 32.9297 527.641C33.5703 527.641 34.0677 527.391 34.4219 526.891C34.7812 526.391 34.9609 525.659 34.9609 524.695C34.9609 523.841 34.776 523.164 34.4062 522.664C34.0417 522.164 33.5443 521.914 32.9141 521.914C32.2943 521.914 31.8021 522.161 31.4375 522.656C31.0729 523.146 30.8906 523.88 30.8906 524.859ZM45.8828 526.383L47.2266 520.547H49.0781L46.7734 529H45.2109L43.3984 523.195L41.6172 529H40.0547L37.7422 520.547H39.5938L40.9609 526.32L42.6953 520.547H44.125L45.8828 526.383ZM59.3828 529C59.2995 528.839 59.2266 528.576 59.1641 528.211C58.5599 528.841 57.8203 529.156 56.9453 529.156C56.0964 529.156 55.4036 528.914 54.8672 528.43C54.3307 527.945 54.0625 527.346 54.0625 526.633C54.0625 525.732 54.3958 525.042 55.0625 524.562C55.7344 524.078 56.6927 523.836 57.9375 523.836H59.1016V523.281C59.1016 522.844 58.9792 522.495 58.7344 522.234C58.4896 521.969 58.1172 521.836 57.6172 521.836C57.1849 521.836 56.8307 521.945 56.5547 522.164C56.2786 522.378 56.1406 522.651 56.1406 522.984H54.2422C54.2422 522.521 54.3958 522.089 54.7031 521.688C55.0104 521.281 55.4271 520.964 55.9531 520.734C56.4844 520.505 57.0755 520.391 57.7266 520.391C58.7161 520.391 59.5052 520.641 60.0938 521.141C60.6823 521.635 60.9844 522.333 61 523.234V527.047C61 527.807 61.1068 528.414 61.3203 528.867V529H59.3828ZM57.2969 527.633C57.6719 527.633 58.0234 527.542 58.3516 527.359C58.6849 527.177 58.9349 526.932 59.1016 526.625V525.031H58.0781C57.375 525.031 56.8464 525.154 56.4922 525.398C56.138 525.643 55.9609 525.99 55.9609 526.438C55.9609 526.802 56.0807 527.094 56.3203 527.312C56.5651 527.526 56.8906 527.633 57.2969 527.633ZM66.4609 527.641C66.9349 527.641 67.3281 527.503 67.6406 527.227C67.9531 526.951 68.1198 526.609 68.1406 526.203H69.9297C69.9089 526.729 69.7448 527.221 69.4375 527.68C69.1302 528.133 68.7135 528.492 68.1875 528.758C67.6615 529.023 67.0938 529.156 66.4844 529.156C65.3021 529.156 64.3646 528.773 63.6719 528.008C62.9792 527.242 62.6328 526.185 62.6328 524.836V524.641C62.6328 523.354 62.9766 522.326 63.6641 521.555C64.3516 520.779 65.2891 520.391 66.4766 520.391C67.4818 520.391 68.2995 520.685 68.9297 521.273C69.5651 521.857 69.8984 522.625 69.9297 523.578H68.1406C68.1198 523.094 67.9531 522.695 67.6406 522.383C67.3333 522.07 66.9401 521.914 66.4609 521.914C65.8464 521.914 65.3724 522.138 65.0391 522.586C64.7057 523.029 64.5365 523.703 64.5312 524.609V524.914C64.5312 525.831 64.6953 526.516 65.0234 526.969C65.3568 527.417 65.8359 527.641 66.4609 527.641ZM73.7422 518.492V520.547H75.2344V521.953H73.7422V526.672C73.7422 526.995 73.8047 527.229 73.9297 527.375C74.0599 527.516 74.2891 527.586 74.6172 527.586C74.8359 527.586 75.0573 527.56 75.2812 527.508V528.977C74.849 529.096 74.4323 529.156 74.0312 529.156C72.5729 529.156 71.8438 528.352 71.8438 526.742V521.953H70.4531V520.547H71.8438V518.492H73.7422ZM78.7109 529H76.8125V520.547H78.7109V529ZM76.6953 518.352C76.6953 518.06 76.7865 517.818 76.9688 517.625C77.1562 517.432 77.4219 517.336 77.7656 517.336C78.1094 517.336 78.375 517.432 78.5625 517.625C78.75 517.818 78.8438 518.06 78.8438 518.352C78.8438 518.638 78.75 518.878 78.5625 519.07C78.375 519.258 78.1094 519.352 77.7656 519.352C77.4219 519.352 77.1562 519.258 76.9688 519.07C76.7865 518.878 76.6953 518.638 76.6953 518.352ZM83.7656 526.594L85.5547 520.547H87.5156L84.5859 529H82.9375L79.9844 520.547H81.9531L83.7656 526.594ZM92.3203 529.156C91.1172 529.156 90.1406 528.779 89.3906 528.023C88.6458 527.263 88.2734 526.253 88.2734 524.992V524.758C88.2734 523.914 88.4349 523.161 88.7578 522.5C89.0859 521.833 89.5443 521.315 90.1328 520.945C90.7214 520.576 91.3776 520.391 92.1016 520.391C93.2526 520.391 94.1406 520.758 94.7656 521.492C95.3958 522.227 95.7109 523.266 95.7109 524.609V525.375H90.1875C90.2448 526.073 90.4766 526.625 90.8828 527.031C91.2943 527.438 91.8099 527.641 92.4297 527.641C93.2995 527.641 94.0078 527.289 94.5547 526.586L95.5781 527.562C95.2396 528.068 94.7865 528.461 94.2188 528.742C93.6562 529.018 93.0234 529.156 92.3203 529.156ZM92.0938 521.914C91.5729 521.914 91.151 522.096 90.8281 522.461C90.5104 522.826 90.3073 523.333 90.2188 523.984H93.8359V523.844C93.7943 523.208 93.625 522.729 93.3281 522.406C93.0312 522.078 92.6198 521.914 92.0938 521.914ZM108.602 526.383L109.945 520.547H111.797L109.492 529H107.93L106.117 523.195L104.336 529H102.773L100.461 520.547H102.312L103.68 526.32L105.414 520.547H106.844L108.602 526.383ZM118.117 529C118.034 528.839 117.961 528.576 117.898 528.211C117.294 528.841 116.555 529.156 115.68 529.156C114.831 529.156 114.138 528.914 113.602 528.43C113.065 527.945 112.797 527.346 112.797 526.633C112.797 525.732 113.13 525.042 113.797 524.562C114.469 524.078 115.427 523.836 116.672 523.836H117.836V523.281C117.836 522.844 117.714 522.495 117.469 522.234C117.224 521.969 116.852 521.836 116.352 521.836C115.919 521.836 115.565 521.945 115.289 522.164C115.013 522.378 114.875 522.651 114.875 522.984H112.977C112.977 522.521 113.13 522.089 113.438 521.688C113.745 521.281 114.161 520.964 114.688 520.734C115.219 520.505 115.81 520.391 116.461 520.391C117.451 520.391 118.24 520.641 118.828 521.141C119.417 521.635 119.719 522.333 119.734 523.234V527.047C119.734 527.807 119.841 528.414 120.055 528.867V529H118.117ZM116.031 527.633C116.406 527.633 116.758 527.542 117.086 527.359C117.419 527.177 117.669 526.932 117.836 526.625V525.031H116.812C116.109 525.031 115.581 525.154 115.227 525.398C114.872 525.643 114.695 525.99 114.695 526.438C114.695 526.802 114.815 527.094 115.055 527.312C115.299 527.526 115.625 527.633 116.031 527.633ZM126.461 526.703C126.461 526.365 126.32 526.107 126.039 525.93C125.763 525.753 125.302 525.596 124.656 525.461C124.01 525.326 123.471 525.154 123.039 524.945C122.091 524.487 121.617 523.823 121.617 522.953C121.617 522.224 121.924 521.615 122.539 521.125C123.154 520.635 123.935 520.391 124.883 520.391C125.893 520.391 126.708 520.641 127.328 521.141C127.953 521.641 128.266 522.289 128.266 523.086H126.367C126.367 522.721 126.232 522.419 125.961 522.18C125.69 521.935 125.331 521.812 124.883 521.812C124.466 521.812 124.125 521.909 123.859 522.102C123.599 522.294 123.469 522.552 123.469 522.875C123.469 523.167 123.591 523.393 123.836 523.555C124.081 523.716 124.576 523.88 125.32 524.047C126.065 524.208 126.648 524.404 127.07 524.633C127.497 524.857 127.812 525.128 128.016 525.445C128.224 525.763 128.328 526.148 128.328 526.602C128.328 527.362 128.013 527.979 127.383 528.453C126.753 528.922 125.927 529.156 124.906 529.156C124.214 529.156 123.596 529.031 123.055 528.781C122.513 528.531 122.091 528.188 121.789 527.75C121.487 527.312 121.336 526.841 121.336 526.336H123.18C123.206 526.784 123.375 527.13 123.688 527.375C124 527.615 124.414 527.734 124.93 527.734C125.43 527.734 125.81 527.641 126.07 527.453C126.331 527.26 126.461 527.01 126.461 526.703ZM135.992 529H134.094V520.547H135.992V529ZM133.977 518.352C133.977 518.06 134.068 517.818 134.25 517.625C134.438 517.432 134.703 517.336 135.047 517.336C135.391 517.336 135.656 517.432 135.844 517.625C136.031 517.818 136.125 518.06 136.125 518.352C136.125 518.638 136.031 518.878 135.844 519.07C135.656 519.258 135.391 519.352 135.047 519.352C134.703 519.352 134.438 519.258 134.25 519.07C134.068 518.878 133.977 518.638 133.977 518.352ZM140.445 518.492V520.547H141.938V521.953H140.445V526.672C140.445 526.995 140.508 527.229 140.633 527.375C140.763 527.516 140.992 527.586 141.32 527.586C141.539 527.586 141.76 527.56 141.984 527.508V528.977C141.552 529.096 141.135 529.156 140.734 529.156C139.276 529.156 138.547 528.352 138.547 526.742V521.953H137.156V520.547H138.547V518.492H140.445ZM145.156 525.656C145.156 524.964 145.242 524.411 145.414 524C145.586 523.589 145.924 523.138 146.43 522.648C146.94 522.154 147.263 521.802 147.398 521.594C147.607 521.276 147.711 520.932 147.711 520.562C147.711 520.073 147.589 519.701 147.344 519.445C147.104 519.185 146.75 519.055 146.281 519.055C145.833 519.055 145.471 519.182 145.195 519.438C144.924 519.688 144.789 520.029 144.789 520.461H142.891C142.901 519.539 143.214 518.81 143.828 518.273C144.448 517.737 145.266 517.469 146.281 517.469C147.328 517.469 148.143 517.734 148.727 518.266C149.315 518.797 149.609 519.539 149.609 520.492C149.609 521.341 149.214 522.177 148.422 523L147.461 523.945C147.117 524.336 146.94 524.906 146.93 525.656H145.156ZM145.023 528.086C145.023 527.779 145.12 527.531 145.312 527.344C145.505 527.151 145.766 527.055 146.094 527.055C146.427 527.055 146.69 527.154 146.883 527.352C147.076 527.544 147.172 527.789 147.172 528.086C147.172 528.372 147.078 528.612 146.891 528.805C146.703 528.997 146.438 529.094 146.094 529.094C145.75 529.094 145.484 528.997 145.297 528.805C145.115 528.612 145.023 528.372 145.023 528.086Z" fill="#C1BEBE"/>
<circle cx="38.5" cy="566.5" r="22" stroke="#C4C4C4"/>
<circle cx="103.5" cy="566.5" r="22" stroke="#C4C4C4"/>
<circle cx="168.5" cy="566.5" r="22" stroke="#C4C4C4"/>
<circle cx="233.5" cy="566.5" r="22" stroke="#C4C4C4"/>
<circle cx="298.5" cy="566.5" r="22" stroke="#C4C4C4"/>
<path d="M27.229 570.032C28.8179 571.35 30.2277 572.854 31.8493 574.14C33.913 575.777 36.9203 576.008 39.4436 576.008C43.6941 576.008 47.1183 574.112 50.0813 571.083C50.9676 570.177 51.2098 569.045 51.8796 568.04" stroke="#C4C4C4" stroke-linecap="round" stroke-linejoin="round"/>
<path d="M33.2049 558.329C32.5113 562.392 35.355 557.712 33.2049 557.831C32.3501 557.879 32.2667 559.092 32.9559 559.436C33.6829 559.8 34.4202 559.178 34.1456 558.385C33.8769 557.609 32.8327 557.629 32.5825 558.329C32.3893 558.87 32.8809 560.206 33.3986 559.325C34.3432 557.72 31.96 557.729 31.96 559.076" stroke="#C4C4C4" stroke-linecap="round" stroke-linejoin="round"/>
<path d="M42.6667 558.827C44.2527 559.933 44.5524 558.08 43.9117 558.08C42.9172 558.08 42.6059 558.231 42.6667 559.325C42.7239 560.355 44.3212 560.085 44.6034 559.27C44.9034 558.403 44.5288 557.804 43.6074 558.136C40.7147 559.177 45.0638 560.65 43.967 558.578C43.5702 557.829 42.6954 558.809 42.6667 559.325C42.6065 560.409 43.4137 559.968 43.4137 559.076" stroke="#C4C4C4" stroke-linecap="round" stroke-linejoin="round"/>
<rect x="17" y="634" width="343" height="39" fill="white" fill-opacity="0.4"/>
<rect x="17.5" y="634.5" width="342" height="38" stroke="#C4C4C4" stroke-opacity="0.4"/>
<path d="M265.692 655.385L271.385 649.692H260L265.692 655.385Z" fill="#C4C4C4"/>
<path d="M135.929 655.66H130.567L129.363 659H127.623L132.51 646.203H133.986L138.882 659H137.15L135.929 655.66ZM131.077 654.271H135.428L133.248 648.286L131.077 654.271ZM139.954 654.166C139.954 652.707 140.3 651.535 140.991 650.65C141.683 649.76 142.588 649.314 143.707 649.314C144.82 649.314 145.702 649.695 146.353 650.457V645.5H147.979V659H146.484L146.405 657.98C145.755 658.777 144.85 659.176 143.689 659.176C142.588 659.176 141.688 658.725 140.991 657.822C140.3 656.92 139.954 655.742 139.954 654.289V654.166ZM141.58 654.351C141.58 655.429 141.803 656.272 142.248 656.882C142.693 657.491 143.309 657.796 144.094 657.796C145.125 657.796 145.878 657.333 146.353 656.407V652.039C145.866 651.143 145.119 650.694 144.111 650.694C143.314 650.694 142.693 651.002 142.248 651.617C141.803 652.232 141.58 653.144 141.58 654.351ZM150.114 654.166C150.114 652.707 150.46 651.535 151.151 650.65C151.843 649.76 152.748 649.314 153.867 649.314C154.98 649.314 155.862 649.695 156.513 650.457V645.5H158.139V659H156.645L156.565 657.98C155.915 658.777 155.01 659.176 153.85 659.176C152.748 659.176 151.849 658.725 151.151 657.822C150.46 656.92 150.114 655.742 150.114 654.289V654.166ZM151.74 654.351C151.74 655.429 151.963 656.272 152.408 656.882C152.854 657.491 153.469 657.796 154.254 657.796C155.285 657.796 156.038 657.333 156.513 656.407V652.039C156.026 651.143 155.279 650.694 154.271 650.694C153.475 650.694 152.854 651.002 152.408 651.617C151.963 652.232 151.74 653.144 151.74 654.351ZM171.006 659C170.912 658.812 170.836 658.479 170.777 657.998C170.021 658.783 169.119 659.176 168.07 659.176C167.133 659.176 166.362 658.912 165.759 658.385C165.161 657.852 164.862 657.178 164.862 656.363C164.862 655.373 165.237 654.605 165.987 654.061C166.743 653.51 167.804 653.234 169.169 653.234H170.751V652.487C170.751 651.919 170.581 651.468 170.241 651.134C169.901 650.794 169.4 650.624 168.738 650.624C168.158 650.624 167.672 650.771 167.279 651.063C166.887 651.356 166.69 651.711 166.69 652.127H165.056C165.056 651.652 165.223 651.195 165.557 650.756C165.896 650.311 166.354 649.959 166.928 649.701C167.508 649.443 168.144 649.314 168.835 649.314C169.931 649.314 170.789 649.59 171.41 650.141C172.031 650.686 172.354 651.438 172.377 652.399V656.776C172.377 657.649 172.488 658.344 172.711 658.859V659H171.006ZM168.308 657.761C168.817 657.761 169.301 657.629 169.758 657.365C170.215 657.102 170.546 656.759 170.751 656.337V654.386H169.477C167.484 654.386 166.488 654.969 166.488 656.135C166.488 656.645 166.658 657.043 166.998 657.33C167.338 657.617 167.774 657.761 168.308 657.761ZM184.928 656.478C184.928 656.038 184.761 655.698 184.427 655.458C184.099 655.212 183.521 655.001 182.695 654.825C181.875 654.649 181.222 654.438 180.735 654.192C180.255 653.946 179.897 653.653 179.663 653.313C179.435 652.974 179.32 652.569 179.32 652.101C179.32 651.321 179.648 650.662 180.305 650.123C180.967 649.584 181.811 649.314 182.836 649.314C183.914 649.314 184.787 649.593 185.455 650.149C186.129 650.706 186.466 651.418 186.466 652.285H184.831C184.831 651.84 184.641 651.456 184.26 651.134C183.885 650.812 183.41 650.65 182.836 650.65C182.244 650.65 181.781 650.779 181.447 651.037C181.113 651.295 180.946 651.632 180.946 652.048C180.946 652.44 181.102 652.736 181.412 652.936C181.723 653.135 182.282 653.325 183.091 653.507C183.905 653.688 184.564 653.905 185.068 654.157C185.572 654.409 185.944 654.714 186.185 655.071C186.431 655.423 186.554 655.854 186.554 656.363C186.554 657.213 186.214 657.896 185.534 658.411C184.854 658.921 183.973 659.176 182.889 659.176C182.127 659.176 181.453 659.041 180.867 658.771C180.281 658.502 179.821 658.127 179.487 657.646C179.159 657.16 178.995 656.636 178.995 656.073H180.621C180.65 656.618 180.867 657.052 181.271 657.374C181.682 657.69 182.221 657.849 182.889 657.849C183.504 657.849 183.996 657.726 184.365 657.479C184.74 657.228 184.928 656.894 184.928 656.478ZM191.783 656.618L193.998 649.49H195.738L191.915 660.468C191.323 662.05 190.383 662.841 189.094 662.841L188.786 662.814L188.18 662.7V661.382L188.619 661.417C189.17 661.417 189.598 661.306 189.902 661.083C190.213 660.86 190.468 660.453 190.667 659.861L191.027 658.895L187.635 649.49H189.41L191.783 656.618ZM198.727 649.49L198.771 650.545C199.468 649.725 200.408 649.314 201.592 649.314C202.922 649.314 203.827 649.824 204.308 650.844C204.624 650.387 205.034 650.018 205.538 649.736C206.048 649.455 206.648 649.314 207.34 649.314C209.426 649.314 210.486 650.419 210.521 652.628V659H208.896V652.725C208.896 652.045 208.74 651.538 208.43 651.204C208.119 650.864 207.598 650.694 206.865 650.694C206.262 650.694 205.761 650.876 205.362 651.239C204.964 651.597 204.732 652.08 204.668 652.689V659H203.033V652.769C203.033 651.386 202.356 650.694 201.003 650.694C199.937 650.694 199.207 651.148 198.814 652.057V659H197.188V649.49H198.727ZM221.016 654.351C221.016 655.798 220.685 656.964 220.022 657.849C219.36 658.733 218.464 659.176 217.333 659.176C216.179 659.176 215.271 658.81 214.608 658.077V662.656H212.982V649.49H214.468L214.547 650.545C215.209 649.725 216.129 649.314 217.307 649.314C218.449 649.314 219.352 649.745 220.014 650.606C220.682 651.468 221.016 652.666 221.016 654.201V654.351ZM219.39 654.166C219.39 653.094 219.161 652.247 218.704 651.626C218.247 651.005 217.62 650.694 216.823 650.694C215.839 650.694 215.101 651.131 214.608 652.004V656.548C215.095 657.415 215.839 657.849 216.841 657.849C217.62 657.849 218.238 657.541 218.695 656.926C219.158 656.305 219.39 655.385 219.39 654.166ZM225.296 647.188V649.49H227.071V650.747H225.296V656.645C225.296 657.025 225.375 657.312 225.533 657.506C225.691 657.693 225.961 657.787 226.342 657.787C226.529 657.787 226.787 657.752 227.115 657.682V659C226.688 659.117 226.271 659.176 225.867 659.176C225.141 659.176 224.593 658.956 224.224 658.517C223.854 658.077 223.67 657.453 223.67 656.645V650.747H221.938V649.49H223.67V647.188H225.296ZM228.372 654.157C228.372 653.226 228.554 652.388 228.917 651.644C229.286 650.899 229.796 650.325 230.446 649.921C231.103 649.517 231.85 649.314 232.688 649.314C233.982 649.314 235.028 649.763 235.825 650.659C236.628 651.556 237.029 652.748 237.029 654.236V654.351C237.029 655.276 236.851 656.108 236.493 656.847C236.142 657.579 235.635 658.15 234.973 658.561C234.316 658.971 233.561 659.176 232.705 659.176C231.416 659.176 230.37 658.728 229.567 657.831C228.771 656.935 228.372 655.748 228.372 654.271V654.157ZM230.007 654.351C230.007 655.405 230.25 656.252 230.736 656.891C231.229 657.529 231.885 657.849 232.705 657.849C233.531 657.849 234.188 657.526 234.674 656.882C235.16 656.231 235.403 655.323 235.403 654.157C235.403 653.114 235.154 652.271 234.656 651.626C234.164 650.976 233.508 650.65 232.688 650.65C231.885 650.65 231.237 650.97 230.745 651.608C230.253 652.247 230.007 653.161 230.007 654.351ZM240.598 649.49L240.642 650.545C241.339 649.725 242.279 649.314 243.463 649.314C244.793 649.314 245.698 649.824 246.179 650.844C246.495 650.387 246.905 650.018 247.409 649.736C247.919 649.455 248.52 649.314 249.211 649.314C251.297 649.314 252.357 650.419 252.393 652.628V659H250.767V652.725C250.767 652.045 250.611 651.538 250.301 651.204C249.99 650.864 249.469 650.694 248.736 650.694C248.133 650.694 247.632 650.876 247.233 651.239C246.835 651.597 246.604 652.08 246.539 652.689V659H244.904V652.769C244.904 651.386 244.228 650.694 242.874 650.694C241.808 650.694 241.078 651.148 240.686 652.057V659H239.06V649.49H240.598Z" fill="#C1BEBE"/>
<path d="M0 748H375V811H0V748Z" fill="#EFECEC"/>
<path d="M67.5742 778.139C67.5742 779.941 67.2399 781.537 66.5713 782.925C65.9027 784.313 64.9505 785.383 63.7148 786.137C62.4876 786.882 61.0869 787.254 59.5127 787.254C57.9385 787.254 56.542 786.894 55.3232 786.175C54.1045 785.447 53.1523 784.41 52.4668 783.064C51.7897 781.719 51.4342 780.174 51.4004 778.431V777.39C51.4004 775.578 51.7305 773.983 52.3906 772.604C53.0592 771.215 54.0114 770.145 55.2471 769.392C56.4912 768.638 57.9046 768.262 59.4873 768.262C61.0531 768.262 62.4495 768.634 63.6768 769.379C64.904 770.124 65.8561 771.186 66.5332 772.565C67.2188 773.937 67.5658 775.511 67.5742 777.288V778.139ZM63.042 777.364C63.042 775.528 62.7331 774.135 62.1152 773.188C61.5059 772.231 60.6299 771.753 59.4873 771.753C57.2529 771.753 56.0723 773.429 55.9453 776.78L55.9326 778.139C55.9326 779.95 56.2331 781.342 56.834 782.315C57.4349 783.289 58.3278 783.775 59.5127 783.775C60.6383 783.775 61.5059 783.297 62.1152 782.341C62.7246 781.384 63.0335 780.009 63.042 778.215V777.364Z" fill="white"/>
<rect x="28" y="748" width="42" height="63" fill="#EFECEC"/>
<rect x="76" y="748" width="42" height="63" fill="#EFECEC"/>
<rect x="124" y="748" width="42" height="63" fill="#EFECEC"/>
<rect x="172" y="748" width="42" height="63" fill="#EFECEC"/>
<rect x="220" y="748" width="42" height="63" fill="#EFECEC"/>
<rect x="268" y="748" width="42" height="63" fill="#EFECEC"/>
<rect x="316" y="748" width="42" height="63" fill="#EFECEC"/>
<circle cx="48.5" cy="778.5" r="19.5" fill="#C4C4C4" fill-opacity="0.3"/>
<path d="M54.1289 778.865C54.1289 780.113 53.8975 781.218 53.4346 782.179C52.9717 783.14 52.3125 783.881 51.457 784.402C50.6074 784.918 49.6377 785.176 48.5479 785.176C47.458 785.176 46.4912 784.927 45.6475 784.429C44.8037 783.925 44.1445 783.207 43.6699 782.275C43.2012 781.344 42.9551 780.274 42.9316 779.067V778.347C42.9316 777.093 43.1602 775.988 43.6172 775.033C44.0801 774.072 44.7393 773.331 45.5947 772.81C46.4561 772.288 47.4346 772.027 48.5303 772.027C49.6143 772.027 50.5811 772.285 51.4307 772.801C52.2803 773.316 52.9395 774.052 53.4082 775.007C53.8828 775.956 54.123 777.046 54.1289 778.276V778.865ZM50.9912 778.329C50.9912 777.058 50.7773 776.094 50.3496 775.438C49.9277 774.775 49.3213 774.444 48.5303 774.444C46.9834 774.444 46.166 775.604 46.0781 777.925L46.0693 778.865C46.0693 780.119 46.2773 781.083 46.6934 781.757C47.1094 782.431 47.7275 782.768 48.5479 782.768C49.3271 782.768 49.9277 782.437 50.3496 781.774C50.7715 781.112 50.9854 780.16 50.9912 778.918V778.329Z" fill="white"/>
<path d="M93.9258 779.99V785H92.2383V772.203H96.958C98.3584 772.203 99.4541 772.561 100.245 773.275C101.042 773.99 101.44 774.937 101.44 776.114C101.44 777.356 101.051 778.314 100.271 778.988C99.498 779.656 98.3877 779.99 96.9404 779.99H93.9258ZM93.9258 778.61H96.958C97.8604 778.61 98.5518 778.399 99.0322 777.978C99.5127 777.55 99.7529 776.935 99.7529 776.132C99.7529 775.37 99.5127 774.761 99.0322 774.304C98.5518 773.847 97.8926 773.609 97.0547 773.592H93.9258V778.61ZM149.367 779.015C149.367 780.251 149.171 781.317 148.778 782.214C148.386 783.104 147.835 783.802 147.126 784.306L149.411 786.099L148.26 787.162L145.562 785.018C145.14 785.123 144.694 785.176 144.226 785.176C143.218 785.176 142.324 784.93 141.545 784.438C140.766 783.939 140.159 783.233 139.726 782.319C139.298 781.399 139.078 780.336 139.066 779.129V778.206C139.066 776.976 139.28 775.889 139.708 774.945C140.136 774.002 140.739 773.281 141.519 772.783C142.304 772.279 143.2 772.027 144.208 772.027C145.239 772.027 146.145 772.276 146.924 772.774C147.709 773.272 148.312 773.99 148.734 774.928C149.156 775.859 149.367 776.949 149.367 778.197V779.015ZM147.68 778.188C147.68 776.683 147.378 775.522 146.774 774.708C146.177 773.888 145.321 773.478 144.208 773.478C143.147 773.478 142.31 773.885 141.694 774.699C141.085 775.508 140.771 776.633 140.754 778.074V779.015C140.754 780.479 141.059 781.634 141.668 782.478C142.283 783.321 143.136 783.743 144.226 783.743C145.315 783.743 146.159 783.348 146.757 782.557C147.354 781.76 147.662 780.62 147.68 779.138V778.188ZM192.662 779.823H189.656V785H187.96V772.203H192.196C193.638 772.203 194.745 772.531 195.519 773.188C196.298 773.844 196.688 774.799 196.688 776.053C196.688 776.85 196.471 777.544 196.037 778.136C195.609 778.728 195.012 779.17 194.244 779.463L197.25 784.895V785H195.439L192.662 779.823ZM189.656 778.443H192.249C193.087 778.443 193.752 778.227 194.244 777.793C194.742 777.359 194.991 776.779 194.991 776.053C194.991 775.262 194.754 774.655 194.279 774.233C193.811 773.812 193.131 773.598 192.24 773.592H189.656V778.443ZM238.831 779.296C237.384 778.88 236.329 778.37 235.667 777.767C235.011 777.157 234.683 776.407 234.683 775.517C234.683 774.509 235.084 773.677 235.887 773.021C236.695 772.358 237.744 772.027 239.033 772.027C239.912 772.027 240.694 772.197 241.38 772.537C242.071 772.877 242.604 773.346 242.979 773.943C243.36 774.541 243.551 775.194 243.551 775.903H241.854C241.854 775.13 241.608 774.523 241.116 774.084C240.624 773.639 239.93 773.416 239.033 773.416C238.201 773.416 237.551 773.601 237.082 773.97C236.619 774.333 236.388 774.84 236.388 775.49C236.388 776.012 236.607 776.454 237.047 776.817C237.492 777.175 238.245 777.503 239.306 777.802C240.372 778.101 241.204 778.432 241.802 778.795C242.405 779.152 242.851 779.571 243.138 780.052C243.431 780.532 243.577 781.098 243.577 781.748C243.577 782.785 243.173 783.617 242.364 784.244C241.556 784.865 240.475 785.176 239.121 785.176C238.242 785.176 237.422 785.009 236.66 784.675C235.898 784.335 235.31 783.872 234.894 783.286C234.483 782.7 234.278 782.035 234.278 781.291H235.975C235.975 782.064 236.259 782.677 236.827 783.128C237.401 783.573 238.166 783.796 239.121 783.796C240.012 783.796 240.694 783.614 241.169 783.251C241.644 782.888 241.881 782.393 241.881 781.766C241.881 781.139 241.661 780.655 241.222 780.315C240.782 779.97 239.985 779.63 238.831 779.296ZM290.59 773.592H286.477V785H284.798V773.592H280.693V772.203H290.59V773.592ZM337.497 772.203V780.904C337.491 782.111 337.11 783.099 336.354 783.866C335.604 784.634 334.585 785.064 333.296 785.158L332.848 785.176C331.447 785.176 330.331 784.798 329.499 784.042C328.667 783.286 328.245 782.246 328.233 780.922V772.203H329.903V780.869C329.903 781.795 330.158 782.516 330.668 783.031C331.178 783.541 331.904 783.796 332.848 783.796C333.803 783.796 334.532 783.541 335.036 783.031C335.546 782.521 335.801 781.804 335.801 780.878V772.203H337.497Z" fill="#C4C4C4"/>
<path d="M0 749H375V812H0V749Z" fill="#EFECEC"/>
<path d="M67.5742 780.139C67.5742 781.941 67.2399 783.537 66.5713 784.925C65.9027 786.313 64.9505 787.383 63.7148 788.137C62.4876 788.882 61.0869 789.254 59.5127 789.254C57.9385 789.254 56.542 788.894 55.3232 788.175C54.1045 787.447 53.1523 786.41 52.4668 785.064C51.7897 783.719 51.4342 782.174 51.4004 780.431V779.39C51.4004 777.578 51.7305 775.983 52.3906 774.604C53.0592 773.215 54.0114 772.145 55.2471 771.392C56.4912 770.638 57.9046 770.262 59.4873 770.262C61.0531 770.262 62.4495 770.634 63.6768 771.379C64.904 772.124 65.8561 773.186 66.5332 774.565C67.2188 775.937 67.5658 777.511 67.5742 779.288V780.139ZM63.042 779.364C63.042 777.528 62.7331 776.135 62.1152 775.188C61.5059 774.231 60.6299 773.753 59.4873 773.753C57.2529 773.753 56.0723 775.429 55.9453 778.78L55.9326 780.139C55.9326 781.95 56.2331 783.342 56.834 784.315C57.4349 785.289 58.3278 785.775 59.5127 785.775C60.6383 785.775 61.5059 785.297 62.1152 784.341C62.7246 783.384 63.0335 782.009 63.042 780.215V779.364Z" fill="white"/>
<rect x="28" y="750" width="42" height="63" fill="#EFECEC"/>
<rect x="76" y="750" width="42" height="63" fill="#EFECEC"/>
<rect x="124" y="750" width="42" height="63" fill="#EFECEC"/>
<rect x="172" y="750" width="42" height="63" fill="#EFECEC"/>
<rect x="220" y="750" width="42" height="63" fill="#EFECEC"/>
<rect x="268" y="750" width="42" height="63" fill="#EFECEC"/>
<rect x="316" y="750" width="42" height="63" fill="#EFECEC"/>
<circle cx="48.5" cy="780.5" r="19.5" fill="#C4C4C4" fill-opacity="0.3"/>
<path d="M54.1289 780.865C54.1289 782.113 53.8975 783.218 53.4346 784.179C52.9717 785.14 52.3125 785.881 51.457 786.402C50.6074 786.918 49.6377 787.176 48.5479 787.176C47.458 787.176 46.4912 786.927 45.6475 786.429C44.8037 785.925 44.1445 785.207 43.6699 784.275C43.2012 783.344 42.9551 782.274 42.9316 781.067V780.347C42.9316 779.093 43.1602 777.988 43.6172 777.033C44.0801 776.072 44.7393 775.331 45.5947 774.81C46.4561 774.288 47.4346 774.027 48.5303 774.027C49.6143 774.027 50.5811 774.285 51.4307 774.801C52.2803 775.316 52.9395 776.052 53.4082 777.007C53.8828 777.956 54.123 779.046 54.1289 780.276V780.865ZM50.9912 780.329C50.9912 779.058 50.7773 778.094 50.3496 777.438C49.9277 776.775 49.3213 776.444 48.5303 776.444C46.9834 776.444 46.166 777.604 46.0781 779.925L46.0693 780.865C46.0693 782.119 46.2773 783.083 46.6934 783.757C47.1094 784.431 47.7275 784.768 48.5479 784.768C49.3271 784.768 49.9277 784.437 50.3496 783.774C50.7715 783.112 50.9854 782.16 50.9912 780.918V780.329Z" fill="white"/>
<path d="M93.9258 781.99V787H92.2383V774.203H96.958C98.3584 774.203 99.4541 774.561 100.245 775.275C101.042 775.99 101.44 776.937 101.44 778.114C101.44 779.356 101.051 780.314 100.271 780.988C99.498 781.656 98.3877 781.99 96.9404 781.99H93.9258ZM93.9258 780.61H96.958C97.8604 780.61 98.5518 780.399 99.0322 779.978C99.5127 779.55 99.7529 778.935 99.7529 778.132C99.7529 777.37 99.5127 776.761 99.0322 776.304C98.5518 775.847 97.8926 775.609 97.0547 775.592H93.9258V780.61ZM149.367 781.015C149.367 782.251 149.171 783.317 148.778 784.214C148.386 785.104 147.835 785.802 147.126 786.306L149.411 788.099L148.26 789.162L145.562 787.018C145.14 787.123 144.694 787.176 144.226 787.176C143.218 787.176 142.324 786.93 141.545 786.438C140.766 785.939 140.159 785.233 139.726 784.319C139.298 783.399 139.078 782.336 139.066 781.129V780.206C139.066 778.976 139.28 777.889 139.708 776.945C140.136 776.002 140.739 775.281 141.519 774.783C142.304 774.279 143.2 774.027 144.208 774.027C145.239 774.027 146.145 774.276 146.924 774.774C147.709 775.272 148.312 775.99 148.734 776.928C149.156 777.859 149.367 778.949 149.367 780.197V781.015ZM147.68 780.188C147.68 778.683 147.378 777.522 146.774 776.708C146.177 775.888 145.321 775.478 144.208 775.478C143.147 775.478 142.31 775.885 141.694 776.699C141.085 777.508 140.771 778.633 140.754 780.074V781.015C140.754 782.479 141.059 783.634 141.668 784.478C142.283 785.321 143.136 785.743 144.226 785.743C145.315 785.743 146.159 785.348 146.757 784.557C147.354 783.76 147.662 782.62 147.68 781.138V780.188ZM192.662 781.823H189.656V787H187.96V774.203H192.196C193.638 774.203 194.745 774.531 195.519 775.188C196.298 775.844 196.688 776.799 196.688 778.053C196.688 778.85 196.471 779.544 196.037 780.136C195.609 780.728 195.012 781.17 194.244 781.463L197.25 786.895V787H195.439L192.662 781.823ZM189.656 780.443H192.249C193.087 780.443 193.752 780.227 194.244 779.793C194.742 779.359 194.991 778.779 194.991 778.053C194.991 777.262 194.754 776.655 194.279 776.233C193.811 775.812 193.131 775.598 192.24 775.592H189.656V780.443ZM238.831 781.296C237.384 780.88 236.329 780.37 235.667 779.767C235.011 779.157 234.683 778.407 234.683 777.517C234.683 776.509 235.084 775.677 235.887 775.021C236.695 774.358 237.744 774.027 239.033 774.027C239.912 774.027 240.694 774.197 241.38 774.537C242.071 774.877 242.604 775.346 242.979 775.943C243.36 776.541 243.551 777.194 243.551 777.903H241.854C241.854 777.13 241.608 776.523 241.116 776.084C240.624 775.639 239.93 775.416 239.033 775.416C238.201 775.416 237.551 775.601 237.082 775.97C236.619 776.333 236.388 776.84 236.388 777.49C236.388 778.012 236.607 778.454 237.047 778.817C237.492 779.175 238.245 779.503 239.306 779.802C240.372 780.101 241.204 780.432 241.802 780.795C242.405 781.152 242.851 781.571 243.138 782.052C243.431 782.532 243.577 783.098 243.577 783.748C243.577 784.785 243.173 785.617 242.364 786.244C241.556 786.865 240.475 787.176 239.121 787.176C238.242 787.176 237.422 787.009 236.66 786.675C235.898 786.335 235.31 785.872 234.894 785.286C234.483 784.7 234.278 784.035 234.278 783.291H235.975C235.975 784.064 236.259 784.677 236.827 785.128C237.401 785.573 238.166 785.796 239.121 785.796C240.012 785.796 240.694 785.614 241.169 785.251C241.644 784.888 241.881 784.393 241.881 783.766C241.881 783.139 241.661 782.655 241.222 782.315C240.782 781.97 239.985 781.63 238.831 781.296ZM290.59 775.592H286.477V787H284.798V775.592H280.693V774.203H290.59V775.592ZM337.497 774.203V782.904C337.491 784.111 337.11 785.099 336.354 785.866C335.604 786.634 334.585 787.064 333.296 787.158L332.848 787.176C331.447 787.176 330.331 786.798 329.499 786.042C328.667 785.286 328.245 784.246 328.233 782.922V774.203H329.903V782.869C329.903 783.795 330.158 784.516 330.668 785.031C331.178 785.541 331.904 785.796 332.848 785.796C333.803 785.796 334.532 785.541 335.036 785.031C335.546 784.521 335.801 783.804 335.801 782.878V774.203H337.497Z" fill="#C4C4C4"/>
</g>
<defs>
<filter id="filter0_bd" x="-27.1828" y="-27.1828" width="429.366" height="142.366" filterUnits="userSpaceOnUse" color-interpolation-filters="sRGB">
<feFlood flood-opacity="0" result="BackgroundImageFix"/>
<feGaussianBlur in="BackgroundImage" stdDeviation="13.5914"/>
<feComposite in2="SourceAlpha" operator="in" result="effect1_backgroundBlur"/>
<feColorMatrix in="SourceAlpha" type="matrix" values="0 0 0 0 0 0 0 0 0 0 0 0 0 0 0 0 0 0 127 0"/>
<feOffset dy="0.5"/>
<feColorMatrix type="matrix" values="0 0 0 0 0 0 0 0 0 0 0 0 0 0 0 0 0 0 0.3 0"/>
<feBlend mode="normal" in2="effect1_backgroundBlur" result="effect2_dropShadow"/>
<feBlend mode="normal" in="SourceGraphic" in2="effect2_dropShadow" result="shape"/>
</filter>
<clipPath id="clip0">
<rect width="375" height="812" fill="white"/>
</clipPath>
</defs>
</svg>
