<svg width="375" height="812" viewBox="0 0 375 812" fill="none" xmlns="http://www.w3.org/2000/svg">
<g clip-path="url(#clip0)">
<rect width="375" height="812" fill="white"/>
<g filter="url(#filter0_bd)">
<path fill-rule="evenodd" clip-rule="evenodd" d="M0 0H375V88H0V0Z" fill="#F8F8F8"/>
</g>
<path d="M346 79C353.18 79 359 73.1797 359 66C359 58.8203 353.18 53 346 53C338.82 53 333 58.8203 333 66C333 73.1797 338.82 79 346 79Z" fill="#EBEBEC"/>
<g opacity="0.1">
<path d="M352.43 61.9459C352.011 61.5265 351.312 61.5265 350.893 61.9459L343.903 68.9351L340.548 65.4405C340.129 65.0211 339.43 65.0211 339.011 65.4405C338.591 65.8598 338.591 66.5588 339.011 66.9781L343.204 71.1717C343.624 71.591 344.323 71.591 344.742 71.1717L352.43 63.4835C352.85 63.0641 352.85 62.3652 352.43 61.9459Z" fill="#010101"/>
</g>
<path d="M132.569 73.2988C135.333 73.2988 137.359 71.647 137.641 69.1982H135.533C135.242 70.543 134.088 71.3896 132.569 71.3896C130.527 71.3896 129.257 69.7129 129.257 67.0068C129.257 64.3091 130.527 62.6323 132.561 62.6323C134.072 62.6323 135.225 63.562 135.524 64.998H137.633C137.384 62.4995 135.283 60.7231 132.561 60.7231C129.166 60.7231 127.066 63.1221 127.066 67.0151C127.066 70.8916 129.174 73.2988 132.569 73.2988ZM139.422 73H141.473V63.9189H139.422V73ZM140.443 62.4414C141.199 62.4414 141.713 61.96 141.713 61.3042C141.713 60.6484 141.199 60.167 140.443 60.167C139.696 60.167 139.173 60.6484 139.173 61.3042C139.173 61.96 139.696 62.4414 140.443 62.4414ZM143.619 73H145.678V67.7124C145.678 66.376 146.45 65.5293 147.678 65.5293C148.932 65.5293 149.513 66.2266 149.513 67.6128V73H151.571V67.123C151.571 64.9565 150.467 63.7363 148.442 63.7363C147.089 63.7363 146.176 64.3589 145.744 65.3716H145.603V63.9189H143.619V73ZM156.889 73.1494C158.151 73.1494 159.197 72.5601 159.711 71.564H159.852V73H161.845V60.4077H159.786V65.3633H159.645C159.163 64.3672 158.134 63.7695 156.889 63.7695C154.598 63.7695 153.154 65.5791 153.154 68.4512C153.154 71.3398 154.59 73.1494 156.889 73.1494ZM157.528 65.521C158.939 65.521 159.811 66.6499 159.811 68.4595C159.811 70.2856 158.948 71.3979 157.528 71.3979C156.117 71.3979 155.262 70.2939 155.262 68.4595C155.262 66.6333 156.125 65.521 157.528 65.521ZM165.029 76.2954C167.062 76.2954 168.034 75.5483 168.806 73.2905L172.084 63.9189H169.91L167.793 71.0078H167.652L165.527 63.9189H163.269L166.515 73.0415L166.407 73.4399C166.141 74.2783 165.651 74.6104 164.78 74.6104C164.639 74.6104 164.331 74.6021 164.215 74.5771V76.2622C164.348 76.2871 164.904 76.2954 165.029 76.2954ZM174.986 65.8779L176.422 61.022H174.314L173.542 65.8779H174.986ZM177.15 66.5171C177.15 67.8867 177.971 68.6919 179.715 69.0903L181.325 69.4639C182.188 69.6548 182.578 69.9785 182.578 70.4932C182.578 71.1655 181.856 71.6221 180.819 71.6221C179.789 71.6221 179.15 71.2236 178.951 70.5513H176.917C177.075 72.2031 178.503 73.1826 180.769 73.1826C183.035 73.1826 184.637 72.0205 184.637 70.2773C184.637 68.9409 183.832 68.1938 182.097 67.8037L180.495 67.4385C179.582 67.231 179.15 66.9155 179.15 66.4009C179.15 65.7451 179.856 65.2969 180.794 65.2969C181.757 65.2969 182.363 65.7036 182.512 66.3428H184.446C184.297 64.6909 182.944 63.7363 180.785 63.7363C178.644 63.7363 177.15 64.8735 177.15 66.5171ZM189.827 69.7378C189.827 71.9043 191.371 73.2988 193.662 73.2988C196.069 73.2988 197.522 71.8877 197.522 69.4224V61.022H195.38V69.4058C195.38 70.6924 194.757 71.373 193.637 71.373C192.616 71.373 191.935 70.7256 191.919 69.7378H189.827ZM203.636 73.1826C206.35 73.1826 208.002 71.4062 208.002 68.4595C208.002 65.521 206.342 63.7363 203.636 63.7363C200.938 63.7363 199.27 65.5293 199.27 68.4595C199.27 71.4062 200.913 73.1826 203.636 73.1826ZM203.636 71.4561C202.2 71.4561 201.378 70.3604 201.378 68.4595C201.378 66.5669 202.2 65.4629 203.636 65.4629C205.064 65.4629 205.885 66.5669 205.885 68.4595C205.885 70.3604 205.072 71.4561 203.636 71.4561ZM217.57 63.9189H215.511V69.2065C215.511 70.5513 214.781 71.373 213.444 71.373C212.216 71.373 211.643 70.6924 211.643 69.3062V63.9189H209.584V69.8208C209.584 71.9458 210.746 73.1826 212.73 73.1826C214.117 73.1826 215.005 72.5933 215.445 71.5557H215.586V73H217.57V63.9189ZM219.683 73H221.742V67.7539C221.742 66.4839 222.671 65.6538 224.008 65.6538C224.357 65.6538 224.904 65.7119 225.062 65.77V63.8608C224.871 63.8027 224.506 63.7695 224.207 63.7695C223.037 63.7695 222.057 64.4336 221.808 65.3301H221.667V63.9189H219.683V73ZM226.462 73H228.52V67.7124C228.52 66.376 229.292 65.5293 230.521 65.5293C231.774 65.5293 232.355 66.2266 232.355 67.6128V73H234.414V67.123C234.414 64.9565 233.31 63.7363 231.284 63.7363C229.931 63.7363 229.018 64.3589 228.587 65.3716H228.446V63.9189H226.462V73ZM239.549 71.5308C238.636 71.5308 237.98 71.0742 237.98 70.3105C237.98 69.5718 238.519 69.1567 239.673 69.082L241.724 68.9492V69.6714C241.724 70.7256 240.794 71.5308 239.549 71.5308ZM238.943 73.1494C240.13 73.1494 241.126 72.6348 241.632 71.7549H241.773V73H243.757V66.7993C243.757 64.8735 242.446 63.7363 240.113 63.7363C237.955 63.7363 236.453 64.7573 236.286 66.3594H238.229C238.42 65.7451 239.067 65.4131 240.014 65.4131C241.126 65.4131 241.724 65.9111 241.724 66.7993V67.563L239.383 67.7041C237.175 67.8369 235.938 68.7832 235.938 70.4268C235.938 72.0869 237.191 73.1494 238.943 73.1494ZM245.912 73H247.971V60.4077H245.912V73Z" fill="black"/>
<path d="M38.0898 72V60.022H36.5957V65.2017H30.0215V60.022H28.5273V72H30.0215V66.5464H36.5957V72H38.0898ZM44.2292 72.1577C46.7775 72.1577 48.3546 70.3979 48.3546 67.5259C48.3546 64.6455 46.7775 62.894 44.2292 62.894C41.6808 62.894 40.1037 64.6455 40.1037 67.5259C40.1037 70.3979 41.6808 72.1577 44.2292 72.1577ZM44.2292 70.8711C42.5358 70.8711 41.5812 69.6426 41.5812 67.5259C41.5812 65.4009 42.5358 64.1807 44.2292 64.1807C45.9225 64.1807 46.8771 65.4009 46.8771 67.5259C46.8771 69.6426 45.9225 70.8711 44.2292 70.8711ZM50.1859 72H51.6136V66.4551C51.6136 65.1934 52.5184 64.1807 53.6888 64.1807C54.8177 64.1807 55.5565 64.8613 55.5565 65.9238V72H56.9842V66.2476C56.9842 65.1104 57.8143 64.1807 59.0594 64.1807C60.3211 64.1807 60.9437 64.8281 60.9437 66.1479V72H62.3714V65.8159C62.3714 63.9399 61.3504 62.894 59.5242 62.894C58.2874 62.894 57.2664 63.5166 56.785 64.4629H56.6522C56.2371 63.5332 55.3904 62.894 54.1785 62.894C52.9832 62.894 52.0867 63.4668 51.68 64.4629H51.5472V63.0518H50.1859V72ZM68.1372 64.1558C69.5566 64.1558 70.5029 65.2017 70.5361 66.7871H65.6054C65.7134 65.2017 66.7095 64.1558 68.1372 64.1558ZM70.4946 69.6841C70.1211 70.4727 69.3408 70.896 68.187 70.896C66.6679 70.896 65.6802 69.7754 65.6054 68.0073V67.9409H72.0386V67.3931C72.0386 64.6123 70.5693 62.894 68.1538 62.894C65.6968 62.894 64.1196 64.7202 64.1196 67.5342C64.1196 70.3647 65.6719 72.1577 68.1538 72.1577C70.1128 72.1577 71.4907 71.2197 71.9223 69.6841H70.4946Z" fill="#007AFF"/>
<mask id="mask0" mask-type="alpha" maskUnits="userSpaceOnUse" x="8" y="55" width="13" height="22">
<path fill-rule="evenodd" clip-rule="evenodd" d="M18.3305 55.9855L8.9667 64.9755C8.43916 65.4812 8.43916 66.3255 8.9667 66.8333L18.3305 75.8212C18.9048 76.3726 19.8114 76.3726 20.3856 75.8212C20.9931 75.2375 20.9931 74.2656 20.3856 73.6809L12.5432 66.1521C12.4009 66.016 12.4009 65.7907 12.5432 65.6546L20.3856 58.1258C20.9931 57.5422 20.9931 56.5702 20.3856 55.9855C20.098 55.7114 19.7283 55.5732 19.3586 55.5732C18.9879 55.5732 18.6182 55.7114 18.3305 55.9855Z" fill="white"/>
</mask>
<g mask="url(#mask0)">
<path fill-rule="evenodd" clip-rule="evenodd" d="M18.3305 55.9855L8.9667 64.9755C8.43916 65.4812 8.43916 66.3255 8.9667 66.8333L18.3305 75.8212C18.9048 76.3726 19.8114 76.3726 20.3856 75.8212C20.9931 75.2375 20.9931 74.2656 20.3856 73.6809L12.5432 66.1521C12.4009 66.016 12.4009 65.7907 12.5432 65.6546L20.3856 58.1258C20.9931 57.5422 20.9931 56.5702 20.3856 55.9855C20.098 55.7114 19.7283 55.5732 19.3586 55.5732C18.9879 55.5732 18.6182 55.7114 18.3305 55.9855Z" fill="#007AFF"/>
</g>
<path opacity="0.35" d="M336.5 20.0002C336.5 18.8035 337.47 17.8335 338.667 17.8335H355.333C356.53 17.8335 357.5 18.8035 357.5 20.0002V26.0002C357.5 27.1968 356.53 28.1668 355.333 28.1668H338.667C337.47 28.1668 336.5 27.1968 336.5 26.0002V20.0002Z" stroke="black"/>
<path opacity="0.4" d="M359 21V25C359.805 24.6612 360.328 23.8731 360.328 23C360.328 22.1269 359.805 21.3388 359 21Z" fill="black"/>
<path d="M338 20.6668C338 19.9305 338.597 19.3335 339.333 19.3335H354.667C355.403 19.3335 356 19.9304 356 20.6668V25.3335C356 26.0699 355.403 26.6668 354.667 26.6668H339.333C338.597 26.6668 338 26.0699 338 25.3335V20.6668Z" fill="black"/>
<path fill-rule="evenodd" clip-rule="evenodd" d="M323.331 19.6078C325.546 19.6078 327.677 20.4594 329.283 21.9862C329.404 22.1039 329.598 22.1024 329.717 21.9828L330.873 20.8163C330.933 20.7552 330.967 20.6732 330.966 20.5878C330.966 20.5018 330.931 20.4203 330.87 20.3602C326.655 16.3207 320.005 16.3207 315.79 20.3602C315.729 20.4203 315.694 20.5018 315.694 20.5873C315.693 20.6732 315.727 20.7552 315.787 20.8163L316.943 21.9828C317.063 22.1029 317.256 22.1044 317.377 21.9862C318.983 20.4594 321.114 19.6078 323.331 19.6078ZM323.331 23.4032C324.548 23.4032 325.722 23.8558 326.625 24.6732C326.747 24.7889 326.939 24.7865 327.058 24.6674L328.212 23.5009C328.273 23.4393 328.307 23.3563 328.306 23.2704C328.305 23.184 328.27 23.1014 328.208 23.0419C325.46 20.4852 321.204 20.4852 318.456 23.0419C318.393 23.1014 318.358 23.184 318.357 23.2704C318.356 23.3563 318.39 23.4393 318.451 23.5009L319.605 24.6674C319.67 24.7318 319.756 24.7621 319.84 24.7582C319.912 24.7548 319.983 24.7264 320.039 24.6732C320.941 23.8563 322.114 23.4037 323.331 23.4032ZM325.644 25.9574C325.645 26.0438 325.611 26.1273 325.55 26.1879L323.552 28.2035C323.494 28.2631 323.414 28.2963 323.331 28.2963C323.247 28.2963 323.167 28.2631 323.109 28.2035L321.111 26.1879C321.05 26.1273 321.016 26.0438 321.017 25.9574C321.019 25.871 321.057 25.7889 321.121 25.7308C322.396 24.6522 324.265 24.6522 325.54 25.7308C325.604 25.7889 325.642 25.871 325.644 25.9574Z" fill="black"/>
<path fill-rule="evenodd" clip-rule="evenodd" d="M309.667 17.6665H308.667C308.378 17.6665 308.119 17.7886 307.936 17.9834C307.769 18.1621 307.667 18.4023 307.667 18.6665V27.333C307.667 27.8853 308.115 28.333 308.667 28.333H309.667C310.219 28.333 310.667 27.8853 310.667 27.333V18.6665C310.667 18.1143 310.219 17.6665 309.667 17.6665ZM304 20H305C305.552 20 306 20.4478 306 21V27.3335C306 27.8857 305.552 28.3335 305 28.3335H304C303.448 28.3335 303 27.8857 303 27.3335V21C303 20.4478 303.448 20 304 20ZM300.333 22.333H299.333C298.781 22.333 298.333 22.7808 298.333 23.333V27.333C298.333 27.564 298.412 27.7764 298.543 27.9453C298.726 28.1812 299.012 28.333 299.333 28.333H300.333C300.416 28.333 300.496 28.3232 300.572 28.3047C300.752 28.2603 300.914 28.1675 301.041 28.0405C301.221 27.8594 301.333 27.6094 301.333 27.333V23.333C301.333 22.7808 300.886 22.333 300.333 22.333ZM295.667 24.333H294.667C294.401 24.333 294.159 24.4365 293.98 24.606C293.787 24.7881 293.667 25.0464 293.667 25.333V27.333C293.667 27.5547 293.739 27.7598 293.861 27.9258C294.043 28.1729 294.336 28.333 294.667 28.333H295.667C296.219 28.333 296.667 27.8853 296.667 27.333V25.333C296.667 24.7808 296.219 24.333 295.667 24.333Z" fill="black"/>
<path d="M37.2841 28.2563C39.9721 28.2563 41.5688 26.1543 41.5688 22.5947C41.5688 21.2544 41.3124 20.1265 40.8217 19.2549C40.1112 17.8999 38.8881 17.1675 37.3427 17.1675C35.0429 17.1675 33.4169 18.7129 33.4169 20.8809C33.4169 22.917 34.8817 24.3965 36.8959 24.3965C38.1337 24.3965 39.1371 23.8179 39.6352 22.8145H39.6571C39.6571 22.8145 39.6864 22.8145 39.6938 22.8145C39.7084 22.8145 39.7597 22.8145 39.7597 22.8145C39.7597 25.2314 38.8441 26.6743 37.2987 26.6743C36.3905 26.6743 35.6874 26.1763 35.4457 25.3779H33.5634C33.8783 27.1138 35.3505 28.2563 37.2841 28.2563ZM37.35 22.895C36.1342 22.895 35.2699 22.0308 35.2699 20.8223C35.2699 19.6431 36.1781 18.7422 37.3573 18.7422C38.5365 18.7422 39.4447 19.6577 39.4447 20.8516C39.4447 22.0308 38.5585 22.895 37.35 22.895ZM44.5866 26.8794C45.2824 26.8794 45.7585 26.3813 45.7585 25.7222C45.7585 25.0557 45.2824 24.5649 44.5866 24.5649C43.8981 24.5649 43.4147 25.0557 43.4147 25.7222C43.4147 26.3813 43.8981 26.8794 44.5866 26.8794ZM44.5866 21.3862C45.2824 21.3862 45.7585 20.8955 45.7585 20.2363C45.7585 19.5698 45.2824 19.0791 44.5866 19.0791C43.8981 19.0791 43.4147 19.5698 43.4147 20.2363C43.4147 20.8955 43.8981 21.3862 44.5866 21.3862ZM52.7607 28H54.5698V26.0298H55.998V24.4331H54.5698V17.4312H51.9038C50.0361 20.2437 48.5493 22.5947 47.5972 24.3452V26.0298H52.7607V28ZM49.3477 24.3672C50.5781 22.1992 51.6768 20.4634 52.6875 18.9692H52.79V24.4771H49.3477V24.3672ZM60.0267 28H61.9163V17.4312H60.034L57.2728 19.3647V21.1812L59.9021 19.3354H60.0267V28Z" fill="black"/>
<rect x="16" y="114" width="343" height="39" fill="#C4C4C4" fill-opacity="0.4"/>
<rect x="16" y="289" width="343" height="39" fill="white" fill-opacity="0.4"/>
<rect x="16.5" y="289.5" width="342" height="38" stroke="#C4C4C4" stroke-opacity="0.4"/>
<rect x="16" y="289" width="343" height="345" fill="white" fill-opacity="0.4"/>
<rect x="16.5" y="289.5" width="342" height="344" stroke="#C4C4C4" stroke-opacity="0.4"/>
<path d="M159.337 136.871C159.495 138.938 161.247 140.282 163.787 140.282C166.526 140.282 168.261 138.879 168.261 136.68C168.261 134.92 167.265 133.957 164.783 133.334L163.529 133.002C161.877 132.579 161.222 132.04 161.222 131.102C161.222 129.89 162.276 129.093 163.87 129.093C165.364 129.093 166.376 129.823 166.584 131.052H168.086C167.962 129.118 166.235 127.74 163.919 127.74C161.388 127.74 159.686 129.118 159.686 131.151C159.686 132.853 160.624 133.833 162.791 134.38L164.326 134.779C165.978 135.194 166.725 135.841 166.725 136.862C166.725 138.049 165.538 138.921 163.928 138.921C162.226 138.921 161.031 138.124 160.848 136.871H159.337ZM173.728 132.156C175.147 132.156 176.093 133.202 176.127 134.787H171.196C171.304 133.202 172.3 132.156 173.728 132.156ZM176.085 137.684C175.712 138.473 174.931 138.896 173.778 138.896C172.258 138.896 171.271 137.775 171.196 136.007V135.941H177.629V135.393C177.629 132.612 176.16 130.894 173.744 130.894C171.287 130.894 169.71 132.72 169.71 135.534C169.71 138.365 171.262 140.158 173.744 140.158C175.703 140.158 177.081 139.22 177.513 137.684H176.085ZM183.818 130.894C182.598 130.894 181.527 131.517 180.954 132.546H180.822V131.052H179.46V142.988H180.888V138.655H181.021C181.511 139.602 182.54 140.158 183.818 140.158C186.093 140.158 187.578 138.323 187.578 135.526C187.578 132.712 186.101 130.894 183.818 130.894ZM183.478 138.871C181.868 138.871 180.847 137.576 180.847 135.526C180.847 133.467 181.868 132.181 183.486 132.181C185.121 132.181 186.101 133.434 186.101 135.526C186.101 137.618 185.121 138.871 183.478 138.871ZM193.715 131.392V131.4H195.159V131.392C195.159 129.981 196.105 129.043 197.508 129.043C198.828 129.043 199.849 129.964 199.849 131.16C199.849 132.123 199.475 132.77 197.931 134.447L193.789 138.971V140H201.542V138.655H195.931V138.522L198.811 135.426C200.778 133.318 201.343 132.347 201.343 131.102C201.343 129.201 199.699 127.74 197.549 127.74C195.325 127.74 193.715 129.267 193.715 131.392ZM207.681 140.282C210.371 140.282 211.915 138.008 211.915 134.032C211.915 130.064 210.346 127.74 207.681 127.74C205 127.74 203.431 130.056 203.431 134.007C203.431 137.991 204.984 140.282 207.681 140.282ZM207.681 138.979C205.913 138.979 204.934 137.211 204.934 134.007C204.934 130.844 205.93 129.051 207.681 129.051C209.433 129.051 210.412 130.828 210.412 134.007C210.412 137.219 209.45 138.979 207.681 138.979Z" fill="black"/>
<path d="M92.6309 189.24C92.6309 191.051 92.3177 192.643 91.6914 194.014C91.0651 195.376 90.168 196.426 89 197.162C87.8405 197.89 86.5033 198.254 84.9883 198.254C83.4902 198.254 82.153 197.89 80.9766 197.162C79.8086 196.426 78.903 195.381 78.2598 194.026C77.625 192.672 77.3034 191.111 77.2949 189.342V188.301C77.2949 186.498 77.6123 184.907 78.2471 183.527C78.8903 182.148 79.7917 181.094 80.9512 180.366C82.1191 179.63 83.4564 179.262 84.9629 179.262C86.4694 179.262 87.8024 179.626 88.9619 180.354C90.1299 181.073 91.0312 182.114 91.666 183.477C92.3008 184.831 92.6224 186.409 92.6309 188.212V189.24ZM89.4189 188.275C89.4189 186.227 89.0296 184.657 88.251 183.565C87.4808 182.474 86.3848 181.928 84.9629 181.928C83.5749 181.928 82.4873 182.474 81.7002 183.565C80.9215 184.649 80.5238 186.185 80.5068 188.174V189.24C80.5068 191.271 80.9004 192.841 81.6875 193.95C82.4831 195.059 83.5833 195.613 84.9883 195.613C86.4102 195.613 87.502 195.072 88.2637 193.988C89.0339 192.905 89.4189 191.322 89.4189 189.24V188.275ZM98.3945 184.264L98.4834 185.851C99.499 184.623 100.832 184.01 102.482 184.01C105.343 184.01 106.799 185.647 106.85 188.923V198H103.765V189.101C103.765 188.229 103.574 187.586 103.193 187.171C102.821 186.748 102.207 186.536 101.353 186.536C100.108 186.536 99.1816 187.099 98.5723 188.225V198H95.4873V184.264H98.3945ZM117.704 194.268C117.704 193.717 117.476 193.299 117.019 193.011C116.57 192.723 115.821 192.469 114.771 192.249C113.722 192.029 112.846 191.75 112.144 191.411C110.603 190.666 109.833 189.587 109.833 188.174C109.833 186.989 110.332 185.999 111.331 185.203C112.33 184.408 113.599 184.01 115.14 184.01C116.782 184.01 118.106 184.416 119.113 185.229C120.129 186.041 120.637 187.095 120.637 188.39H117.552C117.552 187.797 117.332 187.306 116.892 186.917C116.451 186.519 115.868 186.32 115.14 186.32C114.463 186.32 113.908 186.477 113.477 186.79C113.053 187.103 112.842 187.522 112.842 188.047C112.842 188.521 113.041 188.889 113.438 189.151C113.836 189.414 114.64 189.68 115.851 189.951C117.061 190.214 118.009 190.531 118.694 190.903C119.388 191.267 119.9 191.707 120.23 192.224C120.569 192.74 120.738 193.366 120.738 194.103C120.738 195.338 120.226 196.341 119.202 197.111C118.178 197.873 116.837 198.254 115.178 198.254C114.052 198.254 113.049 198.051 112.169 197.645C111.289 197.238 110.603 196.68 110.112 195.969C109.621 195.258 109.376 194.492 109.376 193.671H112.372C112.414 194.399 112.689 194.962 113.197 195.359C113.705 195.749 114.378 195.943 115.216 195.943C116.028 195.943 116.646 195.791 117.069 195.486C117.493 195.173 117.704 194.767 117.704 194.268ZM129.485 198.254C127.53 198.254 125.943 197.64 124.725 196.413C123.514 195.177 122.909 193.535 122.909 191.487V191.106C122.909 189.735 123.172 188.512 123.696 187.438C124.229 186.354 124.974 185.512 125.931 184.911C126.887 184.31 127.953 184.01 129.13 184.01C131 184.01 132.443 184.606 133.459 185.8C134.483 186.993 134.995 188.682 134.995 190.865V192.109H126.02C126.113 193.243 126.489 194.141 127.149 194.801C127.818 195.461 128.656 195.791 129.663 195.791C131.076 195.791 132.228 195.22 133.116 194.077L134.779 195.664C134.229 196.485 133.493 197.124 132.57 197.581C131.656 198.03 130.628 198.254 129.485 198.254ZM129.117 186.485C128.271 186.485 127.585 186.782 127.061 187.374C126.544 187.966 126.214 188.792 126.07 189.85H131.948V189.621C131.881 188.589 131.605 187.81 131.123 187.285C130.641 186.752 129.972 186.485 129.117 186.485ZM141.267 180.925V184.264H143.691V186.549H141.267V194.217C141.267 194.742 141.368 195.122 141.571 195.359C141.783 195.588 142.155 195.702 142.688 195.702C143.044 195.702 143.404 195.66 143.768 195.575V197.962C143.065 198.157 142.388 198.254 141.736 198.254C139.367 198.254 138.182 196.946 138.182 194.331V186.549H135.922V184.264H138.182V180.925H141.267Z" fill="#C1BEBE"/>
<path d="M28.0654 238.834C27.9365 240.199 27.4326 241.266 26.5537 242.033C25.6748 242.795 24.5059 243.176 23.0469 243.176C22.0273 243.176 21.1279 242.936 20.3486 242.455C19.5752 241.969 18.9775 241.28 18.5557 240.39C18.1338 239.499 17.9141 238.465 17.8965 237.287V236.092C17.8965 234.885 18.1104 233.821 18.5381 232.901C18.9658 231.981 19.5781 231.272 20.375 230.774C21.1777 230.276 22.1035 230.027 23.1523 230.027C24.5645 230.027 25.7012 230.411 26.5625 231.179C27.4238 231.946 27.9248 233.03 28.0654 234.431H25.8506C25.7451 233.511 25.4756 232.849 25.042 232.444C24.6143 232.034 23.9844 231.829 23.1523 231.829C22.1855 231.829 21.4414 232.184 20.9199 232.893C20.4043 233.596 20.1406 234.63 20.1289 235.995V237.129C20.1289 238.512 20.375 239.566 20.8672 240.293C21.3652 241.02 22.0918 241.383 23.0469 241.383C23.9199 241.383 24.5762 241.187 25.0156 240.794C25.4551 240.401 25.7334 239.748 25.8506 238.834H28.0654ZM34.833 235.441C34.5518 235.395 34.2617 235.371 33.9629 235.371C32.9844 235.371 32.3252 235.746 31.9854 236.496V243H29.8496V233.49H31.8887L31.9414 234.554C32.457 233.728 33.1719 233.314 34.0859 233.314C34.3906 233.314 34.6426 233.355 34.8418 233.438L34.833 235.441ZM40.1943 243.176C38.8408 243.176 37.7422 242.751 36.8984 241.901C36.0605 241.046 35.6416 239.909 35.6416 238.491V238.228C35.6416 237.278 35.8232 236.432 36.1865 235.688C36.5557 234.938 37.0713 234.354 37.7334 233.938C38.3955 233.522 39.1338 233.314 39.9482 233.314C41.2432 233.314 42.2422 233.728 42.9453 234.554C43.6543 235.38 44.0088 236.549 44.0088 238.061V238.922H37.7949C37.8594 239.707 38.1201 240.328 38.5771 240.785C39.04 241.242 39.6201 241.471 40.3174 241.471C41.2959 241.471 42.0928 241.075 42.708 240.284L43.8594 241.383C43.4785 241.951 42.9688 242.394 42.3301 242.71C41.6973 243.021 40.9854 243.176 40.1943 243.176ZM39.9395 235.028C39.3535 235.028 38.8789 235.233 38.5156 235.644C38.1582 236.054 37.9297 236.625 37.8301 237.357H41.8994V237.199C41.8525 236.484 41.6621 235.945 41.3281 235.582C40.9941 235.213 40.5312 235.028 39.9395 235.028ZM51.3564 243C51.2627 242.818 51.1807 242.522 51.1104 242.112C50.4307 242.821 49.5986 243.176 48.6143 243.176C47.6592 243.176 46.8799 242.903 46.2764 242.358C45.6729 241.813 45.3711 241.14 45.3711 240.337C45.3711 239.323 45.7461 238.547 46.4961 238.008C47.252 237.463 48.3301 237.19 49.7305 237.19H51.04V236.566C51.04 236.074 50.9023 235.682 50.627 235.389C50.3516 235.09 49.9326 234.94 49.3701 234.94C48.8838 234.94 48.4854 235.063 48.1748 235.31C47.8643 235.55 47.709 235.857 47.709 236.232H45.5732C45.5732 235.711 45.7461 235.225 46.0918 234.773C46.4375 234.316 46.9062 233.959 47.498 233.701C48.0957 233.443 48.7607 233.314 49.4932 233.314C50.6064 233.314 51.4941 233.596 52.1562 234.158C52.8184 234.715 53.1582 235.5 53.1758 236.514V240.803C53.1758 241.658 53.2959 242.341 53.5361 242.851V243H51.3564ZM49.0098 241.462C49.4316 241.462 49.8271 241.359 50.1963 241.154C50.5713 240.949 50.8525 240.674 51.04 240.328V238.535H49.8887C49.0977 238.535 48.5029 238.673 48.1045 238.948C47.7061 239.224 47.5068 239.613 47.5068 240.117C47.5068 240.527 47.6416 240.855 47.9111 241.102C48.1865 241.342 48.5527 241.462 49.0098 241.462ZM58.0889 231.179V233.49H59.7676V235.072H58.0889V240.381C58.0889 240.744 58.1592 241.008 58.2998 241.172C58.4463 241.33 58.7041 241.409 59.0732 241.409C59.3193 241.409 59.5684 241.38 59.8203 241.321V242.974C59.334 243.108 58.8652 243.176 58.4141 243.176C56.7734 243.176 55.9531 242.271 55.9531 240.46V235.072H54.3887V233.49H55.9531V231.179H58.0889ZM65.5947 243.176C64.2412 243.176 63.1426 242.751 62.2988 241.901C61.4609 241.046 61.042 239.909 61.042 238.491V238.228C61.042 237.278 61.2236 236.432 61.5869 235.688C61.9561 234.938 62.4717 234.354 63.1338 233.938C63.7959 233.522 64.5342 233.314 65.3486 233.314C66.6436 233.314 67.6426 233.728 68.3457 234.554C69.0547 235.38 69.4092 236.549 69.4092 238.061V238.922H63.1953C63.2598 239.707 63.5205 240.328 63.9775 240.785C64.4404 241.242 65.0205 241.471 65.7178 241.471C66.6963 241.471 67.4932 241.075 68.1084 240.284L69.2598 241.383C68.8789 241.951 68.3691 242.394 67.7305 242.71C67.0977 243.021 66.3857 243.176 65.5947 243.176ZM65.3398 235.028C64.7539 235.028 64.2793 235.233 63.916 235.644C63.5586 236.054 63.3301 236.625 63.2305 237.357H67.2998V237.199C67.2529 236.484 67.0625 235.945 66.7285 235.582C66.3945 235.213 65.9316 235.028 65.3398 235.028ZM81.2393 243C81.1455 242.818 81.0635 242.522 80.9932 242.112C80.3135 242.821 79.4814 243.176 78.4971 243.176C77.542 243.176 76.7627 242.903 76.1592 242.358C75.5557 241.813 75.2539 241.14 75.2539 240.337C75.2539 239.323 75.6289 238.547 76.3789 238.008C77.1348 237.463 78.2129 237.19 79.6133 237.19H80.9229V236.566C80.9229 236.074 80.7852 235.682 80.5098 235.389C80.2344 235.09 79.8154 234.94 79.2529 234.94C78.7666 234.94 78.3682 235.063 78.0576 235.31C77.7471 235.55 77.5918 235.857 77.5918 236.232H75.4561C75.4561 235.711 75.6289 235.225 75.9746 234.773C76.3203 234.316 76.7891 233.959 77.3809 233.701C77.9785 233.443 78.6436 233.314 79.376 233.314C80.4893 233.314 81.377 233.596 82.0391 234.158C82.7012 234.715 83.041 235.5 83.0586 236.514V240.803C83.0586 241.658 83.1787 242.341 83.4189 242.851V243H81.2393ZM78.8926 241.462C79.3145 241.462 79.71 241.359 80.0791 241.154C80.4541 240.949 80.7354 240.674 80.9229 240.328V238.535H79.7715C78.9805 238.535 78.3857 238.673 77.9873 238.948C77.5889 239.224 77.3896 239.613 77.3896 240.117C77.3896 240.527 77.5244 240.855 77.7939 241.102C78.0693 241.342 78.4355 241.462 78.8926 241.462ZM92.0498 243H89.9141V229.5H92.0498V243ZM96.6553 243H94.5195V233.49H96.6553V243ZM94.3877 231.021C94.3877 230.692 94.4902 230.42 94.6953 230.203C94.9062 229.986 95.2051 229.878 95.5918 229.878C95.9785 229.878 96.2773 229.986 96.4883 230.203C96.6992 230.42 96.8047 230.692 96.8047 231.021C96.8047 231.343 96.6992 231.612 96.4883 231.829C96.2773 232.04 95.9785 232.146 95.5918 232.146C95.2051 232.146 94.9062 232.04 94.6953 231.829C94.4902 231.612 94.3877 231.343 94.3877 231.021ZM104.319 240.416C104.319 240.035 104.161 239.745 103.845 239.546C103.534 239.347 103.016 239.171 102.289 239.019C101.562 238.866 100.956 238.673 100.47 238.438C99.4033 237.923 98.8701 237.176 98.8701 236.197C98.8701 235.377 99.2158 234.691 99.9072 234.141C100.599 233.59 101.478 233.314 102.544 233.314C103.681 233.314 104.598 233.596 105.295 234.158C105.998 234.721 106.35 235.45 106.35 236.347H104.214C104.214 235.937 104.062 235.597 103.757 235.327C103.452 235.052 103.048 234.914 102.544 234.914C102.075 234.914 101.691 235.022 101.393 235.239C101.1 235.456 100.953 235.746 100.953 236.109C100.953 236.438 101.091 236.692 101.366 236.874C101.642 237.056 102.198 237.24 103.036 237.428C103.874 237.609 104.53 237.829 105.005 238.087C105.485 238.339 105.84 238.644 106.068 239.001C106.303 239.358 106.42 239.792 106.42 240.302C106.42 241.157 106.065 241.852 105.356 242.385C104.647 242.912 103.719 243.176 102.57 243.176C101.791 243.176 101.097 243.035 100.487 242.754C99.8779 242.473 99.4033 242.086 99.0635 241.594C98.7236 241.102 98.5537 240.571 98.5537 240.003H100.628C100.657 240.507 100.848 240.896 101.199 241.172C101.551 241.441 102.017 241.576 102.597 241.576C103.159 241.576 103.587 241.471 103.88 241.26C104.173 241.043 104.319 240.762 104.319 240.416ZM110.964 231.179V233.49H112.643V235.072H110.964V240.381C110.964 240.744 111.034 241.008 111.175 241.172C111.321 241.33 111.579 241.409 111.948 241.409C112.194 241.409 112.443 241.38 112.695 241.321V242.974C112.209 243.108 111.74 243.176 111.289 243.176C109.648 243.176 108.828 242.271 108.828 240.46V235.072H107.264V233.49H108.828V231.179H110.964ZM118.364 238.157C118.364 237.226 118.549 236.388 118.918 235.644C119.287 234.894 119.806 234.319 120.474 233.921C121.142 233.517 121.909 233.314 122.776 233.314C124.06 233.314 125.1 233.728 125.896 234.554C126.699 235.38 127.133 236.476 127.197 237.841L127.206 238.342C127.206 239.279 127.024 240.117 126.661 240.855C126.304 241.594 125.788 242.165 125.114 242.569C124.446 242.974 123.673 243.176 122.794 243.176C121.452 243.176 120.377 242.73 119.568 241.84C118.766 240.943 118.364 239.751 118.364 238.263V238.157ZM120.5 238.342C120.5 239.32 120.702 240.088 121.106 240.645C121.511 241.195 122.073 241.471 122.794 241.471C123.515 241.471 124.074 241.189 124.473 240.627C124.877 240.064 125.079 239.241 125.079 238.157C125.079 237.196 124.871 236.435 124.455 235.872C124.045 235.31 123.485 235.028 122.776 235.028C122.079 235.028 121.525 235.307 121.115 235.863C120.705 236.414 120.5 237.24 120.5 238.342ZM129.764 243V235.072H128.313V233.49H129.764V232.62C129.764 231.565 130.057 230.751 130.643 230.177C131.229 229.603 132.049 229.315 133.104 229.315C133.479 229.315 133.877 229.368 134.299 229.474L134.246 231.144C134.012 231.097 133.739 231.073 133.429 231.073C132.409 231.073 131.899 231.598 131.899 232.646V233.49H133.833V235.072H131.899V243H129.764ZM145.206 240.416C145.206 240.035 145.048 239.745 144.731 239.546C144.421 239.347 143.902 239.171 143.176 239.019C142.449 238.866 141.843 238.673 141.356 238.438C140.29 237.923 139.757 237.176 139.757 236.197C139.757 235.377 140.103 234.691 140.794 234.141C141.485 233.59 142.364 233.314 143.431 233.314C144.567 233.314 145.484 233.596 146.182 234.158C146.885 234.721 147.236 235.45 147.236 236.347H145.101C145.101 235.937 144.948 235.597 144.644 235.327C144.339 235.052 143.935 234.914 143.431 234.914C142.962 234.914 142.578 235.022 142.279 235.239C141.986 235.456 141.84 235.746 141.84 236.109C141.84 236.438 141.978 236.692 142.253 236.874C142.528 237.056 143.085 237.24 143.923 237.428C144.761 237.609 145.417 237.829 145.892 238.087C146.372 238.339 146.727 238.644 146.955 239.001C147.189 239.358 147.307 239.792 147.307 240.302C147.307 241.157 146.952 241.852 146.243 242.385C145.534 242.912 144.605 243.176 143.457 243.176C142.678 243.176 141.983 243.035 141.374 242.754C140.765 242.473 140.29 242.086 139.95 241.594C139.61 241.102 139.44 240.571 139.44 240.003H141.515C141.544 240.507 141.734 240.896 142.086 241.172C142.438 241.441 142.903 241.576 143.483 241.576C144.046 241.576 144.474 241.471 144.767 241.26C145.06 241.043 145.206 240.762 145.206 240.416ZM152.501 239.941L154.435 233.49H156.711L152.932 244.441C152.352 246.041 151.367 246.841 149.979 246.841C149.668 246.841 149.325 246.788 148.95 246.683V245.03L149.354 245.057C149.894 245.057 150.298 244.957 150.567 244.758C150.843 244.564 151.06 244.236 151.218 243.773L151.525 242.956L148.186 233.49H150.488L152.501 239.941ZM159.954 233.49L160.016 234.483C160.684 233.704 161.598 233.314 162.758 233.314C164.029 233.314 164.899 233.801 165.368 234.773C166.06 233.801 167.032 233.314 168.286 233.314C169.335 233.314 170.114 233.604 170.624 234.185C171.14 234.765 171.403 235.62 171.415 236.751V243H169.279V236.812C169.279 236.209 169.147 235.767 168.884 235.485C168.62 235.204 168.184 235.063 167.574 235.063C167.088 235.063 166.689 235.195 166.379 235.459C166.074 235.717 165.86 236.057 165.737 236.479L165.746 243H163.61V236.742C163.581 235.623 163.01 235.063 161.896 235.063C161.041 235.063 160.435 235.412 160.077 236.109V243H157.941V233.49H159.954ZM181.936 238.342C181.936 239.812 181.602 240.987 180.934 241.866C180.266 242.739 179.369 243.176 178.244 243.176C177.201 243.176 176.366 242.833 175.739 242.147V246.656H173.604V233.49H175.572L175.66 234.457C176.287 233.695 177.14 233.314 178.218 233.314C179.378 233.314 180.286 233.748 180.942 234.615C181.604 235.477 181.936 236.675 181.936 238.21V238.342ZM179.809 238.157C179.809 237.208 179.618 236.455 179.237 235.898C178.862 235.342 178.323 235.063 177.62 235.063C176.747 235.063 176.12 235.424 175.739 236.145V240.363C176.126 241.102 176.759 241.471 177.638 241.471C178.317 241.471 178.848 241.198 179.229 240.653C179.615 240.103 179.809 239.271 179.809 238.157ZM186.427 231.179V233.49H188.105V235.072H186.427V240.381C186.427 240.744 186.497 241.008 186.638 241.172C186.784 241.33 187.042 241.409 187.411 241.409C187.657 241.409 187.906 241.38 188.158 241.321V242.974C187.672 243.108 187.203 243.176 186.752 243.176C185.111 243.176 184.291 242.271 184.291 240.46V235.072H182.727V233.49H184.291V231.179H186.427ZM189.081 238.157C189.081 237.226 189.266 236.388 189.635 235.644C190.004 234.894 190.522 234.319 191.19 233.921C191.858 233.517 192.626 233.314 193.493 233.314C194.776 233.314 195.816 233.728 196.613 234.554C197.416 235.38 197.85 236.476 197.914 237.841L197.923 238.342C197.923 239.279 197.741 240.117 197.378 240.855C197.021 241.594 196.505 242.165 195.831 242.569C195.163 242.974 194.39 243.176 193.511 243.176C192.169 243.176 191.094 242.73 190.285 241.84C189.482 240.943 189.081 239.751 189.081 238.263V238.157ZM191.217 238.342C191.217 239.32 191.419 240.088 191.823 240.645C192.228 241.195 192.79 241.471 193.511 241.471C194.231 241.471 194.791 241.189 195.189 240.627C195.594 240.064 195.796 239.241 195.796 238.157C195.796 237.196 195.588 236.435 195.172 235.872C194.762 235.31 194.202 235.028 193.493 235.028C192.796 235.028 192.242 235.307 191.832 235.863C191.422 236.414 191.217 237.24 191.217 238.342ZM201.737 233.49L201.799 234.483C202.467 233.704 203.381 233.314 204.541 233.314C205.812 233.314 206.683 233.801 207.151 234.773C207.843 233.801 208.815 233.314 210.069 233.314C211.118 233.314 211.897 233.604 212.407 234.185C212.923 234.765 213.187 235.62 213.198 236.751V243H211.062V236.812C211.062 236.209 210.931 235.767 210.667 235.485C210.403 235.204 209.967 235.063 209.357 235.063C208.871 235.063 208.473 235.195 208.162 235.459C207.857 235.717 207.644 236.057 207.521 236.479L207.529 243H205.394V236.742C205.364 235.623 204.793 235.063 203.68 235.063C202.824 235.063 202.218 235.412 201.86 236.109V243H199.725V233.49H201.737ZM220.722 240.416C220.722 240.035 220.563 239.745 220.247 239.546C219.937 239.347 219.418 239.171 218.691 239.019C217.965 238.866 217.358 238.673 216.872 238.438C215.806 237.923 215.272 237.176 215.272 236.197C215.272 235.377 215.618 234.691 216.31 234.141C217.001 233.59 217.88 233.314 218.946 233.314C220.083 233.314 221 233.596 221.697 234.158C222.4 234.721 222.752 235.45 222.752 236.347H220.616C220.616 235.937 220.464 235.597 220.159 235.327C219.854 235.052 219.45 234.914 218.946 234.914C218.478 234.914 218.094 235.022 217.795 235.239C217.502 235.456 217.355 235.746 217.355 236.109C217.355 236.438 217.493 236.692 217.769 236.874C218.044 237.056 218.601 237.24 219.438 237.428C220.276 237.609 220.933 237.829 221.407 238.087C221.888 238.339 222.242 238.644 222.471 239.001C222.705 239.358 222.822 239.792 222.822 240.302C222.822 241.157 222.468 241.852 221.759 242.385C221.05 242.912 220.121 243.176 218.973 243.176C218.193 243.176 217.499 243.035 216.89 242.754C216.28 242.473 215.806 242.086 215.466 241.594C215.126 241.102 214.956 240.571 214.956 240.003H217.03C217.06 240.507 217.25 240.896 217.602 241.172C217.953 241.441 218.419 241.576 218.999 241.576C219.562 241.576 219.989 241.471 220.282 241.26C220.575 241.043 220.722 240.762 220.722 240.416ZM226.021 240.75C226.42 240.75 226.728 240.864 226.944 241.093C227.161 241.315 227.27 241.597 227.27 241.937C227.27 242.271 227.161 242.549 226.944 242.771C226.728 242.988 226.42 243.097 226.021 243.097C225.641 243.097 225.339 242.988 225.116 242.771C224.894 242.555 224.782 242.276 224.782 241.937C224.782 241.597 224.891 241.315 225.107 241.093C225.324 240.864 225.629 240.75 226.021 240.75Z" fill="#C1BEBE"/>
<circle cx="38.5" cy="188.5" r="22.5" fill="#C4C4C4"/>
<path d="M46.5742 189.139C46.5742 190.941 46.2399 192.537 45.5713 193.925C44.9027 195.313 43.9505 196.383 42.7148 197.137C41.4876 197.882 40.0869 198.254 38.5127 198.254C36.9385 198.254 35.542 197.894 34.3232 197.175C33.1045 196.447 32.1523 195.41 31.4668 194.064C30.7897 192.719 30.4342 191.174 30.4004 189.431V188.39C30.4004 186.578 30.7305 184.983 31.3906 183.604C32.0592 182.215 33.0114 181.145 34.2471 180.392C35.4912 179.638 36.9046 179.262 38.4873 179.262C40.0531 179.262 41.4495 179.634 42.6768 180.379C43.904 181.124 44.8561 182.186 45.5332 183.565C46.2188 184.937 46.5658 186.511 46.5742 188.288V189.139ZM42.042 188.364C42.042 186.528 41.7331 185.135 41.1152 184.188C40.5059 183.231 39.6299 182.753 38.4873 182.753C36.2529 182.753 35.0723 184.429 34.9453 187.78L34.9326 189.139C34.9326 190.95 35.2331 192.342 35.834 193.315C36.4349 194.289 37.3278 194.775 38.5127 194.775C39.6383 194.775 40.5059 194.297 41.1152 193.341C41.7246 192.384 42.0335 191.009 42.042 189.215V188.364Z" fill="white"/>
<path d="M36.5518 354.66H31.1904L29.9863 358H28.2461L33.1328 345.203H34.6094L39.5049 358H37.7734L36.5518 354.66ZM31.7002 353.271H36.0508L33.8711 347.286L31.7002 353.271ZM49.0059 353.351C49.0059 354.798 48.6748 355.964 48.0127 356.849C47.3506 357.733 46.4541 358.176 45.3232 358.176C44.1689 358.176 43.2607 357.81 42.5986 357.077V361.656H40.9727V348.49H42.458L42.5371 349.545C43.1992 348.725 44.1191 348.314 45.2969 348.314C46.4395 348.314 47.3418 348.745 48.0039 349.606C48.6719 350.468 49.0059 351.666 49.0059 353.201V353.351ZM47.3799 353.166C47.3799 352.094 47.1514 351.247 46.6943 350.626C46.2373 350.005 45.6104 349.694 44.8135 349.694C43.8291 349.694 43.0908 350.131 42.5986 351.004V355.548C43.085 356.415 43.8291 356.849 44.8311 356.849C45.6104 356.849 46.2285 356.541 46.6855 355.926C47.1484 355.305 47.3799 354.385 47.3799 353.166ZM59.1133 353.351C59.1133 354.798 58.7822 355.964 58.1201 356.849C57.458 357.733 56.5615 358.176 55.4307 358.176C54.2764 358.176 53.3682 357.81 52.7061 357.077V361.656H51.0801V348.49H52.5654L52.6445 349.545C53.3066 348.725 54.2266 348.314 55.4043 348.314C56.5469 348.314 57.4492 348.745 58.1113 349.606C58.7793 350.468 59.1133 351.666 59.1133 353.201V353.351ZM57.4873 353.166C57.4873 352.094 57.2588 351.247 56.8018 350.626C56.3447 350.005 55.7178 349.694 54.9209 349.694C53.9365 349.694 53.1982 350.131 52.7061 351.004V355.548C53.1924 356.415 53.9365 356.849 54.9385 356.849C55.7178 356.849 56.3359 356.541 56.793 355.926C57.2559 355.305 57.4873 354.385 57.4873 353.166ZM65.1338 358.176C63.8447 358.176 62.7959 357.754 61.9873 356.91C61.1787 356.061 60.7744 354.927 60.7744 353.509V353.21C60.7744 352.267 60.9531 351.426 61.3105 350.688C61.6738 349.943 62.1777 349.363 62.8223 348.947C63.4727 348.525 64.1758 348.314 64.9316 348.314C66.168 348.314 67.1289 348.722 67.8145 349.536C68.5 350.351 68.8428 351.517 68.8428 353.034V353.711H62.4004C62.4238 354.648 62.6963 355.407 63.2178 355.987C63.7451 356.562 64.4131 356.849 65.2217 356.849C65.7959 356.849 66.2822 356.731 66.6807 356.497C67.0791 356.263 67.4277 355.952 67.7266 355.565L68.7197 356.339C67.9229 357.563 66.7275 358.176 65.1338 358.176ZM64.9316 349.65C64.2754 349.65 63.7246 349.891 63.2793 350.371C62.834 350.846 62.5586 351.514 62.4531 352.375H67.2168V352.252C67.1699 351.426 66.9473 350.787 66.5488 350.336C66.1504 349.879 65.6113 349.65 64.9316 349.65ZM72.9385 346.188V348.49H74.7139V349.747H72.9385V355.645C72.9385 356.025 73.0176 356.312 73.1758 356.506C73.334 356.693 73.6035 356.787 73.9844 356.787C74.1719 356.787 74.4297 356.752 74.7578 356.682V358C74.3301 358.117 73.9141 358.176 73.5098 358.176C72.7832 358.176 72.2354 357.956 71.8662 357.517C71.4971 357.077 71.3125 356.453 71.3125 355.645V349.747H69.5811V348.49H71.3125V346.188H72.9385ZM78.3877 358H76.7617V348.49H78.3877V358ZM76.6299 345.968C76.6299 345.704 76.709 345.481 76.8672 345.3C77.0312 345.118 77.2715 345.027 77.5879 345.027C77.9043 345.027 78.1445 345.118 78.3086 345.3C78.4727 345.481 78.5547 345.704 78.5547 345.968C78.5547 346.231 78.4727 346.451 78.3086 346.627C78.1445 346.803 77.9043 346.891 77.5879 346.891C77.2715 346.891 77.0312 346.803 76.8672 346.627C76.709 346.451 76.6299 346.231 76.6299 345.968ZM83.2041 346.188V348.49H84.9795V349.747H83.2041V355.645C83.2041 356.025 83.2832 356.312 83.4414 356.506C83.5996 356.693 83.8691 356.787 84.25 356.787C84.4375 356.787 84.6953 356.752 85.0234 356.682V358C84.5957 358.117 84.1797 358.176 83.7754 358.176C83.0488 358.176 82.501 357.956 82.1318 357.517C81.7627 357.077 81.5781 356.453 81.5781 355.645V349.747H79.8467V348.49H81.5781V346.188H83.2041ZM90.833 358.176C89.5439 358.176 88.4951 357.754 87.6865 356.91C86.8779 356.061 86.4736 354.927 86.4736 353.509V353.21C86.4736 352.267 86.6523 351.426 87.0098 350.688C87.373 349.943 87.877 349.363 88.5215 348.947C89.1719 348.525 89.875 348.314 90.6309 348.314C91.8672 348.314 92.8281 348.722 93.5137 349.536C94.1992 350.351 94.542 351.517 94.542 353.034V353.711H88.0996C88.123 354.648 88.3955 355.407 88.917 355.987C89.4443 356.562 90.1123 356.849 90.9209 356.849C91.4951 356.849 91.9814 356.731 92.3799 356.497C92.7783 356.263 93.127 355.952 93.4258 355.565L94.4189 356.339C93.6221 357.563 92.4268 358.176 90.833 358.176ZM90.6309 349.65C89.9746 349.65 89.4238 349.891 88.9785 350.371C88.5332 350.846 88.2578 351.514 88.1523 352.375H92.916V352.252C92.8691 351.426 92.6465 350.787 92.248 350.336C91.8496 349.879 91.3105 349.65 90.6309 349.65ZM96.3789 360.549L95.4561 359.916C96.0068 359.148 96.2939 358.357 96.3174 357.543V356.075H97.9082V357.35C97.9082 357.941 97.7617 358.533 97.4688 359.125C97.1816 359.717 96.8184 360.191 96.3789 360.549ZM104.034 353.166C104.034 351.707 104.38 350.535 105.071 349.65C105.763 348.76 106.668 348.314 107.787 348.314C108.9 348.314 109.782 348.695 110.433 349.457V344.5H112.059V358H110.564L110.485 356.98C109.835 357.777 108.93 358.176 107.77 358.176C106.668 358.176 105.769 357.725 105.071 356.822C104.38 355.92 104.034 354.742 104.034 353.289V353.166ZM105.66 353.351C105.66 354.429 105.883 355.272 106.328 355.882C106.773 356.491 107.389 356.796 108.174 356.796C109.205 356.796 109.958 356.333 110.433 355.407V351.039C109.946 350.143 109.199 349.694 108.191 349.694C107.395 349.694 106.773 350.002 106.328 350.617C105.883 351.232 105.66 352.144 105.66 353.351ZM118.536 358.176C117.247 358.176 116.198 357.754 115.39 356.91C114.581 356.061 114.177 354.927 114.177 353.509V353.21C114.177 352.267 114.355 351.426 114.713 350.688C115.076 349.943 115.58 349.363 116.225 348.947C116.875 348.525 117.578 348.314 118.334 348.314C119.57 348.314 120.531 348.722 121.217 349.536C121.902 350.351 122.245 351.517 122.245 353.034V353.711H115.803C115.826 354.648 116.099 355.407 116.62 355.987C117.147 356.562 117.815 356.849 118.624 356.849C119.198 356.849 119.685 356.731 120.083 356.497C120.481 356.263 120.83 355.952 121.129 355.565L122.122 356.339C121.325 357.563 120.13 358.176 118.536 358.176ZM118.334 349.65C117.678 349.65 117.127 349.891 116.682 350.371C116.236 350.846 115.961 351.514 115.855 352.375H120.619V352.252C120.572 351.426 120.35 350.787 119.951 350.336C119.553 349.879 119.014 349.65 118.334 349.65ZM127.949 356.849C128.529 356.849 129.036 356.673 129.47 356.321C129.903 355.97 130.144 355.53 130.19 355.003H131.729C131.699 355.548 131.512 356.066 131.166 356.559C130.82 357.051 130.357 357.443 129.777 357.736C129.203 358.029 128.594 358.176 127.949 358.176C126.654 358.176 125.623 357.745 124.855 356.884C124.094 356.017 123.713 354.833 123.713 353.333V353.061C123.713 352.135 123.883 351.312 124.223 350.591C124.562 349.87 125.049 349.311 125.682 348.912C126.32 348.514 127.073 348.314 127.94 348.314C129.007 348.314 129.892 348.634 130.595 349.272C131.304 349.911 131.682 350.74 131.729 351.76H130.19C130.144 351.145 129.909 350.641 129.487 350.248C129.071 349.85 128.556 349.65 127.94 349.65C127.114 349.65 126.473 349.949 126.016 350.547C125.564 351.139 125.339 351.997 125.339 353.122V353.43C125.339 354.525 125.564 355.369 126.016 355.961C126.467 356.553 127.111 356.849 127.949 356.849ZM138.153 349.949C137.907 349.908 137.641 349.888 137.354 349.888C136.287 349.888 135.563 350.342 135.183 351.25V358H133.557V348.49H135.139L135.165 349.589C135.698 348.739 136.454 348.314 137.433 348.314C137.749 348.314 137.989 348.355 138.153 348.438V349.949ZM143.427 358.176C142.138 358.176 141.089 357.754 140.28 356.91C139.472 356.061 139.067 354.927 139.067 353.509V353.21C139.067 352.267 139.246 351.426 139.604 350.688C139.967 349.943 140.471 349.363 141.115 348.947C141.766 348.525 142.469 348.314 143.225 348.314C144.461 348.314 145.422 348.722 146.107 349.536C146.793 350.351 147.136 351.517 147.136 353.034V353.711H140.693C140.717 354.648 140.989 355.407 141.511 355.987C142.038 356.562 142.706 356.849 143.515 356.849C144.089 356.849 144.575 356.731 144.974 356.497C145.372 356.263 145.721 355.952 146.02 355.565L147.013 356.339C146.216 357.563 145.021 358.176 143.427 358.176ZM143.225 349.65C142.568 349.65 142.018 349.891 141.572 350.371C141.127 350.846 140.852 351.514 140.746 352.375H145.51V352.252C145.463 351.426 145.24 350.787 144.842 350.336C144.443 349.879 143.904 349.65 143.225 349.65ZM154.896 358C154.803 357.812 154.727 357.479 154.668 356.998C153.912 357.783 153.01 358.176 151.961 358.176C151.023 358.176 150.253 357.912 149.649 357.385C149.052 356.852 148.753 356.178 148.753 355.363C148.753 354.373 149.128 353.605 149.878 353.061C150.634 352.51 151.694 352.234 153.06 352.234H154.642V351.487C154.642 350.919 154.472 350.468 154.132 350.134C153.792 349.794 153.291 349.624 152.629 349.624C152.049 349.624 151.562 349.771 151.17 350.063C150.777 350.356 150.581 350.711 150.581 351.127H148.946C148.946 350.652 149.113 350.195 149.447 349.756C149.787 349.311 150.244 348.959 150.818 348.701C151.398 348.443 152.034 348.314 152.726 348.314C153.821 348.314 154.68 348.59 155.301 349.141C155.922 349.686 156.244 350.438 156.268 351.399V355.776C156.268 356.649 156.379 357.344 156.602 357.859V358H154.896ZM152.198 356.761C152.708 356.761 153.191 356.629 153.648 356.365C154.105 356.102 154.437 355.759 154.642 355.337V353.386H153.367C151.375 353.386 150.379 353.969 150.379 355.135C150.379 355.645 150.549 356.043 150.889 356.33C151.229 356.617 151.665 356.761 152.198 356.761ZM164.354 355.478C164.354 355.038 164.187 354.698 163.853 354.458C163.524 354.212 162.947 354.001 162.121 353.825C161.301 353.649 160.647 353.438 160.161 353.192C159.681 352.946 159.323 352.653 159.089 352.313C158.86 351.974 158.746 351.569 158.746 351.101C158.746 350.321 159.074 349.662 159.73 349.123C160.393 348.584 161.236 348.314 162.262 348.314C163.34 348.314 164.213 348.593 164.881 349.149C165.555 349.706 165.892 350.418 165.892 351.285H164.257C164.257 350.84 164.066 350.456 163.686 350.134C163.311 349.812 162.836 349.65 162.262 349.65C161.67 349.65 161.207 349.779 160.873 350.037C160.539 350.295 160.372 350.632 160.372 351.048C160.372 351.44 160.527 351.736 160.838 351.936C161.148 352.135 161.708 352.325 162.517 352.507C163.331 352.688 163.99 352.905 164.494 353.157C164.998 353.409 165.37 353.714 165.61 354.071C165.856 354.423 165.979 354.854 165.979 355.363C165.979 356.213 165.64 356.896 164.96 357.411C164.28 357.921 163.398 358.176 162.314 358.176C161.553 358.176 160.879 358.041 160.293 357.771C159.707 357.502 159.247 357.127 158.913 356.646C158.585 356.16 158.421 355.636 158.421 355.073H160.047C160.076 355.618 160.293 356.052 160.697 356.374C161.107 356.69 161.646 356.849 162.314 356.849C162.93 356.849 163.422 356.726 163.791 356.479C164.166 356.228 164.354 355.894 164.354 355.478ZM172.044 358.176C170.755 358.176 169.706 357.754 168.897 356.91C168.089 356.061 167.685 354.927 167.685 353.509V353.21C167.685 352.267 167.863 351.426 168.221 350.688C168.584 349.943 169.088 349.363 169.732 348.947C170.383 348.525 171.086 348.314 171.842 348.314C173.078 348.314 174.039 348.722 174.725 349.536C175.41 350.351 175.753 351.517 175.753 353.034V353.711H169.311C169.334 354.648 169.606 355.407 170.128 355.987C170.655 356.562 171.323 356.849 172.132 356.849C172.706 356.849 173.192 356.731 173.591 356.497C173.989 356.263 174.338 355.952 174.637 355.565L175.63 356.339C174.833 357.563 173.638 358.176 172.044 358.176ZM171.842 349.65C171.186 349.65 170.635 349.891 170.189 350.371C169.744 350.846 169.469 351.514 169.363 352.375H174.127V352.252C174.08 351.426 173.857 350.787 173.459 350.336C173.061 349.879 172.521 349.65 171.842 349.65ZM177.247 353.166C177.247 351.707 177.593 350.535 178.284 349.65C178.976 348.76 179.881 348.314 181 348.314C182.113 348.314 182.995 348.695 183.646 349.457V344.5H185.271V358H183.777L183.698 356.98C183.048 357.777 182.143 358.176 180.982 358.176C179.881 358.176 178.981 357.725 178.284 356.822C177.593 355.92 177.247 354.742 177.247 353.289V353.166ZM178.873 353.351C178.873 354.429 179.096 355.272 179.541 355.882C179.986 356.491 180.602 356.796 181.387 356.796C182.418 356.796 183.171 356.333 183.646 355.407V351.039C183.159 350.143 182.412 349.694 181.404 349.694C180.607 349.694 179.986 350.002 179.541 350.617C179.096 351.232 178.873 352.144 178.873 353.351ZM29.4854 389V376.203H33.0977C34.2109 376.203 35.1953 376.449 36.0508 376.941C36.9062 377.434 37.5654 378.134 38.0283 379.042C38.4971 379.95 38.7344 380.993 38.7402 382.171V382.988C38.7402 384.195 38.5059 385.253 38.0371 386.161C37.5742 387.069 36.9092 387.767 36.042 388.253C35.1807 388.739 34.1758 388.988 33.0273 389H29.4854ZM31.1729 377.592V387.62H32.9482C34.249 387.62 35.2598 387.216 35.9805 386.407C36.707 385.599 37.0703 384.447 37.0703 382.953V382.206C37.0703 380.753 36.7275 379.625 36.042 378.822C35.3623 378.014 34.3955 377.604 33.1416 377.592H31.1729ZM42.8096 389H41.1836V379.49H42.8096V389ZM41.0518 376.968C41.0518 376.704 41.1309 376.481 41.2891 376.3C41.4531 376.118 41.6934 376.027 42.0098 376.027C42.3262 376.027 42.5664 376.118 42.7305 376.3C42.8945 376.481 42.9766 376.704 42.9766 376.968C42.9766 377.231 42.8945 377.451 42.7305 377.627C42.5664 377.803 42.3262 377.891 42.0098 377.891C41.6934 377.891 41.4531 377.803 41.2891 377.627C41.1309 377.451 41.0518 377.231 41.0518 376.968ZM46.9492 387.673H52.5127V389H44.9629V387.805L50.21 380.835H45.042V379.49H52.249V380.642L46.9492 387.673ZM55.8789 387.673H61.4424V389H53.8926V387.805L59.1396 380.835H53.9717V379.49H61.1787V380.642L55.8789 387.673ZM66.3906 386.618L68.6055 379.49H70.3457L66.5225 390.468C65.9307 392.05 64.9902 392.841 63.7012 392.841L63.3936 392.814L62.7871 392.7V391.382L63.2266 391.417C63.7773 391.417 64.2051 391.306 64.5098 391.083C64.8203 390.86 65.0752 390.453 65.2744 389.861L65.6348 388.895L62.2422 379.49H64.0176L66.3906 386.618ZM36.543 415.349H31.1729V421H29.4854V408.203H37.4131V409.592H31.1729V413.969H36.543V415.349ZM42.9326 421.176C41.6436 421.176 40.5947 420.754 39.7861 419.91C38.9775 419.061 38.5732 417.927 38.5732 416.509V416.21C38.5732 415.267 38.752 414.426 39.1094 413.688C39.4727 412.943 39.9766 412.363 40.6211 411.947C41.2715 411.525 41.9746 411.314 42.7305 411.314C43.9668 411.314 44.9277 411.722 45.6133 412.536C46.2988 413.351 46.6416 414.517 46.6416 416.034V416.711H40.1992C40.2227 417.648 40.4951 418.407 41.0166 418.987C41.5439 419.562 42.2119 419.849 43.0205 419.849C43.5947 419.849 44.0811 419.731 44.4795 419.497C44.8779 419.263 45.2266 418.952 45.5254 418.565L46.5186 419.339C45.7217 420.563 44.5264 421.176 42.9326 421.176ZM42.7305 412.65C42.0742 412.65 41.5234 412.891 41.0781 413.371C40.6328 413.846 40.3574 414.514 40.252 415.375H45.0156V415.252C44.9688 414.426 44.7461 413.787 44.3477 413.336C43.9492 412.879 43.4102 412.65 42.7305 412.65ZM51.5459 418.794L53.9014 411.49H55.5625L52.1523 421H50.9131L47.4678 411.49H49.1289L51.5459 418.794ZM60.9502 421.176C59.6611 421.176 58.6123 420.754 57.8037 419.91C56.9951 419.061 56.5908 417.927 56.5908 416.509V416.21C56.5908 415.267 56.7695 414.426 57.127 413.688C57.4902 412.943 57.9941 412.363 58.6387 411.947C59.2891 411.525 59.9922 411.314 60.748 411.314C61.9844 411.314 62.9453 411.722 63.6309 412.536C64.3164 413.351 64.6592 414.517 64.6592 416.034V416.711H58.2168C58.2402 417.648 58.5127 418.407 59.0342 418.987C59.5615 419.562 60.2295 419.849 61.0381 419.849C61.6123 419.849 62.0986 419.731 62.4971 419.497C62.8955 419.263 63.2441 418.952 63.543 418.565L64.5361 419.339C63.7393 420.563 62.5439 421.176 60.9502 421.176ZM60.748 412.65C60.0918 412.65 59.541 412.891 59.0957 413.371C58.6504 413.846 58.375 414.514 58.2695 415.375H63.0332V415.252C62.9863 414.426 62.7637 413.787 62.3652 413.336C61.9668 412.879 61.4277 412.65 60.748 412.65ZM71.1455 412.949C70.8994 412.908 70.6328 412.888 70.3457 412.888C69.2793 412.888 68.5557 413.342 68.1748 414.25V421H66.5488V411.49H68.1309L68.1572 412.589C68.6904 411.739 69.4463 411.314 70.4248 411.314C70.7412 411.314 70.9814 411.355 71.1455 411.438V412.949ZM39.3203 453H37.624V447.085H31.1729V453H29.4854V440.203H31.1729V445.705H37.624V440.203H39.3203V453ZM46.0088 453.176C44.7197 453.176 43.6709 452.754 42.8623 451.91C42.0537 451.061 41.6494 449.927 41.6494 448.509V448.21C41.6494 447.267 41.8281 446.426 42.1855 445.688C42.5488 444.943 43.0527 444.363 43.6973 443.947C44.3477 443.525 45.0508 443.314 45.8066 443.314C47.043 443.314 48.0039 443.722 48.6895 444.536C49.375 445.351 49.7178 446.517 49.7178 448.034V448.711H43.2754C43.2988 449.648 43.5713 450.407 44.0928 450.987C44.6201 451.562 45.2881 451.849 46.0967 451.849C46.6709 451.849 47.1572 451.731 47.5557 451.497C47.9541 451.263 48.3027 450.952 48.6016 450.565L49.5947 451.339C48.7979 452.563 47.6025 453.176 46.0088 453.176ZM45.8066 444.65C45.1504 444.65 44.5996 444.891 44.1543 445.371C43.709 445.846 43.4336 446.514 43.3281 447.375H48.0918V447.252C48.0449 446.426 47.8223 445.787 47.4238 445.336C47.0254 444.879 46.4863 444.65 45.8066 444.65ZM57.4785 453C57.3848 452.812 57.3086 452.479 57.25 451.998C56.4941 452.783 55.5918 453.176 54.543 453.176C53.6055 453.176 52.835 452.912 52.2314 452.385C51.6338 451.852 51.335 451.178 51.335 450.363C51.335 449.373 51.71 448.605 52.46 448.061C53.2158 447.51 54.2764 447.234 55.6416 447.234H57.2236V446.487C57.2236 445.919 57.0537 445.468 56.7139 445.134C56.374 444.794 55.873 444.624 55.2109 444.624C54.6309 444.624 54.1445 444.771 53.752 445.063C53.3594 445.356 53.1631 445.711 53.1631 446.127H51.5283C51.5283 445.652 51.6953 445.195 52.0293 444.756C52.3691 444.311 52.8262 443.959 53.4004 443.701C53.9805 443.443 54.6162 443.314 55.3076 443.314C56.4033 443.314 57.2617 443.59 57.8828 444.141C58.5039 444.686 58.8262 445.438 58.8496 446.399V450.776C58.8496 451.649 58.9609 452.344 59.1836 452.859V453H57.4785ZM54.7803 451.761C55.29 451.761 55.7734 451.629 56.2305 451.365C56.6875 451.102 57.0186 450.759 57.2236 450.337V448.386H55.9492C53.957 448.386 52.9609 448.969 52.9609 450.135C52.9609 450.645 53.1309 451.043 53.4707 451.33C53.8105 451.617 54.2471 451.761 54.7803 451.761ZM61.0029 448.166C61.0029 446.707 61.3486 445.535 62.04 444.65C62.7314 443.76 63.6367 443.314 64.7559 443.314C65.8691 443.314 66.751 443.695 67.4014 444.457V439.5H69.0273V453H67.5332L67.4541 451.98C66.8037 452.777 65.8984 453.176 64.7383 453.176C63.6367 453.176 62.7373 452.725 62.04 451.822C61.3486 450.92 61.0029 449.742 61.0029 448.289V448.166ZM62.6289 448.351C62.6289 449.429 62.8516 450.272 63.2969 450.882C63.7422 451.491 64.3574 451.796 65.1426 451.796C66.1738 451.796 66.9268 451.333 67.4014 450.407V446.039C66.915 445.143 66.168 444.694 65.1602 444.694C64.3633 444.694 63.7422 445.002 63.2969 445.617C62.8516 446.232 62.6289 447.144 62.6289 448.351ZM77.4297 453C77.3359 452.812 77.2598 452.479 77.2012 451.998C76.4453 452.783 75.543 453.176 74.4941 453.176C73.5566 453.176 72.7861 452.912 72.1826 452.385C71.585 451.852 71.2861 451.178 71.2861 450.363C71.2861 449.373 71.6611 448.605 72.4111 448.061C73.167 447.51 74.2275 447.234 75.5928 447.234H77.1748V446.487C77.1748 445.919 77.0049 445.468 76.665 445.134C76.3252 444.794 75.8242 444.624 75.1621 444.624C74.582 444.624 74.0957 444.771 73.7031 445.063C73.3105 445.356 73.1143 445.711 73.1143 446.127H71.4795C71.4795 445.652 71.6465 445.195 71.9805 444.756C72.3203 444.311 72.7773 443.959 73.3516 443.701C73.9316 443.443 74.5674 443.314 75.2588 443.314C76.3545 443.314 77.2129 443.59 77.834 444.141C78.4551 444.686 78.7773 445.438 78.8008 446.399V450.776C78.8008 451.649 78.9121 452.344 79.1348 452.859V453H77.4297ZM74.7314 451.761C75.2412 451.761 75.7246 451.629 76.1816 451.365C76.6387 451.102 76.9697 450.759 77.1748 450.337V448.386H75.9004C73.9082 448.386 72.9121 448.969 72.9121 450.135C72.9121 450.645 73.082 451.043 73.4219 451.33C73.7617 451.617 74.1982 451.761 74.7314 451.761ZM85.1641 451.849C85.7441 451.849 86.251 451.673 86.6846 451.321C87.1182 450.97 87.3584 450.53 87.4053 450.003H88.9434C88.9141 450.548 88.7266 451.066 88.3809 451.559C88.0352 452.051 87.5723 452.443 86.9922 452.736C86.418 453.029 85.8086 453.176 85.1641 453.176C83.8691 453.176 82.8379 452.745 82.0703 451.884C81.3086 451.017 80.9277 449.833 80.9277 448.333V448.061C80.9277 447.135 81.0977 446.312 81.4375 445.591C81.7773 444.87 82.2637 444.311 82.8965 443.912C83.5352 443.514 84.2881 443.314 85.1553 443.314C86.2217 443.314 87.1064 443.634 87.8096 444.272C88.5186 444.911 88.8965 445.74 88.9434 446.76H87.4053C87.3584 446.145 87.124 445.641 86.7021 445.248C86.2861 444.85 85.7705 444.65 85.1553 444.65C84.3291 444.65 83.6875 444.949 83.2305 445.547C82.7793 446.139 82.5537 446.997 82.5537 448.122V448.43C82.5537 449.525 82.7793 450.369 83.2305 450.961C83.6816 451.553 84.3262 451.849 85.1641 451.849ZM92.3975 444.642C93.1182 443.757 94.0557 443.314 95.21 443.314C97.2197 443.314 98.2334 444.448 98.251 446.716V453H96.625V446.707C96.6191 446.021 96.4609 445.515 96.1504 445.187C95.8457 444.858 95.3682 444.694 94.7178 444.694C94.1904 444.694 93.7275 444.835 93.3291 445.116C92.9307 445.397 92.6201 445.767 92.3975 446.224V453H90.7715V439.5H92.3975V444.642ZM104.632 453.176C103.343 453.176 102.294 452.754 101.485 451.91C100.677 451.061 100.272 449.927 100.272 448.509V448.21C100.272 447.267 100.451 446.426 100.809 445.688C101.172 444.943 101.676 444.363 102.32 443.947C102.971 443.525 103.674 443.314 104.43 443.314C105.666 443.314 106.627 443.722 107.312 444.536C107.998 445.351 108.341 446.517 108.341 448.034V448.711H101.898C101.922 449.648 102.194 450.407 102.716 450.987C103.243 451.562 103.911 451.849 104.72 451.849C105.294 451.849 105.78 451.731 106.179 451.497C106.577 451.263 106.926 450.952 107.225 450.565L108.218 451.339C107.421 452.563 106.226 453.176 104.632 453.176ZM104.43 444.65C103.773 444.65 103.223 444.891 102.777 445.371C102.332 445.846 102.057 446.514 101.951 447.375H106.715V447.252C106.668 446.426 106.445 445.787 106.047 445.336C105.648 444.879 105.109 444.65 104.43 444.65ZM31.2959 484H29.6084V471.203H31.2959V484ZM36.3408 472.188V474.49H38.1162V475.747H36.3408V481.645C36.3408 482.025 36.4199 482.312 36.5781 482.506C36.7363 482.693 37.0059 482.787 37.3867 482.787C37.5742 482.787 37.832 482.752 38.1602 482.682V484C37.7324 484.117 37.3164 484.176 36.9121 484.176C36.1855 484.176 35.6377 483.956 35.2686 483.517C34.8994 483.077 34.7148 482.453 34.7148 481.645V475.747H32.9834V474.49H34.7148V472.188H36.3408ZM43.8379 482.849C44.418 482.849 44.9248 482.673 45.3584 482.321C45.792 481.97 46.0322 481.53 46.0791 481.003H47.6172C47.5879 481.548 47.4004 482.066 47.0547 482.559C46.709 483.051 46.2461 483.443 45.666 483.736C45.0918 484.029 44.4824 484.176 43.8379 484.176C42.543 484.176 41.5117 483.745 40.7441 482.884C39.9824 482.017 39.6016 480.833 39.6016 479.333V479.061C39.6016 478.135 39.7715 477.312 40.1113 476.591C40.4512 475.87 40.9375 475.311 41.5703 474.912C42.209 474.514 42.9619 474.314 43.8291 474.314C44.8955 474.314 45.7803 474.634 46.4834 475.272C47.1924 475.911 47.5703 476.74 47.6172 477.76H46.0791C46.0322 477.145 45.7979 476.641 45.376 476.248C44.96 475.85 44.4443 475.65 43.8291 475.65C43.0029 475.65 42.3613 475.949 41.9043 476.547C41.4531 477.139 41.2275 477.997 41.2275 479.122V479.43C41.2275 480.525 41.4531 481.369 41.9043 481.961C42.3555 482.553 43 482.849 43.8379 482.849ZM51.0713 475.642C51.792 474.757 52.7295 474.314 53.8838 474.314C55.8936 474.314 56.9072 475.448 56.9248 477.716V484H55.2988V477.707C55.293 477.021 55.1348 476.515 54.8242 476.187C54.5195 475.858 54.042 475.694 53.3916 475.694C52.8643 475.694 52.4014 475.835 52.0029 476.116C51.6045 476.397 51.2939 476.767 51.0713 477.224V484H49.4453V470.5H51.0713V475.642ZM62.4707 481.618L64.6855 474.49H66.4258L62.6025 485.468C62.0107 487.05 61.0703 487.841 59.7812 487.841L59.4736 487.814L58.8672 487.7V486.382L59.3066 486.417C59.8574 486.417 60.2852 486.306 60.5898 486.083C60.9004 485.86 61.1553 485.453 61.3545 484.861L61.7148 483.895L58.3223 474.49H60.0977L62.4707 481.618ZM31.1816 514.62H37.2461V516H29.4854V503.203H31.1816V514.62ZM38.4854 511.157C38.4854 510.226 38.667 509.388 39.0303 508.644C39.3994 507.899 39.9092 507.325 40.5596 506.921C41.2158 506.517 41.9629 506.314 42.8008 506.314C44.0957 506.314 45.1416 506.763 45.9385 507.659C46.7412 508.556 47.1426 509.748 47.1426 511.236V511.351C47.1426 512.276 46.9639 513.108 46.6064 513.847C46.2549 514.579 45.748 515.15 45.0859 515.561C44.4297 515.971 43.6738 516.176 42.8184 516.176C41.5293 516.176 40.4834 515.728 39.6807 514.831C38.8838 513.935 38.4854 512.748 38.4854 511.271V511.157ZM40.1201 511.351C40.1201 512.405 40.3633 513.252 40.8496 513.891C41.3418 514.529 41.998 514.849 42.8184 514.849C43.6445 514.849 44.3008 514.526 44.7871 513.882C45.2734 513.231 45.5166 512.323 45.5166 511.157C45.5166 510.114 45.2676 509.271 44.7695 508.626C44.2773 507.976 43.6211 507.65 42.8008 507.65C41.998 507.65 41.3506 507.97 40.8584 508.608C40.3662 509.247 40.1201 510.161 40.1201 511.351ZM57.6016 513.759L59.4297 506.49H61.0557L58.2871 516H56.9688L54.6572 508.793L52.4072 516H51.0889L48.3291 506.49H49.9463L51.8184 513.609L54.0332 506.49H55.3428L57.6016 513.759ZM71.1279 516.176C69.8389 516.176 68.79 515.754 67.9814 514.91C67.1729 514.061 66.7686 512.927 66.7686 511.509V511.21C66.7686 510.267 66.9473 509.426 67.3047 508.688C67.668 507.943 68.1719 507.363 68.8164 506.947C69.4668 506.525 70.1699 506.314 70.9258 506.314C72.1621 506.314 73.123 506.722 73.8086 507.536C74.4941 508.351 74.8369 509.517 74.8369 511.034V511.711H68.3945C68.418 512.648 68.6904 513.407 69.2119 513.987C69.7393 514.562 70.4072 514.849 71.2158 514.849C71.79 514.849 72.2764 514.731 72.6748 514.497C73.0732 514.263 73.4219 513.952 73.7207 513.565L74.7139 514.339C73.917 515.563 72.7217 516.176 71.1279 516.176ZM70.9258 507.65C70.2695 507.65 69.7188 507.891 69.2734 508.371C68.8281 508.846 68.5527 509.514 68.4473 510.375H73.2109V510.252C73.1641 509.426 72.9414 508.787 72.543 508.336C72.1445 507.879 71.6055 507.65 70.9258 507.65ZM78.2646 506.49L78.3174 507.686C79.0439 506.771 79.9932 506.314 81.165 506.314C83.1748 506.314 84.1885 507.448 84.2061 509.716V516H82.5801V509.707C82.5742 509.021 82.416 508.515 82.1055 508.187C81.8008 507.858 81.3232 507.694 80.6729 507.694C80.1455 507.694 79.6826 507.835 79.2842 508.116C78.8857 508.397 78.5752 508.767 78.3525 509.224V516H76.7266V506.49H78.2646ZM90.6045 516.176C89.3154 516.176 88.2666 515.754 87.458 514.91C86.6494 514.061 86.2451 512.927 86.2451 511.509V511.21C86.2451 510.267 86.4238 509.426 86.7812 508.688C87.1445 507.943 87.6484 507.363 88.293 506.947C88.9434 506.525 89.6465 506.314 90.4023 506.314C91.6387 506.314 92.5996 506.722 93.2852 507.536C93.9707 508.351 94.3135 509.517 94.3135 511.034V511.711H87.8711C87.8945 512.648 88.167 513.407 88.6885 513.987C89.2158 514.562 89.8838 514.849 90.6924 514.849C91.2666 514.849 91.7529 514.731 92.1514 514.497C92.5498 514.263 92.8984 513.952 93.1973 513.565L94.1904 514.339C93.3936 515.563 92.1982 516.176 90.6045 516.176ZM90.4023 507.65C89.7461 507.65 89.1953 507.891 88.75 508.371C88.3047 508.846 88.0293 509.514 87.9238 510.375H92.6875V510.252C92.6406 509.426 92.418 508.787 92.0195 508.336C91.6211 507.879 91.082 507.65 90.4023 507.65ZM100.8 507.949C100.554 507.908 100.287 507.888 100 507.888C98.9336 507.888 98.21 508.342 97.8291 509.25V516H96.2031V506.49H97.7852L97.8115 507.589C98.3447 506.739 99.1006 506.314 100.079 506.314C100.396 506.314 100.636 506.355 100.8 506.438V507.949ZM101.74 511.166C101.74 509.684 102.083 508.506 102.769 507.633C103.454 506.754 104.362 506.314 105.493 506.314C106.653 506.314 107.559 506.725 108.209 507.545L108.288 506.49H109.773V515.771C109.773 517.002 109.407 517.972 108.675 518.681C107.948 519.39 106.97 519.744 105.739 519.744C105.054 519.744 104.383 519.598 103.727 519.305C103.07 519.012 102.569 518.61 102.224 518.101L103.067 517.125C103.765 517.986 104.617 518.417 105.625 518.417C106.416 518.417 107.031 518.194 107.471 517.749C107.916 517.304 108.139 516.677 108.139 515.868V515.051C107.488 515.801 106.601 516.176 105.476 516.176C104.362 516.176 103.46 515.728 102.769 514.831C102.083 513.935 101.74 512.713 101.74 511.166ZM103.375 511.351C103.375 512.423 103.595 513.267 104.034 513.882C104.474 514.491 105.089 514.796 105.88 514.796C106.905 514.796 107.658 514.33 108.139 513.398V509.057C107.641 508.148 106.894 507.694 105.897 507.694C105.106 507.694 104.488 508.002 104.043 508.617C103.598 509.232 103.375 510.144 103.375 511.351ZM115.346 513.618L117.561 506.49H119.301L115.478 517.468C114.886 519.05 113.945 519.841 112.656 519.841L112.349 519.814L111.742 519.7V518.382L112.182 518.417C112.732 518.417 113.16 518.306 113.465 518.083C113.775 517.86 114.03 517.453 114.229 516.861L114.59 515.895L111.197 506.49H112.973L115.346 513.618ZM39.3203 548H37.624L31.1816 538.139V548H29.4854V535.203H31.1816L37.6416 545.108V535.203H39.3203V548ZM47.9336 548C47.8398 547.812 47.7637 547.479 47.7051 546.998C46.9492 547.783 46.0469 548.176 44.998 548.176C44.0605 548.176 43.29 547.912 42.6865 547.385C42.0889 546.852 41.79 546.178 41.79 545.363C41.79 544.373 42.165 543.605 42.915 543.061C43.6709 542.51 44.7314 542.234 46.0967 542.234H47.6787V541.487C47.6787 540.919 47.5088 540.468 47.1689 540.134C46.8291 539.794 46.3281 539.624 45.666 539.624C45.0859 539.624 44.5996 539.771 44.207 540.063C43.8145 540.356 43.6182 540.711 43.6182 541.127H41.9834C41.9834 540.652 42.1504 540.195 42.4844 539.756C42.8242 539.311 43.2812 538.959 43.8555 538.701C44.4355 538.443 45.0713 538.314 45.7627 538.314C46.8584 538.314 47.7168 538.59 48.3379 539.141C48.959 539.686 49.2812 540.438 49.3047 541.399V545.776C49.3047 546.649 49.416 547.344 49.6387 547.859V548H47.9336ZM45.2354 546.761C45.7451 546.761 46.2285 546.629 46.6855 546.365C47.1426 546.102 47.4736 545.759 47.6787 545.337V543.386H46.4043C44.4121 543.386 43.416 543.969 43.416 545.135C43.416 545.645 43.5859 546.043 43.9258 546.33C44.2656 546.617 44.7021 546.761 45.2354 546.761ZM57.7246 547.06C57.0918 547.804 56.1631 548.176 54.9385 548.176C53.9248 548.176 53.1514 547.883 52.6182 547.297C52.0908 546.705 51.8242 545.832 51.8184 544.678V538.49H53.4443V544.634C53.4443 546.075 54.0303 546.796 55.2021 546.796C56.4443 546.796 57.2705 546.333 57.6807 545.407V538.49H59.3066V548H57.7598L57.7246 547.06ZM67.3223 545.478C67.3223 545.038 67.1553 544.698 66.8213 544.458C66.4932 544.212 65.916 544.001 65.0898 543.825C64.2695 543.649 63.6162 543.438 63.1299 543.192C62.6494 542.946 62.292 542.653 62.0576 542.313C61.8291 541.974 61.7148 541.569 61.7148 541.101C61.7148 540.321 62.043 539.662 62.6992 539.123C63.3613 538.584 64.2051 538.314 65.2305 538.314C66.3086 538.314 67.1816 538.593 67.8496 539.149C68.5234 539.706 68.8604 540.418 68.8604 541.285H67.2256C67.2256 540.84 67.0352 540.456 66.6543 540.134C66.2793 539.812 65.8047 539.65 65.2305 539.65C64.6387 539.65 64.1758 539.779 63.8418 540.037C63.5078 540.295 63.3408 540.632 63.3408 541.048C63.3408 541.44 63.4961 541.736 63.8066 541.936C64.1172 542.135 64.6768 542.325 65.4854 542.507C66.2998 542.688 66.959 542.905 67.4629 543.157C67.9668 543.409 68.3389 543.714 68.5791 544.071C68.8252 544.423 68.9482 544.854 68.9482 545.363C68.9482 546.213 68.6084 546.896 67.9287 547.411C67.249 547.921 66.3672 548.176 65.2832 548.176C64.5215 548.176 63.8477 548.041 63.2617 547.771C62.6758 547.502 62.2158 547.127 61.8818 546.646C61.5537 546.16 61.3896 545.636 61.3896 545.073H63.0156C63.0449 545.618 63.2617 546.052 63.666 546.374C64.0762 546.69 64.6152 546.849 65.2832 546.849C65.8984 546.849 66.3906 546.726 66.7598 546.479C67.1348 546.228 67.3223 545.894 67.3223 545.478ZM75.0127 548.176C73.7236 548.176 72.6748 547.754 71.8662 546.91C71.0576 546.061 70.6533 544.927 70.6533 543.509V543.21C70.6533 542.267 70.832 541.426 71.1895 540.688C71.5527 539.943 72.0566 539.363 72.7012 538.947C73.3516 538.525 74.0547 538.314 74.8105 538.314C76.0469 538.314 77.0078 538.722 77.6934 539.536C78.3789 540.351 78.7217 541.517 78.7217 543.034V543.711H72.2793C72.3027 544.648 72.5752 545.407 73.0967 545.987C73.624 546.562 74.292 546.849 75.1006 546.849C75.6748 546.849 76.1611 546.731 76.5596 546.497C76.958 546.263 77.3066 545.952 77.6055 545.565L78.5986 546.339C77.8018 547.563 76.6064 548.176 75.0127 548.176ZM74.8105 539.65C74.1543 539.65 73.6035 539.891 73.1582 540.371C72.7129 540.846 72.4375 541.514 72.332 542.375H77.0957V542.252C77.0488 541.426 76.8262 540.787 76.4277 540.336C76.0293 539.879 75.4902 539.65 74.8105 539.65ZM80.1807 543.157C80.1807 542.226 80.3623 541.388 80.7256 540.644C81.0947 539.899 81.6045 539.325 82.2549 538.921C82.9111 538.517 83.6582 538.314 84.4961 538.314C85.791 538.314 86.8369 538.763 87.6338 539.659C88.4365 540.556 88.8379 541.748 88.8379 543.236V543.351C88.8379 544.276 88.6592 545.108 88.3018 545.847C87.9502 546.579 87.4434 547.15 86.7812 547.561C86.125 547.971 85.3691 548.176 84.5137 548.176C83.2246 548.176 82.1787 547.728 81.376 546.831C80.5791 545.935 80.1807 544.748 80.1807 543.271V543.157ZM81.8154 543.351C81.8154 544.405 82.0586 545.252 82.5449 545.891C83.0371 546.529 83.6934 546.849 84.5137 546.849C85.3398 546.849 85.9961 546.526 86.4824 545.882C86.9688 545.231 87.2119 544.323 87.2119 543.157C87.2119 542.114 86.9629 541.271 86.4648 540.626C85.9727 539.976 85.3164 539.65 84.4961 539.65C83.6934 539.65 83.0459 539.97 82.5537 540.608C82.0615 541.247 81.8154 542.161 81.8154 543.351ZM96.748 547.06C96.1152 547.804 95.1865 548.176 93.9619 548.176C92.9482 548.176 92.1748 547.883 91.6416 547.297C91.1143 546.705 90.8477 545.832 90.8418 544.678V538.49H92.4678V544.634C92.4678 546.075 93.0537 546.796 94.2256 546.796C95.4678 546.796 96.2939 546.333 96.7041 545.407V538.49H98.3301V548H96.7832L96.748 547.06ZM106.346 545.478C106.346 545.038 106.179 544.698 105.845 544.458C105.517 544.212 104.939 544.001 104.113 543.825C103.293 543.649 102.64 543.438 102.153 543.192C101.673 542.946 101.315 542.653 101.081 542.313C100.853 541.974 100.738 541.569 100.738 541.101C100.738 540.321 101.066 539.662 101.723 539.123C102.385 538.584 103.229 538.314 104.254 538.314C105.332 538.314 106.205 538.593 106.873 539.149C107.547 539.706 107.884 540.418 107.884 541.285H106.249C106.249 540.84 106.059 540.456 105.678 540.134C105.303 539.812 104.828 539.65 104.254 539.65C103.662 539.65 103.199 539.779 102.865 540.037C102.531 540.295 102.364 540.632 102.364 541.048C102.364 541.44 102.52 541.736 102.83 541.936C103.141 542.135 103.7 542.325 104.509 542.507C105.323 542.688 105.982 542.905 106.486 543.157C106.99 543.409 107.362 543.714 107.603 544.071C107.849 544.423 107.972 544.854 107.972 545.363C107.972 546.213 107.632 546.896 106.952 547.411C106.272 547.921 105.391 548.176 104.307 548.176C103.545 548.176 102.871 548.041 102.285 547.771C101.699 547.502 101.239 547.127 100.905 546.646C100.577 546.16 100.413 545.636 100.413 545.073H102.039C102.068 545.618 102.285 546.052 102.689 546.374C103.1 546.69 103.639 546.849 104.307 546.849C104.922 546.849 105.414 546.726 105.783 546.479C106.158 546.228 106.346 545.894 106.346 545.478ZM34.1787 573.823H31.1729V579H29.4766V566.203H33.7129C35.1543 566.203 36.2617 566.531 37.0352 567.188C37.8145 567.844 38.2041 568.799 38.2041 570.053C38.2041 570.85 37.9873 571.544 37.5537 572.136C37.126 572.728 36.5283 573.17 35.7607 573.463L38.7666 578.895V579H36.9561L34.1787 573.823ZM31.1729 572.443H33.7656C34.6035 572.443 35.2686 572.227 35.7607 571.793C36.2588 571.359 36.5078 570.779 36.5078 570.053C36.5078 569.262 36.2705 568.655 35.7959 568.233C35.3271 567.812 34.6475 567.598 33.7568 567.592H31.1729V572.443ZM46.1934 579C46.0996 578.812 46.0234 578.479 45.9648 577.998C45.209 578.783 44.3066 579.176 43.2578 579.176C42.3203 579.176 41.5498 578.912 40.9463 578.385C40.3486 577.852 40.0498 577.178 40.0498 576.363C40.0498 575.373 40.4248 574.605 41.1748 574.061C41.9307 573.51 42.9912 573.234 44.3564 573.234H45.9385V572.487C45.9385 571.919 45.7686 571.468 45.4287 571.134C45.0889 570.794 44.5879 570.624 43.9258 570.624C43.3457 570.624 42.8594 570.771 42.4668 571.063C42.0742 571.356 41.8779 571.711 41.8779 572.127H40.2432C40.2432 571.652 40.4102 571.195 40.7441 570.756C41.084 570.311 41.541 569.959 42.1152 569.701C42.6953 569.443 43.3311 569.314 44.0225 569.314C45.1182 569.314 45.9766 569.59 46.5977 570.141C47.2188 570.686 47.541 571.438 47.5645 572.399V576.776C47.5645 577.649 47.6758 578.344 47.8984 578.859V579H46.1934ZM43.4951 577.761C44.0049 577.761 44.4883 577.629 44.9453 577.365C45.4023 577.102 45.7334 576.759 45.9385 576.337V574.386H44.6641C42.6719 574.386 41.6758 574.969 41.6758 576.135C41.6758 576.645 41.8457 577.043 42.1855 577.33C42.5254 577.617 42.9619 577.761 43.4951 577.761ZM55.6504 576.478C55.6504 576.038 55.4834 575.698 55.1494 575.458C54.8213 575.212 54.2441 575.001 53.418 574.825C52.5977 574.649 51.9443 574.438 51.458 574.192C50.9775 573.946 50.6201 573.653 50.3857 573.313C50.1572 572.974 50.043 572.569 50.043 572.101C50.043 571.321 50.3711 570.662 51.0273 570.123C51.6895 569.584 52.5332 569.314 53.5586 569.314C54.6367 569.314 55.5098 569.593 56.1777 570.149C56.8516 570.706 57.1885 571.418 57.1885 572.285H55.5537C55.5537 571.84 55.3633 571.456 54.9824 571.134C54.6074 570.812 54.1328 570.65 53.5586 570.65C52.9668 570.65 52.5039 570.779 52.1699 571.037C51.8359 571.295 51.6689 571.632 51.6689 572.048C51.6689 572.44 51.8242 572.736 52.1348 572.936C52.4453 573.135 53.0049 573.325 53.8135 573.507C54.6279 573.688 55.2871 573.905 55.791 574.157C56.2949 574.409 56.667 574.714 56.9072 575.071C57.1533 575.423 57.2764 575.854 57.2764 576.363C57.2764 577.213 56.9365 577.896 56.2568 578.411C55.5771 578.921 54.6953 579.176 53.6113 579.176C52.8496 579.176 52.1758 579.041 51.5898 578.771C51.0039 578.502 50.5439 578.127 50.21 577.646C49.8818 577.16 49.7178 576.636 49.7178 576.073H51.3438C51.373 576.618 51.5898 577.052 51.9941 577.374C52.4043 577.69 52.9434 577.849 53.6113 577.849C54.2266 577.849 54.7188 577.726 55.0879 577.479C55.4629 577.228 55.6504 576.894 55.6504 576.478ZM61.0205 570.642C61.7412 569.757 62.6787 569.314 63.833 569.314C65.8428 569.314 66.8564 570.448 66.874 572.716V579H65.248V572.707C65.2422 572.021 65.084 571.515 64.7734 571.187C64.4688 570.858 63.9912 570.694 63.3408 570.694C62.8135 570.694 62.3506 570.835 61.9521 571.116C61.5537 571.397 61.2432 571.767 61.0205 572.224V579H59.3945V565.5H61.0205V570.642ZM33.7217 608.759L37.3779 598.203H39.2236L34.4775 611H32.9834L28.2461 598.203H30.083L33.7217 608.759ZM44.251 611.176C42.9619 611.176 41.9131 610.754 41.1045 609.91C40.2959 609.061 39.8916 607.927 39.8916 606.509V606.21C39.8916 605.267 40.0703 604.426 40.4277 603.688C40.791 602.943 41.2949 602.363 41.9395 601.947C42.5898 601.525 43.293 601.314 44.0488 601.314C45.2852 601.314 46.2461 601.722 46.9316 602.536C47.6172 603.351 47.96 604.517 47.96 606.034V606.711H41.5176C41.541 607.648 41.8135 608.407 42.335 608.987C42.8623 609.562 43.5303 609.849 44.3389 609.849C44.9131 609.849 45.3994 609.731 45.7979 609.497C46.1963 609.263 46.5449 608.952 46.8438 608.565L47.8369 609.339C47.04 610.563 45.8447 611.176 44.251 611.176ZM44.0488 602.65C43.3926 602.65 42.8418 602.891 42.3965 603.371C41.9512 603.846 41.6758 604.514 41.5703 605.375H46.334V605.252C46.2871 604.426 46.0645 603.787 45.666 603.336C45.2676 602.879 44.7285 602.65 44.0488 602.65ZM54.4463 602.949C54.2002 602.908 53.9336 602.888 53.6465 602.888C52.5801 602.888 51.8564 603.342 51.4756 604.25V611H49.8496V601.49H51.4316L51.458 602.589C51.9912 601.739 52.7471 601.314 53.7256 601.314C54.042 601.314 54.2822 601.355 54.4463 601.438V602.949ZM58.5947 599.188V601.49H60.3701V602.747H58.5947V608.645C58.5947 609.025 58.6738 609.312 58.832 609.506C58.9902 609.693 59.2598 609.787 59.6406 609.787C59.8281 609.787 60.0859 609.752 60.4141 609.682V611C59.9863 611.117 59.5703 611.176 59.166 611.176C58.4395 611.176 57.8916 610.956 57.5225 610.517C57.1533 610.077 56.9688 609.453 56.9688 608.645V602.747H55.2373V601.49H56.9688V599.188H58.5947ZM64.0439 611H62.418V601.49H64.0439V611ZM62.2861 598.968C62.2861 598.704 62.3652 598.481 62.5234 598.3C62.6875 598.118 62.9277 598.027 63.2441 598.027C63.5605 598.027 63.8008 598.118 63.9648 598.3C64.1289 598.481 64.2109 598.704 64.2109 598.968C64.2109 599.231 64.1289 599.451 63.9648 599.627C63.8008 599.803 63.5605 599.891 63.2441 599.891C62.9277 599.891 62.6875 599.803 62.5234 599.627C62.3652 599.451 62.2861 599.231 62.2861 598.968ZM66.2676 606.166C66.2676 604.684 66.6104 603.506 67.2959 602.633C67.9814 601.754 68.8896 601.314 70.0205 601.314C71.1807 601.314 72.0859 601.725 72.7363 602.545L72.8154 601.49H74.3008V610.771C74.3008 612.002 73.9346 612.972 73.2021 613.681C72.4756 614.39 71.4971 614.744 70.2666 614.744C69.5811 614.744 68.9102 614.598 68.2539 614.305C67.5977 614.012 67.0967 613.61 66.751 613.101L67.5947 612.125C68.292 612.986 69.1445 613.417 70.1523 613.417C70.9434 613.417 71.5586 613.194 71.998 612.749C72.4434 612.304 72.666 611.677 72.666 610.868V610.051C72.0156 610.801 71.1279 611.176 70.0029 611.176C68.8896 611.176 67.9873 610.728 67.2959 609.831C66.6104 608.935 66.2676 607.713 66.2676 606.166ZM67.9023 606.351C67.9023 607.423 68.1221 608.267 68.5615 608.882C69.001 609.491 69.6162 609.796 70.4072 609.796C71.4326 609.796 72.1855 609.33 72.666 608.398V604.057C72.168 603.148 71.4209 602.694 70.4248 602.694C69.6338 602.694 69.0156 603.002 68.5703 603.617C68.125 604.232 67.9023 605.144 67.9023 606.351ZM76.3311 606.157C76.3311 605.226 76.5127 604.388 76.876 603.644C77.2451 602.899 77.7549 602.325 78.4053 601.921C79.0615 601.517 79.8086 601.314 80.6465 601.314C81.9414 601.314 82.9873 601.763 83.7842 602.659C84.5869 603.556 84.9883 604.748 84.9883 606.236V606.351C84.9883 607.276 84.8096 608.108 84.4521 608.847C84.1006 609.579 83.5938 610.15 82.9316 610.561C82.2754 610.971 81.5195 611.176 80.6641 611.176C79.375 611.176 78.3291 610.728 77.5264 609.831C76.7295 608.935 76.3311 607.748 76.3311 606.271V606.157ZM77.9658 606.351C77.9658 607.405 78.209 608.252 78.6953 608.891C79.1875 609.529 79.8438 609.849 80.6641 609.849C81.4902 609.849 82.1465 609.526 82.6328 608.882C83.1191 608.231 83.3623 607.323 83.3623 606.157C83.3623 605.114 83.1133 604.271 82.6152 603.626C82.123 602.976 81.4668 602.65 80.6465 602.65C79.8438 602.65 79.1963 602.97 78.7041 603.608C78.2119 604.247 77.9658 605.161 77.9658 606.351Z" fill="#C1BEBE"/>
<path d="M0 749H375V812H0V749Z" fill="#EFECEC"/>
<path d="M67.5742 779.139C67.5742 780.941 67.2399 782.537 66.5713 783.925C65.9027 785.313 64.9505 786.383 63.7148 787.137C62.4876 787.882 61.0869 788.254 59.5127 788.254C57.9385 788.254 56.542 787.894 55.3232 787.175C54.1045 786.447 53.1523 785.41 52.4668 784.064C51.7897 782.719 51.4342 781.174 51.4004 779.431V778.39C51.4004 776.578 51.7305 774.983 52.3906 773.604C53.0592 772.215 54.0114 771.145 55.2471 770.392C56.4912 769.638 57.9046 769.262 59.4873 769.262C61.0531 769.262 62.4495 769.634 63.6768 770.379C64.904 771.124 65.8561 772.186 66.5332 773.565C67.2188 774.937 67.5658 776.511 67.5742 778.288V779.139ZM63.042 778.364C63.042 776.528 62.7331 775.135 62.1152 774.188C61.5059 773.231 60.6299 772.753 59.4873 772.753C57.2529 772.753 56.0723 774.429 55.9453 777.78L55.9326 779.139C55.9326 780.95 56.2331 782.342 56.834 783.315C57.4349 784.289 58.3278 784.775 59.5127 784.775C60.6383 784.775 61.5059 784.297 62.1152 783.341C62.7246 782.384 63.0335 781.009 63.042 779.215V778.364Z" fill="white"/>
<rect x="28" y="749" width="42" height="63" fill="#EFECEC"/>
<rect x="76" y="749" width="42" height="63" fill="#EFECEC"/>
<rect x="124" y="749" width="42" height="63" fill="#EFECEC"/>
<rect x="172" y="749" width="42" height="63" fill="#EFECEC"/>
<rect x="220" y="749" width="42" height="63" fill="#EFECEC"/>
<rect x="268" y="749" width="42" height="63" fill="#EFECEC"/>
<rect x="316" y="749" width="42" height="63" fill="#EFECEC"/>
<circle cx="48.5" cy="779.5" r="19.5" fill="#C4C4C4" fill-opacity="0.3"/>
<path d="M54.1289 779.865C54.1289 781.113 53.8975 782.218 53.4346 783.179C52.9717 784.14 52.3125 784.881 51.457 785.402C50.6074 785.918 49.6377 786.176 48.5479 786.176C47.458 786.176 46.4912 785.927 45.6475 785.429C44.8037 784.925 44.1445 784.207 43.6699 783.275C43.2012 782.344 42.9551 781.274 42.9316 780.067V779.347C42.9316 778.093 43.1602 776.988 43.6172 776.033C44.0801 775.072 44.7393 774.331 45.5947 773.81C46.4561 773.288 47.4346 773.027 48.5303 773.027C49.6143 773.027 50.5811 773.285 51.4307 773.801C52.2803 774.316 52.9395 775.052 53.4082 776.007C53.8828 776.956 54.123 778.046 54.1289 779.276V779.865ZM50.9912 779.329C50.9912 778.058 50.7773 777.094 50.3496 776.438C49.9277 775.775 49.3213 775.444 48.5303 775.444C46.9834 775.444 46.166 776.604 46.0781 778.925L46.0693 779.865C46.0693 781.119 46.2773 782.083 46.6934 782.757C47.1094 783.431 47.7275 783.768 48.5479 783.768C49.3271 783.768 49.9277 783.437 50.3496 782.774C50.7715 782.112 50.9854 781.16 50.9912 779.918V779.329Z" fill="white"/>
<path d="M93.9258 780.99V786H92.2383V773.203H96.958C98.3584 773.203 99.4541 773.561 100.245 774.275C101.042 774.99 101.44 775.937 101.44 777.114C101.44 778.356 101.051 779.314 100.271 779.988C99.498 780.656 98.3877 780.99 96.9404 780.99H93.9258ZM93.9258 779.61H96.958C97.8604 779.61 98.5518 779.399 99.0322 778.978C99.5127 778.55 99.7529 777.935 99.7529 777.132C99.7529 776.37 99.5127 775.761 99.0322 775.304C98.5518 774.847 97.8926 774.609 97.0547 774.592H93.9258V779.61ZM149.367 780.015C149.367 781.251 149.171 782.317 148.778 783.214C148.386 784.104 147.835 784.802 147.126 785.306L149.411 787.099L148.26 788.162L145.562 786.018C145.14 786.123 144.694 786.176 144.226 786.176C143.218 786.176 142.324 785.93 141.545 785.438C140.766 784.939 140.159 784.233 139.726 783.319C139.298 782.399 139.078 781.336 139.066 780.129V779.206C139.066 777.976 139.28 776.889 139.708 775.945C140.136 775.002 140.739 774.281 141.519 773.783C142.304 773.279 143.2 773.027 144.208 773.027C145.239 773.027 146.145 773.276 146.924 773.774C147.709 774.272 148.312 774.99 148.734 775.928C149.156 776.859 149.367 777.949 149.367 779.197V780.015ZM147.68 779.188C147.68 777.683 147.378 776.522 146.774 775.708C146.177 774.888 145.321 774.478 144.208 774.478C143.147 774.478 142.31 774.885 141.694 775.699C141.085 776.508 140.771 777.633 140.754 779.074V780.015C140.754 781.479 141.059 782.634 141.668 783.478C142.283 784.321 143.136 784.743 144.226 784.743C145.315 784.743 146.159 784.348 146.757 783.557C147.354 782.76 147.662 781.62 147.68 780.138V779.188ZM192.662 780.823H189.656V786H187.96V773.203H192.196C193.638 773.203 194.745 773.531 195.519 774.188C196.298 774.844 196.688 775.799 196.688 777.053C196.688 777.85 196.471 778.544 196.037 779.136C195.609 779.728 195.012 780.17 194.244 780.463L197.25 785.895V786H195.439L192.662 780.823ZM189.656 779.443H192.249C193.087 779.443 193.752 779.227 194.244 778.793C194.742 778.359 194.991 777.779 194.991 777.053C194.991 776.262 194.754 775.655 194.279 775.233C193.811 774.812 193.131 774.598 192.24 774.592H189.656V779.443ZM238.831 780.296C237.384 779.88 236.329 779.37 235.667 778.767C235.011 778.157 234.683 777.407 234.683 776.517C234.683 775.509 235.084 774.677 235.887 774.021C236.695 773.358 237.744 773.027 239.033 773.027C239.912 773.027 240.694 773.197 241.38 773.537C242.071 773.877 242.604 774.346 242.979 774.943C243.36 775.541 243.551 776.194 243.551 776.903H241.854C241.854 776.13 241.608 775.523 241.116 775.084C240.624 774.639 239.93 774.416 239.033 774.416C238.201 774.416 237.551 774.601 237.082 774.97C236.619 775.333 236.388 775.84 236.388 776.49C236.388 777.012 236.607 777.454 237.047 777.817C237.492 778.175 238.245 778.503 239.306 778.802C240.372 779.101 241.204 779.432 241.802 779.795C242.405 780.152 242.851 780.571 243.138 781.052C243.431 781.532 243.577 782.098 243.577 782.748C243.577 783.785 243.173 784.617 242.364 785.244C241.556 785.865 240.475 786.176 239.121 786.176C238.242 786.176 237.422 786.009 236.66 785.675C235.898 785.335 235.31 784.872 234.894 784.286C234.483 783.7 234.278 783.035 234.278 782.291H235.975C235.975 783.064 236.259 783.677 236.827 784.128C237.401 784.573 238.166 784.796 239.121 784.796C240.012 784.796 240.694 784.614 241.169 784.251C241.644 783.888 241.881 783.393 241.881 782.766C241.881 782.139 241.661 781.655 241.222 781.315C240.782 780.97 239.985 780.63 238.831 780.296ZM290.59 774.592H286.477V786H284.798V774.592H280.693V773.203H290.59V774.592ZM337.497 773.203V781.904C337.491 783.111 337.11 784.099 336.354 784.866C335.604 785.634 334.585 786.064 333.296 786.158L332.848 786.176C331.447 786.176 330.331 785.798 329.499 785.042C328.667 784.286 328.245 783.246 328.233 781.922V773.203H329.903V781.869C329.903 782.795 330.158 783.516 330.668 784.031C331.178 784.541 331.904 784.796 332.848 784.796C333.803 784.796 334.532 784.541 335.036 784.031C335.546 783.521 335.801 782.804 335.801 781.878V773.203H337.497Z" fill="#C4C4C4"/>
</g>
<defs>
<filter id="filter0_bd" x="-27.1828" y="-27.1828" width="429.366" height="142.366" filterUnits="userSpaceOnUse" color-interpolation-filters="sRGB">
<feFlood flood-opacity="0" result="BackgroundImageFix"/>
<feGaussianBlur in="BackgroundImage" stdDeviation="13.5914"/>
<feComposite in2="SourceAlpha" operator="in" result="effect1_backgroundBlur"/>
<feColorMatrix in="SourceAlpha" type="matrix" values="0 0 0 0 0 0 0 0 0 0 0 0 0 0 0 0 0 0 127 0"/>
<feOffset dy="0.5"/>
<feColorMatrix type="matrix" values="0 0 0 0 0 0 0 0 0 0 0 0 0 0 0 0 0 0 0.3 0"/>
<feBlend mode="normal" in2="effect1_backgroundBlur" result="effect2_dropShadow"/>
<feBlend mode="normal" in="SourceGraphic" in2="effect2_dropShadow" result="shape"/>
</filter>
<clipPath id="clip0">
<rect width="375" height="812" fill="white"/>
</clipPath>
</defs>
</svg>
