<svg xmlns="http://www.w3.org/2000/svg" viewBox="0 0 632.76 3.54"><title>Asset 1@2x</title><g id="Layer_2" data-name="Layer 2"><g id="dots"><path d="M117.9,2.54c1.26,0,3-1.91,1.06-1.91-1.26,0-3,1.91-1.06,1.91Z" fill="#d5d8c7"/><path d="M127,3c1,0,3.11-1.49,1.17-1.49-1,0-3.11,1.49-1.17,1.49Z" fill="#d5d8c7"/><path d="M136.3,3c1.66,0,2.22-2.14.25-2.14C134.89.84,134.33,3,136.3,3Z" fill="#d5d8c7"/><path d="M144.69,3.06c1.08,0,3.08-1.63,1.13-1.63-1.08,0-3.08,1.63-1.13,1.63Z" fill="#d5d8c7"/><path d="M154.8,3.17C156.48,3.17,157,1,155,1c-1.68,0-2.2,2.19-.24,2.19Z" fill="#d5d8c7"/><path d="M162,2.49c.6,0,3.27-1.16,1.89-1.16-.6,0-3.27,1.16-1.89,1.16Z" fill="#d5d8c7"/><path d="M171.19,2.91c1.1,0,3.07-1.66,1.12-1.66-1.1,0-3.07,1.66-1.12,1.66Z" fill="#d5d8c7"/><path d="M180.48,2.5c.61,0,3.27-1.17,1.88-1.17-.61,0-3.27,1.17-1.88,1.17Z" fill="#d5d8c7"/><path d="M190.22,2.85c1.24,0,3-1.88,1.07-1.88-1.24,0-3,1.88-1.07,1.88Z" fill="#d5d8c7"/><path d="M198.82,2.93c.91,0,3.13-1.36,1.2-1.36-.91,0-3.13,1.36-1.2,1.36Z" fill="#d5d8c7"/><path d="M207.85,2.55c1.06,0,3.09-1.6,1.14-1.6-1.06,0-3.09,1.6-1.14,1.6Z" fill="#d5d8c7"/><path d="M217.28,2.91c1.61,0,2.26-2,.29-2-1.61,0-2.26,2-.29,2Z" fill="#d5d8c7"/><path d="M226,2.65c1,0,3.11-1.48,1.17-1.48-1,0-3.11,1.48-1.17,1.48Z" fill="#d5d8c7"/><path d="M235.3,3.15c1.66,0,2.22-2.14.25-2.14-1.66,0-2.22,2.14-.25,2.14Z" fill="#d5d8c7"/><path d="M244.05,3.17c1.23,0,3-1.86,1.07-1.86-1.23,0-3,1.86-1.07,1.86Z" fill="#d5d8c7"/><path d="M253,3c1.69,0,2.2-2.21.23-2.21C251.52.81,251,3,253,3Z" fill="#d5d8c7"/><path d="M261.16,2.87c.66,0,3.29-1.26,1.86-1.26-.66,0-3.29,1.26-1.86,1.26Z" fill="#d5d8c7"/><path d="M271,3.15c1.66,0,2.22-2.14.25-2.14C269.55,1,269,3.15,271,3.15Z" fill="#d5d8c7"/><path d="M280.14,2.56c.86,0,3.14-1.28,1.22-1.28-.86,0-3.14,1.28-1.22,1.28Z" fill="#d5d8c7"/><path d="M289.31,3.37c1.7,0,2.18-2.25.22-2.25-1.7,0-2.18,2.25-.22,2.25Z" fill="#d5d8c7"/><path d="M297.89,3c1.26,0,3-1.9,1.06-1.9-1.26,0-3,1.9-1.06,1.9Z" fill="#d5d8c7"/><path d="M307.14,3.19c1.69,0,2.19-2.22.23-2.22-1.69,0-2.19,2.22-.23,2.22Z" fill="#d5d8c7"/><path d="M316.11,3.24c1.6,0,2.27-2,.29-2-1.6,0-2.27,2-.29,2Z" fill="#d5d8c7"/><path d="M324.81,2.64c.58,0,3.26-1.11,1.9-1.11-.58,0-3.26,1.11-1.9,1.11Z" fill="#d5d8c7"/><path d="M334,2.92c1.12,0,3.07-1.68,1.12-1.68-1.12,0-3.07,1.68-1.12,1.68Z" fill="#d5d8c7"/><path d="M342.64,2.81c.58,0,3.26-1.12,1.9-1.12-.58,0-3.26,1.12-1.9,1.12Z" fill="#d5d8c7"/><path d="M352.15,3.54c1.7,0,2.18-2.26.22-2.26-1.7,0-2.18,2.26-.22,2.26Z" fill="#d5d8c7"/><path d="M361.23,3.22c1.29,0,3-2,1-2-1.29,0-3,2-1,2Z" fill="#d5d8c7"/><path d="M369.82,2.83c.61,0,3.28-1.18,1.88-1.18-.61,0-3.28,1.18-1.88,1.18Z" fill="#d5d8c7"/><path d="M378.69,3c1.06,0,3.09-1.59,1.14-1.59-1.06,0-3.09,1.59-1.14,1.59Z" fill="#d5d8c7"/><path d="M387.55,3c1.2,0,3-1.82,1.08-1.82-1.2,0-3,1.82-1.08,1.82Z" fill="#d5d8c7"/><path d="M397.07,3.06c1.29,0,3-2,1-2-1.29,0-3,2-1,2Z" fill="#d5d8c7"/><path d="M405.85,3c1,0,3.1-1.55,1.15-1.55-1,0-3.1,1.55-1.15,1.55Z" fill="#d5d8c7"/><path d="M414.7,3.26c1.12,0,3.07-1.68,1.12-1.68-1.12,0-3.07,1.68-1.12,1.68Z" fill="#d5d8c7"/><path d="M424,3.3c1.65,0,2.23-2.11.26-2.11-1.65,0-2.23,2.11-.26,2.11Z" fill="#d5d8c7"/><path d="M433.2,3.28c1.15,0,3.05-1.73,1.1-1.73-1.15,0-3.05,1.73-1.1,1.73Z" fill="#d5d8c7"/><path d="M441.87,2.95c1.15,0,3.05-1.73,1.1-1.73-1.15,0-3.05,1.73-1.1,1.73Z" fill="#d5d8c7"/><path d="M450.54,3.13c1.17,0,3-1.77,1.09-1.77-1.17,0-3,1.77-1.09,1.77Z" fill="#d5d8c7"/><path d="M459.87,2.76c1.12,0,3.07-1.69,1.11-1.69-1.12,0-3.07,1.69-1.11,1.69Z" fill="#d5d8c7"/><path d="M469,3.27c1.14,0,3.06-1.71,1.11-1.71-1.14,0-3.06,1.71-1.11,1.71Z" fill="#d5d8c7"/><path d="M477.78,2.89c.91,0,3.13-1.37,1.2-1.37-.91,0-3.13,1.37-1.2,1.37Z" fill="#d5d8c7"/><path d="M487.09,3.23c1.19,0,3-1.8,1.08-1.8-1.19,0-3,1.8-1.08,1.8Z" fill="#d5d8c7"/><path d="M495.31,2.53c.6,0,3.27-1.16,1.89-1.16-.6,0-3.27,1.16-1.89,1.16Z" fill="#d5d8c7"/><path d="M505,3.05c1.29,0,3-1.95,1-1.95-1.29,0-3,1.95-1,1.95Z" fill="#d5d8c7"/><path d="M513.44,2.77c.59,0,3.27-1.14,1.89-1.14-.59,0-3.27,1.14-1.89,1.14Z" fill="#d5d8c7"/><path d="M522.78,2.9c.93,0,3.13-1.39,1.2-1.39-.93,0-3.13,1.39-1.2,1.39Z" fill="#d5d8c7"/><path d="M532.18,2.85c1,0,3.1-1.53,1.16-1.53-1,0-3.1,1.53-1.16,1.53Z" fill="#d5d8c7"/><path d="M540.43,2.65c.59,0,3.26-1.13,1.89-1.13-.59,0-3.26,1.13-1.89,1.13Z" fill="#d5d8c7"/><path d="M549.93,2.87c1,0,3.09-1.58,1.15-1.58-1,0-3.09,1.58-1.15,1.58Z" fill="#d5d8c7"/><path d="M558.6,3c1.26,0,3-1.9,1.06-1.9-1.26,0-3,1.9-1.06,1.9Z" fill="#d5d8c7"/><path d="M568.21,3c1.18,0,3-1.78,1.09-1.78-1.18,0-3,1.78-1.09,1.78Z" fill="#d5d8c7"/><path d="M576.91,2.91c.94,0,3.12-1.41,1.19-1.41-.94,0-3.12,1.41-1.19,1.41Z" fill="#d5d8c7"/><path d="M585.91,2.92c1,0,3.12-1.43,1.18-1.43-1,0-3.12,1.43-1.18,1.43Z" fill="#d5d8c7"/><path d="M595.07,3.17c1.12,0,3.07-1.68,1.12-1.68-1.12,0-3.07,1.68-1.12,1.68Z" fill="#d5d8c7"/><path d="M604.18,2.84c1,0,3.1-1.51,1.16-1.51-1,0-3.1,1.51-1.16,1.51Z" fill="#d5d8c7"/><path d="M613.36,3.08c1.61,0,2.26-2,.29-2-1.61,0-2.26,2-.29,2Z" fill="#d5d8c7"/><path d="M621.69,3c1.06,0,3.09-1.6,1.14-1.6-1.06,0-3.09,1.6-1.14,1.6Z" fill="#d5d8c7"/><path d="M631.26,3.31c1.68,0,2.2-2.2.24-2.2-1.68,0-2.2,2.2-.24,2.2Z" fill="#d5d8c7"/><path d="M90,1.91C91.22,1.91,93,0,91,0,89.75,0,88,1.91,90,1.91Z" fill="#d5d8c7"/><path d="M99.07,2.37c1,0,3.11-1.49,1.17-1.49-1,0-3.11,1.49-1.17,1.49Z" fill="#d5d8c7"/><path d="M109.36,2.36c1.66,0,2.22-2.14.25-2.14-1.66,0-2.22,2.14-.25,2.14Z" fill="#d5d8c7"/><path d="M.81,1.91C1.86,1.91,3.9.33,2,.33.91.33-1.14,1.91.81,1.91Z" fill="#d5d8c7"/><path d="M9.48,2.07c1.26,0,3-1.9,1.06-1.9-1.26,0-3,1.9-1.06,1.9Z" fill="#d5d8c7"/><path d="M19.09,2c1.18,0,3-1.78,1.09-1.78C19,.23,17.13,2,19.09,2Z" fill="#d5d8c7"/><path d="M27.79,2C28.73,2,30.91.54,29,.54,28,.54,25.85,2,27.79,2Z" fill="#d5d8c7"/><path d="M36.79,2C37.74,2,39.91.53,38,.53,37,.53,34.85,2,36.79,2Z" fill="#d5d8c7"/><path d="M45.95,2.21C47.06,2.21,49,.53,47.06.53,45.95.53,44,2.21,45.95,2.21Z" fill="#d5d8c7"/><path d="M55.05,1.88c1,0,3.1-1.51,1.16-1.51-1,0-3.1,1.51-1.16,1.51Z" fill="#d5d8c7"/><path d="M64.24,2.12c1.61,0,2.26-2,.29-2-1.61,0-2.26,2-.29,2Z" fill="#d5d8c7"/><path d="M72.56,2C73.62,2,75.65.45,73.7.45,72.64.45,70.61,2,72.56,2Z" fill="#d5d8c7"/><path d="M82.14,2.35c1.68,0,2.2-2.2.24-2.2-1.68,0-2.2,2.2-.24,2.2Z" fill="#d5d8c7"/></g></g></svg>