<svg xmlns="http://www.w3.org/2000/svg" viewBox="0 0 634.58 236.83"><title>Asset 3@2x</title><g id="Layer_2" data-name="Layer 2"><g id="dots"><path d="M64.1,20.2c1.26,0,3-1.91,1.06-1.91-1.26,0-3,1.91-1.06,1.91Z" fill="#d5d8c7"/><path d="M73.21,20.66c1,0,3.11-1.49,1.17-1.49-1,0-3.11,1.49-1.17,1.49Z" fill="#d5d8c7"/><path d="M82.5,20.65c1.66,0,2.22-2.14.25-2.14-1.66,0-2.22,2.14-.25,2.14Z" fill="#d5d8c7"/><path d="M90.89,20.73C92,20.73,94,19.1,92,19.1c-1.08,0-3.08,1.63-1.13,1.63Z" fill="#d5d8c7"/><path d="M101,20.84c1.68,0,2.2-2.19.24-2.19-1.68,0-2.2,2.19-.24,2.19Z" fill="#d5d8c7"/><path d="M108.18,20.16c.6,0,3.27-1.16,1.89-1.16-.6,0-3.27,1.16-1.89,1.16Z" fill="#d5d8c7"/><path d="M117.4,20.58c1.1,0,3.07-1.66,1.12-1.66-1.1,0-3.07,1.66-1.12,1.66Z" fill="#d5d8c7"/><path d="M126.69,20.16c.61,0,3.27-1.17,1.88-1.17-.61,0-3.27,1.17-1.88,1.17Z" fill="#d5d8c7"/><path d="M136.43,20.52c1.24,0,3-1.88,1.07-1.88-1.24,0-3,1.88-1.07,1.88Z" fill="#d5d8c7"/><path d="M145,20.6c.91,0,3.13-1.36,1.2-1.36-.91,0-3.13,1.36-1.2,1.36Z" fill="#d5d8c7"/><path d="M154.06,20.21c1.06,0,3.09-1.6,1.14-1.6-1.06,0-3.09,1.6-1.14,1.6Z" fill="#d5d8c7"/><path d="M163.48,20.58c1.61,0,2.26-2,.29-2-1.61,0-2.26,2-.29,2Z" fill="#d5d8c7"/><path d="M172.21,20.32c1,0,3.11-1.48,1.17-1.48-1,0-3.11,1.48-1.17,1.48Z" fill="#d5d8c7"/><path d="M181.5,20.81c1.66,0,2.22-2.14.25-2.14-1.66,0-2.22,2.14-.25,2.14Z" fill="#d5d8c7"/><path d="M190.26,20.84c1.23,0,3-1.86,1.07-1.86-1.23,0-3,1.86-1.07,1.86Z" fill="#d5d8c7"/><path d="M199.18,20.68c1.69,0,2.2-2.21.23-2.21-1.69,0-2.2,2.21-.23,2.21Z" fill="#d5d8c7"/><path d="M207.36,20.54c.66,0,3.29-1.26,1.86-1.26-.66,0-3.29,1.26-1.86,1.26Z" fill="#d5d8c7"/><path d="M217.17,20.82c1.66,0,2.22-2.14.25-2.14-1.66,0-2.22,2.14-.25,2.14Z" fill="#d5d8c7"/><path d="M226.35,20.22c.86,0,3.14-1.28,1.22-1.28-.86,0-3.14,1.28-1.22,1.28Z" fill="#d5d8c7"/><path d="M235.52,21c1.7,0,2.18-2.25.22-2.25-1.7,0-2.18,2.25-.22,2.25Z" fill="#d5d8c7"/><path d="M244.1,20.7c1.26,0,3-1.9,1.06-1.9-1.26,0-3,1.9-1.06,1.9Z" fill="#d5d8c7"/><path d="M253.34,20.86c1.69,0,2.19-2.22.23-2.22-1.69,0-2.19,2.22-.23,2.22Z" fill="#d5d8c7"/><path d="M262.31,20.91c1.6,0,2.27-2,.29-2-1.6,0-2.27,2-.29,2Z" fill="#d5d8c7"/><path d="M271,20.3c.58,0,3.26-1.11,1.9-1.11-.58,0-3.26,1.11-1.9,1.11Z" fill="#d5d8c7"/><path d="M280.24,20.59c1.12,0,3.07-1.68,1.12-1.68-1.12,0-3.07,1.68-1.12,1.68Z" fill="#d5d8c7"/><path d="M288.85,20.48c.58,0,3.26-1.12,1.9-1.12-.58,0-3.26,1.12-1.9,1.12Z" fill="#d5d8c7"/><path d="M298.35,21.21c1.7,0,2.18-2.26.22-2.26-1.7,0-2.18,2.26-.22,2.26Z" fill="#d5d8c7"/><path d="M307.44,20.89c1.29,0,3-2,1-2-1.29,0-3,2-1,2Z" fill="#d5d8c7"/><path d="M316,20.5c.61,0,3.28-1.18,1.88-1.18-.61,0-3.28,1.18-1.88,1.18Z" fill="#d5d8c7"/><path d="M324.89,20.71c1.06,0,3.09-1.59,1.14-1.59-1.06,0-3.09,1.59-1.14,1.59Z" fill="#d5d8c7"/><path d="M333.75,20.66c1.2,0,3-1.82,1.08-1.82-1.2,0-3,1.82-1.08,1.82Z" fill="#d5d8c7"/><path d="M343.27,20.72c1.29,0,3-2,1-2-1.29,0-3,2-1,2Z" fill="#d5d8c7"/><path d="M352.05,20.69c1,0,3.1-1.55,1.15-1.55-1,0-3.1,1.55-1.15,1.55Z" fill="#d5d8c7"/><path d="M360.9,20.92c1.12,0,3.07-1.68,1.12-1.68-1.12,0-3.07,1.68-1.12,1.68Z" fill="#d5d8c7"/><path d="M370.16,21c1.65,0,2.23-2.11.26-2.11-1.65,0-2.23,2.11-.26,2.11Z" fill="#d5d8c7"/><path d="M379.41,20.95c1.15,0,3.05-1.73,1.1-1.73-1.15,0-3.05,1.73-1.1,1.73Z" fill="#d5d8c7"/><path d="M388.08,20.61c1.15,0,3.05-1.73,1.1-1.73-1.15,0-3.05,1.73-1.1,1.73Z" fill="#d5d8c7"/><path d="M396.75,20.8c1.17,0,3-1.77,1.09-1.77-1.17,0-3,1.77-1.09,1.77Z" fill="#d5d8c7"/><path d="M406.07,20.42c1.12,0,3.07-1.69,1.11-1.69-1.12,0-3.07,1.69-1.11,1.69Z" fill="#d5d8c7"/><path d="M415.24,20.94c1.14,0,3.06-1.71,1.11-1.71-1.14,0-3.06,1.71-1.11,1.71Z" fill="#d5d8c7"/><path d="M424,20.56c.91,0,3.13-1.37,1.2-1.37-.91,0-3.13,1.37-1.2,1.37Z" fill="#d5d8c7"/><path d="M433.29,20.9c1.19,0,3-1.8,1.08-1.8-1.19,0-3,1.8-1.08,1.8Z" fill="#d5d8c7"/><path d="M441.52,20.2c.6,0,3.27-1.16,1.89-1.16-.6,0-3.27,1.16-1.89,1.16Z" fill="#d5d8c7"/><path d="M451.19,20.72c1.29,0,3-1.95,1-1.95-1.29,0-3,1.95-1,1.95Z" fill="#d5d8c7"/><path d="M459.64,20.44c.59,0,3.27-1.14,1.89-1.14-.59,0-3.27,1.14-1.89,1.14Z" fill="#d5d8c7"/><path d="M469,20.57c.93,0,3.13-1.39,1.2-1.39-.93,0-3.13,1.39-1.2,1.39Z" fill="#d5d8c7"/><path d="M478.38,20.51c1,0,3.1-1.53,1.16-1.53-1,0-3.1,1.53-1.16,1.53Z" fill="#d5d8c7"/><path d="M486.64,20.31c.59,0,3.26-1.13,1.89-1.13-.59,0-3.26,1.13-1.89,1.13Z" fill="#d5d8c7"/><path d="M496.14,20.54c1,0,3.09-1.58,1.15-1.58-1,0-3.09,1.58-1.15,1.58Z" fill="#d5d8c7"/><path d="M504.81,20.7c1.26,0,3-1.9,1.06-1.9-1.26,0-3,1.9-1.06,1.9Z" fill="#d5d8c7"/><path d="M514.41,20.64c1.18,0,3-1.78,1.09-1.78-1.18,0-3,1.78-1.09,1.78Z" fill="#d5d8c7"/><path d="M523.12,20.58c.94,0,3.12-1.41,1.19-1.41-.94,0-3.12,1.41-1.19,1.41Z" fill="#d5d8c7"/><path d="M532.12,20.59c1,0,3.12-1.43,1.18-1.43-1,0-3.12,1.43-1.18,1.43Z" fill="#d5d8c7"/><path d="M541.28,20.84c1.12,0,3.07-1.68,1.12-1.68-1.12,0-3.07,1.68-1.12,1.68Z" fill="#d5d8c7"/><path d="M550.38,20.5c1,0,3.1-1.51,1.16-1.51-1,0-3.1,1.51-1.16,1.51Z" fill="#d5d8c7"/><path d="M559.57,20.75c1.61,0,2.26-2,.29-2-1.61,0-2.26,2-.29,2Z" fill="#d5d8c7"/><path d="M567.89,20.67c1.06,0,3.09-1.6,1.14-1.6-1.06,0-3.09,1.6-1.14,1.6Z" fill="#d5d8c7"/><path d="M577.47,21c1.68,0,2.2-2.2.24-2.2-1.68,0-2.2,2.2-.24,2.2Z" fill="#d5d8c7"/><path d="M28.52,38.29c1.26,0,3-1.91,1.06-1.91-1.26,0-3,1.91-1.06,1.91Z" fill="#d5d8c7"/><path d="M37.63,38.74c1,0,3.11-1.49,1.17-1.49-1,0-3.11,1.49-1.17,1.49Z" fill="#d5d8c7"/><path d="M46.92,38.73c1.66,0,2.22-2.14.25-2.14-1.66,0-2.22,2.14-.25,2.14Z" fill="#d5d8c7"/><path d="M55.31,38.81c1.08,0,3.08-1.63,1.13-1.63-1.08,0-3.08,1.63-1.13,1.63Z" fill="#d5d8c7"/><path d="M65.42,38.92c1.68,0,2.2-2.19.24-2.19-1.68,0-2.2,2.19-.24,2.19Z" fill="#d5d8c7"/><path d="M72.6,38.24c.6,0,3.27-1.16,1.89-1.16-.6,0-3.27,1.16-1.89,1.16Z" fill="#d5d8c7"/><path d="M81.82,38.66c1.1,0,3.07-1.66,1.12-1.66-1.1,0-3.07,1.66-1.12,1.66Z" fill="#d5d8c7"/><path d="M91.1,38.25c.61,0,3.27-1.17,1.88-1.17-.61,0-3.27,1.17-1.88,1.17Z" fill="#d5d8c7"/><path d="M100.84,38.6c1.24,0,3-1.88,1.07-1.88-1.24,0-3,1.88-1.07,1.88Z" fill="#d5d8c7"/><path d="M109.44,38.68c.91,0,3.13-1.36,1.2-1.36-.91,0-3.13,1.36-1.2,1.36Z" fill="#d5d8c7"/><path d="M118.47,38.3c1.06,0,3.09-1.6,1.14-1.6-1.06,0-3.09,1.6-1.14,1.6Z" fill="#d5d8c7"/><path d="M127.9,38.66c1.61,0,2.26-2,.29-2-1.61,0-2.26,2-.29,2Z" fill="#d5d8c7"/><path d="M136.62,38.4c1,0,3.11-1.48,1.17-1.48-1,0-3.11,1.48-1.17,1.48Z" fill="#d5d8c7"/><path d="M145.92,38.9c1.66,0,2.22-2.14.25-2.14-1.66,0-2.22,2.14-.25,2.14Z" fill="#d5d8c7"/><path d="M154.67,38.92c1.23,0,3-1.86,1.07-1.86-1.23,0-3,1.86-1.07,1.86Z" fill="#d5d8c7"/><path d="M163.59,38.77c1.69,0,2.2-2.21.23-2.21-1.69,0-2.2,2.21-.23,2.21Z" fill="#d5d8c7"/><path d="M171.78,38.62c.66,0,3.29-1.26,1.86-1.26-.66,0-3.29,1.26-1.86,1.26Z" fill="#d5d8c7"/><path d="M181.58,38.9c1.66,0,2.22-2.14.25-2.14-1.66,0-2.22,2.14-.25,2.14Z" fill="#d5d8c7"/><path d="M190.77,38.31c.86,0,3.14-1.28,1.22-1.28-.86,0-3.14,1.28-1.22,1.28Z" fill="#d5d8c7"/><path d="M199.93,39.12c1.7,0,2.18-2.25.22-2.25-1.7,0-2.18,2.25-.22,2.25Z" fill="#d5d8c7"/><path d="M208.51,38.78c1.26,0,3-1.9,1.06-1.9-1.26,0-3,1.9-1.06,1.9Z" fill="#d5d8c7"/><path d="M217.76,38.94c1.69,0,2.19-2.22.23-2.22-1.69,0-2.19,2.22-.23,2.22Z" fill="#d5d8c7"/><path d="M226.73,39c1.6,0,2.27-2,.29-2-1.6,0-2.27,2-.29,2Z" fill="#d5d8c7"/><path d="M235.43,38.39c.58,0,3.26-1.11,1.9-1.11-.58,0-3.26,1.11-1.9,1.11Z" fill="#d5d8c7"/><path d="M244.65,38.67c1.12,0,3.07-1.68,1.12-1.68-1.12,0-3.07,1.68-1.12,1.68Z" fill="#d5d8c7"/><path d="M253.26,38.56c.58,0,3.26-1.12,1.9-1.12-.58,0-3.26,1.12-1.9,1.12Z" fill="#d5d8c7"/><path d="M262.77,39.29c1.7,0,2.18-2.26.22-2.26-1.7,0-2.18,2.26-.22,2.26Z" fill="#d5d8c7"/><path d="M271.85,39c1.29,0,3-2,1-2-1.29,0-3,2-1,2Z" fill="#d5d8c7"/><path d="M280.44,38.58c.61,0,3.28-1.18,1.88-1.18-.61,0-3.28,1.18-1.88,1.18Z" fill="#d5d8c7"/><path d="M289.31,38.79c1.06,0,3.09-1.59,1.14-1.59-1.06,0-3.09,1.59-1.14,1.59Z" fill="#d5d8c7"/><path d="M298.17,38.74c1.2,0,3-1.82,1.08-1.82-1.2,0-3,1.82-1.08,1.82Z" fill="#d5d8c7"/><path d="M307.69,38.81c1.29,0,3-2,1-2-1.29,0-3,2-1,2Z" fill="#d5d8c7"/><path d="M316.47,38.77c1,0,3.1-1.55,1.15-1.55-1,0-3.1,1.55-1.15,1.55Z" fill="#d5d8c7"/><path d="M325.32,39c1.12,0,3.07-1.68,1.12-1.68-1.12,0-3.07,1.68-1.12,1.68Z" fill="#d5d8c7"/><path d="M334.58,39.05c1.65,0,2.23-2.11.26-2.11-1.65,0-2.23,2.11-.26,2.11Z" fill="#d5d8c7"/><path d="M343.83,39c1.15,0,3.05-1.73,1.1-1.73-1.15,0-3.05,1.73-1.1,1.73Z" fill="#d5d8c7"/><path d="M352.49,38.7c1.15,0,3.05-1.73,1.1-1.73-1.15,0-3.05,1.73-1.1,1.73Z" fill="#d5d8c7"/><path d="M361.16,38.88c1.17,0,3-1.77,1.09-1.77-1.17,0-3,1.77-1.09,1.77Z" fill="#d5d8c7"/><path d="M370.49,38.51c1.12,0,3.07-1.69,1.11-1.69-1.12,0-3.07,1.69-1.11,1.69Z" fill="#d5d8c7"/><path d="M379.66,39c1.14,0,3.06-1.71,1.11-1.71-1.14,0-3.06,1.71-1.11,1.71Z" fill="#d5d8c7"/><path d="M388.4,38.64c.91,0,3.13-1.37,1.2-1.37-.91,0-3.13,1.37-1.2,1.37Z" fill="#d5d8c7"/><path d="M397.71,39c1.19,0,3-1.8,1.08-1.8-1.19,0-3,1.8-1.08,1.8Z" fill="#d5d8c7"/><path d="M405.93,38.28c.6,0,3.27-1.16,1.89-1.16-.6,0-3.27,1.16-1.89,1.16Z" fill="#d5d8c7"/><path d="M415.6,38.8c1.29,0,3-1.95,1-1.95-1.29,0-3,1.95-1,1.95Z" fill="#d5d8c7"/><path d="M424.06,38.52c.59,0,3.27-1.14,1.89-1.14-.59,0-3.27,1.14-1.89,1.14Z" fill="#d5d8c7"/><path d="M433.4,38.65c.93,0,3.13-1.39,1.2-1.39-.93,0-3.13,1.39-1.2,1.39Z" fill="#d5d8c7"/><path d="M442.8,38.6c1,0,3.1-1.53,1.16-1.53-1,0-3.1,1.53-1.16,1.53Z" fill="#d5d8c7"/><path d="M451.06,38.4c.59,0,3.26-1.13,1.89-1.13-.59,0-3.26,1.13-1.89,1.13Z" fill="#d5d8c7"/><path d="M460.55,38.62c1,0,3.09-1.58,1.15-1.58-1,0-3.09,1.58-1.15,1.58Z" fill="#d5d8c7"/><path d="M469.22,38.78c1.26,0,3-1.9,1.06-1.9-1.26,0-3,1.9-1.06,1.9Z" fill="#d5d8c7"/><path d="M478.83,38.72c1.18,0,3-1.78,1.09-1.78-1.18,0-3,1.78-1.09,1.78Z" fill="#d5d8c7"/><path d="M487.53,38.66c.94,0,3.12-1.41,1.19-1.41-.94,0-3.12,1.41-1.19,1.41Z" fill="#d5d8c7"/><path d="M496.54,38.67c1,0,3.12-1.43,1.18-1.43-1,0-3.12,1.43-1.18,1.43Z" fill="#d5d8c7"/><path d="M505.69,38.92c1.12,0,3.07-1.68,1.12-1.68-1.12,0-3.07,1.68-1.12,1.68Z" fill="#d5d8c7"/><path d="M514.8,38.59c1,0,3.1-1.51,1.16-1.51-1,0-3.1,1.51-1.16,1.51Z" fill="#d5d8c7"/><path d="M524,38.83c1.61,0,2.26-2,.29-2-1.61,0-2.26,2-.29,2Z" fill="#d5d8c7"/><path d="M532.31,38.75c1.06,0,3.09-1.6,1.14-1.6-1.06,0-3.09,1.6-1.14,1.6Z" fill="#d5d8c7"/><path d="M541.88,39.06c1.68,0,2.2-2.2.24-2.2-1.68,0-2.2,2.2-.24,2.2Z" fill="#d5d8c7"/><path d="M558.89,56.2c1.26,0,3-1.91,1.06-1.91-1.26,0-3,1.91-1.06,1.91Z" fill="#d5d8c7"/><path d="M549.67,56.66c1,0,3.11-1.49,1.17-1.49-1,0-3.11,1.49-1.17,1.49Z" fill="#d5d8c7"/><path d="M541.29,56.65c1.66,0,2.22-2.14.25-2.14-1.66,0-2.22,2.14-.25,2.14Z" fill="#d5d8c7"/><path d="M532,56.73c1.08,0,3.08-1.63,1.13-1.63-1.08,0-3.08,1.63-1.13,1.63Z" fill="#d5d8c7"/><path d="M522.8,56.84c1.68,0,2.2-2.19.24-2.19-1.68,0-2.2,2.19-.24,2.19Z" fill="#d5d8c7"/><path d="M514,56.16c.6,0,3.27-1.16,1.89-1.16-.6,0-3.27,1.16-1.89,1.16Z" fill="#d5d8c7"/><path d="M505.52,56.58c1.1,0,3.07-1.66,1.12-1.66-1.1,0-3.07,1.66-1.12,1.66Z" fill="#d5d8c7"/><path d="M495.48,56.16c.61,0,3.27-1.17,1.88-1.17-.61,0-3.27,1.17-1.88,1.17Z" fill="#d5d8c7"/><path d="M486.55,56.52c1.24,0,3-1.88,1.07-1.88-1.24,0-3,1.88-1.07,1.88Z" fill="#d5d8c7"/><path d="M477.82,56.6c.91,0,3.13-1.36,1.2-1.36-.91,0-3.13,1.36-1.2,1.36Z" fill="#d5d8c7"/><path d="M468.85,56.21c1.06,0,3.09-1.6,1.14-1.6-1.06,0-3.09,1.6-1.14,1.6Z" fill="#d5d8c7"/><path d="M460.27,56.58c1.61,0,2.26-2,.29-2-1.61,0-2.26,2-.29,2Z" fill="#d5d8c7"/><path d="M450.67,56.32c1,0,3.11-1.48,1.17-1.48-1,0-3.11,1.48-1.17,1.48Z" fill="#d5d8c7"/><path d="M442.29,56.81c1.66,0,2.22-2.14.25-2.14-1.66,0-2.22,2.14-.25,2.14Z" fill="#d5d8c7"/><path d="M432.72,56.84c1.23,0,3-1.86,1.07-1.86-1.23,0-3,1.86-1.07,1.86Z" fill="#d5d8c7"/><path d="M424.63,56.68c1.69,0,2.2-2.21.23-2.21-1.69,0-2.2,2.21-.23,2.21Z" fill="#d5d8c7"/><path d="M414.82,56.54c.66,0,3.29-1.26,1.86-1.26-.66,0-3.29,1.26-1.86,1.26Z" fill="#d5d8c7"/><path d="M406.63,56.82c1.66,0,2.22-2.14.25-2.14-1.66,0-2.22,2.14-.25,2.14Z" fill="#d5d8c7"/><path d="M396.47,56.22c.86,0,3.14-1.28,1.22-1.28-.86,0-3.14,1.28-1.22,1.28Z" fill="#d5d8c7"/><path d="M388.31,57c1.7,0,2.18-2.25.22-2.25-1.7,0-2.18,2.25-.22,2.25Z" fill="#d5d8c7"/><path d="M378.89,56.7c1.26,0,3-1.9,1.06-1.9-1.26,0-3,1.9-1.06,1.9Z" fill="#d5d8c7"/><path d="M370.47,56.86c1.69,0,2.19-2.22.23-2.22-1.69,0-2.19,2.22-.23,2.22Z" fill="#d5d8c7"/><path d="M361.44,56.91c1.6,0,2.27-2,.29-2-1.6,0-2.27,2-.29,2Z" fill="#d5d8c7"/><path d="M351.14,56.3c.58,0,3.26-1.11,1.9-1.11-.58,0-3.26,1.11-1.9,1.11Z" fill="#d5d8c7"/><path d="M342.69,56.59c1.12,0,3.07-1.68,1.12-1.68-1.12,0-3.07,1.68-1.12,1.68Z" fill="#d5d8c7"/><path d="M333.3,56.48c.58,0,3.26-1.12,1.9-1.12-.58,0-3.26,1.12-1.9,1.12Z" fill="#d5d8c7"/><path d="M325.47,57.21c1.7,0,2.18-2.26.22-2.26-1.7,0-2.18,2.26-.22,2.26Z" fill="#d5d8c7"/><path d="M315.56,56.89c1.29,0,3-2,1-2-1.29,0-3,2-1,2Z" fill="#d5d8c7"/><path d="M306.14,56.5c.61,0,3.28-1.18,1.88-1.18-.61,0-3.28,1.18-1.88,1.18Z" fill="#d5d8c7"/><path d="M298,56.71c1.06,0,3.09-1.59,1.14-1.59-1.06,0-3.09,1.59-1.14,1.59Z" fill="#d5d8c7"/><path d="M289.21,56.66c1.2,0,3-1.82,1.08-1.82-1.2,0-3,1.82-1.08,1.82Z" fill="#d5d8c7"/><path d="M279.73,56.72c1.29,0,3-2,1-2-1.29,0-3,2-1,2Z" fill="#d5d8c7"/><path d="M270.84,56.69c1,0,3.1-1.55,1.15-1.55-1,0-3.1,1.55-1.15,1.55Z" fill="#d5d8c7"/><path d="M262,56.92c1.12,0,3.07-1.68,1.12-1.68-1.12,0-3.07,1.68-1.12,1.68Z" fill="#d5d8c7"/><path d="M253.62,57c1.65,0,2.23-2.11.26-2.11-1.65,0-2.23,2.11-.26,2.11Z" fill="#d5d8c7"/><path d="M243.53,56.95c1.15,0,3.05-1.73,1.1-1.73-1.15,0-3.05,1.73-1.1,1.73Z" fill="#d5d8c7"/><path d="M234.87,56.61c1.15,0,3.05-1.73,1.1-1.73-1.15,0-3.05,1.73-1.1,1.73Z" fill="#d5d8c7"/><path d="M226.21,56.8c1.17,0,3-1.77,1.09-1.77-1.17,0-3,1.77-1.09,1.77Z" fill="#d5d8c7"/><path d="M216.86,56.42c1.12,0,3.07-1.69,1.11-1.69-1.12,0-3.07,1.69-1.11,1.69Z" fill="#d5d8c7"/><path d="M207.7,56.94c1.14,0,3.06-1.71,1.11-1.71-1.14,0-3.06,1.71-1.11,1.71Z" fill="#d5d8c7"/><path d="M198.86,56.56c.91,0,3.13-1.37,1.2-1.37-.91,0-3.13,1.37-1.2,1.37Z" fill="#d5d8c7"/><path d="M189.67,56.9c1.19,0,3-1.8,1.08-1.8-1.19,0-3,1.8-1.08,1.8Z" fill="#d5d8c7"/><path d="M180.64,56.2c.6,0,3.27-1.16,1.89-1.16-.6,0-3.27,1.16-1.89,1.16Z" fill="#d5d8c7"/><path d="M171.81,56.72c1.29,0,3-1.95,1-1.95-1.29,0-3,1.95-1,1.95Z" fill="#d5d8c7"/><path d="M162.51,56.44c.59,0,3.27-1.14,1.89-1.14-.59,0-3.27,1.14-1.89,1.14Z" fill="#d5d8c7"/><path d="M153.86,56.57c.93,0,3.13-1.39,1.2-1.39-.93,0-3.13,1.39-1.2,1.39Z" fill="#d5d8c7"/><path d="M144.51,56.51c1,0,3.1-1.53,1.16-1.53-1,0-3.1,1.53-1.16,1.53Z" fill="#d5d8c7"/><path d="M135.51,56.31c.59,0,3.26-1.13,1.89-1.13-.59,0-3.26,1.13-1.89,1.13Z" fill="#d5d8c7"/><path d="M126.76,56.54c1,0,3.09-1.58,1.15-1.58-1,0-3.09,1.58-1.15,1.58Z" fill="#d5d8c7"/><path d="M118.18,56.7c1.26,0,3-1.9,1.06-1.9-1.26,0-3,1.9-1.06,1.9Z" fill="#d5d8c7"/><path d="M108.54,56.64c1.18,0,3-1.78,1.09-1.78-1.18,0-3,1.78-1.09,1.78Z" fill="#d5d8c7"/><path d="M99.74,56.58c.94,0,3.12-1.41,1.19-1.41-.94,0-3.12,1.41-1.19,1.41Z" fill="#d5d8c7"/><path d="M90.74,56.59c1,0,3.12-1.43,1.18-1.43-1,0-3.12,1.43-1.18,1.43Z" fill="#d5d8c7"/><path d="M81.65,56.84c1.12,0,3.07-1.68,1.12-1.68-1.12,0-3.07,1.68-1.12,1.68Z" fill="#d5d8c7"/><path d="M72.5,56.5c1,0,3.1-1.51,1.16-1.51-1,0-3.1,1.51-1.16,1.51Z" fill="#d5d8c7"/><path d="M64.19,56.75c1.61,0,2.26-2,.29-2-1.61,0-2.26,2-.29,2Z" fill="#d5d8c7"/><path d="M55,56.67c1.06,0,3.09-1.6,1.14-1.6-1.06,0-3.09,1.6-1.14,1.6Z" fill="#d5d8c7"/><path d="M46.34,57c1.68,0,2.2-2.2.24-2.2-1.68,0-2.2,2.2-.24,2.2Z" fill="#d5d8c7"/><path d="M279.83,74.2c1.26,0,3-1.91,1.06-1.91-1.26,0-3,1.91-1.06,1.91Z" fill="#d5d8c7"/><path d="M288.94,74.66c1,0,3.11-1.49,1.17-1.49-1,0-3.11,1.49-1.17,1.49Z" fill="#d5d8c7"/><path d="M298.23,74.65c1.66,0,2.22-2.14.25-2.14-1.66,0-2.22,2.14-.25,2.14Z" fill="#d5d8c7"/><path d="M306.62,74.73c1.08,0,3.08-1.63,1.13-1.63-1.08,0-3.08,1.63-1.13,1.63Z" fill="#d5d8c7"/><path d="M316.74,74.84c1.68,0,2.2-2.19.24-2.19-1.68,0-2.2,2.19-.24,2.19Z" fill="#d5d8c7"/><path d="M323.91,74.16c.6,0,3.27-1.16,1.89-1.16-.6,0-3.27,1.16-1.89,1.16Z" fill="#d5d8c7"/><path d="M333.13,74.58c1.1,0,3.07-1.66,1.12-1.66-1.1,0-3.07,1.66-1.12,1.66Z" fill="#d5d8c7"/><path d="M342.41,74.16c.61,0,3.27-1.17,1.88-1.17-.61,0-3.27,1.17-1.88,1.17Z" fill="#d5d8c7"/><path d="M352.16,74.52c1.24,0,3-1.88,1.07-1.88-1.24,0-3,1.88-1.07,1.88Z" fill="#d5d8c7"/><path d="M360.76,74.6c.91,0,3.13-1.36,1.2-1.36-.91,0-3.13,1.36-1.2,1.36Z" fill="#d5d8c7"/><path d="M369.79,74.21c1.06,0,3.09-1.6,1.14-1.6-1.06,0-3.09,1.6-1.14,1.6Z" fill="#d5d8c7"/><path d="M379.21,74.58c1.61,0,2.26-2,.29-2-1.61,0-2.26,2-.29,2Z" fill="#d5d8c7"/><path d="M387.94,74.32c1,0,3.11-1.48,1.17-1.48-1,0-3.11,1.48-1.17,1.48Z" fill="#d5d8c7"/><path d="M397.23,74.81c1.66,0,2.22-2.14.25-2.14-1.66,0-2.22,2.14-.25,2.14Z" fill="#d5d8c7"/><path d="M406,74.84c1.23,0,3-1.86,1.07-1.86-1.23,0-3,1.86-1.07,1.86Z" fill="#d5d8c7"/><path d="M414.91,74.68c1.69,0,2.2-2.21.23-2.21-1.69,0-2.2,2.21-.23,2.21Z" fill="#d5d8c7"/><path d="M423.09,74.54c.66,0,3.29-1.26,1.86-1.26-.66,0-3.29,1.26-1.86,1.26Z" fill="#d5d8c7"/><path d="M432.9,74.82c1.66,0,2.22-2.14.25-2.14-1.66,0-2.22,2.14-.25,2.14Z" fill="#d5d8c7"/><path d="M442.08,74.22c.86,0,3.14-1.28,1.22-1.28-.86,0-3.14,1.28-1.22,1.28Z" fill="#d5d8c7"/><path d="M451.24,75c1.7,0,2.18-2.25.22-2.25-1.7,0-2.18,2.25-.22,2.25Z" fill="#d5d8c7"/><path d="M459.83,74.7c1.26,0,3-1.9,1.06-1.9-1.26,0-3,1.9-1.06,1.9Z" fill="#d5d8c7"/><path d="M469.07,74.86c1.69,0,2.19-2.22.23-2.22-1.69,0-2.19,2.22-.23,2.22Z" fill="#d5d8c7"/><path d="M478,74.91c1.6,0,2.27-2,.29-2-1.6,0-2.27,2-.29,2Z" fill="#d5d8c7"/><path d="M486.74,74.3c.58,0,3.26-1.11,1.9-1.11-.58,0-3.26,1.11-1.9,1.11Z" fill="#d5d8c7"/><path d="M496,74.59c1.12,0,3.07-1.68,1.12-1.68-1.12,0-3.07,1.68-1.12,1.68Z" fill="#d5d8c7"/><path d="M504.58,74.48c.58,0,3.26-1.12,1.9-1.12-.58,0-3.26,1.12-1.9,1.12Z" fill="#d5d8c7"/><path d="M514.08,75.21c1.7,0,2.18-2.26.22-2.26-1.7,0-2.18,2.26-.22,2.26Z" fill="#d5d8c7"/><path d="M523.17,74.89c1.29,0,3-2,1-2-1.29,0-3,2-1,2Z" fill="#d5d8c7"/><path d="M531.75,74.5c.61,0,3.28-1.18,1.88-1.18-.61,0-3.28,1.18-1.88,1.18Z" fill="#d5d8c7"/><path d="M540.62,74.71c1.06,0,3.09-1.59,1.14-1.59-1.06,0-3.09,1.59-1.14,1.59Z" fill="#d5d8c7"/><path d="M549.48,74.66c1.2,0,3-1.82,1.08-1.82-1.2,0-3,1.82-1.08,1.82Z" fill="#d5d8c7"/><path d="M559,74.72c1.29,0,3-2,1-2-1.29,0-3,2-1,2Z" fill="#d5d8c7"/><path d="M567.78,74.69c1,0,3.1-1.55,1.15-1.55-1,0-3.1,1.55-1.15,1.55Z" fill="#d5d8c7"/><path d="M576.63,74.92c1.12,0,3.07-1.68,1.12-1.68-1.12,0-3.07,1.68-1.12,1.68Z" fill="#d5d8c7"/><path d="M585.89,75c1.65,0,2.23-2.11.26-2.11-1.65,0-2.23,2.11-.26,2.11Z" fill="#d5d8c7"/><path d="M595.14,74.95c1.15,0,3.05-1.73,1.1-1.73-1.15,0-3.05,1.73-1.1,1.73Z" fill="#d5d8c7"/><path d="M603.8,74.61c1.15,0,3.05-1.73,1.1-1.73-1.15,0-3.05,1.73-1.1,1.73Z" fill="#d5d8c7"/><path d="M612.48,74.8c1.17,0,3-1.77,1.09-1.77-1.17,0-3,1.77-1.09,1.77Z" fill="#d5d8c7"/><path d="M621.8,74.42c1.12,0,3.07-1.69,1.11-1.69-1.12,0-3.07,1.69-1.11,1.69Z" fill="#d5d8c7"/><path d="M631,74.94c1.14,0,3.06-1.71,1.11-1.71-1.14,0-3.06,1.71-1.11,1.71Z" fill="#d5d8c7"/><path d="M127.83,74.57c1.19,0,3-1.8,1.08-1.8-1.19,0-3,1.8-1.08,1.8Z" fill="#d5d8c7"/><path d="M136.06,73.87c.6,0,3.27-1.16,1.89-1.16-.6,0-3.27,1.16-1.89,1.16Z" fill="#d5d8c7"/><path d="M145.73,74.39c1.29,0,3-1.95,1-1.95-1.29,0-3,1.95-1,1.95Z" fill="#d5d8c7"/><path d="M154.18,74.11c.59,0,3.27-1.14,1.89-1.14-.59,0-3.27,1.14-1.89,1.14Z" fill="#d5d8c7"/><path d="M163.53,74.23c.93,0,3.13-1.39,1.2-1.39-.93,0-3.13,1.39-1.2,1.39Z" fill="#d5d8c7"/><path d="M172.92,74.18c1,0,3.1-1.53,1.16-1.53-1,0-3.1,1.53-1.16,1.53Z" fill="#d5d8c7"/><path d="M181.18,74c.59,0,3.26-1.13,1.89-1.13-.59,0-3.26,1.13-1.89,1.13Z" fill="#d5d8c7"/><path d="M190.68,74.2c1,0,3.09-1.58,1.15-1.58-1,0-3.09,1.58-1.15,1.58Z" fill="#d5d8c7"/><path d="M199.35,74.36c1.26,0,3-1.9,1.06-1.9-1.26,0-3,1.9-1.06,1.9Z" fill="#d5d8c7"/><path d="M209,74.3c1.18,0,3-1.78,1.09-1.78-1.18,0-3,1.78-1.09,1.78Z" fill="#d5d8c7"/><path d="M217.66,74.24c.94,0,3.12-1.41,1.19-1.41-.94,0-3.12,1.41-1.19,1.41Z" fill="#d5d8c7"/><path d="M226.66,74.26c1,0,3.12-1.43,1.18-1.43-1,0-3.12,1.43-1.18,1.43Z" fill="#d5d8c7"/><path d="M235.82,74.51c1.12,0,3.07-1.68,1.12-1.68-1.12,0-3.07,1.68-1.12,1.68Z" fill="#d5d8c7"/><path d="M244.92,74.17c1,0,3.1-1.51,1.16-1.51-1,0-3.1,1.51-1.16,1.51Z" fill="#d5d8c7"/><path d="M254.11,74.41c1.61,0,2.26-2,.29-2-1.61,0-2.26,2-.29,2Z" fill="#d5d8c7"/><path d="M262.43,74.34c1.06,0,3.09-1.6,1.14-1.6-1.06,0-3.09,1.6-1.14,1.6Z" fill="#d5d8c7"/><path d="M272,74.64c1.68,0,2.2-2.2.24-2.2-1.68,0-2.2,2.2-.24,2.2Z" fill="#d5d8c7"/><path d="M118.35,2.54c1.26,0,3-1.91,1.06-1.91-1.26,0-3,1.91-1.06,1.91Z" fill="#d5d8c7"/><path d="M127.46,3c1,0,3.11-1.49,1.17-1.49-1,0-3.11,1.49-1.17,1.49Z" fill="#d5d8c7"/><path d="M136.75,3C138.41,3,139,.84,137,.84c-1.66,0-2.22,2.14-.25,2.14Z" fill="#d5d8c7"/><path d="M145.14,3.06c1.08,0,3.08-1.63,1.13-1.63-1.08,0-3.08,1.63-1.13,1.63Z" fill="#d5d8c7"/><path d="M155.26,3.17c1.68,0,2.2-2.19.24-2.19-1.68,0-2.2,2.19-.24,2.19Z" fill="#d5d8c7"/><path d="M162.43,2.49c.6,0,3.27-1.16,1.89-1.16-.6,0-3.27,1.16-1.89,1.16Z" fill="#d5d8c7"/><path d="M171.65,2.91c1.1,0,3.07-1.66,1.12-1.66-1.1,0-3.07,1.66-1.12,1.66Z" fill="#d5d8c7"/><path d="M180.94,2.5c.61,0,3.27-1.17,1.88-1.17-.61,0-3.27,1.17-1.88,1.17Z" fill="#d5d8c7"/><path d="M190.68,2.85c1.24,0,3-1.88,1.07-1.88-1.24,0-3,1.88-1.07,1.88Z" fill="#d5d8c7"/><path d="M199.28,2.93c.91,0,3.13-1.36,1.2-1.36-.91,0-3.13,1.36-1.2,1.36Z" fill="#d5d8c7"/><path d="M208.31,2.55c1.06,0,3.09-1.6,1.14-1.6-1.06,0-3.09,1.6-1.14,1.6Z" fill="#d5d8c7"/><path d="M217.73,2.91c1.61,0,2.26-2,.29-2-1.61,0-2.26,2-.29,2Z" fill="#d5d8c7"/><path d="M226.46,2.65c1,0,3.11-1.48,1.17-1.48-1,0-3.11,1.48-1.17,1.48Z" fill="#d5d8c7"/><path d="M235.75,3.15C237.41,3.15,238,1,236,1c-1.66,0-2.22,2.14-.25,2.14Z" fill="#d5d8c7"/><path d="M244.51,3.17c1.23,0,3-1.86,1.07-1.86-1.23,0-3,1.86-1.07,1.86Z" fill="#d5d8c7"/><path d="M253.43,3c1.69,0,2.2-2.21.23-2.21C252,.81,251.46,3,253.43,3Z" fill="#d5d8c7"/><path d="M261.61,2.87c.66,0,3.29-1.26,1.86-1.26-.66,0-3.29,1.26-1.86,1.26Z" fill="#d5d8c7"/><path d="M271.42,3.15c1.66,0,2.22-2.14.25-2.14-1.66,0-2.22,2.14-.25,2.14Z" fill="#d5d8c7"/><path d="M280.6,2.56c.86,0,3.14-1.28,1.22-1.28-.86,0-3.14,1.28-1.22,1.28Z" fill="#d5d8c7"/><path d="M289.77,3.37c1.7,0,2.18-2.25.22-2.25-1.7,0-2.18,2.25-.22,2.25Z" fill="#d5d8c7"/><path d="M298.35,3c1.26,0,3-1.9,1.06-1.9-1.26,0-3,1.9-1.06,1.9Z" fill="#d5d8c7"/><path d="M307.59,3.19c1.69,0,2.19-2.22.23-2.22-1.69,0-2.19,2.22-.23,2.22Z" fill="#d5d8c7"/><path d="M316.56,3.24c1.6,0,2.27-2,.29-2-1.6,0-2.27,2-.29,2Z" fill="#d5d8c7"/><path d="M325.26,2.64c.58,0,3.26-1.11,1.9-1.11-.58,0-3.26,1.11-1.9,1.11Z" fill="#d5d8c7"/><path d="M334.49,2.92c1.12,0,3.07-1.68,1.12-1.68-1.12,0-3.07,1.68-1.12,1.68Z" fill="#d5d8c7"/><path d="M343.1,2.81c.58,0,3.26-1.12,1.9-1.12-.58,0-3.26,1.12-1.9,1.12Z" fill="#d5d8c7"/><path d="M352.6,3.54c1.7,0,2.18-2.26.22-2.26-1.7,0-2.18,2.26-.22,2.26Z" fill="#d5d8c7"/><path d="M361.69,3.22c1.29,0,3-2,1-2-1.29,0-3,2-1,2Z" fill="#d5d8c7"/><path d="M370.27,2.83c.61,0,3.28-1.18,1.88-1.18-.61,0-3.28,1.18-1.88,1.18Z" fill="#d5d8c7"/><path d="M379.14,3c1.06,0,3.09-1.59,1.14-1.59-1.06,0-3.09,1.59-1.14,1.59Z" fill="#d5d8c7"/><path d="M388,3c1.2,0,3-1.82,1.08-1.82-1.2,0-3,1.82-1.08,1.82Z" fill="#d5d8c7"/><path d="M397.52,3.06c1.29,0,3-2,1-2-1.29,0-3,2-1,2Z" fill="#d5d8c7"/><path d="M406.3,3c1,0,3.1-1.55,1.15-1.55-1,0-3.1,1.55-1.15,1.55Z" fill="#d5d8c7"/><path d="M415.15,3.26c1.12,0,3.07-1.68,1.12-1.68-1.12,0-3.07,1.68-1.12,1.68Z" fill="#d5d8c7"/><path d="M424.41,3.3c1.65,0,2.23-2.11.26-2.11-1.65,0-2.23,2.11-.26,2.11Z" fill="#d5d8c7"/><path d="M433.66,3.28c1.15,0,3.05-1.73,1.1-1.73-1.15,0-3.05,1.73-1.1,1.73Z" fill="#d5d8c7"/><path d="M442.33,2.95c1.15,0,3.05-1.73,1.1-1.73-1.15,0-3.05,1.73-1.1,1.73Z" fill="#d5d8c7"/><path d="M451,3.13c1.17,0,3-1.77,1.09-1.77-1.17,0-3,1.77-1.09,1.77Z" fill="#d5d8c7"/><path d="M460.32,2.76c1.12,0,3.07-1.69,1.11-1.69-1.12,0-3.07,1.69-1.11,1.69Z" fill="#d5d8c7"/><path d="M469.49,3.27c1.14,0,3.06-1.71,1.11-1.71-1.14,0-3.06,1.71-1.11,1.71Z" fill="#d5d8c7"/><path d="M478.23,2.89c.91,0,3.13-1.37,1.2-1.37-.91,0-3.13,1.37-1.2,1.37Z" fill="#d5d8c7"/><path d="M487.54,3.23c1.19,0,3-1.8,1.08-1.8-1.19,0-3,1.8-1.08,1.8Z" fill="#d5d8c7"/><path d="M495.77,2.53c.6,0,3.27-1.16,1.89-1.16-.6,0-3.27,1.16-1.89,1.16Z" fill="#d5d8c7"/><path d="M505.44,3.05c1.29,0,3-1.95,1-1.95-1.29,0-3,1.95-1,1.95Z" fill="#d5d8c7"/><path d="M513.89,2.77c.59,0,3.27-1.14,1.89-1.14-.59,0-3.27,1.14-1.89,1.14Z" fill="#d5d8c7"/><path d="M523.24,2.9c.93,0,3.13-1.39,1.2-1.39-.93,0-3.13,1.39-1.2,1.39Z" fill="#d5d8c7"/><path d="M532.63,2.85c1,0,3.1-1.53,1.16-1.53-1,0-3.1,1.53-1.16,1.53Z" fill="#d5d8c7"/><path d="M540.89,2.65c.59,0,3.26-1.13,1.89-1.13-.59,0-3.26,1.13-1.89,1.13Z" fill="#d5d8c7"/><path d="M550.39,2.87c1,0,3.09-1.58,1.15-1.58-1,0-3.09,1.58-1.15,1.58Z" fill="#d5d8c7"/><path d="M559.06,3c1.26,0,3-1.9,1.06-1.9-1.26,0-3,1.9-1.06,1.9Z" fill="#d5d8c7"/><path d="M568.66,3c1.18,0,3-1.78,1.09-1.78-1.18,0-3,1.78-1.09,1.78Z" fill="#d5d8c7"/><path d="M577.37,2.91c.94,0,3.12-1.41,1.19-1.41-.94,0-3.12,1.41-1.19,1.41Z" fill="#d5d8c7"/><path d="M586.37,2.92c1,0,3.12-1.43,1.18-1.43-1,0-3.12,1.43-1.18,1.43Z" fill="#d5d8c7"/><path d="M595.53,3.17c1.12,0,3.07-1.68,1.12-1.68-1.12,0-3.07,1.68-1.12,1.68Z" fill="#d5d8c7"/><path d="M604.63,2.84c1,0,3.1-1.51,1.16-1.51-1,0-3.1,1.51-1.16,1.51Z" fill="#d5d8c7"/><path d="M613.82,3.08c1.61,0,2.26-2,.29-2-1.61,0-2.26,2-.29,2Z" fill="#d5d8c7"/><path d="M622.14,3c1.06,0,3.09-1.6,1.14-1.6-1.06,0-3.09,1.6-1.14,1.6Z" fill="#d5d8c7"/><path d="M631.72,3.31c1.68,0,2.2-2.2.24-2.2-1.68,0-2.2,2.2-.24,2.2Z" fill="#d5d8c7"/><path d="M117.85,74.37c1.26,0,3-1.91,1.06-1.91-1.26,0-3,1.91-1.06,1.91Z" fill="#d5d8c7"/><path d="M108.63,74.82c1,0,3.11-1.49,1.17-1.49-1,0-3.11,1.49-1.17,1.49Z" fill="#d5d8c7"/><path d="M100.25,74.82c1.66,0,2.22-2.14.25-2.14-1.66,0-2.22,2.14-.25,2.14Z" fill="#d5d8c7"/><path d="M91,74.89c1.08,0,3.08-1.63,1.13-1.63C91,73.27,89,74.89,91,74.89Z" fill="#d5d8c7"/><path d="M81.76,75c1.68,0,2.2-2.19.24-2.19-1.68,0-2.2,2.19-.24,2.19Z" fill="#d5d8c7"/><path d="M72.93,74.32c.6,0,3.27-1.16,1.89-1.16-.6,0-3.27,1.16-1.89,1.16Z" fill="#d5d8c7"/><path d="M64.48,74.74c1.1,0,3.07-1.66,1.12-1.66-1.1,0-3.07,1.66-1.12,1.66Z" fill="#d5d8c7"/><path d="M54.44,74.33c.61,0,3.27-1.17,1.88-1.17-.61,0-3.27,1.17-1.88,1.17Z" fill="#d5d8c7"/><path d="M45.51,74.68c1.24,0,3-1.88,1.07-1.88-1.24,0-3,1.88-1.07,1.88Z" fill="#d5d8c7"/><path d="M36.78,74.76c.91,0,3.13-1.36,1.2-1.36-.91,0-3.13,1.36-1.2,1.36Z" fill="#d5d8c7"/><path d="M27.81,74.38c1.06,0,3.09-1.6,1.14-1.6-1.06,0-3.09,1.6-1.14,1.6Z" fill="#d5d8c7"/><path d="M19.23,74.75c1.61,0,2.26-2,.29-2-1.61,0-2.26,2-.29,2Z" fill="#d5d8c7"/><path d="M9.62,74.48c1,0,3.11-1.48,1.17-1.48-1,0-3.11,1.48-1.17,1.48Z" fill="#d5d8c7"/><path d="M1.25,75c1.66,0,2.22-2.14.25-2.14C-.16,72.85-.72,75,1.25,75Z" fill="#d5d8c7"/><path d="M56.09,20.55c1.23,0,3-1.86,1.07-1.86-1.23,0-3,1.86-1.07,1.86Z" fill="#d5d8c7"/><path d="M38,57.39c1.69,0,2.2-2.21.23-2.21-1.69,0-2.2,2.21-.23,2.21Z" fill="#d5d8c7"/><path d="M28.2,57.25c.66,0,3.29-1.26,1.86-1.26-.66,0-3.29,1.26-1.86,1.26Z" fill="#d5d8c7"/><path d="M20,57.53c1.66,0,2.22-2.14.25-2.14-1.66,0-2.22,2.14-.25,2.14Z" fill="#d5d8c7"/><path d="M9.85,56.93c.86,0,3.14-1.28,1.22-1.28-.86,0-3.14,1.28-1.22,1.28Z" fill="#d5d8c7"/><path d="M1.68,57.75c1.7,0,2.18-2.25.22-2.25-1.7,0-2.18,2.25-.22,2.25Z" fill="#d5d8c7"/><path d="M90.41,1.91c1.26,0,3-1.91,1.06-1.91-1.26,0-3,1.91-1.06,1.91Z" fill="#d5d8c7"/><path d="M99.52,2.37c1,0,3.11-1.49,1.17-1.49-1,0-3.11,1.49-1.17,1.49Z" fill="#d5d8c7"/><path d="M109.81,2.36c1.66,0,2.22-2.14.25-2.14-1.66,0-2.22,2.14-.25,2.14Z" fill="#d5d8c7"/><path d="M18.76,20.38c.59,0,3.27-1.14,1.89-1.14-.59,0-3.27,1.14-1.89,1.14Z" fill="#d5d8c7"/><path d="M28.11,20.5c.93,0,3.13-1.39,1.2-1.39-.93,0-3.13,1.39-1.2,1.39Z" fill="#d5d8c7"/><path d="M37.51,20.45c1,0,3.1-1.53,1.16-1.53-1,0-3.1,1.53-1.16,1.53Z" fill="#d5d8c7"/><path d="M45.76,20.25c.59,0,3.26-1.13,1.89-1.13-.59,0-3.26,1.13-1.89,1.13Z" fill="#d5d8c7"/><path d="M1.26,1.91c1,0,3.09-1.58,1.15-1.58-1,0-3.09,1.58-1.15,1.58Z" fill="#d5d8c7"/><path d="M9.93,2.07c1.26,0,3-1.9,1.06-1.9-1.26,0-3,1.9-1.06,1.9Z" fill="#d5d8c7"/><path d="M19.54,2c1.18,0,3-1.78,1.09-1.78C19.45.23,17.59,2,19.54,2Z" fill="#d5d8c7"/><path d="M28.24,2C29.18,2,31.36.54,29.43.54,28.49.54,26.31,2,28.24,2Z" fill="#d5d8c7"/><path d="M37.24,2c1,0,3.12-1.43,1.18-1.43C37.47.53,35.31,2,37.24,2Z" fill="#d5d8c7"/><path d="M46.4,2.21c1.12,0,3.07-1.68,1.12-1.68-1.12,0-3.07,1.68-1.12,1.68Z" fill="#d5d8c7"/><path d="M55.5,1.88c1,0,3.1-1.51,1.16-1.51-1,0-3.1,1.51-1.16,1.51Z" fill="#d5d8c7"/><path d="M64.69,2.12c1.61,0,2.26-2,.29-2-1.61,0-2.26,2-.29,2Z" fill="#d5d8c7"/><path d="M73,2C74.08,2,76.1.45,74.15.45,73.09.45,71.07,2,73,2Z" fill="#d5d8c7"/><path d="M82.59,2.35c1.68,0,2.2-2.2.24-2.2-1.68,0-2.2,2.2-.24,2.2Z" fill="#d5d8c7"/><path d="M19.85,38.16c1.26,0,3-1.9,1.06-1.9-1.26,0-3,1.9-1.06,1.9Z" fill="#d5d8c7"/><path d="M10.21,38.09c1.18,0,3-1.78,1.09-1.78-1.18,0-3,1.78-1.09,1.78Z" fill="#d5d8c7"/><path d="M1.41,38c.94,0,3.12-1.41,1.19-1.41C1.65,36.62-.53,38,1.41,38Z" fill="#d5d8c7"/><path d="M10.21,20.38c1.12,0,3.07-1.68,1.12-1.68-1.12,0-3.07,1.68-1.12,1.68Z" fill="#d5d8c7"/><path d="M1.07,20c1,0,3.1-1.51,1.16-1.51-1,0-3.1,1.51-1.16,1.51Z" fill="#d5d8c7"/><path d="M630.93,20.37c1.26,0,3-1.91,1.06-1.91-1.26,0-3,1.91-1.06,1.91Z" fill="#d5d8c7"/><path d="M621.71,20.82c1,0,3.11-1.49,1.17-1.49-1,0-3.11,1.49-1.17,1.49Z" fill="#d5d8c7"/><path d="M613.33,20.82c1.66,0,2.22-2.14.25-2.14-1.66,0-2.22,2.14-.25,2.14Z" fill="#d5d8c7"/><path d="M604.06,20.89c1.08,0,3.08-1.63,1.13-1.63-1.08,0-3.08,1.63-1.13,1.63Z" fill="#d5d8c7"/><path d="M594.84,21c1.68,0,2.2-2.19.24-2.19-1.68,0-2.2,2.19-.24,2.19Z" fill="#d5d8c7"/><path d="M586,20.32c.6,0,3.27-1.16,1.89-1.16-.6,0-3.27,1.16-1.89,1.16Z" fill="#d5d8c7"/><path d="M631.31,39.31c1.24,0,3-1.88,1.07-1.88-1.24,0-3,1.88-1.07,1.88Z" fill="#d5d8c7"/><path d="M622.58,39.39c.91,0,3.13-1.36,1.2-1.36-.91,0-3.13,1.36-1.2,1.36Z" fill="#d5d8c7"/><path d="M613.61,39c1.06,0,3.09-1.6,1.14-1.6-1.06,0-3.09,1.6-1.14,1.6Z" fill="#d5d8c7"/><path d="M605,39.37c1.61,0,2.26-2,.29-2-1.61,0-2.26,2-.29,2Z" fill="#d5d8c7"/><path d="M595.43,39.11c1,0,3.11-1.48,1.17-1.48-1,0-3.11,1.48-1.17,1.48Z" fill="#d5d8c7"/><path d="M587.05,39.61c1.66,0,2.22-2.14.25-2.14-1.66,0-2.22,2.14-.25,2.14Z" fill="#d5d8c7"/><path d="M577.48,39.63c1.23,0,3-1.86,1.07-1.86-1.23,0-3,1.86-1.07,1.86Z" fill="#d5d8c7"/><path d="M569.4,39.48c1.69,0,2.2-2.21.23-2.21-1.69,0-2.2,2.21-.23,2.21Z" fill="#d5d8c7"/><path d="M559.58,39.33c.66,0,3.29-1.26,1.86-1.26-.66,0-3.29,1.26-1.86,1.26Z" fill="#d5d8c7"/><path d="M551.39,39.61c1.66,0,2.22-2.14.25-2.14-1.66,0-2.22,2.14-.25,2.14Z" fill="#d5d8c7"/><path d="M569.21,56.91c1.6,0,2.27-2,.29-2-1.6,0-2.27,2-.29,2Z" fill="#d5d8c7"/><path d="M577.91,56.3c.58,0,3.26-1.11,1.9-1.11-.58,0-3.26,1.11-1.9,1.11Z" fill="#d5d8c7"/><path d="M587.13,56.59c1.12,0,3.07-1.68,1.12-1.68-1.12,0-3.07,1.68-1.12,1.68Z" fill="#d5d8c7"/><path d="M595.74,56.48c.58,0,3.26-1.12,1.9-1.12-.58,0-3.26,1.12-1.9,1.12Z" fill="#d5d8c7"/><path d="M605.25,57.21c1.7,0,2.18-2.26.22-2.26-1.7,0-2.18,2.26-.22,2.26Z" fill="#d5d8c7"/><path d="M614.33,56.89c1.29,0,3-2,1-2-1.29,0-3,2-1,2Z" fill="#d5d8c7"/><path d="M622.92,56.5c.61,0,3.28-1.18,1.88-1.18-.61,0-3.28,1.18-1.88,1.18Z" fill="#d5d8c7"/><path d="M631.79,56.71c1.06,0,3.09-1.59,1.14-1.59-1.06,0-3.09,1.59-1.14,1.59Z" fill="#d5d8c7"/><path d="M568.56,110.2c1.26,0,3-1.91,1.06-1.91-1.26,0-3,1.91-1.06,1.91Z" fill="#d5d8c7"/><path d="M559.33,110.66c1,0,3.11-1.49,1.17-1.49-1,0-3.11,1.49-1.17,1.49Z" fill="#d5d8c7"/><path d="M551,110.65c1.66,0,2.22-2.14.25-2.14-1.66,0-2.22,2.14-.25,2.14Z" fill="#d5d8c7"/><path d="M541.69,110.73c1.08,0,3.08-1.63,1.13-1.63-1.08,0-3.08,1.63-1.13,1.63Z" fill="#d5d8c7"/><path d="M532.47,110.84c1.68,0,2.2-2.19.24-2.19-1.68,0-2.2,2.19-.24,2.19Z" fill="#d5d8c7"/><path d="M523.64,110.16c.6,0,3.27-1.16,1.89-1.16-.6,0-3.27,1.16-1.89,1.16Z" fill="#d5d8c7"/><path d="M515.19,110.58c1.1,0,3.07-1.66,1.12-1.66-1.1,0-3.07,1.66-1.12,1.66Z" fill="#d5d8c7"/><path d="M505.14,110.16c.61,0,3.27-1.17,1.88-1.17-.61,0-3.27,1.17-1.88,1.17Z" fill="#d5d8c7"/><path d="M496.22,110.52c1.24,0,3-1.88,1.07-1.88-1.24,0-3,1.88-1.07,1.88Z" fill="#d5d8c7"/><path d="M487.48,110.6c.91,0,3.13-1.36,1.2-1.36-.91,0-3.13,1.36-1.2,1.36Z" fill="#d5d8c7"/><path d="M478.52,110.21c1.06,0,3.09-1.6,1.14-1.6-1.06,0-3.09,1.6-1.14,1.6Z" fill="#d5d8c7"/><path d="M469.94,110.58c1.61,0,2.26-2,.29-2-1.61,0-2.26,2-.29,2Z" fill="#d5d8c7"/><path d="M460.33,110.32c1,0,3.11-1.48,1.17-1.48-1,0-3.11,1.48-1.17,1.48Z" fill="#d5d8c7"/><path d="M452,110.81c1.66,0,2.22-2.14.25-2.14-1.66,0-2.22,2.14-.25,2.14Z" fill="#d5d8c7"/><path d="M442.38,110.84c1.23,0,3-1.86,1.07-1.86-1.23,0-3,1.86-1.07,1.86Z" fill="#d5d8c7"/><path d="M434.3,110.68c1.69,0,2.2-2.21.23-2.21-1.69,0-2.2,2.21-.23,2.21Z" fill="#d5d8c7"/><path d="M424.49,110.54c.66,0,3.29-1.26,1.86-1.26-.66,0-3.29,1.26-1.86,1.26Z" fill="#d5d8c7"/><path d="M416.29,110.82c1.66,0,2.22-2.14.25-2.14-1.66,0-2.22,2.14-.25,2.14Z" fill="#d5d8c7"/><path d="M406.14,110.22c.86,0,3.14-1.28,1.22-1.28-.86,0-3.14,1.28-1.22,1.28Z" fill="#d5d8c7"/><path d="M398,111c1.7,0,2.18-2.25.22-2.25-1.7,0-2.18,2.25-.22,2.25Z" fill="#d5d8c7"/><path d="M388.56,110.7c1.26,0,3-1.9,1.06-1.9-1.26,0-3,1.9-1.06,1.9Z" fill="#d5d8c7"/><path d="M380.14,110.86c1.69,0,2.19-2.22.23-2.22-1.69,0-2.19,2.22-.23,2.22Z" fill="#d5d8c7"/><path d="M371.1,110.91c1.6,0,2.27-2,.29-2-1.6,0-2.27,2-.29,2Z" fill="#d5d8c7"/><path d="M360.8,110.3c.58,0,3.26-1.11,1.9-1.11-.58,0-3.26,1.11-1.9,1.11Z" fill="#d5d8c7"/><path d="M352.36,110.59c1.12,0,3.07-1.68,1.12-1.68-1.12,0-3.07,1.68-1.12,1.68Z" fill="#d5d8c7"/><path d="M343,110.48c.58,0,3.26-1.12,1.9-1.12-.58,0-3.26,1.12-1.9,1.12Z" fill="#d5d8c7"/><path d="M335.14,111.21c1.7,0,2.18-2.26.22-2.26-1.7,0-2.18,2.26-.22,2.26Z" fill="#d5d8c7"/><path d="M325.23,110.89c1.29,0,3-2,1-2-1.29,0-3,2-1,2Z" fill="#d5d8c7"/><path d="M315.81,110.5c.61,0,3.28-1.18,1.88-1.18-.61,0-3.28,1.18-1.88,1.18Z" fill="#d5d8c7"/><path d="M307.68,110.71c1.06,0,3.09-1.59,1.14-1.59-1.06,0-3.09,1.59-1.14,1.59Z" fill="#d5d8c7"/><path d="M298.88,110.66c1.2,0,3-1.82,1.08-1.82-1.2,0-3,1.82-1.08,1.82Z" fill="#d5d8c7"/><path d="M289.4,110.72c1.29,0,3-2,1-2-1.29,0-3,2-1,2Z" fill="#d5d8c7"/><path d="M280.51,110.69c1,0,3.1-1.55,1.15-1.55-1,0-3.1,1.55-1.15,1.55Z" fill="#d5d8c7"/><path d="M271.69,110.92c1.12,0,3.07-1.68,1.12-1.68-1.12,0-3.07,1.68-1.12,1.68Z" fill="#d5d8c7"/><path d="M263.29,111c1.65,0,2.23-2.11.26-2.11-1.65,0-2.23,2.11-.26,2.11Z" fill="#d5d8c7"/><path d="M253.2,110.95c1.15,0,3.05-1.73,1.1-1.73-1.15,0-3.05,1.73-1.1,1.73Z" fill="#d5d8c7"/><path d="M244.53,110.61c1.15,0,3.05-1.73,1.1-1.73-1.15,0-3.05,1.73-1.1,1.73Z" fill="#d5d8c7"/><path d="M235.87,110.8c1.17,0,3-1.77,1.09-1.77-1.17,0-3,1.77-1.09,1.77Z" fill="#d5d8c7"/><path d="M226.53,110.42c1.12,0,3.07-1.69,1.11-1.69-1.12,0-3.07,1.69-1.11,1.69Z" fill="#d5d8c7"/><path d="M217.36,110.94c1.14,0,3.06-1.71,1.11-1.71-1.14,0-3.06,1.71-1.11,1.71Z" fill="#d5d8c7"/><path d="M208.53,110.56c.91,0,3.13-1.37,1.2-1.37-.91,0-3.13,1.37-1.2,1.37Z" fill="#d5d8c7"/><path d="M199.33,110.9c1.19,0,3-1.8,1.08-1.8-1.19,0-3,1.8-1.08,1.8Z" fill="#d5d8c7"/><path d="M190.31,110.2c.6,0,3.27-1.16,1.89-1.16-.6,0-3.27,1.16-1.89,1.16Z" fill="#d5d8c7"/><path d="M181.48,110.72c1.29,0,3-1.95,1-1.95-1.29,0-3,1.95-1,1.95Z" fill="#d5d8c7"/><path d="M172.18,110.44c.59,0,3.27-1.14,1.89-1.14-.59,0-3.27,1.14-1.89,1.14Z" fill="#d5d8c7"/><path d="M163.53,110.57c.93,0,3.13-1.39,1.2-1.39-.93,0-3.13,1.39-1.2,1.39Z" fill="#d5d8c7"/><path d="M154.17,110.51c1,0,3.1-1.53,1.16-1.53-1,0-3.1,1.53-1.16,1.53Z" fill="#d5d8c7"/><path d="M145.18,110.31c.59,0,3.26-1.13,1.89-1.13-.59,0-3.26,1.13-1.89,1.13Z" fill="#d5d8c7"/><path d="M136.43,110.54c1,0,3.09-1.58,1.15-1.58-1,0-3.09,1.58-1.15,1.58Z" fill="#d5d8c7"/><path d="M127.85,110.7c1.26,0,3-1.9,1.06-1.9-1.26,0-3,1.9-1.06,1.9Z" fill="#d5d8c7"/><path d="M118.21,110.64c1.18,0,3-1.78,1.09-1.78-1.18,0-3,1.78-1.09,1.78Z" fill="#d5d8c7"/><path d="M109.41,110.58c.94,0,3.12-1.41,1.19-1.41-.94,0-3.12,1.41-1.19,1.41Z" fill="#d5d8c7"/><path d="M100.41,110.59c1,0,3.12-1.43,1.18-1.43-1,0-3.12,1.43-1.18,1.43Z" fill="#d5d8c7"/><path d="M91.32,110.84c1.12,0,3.07-1.68,1.12-1.68-1.12,0-3.07,1.68-1.12,1.68Z" fill="#d5d8c7"/><path d="M82.17,110.5c1,0,3.1-1.51,1.16-1.51-1,0-3.1,1.51-1.16,1.51Z" fill="#d5d8c7"/><path d="M73.86,110.75c1.61,0,2.26-2,.29-2-1.61,0-2.26,2-.29,2Z" fill="#d5d8c7"/><path d="M64.68,110.67c1.06,0,3.09-1.6,1.14-1.6-1.06,0-3.09,1.6-1.14,1.6Z" fill="#d5d8c7"/><path d="M56,111c1.68,0,2.2-2.2.24-2.2-1.68,0-2.2,2.2-.24,2.2Z" fill="#d5d8c7"/><path d="M514.31,92.54c1.26,0,3-1.91,1.06-1.91-1.26,0-3,1.91-1.06,1.91Z" fill="#d5d8c7"/><path d="M505.08,93c1,0,3.11-1.49,1.17-1.49-1,0-3.11,1.49-1.17,1.49Z" fill="#d5d8c7"/><path d="M496.71,93c1.66,0,2.22-2.14.25-2.14-1.66,0-2.22,2.14-.25,2.14Z" fill="#d5d8c7"/><path d="M487.44,93.06c1.08,0,3.08-1.63,1.13-1.63-1.08,0-3.08,1.63-1.13,1.63Z" fill="#d5d8c7"/><path d="M478.22,93.17c1.68,0,2.2-2.19.24-2.19-1.68,0-2.2,2.19-.24,2.19Z" fill="#d5d8c7"/><path d="M469.39,92.49c.6,0,3.27-1.16,1.89-1.16-.6,0-3.27,1.16-1.89,1.16Z" fill="#d5d8c7"/><path d="M460.94,92.91c1.1,0,3.07-1.66,1.12-1.66-1.1,0-3.07,1.66-1.12,1.66Z" fill="#d5d8c7"/><path d="M450.89,92.5c.61,0,3.27-1.17,1.88-1.17-.61,0-3.27,1.17-1.88,1.17Z" fill="#d5d8c7"/><path d="M442,92.85c1.24,0,3-1.88,1.07-1.88-1.24,0-3,1.88-1.07,1.88Z" fill="#d5d8c7"/><path d="M433.23,92.93c.91,0,3.13-1.36,1.2-1.36-.91,0-3.13,1.36-1.2,1.36Z" fill="#d5d8c7"/><path d="M424.27,92.55c1.06,0,3.09-1.6,1.14-1.6-1.06,0-3.09,1.6-1.14,1.6Z" fill="#d5d8c7"/><path d="M415.69,92.91c1.61,0,2.26-2,.29-2-1.61,0-2.26,2-.29,2Z" fill="#d5d8c7"/><path d="M406.08,92.65c1,0,3.11-1.48,1.17-1.48-1,0-3.11,1.48-1.17,1.48Z" fill="#d5d8c7"/><path d="M397.71,93.15c1.66,0,2.22-2.14.25-2.14-1.66,0-2.22,2.14-.25,2.14Z" fill="#d5d8c7"/><path d="M388.13,93.17c1.23,0,3-1.86,1.07-1.86-1.23,0-3,1.86-1.07,1.86Z" fill="#d5d8c7"/><path d="M380.05,93c1.69,0,2.2-2.21.23-2.21-1.69,0-2.2,2.21-.23,2.21Z" fill="#d5d8c7"/><path d="M370.24,92.87c.66,0,3.29-1.26,1.86-1.26-.66,0-3.29,1.26-1.86,1.26Z" fill="#d5d8c7"/><path d="M362,93.15c1.66,0,2.22-2.14.25-2.14-1.66,0-2.22,2.14-.25,2.14Z" fill="#d5d8c7"/><path d="M351.89,92.56c.86,0,3.14-1.28,1.22-1.28-.86,0-3.14,1.28-1.22,1.28Z" fill="#d5d8c7"/><path d="M343.72,93.37c1.7,0,2.18-2.25.22-2.25-1.7,0-2.18,2.25-.22,2.25Z" fill="#d5d8c7"/><path d="M334.31,93c1.26,0,3-1.9,1.06-1.9-1.26,0-3,1.9-1.06,1.9Z" fill="#d5d8c7"/><path d="M325.89,93.19c1.69,0,2.19-2.22.23-2.22-1.69,0-2.19,2.22-.23,2.22Z" fill="#d5d8c7"/><path d="M316.85,93.24c1.6,0,2.27-2,.29-2-1.6,0-2.27,2-.29,2Z" fill="#d5d8c7"/><path d="M306.55,92.64c.58,0,3.26-1.11,1.9-1.11-.58,0-3.26,1.11-1.9,1.11Z" fill="#d5d8c7"/><path d="M298.11,92.92c1.12,0,3.07-1.68,1.12-1.68-1.12,0-3.07,1.68-1.12,1.68Z" fill="#d5d8c7"/><path d="M288.72,92.81c.58,0,3.26-1.12,1.9-1.12-.58,0-3.26,1.12-1.9,1.12Z" fill="#d5d8c7"/><path d="M280.89,93.54c1.7,0,2.18-2.26.22-2.26-1.7,0-2.18,2.26-.22,2.26Z" fill="#d5d8c7"/><path d="M271,93.22c1.29,0,3-2,1-2-1.29,0-3,2-1,2Z" fill="#d5d8c7"/><path d="M261.56,92.83c.61,0,3.28-1.18,1.88-1.18-.61,0-3.28,1.18-1.88,1.18Z" fill="#d5d8c7"/><path d="M253.43,93c1.06,0,3.09-1.59,1.14-1.59-1.06,0-3.09,1.59-1.14,1.59Z" fill="#d5d8c7"/><path d="M244.63,93c1.2,0,3-1.82,1.08-1.82-1.2,0-3,1.82-1.08,1.82Z" fill="#d5d8c7"/><path d="M235.15,93.06c1.29,0,3-2,1-2-1.29,0-3,2-1,2Z" fill="#d5d8c7"/><path d="M226.26,93c1,0,3.1-1.55,1.15-1.55-1,0-3.1,1.55-1.15,1.55Z" fill="#d5d8c7"/><path d="M217.44,93.26c1.12,0,3.07-1.68,1.12-1.68-1.12,0-3.07,1.68-1.12,1.68Z" fill="#d5d8c7"/><path d="M209,93.3c1.65,0,2.23-2.11.26-2.11-1.65,0-2.23,2.11-.26,2.11Z" fill="#d5d8c7"/><path d="M199,93.28c1.15,0,3.05-1.73,1.1-1.73-1.15,0-3.05,1.73-1.1,1.73Z" fill="#d5d8c7"/><path d="M190.28,92.95c1.15,0,3.05-1.73,1.1-1.73-1.15,0-3.05,1.73-1.1,1.73Z" fill="#d5d8c7"/><path d="M181.62,93.13c1.17,0,3-1.77,1.09-1.77-1.17,0-3,1.77-1.09,1.77Z" fill="#d5d8c7"/><path d="M172.28,92.76c1.12,0,3.07-1.69,1.11-1.69-1.12,0-3.07,1.69-1.11,1.69Z" fill="#d5d8c7"/><path d="M163.11,93.27c1.14,0,3.06-1.71,1.11-1.71-1.14,0-3.06,1.71-1.11,1.71Z" fill="#d5d8c7"/><path d="M154.28,92.89c.91,0,3.13-1.37,1.2-1.37-.91,0-3.13,1.37-1.2,1.37Z" fill="#d5d8c7"/><path d="M145.08,93.23c1.19,0,3-1.8,1.08-1.8-1.19,0-3,1.8-1.08,1.8Z" fill="#d5d8c7"/><path d="M136.06,92.53c.6,0,3.27-1.16,1.89-1.16-.6,0-3.27,1.16-1.89,1.16Z" fill="#d5d8c7"/><path d="M127.23,93.05c1.29,0,3-1.95,1-1.95-1.29,0-3,1.95-1,1.95Z" fill="#d5d8c7"/><path d="M117.93,92.77c.59,0,3.27-1.14,1.89-1.14-.59,0-3.27,1.14-1.89,1.14Z" fill="#d5d8c7"/><path d="M109.28,92.9c.93,0,3.13-1.39,1.2-1.39-.93,0-3.13,1.39-1.2,1.39Z" fill="#d5d8c7"/><path d="M99.92,92.85c1,0,3.1-1.53,1.16-1.53-1,0-3.1,1.53-1.16,1.53Z" fill="#d5d8c7"/><path d="M90.93,92.65c.59,0,3.26-1.13,1.89-1.13-.59,0-3.26,1.13-1.89,1.13Z" fill="#d5d8c7"/><path d="M82.18,92.87c1,0,3.09-1.58,1.15-1.58-1,0-3.09,1.58-1.15,1.58Z" fill="#d5d8c7"/><path d="M73.6,93c1.26,0,3-1.9,1.06-1.9-1.26,0-3,1.9-1.06,1.9Z" fill="#d5d8c7"/><path d="M64,93c1.18,0,3-1.78,1.09-1.78C63.87,91.19,62,93,64,93Z" fill="#d5d8c7"/><path d="M55.16,92.91c.94,0,3.12-1.41,1.19-1.41-.94,0-3.12,1.41-1.19,1.41Z" fill="#d5d8c7"/><path d="M46.16,92.92c1,0,3.12-1.43,1.18-1.43-1,0-3.12,1.43-1.18,1.43Z" fill="#d5d8c7"/><path d="M37.07,93.17c1.12,0,3.07-1.68,1.12-1.68-1.12,0-3.07,1.68-1.12,1.68Z" fill="#d5d8c7"/><path d="M27.92,92.84c1,0,3.1-1.51,1.16-1.51-1,0-3.1,1.51-1.16,1.51Z" fill="#d5d8c7"/><path d="M19.61,93.08c1.61,0,2.26-2,.29-2-1.61,0-2.26,2-.29,2Z" fill="#d5d8c7"/><path d="M10.43,93c1.06,0,3.09-1.6,1.14-1.6-1.06,0-3.09,1.6-1.14,1.6Z" fill="#d5d8c7"/><path d="M1.76,93.31c1.68,0,2.2-2.2.24-2.2-1.68,0-2.2,2.2-.24,2.2Z" fill="#d5d8c7"/><path d="M576.55,110.55c1.23,0,3-1.86,1.07-1.86-1.23,0-3,1.86-1.07,1.86Z" fill="#d5d8c7"/><path d="M542.24,91.91c1.26,0,3-1.91,1.06-1.91-1.26,0-3,1.91-1.06,1.91Z" fill="#d5d8c7"/><path d="M533,92.37c1,0,3.11-1.49,1.17-1.49-1,0-3.11,1.49-1.17,1.49Z" fill="#d5d8c7"/><path d="M523.65,92.36c1.66,0,2.22-2.14.25-2.14-1.66,0-2.22,2.14-.25,2.14Z" fill="#d5d8c7"/><path d="M613.06,110.38c.59,0,3.27-1.14,1.89-1.14-.59,0-3.27,1.14-1.89,1.14Z" fill="#d5d8c7"/><path d="M604.4,110.5c.93,0,3.13-1.39,1.2-1.39-.93,0-3.13,1.39-1.2,1.39Z" fill="#d5d8c7"/><path d="M595,110.45c1,0,3.1-1.53,1.16-1.53-1,0-3.1,1.53-1.16,1.53Z" fill="#d5d8c7"/><path d="M586.06,110.25c.59,0,3.26-1.13,1.89-1.13-.59,0-3.26,1.13-1.89,1.13Z" fill="#d5d8c7"/><path d="M631.3,91.91c1,0,3.09-1.58,1.15-1.58-1,0-3.09,1.58-1.15,1.58Z" fill="#d5d8c7"/><path d="M622.72,92.07c1.26,0,3-1.9,1.06-1.9-1.26,0-3,1.9-1.06,1.9Z" fill="#d5d8c7"/><path d="M613.08,92c1.18,0,3-1.78,1.09-1.78-1.18,0-3,1.78-1.09,1.78Z" fill="#d5d8c7"/><path d="M604.28,92c.94,0,3.12-1.41,1.19-1.41-.94,0-3.12,1.41-1.19,1.41Z" fill="#d5d8c7"/><path d="M595.29,92c1,0,3.12-1.43,1.18-1.43-1,0-3.12,1.43-1.18,1.43Z" fill="#d5d8c7"/><path d="M586.19,92.21c1.12,0,3.07-1.68,1.12-1.68-1.12,0-3.07,1.68-1.12,1.68Z" fill="#d5d8c7"/><path d="M577,91.88c1,0,3.1-1.51,1.16-1.51-1,0-3.1,1.51-1.16,1.51Z" fill="#d5d8c7"/><path d="M568.73,92.12c1.61,0,2.26-2,.29-2-1.61,0-2.26,2-.29,2Z" fill="#d5d8c7"/><path d="M559.56,92c1.06,0,3.09-1.6,1.14-1.6-1.06,0-3.09,1.6-1.14,1.6Z" fill="#d5d8c7"/><path d="M550.88,92.35c1.68,0,2.2-2.2.24-2.2-1.68,0-2.2,2.2-.24,2.2Z" fill="#d5d8c7"/><path d="M622.38,110.38c1.12,0,3.07-1.68,1.12-1.68-1.12,0-3.07,1.68-1.12,1.68Z" fill="#d5d8c7"/><path d="M631.48,110c1,0,3.1-1.51,1.16-1.51-1,0-3.1,1.51-1.16,1.51Z" fill="#d5d8c7"/><path d="M1.72,110.37c1.26,0,3-1.91,1.06-1.91-1.26,0-3,1.91-1.06,1.91Z" fill="#d5d8c7"/><path d="M10.83,110.82c1,0,3.11-1.49,1.17-1.49-1,0-3.11,1.49-1.17,1.49Z" fill="#d5d8c7"/><path d="M20.13,110.82c1.66,0,2.22-2.14.25-2.14-1.66,0-2.22,2.14-.25,2.14Z" fill="#d5d8c7"/><path d="M28.52,110.89c1.08,0,3.08-1.63,1.13-1.63-1.08,0-3.08,1.63-1.13,1.63Z" fill="#d5d8c7"/><path d="M38.63,111c1.68,0,2.2-2.19.24-2.19-1.68,0-2.2,2.19-.24,2.19Z" fill="#d5d8c7"/><path d="M45.81,110.32c.6,0,3.27-1.16,1.89-1.16-.6,0-3.27,1.16-1.89,1.16Z" fill="#d5d8c7"/><path d="M569.42,145.83c1.26,0,3-1.91,1.06-1.91-1.26,0-3,1.91-1.06,1.91Z" fill="#d5d8c7"/><path d="M560.2,146.28c1,0,3.11-1.49,1.17-1.49-1,0-3.11,1.49-1.17,1.49Z" fill="#d5d8c7"/><path d="M551.82,146.27c1.66,0,2.22-2.14.25-2.14-1.66,0-2.22,2.14-.25,2.14Z" fill="#d5d8c7"/><path d="M542.55,146.35c1.08,0,3.08-1.63,1.13-1.63-1.08,0-3.08,1.63-1.13,1.63Z" fill="#d5d8c7"/><path d="M533.33,146.47c1.68,0,2.2-2.19.24-2.19-1.68,0-2.2,2.19-.24,2.19Z" fill="#d5d8c7"/><path d="M524.51,145.78c.6,0,3.27-1.16,1.89-1.16-.6,0-3.27,1.16-1.89,1.16Z" fill="#d5d8c7"/><path d="M516.05,146.2c1.1,0,3.07-1.66,1.12-1.66-1.1,0-3.07,1.66-1.12,1.66Z" fill="#d5d8c7"/><path d="M506,145.79c.61,0,3.27-1.17,1.88-1.17-.61,0-3.27,1.17-1.88,1.17Z" fill="#d5d8c7"/><path d="M497.08,146.14c1.24,0,3-1.88,1.07-1.88-1.24,0-3,1.88-1.07,1.88Z" fill="#d5d8c7"/><path d="M488.35,146.22c.91,0,3.13-1.36,1.2-1.36-.91,0-3.13,1.36-1.2,1.36Z" fill="#d5d8c7"/><path d="M479.38,145.84c1.06,0,3.09-1.6,1.14-1.6-1.06,0-3.09,1.6-1.14,1.6Z" fill="#d5d8c7"/><path d="M470.81,146.21c1.61,0,2.26-2,.29-2-1.61,0-2.26,2-.29,2Z" fill="#d5d8c7"/><path d="M461.2,145.94c1,0,3.11-1.48,1.17-1.48-1,0-3.11,1.48-1.17,1.48Z" fill="#d5d8c7"/><path d="M452.82,146.44c1.66,0,2.22-2.14.25-2.14-1.66,0-2.22,2.14-.25,2.14Z" fill="#d5d8c7"/><path d="M443.25,146.47c1.23,0,3-1.86,1.07-1.86-1.23,0-3,1.86-1.07,1.86Z" fill="#d5d8c7"/><path d="M435.17,146.31c1.69,0,2.2-2.21.23-2.21-1.69,0-2.2,2.21-.23,2.21Z" fill="#d5d8c7"/><path d="M425.35,146.17c.66,0,3.29-1.26,1.86-1.26-.66,0-3.29,1.26-1.86,1.26Z" fill="#d5d8c7"/><path d="M417.16,146.44c1.66,0,2.22-2.14.25-2.14-1.66,0-2.22,2.14-.25,2.14Z" fill="#d5d8c7"/><path d="M407,145.85c.86,0,3.14-1.28,1.22-1.28-.86,0-3.14,1.28-1.22,1.28Z" fill="#d5d8c7"/><path d="M398.84,146.66c1.7,0,2.18-2.25.22-2.25-1.7,0-2.18,2.25-.22,2.25Z" fill="#d5d8c7"/><path d="M389.42,146.32c1.26,0,3-1.9,1.06-1.9-1.26,0-3,1.9-1.06,1.9Z" fill="#d5d8c7"/><path d="M381,146.48c1.69,0,2.19-2.22.23-2.22-1.69,0-2.19,2.22-.23,2.22Z" fill="#d5d8c7"/><path d="M372,146.53c1.6,0,2.27-2,.29-2-1.6,0-2.27,2-.29,2Z" fill="#d5d8c7"/><path d="M361.67,145.93c.58,0,3.26-1.11,1.9-1.11-.58,0-3.26,1.11-1.9,1.11Z" fill="#d5d8c7"/><path d="M353.22,146.21c1.12,0,3.07-1.68,1.12-1.68-1.12,0-3.07,1.68-1.12,1.68Z" fill="#d5d8c7"/><path d="M343.84,146.1c.58,0,3.26-1.12,1.9-1.12-.58,0-3.26,1.12-1.9,1.12Z" fill="#d5d8c7"/><path d="M336,146.83c1.7,0,2.18-2.26.22-2.26-1.7,0-2.18,2.26-.22,2.26Z" fill="#d5d8c7"/><path d="M326.09,146.51c1.29,0,3-2,1-2-1.29,0-3,2-1,2Z" fill="#d5d8c7"/><path d="M316.68,146.13c.61,0,3.28-1.18,1.88-1.18-.61,0-3.28,1.18-1.88,1.18Z" fill="#d5d8c7"/><path d="M308.55,146.33c1.06,0,3.09-1.59,1.14-1.59-1.06,0-3.09,1.59-1.14,1.59Z" fill="#d5d8c7"/><path d="M299.74,146.28c1.2,0,3-1.82,1.08-1.82-1.2,0-3,1.82-1.08,1.82Z" fill="#d5d8c7"/><path d="M290.26,146.35c1.29,0,3-2,1-2-1.29,0-3,2-1,2Z" fill="#d5d8c7"/><path d="M281.37,146.31c1,0,3.1-1.55,1.15-1.55-1,0-3.1,1.55-1.15,1.55Z" fill="#d5d8c7"/><path d="M272.56,146.55c1.12,0,3.07-1.68,1.12-1.68-1.12,0-3.07,1.68-1.12,1.68Z" fill="#d5d8c7"/><path d="M264.15,146.59c1.65,0,2.23-2.11.26-2.11-1.65,0-2.23,2.11-.26,2.11Z" fill="#d5d8c7"/><path d="M254.07,146.57c1.15,0,3.05-1.73,1.1-1.73-1.15,0-3.05,1.73-1.1,1.73Z" fill="#d5d8c7"/><path d="M245.4,146.24c1.15,0,3.05-1.73,1.1-1.73-1.15,0-3.05,1.73-1.1,1.73Z" fill="#d5d8c7"/><path d="M236.74,146.42c1.17,0,3-1.77,1.09-1.77-1.17,0-3,1.77-1.09,1.77Z" fill="#d5d8c7"/><path d="M227.39,146c1.12,0,3.07-1.69,1.11-1.69-1.12,0-3.07,1.69-1.11,1.69Z" fill="#d5d8c7"/><path d="M218.23,146.56c1.14,0,3.06-1.71,1.11-1.71-1.14,0-3.06,1.71-1.11,1.71Z" fill="#d5d8c7"/><path d="M209.39,146.18c.91,0,3.13-1.37,1.2-1.37-.91,0-3.13,1.37-1.2,1.37Z" fill="#d5d8c7"/><path d="M200.2,146.52c1.19,0,3-1.8,1.08-1.8-1.19,0-3,1.8-1.08,1.8Z" fill="#d5d8c7"/><path d="M191.17,145.82c.6,0,3.27-1.16,1.89-1.16-.6,0-3.27,1.16-1.89,1.16Z" fill="#d5d8c7"/><path d="M182.34,146.34c1.29,0,3-1.95,1-1.95-1.29,0-3,1.95-1,1.95Z" fill="#d5d8c7"/><path d="M173,146.07c.59,0,3.27-1.14,1.89-1.14-.59,0-3.27,1.14-1.89,1.14Z" fill="#d5d8c7"/><path d="M164.39,146.19c.93,0,3.13-1.39,1.2-1.39-.93,0-3.13,1.39-1.2,1.39Z" fill="#d5d8c7"/><path d="M155,146.14c1,0,3.1-1.53,1.16-1.53-1,0-3.1,1.53-1.16,1.53Z" fill="#d5d8c7"/><path d="M146,145.94c.59,0,3.26-1.13,1.89-1.13-.59,0-3.26,1.13-1.89,1.13Z" fill="#d5d8c7"/><path d="M137.29,146.16c1,0,3.09-1.58,1.15-1.58-1,0-3.09,1.58-1.15,1.58Z" fill="#d5d8c7"/><path d="M128.71,146.32c1.26,0,3-1.9,1.06-1.9-1.26,0-3,1.9-1.06,1.9Z" fill="#d5d8c7"/><path d="M119.07,146.26c1.18,0,3-1.78,1.09-1.78-1.18,0-3,1.78-1.09,1.78Z" fill="#d5d8c7"/><path d="M110.27,146.2c.94,0,3.12-1.41,1.19-1.41-.94,0-3.12,1.41-1.19,1.41Z" fill="#d5d8c7"/><path d="M101.27,146.21c1,0,3.12-1.43,1.18-1.43-1,0-3.12,1.43-1.18,1.43Z" fill="#d5d8c7"/><path d="M92.18,146.46c1.12,0,3.07-1.68,1.12-1.68-1.12,0-3.07,1.68-1.12,1.68Z" fill="#d5d8c7"/><path d="M83,146.13c1,0,3.1-1.51,1.16-1.51-1,0-3.1,1.51-1.16,1.51Z" fill="#d5d8c7"/><path d="M74.72,146.37c1.61,0,2.26-2,.29-2-1.61,0-2.26,2-.29,2Z" fill="#d5d8c7"/><path d="M65.55,146.3c1.06,0,3.09-1.6,1.14-1.6-1.06,0-3.09,1.6-1.14,1.6Z" fill="#d5d8c7"/><path d="M56.87,146.6c1.68,0,2.2-2.2.24-2.2-1.68,0-2.2,2.2-.24,2.2Z" fill="#d5d8c7"/><path d="M605,163.91c1.26,0,3-1.91,1.06-1.91-1.26,0-3,1.91-1.06,1.91Z" fill="#d5d8c7"/><path d="M595.78,164.37c1,0,3.11-1.49,1.17-1.49-1,0-3.11,1.49-1.17,1.49Z" fill="#d5d8c7"/><path d="M587.41,164.36c1.66,0,2.22-2.14.25-2.14-1.66,0-2.22,2.14-.25,2.14Z" fill="#d5d8c7"/><path d="M578.13,164.44c1.08,0,3.08-1.63,1.13-1.63-1.08,0-3.08,1.63-1.13,1.63Z" fill="#d5d8c7"/><path d="M568.91,164.55c1.68,0,2.2-2.19.24-2.19-1.68,0-2.2,2.19-.24,2.19Z" fill="#d5d8c7"/><path d="M560.09,163.87c.6,0,3.27-1.16,1.89-1.16-.6,0-3.27,1.16-1.89,1.16Z" fill="#d5d8c7"/><path d="M551.64,164.28c1.1,0,3.07-1.66,1.12-1.66-1.1,0-3.07,1.66-1.12,1.66Z" fill="#d5d8c7"/><path d="M541.59,163.87c.61,0,3.27-1.17,1.88-1.17-.61,0-3.27,1.17-1.88,1.17Z" fill="#d5d8c7"/><path d="M532.67,164.23c1.24,0,3-1.88,1.07-1.88-1.24,0-3,1.88-1.07,1.88Z" fill="#d5d8c7"/><path d="M523.93,164.3c.91,0,3.13-1.36,1.2-1.36-.91,0-3.13,1.36-1.2,1.36Z" fill="#d5d8c7"/><path d="M515,163.92c1.06,0,3.09-1.6,1.14-1.6-1.06,0-3.09,1.6-1.14,1.6Z" fill="#d5d8c7"/><path d="M506.39,164.29c1.61,0,2.26-2,.29-2-1.61,0-2.26,2-.29,2Z" fill="#d5d8c7"/><path d="M496.78,164c1,0,3.11-1.48,1.17-1.48-1,0-3.11,1.48-1.17,1.48Z" fill="#d5d8c7"/><path d="M488.41,164.52c1.66,0,2.22-2.14.25-2.14-1.66,0-2.22,2.14-.25,2.14Z" fill="#d5d8c7"/><path d="M478.83,164.55c1.23,0,3-1.86,1.07-1.86-1.23,0-3,1.86-1.07,1.86Z" fill="#d5d8c7"/><path d="M470.75,164.39c1.69,0,2.2-2.21.23-2.21-1.69,0-2.2,2.21-.23,2.21Z" fill="#d5d8c7"/><path d="M460.94,164.25c.66,0,3.29-1.26,1.86-1.26-.66,0-3.29,1.26-1.86,1.26Z" fill="#d5d8c7"/><path d="M452.74,164.53c1.66,0,2.22-2.14.25-2.14-1.66,0-2.22,2.14-.25,2.14Z" fill="#d5d8c7"/><path d="M442.59,163.93c.86,0,3.14-1.28,1.22-1.28-.86,0-3.14,1.28-1.22,1.28Z" fill="#d5d8c7"/><path d="M434.42,164.75c1.7,0,2.18-2.25.22-2.25-1.7,0-2.18,2.25-.22,2.25Z" fill="#d5d8c7"/><path d="M425,164.4c1.26,0,3-1.9,1.06-1.9-1.26,0-3,1.9-1.06,1.9Z" fill="#d5d8c7"/><path d="M416.58,164.57c1.69,0,2.19-2.22.23-2.22-1.69,0-2.19,2.22-.23,2.22Z" fill="#d5d8c7"/><path d="M407.55,164.61c1.6,0,2.27-2,.29-2-1.6,0-2.27,2-.29,2Z" fill="#d5d8c7"/><path d="M397.25,164c.58,0,3.26-1.11,1.9-1.11-.58,0-3.26,1.11-1.9,1.11Z" fill="#d5d8c7"/><path d="M388.81,164.3c1.12,0,3.07-1.68,1.12-1.68-1.12,0-3.07,1.68-1.12,1.68Z" fill="#d5d8c7"/><path d="M379.42,164.18c.58,0,3.26-1.12,1.9-1.12-.58,0-3.26,1.12-1.9,1.12Z" fill="#d5d8c7"/><path d="M371.59,164.92c1.7,0,2.18-2.26.22-2.26-1.7,0-2.18,2.26-.22,2.26Z" fill="#d5d8c7"/><path d="M361.68,164.6c1.29,0,3-2,1-2-1.29,0-3,2-1,2Z" fill="#d5d8c7"/><path d="M352.26,164.21c.61,0,3.28-1.18,1.88-1.18-.61,0-3.28,1.18-1.88,1.18Z" fill="#d5d8c7"/><path d="M344.13,164.42c1.06,0,3.09-1.59,1.14-1.59-1.06,0-3.09,1.59-1.14,1.59Z" fill="#d5d8c7"/><path d="M335.33,164.36c1.2,0,3-1.82,1.08-1.82-1.2,0-3,1.82-1.08,1.82Z" fill="#d5d8c7"/><path d="M325.84,164.43c1.29,0,3-2,1-2-1.29,0-3,2-1,2Z" fill="#d5d8c7"/><path d="M317,164.4c1,0,3.1-1.55,1.15-1.55-1,0-3.1,1.55-1.15,1.55Z" fill="#d5d8c7"/><path d="M308.14,164.63c1.12,0,3.07-1.68,1.12-1.68-1.12,0-3.07,1.68-1.12,1.68Z" fill="#d5d8c7"/><path d="M299.74,164.68c1.65,0,2.23-2.11.26-2.11-1.65,0-2.23,2.11-.26,2.11Z" fill="#d5d8c7"/><path d="M289.65,164.66c1.15,0,3.05-1.73,1.1-1.73-1.15,0-3.05,1.73-1.1,1.73Z" fill="#d5d8c7"/><path d="M281,164.32c1.15,0,3.05-1.73,1.1-1.73-1.15,0-3.05,1.73-1.1,1.73Z" fill="#d5d8c7"/><path d="M272.32,164.51c1.17,0,3-1.77,1.09-1.77-1.17,0-3,1.77-1.09,1.77Z" fill="#d5d8c7"/><path d="M263,164.13c1.12,0,3.07-1.69,1.11-1.69-1.12,0-3.07,1.69-1.11,1.69Z" fill="#d5d8c7"/><path d="M253.81,164.65c1.14,0,3.06-1.71,1.11-1.71-1.14,0-3.06,1.71-1.11,1.71Z" fill="#d5d8c7"/><path d="M245,164.26c.91,0,3.13-1.37,1.2-1.37-.91,0-3.13,1.37-1.2,1.37Z" fill="#d5d8c7"/><path d="M235.78,164.61c1.19,0,3-1.8,1.08-1.8-1.19,0-3,1.8-1.08,1.8Z" fill="#d5d8c7"/><path d="M226.76,163.91c.6,0,3.27-1.16,1.89-1.16-.6,0-3.27,1.16-1.89,1.16Z" fill="#d5d8c7"/><path d="M217.93,164.43c1.29,0,3-1.95,1-1.95-1.29,0-3,1.95-1,1.95Z" fill="#d5d8c7"/><path d="M208.63,164.15c.59,0,3.27-1.14,1.89-1.14-.59,0-3.27,1.14-1.89,1.14Z" fill="#d5d8c7"/><path d="M200,164.27c.93,0,3.13-1.39,1.2-1.39-.93,0-3.13,1.39-1.2,1.39Z" fill="#d5d8c7"/><path d="M190.62,164.22c1,0,3.1-1.53,1.16-1.53-1,0-3.1,1.53-1.16,1.53Z" fill="#d5d8c7"/><path d="M181.63,164c.59,0,3.26-1.13,1.89-1.13-.59,0-3.26,1.13-1.89,1.13Z" fill="#d5d8c7"/><path d="M172.88,164.24c1,0,3.09-1.58,1.15-1.58-1,0-3.09,1.58-1.15,1.58Z" fill="#d5d8c7"/><path d="M164.3,164.41c1.26,0,3-1.9,1.06-1.9-1.26,0-3,1.9-1.06,1.9Z" fill="#d5d8c7"/><path d="M154.65,164.34c1.18,0,3-1.78,1.09-1.78-1.18,0-3,1.78-1.09,1.78Z" fill="#d5d8c7"/><path d="M145.86,164.29c.94,0,3.12-1.41,1.19-1.41-.94,0-3.12,1.41-1.19,1.41Z" fill="#d5d8c7"/><path d="M136.86,164.3c1,0,3.12-1.43,1.18-1.43-1,0-3.12,1.43-1.18,1.43Z" fill="#d5d8c7"/><path d="M127.77,164.55c1.12,0,3.07-1.68,1.12-1.68-1.12,0-3.07,1.68-1.12,1.68Z" fill="#d5d8c7"/><path d="M118.62,164.21c1,0,3.1-1.51,1.16-1.51-1,0-3.1,1.51-1.16,1.51Z" fill="#d5d8c7"/><path d="M110.31,164.46c1.61,0,2.26-2,.29-2-1.61,0-2.26,2-.29,2Z" fill="#d5d8c7"/><path d="M101.13,164.38c1.06,0,3.09-1.6,1.14-1.6-1.06,0-3.09,1.6-1.14,1.6Z" fill="#d5d8c7"/><path d="M92.46,164.68c1.68,0,2.2-2.2.24-2.2-1.68,0-2.2,2.2-.24,2.2Z" fill="#d5d8c7"/><path d="M74.63,181.83c1.26,0,3-1.91,1.06-1.91-1.26,0-3,1.91-1.06,1.91Z" fill="#d5d8c7"/><path d="M83.74,182.28c1,0,3.11-1.49,1.17-1.49-1,0-3.11,1.49-1.17,1.49Z" fill="#d5d8c7"/><path d="M93,182.27c1.66,0,2.22-2.14.25-2.14-1.66,0-2.22,2.14-.25,2.14Z" fill="#d5d8c7"/><path d="M101.43,182.35c1.08,0,3.08-1.63,1.13-1.63-1.08,0-3.08,1.63-1.13,1.63Z" fill="#d5d8c7"/><path d="M111.54,182.47c1.68,0,2.2-2.19.24-2.19-1.68,0-2.2,2.19-.24,2.19Z" fill="#d5d8c7"/><path d="M118.71,181.78c.6,0,3.27-1.16,1.89-1.16-.6,0-3.27,1.16-1.89,1.16Z" fill="#d5d8c7"/><path d="M127.93,182.2c1.1,0,3.07-1.66,1.12-1.66-1.1,0-3.07,1.66-1.12,1.66Z" fill="#d5d8c7"/><path d="M137.22,181.79c.61,0,3.27-1.17,1.88-1.17-.61,0-3.27,1.17-1.88,1.17Z" fill="#d5d8c7"/><path d="M147,182.14c1.24,0,3-1.88,1.07-1.88-1.24,0-3,1.88-1.07,1.88Z" fill="#d5d8c7"/><path d="M155.56,182.22c.91,0,3.13-1.36,1.2-1.36-.91,0-3.13,1.36-1.2,1.36Z" fill="#d5d8c7"/><path d="M164.59,181.84c1.06,0,3.09-1.6,1.14-1.6-1.06,0-3.09,1.6-1.14,1.6Z" fill="#d5d8c7"/><path d="M174,182.21c1.61,0,2.26-2,.29-2-1.61,0-2.26,2-.29,2Z" fill="#d5d8c7"/><path d="M182.74,181.94c1,0,3.11-1.48,1.17-1.48-1,0-3.11,1.48-1.17,1.48Z" fill="#d5d8c7"/><path d="M192,182.44c1.66,0,2.22-2.14.25-2.14-1.66,0-2.22,2.14-.25,2.14Z" fill="#d5d8c7"/><path d="M200.79,182.47c1.23,0,3-1.86,1.07-1.86-1.23,0-3,1.86-1.07,1.86Z" fill="#d5d8c7"/><path d="M209.71,182.31c1.69,0,2.2-2.21.23-2.21-1.69,0-2.2,2.21-.23,2.21Z" fill="#d5d8c7"/><path d="M217.89,182.17c.66,0,3.29-1.26,1.86-1.26-.66,0-3.29,1.26-1.86,1.26Z" fill="#d5d8c7"/><path d="M227.7,182.44c1.66,0,2.22-2.14.25-2.14-1.66,0-2.22,2.14-.25,2.14Z" fill="#d5d8c7"/><path d="M236.88,181.85c.86,0,3.14-1.28,1.22-1.28-.86,0-3.14,1.28-1.22,1.28Z" fill="#d5d8c7"/><path d="M246,182.66c1.7,0,2.18-2.25.22-2.25-1.7,0-2.18,2.25-.22,2.25Z" fill="#d5d8c7"/><path d="M254.63,182.32c1.26,0,3-1.9,1.06-1.9-1.26,0-3,1.9-1.06,1.9Z" fill="#d5d8c7"/><path d="M263.88,182.48c1.69,0,2.19-2.22.23-2.22-1.69,0-2.19,2.22-.23,2.22Z" fill="#d5d8c7"/><path d="M272.84,182.53c1.6,0,2.27-2,.29-2-1.6,0-2.27,2-.29,2Z" fill="#d5d8c7"/><path d="M281.54,181.93c.58,0,3.26-1.11,1.9-1.11-.58,0-3.26,1.11-1.9,1.11Z" fill="#d5d8c7"/><path d="M290.77,182.21c1.12,0,3.07-1.68,1.12-1.68-1.12,0-3.07,1.68-1.12,1.68Z" fill="#d5d8c7"/><path d="M299.38,182.1c.58,0,3.26-1.12,1.9-1.12-.58,0-3.26,1.12-1.9,1.12Z" fill="#d5d8c7"/><path d="M308.88,182.83c1.7,0,2.18-2.26.22-2.26-1.7,0-2.18,2.26-.22,2.26Z" fill="#d5d8c7"/><path d="M318,182.51c1.29,0,3-2,1-2-1.29,0-3,2-1,2Z" fill="#d5d8c7"/><path d="M326.55,182.13c.61,0,3.28-1.18,1.88-1.18-.61,0-3.28,1.18-1.88,1.18Z" fill="#d5d8c7"/><path d="M335.42,182.33c1.06,0,3.09-1.59,1.14-1.59-1.06,0-3.09,1.59-1.14,1.59Z" fill="#d5d8c7"/><path d="M344.28,182.28c1.2,0,3-1.82,1.08-1.82-1.2,0-3,1.82-1.08,1.82Z" fill="#d5d8c7"/><path d="M353.8,182.35c1.29,0,3-2,1-2-1.29,0-3,2-1,2Z" fill="#d5d8c7"/><path d="M362.58,182.31c1,0,3.1-1.55,1.15-1.55-1,0-3.1,1.55-1.15,1.55Z" fill="#d5d8c7"/><path d="M371.43,182.55c1.12,0,3.07-1.68,1.12-1.68-1.12,0-3.07,1.68-1.12,1.68Z" fill="#d5d8c7"/><path d="M380.69,182.59c1.65,0,2.23-2.11.26-2.11-1.65,0-2.23,2.11-.26,2.11Z" fill="#d5d8c7"/><path d="M389.94,182.57c1.15,0,3.05-1.73,1.1-1.73-1.15,0-3.05,1.73-1.1,1.73Z" fill="#d5d8c7"/><path d="M398.61,182.24c1.15,0,3.05-1.73,1.1-1.73-1.15,0-3.05,1.73-1.1,1.73Z" fill="#d5d8c7"/><path d="M407.28,182.42c1.17,0,3-1.77,1.09-1.77-1.17,0-3,1.77-1.09,1.77Z" fill="#d5d8c7"/><path d="M416.6,182c1.12,0,3.07-1.69,1.11-1.69-1.12,0-3.07,1.69-1.11,1.69Z" fill="#d5d8c7"/><path d="M425.77,182.56c1.14,0,3.06-1.71,1.11-1.71-1.14,0-3.06,1.71-1.11,1.71Z" fill="#d5d8c7"/><path d="M434.52,182.18c.91,0,3.13-1.37,1.2-1.37-.91,0-3.13,1.37-1.2,1.37Z" fill="#d5d8c7"/><path d="M443.82,182.52c1.19,0,3-1.8,1.08-1.8-1.19,0-3,1.8-1.08,1.8Z" fill="#d5d8c7"/><path d="M452,181.82c.6,0,3.27-1.16,1.89-1.16-.6,0-3.27,1.16-1.89,1.16Z" fill="#d5d8c7"/><path d="M461.72,182.34c1.29,0,3-1.95,1-1.95-1.29,0-3,1.95-1,1.95Z" fill="#d5d8c7"/><path d="M470.17,182.07c.59,0,3.27-1.14,1.89-1.14-.59,0-3.27,1.14-1.89,1.14Z" fill="#d5d8c7"/><path d="M479.52,182.19c.93,0,3.13-1.39,1.2-1.39-.93,0-3.13,1.39-1.2,1.39Z" fill="#d5d8c7"/><path d="M488.91,182.14c1,0,3.1-1.53,1.16-1.53-1,0-3.1,1.53-1.16,1.53Z" fill="#d5d8c7"/><path d="M497.17,181.94c.59,0,3.26-1.13,1.89-1.13-.59,0-3.26,1.13-1.89,1.13Z" fill="#d5d8c7"/><path d="M506.67,182.16c1,0,3.09-1.58,1.15-1.58-1,0-3.09,1.58-1.15,1.58Z" fill="#d5d8c7"/><path d="M515.34,182.32c1.26,0,3-1.9,1.06-1.9-1.26,0-3,1.9-1.06,1.9Z" fill="#d5d8c7"/><path d="M524.95,182.26c1.18,0,3-1.78,1.09-1.78-1.18,0-3,1.78-1.09,1.78Z" fill="#d5d8c7"/><path d="M533.65,182.2c.94,0,3.12-1.41,1.19-1.41-.94,0-3.12,1.41-1.19,1.41Z" fill="#d5d8c7"/><path d="M542.65,182.21c1,0,3.12-1.43,1.18-1.43-1,0-3.12,1.43-1.18,1.43Z" fill="#d5d8c7"/><path d="M551.81,182.46c1.12,0,3.07-1.68,1.12-1.68-1.12,0-3.07,1.68-1.12,1.68Z" fill="#d5d8c7"/><path d="M560.91,182.13c1,0,3.1-1.51,1.16-1.51-1,0-3.1,1.51-1.16,1.51Z" fill="#d5d8c7"/><path d="M570.1,182.37c1.61,0,2.26-2,.29-2-1.61,0-2.26,2-.29,2Z" fill="#d5d8c7"/><path d="M578.42,182.3c1.06,0,3.09-1.6,1.14-1.6-1.06,0-3.09,1.6-1.14,1.6Z" fill="#d5d8c7"/><path d="M588,182.6c1.68,0,2.2-2.2.24-2.2-1.68,0-2.2,2.2-.24,2.2Z" fill="#d5d8c7"/><path d="M353.69,199.83c1.26,0,3-1.91,1.06-1.91-1.26,0-3,1.91-1.06,1.91Z" fill="#d5d8c7"/><path d="M344.47,200.28c1,0,3.11-1.49,1.17-1.49-1,0-3.11,1.49-1.17,1.49Z" fill="#d5d8c7"/><path d="M336.09,200.27c1.66,0,2.22-2.14.25-2.14-1.66,0-2.22,2.14-.25,2.14Z" fill="#d5d8c7"/><path d="M326.82,200.35c1.08,0,3.08-1.63,1.13-1.63-1.08,0-3.08,1.63-1.13,1.63Z" fill="#d5d8c7"/><path d="M317.6,200.47c1.68,0,2.2-2.19.24-2.19-1.68,0-2.2,2.19-.24,2.19Z" fill="#d5d8c7"/><path d="M308.78,199.78c.6,0,3.27-1.16,1.89-1.16-.6,0-3.27,1.16-1.89,1.16Z" fill="#d5d8c7"/><path d="M300.33,200.2c1.1,0,3.07-1.66,1.12-1.66-1.1,0-3.07,1.66-1.12,1.66Z" fill="#d5d8c7"/><path d="M290.28,199.79c.61,0,3.27-1.17,1.88-1.17-.61,0-3.27,1.17-1.88,1.17Z" fill="#d5d8c7"/><path d="M281.35,200.14c1.24,0,3-1.88,1.07-1.88-1.24,0-3,1.88-1.07,1.88Z" fill="#d5d8c7"/><path d="M272.62,200.22c.91,0,3.13-1.36,1.2-1.36-.91,0-3.13,1.36-1.2,1.36Z" fill="#d5d8c7"/><path d="M263.65,199.84c1.06,0,3.09-1.6,1.14-1.6-1.06,0-3.09,1.6-1.14,1.6Z" fill="#d5d8c7"/><path d="M255.08,200.21c1.61,0,2.26-2,.29-2-1.61,0-2.26,2-.29,2Z" fill="#d5d8c7"/><path d="M245.47,199.94c1,0,3.11-1.48,1.17-1.48-1,0-3.11,1.48-1.17,1.48Z" fill="#d5d8c7"/><path d="M237.09,200.44c1.66,0,2.22-2.14.25-2.14-1.66,0-2.22,2.14-.25,2.14Z" fill="#d5d8c7"/><path d="M227.52,200.47c1.23,0,3-1.86,1.07-1.86-1.23,0-3,1.86-1.07,1.86Z" fill="#d5d8c7"/><path d="M219.44,200.31c1.69,0,2.2-2.21.23-2.21-1.69,0-2.2,2.21-.23,2.21Z" fill="#d5d8c7"/><path d="M209.62,200.17c.66,0,3.29-1.26,1.86-1.26-.66,0-3.29,1.26-1.86,1.26Z" fill="#d5d8c7"/><path d="M201.43,200.44c1.66,0,2.22-2.14.25-2.14-1.66,0-2.22,2.14-.25,2.14Z" fill="#d5d8c7"/><path d="M191.28,199.85c.86,0,3.14-1.28,1.22-1.28-.86,0-3.14,1.28-1.22,1.28Z" fill="#d5d8c7"/><path d="M183.11,200.66c1.7,0,2.18-2.25.22-2.25-1.7,0-2.18,2.25-.22,2.25Z" fill="#d5d8c7"/><path d="M173.69,200.32c1.26,0,3-1.9,1.06-1.9-1.26,0-3,1.9-1.06,1.9Z" fill="#d5d8c7"/><path d="M165.27,200.48c1.69,0,2.19-2.22.23-2.22-1.69,0-2.19,2.22-.23,2.22Z" fill="#d5d8c7"/><path d="M156.24,200.53c1.6,0,2.27-2,.29-2-1.6,0-2.27,2-.29,2Z" fill="#d5d8c7"/><path d="M145.94,199.93c.58,0,3.26-1.11,1.9-1.11-.58,0-3.26,1.11-1.9,1.11Z" fill="#d5d8c7"/><path d="M137.5,200.21c1.12,0,3.07-1.68,1.12-1.68-1.12,0-3.07,1.68-1.12,1.68Z" fill="#d5d8c7"/><path d="M128.11,200.1c.58,0,3.26-1.12,1.9-1.12-.58,0-3.26,1.12-1.9,1.12Z" fill="#d5d8c7"/><path d="M120.28,200.83c1.7,0,2.18-2.26.22-2.26-1.7,0-2.18,2.26-.22,2.26Z" fill="#d5d8c7"/><path d="M110.36,200.51c1.29,0,3-2,1-2-1.29,0-3,2-1,2Z" fill="#d5d8c7"/><path d="M100.95,200.13c.61,0,3.28-1.18,1.88-1.18-.61,0-3.28,1.18-1.88,1.18Z" fill="#d5d8c7"/><path d="M92.82,200.33c1.06,0,3.09-1.59,1.14-1.59-1.06,0-3.09,1.59-1.14,1.59Z" fill="#d5d8c7"/><path d="M84,200.28c1.2,0,3-1.82,1.08-1.82-1.2,0-3,1.82-1.08,1.82Z" fill="#d5d8c7"/><path d="M74.53,200.35c1.29,0,3-2,1-2-1.29,0-3,2-1,2Z" fill="#d5d8c7"/><path d="M65.64,200.31c1,0,3.1-1.55,1.15-1.55-1,0-3.1,1.55-1.15,1.55Z" fill="#d5d8c7"/><path d="M56.83,200.55c1.12,0,3.07-1.68,1.12-1.68-1.12,0-3.07,1.68-1.12,1.68Z" fill="#d5d8c7"/><path d="M48.42,200.59c1.65,0,2.23-2.11.26-2.11-1.65,0-2.23,2.11-.26,2.11Z" fill="#d5d8c7"/><path d="M38.34,200.57c1.15,0,3.05-1.73,1.1-1.73-1.15,0-3.05,1.73-1.1,1.73Z" fill="#d5d8c7"/><path d="M29.67,200.24c1.15,0,3.05-1.73,1.1-1.73-1.15,0-3.05,1.73-1.1,1.73Z" fill="#d5d8c7"/><path d="M21,200.42c1.17,0,3-1.77,1.09-1.77-1.17,0-3,1.77-1.09,1.77Z" fill="#d5d8c7"/><path d="M11.66,200c1.12,0,3.07-1.69,1.11-1.69-1.12,0-3.07,1.69-1.11,1.69Z" fill="#d5d8c7"/><path d="M2.5,200.56c1.14,0,3.06-1.71,1.11-1.71-1.14,0-3.06,1.71-1.11,1.71Z" fill="#d5d8c7"/><path d="M505.66,200.19c1.19,0,3-1.8,1.08-1.8-1.19,0-3,1.8-1.08,1.8Z" fill="#d5d8c7"/><path d="M496.63,199.49c.6,0,3.27-1.16,1.89-1.16-.6,0-3.27,1.16-1.89,1.16Z" fill="#d5d8c7"/><path d="M487.8,200c1.29,0,3-1.95,1-1.95-1.29,0-3,1.95-1,1.95Z" fill="#d5d8c7"/><path d="M478.5,199.73c.59,0,3.27-1.14,1.89-1.14-.59,0-3.27,1.14-1.89,1.14Z" fill="#d5d8c7"/><path d="M469.85,199.86c.93,0,3.13-1.39,1.2-1.39-.93,0-3.13,1.39-1.2,1.39Z" fill="#d5d8c7"/><path d="M460.5,199.8c1,0,3.1-1.53,1.16-1.53-1,0-3.1,1.53-1.16,1.53Z" fill="#d5d8c7"/><path d="M451.5,199.6c.59,0,3.26-1.13,1.89-1.13-.59,0-3.26,1.13-1.89,1.13Z" fill="#d5d8c7"/><path d="M442.75,199.83c1,0,3.09-1.58,1.15-1.58-1,0-3.09,1.58-1.15,1.58Z" fill="#d5d8c7"/><path d="M434.17,200c1.26,0,3-1.9,1.06-1.9-1.26,0-3,1.9-1.06,1.9Z" fill="#d5d8c7"/><path d="M424.53,199.93c1.18,0,3-1.78,1.09-1.78-1.18,0-3,1.78-1.09,1.78Z" fill="#d5d8c7"/><path d="M415.73,199.87c.94,0,3.12-1.41,1.19-1.41-.94,0-3.12,1.41-1.19,1.41Z" fill="#d5d8c7"/><path d="M406.73,199.88c1,0,3.12-1.43,1.18-1.43-1,0-3.12,1.43-1.18,1.43Z" fill="#d5d8c7"/><path d="M397.64,200.13c1.12,0,3.07-1.68,1.12-1.68-1.12,0-3.07,1.68-1.12,1.68Z" fill="#d5d8c7"/><path d="M388.49,199.8c1,0,3.1-1.51,1.16-1.51-1,0-3.1,1.51-1.16,1.51Z" fill="#d5d8c7"/><path d="M380.18,200c1.61,0,2.26-2,.29-2-1.61,0-2.26,2-.29,2Z" fill="#d5d8c7"/><path d="M371,200c1.06,0,3.09-1.6,1.14-1.6-1.06,0-3.09,1.6-1.14,1.6Z" fill="#d5d8c7"/><path d="M362.33,200.26c1.68,0,2.2-2.2.24-2.2-1.68,0-2.2,2.2-.24,2.2Z" fill="#d5d8c7"/><path d="M515.17,128.16c1.26,0,3-1.91,1.06-1.91-1.26,0-3,1.91-1.06,1.91Z" fill="#d5d8c7"/><path d="M505.95,128.62c1,0,3.11-1.49,1.17-1.49-1,0-3.11,1.49-1.17,1.49Z" fill="#d5d8c7"/><path d="M497.57,128.61c1.66,0,2.22-2.14.25-2.14-1.66,0-2.22,2.14-.25,2.14Z" fill="#d5d8c7"/><path d="M488.3,128.69c1.08,0,3.08-1.63,1.13-1.63-1.08,0-3.08,1.63-1.13,1.63Z" fill="#d5d8c7"/><path d="M479.08,128.8c1.68,0,2.2-2.19.24-2.19-1.68,0-2.2,2.19-.24,2.19Z" fill="#d5d8c7"/><path d="M470.26,128.12c.6,0,3.27-1.16,1.89-1.16-.6,0-3.27,1.16-1.89,1.16Z" fill="#d5d8c7"/><path d="M461.8,128.53c1.1,0,3.07-1.66,1.12-1.66-1.1,0-3.07,1.66-1.12,1.66Z" fill="#d5d8c7"/><path d="M451.76,128.12c.61,0,3.27-1.17,1.88-1.17-.61,0-3.27,1.17-1.88,1.17Z" fill="#d5d8c7"/><path d="M442.83,128.48c1.24,0,3-1.88,1.07-1.88-1.24,0-3,1.88-1.07,1.88Z" fill="#d5d8c7"/><path d="M434.1,128.55c.91,0,3.13-1.36,1.2-1.36-.91,0-3.13,1.36-1.2,1.36Z" fill="#d5d8c7"/><path d="M425.13,128.17c1.06,0,3.09-1.6,1.14-1.6-1.06,0-3.09,1.6-1.14,1.6Z" fill="#d5d8c7"/><path d="M416.56,128.54c1.61,0,2.26-2,.29-2-1.61,0-2.26,2-.29,2Z" fill="#d5d8c7"/><path d="M406.95,128.28c1,0,3.11-1.48,1.17-1.48-1,0-3.11,1.48-1.17,1.48Z" fill="#d5d8c7"/><path d="M398.57,128.77c1.66,0,2.22-2.14.25-2.14-1.66,0-2.22,2.14-.25,2.14Z" fill="#d5d8c7"/><path d="M389,128.8c1.23,0,3-1.86,1.07-1.86-1.23,0-3,1.86-1.07,1.86Z" fill="#d5d8c7"/><path d="M380.92,128.64c1.69,0,2.2-2.21.23-2.21-1.69,0-2.2,2.21-.23,2.21Z" fill="#d5d8c7"/><path d="M371.1,128.5c.66,0,3.29-1.26,1.86-1.26-.66,0-3.29,1.26-1.86,1.26Z" fill="#d5d8c7"/><path d="M362.91,128.78c1.66,0,2.22-2.14.25-2.14-1.66,0-2.22,2.14-.25,2.14Z" fill="#d5d8c7"/><path d="M352.75,128.18c.86,0,3.14-1.28,1.22-1.28-.86,0-3.14,1.28-1.22,1.28Z" fill="#d5d8c7"/><path d="M344.59,129c1.7,0,2.18-2.25.22-2.25-1.7,0-2.18,2.25-.22,2.25Z" fill="#d5d8c7"/><path d="M335.17,128.65c1.26,0,3-1.9,1.06-1.9-1.26,0-3,1.9-1.06,1.9Z" fill="#d5d8c7"/><path d="M326.75,128.82c1.69,0,2.19-2.22.23-2.22-1.69,0-2.19,2.22-.23,2.22Z" fill="#d5d8c7"/><path d="M317.72,128.86c1.6,0,2.27-2,.29-2-1.6,0-2.27,2-.29,2Z" fill="#d5d8c7"/><path d="M307.42,128.26c.58,0,3.26-1.11,1.9-1.11-.58,0-3.26,1.11-1.9,1.11Z" fill="#d5d8c7"/><path d="M299,128.55c1.12,0,3.07-1.68,1.12-1.68-1.12,0-3.07,1.68-1.12,1.68Z" fill="#d5d8c7"/><path d="M289.59,128.43c.58,0,3.26-1.12,1.9-1.12-.58,0-3.26,1.12-1.9,1.12Z" fill="#d5d8c7"/><path d="M281.76,129.17c1.7,0,2.18-2.26.22-2.26-1.7,0-2.18,2.26-.22,2.26Z" fill="#d5d8c7"/><path d="M271.84,128.85c1.29,0,3-2,1-2-1.29,0-3,2-1,2Z" fill="#d5d8c7"/><path d="M262.43,128.46c.61,0,3.28-1.18,1.88-1.18-.61,0-3.28,1.18-1.88,1.18Z" fill="#d5d8c7"/><path d="M254.3,128.67c1.06,0,3.09-1.59,1.14-1.59-1.06,0-3.09,1.59-1.14,1.59Z" fill="#d5d8c7"/><path d="M245.49,128.61c1.2,0,3-1.82,1.08-1.82-1.2,0-3,1.82-1.08,1.82Z" fill="#d5d8c7"/><path d="M236,128.68c1.29,0,3-2,1-2-1.29,0-3,2-1,2Z" fill="#d5d8c7"/><path d="M227.12,128.65c1,0,3.1-1.55,1.15-1.55-1,0-3.1,1.55-1.15,1.55Z" fill="#d5d8c7"/><path d="M218.31,128.88c1.12,0,3.07-1.68,1.12-1.68-1.12,0-3.07,1.68-1.12,1.68Z" fill="#d5d8c7"/><path d="M209.9,128.93c1.65,0,2.23-2.11.26-2.11-1.65,0-2.23,2.11-.26,2.11Z" fill="#d5d8c7"/><path d="M199.82,128.91c1.15,0,3.05-1.73,1.1-1.73-1.15,0-3.05,1.73-1.1,1.73Z" fill="#d5d8c7"/><path d="M191.15,128.57c1.15,0,3.05-1.73,1.1-1.73-1.15,0-3.05,1.73-1.1,1.73Z" fill="#d5d8c7"/><path d="M182.49,128.76c1.17,0,3-1.77,1.09-1.77-1.17,0-3,1.77-1.09,1.77Z" fill="#d5d8c7"/><path d="M173.14,128.38c1.12,0,3.07-1.69,1.11-1.69-1.12,0-3.07,1.69-1.11,1.69Z" fill="#d5d8c7"/><path d="M164,128.9c1.14,0,3.06-1.71,1.11-1.71-1.14,0-3.06,1.71-1.11,1.71Z" fill="#d5d8c7"/><path d="M155.14,128.51c.91,0,3.13-1.37,1.2-1.37-.91,0-3.13,1.37-1.2,1.37Z" fill="#d5d8c7"/><path d="M145.95,128.86c1.19,0,3-1.8,1.08-1.8-1.19,0-3,1.8-1.08,1.8Z" fill="#d5d8c7"/><path d="M136.92,128.16c.6,0,3.27-1.16,1.89-1.16-.6,0-3.27,1.16-1.89,1.16Z" fill="#d5d8c7"/><path d="M128.09,128.68c1.29,0,3-1.95,1-1.95-1.29,0-3,1.95-1,1.95Z" fill="#d5d8c7"/><path d="M118.8,128.4c.59,0,3.27-1.14,1.89-1.14-.59,0-3.27,1.14-1.89,1.14Z" fill="#d5d8c7"/><path d="M110.14,128.52c.93,0,3.13-1.39,1.2-1.39-.93,0-3.13,1.39-1.2,1.39Z" fill="#d5d8c7"/><path d="M100.79,128.47c1,0,3.1-1.53,1.16-1.53-1,0-3.1,1.53-1.16,1.53Z" fill="#d5d8c7"/><path d="M91.79,128.27c.59,0,3.26-1.13,1.89-1.13-.59,0-3.26,1.13-1.89,1.13Z" fill="#d5d8c7"/><path d="M83,128.49c1,0,3.09-1.58,1.15-1.58-1,0-3.09,1.58-1.15,1.58Z" fill="#d5d8c7"/><path d="M74.46,128.66c1.26,0,3-1.9,1.06-1.9-1.26,0-3,1.9-1.06,1.9Z" fill="#d5d8c7"/><path d="M64.82,128.59c1.18,0,3-1.78,1.09-1.78-1.18,0-3,1.78-1.09,1.78Z" fill="#d5d8c7"/><path d="M56,128.54c.94,0,3.12-1.41,1.19-1.41-.94,0-3.12,1.41-1.19,1.41Z" fill="#d5d8c7"/><path d="M47,128.55c1,0,3.12-1.43,1.18-1.43-1,0-3.12,1.43-1.18,1.43Z" fill="#d5d8c7"/><path d="M37.93,128.8c1.12,0,3.07-1.68,1.12-1.68-1.12,0-3.07,1.68-1.12,1.68Z" fill="#d5d8c7"/><path d="M28.79,128.46c1,0,3.1-1.51,1.16-1.51-1,0-3.1,1.51-1.16,1.51Z" fill="#d5d8c7"/><path d="M20.47,128.71c1.61,0,2.26-2,.29-2-1.61,0-2.26,2-.29,2Z" fill="#d5d8c7"/><path d="M11.3,128.63c1.06,0,3.09-1.6,1.14-1.6-1.06,0-3.09,1.6-1.14,1.6Z" fill="#d5d8c7"/><path d="M2.62,128.93c1.68,0,2.2-2.2.24-2.2-1.68,0-2.2,2.2-.24,2.2Z" fill="#d5d8c7"/><path d="M515.67,200c1.26,0,3-1.91,1.06-1.91-1.26,0-3,1.91-1.06,1.91Z" fill="#d5d8c7"/><path d="M524.78,200.45c1,0,3.11-1.49,1.17-1.49-1,0-3.11,1.49-1.17,1.49Z" fill="#d5d8c7"/><path d="M534.07,200.44c1.66,0,2.22-2.14.25-2.14-1.66,0-2.22,2.14-.25,2.14Z" fill="#d5d8c7"/><path d="M542.47,200.52c1.08,0,3.08-1.63,1.13-1.63-1.08,0-3.08,1.63-1.13,1.63Z" fill="#d5d8c7"/><path d="M552.58,200.63c1.68,0,2.2-2.19.24-2.19-1.68,0-2.2,2.19-.24,2.19Z" fill="#d5d8c7"/><path d="M559.76,199.95c.6,0,3.27-1.16,1.89-1.16-.6,0-3.27,1.16-1.89,1.16Z" fill="#d5d8c7"/><path d="M569,200.37c1.1,0,3.07-1.66,1.12-1.66-1.1,0-3.07,1.66-1.12,1.66Z" fill="#d5d8c7"/><path d="M578.26,200c.61,0,3.27-1.17,1.88-1.17-.61,0-3.27,1.17-1.88,1.17Z" fill="#d5d8c7"/><path d="M588,200.31c1.24,0,3-1.88,1.07-1.88-1.24,0-3,1.88-1.07,1.88Z" fill="#d5d8c7"/><path d="M596.6,200.39c.91,0,3.13-1.36,1.2-1.36-.91,0-3.13,1.36-1.2,1.36Z" fill="#d5d8c7"/><path d="M605.63,200c1.06,0,3.09-1.6,1.14-1.6-1.06,0-3.09,1.6-1.14,1.6Z" fill="#d5d8c7"/><path d="M615.06,200.37c1.61,0,2.26-2,.29-2-1.61,0-2.26,2-.29,2Z" fill="#d5d8c7"/><path d="M623.78,200.11c1,0,3.11-1.48,1.17-1.48-1,0-3.11,1.48-1.17,1.48Z" fill="#d5d8c7"/><path d="M633.07,200.61c1.66,0,2.22-2.14.25-2.14-1.66,0-2.22,2.14-.25,2.14Z" fill="#d5d8c7"/><path d="M577.41,146.17c1.23,0,3-1.86,1.07-1.86-1.23,0-3,1.86-1.07,1.86Z" fill="#d5d8c7"/><path d="M596.33,183c1.69,0,2.2-2.21.23-2.21-1.69,0-2.2,2.21-.23,2.21Z" fill="#d5d8c7"/><path d="M604.52,182.87c.66,0,3.29-1.26,1.86-1.26-.66,0-3.29,1.26-1.86,1.26Z" fill="#d5d8c7"/><path d="M614.32,183.15c1.66,0,2.22-2.14.25-2.14-1.66,0-2.22,2.14-.25,2.14Z" fill="#d5d8c7"/><path d="M623.5,182.56c.86,0,3.14-1.28,1.22-1.28-.86,0-3.14,1.28-1.22,1.28Z" fill="#d5d8c7"/><path d="M632.67,183.37c1.7,0,2.18-2.25.22-2.25-1.7,0-2.18,2.25-.22,2.25Z" fill="#d5d8c7"/><path d="M543.11,127.54c1.26,0,3-1.91,1.06-1.91-1.26,0-3,1.91-1.06,1.91Z" fill="#d5d8c7"/><path d="M533.89,128c1,0,3.11-1.49,1.17-1.49-1,0-3.11,1.49-1.17,1.49Z" fill="#d5d8c7"/><path d="M524.51,128c1.66,0,2.22-2.14.25-2.14-1.66,0-2.22,2.14-.25,2.14Z" fill="#d5d8c7"/><path d="M613.92,146c.59,0,3.27-1.14,1.89-1.14-.59,0-3.27,1.14-1.89,1.14Z" fill="#d5d8c7"/><path d="M605.27,146.13c.93,0,3.13-1.39,1.2-1.39-.93,0-3.13,1.39-1.2,1.39Z" fill="#d5d8c7"/><path d="M595.91,146.07c1,0,3.1-1.53,1.16-1.53-1,0-3.1,1.53-1.16,1.53Z" fill="#d5d8c7"/><path d="M586.92,145.87c.59,0,3.26-1.13,1.89-1.13-.59,0-3.26,1.13-1.89,1.13Z" fill="#d5d8c7"/><path d="M632.17,127.54c1,0,3.09-1.58,1.15-1.58-1,0-3.09,1.58-1.15,1.58Z" fill="#d5d8c7"/><path d="M623.59,127.7c1.26,0,3-1.9,1.06-1.9-1.26,0-3,1.9-1.06,1.9Z" fill="#d5d8c7"/><path d="M613.95,127.64c1.18,0,3-1.78,1.09-1.78-1.18,0-3,1.78-1.09,1.78Z" fill="#d5d8c7"/><path d="M605.15,127.58c.94,0,3.12-1.41,1.19-1.41-.94,0-3.12,1.41-1.19,1.41Z" fill="#d5d8c7"/><path d="M596.15,127.59c1,0,3.12-1.43,1.18-1.43-1,0-3.12,1.43-1.18,1.43Z" fill="#d5d8c7"/><path d="M587.06,127.84c1.12,0,3.07-1.68,1.12-1.68-1.12,0-3.07,1.68-1.12,1.68Z" fill="#d5d8c7"/><path d="M577.91,127.5c1,0,3.1-1.51,1.16-1.51-1,0-3.1,1.51-1.16,1.51Z" fill="#d5d8c7"/><path d="M569.6,127.75c1.61,0,2.26-2,.29-2-1.61,0-2.26,2-.29,2Z" fill="#d5d8c7"/><path d="M560.42,127.67c1.06,0,3.09-1.6,1.14-1.6-1.06,0-3.09,1.6-1.14,1.6Z" fill="#d5d8c7"/><path d="M551.75,128c1.68,0,2.2-2.2.24-2.2-1.68,0-2.2,2.2-.24,2.2Z" fill="#d5d8c7"/><path d="M613.67,163.78c1.26,0,3-1.9,1.06-1.9-1.26,0-3,1.9-1.06,1.9Z" fill="#d5d8c7"/><path d="M623.28,163.72c1.18,0,3-1.78,1.09-1.78-1.18,0-3,1.78-1.09,1.78Z" fill="#d5d8c7"/><path d="M632,163.66c.94,0,3.12-1.41,1.19-1.41-.94,0-3.12,1.41-1.19,1.41Z" fill="#d5d8c7"/><path d="M623.25,146c1.12,0,3.07-1.68,1.12-1.68-1.12,0-3.07,1.68-1.12,1.68Z" fill="#d5d8c7"/><path d="M632.35,145.67c1,0,3.1-1.51,1.16-1.51-1,0-3.1,1.51-1.16,1.51Z" fill="#d5d8c7"/><path d="M2.59,146c1.26,0,3-1.91,1.06-1.91-1.26,0-3,1.91-1.06,1.91Z" fill="#d5d8c7"/><path d="M11.7,146.45c1,0,3.11-1.49,1.17-1.49-1,0-3.11,1.49-1.17,1.49Z" fill="#d5d8c7"/><path d="M21,146.44c1.66,0,2.22-2.14.25-2.14-1.66,0-2.22,2.14-.25,2.14Z" fill="#d5d8c7"/><path d="M29.38,146.52c1.08,0,3.08-1.63,1.13-1.63-1.08,0-3.08,1.63-1.13,1.63Z" fill="#d5d8c7"/><path d="M39.5,146.63c1.68,0,2.2-2.19.24-2.19-1.68,0-2.2,2.19-.24,2.19Z" fill="#d5d8c7"/><path d="M46.67,145.95c.6,0,3.27-1.16,1.89-1.16-.6,0-3.27,1.16-1.89,1.16Z" fill="#d5d8c7"/><path d="M2.2,164.93c1.24,0,3-1.88,1.07-1.88-1.24,0-3,1.88-1.07,1.88Z" fill="#d5d8c7"/><path d="M10.8,165c.91,0,3.13-1.36,1.2-1.36-.91,0-3.13,1.36-1.2,1.36Z" fill="#d5d8c7"/><path d="M19.83,164.63c1.06,0,3.09-1.6,1.14-1.6-1.06,0-3.09,1.6-1.14,1.6Z" fill="#d5d8c7"/><path d="M29.25,165c1.61,0,2.26-2,.29-2-1.61,0-2.26,2-.29,2Z" fill="#d5d8c7"/><path d="M38,164.73c1,0,3.11-1.48,1.17-1.48-1,0-3.11,1.48-1.17,1.48Z" fill="#d5d8c7"/><path d="M47.27,165.23c1.66,0,2.22-2.14.25-2.14-1.66,0-2.22,2.14-.25,2.14Z" fill="#d5d8c7"/><path d="M56,165.26c1.23,0,3-1.86,1.07-1.86-1.23,0-3,1.86-1.07,1.86Z" fill="#d5d8c7"/><path d="M64.95,165.1c1.69,0,2.2-2.21.23-2.21-1.69,0-2.2,2.21-.23,2.21Z" fill="#d5d8c7"/><path d="M73.13,165c.66,0,3.29-1.26,1.86-1.26-.66,0-3.29,1.26-1.86,1.26Z" fill="#d5d8c7"/><path d="M82.94,165.23c1.66,0,2.22-2.14.25-2.14-1.66,0-2.22,2.14-.25,2.14Z" fill="#d5d8c7"/><path d="M65.07,182.53c1.6,0,2.27-2,.29-2-1.6,0-2.27,2-.29,2Z" fill="#d5d8c7"/><path d="M54.77,181.93c.58,0,3.26-1.11,1.9-1.11-.58,0-3.26,1.11-1.9,1.11Z" fill="#d5d8c7"/><path d="M46.33,182.21c1.12,0,3.07-1.68,1.12-1.68-1.12,0-3.07,1.68-1.12,1.68Z" fill="#d5d8c7"/><path d="M36.94,182.1c.58,0,3.26-1.12,1.9-1.12-.58,0-3.26,1.12-1.9,1.12Z" fill="#d5d8c7"/><path d="M29.11,182.83c1.7,0,2.18-2.26.22-2.26-1.7,0-2.18,2.26-.22,2.26Z" fill="#d5d8c7"/><path d="M19.2,182.51c1.29,0,3-2,1-2-1.29,0-3,2-1,2Z" fill="#d5d8c7"/><path d="M9.78,182.13c.61,0,3.28-1.18,1.88-1.18-.61,0-3.28,1.18-1.88,1.18Z" fill="#d5d8c7"/><path d="M1.65,182.33c1.06,0,3.09-1.59,1.14-1.59-1.06,0-3.09,1.59-1.14,1.59Z" fill="#d5d8c7"/><path d="M65,235.83c1.26,0,3-1.91,1.06-1.91-1.26,0-3,1.91-1.06,1.91Z" fill="#fff"/><path d="M74.07,236.28c1,0,3.11-1.49,1.17-1.49-1,0-3.11,1.49-1.17,1.49Z" fill="#fff"/><path d="M83.37,236.27c1.66,0,2.22-2.14.25-2.14-1.66,0-2.22,2.14-.25,2.14Z" fill="#fff"/><path d="M91.76,236.35c1.08,0,3.08-1.63,1.13-1.63-1.08,0-3.08,1.63-1.13,1.63Z" fill="#fff"/><path d="M101.87,236.47c1.68,0,2.2-2.19.24-2.19-1.68,0-2.2,2.19-.24,2.19Z" fill="#fff"/><path d="M109,235.78c.6,0,3.27-1.16,1.89-1.16-.6,0-3.27,1.16-1.89,1.16Z" fill="#fff"/><path d="M118.26,236.2c1.1,0,3.07-1.66,1.12-1.66-1.1,0-3.07,1.66-1.12,1.66Z" fill="#fff"/><path d="M127.55,235.79c.61,0,3.27-1.17,1.88-1.17-.61,0-3.27,1.17-1.88,1.17Z" fill="#fff"/><path d="M137.29,236.14c1.24,0,3-1.88,1.07-1.88-1.24,0-3,1.88-1.07,1.88Z" fill="#fff"/><path d="M145.89,236.22c.91,0,3.13-1.36,1.2-1.36-.91,0-3.13,1.36-1.2,1.36Z" fill="#fff"/><path d="M154.92,235.84c1.06,0,3.09-1.6,1.14-1.6-1.06,0-3.09,1.6-1.14,1.6Z" fill="#fff"/><path d="M164.35,236.21c1.61,0,2.26-2,.29-2-1.61,0-2.26,2-.29,2Z" fill="#fff"/><path d="M173.07,235.94c1,0,3.11-1.48,1.17-1.48-1,0-3.11,1.48-1.17,1.48Z" fill="#fff"/><path d="M182.36,236.44c1.66,0,2.22-2.14.25-2.14-1.66,0-2.22,2.14-.25,2.14Z" fill="#fff"/><path d="M191.12,236.47c1.23,0,3-1.86,1.07-1.86-1.23,0-3,1.86-1.07,1.86Z" fill="#fff"/><path d="M200,236.31c1.69,0,2.2-2.21.23-2.21-1.69,0-2.2,2.21-.23,2.21Z" fill="#fff"/><path d="M208.23,236.17c.66,0,3.29-1.26,1.86-1.26-.66,0-3.29,1.26-1.86,1.26Z" fill="#fff"/><path d="M218,236.44c1.66,0,2.22-2.14.25-2.14-1.66,0-2.22,2.14-.25,2.14Z" fill="#fff"/><path d="M227.21,235.85c.86,0,3.14-1.28,1.22-1.28-.86,0-3.14,1.28-1.22,1.28Z" fill="#fff"/><path d="M236.38,236.66c1.7,0,2.18-2.25.22-2.25-1.7,0-2.18,2.25-.22,2.25Z" fill="#fff"/><path d="M245,236.32c1.26,0,3-1.9,1.06-1.9-1.26,0-3,1.9-1.06,1.9Z" fill="#fff"/><path d="M254.21,236.48c1.69,0,2.19-2.22.23-2.22-1.69,0-2.19,2.22-.23,2.22Z" fill="#fff"/><path d="M263.18,236.53c1.6,0,2.27-2,.29-2-1.6,0-2.27,2-.29,2Z" fill="#fff"/><path d="M271.88,235.93c.58,0,3.26-1.11,1.9-1.11-.58,0-3.26,1.11-1.9,1.11Z" fill="#fff"/><path d="M281.1,236.21c1.12,0,3.07-1.68,1.12-1.68-1.12,0-3.07,1.68-1.12,1.68Z" fill="#fff"/><path d="M289.71,236.1c.58,0,3.26-1.12,1.9-1.12-.58,0-3.26,1.12-1.9,1.12Z" fill="#fff"/><path d="M299.21,236.83c1.7,0,2.18-2.26.22-2.26-1.7,0-2.18,2.26-.22,2.26Z" fill="#fff"/><path d="M308.3,236.51c1.29,0,3-2,1-2-1.29,0-3,2-1,2Z" fill="#fff"/><path d="M316.88,236.13c.61,0,3.28-1.18,1.88-1.18-.61,0-3.28,1.18-1.88,1.18Z" fill="#fff"/><path d="M325.75,236.33c1.06,0,3.09-1.59,1.14-1.59-1.06,0-3.09,1.59-1.14,1.59Z" fill="#fff"/><path d="M334.62,236.28c1.2,0,3-1.82,1.08-1.82-1.2,0-3,1.82-1.08,1.82Z" fill="#fff"/><path d="M344.14,236.35c1.29,0,3-2,1-2-1.29,0-3,2-1,2Z" fill="#fff"/><path d="M352.91,236.31c1,0,3.1-1.55,1.15-1.55-1,0-3.1,1.55-1.15,1.55Z" fill="#fff"/><path d="M361.77,236.55c1.12,0,3.07-1.68,1.12-1.68-1.12,0-3.07,1.68-1.12,1.68Z" fill="#fff"/><path d="M371,236.59c1.65,0,2.23-2.11.26-2.11-1.65,0-2.23,2.11-.26,2.11Z" fill="#fff"/><path d="M380.27,236.57c1.15,0,3.05-1.73,1.1-1.73-1.15,0-3.05,1.73-1.1,1.73Z" fill="#fff"/><path d="M388.94,236.24c1.15,0,3.05-1.73,1.1-1.73-1.15,0-3.05,1.73-1.1,1.73Z" fill="#fff"/><path d="M397.61,236.42c1.17,0,3-1.77,1.09-1.77-1.17,0-3,1.77-1.09,1.77Z" fill="#fff"/><path d="M406.93,236c1.12,0,3.07-1.69,1.11-1.69-1.12,0-3.07,1.69-1.11,1.69Z" fill="#fff"/><path d="M416.1,236.56c1.14,0,3.06-1.71,1.11-1.71-1.14,0-3.06,1.71-1.11,1.71Z" fill="#fff"/><path d="M424.85,236.18c.91,0,3.13-1.37,1.2-1.37-.91,0-3.13,1.37-1.2,1.37Z" fill="#fff"/><path d="M434.16,236.52c1.19,0,3-1.8,1.08-1.8-1.19,0-3,1.8-1.08,1.8Z" fill="#fff"/><path d="M442.38,235.82c.6,0,3.27-1.16,1.89-1.16-.6,0-3.27,1.16-1.89,1.16Z" fill="#fff"/><path d="M452.05,236.34c1.29,0,3-1.95,1-1.95-1.29,0-3,1.95-1,1.95Z" fill="#fff"/><path d="M460.5,236.07c.59,0,3.27-1.14,1.89-1.14-.59,0-3.27,1.14-1.89,1.14Z" fill="#fff"/><path d="M469.85,236.19c.93,0,3.13-1.39,1.2-1.39-.93,0-3.13,1.39-1.2,1.39Z" fill="#fff"/><path d="M479.25,236.14c1,0,3.1-1.53,1.16-1.53-1,0-3.1,1.53-1.16,1.53Z" fill="#fff"/><path d="M487.5,235.94c.59,0,3.26-1.13,1.89-1.13-.59,0-3.26,1.13-1.89,1.13Z" fill="#fff"/><path d="M497,236.16c1,0,3.09-1.58,1.15-1.58-1,0-3.09,1.58-1.15,1.58Z" fill="#fff"/><path d="M505.67,236.32c1.26,0,3-1.9,1.06-1.9-1.26,0-3,1.9-1.06,1.9Z" fill="#fff"/><path d="M515.28,236.26c1.18,0,3-1.78,1.09-1.78-1.18,0-3,1.78-1.09,1.78Z" fill="#fff"/><path d="M524,236.2c.94,0,3.12-1.41,1.19-1.41-.94,0-3.12,1.41-1.19,1.41Z" fill="#fff"/><path d="M533,236.21c1,0,3.12-1.43,1.18-1.43-1,0-3.12,1.43-1.18,1.43Z" fill="#fff"/><path d="M542.14,236.46c1.12,0,3.07-1.68,1.12-1.68-1.12,0-3.07,1.68-1.12,1.68Z" fill="#fff"/><path d="M551.24,236.13c1,0,3.1-1.51,1.16-1.51-1,0-3.1,1.51-1.16,1.51Z" fill="#fff"/><path d="M560.43,236.37c1.61,0,2.26-2,.29-2-1.61,0-2.26,2-.29,2Z" fill="#fff"/><path d="M568.76,236.3c1.06,0,3.09-1.6,1.14-1.6-1.06,0-3.09,1.6-1.14,1.6Z" fill="#fff"/><path d="M578.33,236.6c1.68,0,2.2-2.2.24-2.2-1.68,0-2.2,2.2-.24,2.2Z" fill="#fff"/><path d="M119.21,218.16c1.26,0,3-1.91,1.06-1.91-1.26,0-3,1.91-1.06,1.91Z" fill="#d5d8c7"/><path d="M128.32,218.62c1,0,3.11-1.49,1.17-1.49-1,0-3.11,1.49-1.17,1.49Z" fill="#d5d8c7"/><path d="M137.62,218.61c1.66,0,2.22-2.14.25-2.14-1.66,0-2.22,2.14-.25,2.14Z" fill="#d5d8c7"/><path d="M146,218.69c1.08,0,3.08-1.63,1.13-1.63-1.08,0-3.08,1.63-1.13,1.63Z" fill="#d5d8c7"/><path d="M156.12,218.8c1.68,0,2.2-2.19.24-2.19-1.68,0-2.2,2.19-.24,2.19Z" fill="#d5d8c7"/><path d="M163.3,218.12c.6,0,3.27-1.16,1.89-1.16-.6,0-3.27,1.16-1.89,1.16Z" fill="#d5d8c7"/><path d="M172.51,218.53c1.1,0,3.07-1.66,1.12-1.66-1.1,0-3.07,1.66-1.12,1.66Z" fill="#d5d8c7"/><path d="M181.8,218.12c.61,0,3.27-1.17,1.88-1.17-.61,0-3.27,1.17-1.88,1.17Z" fill="#d5d8c7"/><path d="M191.54,218.48c1.24,0,3-1.88,1.07-1.88-1.24,0-3,1.88-1.07,1.88Z" fill="#d5d8c7"/><path d="M200.14,218.55c.91,0,3.13-1.36,1.2-1.36-.91,0-3.13,1.36-1.2,1.36Z" fill="#d5d8c7"/><path d="M209.17,218.17c1.06,0,3.09-1.6,1.14-1.6-1.06,0-3.09,1.6-1.14,1.6Z" fill="#d5d8c7"/><path d="M218.6,218.54c1.61,0,2.26-2,.29-2-1.61,0-2.26,2-.29,2Z" fill="#d5d8c7"/><path d="M227.32,218.28c1,0,3.11-1.48,1.17-1.48-1,0-3.11,1.48-1.17,1.48Z" fill="#d5d8c7"/><path d="M236.61,218.77c1.66,0,2.22-2.14.25-2.14-1.66,0-2.22,2.14-.25,2.14Z" fill="#d5d8c7"/><path d="M245.37,218.8c1.23,0,3-1.86,1.07-1.86-1.23,0-3,1.86-1.07,1.86Z" fill="#d5d8c7"/><path d="M254.29,218.64c1.69,0,2.2-2.21.23-2.21-1.69,0-2.2,2.21-.23,2.21Z" fill="#d5d8c7"/><path d="M262.48,218.5c.66,0,3.29-1.26,1.86-1.26-.66,0-3.29,1.26-1.86,1.26Z" fill="#d5d8c7"/><path d="M272.28,218.78c1.66,0,2.22-2.14.25-2.14-1.66,0-2.22,2.14-.25,2.14Z" fill="#d5d8c7"/><path d="M281.46,218.18c.86,0,3.14-1.28,1.22-1.28-.86,0-3.14,1.28-1.22,1.28Z" fill="#d5d8c7"/><path d="M290.63,219c1.7,0,2.18-2.25.22-2.25-1.7,0-2.18,2.25-.22,2.25Z" fill="#d5d8c7"/><path d="M299.21,218.65c1.26,0,3-1.9,1.06-1.9-1.26,0-3,1.9-1.06,1.9Z" fill="#d5d8c7"/><path d="M308.46,218.82c1.69,0,2.19-2.22.23-2.22-1.69,0-2.19,2.22-.23,2.22Z" fill="#d5d8c7"/><path d="M317.43,218.86c1.6,0,2.27-2,.29-2-1.6,0-2.27,2-.29,2Z" fill="#d5d8c7"/><path d="M326.13,218.26c.58,0,3.26-1.11,1.9-1.11-.58,0-3.26,1.11-1.9,1.11Z" fill="#d5d8c7"/><path d="M335.35,218.55c1.12,0,3.07-1.68,1.12-1.68-1.12,0-3.07,1.68-1.12,1.68Z" fill="#d5d8c7"/><path d="M344,218.43c.58,0,3.26-1.12,1.9-1.12-.58,0-3.26,1.12-1.9,1.12Z" fill="#d5d8c7"/><path d="M353.46,219.17c1.7,0,2.18-2.26.22-2.26-1.7,0-2.18,2.26-.22,2.26Z" fill="#d5d8c7"/><path d="M362.55,218.85c1.29,0,3-2,1-2-1.29,0-3,2-1,2Z" fill="#d5d8c7"/><path d="M371.13,218.46c.61,0,3.28-1.18,1.88-1.18-.61,0-3.28,1.18-1.88,1.18Z" fill="#d5d8c7"/><path d="M380,218.67c1.06,0,3.09-1.59,1.14-1.59-1.06,0-3.09,1.59-1.14,1.59Z" fill="#d5d8c7"/><path d="M388.87,218.61c1.2,0,3-1.82,1.08-1.82-1.2,0-3,1.82-1.08,1.82Z" fill="#d5d8c7"/><path d="M398.39,218.68c1.29,0,3-2,1-2-1.29,0-3,2-1,2Z" fill="#d5d8c7"/><path d="M407.16,218.65c1,0,3.1-1.55,1.15-1.55-1,0-3.1,1.55-1.15,1.55Z" fill="#d5d8c7"/><path d="M416,218.88c1.12,0,3.07-1.68,1.12-1.68-1.12,0-3.07,1.68-1.12,1.68Z" fill="#d5d8c7"/><path d="M425.28,218.93c1.65,0,2.23-2.11.26-2.11-1.65,0-2.23,2.11-.26,2.11Z" fill="#d5d8c7"/><path d="M434.52,218.91c1.15,0,3.05-1.73,1.1-1.73-1.15,0-3.05,1.73-1.1,1.73Z" fill="#d5d8c7"/><path d="M443.19,218.57c1.15,0,3.05-1.73,1.1-1.73-1.15,0-3.05,1.73-1.1,1.73Z" fill="#d5d8c7"/><path d="M451.86,218.76c1.17,0,3-1.77,1.09-1.77-1.17,0-3,1.77-1.09,1.77Z" fill="#d5d8c7"/><path d="M461.18,218.38c1.12,0,3.07-1.69,1.11-1.69-1.12,0-3.07,1.69-1.11,1.69Z" fill="#d5d8c7"/><path d="M470.35,218.9c1.14,0,3.06-1.71,1.11-1.71-1.14,0-3.06,1.71-1.11,1.71Z" fill="#d5d8c7"/><path d="M479.1,218.51c.91,0,3.13-1.37,1.2-1.37-.91,0-3.13,1.37-1.2,1.37Z" fill="#d5d8c7"/><path d="M488.41,218.86c1.19,0,3-1.8,1.08-1.8-1.19,0-3,1.8-1.08,1.8Z" fill="#d5d8c7"/><path d="M496.63,218.16c.6,0,3.27-1.16,1.89-1.16-.6,0-3.27,1.16-1.89,1.16Z" fill="#d5d8c7"/><path d="M506.3,218.68c1.29,0,3-1.95,1-1.95-1.29,0-3,1.95-1,1.95Z" fill="#d5d8c7"/><path d="M514.75,218.4c.59,0,3.27-1.14,1.89-1.14-.59,0-3.27,1.14-1.89,1.14Z" fill="#d5d8c7"/><path d="M524.1,218.52c.93,0,3.13-1.39,1.2-1.39-.93,0-3.13,1.39-1.2,1.39Z" fill="#d5d8c7"/><path d="M533.5,218.47c1,0,3.1-1.53,1.16-1.53-1,0-3.1,1.53-1.16,1.53Z" fill="#d5d8c7"/><path d="M541.75,218.27c.59,0,3.26-1.13,1.89-1.13-.59,0-3.26,1.13-1.89,1.13Z" fill="#d5d8c7"/><path d="M551.25,218.49c1,0,3.09-1.58,1.15-1.58-1,0-3.09,1.58-1.15,1.58Z" fill="#d5d8c7"/><path d="M559.92,218.66c1.26,0,3-1.9,1.06-1.9-1.26,0-3,1.9-1.06,1.9Z" fill="#d5d8c7"/><path d="M569.53,218.59c1.18,0,3-1.78,1.09-1.78-1.18,0-3,1.78-1.09,1.78Z" fill="#d5d8c7"/><path d="M578.23,218.54c.94,0,3.12-1.41,1.19-1.41-.94,0-3.12,1.41-1.19,1.41Z" fill="#d5d8c7"/><path d="M587.23,218.55c1,0,3.12-1.43,1.18-1.43-1,0-3.12,1.43-1.18,1.43Z" fill="#d5d8c7"/><path d="M596.39,218.8c1.12,0,3.07-1.68,1.12-1.68-1.12,0-3.07,1.68-1.12,1.68Z" fill="#d5d8c7"/><path d="M605.49,218.46c1,0,3.1-1.51,1.16-1.51-1,0-3.1,1.51-1.16,1.51Z" fill="#d5d8c7"/><path d="M614.68,218.71c1.61,0,2.26-2,.29-2-1.61,0-2.26,2-.29,2Z" fill="#d5d8c7"/><path d="M623,218.63c1.06,0,3.09-1.6,1.14-1.6-1.06,0-3.09,1.6-1.14,1.6Z" fill="#d5d8c7"/><path d="M632.58,218.93c1.68,0,2.2-2.2.24-2.2-1.68,0-2.2,2.2-.24,2.2Z" fill="#d5d8c7"/><path d="M57,236.17c1.23,0,3-1.86,1.07-1.86-1.23,0-3,1.86-1.07,1.86Z" fill="#fff"/><path d="M91.28,217.54c1.26,0,3-1.91,1.06-1.91-1.26,0-3,1.91-1.06,1.91Z" fill="#d5d8c7"/><path d="M100.39,218c1,0,3.11-1.49,1.17-1.49-1,0-3.11,1.49-1.17,1.49Z" fill="#d5d8c7"/><path d="M110.68,218c1.66,0,2.22-2.14.25-2.14-1.66,0-2.22,2.14-.25,2.14Z" fill="#d5d8c7"/><path d="M19.63,236c.59,0,3.27-1.14,1.89-1.14-.59,0-3.27,1.14-1.89,1.14Z" fill="#fff"/><path d="M29,236.13c.93,0,3.13-1.39,1.2-1.39-.93,0-3.13,1.39-1.2,1.39Z" fill="#fff"/><path d="M38.37,236.07c1,0,3.1-1.53,1.16-1.53-1,0-3.1,1.53-1.16,1.53Z" fill="#fff"/><path d="M46.63,235.87c.59,0,3.26-1.13,1.89-1.13-.59,0-3.26,1.13-1.89,1.13Z" fill="#fff"/><path d="M2.13,217.54c1,0,3.09-1.58,1.15-1.58-1,0-3.09,1.58-1.15,1.58Z" fill="#d5d8c7"/><path d="M10.8,217.7c1.26,0,3-1.9,1.06-1.9-1.26,0-3,1.9-1.06,1.9Z" fill="#d5d8c7"/><path d="M20.4,217.64c1.18,0,3-1.78,1.09-1.78-1.18,0-3,1.78-1.09,1.78Z" fill="#d5d8c7"/><path d="M29.11,217.58c.94,0,3.12-1.41,1.19-1.41-.94,0-3.12,1.41-1.19,1.41Z" fill="#d5d8c7"/><path d="M38.11,217.59c1,0,3.12-1.43,1.18-1.43-1,0-3.12,1.43-1.18,1.43Z" fill="#d5d8c7"/><path d="M47.27,217.84c1.12,0,3.07-1.68,1.12-1.68-1.12,0-3.07,1.68-1.12,1.68Z" fill="#d5d8c7"/><path d="M56.37,217.5c1,0,3.1-1.51,1.16-1.51-1,0-3.1,1.51-1.16,1.51Z" fill="#d5d8c7"/><path d="M65.56,217.75c1.61,0,2.26-2,.29-2-1.61,0-2.26,2-.29,2Z" fill="#d5d8c7"/><path d="M73.88,217.67c1.06,0,3.09-1.6,1.14-1.6-1.06,0-3.09,1.6-1.14,1.6Z" fill="#d5d8c7"/><path d="M83.46,218c1.68,0,2.2-2.2.24-2.2-1.68,0-2.2,2.2-.24,2.2Z" fill="#d5d8c7"/><path d="M11.08,236c1.12,0,3.07-1.68,1.12-1.68-1.12,0-3.07,1.68-1.12,1.68Z" fill="#fff"/><path d="M1.93,235.67c1,0,3.1-1.51,1.16-1.51-1,0-3.1,1.51-1.16,1.51Z" fill="#fff"/><path d="M631.8,236c1.26,0,3-1.91,1.06-1.91-1.26,0-3,1.91-1.06,1.91Z" fill="#fff"/><path d="M622.57,236.45c1,0,3.11-1.49,1.17-1.49-1,0-3.11,1.49-1.17,1.49Z" fill="#fff"/><path d="M614.2,236.44c1.66,0,2.22-2.14.25-2.14-1.66,0-2.22,2.14-.25,2.14Z" fill="#fff"/><path d="M604.93,236.52c1.08,0,3.08-1.63,1.13-1.63-1.08,0-3.08,1.63-1.13,1.63Z" fill="#fff"/><path d="M595.7,236.63c1.68,0,2.2-2.19.24-2.19-1.68,0-2.2,2.19-.24,2.19Z" fill="#fff"/><path d="M586.88,235.95c.6,0,3.27-1.16,1.89-1.16-.6,0-3.27,1.16-1.89,1.16Z" fill="#fff"/></g></g></svg>