<svg xmlns="http://www.w3.org/2000/svg" xmlns:xlink="http://www.w3.org/1999/xlink" viewBox="5400 1842 1280 800">
  <defs>
    <style>
      .cls-1 {
        clip-path: url(#clip-Dashboard_Add_item_menu_Weblink);
      }

      .cls-2 {
        fill: #e5e5e5;
      }

      .cls-3, .cls-5 {
        fill: #707070;
      }

      .cls-13, .cls-4 {
        fill: none;
      }

      .cls-10, .cls-11, .cls-4, .cls-7, .cls-9 {
        stroke: #707070;
      }

      .cls-5 {
        font-size: 80px;
        font-family: HelveticaNeue, Helvetica Neue;
      }

      .cls-10, .cls-6, .cls-9 {
        fill: #fff;
      }

      .cls-7, .cls-8 {
        fill: #c1c0c0;
      }

      .cls-9 {
        opacity: 0.6;
      }

      .cls-11 {
        fill: #8b8b8b;
      }

      .cls-12 {
        stroke: none;
      }

      .cls-14 {
        filter: url(#Rectangle_235);
      }
    </style>
    <filter id="Rectangle_235" x="5754" y="1924.469" width="552.916" height="677.048" filterUnits="userSpaceOnUse">
      <feOffset dx="5" dy="5" input="SourceAlpha"/>
      <feGaussianBlur stdDeviation="5" result="blur"/>
      <feFlood flood-opacity="0.161"/>
      <feComposite operator="in" in2="blur"/>
      <feComposite in="SourceGraphic"/>
    </filter>
    <clipPath id="clip-Dashboard_Add_item_menu_Weblink">
      <rect x="5400" y="1842" width="1280" height="800"/>
    </clipPath>
  </defs>
  <g id="Dashboard_Add_item_menu_Weblink" data-name="Dashboard / Add item menu / Weblink" class="cls-1">
    <rect class="cls-6" x="5400" y="1842" width="1280" height="800"/>
    <rect id="Rectangle_188" data-name="Rectangle 188" class="cls-2" width="1279.916" height="103.048" transform="translate(5400 1842.469)"/>
    <path id="Path_181" data-name="Path 181" class="cls-3" d="M2.76-28.56V0h3.4V-28.56ZM13.92-10.32a10.288,10.288,0,0,1,.5-3.34,7.208,7.208,0,0,1,1.38-2.46,5.877,5.877,0,0,1,2.06-1.52,6.131,6.131,0,0,1,2.5-.52,6.131,6.131,0,0,1,2.5.52,5.877,5.877,0,0,1,2.06,1.52,7.208,7.208,0,0,1,1.38,2.46,10.288,10.288,0,0,1,.5,3.34,10.288,10.288,0,0,1-.5,3.34,6.988,6.988,0,0,1-1.38,2.44,5.988,5.988,0,0,1-2.06,1.5,6.131,6.131,0,0,1-2.5.52,6.131,6.131,0,0,1-2.5-.52,5.988,5.988,0,0,1-2.06-1.5,6.988,6.988,0,0,1-1.38-2.44A10.288,10.288,0,0,1,13.92-10.32Zm-3.6,0a13.584,13.584,0,0,0,.64,4.24,9.678,9.678,0,0,0,1.92,3.42A8.833,8.833,0,0,0,16.04-.38a10.716,10.716,0,0,0,4.32.82A10.68,10.68,0,0,0,24.7-.38a8.874,8.874,0,0,0,3.14-2.28,9.678,9.678,0,0,0,1.92-3.42,13.584,13.584,0,0,0,.64-4.24,13.773,13.773,0,0,0-.64-4.26,9.652,9.652,0,0,0-1.92-3.44,9.09,9.09,0,0,0-3.14-2.3,10.458,10.458,0,0,0-4.34-.84,10.493,10.493,0,0,0-4.32.84,9.044,9.044,0,0,0-3.16,2.3,9.652,9.652,0,0,0-1.92,3.44A13.773,13.773,0,0,0,10.32-10.32ZM52.24-1.76V-20.68h-3.2v2.96H49a6.052,6.052,0,0,0-2.56-2.58,7.633,7.633,0,0,0-3.6-.86,9.21,9.21,0,0,0-4.52,1.02,8.771,8.771,0,0,0-2.96,2.6,10.308,10.308,0,0,0-1.6,3.52,15.71,15.71,0,0,0-.48,3.78,13.7,13.7,0,0,0,.58,4.02A9.626,9.626,0,0,0,35.6-2.9,8.455,8.455,0,0,0,38.48-.64,9.109,9.109,0,0,0,42.52.2,8.264,8.264,0,0,0,46.3-.7a5.715,5.715,0,0,0,2.66-2.82h.08v1.36A13.751,13.751,0,0,1,48.7,1a6.6,6.6,0,0,1-1.1,2.46,5.331,5.331,0,0,1-1.92,1.6,6.3,6.3,0,0,1-2.84.58,9.17,9.17,0,0,1-1.76-.18,6.4,6.4,0,0,1-1.7-.58,4.231,4.231,0,0,1-1.32-1.04,2.515,2.515,0,0,1-.58-1.56h-3.4a5.345,5.345,0,0,0,.88,2.84A6.336,6.336,0,0,0,36.98,7,9.008,9.008,0,0,0,39.7,8.04a14.068,14.068,0,0,0,2.94.32q4.96,0,7.28-2.52T52.24-1.76Zm-9.52-1a5.192,5.192,0,0,1-2.8-.7,5.4,5.4,0,0,1-1.8-1.84,7.965,7.965,0,0,1-.96-2.54,14.245,14.245,0,0,1-.28-2.8,11.668,11.668,0,0,1,.34-2.84,7.039,7.039,0,0,1,1.08-2.4,5.444,5.444,0,0,1,1.9-1.66,5.869,5.869,0,0,1,2.8-.62,5.4,5.4,0,0,1,2.72.64,5.3,5.3,0,0,1,1.82,1.7,7.476,7.476,0,0,1,1.02,2.38,11.335,11.335,0,0,1,.32,2.68,12.5,12.5,0,0,1-.34,2.88A8.41,8.41,0,0,1,47.48-5.3a5.578,5.578,0,0,1-1.9,1.84A5.511,5.511,0,0,1,42.72-2.76Zm17.12-7.56a10.288,10.288,0,0,1,.5-3.34,7.208,7.208,0,0,1,1.38-2.46,5.877,5.877,0,0,1,2.06-1.52,6.131,6.131,0,0,1,2.5-.52,6.131,6.131,0,0,1,2.5.52,5.877,5.877,0,0,1,2.06,1.52,7.208,7.208,0,0,1,1.38,2.46,10.288,10.288,0,0,1,.5,3.34,10.288,10.288,0,0,1-.5,3.34,6.988,6.988,0,0,1-1.38,2.44,5.988,5.988,0,0,1-2.06,1.5,6.131,6.131,0,0,1-2.5.52,6.131,6.131,0,0,1-2.5-.52,5.988,5.988,0,0,1-2.06-1.5,6.988,6.988,0,0,1-1.38-2.44A10.288,10.288,0,0,1,59.84-10.32Zm-3.6,0a13.584,13.584,0,0,0,.64,4.24A9.678,9.678,0,0,0,58.8-2.66,8.833,8.833,0,0,0,61.96-.38a10.716,10.716,0,0,0,4.32.82,10.68,10.68,0,0,0,4.34-.82,8.875,8.875,0,0,0,3.14-2.28,9.678,9.678,0,0,0,1.92-3.42,13.584,13.584,0,0,0,.64-4.24,13.773,13.773,0,0,0-.64-4.26,9.652,9.652,0,0,0-1.92-3.44,9.091,9.091,0,0,0-3.14-2.3,10.458,10.458,0,0,0-4.34-.84,10.493,10.493,0,0,0-4.32.84,9.044,9.044,0,0,0-3.16,2.3,9.652,9.652,0,0,0-1.92,3.44A13.773,13.773,0,0,0,56.24-10.32Z" transform="translate(5438 1904)"/>
    <path id="Path_182" data-name="Path 182" class="cls-3" d="M4.152-1.92v-13.3h3.84a7.025,7.025,0,0,1,2.664.444,4.322,4.322,0,0,1,1.764,1.3,5.269,5.269,0,0,1,.984,2.064,11.471,11.471,0,0,1,.3,2.748,9.784,9.784,0,0,1-.324,2.7,6.576,6.576,0,0,1-.828,1.86,4.332,4.332,0,0,1-1.14,1.176,5.594,5.594,0,0,1-1.284.66A5.385,5.385,0,0,1,8.9-1.98a9.563,9.563,0,0,1-.96.06ZM1.872-17.136V0h5.88a10.286,10.286,0,0,0,3.7-.6,6.449,6.449,0,0,0,2.568-1.74A7.155,7.155,0,0,0,15.5-5.148a13.871,13.871,0,0,0,.48-3.828q0-4.128-2.136-6.144a8.544,8.544,0,0,0-6.1-2.016ZM29.424-.048V-1.632a2.02,2.02,0,0,1-.624.12q-.48,0-.564-.336A4.774,4.774,0,0,1,28.152-2.9V-9.288a3.341,3.341,0,0,0-.408-1.752,2.876,2.876,0,0,0-1.08-1.044,4.359,4.359,0,0,0-1.5-.492A11.614,11.614,0,0,0,23.5-12.7a8.729,8.729,0,0,0-1.968.216,4.828,4.828,0,0,0-1.656.708,3.639,3.639,0,0,0-1.152,1.284,4.407,4.407,0,0,0-.48,1.944h2.04a2.088,2.088,0,0,1,.936-1.86,4.314,4.314,0,0,1,2.16-.492,6.706,6.706,0,0,1,.972.072,2.635,2.635,0,0,1,.888.288,1.728,1.728,0,0,1,.648.624,2.036,2.036,0,0,1,.252,1.08,1.113,1.113,0,0,1-.336.876,2.219,2.219,0,0,1-.912.456,8.892,8.892,0,0,1-1.332.24q-.756.084-1.6.252-.792.144-1.548.36a4.344,4.344,0,0,0-1.344.636A3.141,3.141,0,0,0,18.12-4.92a3.645,3.645,0,0,0-.36,1.728,3.593,3.593,0,0,0,.324,1.6,2.935,2.935,0,0,0,.888,1.08,3.567,3.567,0,0,0,1.308.6,6.719,6.719,0,0,0,1.584.18A6.465,6.465,0,0,0,24.276-.18a4.881,4.881,0,0,0,1.956-1.452A1.93,1.93,0,0,0,26.7-.18a1.755,1.755,0,0,0,1.26.444A2.885,2.885,0,0,0,29.424-.048Zm-3.312-6.36V-4.32A2.307,2.307,0,0,1,25.9-3.4a2.746,2.746,0,0,1-.672.912,3.635,3.635,0,0,1-1.176.7,4.833,4.833,0,0,1-1.728.276,4.247,4.247,0,0,1-.9-.1,2.214,2.214,0,0,1-.768-.312,1.7,1.7,0,0,1-.528-.564,1.659,1.659,0,0,1-.2-.852,1.916,1.916,0,0,1,.348-1.212,2.27,2.27,0,0,1,.9-.684,5.074,5.074,0,0,1,1.248-.348q.7-.108,1.38-.192T25.1-5.988A2.539,2.539,0,0,0,26.112-6.408Zm6.456,2.5h-2.04a4.49,4.49,0,0,0,.48,1.956A3.61,3.61,0,0,0,32.16-.66a4.828,4.828,0,0,0,1.656.708,8.729,8.729,0,0,0,1.968.216,10.081,10.081,0,0,0,1.884-.18,5.116,5.116,0,0,0,1.7-.636,3.658,3.658,0,0,0,1.224-1.2,3.456,3.456,0,0,0,.468-1.872,2.925,2.925,0,0,0-.348-1.488,3.107,3.107,0,0,0-.912-1,4.891,4.891,0,0,0-1.3-.636,15.318,15.318,0,0,0-1.5-.408q-.72-.168-1.44-.324a8.307,8.307,0,0,1-1.3-.384,2.97,2.97,0,0,1-.948-.576,1.149,1.149,0,0,1-.372-.876,1.211,1.211,0,0,1,.24-.78,1.716,1.716,0,0,1,.624-.48,3.112,3.112,0,0,1,.852-.252,6.07,6.07,0,0,1,.924-.072,4.632,4.632,0,0,1,1,.108,3.053,3.053,0,0,1,.9.348,2.043,2.043,0,0,1,.672.636,2.065,2.065,0,0,1,.312,1h2.04a4.557,4.557,0,0,0-.48-1.884,3.23,3.23,0,0,0-1.092-1.2,4.5,4.5,0,0,0-1.572-.624,9.8,9.8,0,0,0-1.944-.18,6.852,6.852,0,0,0-1.644.2,4.959,4.959,0,0,0-1.488.624,3.434,3.434,0,0,0-1.08,1.092,2.973,2.973,0,0,0-.42,1.608,2.713,2.713,0,0,0,.6,1.872,4.049,4.049,0,0,0,1.5,1.044,10.149,10.149,0,0,0,1.956.576q1.056.2,1.956.456a5.106,5.106,0,0,1,1.5.66,1.358,1.358,0,0,1,.6,1.2,1.5,1.5,0,0,1-.288.948,1.825,1.825,0,0,1-.732.564,3.7,3.7,0,0,1-.972.264,7.469,7.469,0,0,1-1.008.072,6.046,6.046,0,0,1-1.212-.12,3.4,3.4,0,0,1-1.056-.4,2.171,2.171,0,0,1-.756-.744A2.3,2.3,0,0,1,32.568-3.912ZM43.32-17.136V0h2.04V-7.008a5.026,5.026,0,0,1,.228-1.548,3.516,3.516,0,0,1,.684-1.236,3.038,3.038,0,0,1,1.14-.816,4.158,4.158,0,0,1,1.62-.288,2.5,2.5,0,0,1,1.848.672A2.465,2.465,0,0,1,51.552-8.4V0h2.04V-8.16a7.678,7.678,0,0,0-.2-1.836,3.477,3.477,0,0,0-.708-1.428,3.354,3.354,0,0,0-1.32-.936,5.385,5.385,0,0,0-2.04-.336,5.7,5.7,0,0,0-1.14.12,5.042,5.042,0,0,0-1.128.372,3.819,3.819,0,0,0-.972.648,2.714,2.714,0,0,0-.672.972H45.36v-6.552Zm13.416,0V0h2.04V-1.656h.048a3.286,3.286,0,0,0,.828.924A4.361,4.361,0,0,0,60.7-.144a5.666,5.666,0,0,0,1.116.312,6.132,6.132,0,0,0,1.02.1,5.762,5.762,0,0,0,2.484-.5,4.978,4.978,0,0,0,1.776-1.38,5.877,5.877,0,0,0,1.056-2.052,8.753,8.753,0,0,0,.348-2.5,8.482,8.482,0,0,0-.36-2.5,6.307,6.307,0,0,0-1.068-2.076,5.1,5.1,0,0,0-1.776-1.428,5.6,5.6,0,0,0-2.508-.528,5.913,5.913,0,0,0-2.376.468,3.054,3.054,0,0,0-1.584,1.5h-.048v-6.408Zm9.6,10.824a8.163,8.163,0,0,1-.192,1.776A4.7,4.7,0,0,1,65.52-3a3.28,3.28,0,0,1-1.14,1.08,3.488,3.488,0,0,1-1.764.408,3.787,3.787,0,0,1-1.8-.4A3.494,3.494,0,0,1,59.6-2.952a4.365,4.365,0,0,1-.684-1.5A7.15,7.15,0,0,1,58.7-6.216a7.2,7.2,0,0,1,.2-1.7,4.466,4.466,0,0,1,.66-1.5,3.511,3.511,0,0,1,1.176-1.068A3.5,3.5,0,0,1,62.5-10.9a3.644,3.644,0,0,1,1.716.384,3.411,3.411,0,0,1,1.2,1.032A4.567,4.567,0,0,1,66.108-8,6.344,6.344,0,0,1,66.336-6.312Zm6.048.12a6.173,6.173,0,0,1,.3-2,4.325,4.325,0,0,1,.828-1.476,3.526,3.526,0,0,1,1.236-.912,3.679,3.679,0,0,1,1.5-.312,3.679,3.679,0,0,1,1.5.312,3.526,3.526,0,0,1,1.236.912A4.325,4.325,0,0,1,79.812-8.2a6.173,6.173,0,0,1,.3,2,6.173,6.173,0,0,1-.3,2,4.193,4.193,0,0,1-.828,1.464,3.593,3.593,0,0,1-1.236.9,3.679,3.679,0,0,1-1.5.312,3.679,3.679,0,0,1-1.5-.312,3.593,3.593,0,0,1-1.236-.9,4.193,4.193,0,0,1-.828-1.464A6.173,6.173,0,0,1,72.384-6.192Zm-2.16,0a8.151,8.151,0,0,0,.384,2.544A5.807,5.807,0,0,0,71.76-1.6a5.3,5.3,0,0,0,1.9,1.368,6.429,6.429,0,0,0,2.592.492,6.408,6.408,0,0,0,2.6-.492A5.325,5.325,0,0,0,80.736-1.6a5.807,5.807,0,0,0,1.152-2.052,8.151,8.151,0,0,0,.384-2.544,8.264,8.264,0,0,0-.384-2.556,5.791,5.791,0,0,0-1.152-2.064,5.454,5.454,0,0,0-1.884-1.38,6.275,6.275,0,0,0-2.6-.5,6.3,6.3,0,0,0-2.592.5,5.427,5.427,0,0,0-1.9,1.38,5.791,5.791,0,0,0-1.152,2.064A8.264,8.264,0,0,0,70.224-6.192ZM95.664-.048V-1.632a2.02,2.02,0,0,1-.624.12q-.48,0-.564-.336A4.774,4.774,0,0,1,94.392-2.9V-9.288a3.341,3.341,0,0,0-.408-1.752,2.876,2.876,0,0,0-1.08-1.044,4.359,4.359,0,0,0-1.5-.492,11.614,11.614,0,0,0-1.668-.12,8.729,8.729,0,0,0-1.968.216,4.828,4.828,0,0,0-1.656.708,3.639,3.639,0,0,0-1.152,1.284,4.406,4.406,0,0,0-.48,1.944h2.04a2.088,2.088,0,0,1,.936-1.86,4.314,4.314,0,0,1,2.16-.492,6.706,6.706,0,0,1,.972.072,2.635,2.635,0,0,1,.888.288,1.728,1.728,0,0,1,.648.624,2.036,2.036,0,0,1,.252,1.08,1.113,1.113,0,0,1-.336.876,2.219,2.219,0,0,1-.912.456,8.891,8.891,0,0,1-1.332.24q-.756.084-1.6.252-.792.144-1.548.36a4.344,4.344,0,0,0-1.344.636A3.141,3.141,0,0,0,84.36-4.92,3.645,3.645,0,0,0,84-3.192a3.593,3.593,0,0,0,.324,1.6,2.935,2.935,0,0,0,.888,1.08,3.567,3.567,0,0,0,1.308.6A6.719,6.719,0,0,0,88.1.264,6.465,6.465,0,0,0,90.516-.18a4.881,4.881,0,0,0,1.956-1.452A1.93,1.93,0,0,0,92.94-.18,1.755,1.755,0,0,0,94.2.264,2.885,2.885,0,0,0,95.664-.048Zm-3.312-6.36V-4.32a2.306,2.306,0,0,1-.216.924,2.746,2.746,0,0,1-.672.912,3.635,3.635,0,0,1-1.176.7,4.833,4.833,0,0,1-1.728.276,4.247,4.247,0,0,1-.9-.1,2.214,2.214,0,0,1-.768-.312,1.7,1.7,0,0,1-.528-.564,1.659,1.659,0,0,1-.2-.852,1.916,1.916,0,0,1,.348-1.212,2.27,2.27,0,0,1,.9-.684,5.074,5.074,0,0,1,1.248-.348q.7-.108,1.38-.192t1.308-.216A2.539,2.539,0,0,0,92.352-6.408Zm5.136-6V0h2.04V-5.52a8.483,8.483,0,0,1,.24-2.124,4.071,4.071,0,0,1,.768-1.572,3.292,3.292,0,0,1,1.392-.984,5.77,5.77,0,0,1,2.088-.336V-12.7a4.585,4.585,0,0,0-2.736.672,5.526,5.526,0,0,0-1.824,2.232h-.048v-2.616Zm9.12,6.312a8.163,8.163,0,0,1,.192-1.776,4.7,4.7,0,0,1,.624-1.536,3.249,3.249,0,0,1,1.152-1.08,3.5,3.5,0,0,1,1.752-.408,3.787,3.787,0,0,1,1.8.4,3.494,3.494,0,0,1,1.212,1.044,4.365,4.365,0,0,1,.684,1.5,7.151,7.151,0,0,1,.216,1.764,7.2,7.2,0,0,1-.2,1.7,4.466,4.466,0,0,1-.66,1.5A3.511,3.511,0,0,1,112.2-1.92a3.5,3.5,0,0,1-1.752.408,3.644,3.644,0,0,1-1.716-.384,3.411,3.411,0,0,1-1.2-1.032,4.567,4.567,0,0,1-.7-1.476A6.344,6.344,0,0,1,106.608-6.1Zm9.6,6.1V-17.136h-2.04v6.384h-.048a3.286,3.286,0,0,0-.828-.924,4.7,4.7,0,0,0-1.044-.6,5.24,5.24,0,0,0-1.1-.324,6.043,6.043,0,0,0-1.032-.1,5.648,5.648,0,0,0-2.484.516,5.1,5.1,0,0,0-1.776,1.392A5.877,5.877,0,0,0,104.8-8.736a8.753,8.753,0,0,0-.348,2.5,8.482,8.482,0,0,0,.36,2.5,6.17,6.17,0,0,0,1.068,2.064,5.161,5.161,0,0,0,1.776,1.416,5.6,5.6,0,0,0,2.508.528,6.048,6.048,0,0,0,2.376-.456A3,3,0,0,0,114.12-1.68h.048V0Z" transform="translate(5552 1904)"/>
    <circle id="Ellipse_20" data-name="Ellipse 20" cx="27" cy="27" r="27" transform="translate(6581 1866)"/>
    <line id="Line_68" data-name="Line 68" class="cls-4" y2="103.048" transform="translate(6538.5 1842.469)"/>
    <line id="Line_69" data-name="Line 69" class="cls-4" y2="103.048" transform="translate(6412.5 1842.469)"/>
    <line id="Line_70" data-name="Line 70" class="cls-4" y2="103.048" transform="translate(6286.5 1842.469)"/>
    <line id="Line_71" data-name="Line 71" class="cls-4" y2="103.048" transform="translate(6125.5 1842.469)"/>
    <text id="_" data-name="+" class="cls-5" transform="translate(6183 1839)"><tspan x="0" y="76">+</tspan></text>
    <path id="Path_194" data-name="Path 194" class="cls-3" d="M8.838-9.09h1.62a4.531,4.531,0,0,0-.4-1.827,3.56,3.56,0,0,0-1.008-1.269,4.158,4.158,0,0,0-1.485-.738,6.867,6.867,0,0,0-1.836-.234,6.593,6.593,0,0,0-1.719.225,4.726,4.726,0,0,0-1.494.684,3.462,3.462,0,0,0-1.053,1.17,3.405,3.405,0,0,0-.4,1.683,2.81,2.81,0,0,0,.351,1.467,2.846,2.846,0,0,0,.936.954,5.44,5.44,0,0,0,1.323.594q.738.225,1.5.4t1.5.333A6.852,6.852,0,0,1,8-5.229a2.579,2.579,0,0,1,.936.675,1.613,1.613,0,0,1,.351,1.08A2.1,2.1,0,0,1,9-2.322a2.1,2.1,0,0,1-.756.711,3.42,3.42,0,0,1-1.053.369,6.384,6.384,0,0,1-1.161.108,5.494,5.494,0,0,1-1.4-.18,3.494,3.494,0,0,1-1.2-.558A2.864,2.864,0,0,1,2.6-2.835,2.9,2.9,0,0,1,2.286-4.23H.666A4.519,4.519,0,0,0,1.089-2.2,3.883,3.883,0,0,0,2.241-.8,5.045,5.045,0,0,0,3.933.018a7.536,7.536,0,0,0,2.043.27A7.813,7.813,0,0,0,7.749.081,5.131,5.131,0,0,0,9.36-.585a3.778,3.778,0,0,0,1.179-1.188A3.227,3.227,0,0,0,11-3.528a3.223,3.223,0,0,0-.351-1.584,3.127,3.127,0,0,0-.936-1.044,4.958,4.958,0,0,0-1.323-.657q-.738-.243-1.5-.423t-1.5-.333a7.87,7.87,0,0,1-1.323-.387,2.6,2.6,0,0,1-.936-.6,1.34,1.34,0,0,1-.351-.963,2.087,2.087,0,0,1,.243-1.053,1.89,1.89,0,0,1,.648-.675,2.82,2.82,0,0,1,.927-.36,5.228,5.228,0,0,1,1.062-.108,3.629,3.629,0,0,1,2.187.621A2.678,2.678,0,0,1,8.838-9.09Zm10.44,3.546H13.932a3.187,3.187,0,0,1,.234-1.017,2.713,2.713,0,0,1,.54-.837,2.473,2.473,0,0,1,.819-.567A2.664,2.664,0,0,1,16.6-8.172a2.617,2.617,0,0,1,1.053.207,2.649,2.649,0,0,1,.828.558,2.622,2.622,0,0,1,.558.837A3.13,3.13,0,0,1,19.278-5.544Zm1.476,2.592H19.242a2.176,2.176,0,0,1-.819,1.368,2.648,2.648,0,0,1-1.593.45,3.169,3.169,0,0,1-1.314-.252,2.575,2.575,0,0,1-.918-.675,2.63,2.63,0,0,1-.522-.972,3.694,3.694,0,0,1-.144-1.161H20.9a7.409,7.409,0,0,0-.153-1.782A5.159,5.159,0,0,0,20.061-7.7a4.076,4.076,0,0,0-1.314-1.305,3.818,3.818,0,0,0-2.061-.513,4.232,4.232,0,0,0-1.755.36,4.125,4.125,0,0,0-1.386,1.008,4.646,4.646,0,0,0-.909,1.53,5.6,5.6,0,0,0-.324,1.944,7.46,7.46,0,0,0,.315,1.962,4.282,4.282,0,0,0,.837,1.548A3.815,3.815,0,0,0,14.841-.162,4.78,4.78,0,0,0,16.776.2,4.224,4.224,0,0,0,19.4-.594,3.719,3.719,0,0,0,20.754-2.952ZM30.726-.036V-1.224a1.515,1.515,0,0,1-.468.09q-.36,0-.423-.252a3.581,3.581,0,0,1-.063-.792V-6.966a2.506,2.506,0,0,0-.306-1.314,2.157,2.157,0,0,0-.81-.783,3.27,3.27,0,0,0-1.125-.369,8.711,8.711,0,0,0-1.251-.09A6.546,6.546,0,0,0,24.8-9.36a3.621,3.621,0,0,0-1.242.531,2.729,2.729,0,0,0-.864.963,3.3,3.3,0,0,0-.36,1.458h1.53a1.566,1.566,0,0,1,.7-1.395,3.236,3.236,0,0,1,1.62-.369,5.03,5.03,0,0,1,.729.054,1.976,1.976,0,0,1,.666.216,1.3,1.3,0,0,1,.486.468,1.527,1.527,0,0,1,.189.81.835.835,0,0,1-.252.657,1.665,1.665,0,0,1-.684.342,6.669,6.669,0,0,1-1,.18q-.567.063-1.2.189-.594.108-1.161.27a3.258,3.258,0,0,0-1.008.477,2.356,2.356,0,0,0-.711.819,2.733,2.733,0,0,0-.27,1.3,2.7,2.7,0,0,0,.243,1.2,2.2,2.2,0,0,0,.666.81,2.675,2.675,0,0,0,.981.45A5.039,5.039,0,0,0,25.056.2a4.849,4.849,0,0,0,1.809-.333,3.66,3.66,0,0,0,1.467-1.089,1.448,1.448,0,0,0,.351,1.089A1.317,1.317,0,0,0,29.628.2,2.164,2.164,0,0,0,30.726-.036Zm-2.484-4.77V-3.24a1.73,1.73,0,0,1-.162.693,2.059,2.059,0,0,1-.5.684,2.726,2.726,0,0,1-.882.522,3.624,3.624,0,0,1-1.3.207,3.185,3.185,0,0,1-.675-.072,1.66,1.66,0,0,1-.576-.234,1.275,1.275,0,0,1-.4-.423A1.244,1.244,0,0,1,23.6-2.5a1.437,1.437,0,0,1,.261-.909,1.7,1.7,0,0,1,.675-.513,3.806,3.806,0,0,1,.936-.261q.522-.081,1.035-.144t.981-.162A1.9,1.9,0,0,0,28.242-4.806Zm3.852-4.5V0h1.53V-4.14a6.362,6.362,0,0,1,.18-1.593,3.053,3.053,0,0,1,.576-1.179,2.469,2.469,0,0,1,1.044-.738A4.327,4.327,0,0,1,36.99-7.9v-1.62a3.439,3.439,0,0,0-2.052.5A4.145,4.145,0,0,0,33.57-7.344h-.036V-9.306ZM44.136-6.318H45.72a3.678,3.678,0,0,0-.432-1.431,3.194,3.194,0,0,0-.873-1,3.616,3.616,0,0,0-1.224-.585,5.624,5.624,0,0,0-1.485-.189,4.5,4.5,0,0,0-1.926.387A3.844,3.844,0,0,0,38.4-8.073a4.517,4.517,0,0,0-.819,1.584,6.829,6.829,0,0,0-.27,1.953,6.27,6.27,0,0,0,.279,1.917,4.2,4.2,0,0,0,.828,1.5,3.648,3.648,0,0,0,1.368.972A4.847,4.847,0,0,0,41.67.2a4.043,4.043,0,0,0,2.817-.936A4.286,4.286,0,0,0,45.774-3.4H44.208a2.682,2.682,0,0,1-.783,1.674,2.5,2.5,0,0,1-1.773.594,2.533,2.533,0,0,1-1.242-.288,2.417,2.417,0,0,1-.846-.765,3.377,3.377,0,0,1-.477-1.089,5.175,5.175,0,0,1-.153-1.26,6.33,6.33,0,0,1,.144-1.359,3.408,3.408,0,0,1,.477-1.161,2.471,2.471,0,0,1,.891-.81,2.853,2.853,0,0,1,1.386-.306,2.322,2.322,0,0,1,1.548.486A2.332,2.332,0,0,1,44.136-6.318Zm3.348-6.534V0h1.53V-5.256a3.77,3.77,0,0,1,.171-1.161,2.637,2.637,0,0,1,.513-.927,2.278,2.278,0,0,1,.855-.612,3.118,3.118,0,0,1,1.215-.216,1.873,1.873,0,0,1,1.386.5,1.848,1.848,0,0,1,.5,1.368V0h1.53V-6.12A5.759,5.759,0,0,0,55.035-7.5,2.608,2.608,0,0,0,54.5-8.568a2.515,2.515,0,0,0-.99-.7,4.038,4.038,0,0,0-1.53-.252,4.273,4.273,0,0,0-.855.09,3.781,3.781,0,0,0-.846.279,2.864,2.864,0,0,0-.729.486,2.036,2.036,0,0,0-.5.729h-.036v-4.914Z" transform="translate(6449 1905)"/>
    <path id="Path_193" data-name="Path 193" class="cls-3" d="M4.32-11.412V0H6.03V-11.412h4.284v-1.44H.036v1.44ZM15.948-5.544H10.6a3.187,3.187,0,0,1,.234-1.017,2.713,2.713,0,0,1,.54-.837,2.473,2.473,0,0,1,.819-.567,2.664,2.664,0,0,1,1.071-.207,2.617,2.617,0,0,1,1.053.207,2.649,2.649,0,0,1,.828.558,2.622,2.622,0,0,1,.558.837A3.13,3.13,0,0,1,15.948-5.544Zm1.476,2.592H15.912a2.176,2.176,0,0,1-.819,1.368,2.648,2.648,0,0,1-1.593.45,3.169,3.169,0,0,1-1.314-.252,2.575,2.575,0,0,1-.918-.675,2.63,2.63,0,0,1-.522-.972A3.694,3.694,0,0,1,10.6-4.194h6.966a7.409,7.409,0,0,0-.153-1.782A5.159,5.159,0,0,0,16.731-7.7a4.076,4.076,0,0,0-1.314-1.305,3.818,3.818,0,0,0-2.061-.513,4.232,4.232,0,0,0-1.755.36,4.125,4.125,0,0,0-1.386,1.008,4.646,4.646,0,0,0-.909,1.53A5.6,5.6,0,0,0,8.982-4.68,7.46,7.46,0,0,0,9.3-2.718a4.282,4.282,0,0,0,.837,1.548A3.815,3.815,0,0,0,11.511-.162,4.78,4.78,0,0,0,13.446.2a4.224,4.224,0,0,0,2.628-.792A3.719,3.719,0,0,0,17.424-2.952ZM27.4-.036V-1.224a1.515,1.515,0,0,1-.468.09q-.36,0-.423-.252a3.581,3.581,0,0,1-.063-.792V-6.966a2.506,2.506,0,0,0-.306-1.314,2.157,2.157,0,0,0-.81-.783A3.27,3.27,0,0,0,24.2-9.432a8.711,8.711,0,0,0-1.251-.09,6.546,6.546,0,0,0-1.476.162,3.621,3.621,0,0,0-1.242.531,2.729,2.729,0,0,0-.864.963,3.3,3.3,0,0,0-.36,1.458h1.53a1.566,1.566,0,0,1,.7-1.395,3.236,3.236,0,0,1,1.62-.369,5.03,5.03,0,0,1,.729.054,1.976,1.976,0,0,1,.666.216,1.3,1.3,0,0,1,.486.468,1.527,1.527,0,0,1,.189.81.835.835,0,0,1-.252.657,1.665,1.665,0,0,1-.684.342,6.669,6.669,0,0,1-1,.18q-.567.063-1.2.189-.594.108-1.161.27a3.258,3.258,0,0,0-1.008.477,2.356,2.356,0,0,0-.711.819,2.733,2.733,0,0,0-.27,1.3,2.7,2.7,0,0,0,.243,1.2,2.2,2.2,0,0,0,.666.81,2.675,2.675,0,0,0,.981.45A5.039,5.039,0,0,0,21.726.2a4.849,4.849,0,0,0,1.809-.333A3.66,3.66,0,0,0,25-1.224a1.448,1.448,0,0,0,.351,1.089A1.317,1.317,0,0,0,26.3.2,2.164,2.164,0,0,0,27.4-.036Zm-2.484-4.77V-3.24a1.73,1.73,0,0,1-.162.693,2.059,2.059,0,0,1-.5.684,2.726,2.726,0,0,1-.882.522,3.624,3.624,0,0,1-1.3.207,3.185,3.185,0,0,1-.675-.072,1.66,1.66,0,0,1-.576-.234,1.275,1.275,0,0,1-.4-.423,1.244,1.244,0,0,1-.153-.639,1.437,1.437,0,0,1,.261-.909,1.7,1.7,0,0,1,.675-.513,3.806,3.806,0,0,1,.936-.261q.522-.081,1.035-.144t.981-.162A1.9,1.9,0,0,0,24.912-4.806Zm3.906-4.5V0h1.53V-5.8a2.221,2.221,0,0,1,.135-.675,2.6,2.6,0,0,1,.432-.783,2.59,2.59,0,0,1,.774-.648,2.285,2.285,0,0,1,1.143-.27,2.057,2.057,0,0,1,.855.153,1.3,1.3,0,0,1,.531.432,1.757,1.757,0,0,1,.279.657,3.955,3.955,0,0,1,.081.828V0h1.53V-5.8a2.335,2.335,0,0,1,.648-1.728,2.408,2.408,0,0,1,1.782-.648,2.182,2.182,0,0,1,.909.162A1.348,1.348,0,0,1,40-7.569a1.654,1.654,0,0,1,.27.657,4.328,4.328,0,0,1,.072.81V0h1.53V-6.822a3.058,3.058,0,0,0-.225-1.233,2.163,2.163,0,0,0-.63-.837,2.632,2.632,0,0,0-.972-.477,4.872,4.872,0,0,0-1.269-.153,3.479,3.479,0,0,0-1.683.414,3.249,3.249,0,0,0-1.233,1.17,2.016,2.016,0,0,0-.99-1.224,3.381,3.381,0,0,0-1.566-.36,3.384,3.384,0,0,0-3.006,1.584h-.036V-9.306Z" transform="translate(6327 1905)"/>
    <path id="Path_195" data-name="Path 195" class="cls-6" d="M-2.66-28.56H2.66L13.66,0H8.3L5.62-7.56H-5.78L-8.46,0h-5.16Zm-1.76,17.2H4.3L.02-23.64H-.1Z" transform="translate(6609 1906)"/>
    <g id="Rectangle_234" data-name="Rectangle 234" class="cls-7" transform="translate(6126 1842)">
      <rect class="cls-12" width="161" height="109"/>
      <rect class="cls-13" x="0.5" y="0.5" width="160" height="108"/>
    </g>
    <g class="cls-14" transform="matrix(1, 0, 0, 1, 0, 0)">
      <rect id="Rectangle_235-2" data-name="Rectangle 235" class="cls-8" width="522.916" height="647.048" transform="translate(5764 1934.47)"/>
    </g>
    <g id="Rectangle_236" data-name="Rectangle 236" class="cls-9" transform="translate(5831 2016)">
      <rect class="cls-12" width="179" height="59"/>
      <rect class="cls-13" x="0.5" y="0.5" width="178" height="58"/>
    </g>
    <path id="Path_192" data-name="Path 192" class="cls-6" d="M26.72,53.04V35.52H21.28V53.04H3.84v5.44H21.28V76h5.44V58.48H44.16V53.04Z" transform="translate(6183 1839)"/>
    <path id="Path_183" data-name="Path 183" class="cls-6" d="M6.03-8.85l3.63-9.99h.06l3.57,9.99ZM8.16-21.42-.18,0H2.73l2.4-6.45h9.06L16.53,0h3.15L11.31-21.42ZM23.22-7.62a10.2,10.2,0,0,1,.24-2.22,5.873,5.873,0,0,1,.78-1.92,4.061,4.061,0,0,1,1.44-1.35,4.379,4.379,0,0,1,2.19-.51,4.733,4.733,0,0,1,2.25.495,4.367,4.367,0,0,1,1.515,1.305,5.457,5.457,0,0,1,.855,1.875,8.938,8.938,0,0,1,.27,2.2,8.994,8.994,0,0,1-.255,2.13,5.582,5.582,0,0,1-.825,1.875A4.389,4.389,0,0,1,30.21-2.4a4.379,4.379,0,0,1-2.19.51,4.555,4.555,0,0,1-2.145-.48,4.263,4.263,0,0,1-1.5-1.29,5.708,5.708,0,0,1-.87-1.845A7.931,7.931,0,0,1,23.22-7.62ZM35.22,0V-21.42H32.67v7.98h-.06A4.108,4.108,0,0,0,31.575-14.6a5.88,5.88,0,0,0-1.305-.75,6.55,6.55,0,0,0-1.38-.4,7.553,7.553,0,0,0-1.29-.12,7.059,7.059,0,0,0-3.105.645,6.374,6.374,0,0,0-2.22,1.74,7.346,7.346,0,0,0-1.32,2.565A10.942,10.942,0,0,0,20.52-7.8a10.6,10.6,0,0,0,.45,3.12A7.712,7.712,0,0,0,22.305-2.1a6.452,6.452,0,0,0,2.22,1.77A7,7,0,0,0,27.66.33a7.56,7.56,0,0,0,2.97-.57A3.753,3.753,0,0,0,32.61-2.1h.06V0Zm5.79-7.62a10.2,10.2,0,0,1,.24-2.22,5.873,5.873,0,0,1,.78-1.92,4.061,4.061,0,0,1,1.44-1.35,4.379,4.379,0,0,1,2.19-.51,4.733,4.733,0,0,1,2.25.495,4.367,4.367,0,0,1,1.515,1.305,5.457,5.457,0,0,1,.855,1.875,8.938,8.938,0,0,1,.27,2.2,8.994,8.994,0,0,1-.255,2.13,5.582,5.582,0,0,1-.825,1.875A4.389,4.389,0,0,1,48-2.4a4.379,4.379,0,0,1-2.19.51,4.555,4.555,0,0,1-2.145-.48,4.263,4.263,0,0,1-1.5-1.29,5.708,5.708,0,0,1-.87-1.845A7.931,7.931,0,0,1,41.01-7.62ZM53.01,0V-21.42H50.46v7.98H50.4A4.108,4.108,0,0,0,49.365-14.6a5.88,5.88,0,0,0-1.305-.75,6.55,6.55,0,0,0-1.38-.4,7.553,7.553,0,0,0-1.29-.12,7.059,7.059,0,0,0-3.1.645,6.374,6.374,0,0,0-2.22,1.74,7.346,7.346,0,0,0-1.32,2.565A10.942,10.942,0,0,0,38.31-7.8a10.6,10.6,0,0,0,.45,3.12A7.712,7.712,0,0,0,40.1-2.1a6.452,6.452,0,0,0,2.22,1.77A7,7,0,0,0,45.45.33a7.56,7.56,0,0,0,2.97-.57A3.753,3.753,0,0,0,50.4-2.1h.06V0Z" transform="translate(5831 1989)"/>
    <g id="Rectangle_237" data-name="Rectangle 237" class="cls-10" transform="translate(5831 2183)">
      <rect class="cls-12" width="388" height="59"/>
      <rect class="cls-13" x="0.5" y="0.5" width="387" height="58"/>
    </g>
    <g id="Rectangle_243" data-name="Rectangle 243" class="cls-10" transform="translate(5831 2263)">
      <rect class="cls-12" width="388" height="59"/>
      <rect class="cls-13" x="0.5" y="0.5" width="387" height="58"/>
    </g>
    <g id="Rectangle_238" data-name="Rectangle 238" class="cls-10" transform="translate(5831 2473)">
      <rect class="cls-12" width="388" height="59"/>
      <rect class="cls-13" x="0.5" y="0.5" width="387" height="58"/>
    </g>
    <g id="Rectangle_239" data-name="Rectangle 239" class="cls-11" transform="translate(5831 2097)">
      <rect class="cls-12" width="179" height="59"/>
      <rect class="cls-13" x="0.5" y="0.5" width="178" height="58"/>
    </g>
    <g id="Rectangle_240" data-name="Rectangle 240" class="cls-9" transform="translate(6040 2016)">
      <rect class="cls-12" width="179" height="59"/>
      <rect class="cls-13" x="0.5" y="0.5" width="178" height="58"/>
    </g>
    <g id="Rectangle_241" data-name="Rectangle 241" class="cls-9" transform="translate(6040 2097)">
      <rect class="cls-12" width="179" height="59"/>
      <rect class="cls-13" x="0.5" y="0.5" width="178" height="58"/>
    </g>
    <path id="Path_184" data-name="Path 184" class="cls-3" d="M49.407,4.148V17h1.71V11.114h5.9V9.674h-5.9V5.588h6.732V4.148Zm11.2,8.208a4.63,4.63,0,0,1,.225-1.5,3.244,3.244,0,0,1,.621-1.107,2.645,2.645,0,0,1,.927-.684,2.821,2.821,0,0,1,2.25,0,2.645,2.645,0,0,1,.927.684,3.244,3.244,0,0,1,.621,1.107,4.63,4.63,0,0,1,.225,1.5,4.63,4.63,0,0,1-.225,1.5,3.145,3.145,0,0,1-.621,1.1,2.7,2.7,0,0,1-.927.675,2.821,2.821,0,0,1-2.25,0,2.7,2.7,0,0,1-.927-.675,3.145,3.145,0,0,1-.621-1.1A4.63,4.63,0,0,1,60.6,12.356Zm-1.62,0a6.113,6.113,0,0,0,.288,1.908,4.355,4.355,0,0,0,.864,1.539,3.975,3.975,0,0,0,1.422,1.026,5.329,5.329,0,0,0,3.9,0A3.993,3.993,0,0,0,66.867,15.8a4.355,4.355,0,0,0,.864-1.539,6.113,6.113,0,0,0,.288-1.908,6.2,6.2,0,0,0-.288-1.917,4.343,4.343,0,0,0-.864-1.548,4.091,4.091,0,0,0-1.413-1.035,5.211,5.211,0,0,0-3.9,0,4.07,4.07,0,0,0-1.422,1.035,4.343,4.343,0,0,0-.864,1.548A6.2,6.2,0,0,0,58.983,12.356ZM69.909,4.148V17h1.53V4.148Zm5.022,8.28a6.122,6.122,0,0,1,.144-1.332,3.524,3.524,0,0,1,.468-1.152,2.437,2.437,0,0,1,.864-.81,2.627,2.627,0,0,1,1.314-.306,2.84,2.84,0,0,1,1.35.3,2.62,2.62,0,0,1,.909.783,3.274,3.274,0,0,1,.513,1.125,5.449,5.449,0,0,1,.009,2.6,3.349,3.349,0,0,1-.495,1.125,2.526,2.526,0,0,1-2.2,1.107,2.733,2.733,0,0,1-1.287-.288,2.558,2.558,0,0,1-.9-.774A3.425,3.425,0,0,1,75.1,13.7,4.758,4.758,0,0,1,74.931,12.428ZM82.131,17V4.148H80.6V8.936h-.036a2.465,2.465,0,0,0-.621-.693,3.528,3.528,0,0,0-.783-.45,3.93,3.93,0,0,0-.828-.243,4.532,4.532,0,0,0-.774-.072,4.236,4.236,0,0,0-1.863.387,3.825,3.825,0,0,0-1.332,1.044,4.408,4.408,0,0,0-.792,1.539,6.565,6.565,0,0,0-.261,1.872,6.361,6.361,0,0,0,.27,1.872,4.628,4.628,0,0,0,.8,1.548A3.871,3.871,0,0,0,75.714,16.8a4.2,4.2,0,0,0,1.881.4,4.536,4.536,0,0,0,1.782-.342,2.252,2.252,0,0,0,1.188-1.116H80.6V17Zm8.82-5.544H85.6a3.187,3.187,0,0,1,.234-1.017,2.712,2.712,0,0,1,.54-.837,2.473,2.473,0,0,1,.819-.567,2.664,2.664,0,0,1,1.071-.207,2.617,2.617,0,0,1,1.053.207,2.649,2.649,0,0,1,.828.558,2.622,2.622,0,0,1,.558.837A3.13,3.13,0,0,1,90.951,11.456Zm1.476,2.592H90.915a2.176,2.176,0,0,1-.819,1.368,2.648,2.648,0,0,1-1.593.45,3.169,3.169,0,0,1-1.314-.252,2.575,2.575,0,0,1-.918-.675,2.629,2.629,0,0,1-.522-.972,3.694,3.694,0,0,1-.144-1.161h6.966a7.409,7.409,0,0,0-.153-1.782A5.159,5.159,0,0,0,91.734,9.3,4.076,4.076,0,0,0,90.42,7.991a3.818,3.818,0,0,0-2.061-.513,4.232,4.232,0,0,0-1.755.36,4.125,4.125,0,0,0-1.386,1.008,4.646,4.646,0,0,0-.909,1.53,5.6,5.6,0,0,0-.324,1.944,7.459,7.459,0,0,0,.315,1.962,4.282,4.282,0,0,0,.837,1.548,3.815,3.815,0,0,0,1.377,1.008,4.78,4.78,0,0,0,1.935.36,4.224,4.224,0,0,0,2.628-.792A3.719,3.719,0,0,0,92.427,14.048ZM94.1,7.694V17h1.53V12.86a6.362,6.362,0,0,1,.18-1.593,3.053,3.053,0,0,1,.576-1.179,2.469,2.469,0,0,1,1.044-.738A4.327,4.327,0,0,1,99,9.1V7.478a3.439,3.439,0,0,0-2.052.5,4.145,4.145,0,0,0-1.368,1.674h-.036V7.694Z" transform="translate(5848 2035)"/>
    <path id="Path_188" data-name="Path 188" class="cls-3" d="M11.79,17l5.9-12.852H15.93L11.25,15h-.036l-.72-10.854H8.55L3.618,14.966H3.582L3.132,4.148H1.44L2.25,17H4.086L9.162,5.912H9.2L10.008,17Zm5.616-4.194h7q.036-.2.09-.522a4.159,4.159,0,0,0,.054-.684,4.472,4.472,0,0,0-.945-3.042,3.784,3.784,0,0,0-3-1.08,4.069,4.069,0,0,0-1.827.432,4.665,4.665,0,0,0-1.53,1.224,6.088,6.088,0,0,0-1.044,1.9,7.348,7.348,0,0,0-.387,2.439A4.8,4.8,0,0,0,16,14.741a3.235,3.235,0,0,0,.63,1.206,3.335,3.335,0,0,0,1.215.9,4.6,4.6,0,0,0,1.917.351A5.154,5.154,0,0,0,21.2,17a4.222,4.222,0,0,0,1.242-.585,3.678,3.678,0,0,0,.954-.972,4.026,4.026,0,0,0,.576-1.359h-1.53a2.7,2.7,0,0,1-.99,1.323,2.916,2.916,0,0,1-1.692.459,2.676,2.676,0,0,1-.9-.153,2.572,2.572,0,0,1-.774-.432,1.967,1.967,0,0,1-.54-.7,2.246,2.246,0,0,1-.2-.963A5.989,5.989,0,0,1,17.406,12.806Zm5.616-1.35h-5.4a4.937,4.937,0,0,1,.432-1.017A3.358,3.358,0,0,1,18.72,9.6a2.962,2.962,0,0,1,.927-.567,3.274,3.274,0,0,1,1.2-.207,2.279,2.279,0,0,1,1.062.225,1.915,1.915,0,0,1,.693.594,2.232,2.232,0,0,1,.36.846A3.459,3.459,0,0,1,23.022,11.456Zm4.914-7.308L25.236,17h1.35l.342-1.728h.036a1.711,1.711,0,0,0,.333.7,2.735,2.735,0,0,0,.666.612,3.717,3.717,0,0,0,.945.441A3.92,3.92,0,0,0,30.1,17.2a4.38,4.38,0,0,0,2.1-.486,4.889,4.889,0,0,0,1.539-1.278,5.6,5.6,0,0,0,.954-1.818,7.011,7.011,0,0,0,.324-2.124,5.6,5.6,0,0,0-.225-1.638,3.436,3.436,0,0,0-.675-1.26,3.1,3.1,0,0,0-1.134-.819,4.046,4.046,0,0,0-1.62-.3,3.476,3.476,0,0,0-1.593.369,3.7,3.7,0,0,0-1.251,1.035l-.036-.036.99-4.7Zm5.544,7.344a5.378,5.378,0,0,1-.216,1.44,4.938,4.938,0,0,1-.648,1.422,3.957,3.957,0,0,1-1.062,1.08,2.515,2.515,0,0,1-1.458.432,2.693,2.693,0,0,1-1.836-.612,2.148,2.148,0,0,1-.7-1.71,6.212,6.212,0,0,1,.216-1.566,5.152,5.152,0,0,1,.675-1.53,3.887,3.887,0,0,1,1.179-1.161,3.147,3.147,0,0,1,1.728-.459,2,2,0,0,1,.936.207,1.871,1.871,0,0,1,.657.567,2.622,2.622,0,0,1,.4.846A3.887,3.887,0,0,1,33.48,11.492Zm5.112-7.344L35.91,17h1.512l2.7-12.852Zm5.13,1.872.4-1.872H42.57l-.4,1.872Zm-1.89,1.674L39.906,17h1.512l1.944-9.306Zm4.014,0L43.9,17h1.512l1.08-5.148a6.472,6.472,0,0,1,.378-1.071,2.537,2.537,0,0,1,.648-.873,3.551,3.551,0,0,1,1.053-.774,2.806,2.806,0,0,1,1.251-.306,2.016,2.016,0,0,1,1.152.315,1.1,1.1,0,0,1,.468.981,2.3,2.3,0,0,1-.027.315q-.027.189-.063.4t-.072.4q-.036.189-.054.333L50.04,17h1.53L52.7,11.69q.126-.54.2-1.026a5.636,5.636,0,0,0,.072-.792,2.333,2.333,0,0,0-.639-1.818,2.844,2.844,0,0,0-1.953-.576,4.392,4.392,0,0,0-1.854.4A3.615,3.615,0,0,0,47.07,9.1h-.036l.288-1.4ZM56.61,4.148,53.91,17h1.512l.7-3.312L57.96,12.05,59.778,17h1.71l-2.3-5.868,4.05-3.438h-2l-4.68,4.05-.036-.036,1.6-7.56Zm22.464,1.44.324-1.44H69.03l-.306,1.44h4.32L70.632,17h1.71L74.754,5.588Zm2.646.432.4-1.872H80.568l-.4,1.872ZM79.83,7.694,77.9,17h1.512L81.36,7.694Zm6.12,0,.576-2.754H85L84.42,7.694H82.854l-.288,1.35h1.566l-1.224,5.778q-.036.216-.063.4a2.548,2.548,0,0,0-.027.378,1.429,1.429,0,0,0,.171.738,1.319,1.319,0,0,0,.45.459,1.816,1.816,0,0,0,.657.234,4.93,4.93,0,0,0,.81.063q.27,0,.54-.027t.54-.063l.27-1.4a3.846,3.846,0,0,1-.432.117,2.2,2.2,0,0,1-.45.045,1.449,1.449,0,0,1-.639-.135.5.5,0,0,1-.279-.495,2.47,2.47,0,0,1,.018-.306q.018-.144.036-.306l1.152-5.472h1.854l.288-1.35Zm4.3-3.546L87.57,17h1.512l2.7-12.852Zm3.15,8.658h7q.036-.2.09-.522a4.158,4.158,0,0,0,.054-.684A4.472,4.472,0,0,0,99.6,8.558a3.784,3.784,0,0,0-3-1.08,4.069,4.069,0,0,0-1.827.432,4.665,4.665,0,0,0-1.53,1.224,6.088,6.088,0,0,0-1.044,1.9,7.348,7.348,0,0,0-.387,2.439A4.8,4.8,0,0,0,92,14.741a3.235,3.235,0,0,0,.63,1.206,3.335,3.335,0,0,0,1.215.9,4.6,4.6,0,0,0,1.917.351A5.154,5.154,0,0,0,97.2,17a4.222,4.222,0,0,0,1.242-.585,3.678,3.678,0,0,0,.954-.972,4.026,4.026,0,0,0,.576-1.359h-1.53a2.7,2.7,0,0,1-.99,1.323,2.916,2.916,0,0,1-1.692.459,2.676,2.676,0,0,1-.9-.153,2.572,2.572,0,0,1-.774-.432,1.967,1.967,0,0,1-.54-.7,2.246,2.246,0,0,1-.2-.963A5.989,5.989,0,0,1,93.4,12.806Zm5.616-1.35h-5.4a4.937,4.937,0,0,1,.432-1.017,3.358,3.358,0,0,1,.666-.837,2.962,2.962,0,0,1,.927-.567,3.274,3.274,0,0,1,1.2-.207,2.279,2.279,0,0,1,1.062.225,1.915,1.915,0,0,1,.693.594,2.232,2.232,0,0,1,.36.846A3.459,3.459,0,0,1,99.018,11.456Z" transform="translate(5870 2202)"/>
    <path id="Path_189" data-name="Path 189" class="cls-3" d="M3.258,10.3l.99-4.716H7.866a2.937,2.937,0,0,1,.81.108,1.776,1.776,0,0,1,.666.351,1.688,1.688,0,0,1,.459.648,2.572,2.572,0,0,1,.171,1,2.563,2.563,0,0,1-.72,1.881,2.859,2.859,0,0,1-2.124.729Zm-.45-6.156L.126,17h1.71l1.116-5.256H6.768a6.03,6.03,0,0,0,2.367-.4,4.373,4.373,0,0,0,1.512-1.017A3.6,3.6,0,0,0,11.448,9a4.2,4.2,0,0,0,.234-1.305A3.4,3.4,0,0,0,10.7,5.03a4.1,4.1,0,0,0-2.835-.882Zm9.81,6.354h1.53a1.715,1.715,0,0,1,.306-.765,2,2,0,0,1,.576-.522,2.449,2.449,0,0,1,.765-.3,4.1,4.1,0,0,1,.855-.09,3.994,3.994,0,0,1,.639.054,2.087,2.087,0,0,1,.6.189,1.284,1.284,0,0,1,.45.369.976.976,0,0,1,.18.612,1.671,1.671,0,0,1-.135.738.913.913,0,0,1-.423.414,2.4,2.4,0,0,1-.729.207q-.441.063-1.053.117-.774.072-1.6.18a5.6,5.6,0,0,0-1.512.4,2.791,2.791,0,0,0-1.125.873,2.581,2.581,0,0,0-.441,1.6,2.929,2.929,0,0,0,.225,1.215,2.242,2.242,0,0,0,.6.81,2.276,2.276,0,0,0,.891.45,4.338,4.338,0,0,0,1.107.135,4.487,4.487,0,0,0,1.908-.342,3.21,3.21,0,0,0,1.206-.99l.036.036a1.128,1.128,0,0,0,.252.954,1.253,1.253,0,0,0,.954.342,2.22,2.22,0,0,0,.477-.063A3.105,3.105,0,0,0,19.62,17l.234-1.134-.243.081a.778.778,0,0,1-.243.045.439.439,0,0,1-.324-.126.63.63,0,0,1-.126-.45,2.581,2.581,0,0,1,.1-.684q.1-.36.153-.648l.594-2.538q.09-.378.189-.837a4.07,4.07,0,0,0,.1-.855,2.2,2.2,0,0,0-.279-1.161,2.072,2.072,0,0,0-.747-.729,3.286,3.286,0,0,0-1.08-.378,7.453,7.453,0,0,0-1.3-.108,5.565,5.565,0,0,0-1.422.18A3.8,3.8,0,0,0,14,8.216a3.413,3.413,0,0,0-.909.945A3.248,3.248,0,0,0,12.618,10.5Zm.4,4.068a1.442,1.442,0,0,1,.306-.927,1.878,1.878,0,0,1,.738-.513,4.418,4.418,0,0,1,1.017-.261q.567-.081,1.125-.135a10.562,10.562,0,0,0,1.053-.153,2.079,2.079,0,0,0,.819-.333h.036q-.162.648-.3,1.26a3.029,3.029,0,0,1-.513,1.134,2.873,2.873,0,0,1-2.61,1.224,2.128,2.128,0,0,1-1.161-.324A1.074,1.074,0,0,1,13.014,14.57ZM27.4,10.43h1.53a2.865,2.865,0,0,0-.306-1.377,2.644,2.644,0,0,0-.8-.918,3.25,3.25,0,0,0-1.125-.5,5.4,5.4,0,0,0-1.278-.153,4.536,4.536,0,0,0-1.269.18,3.828,3.828,0,0,0-1.107.513,2.609,2.609,0,0,0-.783.837,2.226,2.226,0,0,0-.3,1.152,1.954,1.954,0,0,0,.207.918,2.293,2.293,0,0,0,.558.693,3.822,3.822,0,0,0,.792.513q.441.216.909.4.45.2.891.369a5.62,5.62,0,0,1,.783.369,2.238,2.238,0,0,1,.558.441.85.85,0,0,1,.216.585,1.133,1.133,0,0,1-.189.666,1.467,1.467,0,0,1-.5.441,2.258,2.258,0,0,1-.684.243,4.032,4.032,0,0,1-.756.072,4.628,4.628,0,0,1-.927-.09,2.339,2.339,0,0,1-.774-.3,1.46,1.46,0,0,1-.522-.558,1.543,1.543,0,0,1-.153-.855H20.862a3.479,3.479,0,0,0,.288,1.5,2.492,2.492,0,0,0,.783.963,3.146,3.146,0,0,0,1.179.513,6.845,6.845,0,0,0,1.494.153,6.129,6.129,0,0,0,1.359-.153,3.835,3.835,0,0,0,1.215-.5,2.78,2.78,0,0,0,.882-.891,2.453,2.453,0,0,0,.342-1.323,1.979,1.979,0,0,0-.216-.945,2.445,2.445,0,0,0-.558-.7,4.166,4.166,0,0,0-.783-.531q-.441-.234-.909-.432-.45-.18-.891-.351a6.107,6.107,0,0,1-.792-.369,2.141,2.141,0,0,1-.558-.432.814.814,0,0,1-.207-.558.908.908,0,0,1,.18-.585,1.306,1.306,0,0,1,.459-.36,2.215,2.215,0,0,1,.639-.189,4.73,4.73,0,0,1,.7-.054,2.348,2.348,0,0,1,1.386.4A1.291,1.291,0,0,1,27.4,10.43Zm6.246-2.736.576-2.754h-1.53l-.576,2.754H30.546l-.288,1.35h1.566L30.6,14.822q-.036.216-.063.4a2.548,2.548,0,0,0-.027.378,1.429,1.429,0,0,0,.171.738,1.319,1.319,0,0,0,.45.459,1.816,1.816,0,0,0,.657.234,4.93,4.93,0,0,0,.81.063q.27,0,.54-.027t.54-.063l.27-1.4a3.846,3.846,0,0,1-.432.117,2.2,2.2,0,0,1-.45.045,1.449,1.449,0,0,1-.639-.135.5.5,0,0,1-.279-.495,2.47,2.47,0,0,1,.018-.306q.018-.144.036-.306l1.152-5.472h1.854l.288-1.35ZM37.1,12.806h7q.036-.2.09-.522a4.159,4.159,0,0,0,.054-.684A4.472,4.472,0,0,0,43.3,8.558a3.784,3.784,0,0,0-3-1.08,4.069,4.069,0,0,0-1.827.432,4.665,4.665,0,0,0-1.53,1.224,6.088,6.088,0,0,0-1.044,1.9,7.348,7.348,0,0,0-.387,2.439,4.8,4.8,0,0,0,.18,1.269,3.235,3.235,0,0,0,.63,1.206,3.335,3.335,0,0,0,1.215.9,4.6,4.6,0,0,0,1.917.351A5.154,5.154,0,0,0,40.9,17a4.222,4.222,0,0,0,1.242-.585,3.678,3.678,0,0,0,.954-.972,4.026,4.026,0,0,0,.576-1.359h-1.53a2.7,2.7,0,0,1-.99,1.323,2.916,2.916,0,0,1-1.692.459,2.676,2.676,0,0,1-.9-.153,2.572,2.572,0,0,1-.774-.432,1.967,1.967,0,0,1-.54-.7,2.246,2.246,0,0,1-.2-.963A5.989,5.989,0,0,1,37.1,12.806Zm5.616-1.35h-5.4a4.937,4.937,0,0,1,.432-1.017,3.358,3.358,0,0,1,.666-.837,2.962,2.962,0,0,1,.927-.567,3.274,3.274,0,0,1,1.2-.207,2.279,2.279,0,0,1,1.062.225,1.915,1.915,0,0,1,.693.594,2.232,2.232,0,0,1,.36.846A3.459,3.459,0,0,1,42.714,11.456Zm18.792.4,1.6-7.7H61.4l-1.62,7.7a16.8,16.8,0,0,1-.441,1.638,4.045,4.045,0,0,1-.666,1.269,2.77,2.77,0,0,1-1.089.819,4.4,4.4,0,0,1-1.728.288,3.384,3.384,0,0,1-2.682-.918,3.108,3.108,0,0,1-.36-2.808L54.5,4.148h-1.71l-1.6,7.56a4.789,4.789,0,0,0,.621,4.149q1.179,1.431,4.041,1.431a7.582,7.582,0,0,0,1.575-.162,5.17,5.17,0,0,0,1.422-.522,4.458,4.458,0,0,0,1.17-.927,4.6,4.6,0,0,0,.837-1.359,6.9,6.9,0,0,0,.324-1.044Q61.344,12.608,61.506,11.852Zm4.338-7.7L63.126,17h1.71l1.152-5.49H70.47a1.987,1.987,0,0,1,.576.126,1.024,1.024,0,0,1,.486.4,1.829,1.829,0,0,1,.261.819,5.156,5.156,0,0,1-.081,1.4,7.813,7.813,0,0,0-.18,1.692A3.688,3.688,0,0,0,71.676,17h1.782a2.059,2.059,0,0,1-.234-.774,4.667,4.667,0,0,1,0-.819q.036-.423.108-.846t.108-.855a4.451,4.451,0,0,0,.009-.936,2.875,2.875,0,0,0-.2-.819,1.881,1.881,0,0,0-.432-.639,1.682,1.682,0,0,0-.693-.4V10.88a3.216,3.216,0,0,0,2.088-1.17,3.7,3.7,0,0,0,.594-1.053,3.531,3.531,0,0,0,.216-1.233,3.223,3.223,0,0,0-.351-1.584,2.774,2.774,0,0,0-.945-1.008A3.947,3.947,0,0,0,72.369,4.3a8.012,8.012,0,0,0-1.575-.153Zm.45,5.922.954-4.482h3.546a5.276,5.276,0,0,1,.936.081,2.285,2.285,0,0,1,.8.3,1.635,1.635,0,0,1,.567.594,1.943,1.943,0,0,1,.216.972,3.1,3.1,0,0,1-.117.783,2.036,2.036,0,0,1-.459.828,2.7,2.7,0,0,1-.963.657,4.134,4.134,0,0,1-1.629.27ZM78.156,4.148,75.456,17H83.97l.306-1.44H77.49L79.866,4.148Zm14.814,0L90.27,17h1.512l1.08-5.148a6.472,6.472,0,0,1,.378-1.071,2.537,2.537,0,0,1,.648-.873,3.551,3.551,0,0,1,1.053-.774,2.806,2.806,0,0,1,1.251-.306,2.016,2.016,0,0,1,1.152.315,1.1,1.1,0,0,1,.468.981,2.3,2.3,0,0,1-.027.315q-.027.189-.063.4t-.072.4q-.036.189-.054.333L96.408,17h1.53l1.134-5.31q.126-.54.2-1.026a5.637,5.637,0,0,0,.072-.792A2.333,2.333,0,0,0,98.7,8.054a2.845,2.845,0,0,0-1.953-.576,4.392,4.392,0,0,0-1.854.4A3.615,3.615,0,0,0,93.438,9.1L93.4,9.062l1.1-4.914Zm9.144,8.658h7q.036-.2.09-.522a4.159,4.159,0,0,0,.054-.684,4.472,4.472,0,0,0-.945-3.042,3.784,3.784,0,0,0-3-1.08,4.069,4.069,0,0,0-1.827.432,4.665,4.665,0,0,0-1.53,1.224,6.088,6.088,0,0,0-1.044,1.9,7.348,7.348,0,0,0-.387,2.439,4.8,4.8,0,0,0,.18,1.269,3.235,3.235,0,0,0,.63,1.206,3.335,3.335,0,0,0,1.215.9,4.6,4.6,0,0,0,1.917.351,5.154,5.154,0,0,0,1.44-.2,4.222,4.222,0,0,0,1.242-.585,3.678,3.678,0,0,0,.954-.972,4.026,4.026,0,0,0,.576-1.359h-1.53a2.7,2.7,0,0,1-.99,1.323,2.916,2.916,0,0,1-1.692.459,2.676,2.676,0,0,1-.9-.153,2.572,2.572,0,0,1-.774-.432,1.967,1.967,0,0,1-.54-.7,2.246,2.246,0,0,1-.2-.963A5.989,5.989,0,0,1,102.114,12.806Zm5.616-1.35h-5.4a4.937,4.937,0,0,1,.432-1.017,3.358,3.358,0,0,1,.666-.837,2.962,2.962,0,0,1,.927-.567,3.274,3.274,0,0,1,1.2-.207,2.279,2.279,0,0,1,1.062.225,1.915,1.915,0,0,1,.693.594,2.232,2.232,0,0,1,.36.846A3.459,3.459,0,0,1,107.73,11.456Zm4.14-3.762L109.944,17h1.512l.882-4.122q.108-.522.288-1.125a3.784,3.784,0,0,1,.486-1.053,3.958,3.958,0,0,1,.855-.954,2.958,2.958,0,0,1,1.125-.558,2.248,2.248,0,0,1,.45-.081q.18-.009.468-.009h.216a1.072,1.072,0,0,1,.234.018l.36-1.638a.7.7,0,0,0-.27-.018,1.912,1.912,0,0,1-.27.018,3.242,3.242,0,0,0-2.007.63A5.1,5.1,0,0,0,112.9,9.692h-.036l.45-2Zm5.58,5.112h7q.036-.2.09-.522a4.159,4.159,0,0,0,.054-.684,4.472,4.472,0,0,0-.945-3.042,3.784,3.784,0,0,0-3-1.08,4.069,4.069,0,0,0-1.827.432,4.665,4.665,0,0,0-1.53,1.224,6.088,6.088,0,0,0-1.044,1.9,7.348,7.348,0,0,0-.387,2.439,4.8,4.8,0,0,0,.18,1.269,3.235,3.235,0,0,0,.63,1.206,3.335,3.335,0,0,0,1.215.9,4.6,4.6,0,0,0,1.917.351,5.154,5.154,0,0,0,1.44-.2,4.222,4.222,0,0,0,1.242-.585,3.678,3.678,0,0,0,.954-.972,4.026,4.026,0,0,0,.576-1.359h-1.53a2.7,2.7,0,0,1-.99,1.323,2.916,2.916,0,0,1-1.692.459,2.676,2.676,0,0,1-.9-.153,2.572,2.572,0,0,1-.774-.432,1.967,1.967,0,0,1-.54-.7,2.246,2.246,0,0,1-.2-.963A5.989,5.989,0,0,1,117.45,12.806Zm5.616-1.35h-5.4a4.937,4.937,0,0,1,.432-1.017,3.358,3.358,0,0,1,.666-.837,2.962,2.962,0,0,1,.927-.567,3.274,3.274,0,0,1,1.2-.207,2.279,2.279,0,0,1,1.062.225,1.915,1.915,0,0,1,.693.594,2.232,2.232,0,0,1,.36.846A3.459,3.459,0,0,1,123.066,11.456Z" transform="translate(5870 2282)"/>
    <path id="Path_191" data-name="Path 191" class="cls-3" d="M101.114,11.69,103.292,5.7h.036l2.142,5.994Zm1.278-7.542L97.388,17h1.746l1.44-3.87h5.436l1.4,3.87h1.89L104.282,4.148Zm9.882,11.412V5.588h2.88a5.269,5.269,0,0,1,2,.333,3.242,3.242,0,0,1,1.323.972,3.952,3.952,0,0,1,.738,1.548,8.6,8.6,0,0,1,.225,2.061,7.338,7.338,0,0,1-.243,2.025,4.932,4.932,0,0,1-.621,1.395,3.249,3.249,0,0,1-.855.882,4.2,4.2,0,0,1-.963.495,4.039,4.039,0,0,1-.918.216,7.172,7.172,0,0,1-.72.045Zm-1.71-11.412V17h4.41a7.715,7.715,0,0,0,2.772-.45,4.837,4.837,0,0,0,1.926-1.3,5.367,5.367,0,0,0,1.116-2.106,10.4,10.4,0,0,0,.36-2.871,6.054,6.054,0,0,0-1.6-4.608,6.408,6.408,0,0,0-4.572-1.512ZM124.946,15.56V5.588h2.88a5.269,5.269,0,0,1,2,.333,3.242,3.242,0,0,1,1.323.972,3.952,3.952,0,0,1,.738,1.548,8.6,8.6,0,0,1,.225,2.061,7.338,7.338,0,0,1-.243,2.025,4.932,4.932,0,0,1-.621,1.395,3.249,3.249,0,0,1-.855.882,4.2,4.2,0,0,1-.963.495,4.038,4.038,0,0,1-.918.216,7.172,7.172,0,0,1-.72.045Zm-1.71-11.412V17h4.41a7.715,7.715,0,0,0,2.772-.45,4.837,4.837,0,0,0,1.926-1.3,5.366,5.366,0,0,0,1.116-2.106,10.4,10.4,0,0,0,.36-2.871,6.054,6.054,0,0,0-1.6-4.608,6.408,6.408,0,0,0-4.572-1.512Z" transform="translate(5909 2491)"/>
    <path id="Path_186" data-name="Path 186" class="cls-6" d="M54.852,17,58.29,4.148H56.58L53.97,14.84h-.036L51.09,4.148H49.236L46.356,14.84H46.32L43.8,4.148H42.054L45.348,17H47.13L50.1,6.2h.036L53.07,17Zm10.242-5.544H59.748a3.187,3.187,0,0,1,.234-1.017,2.713,2.713,0,0,1,.54-.837,2.473,2.473,0,0,1,.819-.567,2.664,2.664,0,0,1,1.071-.207,2.617,2.617,0,0,1,1.053.207,2.649,2.649,0,0,1,.828.558,2.622,2.622,0,0,1,.558.837A3.13,3.13,0,0,1,65.094,11.456Zm1.476,2.592H65.058a2.176,2.176,0,0,1-.819,1.368,2.648,2.648,0,0,1-1.593.45,3.169,3.169,0,0,1-1.314-.252,2.575,2.575,0,0,1-.918-.675,2.63,2.63,0,0,1-.522-.972,3.694,3.694,0,0,1-.144-1.161h6.966a7.409,7.409,0,0,0-.153-1.782A5.159,5.159,0,0,0,65.877,9.3a4.076,4.076,0,0,0-1.314-1.305A3.818,3.818,0,0,0,62.5,7.478a4.232,4.232,0,0,0-1.755.36,4.125,4.125,0,0,0-1.386,1.008,4.646,4.646,0,0,0-.909,1.53,5.6,5.6,0,0,0-.324,1.944,7.459,7.459,0,0,0,.315,1.962,4.282,4.282,0,0,0,.837,1.548,3.815,3.815,0,0,0,1.377,1.008,4.78,4.78,0,0,0,1.935.36,4.224,4.224,0,0,0,2.628-.792A3.719,3.719,0,0,0,66.57,14.048Zm1.782-9.9V17h1.53V15.758h.036a2.465,2.465,0,0,0,.621.693,3.271,3.271,0,0,0,.783.441,4.249,4.249,0,0,0,.837.234,4.6,4.6,0,0,0,.765.072,4.321,4.321,0,0,0,1.863-.378,3.734,3.734,0,0,0,1.332-1.035,4.408,4.408,0,0,0,.792-1.539,6.565,6.565,0,0,0,.261-1.872A6.361,6.361,0,0,0,76.9,10.5a4.73,4.73,0,0,0-.8-1.557,3.826,3.826,0,0,0-1.332-1.071,4.2,4.2,0,0,0-1.881-.4,4.434,4.434,0,0,0-1.782.351,2.291,2.291,0,0,0-1.188,1.125h-.036V4.148Zm7.2,8.118a6.122,6.122,0,0,1-.144,1.332,3.524,3.524,0,0,1-.468,1.152,2.46,2.46,0,0,1-.855.81,2.616,2.616,0,0,1-1.323.306,2.84,2.84,0,0,1-1.35-.3,2.62,2.62,0,0,1-.909-.783,3.274,3.274,0,0,1-.513-1.125,5.449,5.449,0,0,1-.009-2.6,3.349,3.349,0,0,1,.5-1.125,2.526,2.526,0,0,1,2.2-1.107,2.733,2.733,0,0,1,1.287.288,2.558,2.558,0,0,1,.9.774A3.425,3.425,0,0,1,75.381,11,4.758,4.758,0,0,1,75.552,12.266Zm3.51-8.118V17h1.53V4.148ZM84.588,6.02V4.148h-1.53V6.02Zm-1.53,1.674V17h1.53V7.694Zm3.906,0V17h1.53V11.744a3.77,3.77,0,0,1,.171-1.161,2.637,2.637,0,0,1,.513-.927,2.278,2.278,0,0,1,.855-.612,3.118,3.118,0,0,1,1.215-.216,1.873,1.873,0,0,1,1.386.5,1.848,1.848,0,0,1,.5,1.368V17h1.53V10.88A5.759,5.759,0,0,0,94.515,9.5a2.608,2.608,0,0,0-.531-1.071,2.515,2.515,0,0,0-.99-.7,4.038,4.038,0,0,0-1.53-.252A3.221,3.221,0,0,0,88.44,9.17H88.4V7.694Zm10.1-3.546V17h1.53V13.472l1.44-1.332L103.218,17h1.944l-3.96-5.922,3.69-3.384H102.84l-4.248,4.068V4.148Z" transform="translate(5848 2116)"/>
    <path id="Path_185" data-name="Path 185" class="cls-3" d="M55.554,4.148V17h1.62V6.686h.036L63.924,17H65.8V4.148h-1.62V14.57H64.14L57.372,4.148Zm13.878,8.208a4.63,4.63,0,0,1,.225-1.5,3.244,3.244,0,0,1,.621-1.107,2.645,2.645,0,0,1,.927-.684,2.821,2.821,0,0,1,2.25,0,2.645,2.645,0,0,1,.927.684A3.244,3.244,0,0,1,75,10.853a4.63,4.63,0,0,1,.225,1.5,4.63,4.63,0,0,1-.225,1.5,3.145,3.145,0,0,1-.621,1.1,2.7,2.7,0,0,1-.927.675,2.821,2.821,0,0,1-2.25,0,2.7,2.7,0,0,1-.927-.675,3.145,3.145,0,0,1-.621-1.1A4.63,4.63,0,0,1,69.432,12.356Zm-1.62,0a6.113,6.113,0,0,0,.288,1.908,4.355,4.355,0,0,0,.864,1.539,3.975,3.975,0,0,0,1.422,1.026,5.329,5.329,0,0,0,3.9,0A3.993,3.993,0,0,0,75.7,15.8a4.355,4.355,0,0,0,.864-1.539,6.113,6.113,0,0,0,.288-1.908,6.2,6.2,0,0,0-.288-1.917A4.343,4.343,0,0,0,75.7,8.891a4.091,4.091,0,0,0-1.413-1.035,5.211,5.211,0,0,0-3.9,0,4.07,4.07,0,0,0-1.422,1.035,4.343,4.343,0,0,0-.864,1.548A6.2,6.2,0,0,0,67.812,12.356Zm12.96-4.662V4.9h-1.53v2.79H77.658v1.35h1.584v5.922a3.536,3.536,0,0,0,.126,1.044,1.269,1.269,0,0,0,.387.612,1.494,1.494,0,0,0,.684.3A5.494,5.494,0,0,0,81.456,17h1.17V15.65h-.7a5.1,5.1,0,0,1-.585-.027.756.756,0,0,1-.351-.117.445.445,0,0,1-.171-.252,1.67,1.67,0,0,1-.045-.432V9.044h1.854V7.694ZM90.78,11.456H85.434a3.187,3.187,0,0,1,.234-1.017,2.712,2.712,0,0,1,.54-.837,2.473,2.473,0,0,1,.819-.567A2.664,2.664,0,0,1,88.1,8.828a2.617,2.617,0,0,1,1.053.207,2.649,2.649,0,0,1,.828.558,2.622,2.622,0,0,1,.558.837A3.13,3.13,0,0,1,90.78,11.456Zm1.476,2.592H90.744a2.176,2.176,0,0,1-.819,1.368,2.648,2.648,0,0,1-1.593.45,3.169,3.169,0,0,1-1.314-.252,2.575,2.575,0,0,1-.918-.675,2.629,2.629,0,0,1-.522-.972,3.694,3.694,0,0,1-.144-1.161H92.4a7.409,7.409,0,0,0-.153-1.782A5.159,5.159,0,0,0,91.563,9.3a4.076,4.076,0,0,0-1.314-1.305,3.818,3.818,0,0,0-2.061-.513,4.232,4.232,0,0,0-1.755.36,4.125,4.125,0,0,0-1.386,1.008,4.646,4.646,0,0,0-.909,1.53,5.6,5.6,0,0,0-.324,1.944,7.459,7.459,0,0,0,.315,1.962,4.282,4.282,0,0,0,.837,1.548,3.815,3.815,0,0,0,1.377,1.008,4.78,4.78,0,0,0,1.935.36,4.224,4.224,0,0,0,2.628-.792A3.719,3.719,0,0,0,92.256,14.048Z" transform="translate(6057 2035)"/>
    <path id="Path_187" data-name="Path 187" class="cls-3" d="M42,12.356V4.148H40.29v8.208a3.642,3.642,0,0,1-.855,2.619,3.3,3.3,0,0,1-2.493.891,3.647,3.647,0,0,1-2.646-.891,3.488,3.488,0,0,1-.918-2.619V4.148h-1.71v8.208a4.651,4.651,0,0,0,1.4,3.753,5.829,5.829,0,0,0,3.879,1.179,5.266,5.266,0,0,0,3.744-1.233A4.837,4.837,0,0,0,42,12.356Zm2.538-4.662V20.546h1.53V15.758H46.1a2.465,2.465,0,0,0,.621.693,3.271,3.271,0,0,0,.783.441,4.249,4.249,0,0,0,.837.234,4.6,4.6,0,0,0,.765.072,4.321,4.321,0,0,0,1.863-.378,3.734,3.734,0,0,0,1.332-1.035,4.407,4.407,0,0,0,.792-1.539,6.565,6.565,0,0,0,.261-1.872,6.361,6.361,0,0,0-.27-1.872,4.73,4.73,0,0,0-.8-1.557,3.826,3.826,0,0,0-1.332-1.071,4.2,4.2,0,0,0-1.881-.4,4.434,4.434,0,0,0-1.782.351A2.291,2.291,0,0,0,46.1,8.954h-.036V7.694Zm7.2,4.572a6.122,6.122,0,0,1-.144,1.332,3.524,3.524,0,0,1-.468,1.152,2.46,2.46,0,0,1-.855.81,2.616,2.616,0,0,1-1.323.306,2.84,2.84,0,0,1-1.35-.3,2.62,2.62,0,0,1-.909-.783,3.274,3.274,0,0,1-.513-1.125,5.449,5.449,0,0,1-.009-2.6,3.349,3.349,0,0,1,.5-1.125,2.526,2.526,0,0,1,2.2-1.107,2.733,2.733,0,0,1,1.287.288,2.558,2.558,0,0,1,.9.774A3.425,3.425,0,0,1,51.567,11,4.758,4.758,0,0,1,51.738,12.266Zm3.51-8.118V17h1.53V4.148Zm5.022,8.208a4.63,4.63,0,0,1,.225-1.5,3.244,3.244,0,0,1,.621-1.107,2.645,2.645,0,0,1,.927-.684,2.821,2.821,0,0,1,2.25,0,2.645,2.645,0,0,1,.927.684,3.244,3.244,0,0,1,.621,1.107,4.63,4.63,0,0,1,.225,1.5,4.63,4.63,0,0,1-.225,1.5,3.145,3.145,0,0,1-.621,1.1,2.7,2.7,0,0,1-.927.675,2.821,2.821,0,0,1-2.25,0,2.7,2.7,0,0,1-.927-.675,3.145,3.145,0,0,1-.621-1.1A4.63,4.63,0,0,1,60.27,12.356Zm-1.62,0a6.113,6.113,0,0,0,.288,1.908A4.355,4.355,0,0,0,59.8,15.8a3.975,3.975,0,0,0,1.422,1.026,5.329,5.329,0,0,0,3.9,0A3.993,3.993,0,0,0,66.534,15.8a4.355,4.355,0,0,0,.864-1.539,6.113,6.113,0,0,0,.288-1.908,6.2,6.2,0,0,0-.288-1.917,4.343,4.343,0,0,0-.864-1.548,4.091,4.091,0,0,0-1.413-1.035,5.211,5.211,0,0,0-3.9,0A4.07,4.07,0,0,0,59.8,8.891a4.343,4.343,0,0,0-.864,1.548A6.2,6.2,0,0,0,58.65,12.356Zm19.08,4.608V15.776a1.515,1.515,0,0,1-.468.09q-.36,0-.423-.252a3.581,3.581,0,0,1-.063-.792V10.034A2.506,2.506,0,0,0,76.47,8.72a2.157,2.157,0,0,0-.81-.783,3.27,3.27,0,0,0-1.125-.369,8.711,8.711,0,0,0-1.251-.09,6.546,6.546,0,0,0-1.476.162,3.621,3.621,0,0,0-1.242.531,2.73,2.73,0,0,0-.864.963,3.3,3.3,0,0,0-.36,1.458h1.53a1.566,1.566,0,0,1,.7-1.395,3.236,3.236,0,0,1,1.62-.369,5.029,5.029,0,0,1,.729.054,1.976,1.976,0,0,1,.666.216,1.3,1.3,0,0,1,.486.468,1.527,1.527,0,0,1,.189.81.835.835,0,0,1-.252.657,1.665,1.665,0,0,1-.684.342,6.669,6.669,0,0,1-1,.18q-.567.063-1.2.189-.594.108-1.161.27a3.258,3.258,0,0,0-1.008.477,2.356,2.356,0,0,0-.711.819,2.733,2.733,0,0,0-.27,1.3,2.7,2.7,0,0,0,.243,1.2,2.2,2.2,0,0,0,.666.81,2.675,2.675,0,0,0,.981.45,5.039,5.039,0,0,0,1.188.135,4.849,4.849,0,0,0,1.809-.333,3.66,3.66,0,0,0,1.467-1.089,1.448,1.448,0,0,0,.351,1.089,1.317,1.317,0,0,0,.945.333A2.164,2.164,0,0,0,77.73,16.964Zm-2.484-4.77V13.76a1.73,1.73,0,0,1-.162.693,2.059,2.059,0,0,1-.5.684,2.726,2.726,0,0,1-.882.522,3.624,3.624,0,0,1-1.3.207,3.185,3.185,0,0,1-.675-.072,1.66,1.66,0,0,1-.576-.234,1.275,1.275,0,0,1-.4-.423A1.244,1.244,0,0,1,70.6,14.5a1.437,1.437,0,0,1,.261-.909,1.7,1.7,0,0,1,.675-.513,3.805,3.805,0,0,1,.936-.261q.522-.081,1.035-.144t.981-.162A1.9,1.9,0,0,0,75.246,12.194Zm5.022.234a6.122,6.122,0,0,1,.144-1.332,3.524,3.524,0,0,1,.468-1.152,2.437,2.437,0,0,1,.864-.81,2.627,2.627,0,0,1,1.314-.306,2.84,2.84,0,0,1,1.35.3,2.62,2.62,0,0,1,.909.783,3.274,3.274,0,0,1,.513,1.125,5.449,5.449,0,0,1,.009,2.6,3.349,3.349,0,0,1-.495,1.125,2.526,2.526,0,0,1-2.2,1.107,2.733,2.733,0,0,1-1.287-.288,2.558,2.558,0,0,1-.9-.774,3.425,3.425,0,0,1-.522-1.107A4.758,4.758,0,0,1,80.268,12.428ZM87.468,17V4.148h-1.53V8.936H85.9a2.465,2.465,0,0,0-.621-.693,3.528,3.528,0,0,0-.783-.45,3.93,3.93,0,0,0-.828-.243,4.532,4.532,0,0,0-.774-.072,4.236,4.236,0,0,0-1.863.387A3.825,3.825,0,0,0,79.7,8.909a4.408,4.408,0,0,0-.792,1.539,6.565,6.565,0,0,0-.261,1.872,6.361,6.361,0,0,0,.27,1.872,4.628,4.628,0,0,0,.8,1.548A3.871,3.871,0,0,0,81.051,16.8a4.2,4.2,0,0,0,1.881.4,4.536,4.536,0,0,0,1.782-.342A2.252,2.252,0,0,0,85.9,15.74h.036V17Zm12.78,0h1.53V7.694h-1.53Zm0-10.98h1.53V4.148h-1.53ZM95.46,9.044V17h1.53V9.044h1.8V7.694h-1.8V6.4A.953.953,0,0,1,97.3,5.57a1.483,1.483,0,0,1,.864-.216,3.788,3.788,0,0,1,.432.027,1.9,1.9,0,0,1,.432.1V4.148a2.64,2.64,0,0,0-.5-.108A3.917,3.917,0,0,0,98.034,4a2.8,2.8,0,0,0-1.917.585,2.182,2.182,0,0,0-.657,1.719V7.694H93.894v1.35Zm8.784-4.9V17h1.53V4.148Zm10.368,7.308h-5.346a3.187,3.187,0,0,1,.234-1.017,2.712,2.712,0,0,1,.54-.837,2.473,2.473,0,0,1,.819-.567,2.664,2.664,0,0,1,1.071-.207,2.617,2.617,0,0,1,1.053.207,2.649,2.649,0,0,1,.828.558,2.622,2.622,0,0,1,.558.837A3.13,3.13,0,0,1,114.612,11.456Zm1.476,2.592h-1.512a2.176,2.176,0,0,1-.819,1.368,2.648,2.648,0,0,1-1.593.45,3.169,3.169,0,0,1-1.314-.252,2.575,2.575,0,0,1-.918-.675,2.629,2.629,0,0,1-.522-.972,3.694,3.694,0,0,1-.144-1.161h6.966a7.409,7.409,0,0,0-.153-1.782A5.159,5.159,0,0,0,115.4,9.3a4.076,4.076,0,0,0-1.314-1.305,3.818,3.818,0,0,0-2.061-.513,4.232,4.232,0,0,0-1.755.36,4.125,4.125,0,0,0-1.386,1.008,4.646,4.646,0,0,0-.909,1.53,5.6,5.6,0,0,0-.324,1.944,7.459,7.459,0,0,0,.315,1.962,4.282,4.282,0,0,0,.837,1.548,3.815,3.815,0,0,0,1.377,1.008,4.78,4.78,0,0,0,1.935.36,4.224,4.224,0,0,0,2.628-.792A3.719,3.719,0,0,0,116.088,14.048Z" transform="translate(6057 2116)"/>
    <g id="Rectangle_242" data-name="Rectangle 242" class="cls-10" transform="translate(5831 2343)">
      <rect class="cls-12" width="388" height="98"/>
      <rect class="cls-13" x="0.5" y="0.5" width="387" height="97"/>
    </g>
    <path id="Path_190" data-name="Path 190" class="cls-3" d="M11.43,5.588l.324-1.44H1.386L1.08,5.588H5.4L2.988,17H4.7L7.11,5.588Zm-.162,12.978L17.424,7.694H15.75l-3.906,7.4h-.036l-1.08-7.4H9.09L10.728,17l-.936,1.53a2.961,2.961,0,0,1-.594.729,1.251,1.251,0,0,1-.846.279,1.613,1.613,0,0,1-.432-.072,1.8,1.8,0,0,1-.432-.18l-.27,1.242a2.157,2.157,0,0,0,.5.171,2.609,2.609,0,0,0,.558.063,2.728,2.728,0,0,0,1.008-.171,2.669,2.669,0,0,0,.774-.468,3.972,3.972,0,0,0,.63-.7Q10.98,19.016,11.268,18.566Zm7.56-10.872-2.7,12.852h1.494l.99-4.968h.036a1.713,1.713,0,0,0,.441.783,2.514,2.514,0,0,0,.72.5,3.207,3.207,0,0,0,.864.261,5.641,5.641,0,0,0,.873.072,4.515,4.515,0,0,0,2.187-.522,5.107,5.107,0,0,0,1.62-1.368,6.337,6.337,0,0,0,1.008-1.9,6.652,6.652,0,0,0,.351-2.115,4.872,4.872,0,0,0-.234-1.548,3.262,3.262,0,0,0-.7-1.206,3.209,3.209,0,0,0-1.143-.783,4.1,4.1,0,0,0-1.575-.279,4.061,4.061,0,0,0-1.665.324A3.787,3.787,0,0,0,19.98,9.026h-.036l.324-1.332Zm6.354,3.6a5.692,5.692,0,0,1-.234,1.584,4.923,4.923,0,0,1-.7,1.476,3.907,3.907,0,0,1-1.152,1.089,2.984,2.984,0,0,1-1.6.423,2.193,2.193,0,0,1-1.737-.684,2.517,2.517,0,0,1-.6-1.728,5.386,5.386,0,0,1,.243-1.548,5.5,5.5,0,0,1,.7-1.494A4.034,4.034,0,0,1,21.24,9.278a2.754,2.754,0,0,1,1.548-.45,2.275,2.275,0,0,1,1.827.666A2.685,2.685,0,0,1,25.182,11.294Zm4.248,1.512h7q.036-.2.09-.522a4.159,4.159,0,0,0,.054-.684,4.472,4.472,0,0,0-.945-3.042,3.784,3.784,0,0,0-3-1.08,4.069,4.069,0,0,0-1.827.432,4.665,4.665,0,0,0-1.53,1.224,6.088,6.088,0,0,0-1.044,1.9,7.348,7.348,0,0,0-.387,2.439,4.8,4.8,0,0,0,.18,1.269,3.235,3.235,0,0,0,.63,1.206,3.335,3.335,0,0,0,1.215.9,4.6,4.6,0,0,0,1.917.351,5.154,5.154,0,0,0,1.44-.2,4.222,4.222,0,0,0,1.242-.585,3.678,3.678,0,0,0,.954-.972A4.026,4.026,0,0,0,36,14.084H34.47a2.7,2.7,0,0,1-.99,1.323,2.916,2.916,0,0,1-1.692.459,2.676,2.676,0,0,1-.9-.153,2.572,2.572,0,0,1-.774-.432,1.967,1.967,0,0,1-.54-.7,2.246,2.246,0,0,1-.2-.963A5.989,5.989,0,0,1,29.43,12.806Zm5.616-1.35h-5.4a4.937,4.937,0,0,1,.432-1.017,3.358,3.358,0,0,1,.666-.837,2.962,2.962,0,0,1,.927-.567,3.274,3.274,0,0,1,1.2-.207,2.279,2.279,0,0,1,1.062.225,1.915,1.915,0,0,1,.693.594,2.232,2.232,0,0,1,.36.846A3.459,3.459,0,0,1,35.046,11.456ZM50.526,17,53.244,4.148H51.732l-.99,4.968h-.036a1.907,1.907,0,0,0-.45-.783,2.393,2.393,0,0,0-.711-.5,3.464,3.464,0,0,0-.855-.27,4.973,4.973,0,0,0-.882-.081,4.453,4.453,0,0,0-2.187.531A5.213,5.213,0,0,0,44,9.386a6.337,6.337,0,0,0-1.008,1.9,6.652,6.652,0,0,0-.351,2.115,4.872,4.872,0,0,0,.234,1.548,3.177,3.177,0,0,0,.7,1.2,3.249,3.249,0,0,0,1.152.774A4.119,4.119,0,0,0,46.3,17.2a4.162,4.162,0,0,0,1.665-.315,3.7,3.7,0,0,0,1.413-1.215h.036L49.086,17Zm-6.354-3.6a5.692,5.692,0,0,1,.234-1.584,4.923,4.923,0,0,1,.7-1.476A3.907,3.907,0,0,1,46.26,9.251a2.984,2.984,0,0,1,1.6-.423,2.193,2.193,0,0,1,1.737.684,2.517,2.517,0,0,1,.6,1.728,5.756,5.756,0,0,1-.945,3.042,4.034,4.034,0,0,1-1.143,1.134,2.754,2.754,0,0,1-1.548.45,2.275,2.275,0,0,1-1.827-.666A2.685,2.685,0,0,1,44.172,13.4Zm10.6-.594h7q.036-.2.09-.522a4.159,4.159,0,0,0,.054-.684,4.472,4.472,0,0,0-.945-3.042,3.784,3.784,0,0,0-3-1.08,4.069,4.069,0,0,0-1.827.432,4.665,4.665,0,0,0-1.53,1.224,6.088,6.088,0,0,0-1.044,1.9,7.348,7.348,0,0,0-.387,2.439,4.8,4.8,0,0,0,.18,1.269A3.235,3.235,0,0,0,54,15.947a3.335,3.335,0,0,0,1.215.9,4.6,4.6,0,0,0,1.917.351,5.154,5.154,0,0,0,1.44-.2,4.222,4.222,0,0,0,1.242-.585,3.678,3.678,0,0,0,.954-.972,4.026,4.026,0,0,0,.576-1.359h-1.53a2.7,2.7,0,0,1-.99,1.323,2.916,2.916,0,0,1-1.692.459,2.676,2.676,0,0,1-.9-.153,2.572,2.572,0,0,1-.774-.432,1.967,1.967,0,0,1-.54-.7,2.246,2.246,0,0,1-.2-.963A5.989,5.989,0,0,1,54.774,12.806Zm5.616-1.35h-5.4a4.937,4.937,0,0,1,.432-1.017,3.358,3.358,0,0,1,.666-.837,2.962,2.962,0,0,1,.927-.567,3.274,3.274,0,0,1,1.2-.207,2.279,2.279,0,0,1,1.062.225,1.915,1.915,0,0,1,.693.594,2.232,2.232,0,0,1,.36.846A3.459,3.459,0,0,1,60.39,11.456Zm8.676-1.026H70.6a2.865,2.865,0,0,0-.306-1.377,2.644,2.644,0,0,0-.8-.918,3.25,3.25,0,0,0-1.125-.5,5.4,5.4,0,0,0-1.278-.153,4.536,4.536,0,0,0-1.269.18,3.828,3.828,0,0,0-1.107.513,2.609,2.609,0,0,0-.783.837,2.226,2.226,0,0,0-.3,1.152,1.954,1.954,0,0,0,.207.918,2.293,2.293,0,0,0,.558.693,3.822,3.822,0,0,0,.792.513q.441.216.909.4.45.2.891.369a5.62,5.62,0,0,1,.783.369,2.238,2.238,0,0,1,.558.441.85.85,0,0,1,.216.585,1.133,1.133,0,0,1-.189.666,1.467,1.467,0,0,1-.495.441,2.258,2.258,0,0,1-.684.243,4.032,4.032,0,0,1-.756.072,4.628,4.628,0,0,1-.927-.09,2.339,2.339,0,0,1-.774-.3,1.46,1.46,0,0,1-.522-.558,1.543,1.543,0,0,1-.153-.855H62.532a3.479,3.479,0,0,0,.288,1.5,2.492,2.492,0,0,0,.783.963,3.146,3.146,0,0,0,1.179.513,6.845,6.845,0,0,0,1.494.153,6.129,6.129,0,0,0,1.359-.153,3.835,3.835,0,0,0,1.215-.5,2.78,2.78,0,0,0,.882-.891,2.453,2.453,0,0,0,.342-1.323,1.979,1.979,0,0,0-.216-.945,2.445,2.445,0,0,0-.558-.7,4.166,4.166,0,0,0-.783-.531q-.441-.234-.909-.432-.45-.18-.891-.351a6.107,6.107,0,0,1-.792-.369,2.141,2.141,0,0,1-.558-.432.814.814,0,0,1-.207-.558.908.908,0,0,1,.18-.585,1.306,1.306,0,0,1,.459-.36,2.215,2.215,0,0,1,.639-.189,4.73,4.73,0,0,1,.7-.054,2.348,2.348,0,0,1,1.386.4A1.291,1.291,0,0,1,69.066,10.43Zm9.756.216h1.53a3.079,3.079,0,0,0-.981-2.4,3.826,3.826,0,0,0-2.511-.765,4.9,4.9,0,0,0-2.205.477,4.851,4.851,0,0,0-1.62,1.278,5.555,5.555,0,0,0-.99,1.827,6.9,6.9,0,0,0-.333,2.142,4.2,4.2,0,0,0,.963,2.952A3.717,3.717,0,0,0,75.546,17.2a4.415,4.415,0,0,0,2.736-.828,4.243,4.243,0,0,0,1.512-2.412h-1.53a2.994,2.994,0,0,1-1.026,1.386,2.756,2.756,0,0,1-1.692.522,2.463,2.463,0,0,1-1.089-.216,1.933,1.933,0,0,1-.711-.576,2.281,2.281,0,0,1-.387-.846,4.371,4.371,0,0,1-.117-1.026,5.357,5.357,0,0,1,.234-1.539,4.63,4.63,0,0,1,.693-1.413A3.712,3.712,0,0,1,75.3,9.224a3.019,3.019,0,0,1,1.557-.4,2.055,2.055,0,0,1,1.44.477A1.725,1.725,0,0,1,78.822,10.646Zm4.032-2.952L80.928,17H82.44l.882-4.122q.108-.522.288-1.125A3.784,3.784,0,0,1,84.1,10.7a3.958,3.958,0,0,1,.855-.954,2.958,2.958,0,0,1,1.125-.558,2.248,2.248,0,0,1,.45-.081q.18-.009.468-.009h.216a1.072,1.072,0,0,1,.234.018l.36-1.638a.7.7,0,0,0-.27-.018,1.912,1.912,0,0,1-.27.018,3.242,3.242,0,0,0-2.007.63A5.1,5.1,0,0,0,83.88,9.692h-.036l.45-2ZM90.738,6.02l.4-1.872H89.586l-.4,1.872Zm-1.89,1.674L86.922,17h1.512l1.944-9.306Zm3.978,0-2.7,12.852H91.62l.99-4.968h.036a1.713,1.713,0,0,0,.441.783,2.514,2.514,0,0,0,.72.5,3.207,3.207,0,0,0,.864.261,5.641,5.641,0,0,0,.873.072,4.515,4.515,0,0,0,2.187-.522,5.107,5.107,0,0,0,1.62-1.368,6.337,6.337,0,0,0,1.008-1.9,6.652,6.652,0,0,0,.351-2.115,4.872,4.872,0,0,0-.234-1.548,3.262,3.262,0,0,0-.7-1.206,3.209,3.209,0,0,0-1.143-.783,4.1,4.1,0,0,0-1.575-.279,4.061,4.061,0,0,0-1.665.324,3.787,3.787,0,0,0-1.413,1.224h-.036l.324-1.332Zm6.354,3.6a5.692,5.692,0,0,1-.234,1.584,4.923,4.923,0,0,1-.7,1.476,3.907,3.907,0,0,1-1.152,1.089,2.984,2.984,0,0,1-1.6.423,2.193,2.193,0,0,1-1.737-.684,2.517,2.517,0,0,1-.6-1.728,5.386,5.386,0,0,1,.243-1.548,5.5,5.5,0,0,1,.7-1.494,4.034,4.034,0,0,1,1.143-1.134,2.754,2.754,0,0,1,1.548-.45,2.275,2.275,0,0,1,1.827.666A2.685,2.685,0,0,1,99.18,11.294Zm6.462-3.6.576-2.754h-1.53l-.576,2.754h-1.566l-.288,1.35h1.566L102.6,14.822q-.036.216-.063.4a2.548,2.548,0,0,0-.027.378,1.429,1.429,0,0,0,.171.738,1.319,1.319,0,0,0,.45.459,1.816,1.816,0,0,0,.657.234,4.93,4.93,0,0,0,.81.063q.27,0,.54-.027t.54-.063l.27-1.4a3.846,3.846,0,0,1-.432.117,2.2,2.2,0,0,1-.45.045,1.449,1.449,0,0,1-.639-.135.5.5,0,0,1-.279-.495,2.47,2.47,0,0,1,.018-.306q.018-.144.036-.306l1.152-5.472h1.854l.288-1.35Zm5.436-1.674.4-1.872h-1.548l-.4,1.872Zm-1.89,1.674L107.262,17h1.512l1.944-9.306ZM115.056,17l5.166-9.306h-1.656l-4.032,7.74H114.5l-.792-7.74h-1.62L113.418,17Zm6.7-4.194h7q.036-.2.09-.522a4.159,4.159,0,0,0,.054-.684,4.472,4.472,0,0,0-.945-3.042,3.784,3.784,0,0,0-3-1.08,4.069,4.069,0,0,0-1.827.432,4.665,4.665,0,0,0-1.53,1.224,6.088,6.088,0,0,0-1.044,1.9,7.348,7.348,0,0,0-.387,2.439,4.8,4.8,0,0,0,.18,1.269,3.235,3.235,0,0,0,.63,1.206,3.335,3.335,0,0,0,1.215.9,4.6,4.6,0,0,0,1.917.351,5.154,5.154,0,0,0,1.44-.2,4.222,4.222,0,0,0,1.242-.585,3.678,3.678,0,0,0,.954-.972,4.026,4.026,0,0,0,.576-1.359h-1.53a2.7,2.7,0,0,1-.99,1.323,2.916,2.916,0,0,1-1.692.459,2.676,2.676,0,0,1-.9-.153,2.572,2.572,0,0,1-.774-.432,1.967,1.967,0,0,1-.54-.7,2.246,2.246,0,0,1-.2-.963A5.989,5.989,0,0,1,121.752,12.806Zm5.616-1.35h-5.4a4.937,4.937,0,0,1,.432-1.017,3.358,3.358,0,0,1,.666-.837,2.962,2.962,0,0,1,.927-.567,3.274,3.274,0,0,1,1.2-.207,2.279,2.279,0,0,1,1.062.225,1.915,1.915,0,0,1,.693.594,2.232,2.232,0,0,1,.36.846A3.459,3.459,0,0,1,127.368,11.456Zm11.268-3.762.576-2.754h-1.53l-.576,2.754H135.54l-.288,1.35h1.566l-1.224,5.778q-.036.216-.063.4a2.547,2.547,0,0,0-.027.378,1.429,1.429,0,0,0,.171.738,1.319,1.319,0,0,0,.45.459,1.816,1.816,0,0,0,.657.234,4.93,4.93,0,0,0,.81.063q.27,0,.54-.027t.54-.063l.27-1.4a3.846,3.846,0,0,1-.432.117,2.2,2.2,0,0,1-.45.045,1.449,1.449,0,0,1-.639-.135.5.5,0,0,1-.279-.495,2.468,2.468,0,0,1,.018-.306q.018-.144.036-.306l1.152-5.472H140.2l.288-1.35Zm3.456,5.112h7q.036-.2.09-.522a4.159,4.159,0,0,0,.054-.684,4.472,4.472,0,0,0-.945-3.042,3.784,3.784,0,0,0-3-1.08,4.069,4.069,0,0,0-1.827.432,4.665,4.665,0,0,0-1.53,1.224,6.088,6.088,0,0,0-1.044,1.9,7.348,7.348,0,0,0-.387,2.439,4.8,4.8,0,0,0,.18,1.269,3.235,3.235,0,0,0,.63,1.206,3.335,3.335,0,0,0,1.215.9,4.6,4.6,0,0,0,1.917.351,5.154,5.154,0,0,0,1.44-.2,4.222,4.222,0,0,0,1.242-.585,3.678,3.678,0,0,0,.954-.972,4.026,4.026,0,0,0,.576-1.359h-1.53a2.7,2.7,0,0,1-.99,1.323,2.916,2.916,0,0,1-1.692.459,2.676,2.676,0,0,1-.9-.153,2.572,2.572,0,0,1-.774-.432,1.967,1.967,0,0,1-.54-.7,2.246,2.246,0,0,1-.2-.963A5.99,5.99,0,0,1,142.092,12.806Zm5.616-1.35h-5.4a4.937,4.937,0,0,1,.432-1.017,3.358,3.358,0,0,1,.666-.837,2.962,2.962,0,0,1,.927-.567,3.274,3.274,0,0,1,1.2-.207,2.279,2.279,0,0,1,1.062.225,1.915,1.915,0,0,1,.693.594,2.232,2.232,0,0,1,.36.846A3.459,3.459,0,0,1,147.708,11.456Zm5.454.612L148.824,17h1.836l3.168-3.816L155.52,17h1.746l-2.376-4.806,4-4.5h-1.854l-2.772,3.384-1.4-3.384h-1.764Zm9.468-4.374.576-2.754h-1.53L161.1,7.694h-1.566l-.288,1.35h1.566l-1.224,5.778q-.036.216-.063.4a2.547,2.547,0,0,0-.027.378,1.429,1.429,0,0,0,.171.738,1.319,1.319,0,0,0,.45.459,1.816,1.816,0,0,0,.657.234,4.93,4.93,0,0,0,.81.063q.27,0,.54-.027t.54-.063l.27-1.4a3.846,3.846,0,0,1-.432.117,2.2,2.2,0,0,1-.45.045,1.449,1.449,0,0,1-.639-.135.5.5,0,0,1-.279-.495,2.468,2.468,0,0,1,.018-.306q.018-.144.036-.306l1.152-5.472H164.2l.288-1.35Zm9.324-3.546L169.254,17h1.512l1.08-5.148a6.472,6.472,0,0,1,.378-1.071,2.537,2.537,0,0,1,.648-.873,3.55,3.55,0,0,1,1.053-.774,2.806,2.806,0,0,1,1.251-.306,2.016,2.016,0,0,1,1.152.315,1.1,1.1,0,0,1,.468.981,2.3,2.3,0,0,1-.027.315q-.027.189-.063.4t-.072.4q-.036.189-.054.333L175.392,17h1.53l1.134-5.31q.126-.54.2-1.026a5.636,5.636,0,0,0,.072-.792,2.333,2.333,0,0,0-.639-1.818,2.845,2.845,0,0,0-1.953-.576,4.392,4.392,0,0,0-1.854.4A3.615,3.615,0,0,0,172.422,9.1l-.036-.036,1.1-4.914Zm9.144,8.658h7q.036-.2.09-.522a4.159,4.159,0,0,0,.054-.684,4.472,4.472,0,0,0-.945-3.042,3.784,3.784,0,0,0-3-1.08,4.069,4.069,0,0,0-1.827.432,4.665,4.665,0,0,0-1.53,1.224,6.088,6.088,0,0,0-1.044,1.9,7.348,7.348,0,0,0-.387,2.439,4.8,4.8,0,0,0,.18,1.269,3.235,3.235,0,0,0,.63,1.206,3.335,3.335,0,0,0,1.215.9,4.6,4.6,0,0,0,1.917.351,5.154,5.154,0,0,0,1.44-.2,4.222,4.222,0,0,0,1.242-.585,3.678,3.678,0,0,0,.954-.972,4.026,4.026,0,0,0,.576-1.359h-1.53a2.7,2.7,0,0,1-.99,1.323,2.916,2.916,0,0,1-1.692.459,2.676,2.676,0,0,1-.9-.153,2.572,2.572,0,0,1-.774-.432,1.967,1.967,0,0,1-.54-.7,2.246,2.246,0,0,1-.2-.963A5.99,5.99,0,0,1,181.1,12.806Zm5.616-1.35h-5.4a4.937,4.937,0,0,1,.432-1.017,3.358,3.358,0,0,1,.666-.837,2.962,2.962,0,0,1,.927-.567,3.274,3.274,0,0,1,1.2-.207,2.279,2.279,0,0,1,1.062.225,1.915,1.915,0,0,1,.693.594,2.232,2.232,0,0,1,.36.846A3.459,3.459,0,0,1,186.714,11.456Zm4.14-3.762L188.928,17h1.512l.882-4.122q.108-.522.288-1.125A3.784,3.784,0,0,1,192.1,10.7a3.958,3.958,0,0,1,.855-.954,2.958,2.958,0,0,1,1.125-.558,2.248,2.248,0,0,1,.45-.081q.18-.009.468-.009h.216a1.072,1.072,0,0,1,.234.018l.36-1.638a.7.7,0,0,0-.27-.018,1.912,1.912,0,0,1-.27.018,3.242,3.242,0,0,0-2.007.63,5.1,5.1,0,0,0-1.377,1.584h-.036l.45-2Zm5.58,5.112h7q.036-.2.09-.522a4.159,4.159,0,0,0,.054-.684,4.472,4.472,0,0,0-.945-3.042,3.784,3.784,0,0,0-3-1.08,4.069,4.069,0,0,0-1.827.432,4.665,4.665,0,0,0-1.53,1.224,6.088,6.088,0,0,0-1.044,1.9,7.348,7.348,0,0,0-.387,2.439,4.8,4.8,0,0,0,.18,1.269,3.235,3.235,0,0,0,.63,1.206,3.335,3.335,0,0,0,1.215.9,4.6,4.6,0,0,0,1.917.351,5.154,5.154,0,0,0,1.44-.2,4.222,4.222,0,0,0,1.242-.585,3.678,3.678,0,0,0,.954-.972A4.026,4.026,0,0,0,203,14.084h-1.53a2.7,2.7,0,0,1-.99,1.323,2.916,2.916,0,0,1-1.692.459,2.676,2.676,0,0,1-.9-.153,2.572,2.572,0,0,1-.774-.432,1.967,1.967,0,0,1-.54-.7,2.246,2.246,0,0,1-.2-.963A5.99,5.99,0,0,1,196.434,12.806Zm5.616-1.35h-5.4a4.937,4.937,0,0,1,.432-1.017,3.358,3.358,0,0,1,.666-.837,2.962,2.962,0,0,1,.927-.567,3.274,3.274,0,0,1,1.2-.207,2.279,2.279,0,0,1,1.062.225,1.915,1.915,0,0,1,.693.594,2.232,2.232,0,0,1,.36.846A3.459,3.459,0,0,1,202.05,11.456ZM222.462,15l-.432,2h2l.432-2Zm-5.994,0-.432,2h2l.432-2Zm-5.994,0-.432,2h2l.432-2Z" transform="translate(5855 2365)"/>
  </g>
</svg>
