<svg xmlns="http://www.w3.org/2000/svg" xmlns:xlink="http://www.w3.org/1999/xlink" viewBox="6750 1822 1280 800">
  <defs>
    <style>
      .cls-1 {
        clip-path: url(#clip-Dashboard_populated_1);
      }

      .cls-2 {
        fill: #e5e5e5;
      }

      .cls-3 {
        fill: #707070;
      }

      .cls-12, .cls-4, .cls-9 {
        fill: none;
      }

      .cls-4 {
        stroke: #707070;
      }

      .cls-5, .cls-8 {
        fill: #fff;
      }

      .cls-6 {
        fill: #e5e3e3;
      }

      .cls-7 {
        fill: #d1cdcd;
      }

      .cls-8 {
        font-size: 70px;
        font-family: HelveticaNeue-Medium, Helvetica Neue;
        font-weight: 500;
      }

      .cls-9 {
        stroke: #fff;
        stroke-width: 5px;
      }

      .cls-10 {
        fill: #dadada;
      }

      .cls-11 {
        stroke: none;
      }
    </style>
    <clipPath id="clip-Dashboard_populated_1">
      <rect x="6750" y="1822" width="1280" height="800"/>
    </clipPath>
  </defs>
  <g id="Dashboard_populated_1" data-name="Dashboard / populated – 1" class="cls-1">
    <rect class="cls-5" x="6750" y="1822" width="1280" height="800"/>
    <rect id="Rectangle_34" data-name="Rectangle 34" class="cls-2" width="1279.916" height="103.048" transform="translate(6750 1822.469)"/>
    <path id="Path_196" data-name="Path 196" class="cls-3" d="M2.76-28.56V0h3.4V-28.56ZM13.92-10.32a10.288,10.288,0,0,1,.5-3.34,7.208,7.208,0,0,1,1.38-2.46,5.877,5.877,0,0,1,2.06-1.52,6.131,6.131,0,0,1,2.5-.52,6.131,6.131,0,0,1,2.5.52,5.877,5.877,0,0,1,2.06,1.52,7.208,7.208,0,0,1,1.38,2.46,10.288,10.288,0,0,1,.5,3.34,10.288,10.288,0,0,1-.5,3.34,6.988,6.988,0,0,1-1.38,2.44,5.988,5.988,0,0,1-2.06,1.5,6.131,6.131,0,0,1-2.5.52,6.131,6.131,0,0,1-2.5-.52,5.988,5.988,0,0,1-2.06-1.5,6.988,6.988,0,0,1-1.38-2.44A10.288,10.288,0,0,1,13.92-10.32Zm-3.6,0a13.584,13.584,0,0,0,.64,4.24,9.678,9.678,0,0,0,1.92,3.42A8.833,8.833,0,0,0,16.04-.38a10.716,10.716,0,0,0,4.32.82A10.68,10.68,0,0,0,24.7-.38a8.874,8.874,0,0,0,3.14-2.28,9.678,9.678,0,0,0,1.92-3.42,13.584,13.584,0,0,0,.64-4.24,13.773,13.773,0,0,0-.64-4.26,9.652,9.652,0,0,0-1.92-3.44,9.09,9.09,0,0,0-3.14-2.3,10.458,10.458,0,0,0-4.34-.84,10.493,10.493,0,0,0-4.32.84,9.044,9.044,0,0,0-3.16,2.3,9.652,9.652,0,0,0-1.92,3.44A13.773,13.773,0,0,0,10.32-10.32ZM52.24-1.76V-20.68h-3.2v2.96H49a6.052,6.052,0,0,0-2.56-2.58,7.633,7.633,0,0,0-3.6-.86,9.21,9.21,0,0,0-4.52,1.02,8.771,8.771,0,0,0-2.96,2.6,10.308,10.308,0,0,0-1.6,3.52,15.71,15.71,0,0,0-.48,3.78,13.7,13.7,0,0,0,.58,4.02A9.626,9.626,0,0,0,35.6-2.9,8.455,8.455,0,0,0,38.48-.64,9.109,9.109,0,0,0,42.52.2,8.264,8.264,0,0,0,46.3-.7a5.715,5.715,0,0,0,2.66-2.82h.08v1.36A13.751,13.751,0,0,1,48.7,1a6.6,6.6,0,0,1-1.1,2.46,5.331,5.331,0,0,1-1.92,1.6,6.3,6.3,0,0,1-2.84.58,9.17,9.17,0,0,1-1.76-.18,6.4,6.4,0,0,1-1.7-.58,4.231,4.231,0,0,1-1.32-1.04,2.515,2.515,0,0,1-.58-1.56h-3.4a5.345,5.345,0,0,0,.88,2.84A6.336,6.336,0,0,0,36.98,7,9.008,9.008,0,0,0,39.7,8.04a14.068,14.068,0,0,0,2.94.32q4.96,0,7.28-2.52T52.24-1.76Zm-9.52-1a5.192,5.192,0,0,1-2.8-.7,5.4,5.4,0,0,1-1.8-1.84,7.965,7.965,0,0,1-.96-2.54,14.245,14.245,0,0,1-.28-2.8,11.668,11.668,0,0,1,.34-2.84,7.039,7.039,0,0,1,1.08-2.4,5.444,5.444,0,0,1,1.9-1.66,5.869,5.869,0,0,1,2.8-.62,5.4,5.4,0,0,1,2.72.64,5.3,5.3,0,0,1,1.82,1.7,7.476,7.476,0,0,1,1.02,2.38,11.335,11.335,0,0,1,.32,2.68,12.5,12.5,0,0,1-.34,2.88A8.41,8.41,0,0,1,47.48-5.3a5.578,5.578,0,0,1-1.9,1.84A5.511,5.511,0,0,1,42.72-2.76Zm17.12-7.56a10.288,10.288,0,0,1,.5-3.34,7.208,7.208,0,0,1,1.38-2.46,5.877,5.877,0,0,1,2.06-1.52,6.131,6.131,0,0,1,2.5-.52,6.131,6.131,0,0,1,2.5.52,5.877,5.877,0,0,1,2.06,1.52,7.208,7.208,0,0,1,1.38,2.46,10.288,10.288,0,0,1,.5,3.34,10.288,10.288,0,0,1-.5,3.34,6.988,6.988,0,0,1-1.38,2.44,5.988,5.988,0,0,1-2.06,1.5,6.131,6.131,0,0,1-2.5.52,6.131,6.131,0,0,1-2.5-.52,5.988,5.988,0,0,1-2.06-1.5,6.988,6.988,0,0,1-1.38-2.44A10.288,10.288,0,0,1,59.84-10.32Zm-3.6,0a13.584,13.584,0,0,0,.64,4.24A9.678,9.678,0,0,0,58.8-2.66,8.833,8.833,0,0,0,61.96-.38a10.716,10.716,0,0,0,4.32.82,10.68,10.68,0,0,0,4.34-.82,8.875,8.875,0,0,0,3.14-2.28,9.678,9.678,0,0,0,1.92-3.42,13.584,13.584,0,0,0,.64-4.24,13.773,13.773,0,0,0-.64-4.26,9.652,9.652,0,0,0-1.92-3.44,9.091,9.091,0,0,0-3.14-2.3,10.458,10.458,0,0,0-4.34-.84,10.493,10.493,0,0,0-4.32.84,9.044,9.044,0,0,0-3.16,2.3,9.652,9.652,0,0,0-1.92,3.44A13.773,13.773,0,0,0,56.24-10.32Z" transform="translate(6788 1884)"/>
    <path id="Path_197" data-name="Path 197" class="cls-3" d="M4.152-1.92v-13.3h3.84a7.025,7.025,0,0,1,2.664.444,4.322,4.322,0,0,1,1.764,1.3,5.269,5.269,0,0,1,.984,2.064,11.471,11.471,0,0,1,.3,2.748,9.784,9.784,0,0,1-.324,2.7,6.576,6.576,0,0,1-.828,1.86,4.332,4.332,0,0,1-1.14,1.176,5.594,5.594,0,0,1-1.284.66A5.385,5.385,0,0,1,8.9-1.98a9.563,9.563,0,0,1-.96.06ZM1.872-17.136V0h5.88a10.286,10.286,0,0,0,3.7-.6,6.449,6.449,0,0,0,2.568-1.74A7.155,7.155,0,0,0,15.5-5.148a13.871,13.871,0,0,0,.48-3.828q0-4.128-2.136-6.144a8.544,8.544,0,0,0-6.1-2.016ZM29.424-.048V-1.632a2.02,2.02,0,0,1-.624.12q-.48,0-.564-.336A4.774,4.774,0,0,1,28.152-2.9V-9.288a3.341,3.341,0,0,0-.408-1.752,2.876,2.876,0,0,0-1.08-1.044,4.359,4.359,0,0,0-1.5-.492A11.614,11.614,0,0,0,23.5-12.7a8.729,8.729,0,0,0-1.968.216,4.828,4.828,0,0,0-1.656.708,3.639,3.639,0,0,0-1.152,1.284,4.407,4.407,0,0,0-.48,1.944h2.04a2.088,2.088,0,0,1,.936-1.86,4.314,4.314,0,0,1,2.16-.492,6.706,6.706,0,0,1,.972.072,2.635,2.635,0,0,1,.888.288,1.728,1.728,0,0,1,.648.624,2.036,2.036,0,0,1,.252,1.08,1.113,1.113,0,0,1-.336.876,2.219,2.219,0,0,1-.912.456,8.892,8.892,0,0,1-1.332.24q-.756.084-1.6.252-.792.144-1.548.36a4.344,4.344,0,0,0-1.344.636A3.141,3.141,0,0,0,18.12-4.92a3.645,3.645,0,0,0-.36,1.728,3.593,3.593,0,0,0,.324,1.6,2.935,2.935,0,0,0,.888,1.08,3.567,3.567,0,0,0,1.308.6,6.719,6.719,0,0,0,1.584.18A6.465,6.465,0,0,0,24.276-.18a4.881,4.881,0,0,0,1.956-1.452A1.93,1.93,0,0,0,26.7-.18a1.755,1.755,0,0,0,1.26.444A2.885,2.885,0,0,0,29.424-.048Zm-3.312-6.36V-4.32A2.307,2.307,0,0,1,25.9-3.4a2.746,2.746,0,0,1-.672.912,3.635,3.635,0,0,1-1.176.7,4.833,4.833,0,0,1-1.728.276,4.247,4.247,0,0,1-.9-.1,2.214,2.214,0,0,1-.768-.312,1.7,1.7,0,0,1-.528-.564,1.659,1.659,0,0,1-.2-.852,1.916,1.916,0,0,1,.348-1.212,2.27,2.27,0,0,1,.9-.684,5.074,5.074,0,0,1,1.248-.348q.7-.108,1.38-.192T25.1-5.988A2.539,2.539,0,0,0,26.112-6.408Zm6.456,2.5h-2.04a4.49,4.49,0,0,0,.48,1.956A3.61,3.61,0,0,0,32.16-.66a4.828,4.828,0,0,0,1.656.708,8.729,8.729,0,0,0,1.968.216,10.081,10.081,0,0,0,1.884-.18,5.116,5.116,0,0,0,1.7-.636,3.658,3.658,0,0,0,1.224-1.2,3.456,3.456,0,0,0,.468-1.872,2.925,2.925,0,0,0-.348-1.488,3.107,3.107,0,0,0-.912-1,4.891,4.891,0,0,0-1.3-.636,15.318,15.318,0,0,0-1.5-.408q-.72-.168-1.44-.324a8.307,8.307,0,0,1-1.3-.384,2.97,2.97,0,0,1-.948-.576,1.149,1.149,0,0,1-.372-.876,1.211,1.211,0,0,1,.24-.78,1.716,1.716,0,0,1,.624-.48,3.112,3.112,0,0,1,.852-.252,6.07,6.07,0,0,1,.924-.072,4.632,4.632,0,0,1,1,.108,3.053,3.053,0,0,1,.9.348,2.043,2.043,0,0,1,.672.636,2.065,2.065,0,0,1,.312,1h2.04a4.557,4.557,0,0,0-.48-1.884,3.23,3.23,0,0,0-1.092-1.2,4.5,4.5,0,0,0-1.572-.624,9.8,9.8,0,0,0-1.944-.18,6.852,6.852,0,0,0-1.644.2,4.959,4.959,0,0,0-1.488.624,3.434,3.434,0,0,0-1.08,1.092,2.973,2.973,0,0,0-.42,1.608,2.713,2.713,0,0,0,.6,1.872,4.049,4.049,0,0,0,1.5,1.044,10.149,10.149,0,0,0,1.956.576q1.056.2,1.956.456a5.106,5.106,0,0,1,1.5.66,1.358,1.358,0,0,1,.6,1.2,1.5,1.5,0,0,1-.288.948,1.825,1.825,0,0,1-.732.564,3.7,3.7,0,0,1-.972.264,7.469,7.469,0,0,1-1.008.072,6.046,6.046,0,0,1-1.212-.12,3.4,3.4,0,0,1-1.056-.4,2.171,2.171,0,0,1-.756-.744A2.3,2.3,0,0,1,32.568-3.912ZM43.32-17.136V0h2.04V-7.008a5.026,5.026,0,0,1,.228-1.548,3.516,3.516,0,0,1,.684-1.236,3.038,3.038,0,0,1,1.14-.816,4.158,4.158,0,0,1,1.62-.288,2.5,2.5,0,0,1,1.848.672A2.465,2.465,0,0,1,51.552-8.4V0h2.04V-8.16a7.678,7.678,0,0,0-.2-1.836,3.477,3.477,0,0,0-.708-1.428,3.354,3.354,0,0,0-1.32-.936,5.385,5.385,0,0,0-2.04-.336,5.7,5.7,0,0,0-1.14.12,5.042,5.042,0,0,0-1.128.372,3.819,3.819,0,0,0-.972.648,2.714,2.714,0,0,0-.672.972H45.36v-6.552Zm13.416,0V0h2.04V-1.656h.048a3.286,3.286,0,0,0,.828.924A4.361,4.361,0,0,0,60.7-.144a5.666,5.666,0,0,0,1.116.312,6.132,6.132,0,0,0,1.02.1,5.762,5.762,0,0,0,2.484-.5,4.978,4.978,0,0,0,1.776-1.38,5.877,5.877,0,0,0,1.056-2.052,8.753,8.753,0,0,0,.348-2.5,8.482,8.482,0,0,0-.36-2.5,6.307,6.307,0,0,0-1.068-2.076,5.1,5.1,0,0,0-1.776-1.428,5.6,5.6,0,0,0-2.508-.528,5.913,5.913,0,0,0-2.376.468,3.054,3.054,0,0,0-1.584,1.5h-.048v-6.408Zm9.6,10.824a8.163,8.163,0,0,1-.192,1.776A4.7,4.7,0,0,1,65.52-3a3.28,3.28,0,0,1-1.14,1.08,3.488,3.488,0,0,1-1.764.408,3.787,3.787,0,0,1-1.8-.4A3.494,3.494,0,0,1,59.6-2.952a4.365,4.365,0,0,1-.684-1.5A7.15,7.15,0,0,1,58.7-6.216a7.2,7.2,0,0,1,.2-1.7,4.466,4.466,0,0,1,.66-1.5,3.511,3.511,0,0,1,1.176-1.068A3.5,3.5,0,0,1,62.5-10.9a3.644,3.644,0,0,1,1.716.384,3.411,3.411,0,0,1,1.2,1.032A4.567,4.567,0,0,1,66.108-8,6.344,6.344,0,0,1,66.336-6.312Zm6.048.12a6.173,6.173,0,0,1,.3-2,4.325,4.325,0,0,1,.828-1.476,3.526,3.526,0,0,1,1.236-.912,3.679,3.679,0,0,1,1.5-.312,3.679,3.679,0,0,1,1.5.312,3.526,3.526,0,0,1,1.236.912A4.325,4.325,0,0,1,79.812-8.2a6.173,6.173,0,0,1,.3,2,6.173,6.173,0,0,1-.3,2,4.193,4.193,0,0,1-.828,1.464,3.593,3.593,0,0,1-1.236.9,3.679,3.679,0,0,1-1.5.312,3.679,3.679,0,0,1-1.5-.312,3.593,3.593,0,0,1-1.236-.9,4.193,4.193,0,0,1-.828-1.464A6.173,6.173,0,0,1,72.384-6.192Zm-2.16,0a8.151,8.151,0,0,0,.384,2.544A5.807,5.807,0,0,0,71.76-1.6a5.3,5.3,0,0,0,1.9,1.368,6.429,6.429,0,0,0,2.592.492,6.408,6.408,0,0,0,2.6-.492A5.325,5.325,0,0,0,80.736-1.6a5.807,5.807,0,0,0,1.152-2.052,8.151,8.151,0,0,0,.384-2.544,8.264,8.264,0,0,0-.384-2.556,5.791,5.791,0,0,0-1.152-2.064,5.454,5.454,0,0,0-1.884-1.38,6.275,6.275,0,0,0-2.6-.5,6.3,6.3,0,0,0-2.592.5,5.427,5.427,0,0,0-1.9,1.38,5.791,5.791,0,0,0-1.152,2.064A8.264,8.264,0,0,0,70.224-6.192ZM95.664-.048V-1.632a2.02,2.02,0,0,1-.624.12q-.48,0-.564-.336A4.774,4.774,0,0,1,94.392-2.9V-9.288a3.341,3.341,0,0,0-.408-1.752,2.876,2.876,0,0,0-1.08-1.044,4.359,4.359,0,0,0-1.5-.492,11.614,11.614,0,0,0-1.668-.12,8.729,8.729,0,0,0-1.968.216,4.828,4.828,0,0,0-1.656.708,3.639,3.639,0,0,0-1.152,1.284,4.406,4.406,0,0,0-.48,1.944h2.04a2.088,2.088,0,0,1,.936-1.86,4.314,4.314,0,0,1,2.16-.492,6.706,6.706,0,0,1,.972.072,2.635,2.635,0,0,1,.888.288,1.728,1.728,0,0,1,.648.624,2.036,2.036,0,0,1,.252,1.08,1.113,1.113,0,0,1-.336.876,2.219,2.219,0,0,1-.912.456,8.891,8.891,0,0,1-1.332.24q-.756.084-1.6.252-.792.144-1.548.36a4.344,4.344,0,0,0-1.344.636A3.141,3.141,0,0,0,84.36-4.92,3.645,3.645,0,0,0,84-3.192a3.593,3.593,0,0,0,.324,1.6,2.935,2.935,0,0,0,.888,1.08,3.567,3.567,0,0,0,1.308.6A6.719,6.719,0,0,0,88.1.264,6.465,6.465,0,0,0,90.516-.18a4.881,4.881,0,0,0,1.956-1.452A1.93,1.93,0,0,0,92.94-.18,1.755,1.755,0,0,0,94.2.264,2.885,2.885,0,0,0,95.664-.048Zm-3.312-6.36V-4.32a2.306,2.306,0,0,1-.216.924,2.746,2.746,0,0,1-.672.912,3.635,3.635,0,0,1-1.176.7,4.833,4.833,0,0,1-1.728.276,4.247,4.247,0,0,1-.9-.1,2.214,2.214,0,0,1-.768-.312,1.7,1.7,0,0,1-.528-.564,1.659,1.659,0,0,1-.2-.852,1.916,1.916,0,0,1,.348-1.212,2.27,2.27,0,0,1,.9-.684,5.074,5.074,0,0,1,1.248-.348q.7-.108,1.38-.192t1.308-.216A2.539,2.539,0,0,0,92.352-6.408Zm5.136-6V0h2.04V-5.52a8.483,8.483,0,0,1,.24-2.124,4.071,4.071,0,0,1,.768-1.572,3.292,3.292,0,0,1,1.392-.984,5.77,5.77,0,0,1,2.088-.336V-12.7a4.585,4.585,0,0,0-2.736.672,5.526,5.526,0,0,0-1.824,2.232h-.048v-2.616Zm9.12,6.312a8.163,8.163,0,0,1,.192-1.776,4.7,4.7,0,0,1,.624-1.536,3.249,3.249,0,0,1,1.152-1.08,3.5,3.5,0,0,1,1.752-.408,3.787,3.787,0,0,1,1.8.4,3.494,3.494,0,0,1,1.212,1.044,4.365,4.365,0,0,1,.684,1.5,7.151,7.151,0,0,1,.216,1.764,7.2,7.2,0,0,1-.2,1.7,4.466,4.466,0,0,1-.66,1.5A3.511,3.511,0,0,1,112.2-1.92a3.5,3.5,0,0,1-1.752.408,3.644,3.644,0,0,1-1.716-.384,3.411,3.411,0,0,1-1.2-1.032,4.567,4.567,0,0,1-.7-1.476A6.344,6.344,0,0,1,106.608-6.1Zm9.6,6.1V-17.136h-2.04v6.384h-.048a3.286,3.286,0,0,0-.828-.924,4.7,4.7,0,0,0-1.044-.6,5.24,5.24,0,0,0-1.1-.324,6.043,6.043,0,0,0-1.032-.1,5.648,5.648,0,0,0-2.484.516,5.1,5.1,0,0,0-1.776,1.392A5.877,5.877,0,0,0,104.8-8.736a8.753,8.753,0,0,0-.348,2.5,8.482,8.482,0,0,0,.36,2.5,6.17,6.17,0,0,0,1.068,2.064,5.161,5.161,0,0,0,1.776,1.416,5.6,5.6,0,0,0,2.508.528,6.048,6.048,0,0,0,2.376-.456A3,3,0,0,0,114.12-1.68h.048V0Z" transform="translate(6902 1884)"/>
    <circle id="Ellipse_7" data-name="Ellipse 7" cx="27" cy="27" r="27" transform="translate(7931 1846)"/>
    <line id="Line_11" data-name="Line 11" class="cls-4" y2="103.048" transform="translate(7888.5 1822.469)"/>
    <line id="Line_12" data-name="Line 12" class="cls-4" y2="103.048" transform="translate(7762.5 1822.469)"/>
    <line id="Line_25" data-name="Line 25" class="cls-4" y2="103.048" transform="translate(7636.5 1822.469)"/>
    <line id="Line_13" data-name="Line 13" class="cls-4" y2="103.048" transform="translate(7475.5 1822.469)"/>
    <path id="Path_198" data-name="Path 198" class="cls-3" d="M26.72,53.04V35.52H21.28V53.04H3.84v5.44H21.28V76h5.44V58.48H44.16V53.04Z" transform="translate(7533 1819)"/>
    <path id="Path_200" data-name="Path 200" class="cls-3" d="M8.838-9.09h1.62a4.531,4.531,0,0,0-.4-1.827,3.56,3.56,0,0,0-1.008-1.269,4.158,4.158,0,0,0-1.485-.738,6.867,6.867,0,0,0-1.836-.234,6.593,6.593,0,0,0-1.719.225,4.726,4.726,0,0,0-1.494.684,3.462,3.462,0,0,0-1.053,1.17,3.405,3.405,0,0,0-.4,1.683,2.81,2.81,0,0,0,.351,1.467,2.846,2.846,0,0,0,.936.954,5.44,5.44,0,0,0,1.323.594q.738.225,1.5.4t1.5.333A6.852,6.852,0,0,1,8-5.229a2.579,2.579,0,0,1,.936.675,1.613,1.613,0,0,1,.351,1.08A2.1,2.1,0,0,1,9-2.322a2.1,2.1,0,0,1-.756.711,3.42,3.42,0,0,1-1.053.369,6.384,6.384,0,0,1-1.161.108,5.494,5.494,0,0,1-1.4-.18,3.494,3.494,0,0,1-1.2-.558A2.864,2.864,0,0,1,2.6-2.835,2.9,2.9,0,0,1,2.286-4.23H.666A4.519,4.519,0,0,0,1.089-2.2,3.883,3.883,0,0,0,2.241-.8,5.045,5.045,0,0,0,3.933.018a7.536,7.536,0,0,0,2.043.27A7.813,7.813,0,0,0,7.749.081,5.131,5.131,0,0,0,9.36-.585a3.778,3.778,0,0,0,1.179-1.188A3.227,3.227,0,0,0,11-3.528a3.223,3.223,0,0,0-.351-1.584,3.127,3.127,0,0,0-.936-1.044,4.958,4.958,0,0,0-1.323-.657q-.738-.243-1.5-.423t-1.5-.333a7.87,7.87,0,0,1-1.323-.387,2.6,2.6,0,0,1-.936-.6,1.34,1.34,0,0,1-.351-.963,2.087,2.087,0,0,1,.243-1.053,1.89,1.89,0,0,1,.648-.675,2.82,2.82,0,0,1,.927-.36,5.228,5.228,0,0,1,1.062-.108,3.629,3.629,0,0,1,2.187.621A2.678,2.678,0,0,1,8.838-9.09Zm10.44,3.546H13.932a3.187,3.187,0,0,1,.234-1.017,2.713,2.713,0,0,1,.54-.837,2.473,2.473,0,0,1,.819-.567A2.664,2.664,0,0,1,16.6-8.172a2.617,2.617,0,0,1,1.053.207,2.649,2.649,0,0,1,.828.558,2.622,2.622,0,0,1,.558.837A3.13,3.13,0,0,1,19.278-5.544Zm1.476,2.592H19.242a2.176,2.176,0,0,1-.819,1.368,2.648,2.648,0,0,1-1.593.45,3.169,3.169,0,0,1-1.314-.252,2.575,2.575,0,0,1-.918-.675,2.63,2.63,0,0,1-.522-.972,3.694,3.694,0,0,1-.144-1.161H20.9a7.409,7.409,0,0,0-.153-1.782A5.159,5.159,0,0,0,20.061-7.7a4.076,4.076,0,0,0-1.314-1.305,3.818,3.818,0,0,0-2.061-.513,4.232,4.232,0,0,0-1.755.36,4.125,4.125,0,0,0-1.386,1.008,4.646,4.646,0,0,0-.909,1.53,5.6,5.6,0,0,0-.324,1.944,7.46,7.46,0,0,0,.315,1.962,4.282,4.282,0,0,0,.837,1.548A3.815,3.815,0,0,0,14.841-.162,4.78,4.78,0,0,0,16.776.2,4.224,4.224,0,0,0,19.4-.594,3.719,3.719,0,0,0,20.754-2.952ZM30.726-.036V-1.224a1.515,1.515,0,0,1-.468.09q-.36,0-.423-.252a3.581,3.581,0,0,1-.063-.792V-6.966a2.506,2.506,0,0,0-.306-1.314,2.157,2.157,0,0,0-.81-.783,3.27,3.27,0,0,0-1.125-.369,8.711,8.711,0,0,0-1.251-.09A6.546,6.546,0,0,0,24.8-9.36a3.621,3.621,0,0,0-1.242.531,2.729,2.729,0,0,0-.864.963,3.3,3.3,0,0,0-.36,1.458h1.53a1.566,1.566,0,0,1,.7-1.395,3.236,3.236,0,0,1,1.62-.369,5.03,5.03,0,0,1,.729.054,1.976,1.976,0,0,1,.666.216,1.3,1.3,0,0,1,.486.468,1.527,1.527,0,0,1,.189.81.835.835,0,0,1-.252.657,1.665,1.665,0,0,1-.684.342,6.669,6.669,0,0,1-1,.18q-.567.063-1.2.189-.594.108-1.161.27a3.258,3.258,0,0,0-1.008.477,2.356,2.356,0,0,0-.711.819,2.733,2.733,0,0,0-.27,1.3,2.7,2.7,0,0,0,.243,1.2,2.2,2.2,0,0,0,.666.81,2.675,2.675,0,0,0,.981.45A5.039,5.039,0,0,0,25.056.2a4.849,4.849,0,0,0,1.809-.333,3.66,3.66,0,0,0,1.467-1.089,1.448,1.448,0,0,0,.351,1.089A1.317,1.317,0,0,0,29.628.2,2.164,2.164,0,0,0,30.726-.036Zm-2.484-4.77V-3.24a1.73,1.73,0,0,1-.162.693,2.059,2.059,0,0,1-.5.684,2.726,2.726,0,0,1-.882.522,3.624,3.624,0,0,1-1.3.207,3.185,3.185,0,0,1-.675-.072,1.66,1.66,0,0,1-.576-.234,1.275,1.275,0,0,1-.4-.423A1.244,1.244,0,0,1,23.6-2.5a1.437,1.437,0,0,1,.261-.909,1.7,1.7,0,0,1,.675-.513,3.806,3.806,0,0,1,.936-.261q.522-.081,1.035-.144t.981-.162A1.9,1.9,0,0,0,28.242-4.806Zm3.852-4.5V0h1.53V-4.14a6.362,6.362,0,0,1,.18-1.593,3.053,3.053,0,0,1,.576-1.179,2.469,2.469,0,0,1,1.044-.738A4.327,4.327,0,0,1,36.99-7.9v-1.62a3.439,3.439,0,0,0-2.052.5A4.145,4.145,0,0,0,33.57-7.344h-.036V-9.306ZM44.136-6.318H45.72a3.678,3.678,0,0,0-.432-1.431,3.194,3.194,0,0,0-.873-1,3.616,3.616,0,0,0-1.224-.585,5.624,5.624,0,0,0-1.485-.189,4.5,4.5,0,0,0-1.926.387A3.844,3.844,0,0,0,38.4-8.073a4.517,4.517,0,0,0-.819,1.584,6.829,6.829,0,0,0-.27,1.953,6.27,6.27,0,0,0,.279,1.917,4.2,4.2,0,0,0,.828,1.5,3.648,3.648,0,0,0,1.368.972A4.847,4.847,0,0,0,41.67.2a4.043,4.043,0,0,0,2.817-.936A4.286,4.286,0,0,0,45.774-3.4H44.208a2.682,2.682,0,0,1-.783,1.674,2.5,2.5,0,0,1-1.773.594,2.533,2.533,0,0,1-1.242-.288,2.417,2.417,0,0,1-.846-.765,3.377,3.377,0,0,1-.477-1.089,5.175,5.175,0,0,1-.153-1.26,6.33,6.33,0,0,1,.144-1.359,3.408,3.408,0,0,1,.477-1.161,2.471,2.471,0,0,1,.891-.81,2.853,2.853,0,0,1,1.386-.306,2.322,2.322,0,0,1,1.548.486A2.332,2.332,0,0,1,44.136-6.318Zm3.348-6.534V0h1.53V-5.256a3.77,3.77,0,0,1,.171-1.161,2.637,2.637,0,0,1,.513-.927,2.278,2.278,0,0,1,.855-.612,3.118,3.118,0,0,1,1.215-.216,1.873,1.873,0,0,1,1.386.5,1.848,1.848,0,0,1,.5,1.368V0h1.53V-6.12A5.759,5.759,0,0,0,55.035-7.5,2.608,2.608,0,0,0,54.5-8.568a2.515,2.515,0,0,0-.99-.7,4.038,4.038,0,0,0-1.53-.252,4.273,4.273,0,0,0-.855.09,3.781,3.781,0,0,0-.846.279,2.864,2.864,0,0,0-.729.486,2.036,2.036,0,0,0-.5.729h-.036v-4.914Z" transform="translate(7799 1885)"/>
    <path id="Path_199" data-name="Path 199" class="cls-3" d="M4.32-11.412V0H6.03V-11.412h4.284v-1.44H.036v1.44ZM15.948-5.544H10.6a3.187,3.187,0,0,1,.234-1.017,2.713,2.713,0,0,1,.54-.837,2.473,2.473,0,0,1,.819-.567,2.664,2.664,0,0,1,1.071-.207,2.617,2.617,0,0,1,1.053.207,2.649,2.649,0,0,1,.828.558,2.622,2.622,0,0,1,.558.837A3.13,3.13,0,0,1,15.948-5.544Zm1.476,2.592H15.912a2.176,2.176,0,0,1-.819,1.368,2.648,2.648,0,0,1-1.593.45,3.169,3.169,0,0,1-1.314-.252,2.575,2.575,0,0,1-.918-.675,2.63,2.63,0,0,1-.522-.972A3.694,3.694,0,0,1,10.6-4.194h6.966a7.409,7.409,0,0,0-.153-1.782A5.159,5.159,0,0,0,16.731-7.7a4.076,4.076,0,0,0-1.314-1.305,3.818,3.818,0,0,0-2.061-.513,4.232,4.232,0,0,0-1.755.36,4.125,4.125,0,0,0-1.386,1.008,4.646,4.646,0,0,0-.909,1.53A5.6,5.6,0,0,0,8.982-4.68,7.46,7.46,0,0,0,9.3-2.718a4.282,4.282,0,0,0,.837,1.548A3.815,3.815,0,0,0,11.511-.162,4.78,4.78,0,0,0,13.446.2a4.224,4.224,0,0,0,2.628-.792A3.719,3.719,0,0,0,17.424-2.952ZM27.4-.036V-1.224a1.515,1.515,0,0,1-.468.09q-.36,0-.423-.252a3.581,3.581,0,0,1-.063-.792V-6.966a2.506,2.506,0,0,0-.306-1.314,2.157,2.157,0,0,0-.81-.783A3.27,3.27,0,0,0,24.2-9.432a8.711,8.711,0,0,0-1.251-.09,6.546,6.546,0,0,0-1.476.162,3.621,3.621,0,0,0-1.242.531,2.729,2.729,0,0,0-.864.963,3.3,3.3,0,0,0-.36,1.458h1.53a1.566,1.566,0,0,1,.7-1.395,3.236,3.236,0,0,1,1.62-.369,5.03,5.03,0,0,1,.729.054,1.976,1.976,0,0,1,.666.216,1.3,1.3,0,0,1,.486.468,1.527,1.527,0,0,1,.189.81.835.835,0,0,1-.252.657,1.665,1.665,0,0,1-.684.342,6.669,6.669,0,0,1-1,.18q-.567.063-1.2.189-.594.108-1.161.27a3.258,3.258,0,0,0-1.008.477,2.356,2.356,0,0,0-.711.819,2.733,2.733,0,0,0-.27,1.3,2.7,2.7,0,0,0,.243,1.2,2.2,2.2,0,0,0,.666.81,2.675,2.675,0,0,0,.981.45A5.039,5.039,0,0,0,21.726.2a4.849,4.849,0,0,0,1.809-.333A3.66,3.66,0,0,0,25-1.224a1.448,1.448,0,0,0,.351,1.089A1.317,1.317,0,0,0,26.3.2,2.164,2.164,0,0,0,27.4-.036Zm-2.484-4.77V-3.24a1.73,1.73,0,0,1-.162.693,2.059,2.059,0,0,1-.5.684,2.726,2.726,0,0,1-.882.522,3.624,3.624,0,0,1-1.3.207,3.185,3.185,0,0,1-.675-.072,1.66,1.66,0,0,1-.576-.234,1.275,1.275,0,0,1-.4-.423,1.244,1.244,0,0,1-.153-.639,1.437,1.437,0,0,1,.261-.909,1.7,1.7,0,0,1,.675-.513,3.806,3.806,0,0,1,.936-.261q.522-.081,1.035-.144t.981-.162A1.9,1.9,0,0,0,24.912-4.806Zm3.906-4.5V0h1.53V-5.8a2.221,2.221,0,0,1,.135-.675,2.6,2.6,0,0,1,.432-.783,2.59,2.59,0,0,1,.774-.648,2.285,2.285,0,0,1,1.143-.27,2.057,2.057,0,0,1,.855.153,1.3,1.3,0,0,1,.531.432,1.757,1.757,0,0,1,.279.657,3.955,3.955,0,0,1,.081.828V0h1.53V-5.8a2.335,2.335,0,0,1,.648-1.728,2.408,2.408,0,0,1,1.782-.648,2.182,2.182,0,0,1,.909.162A1.348,1.348,0,0,1,40-7.569a1.654,1.654,0,0,1,.27.657,4.328,4.328,0,0,1,.072.81V0h1.53V-6.822a3.058,3.058,0,0,0-.225-1.233,2.163,2.163,0,0,0-.63-.837,2.632,2.632,0,0,0-.972-.477,4.872,4.872,0,0,0-1.269-.153,3.479,3.479,0,0,0-1.683.414,3.249,3.249,0,0,0-1.233,1.17,2.016,2.016,0,0,0-.99-1.224,3.381,3.381,0,0,0-1.566-.36,3.384,3.384,0,0,0-3.006,1.584h-.036V-9.306Z" transform="translate(7677 1885)"/>
    <path id="Path_201" data-name="Path 201" class="cls-5" d="M-2.66-28.56H2.66L13.66,0H8.3L5.62-7.56H-5.78L-8.46,0h-5.16Zm-1.76,17.2H4.3L.02-23.64H-.1Z" transform="translate(7959 1886)"/>
    <rect id="Rectangle_72" data-name="Rectangle 72" class="cls-6" width="251.644" height="234.194" transform="translate(6827 1997)"/>
    <rect id="Rectangle_73" data-name="Rectangle 73" class="cls-6" width="251.644" height="234.194" transform="translate(6827 2286)"/>
    <rect id="Rectangle_74" data-name="Rectangle 74" class="cls-6" width="251.644" height="234.194" transform="translate(7117 1997)"/>
    <rect id="Rectangle_75" data-name="Rectangle 75" class="cls-6" width="251.644" height="234.194" transform="translate(7117 2286)"/>
    <rect id="Rectangle_76" data-name="Rectangle 76" class="cls-6" width="251.644" height="234.194" transform="translate(7407 1997)"/>
    <rect id="Rectangle_77" data-name="Rectangle 77" class="cls-6" width="251.644" height="234.194" transform="translate(7407 2286)"/>
    <rect id="Rectangle_78" data-name="Rectangle 78" class="cls-6" width="251.644" height="234.194" transform="translate(7697 1997)"/>
    <rect id="Rectangle_79" data-name="Rectangle 79" class="cls-6" width="251.644" height="234.194" transform="translate(7697 2286)"/>
    <rect id="Rectangle_80" data-name="Rectangle 80" class="cls-7" width="24.797" height="234.194" transform="translate(6827 1997)"/>
    <rect id="Rectangle_83" data-name="Rectangle 83" class="cls-7" width="24.797" height="234.194" transform="translate(7117 2286)"/>
    <rect id="Rectangle_84" data-name="Rectangle 84" class="cls-7" width="24.797" height="234.194" transform="translate(7407 1997)"/>
    <path id="Path_205" data-name="Path 205" class="cls-3" d="M1.248,3.576V15h1.52V9.768H8.016V8.488H2.768V4.856H8.752V3.576Zm9.952,7.3a4.115,4.115,0,0,1,.2-1.336,2.883,2.883,0,0,1,.552-.984,2.351,2.351,0,0,1,.824-.608,2.508,2.508,0,0,1,2,0,2.351,2.351,0,0,1,.824.608,2.883,2.883,0,0,1,.552.984,4.115,4.115,0,0,1,.2,1.336,4.115,4.115,0,0,1-.2,1.336,2.8,2.8,0,0,1-.552.976,2.4,2.4,0,0,1-.824.6,2.508,2.508,0,0,1-2,0,2.4,2.4,0,0,1-.824-.6,2.8,2.8,0,0,1-.552-.976A4.115,4.115,0,0,1,11.2,10.872Zm-1.44,0a5.434,5.434,0,0,0,.256,1.7,3.871,3.871,0,0,0,.768,1.368,3.533,3.533,0,0,0,1.264.912,4.286,4.286,0,0,0,1.728.328,4.272,4.272,0,0,0,1.736-.328,3.55,3.55,0,0,0,1.256-.912,3.871,3.871,0,0,0,.768-1.368,5.434,5.434,0,0,0,.256-1.7,5.509,5.509,0,0,0-.256-1.7,3.861,3.861,0,0,0-.768-1.376,3.636,3.636,0,0,0-1.256-.92,4.183,4.183,0,0,0-1.736-.336,4.2,4.2,0,0,0-1.728.336,3.618,3.618,0,0,0-1.264.92,3.861,3.861,0,0,0-.768,1.376A5.509,5.509,0,0,0,9.76,10.872Zm9.712-7.3V15h1.36V3.576Zm4.464,7.36a5.442,5.442,0,0,1,.128-1.184,3.132,3.132,0,0,1,.416-1.024,2.166,2.166,0,0,1,.768-.72,2.336,2.336,0,0,1,1.168-.272,2.524,2.524,0,0,1,1.2.264,2.329,2.329,0,0,1,.808.7,2.91,2.91,0,0,1,.456,1,4.844,4.844,0,0,1,.008,2.312,2.977,2.977,0,0,1-.44,1,2.245,2.245,0,0,1-1.952.984,2.429,2.429,0,0,1-1.144-.256,2.274,2.274,0,0,1-.8-.688,3.044,3.044,0,0,1-.464-.984A4.23,4.23,0,0,1,23.936,10.936ZM30.336,15V3.576h-1.36V7.832h-.032a2.191,2.191,0,0,0-.552-.616,3.136,3.136,0,0,0-.7-.4A3.493,3.493,0,0,0,26.96,6.6a4.028,4.028,0,0,0-.688-.064,3.765,3.765,0,0,0-1.656.344,3.4,3.4,0,0,0-1.184.928,3.918,3.918,0,0,0-.7,1.368A5.836,5.836,0,0,0,22.5,10.84a5.655,5.655,0,0,0,.24,1.664,4.113,4.113,0,0,0,.712,1.376,3.441,3.441,0,0,0,1.184.944,3.731,3.731,0,0,0,1.672.352,4.032,4.032,0,0,0,1.584-.3,2,2,0,0,0,1.056-.992h.032V15Zm7.84-4.928H33.424a2.833,2.833,0,0,1,.208-.9,2.411,2.411,0,0,1,.48-.744,2.2,2.2,0,0,1,.728-.5,2.368,2.368,0,0,1,.952-.184,2.327,2.327,0,0,1,.936.184,2.355,2.355,0,0,1,.736.5,2.331,2.331,0,0,1,.5.744A2.783,2.783,0,0,1,38.176,10.072Zm1.312,2.3H38.144a1.934,1.934,0,0,1-.728,1.216,2.354,2.354,0,0,1-1.416.4,2.817,2.817,0,0,1-1.168-.224,2.289,2.289,0,0,1-.816-.6,2.337,2.337,0,0,1-.464-.864,3.283,3.283,0,0,1-.128-1.032h6.192a6.585,6.585,0,0,0-.136-1.584,4.585,4.585,0,0,0-.608-1.536A3.623,3.623,0,0,0,37.7,6.992a3.394,3.394,0,0,0-1.832-.456,3.762,3.762,0,0,0-1.56.32,3.666,3.666,0,0,0-1.232.9,4.13,4.13,0,0,0-.808,1.36,4.978,4.978,0,0,0-.288,1.728,6.631,6.631,0,0,0,.28,1.744,3.806,3.806,0,0,0,.744,1.376,3.391,3.391,0,0,0,1.224.9,4.249,4.249,0,0,0,1.72.32,3.755,3.755,0,0,0,2.336-.7A3.306,3.306,0,0,0,39.488,12.376Zm1.488-5.648V15h1.36V11.32A5.655,5.655,0,0,1,42.5,9.9a2.714,2.714,0,0,1,.512-1.048,2.194,2.194,0,0,1,.928-.656,3.847,3.847,0,0,1,1.392-.224V6.536a3.056,3.056,0,0,0-1.824.448,3.684,3.684,0,0,0-1.216,1.488h-.032V6.728Zm12.64-1.872V15h1.52V4.856h3.808V3.576H49.808v1.28Zm7.808.384V3.576h-1.36V5.24Zm-1.36,1.488V15h1.36V6.728Zm5.36,0V4.248h-1.36v2.48H62.656v1.2h1.408v5.264a3.143,3.143,0,0,0,.112.928,1.128,1.128,0,0,0,.344.544,1.328,1.328,0,0,0,.608.264,4.884,4.884,0,0,0,.9.072h1.04V13.8h-.624a4.536,4.536,0,0,1-.52-.024.672.672,0,0,1-.312-.1.4.4,0,0,1-.152-.224,1.484,1.484,0,0,1-.04-.384V7.928h1.648v-1.2Zm3.232-3.152V15h1.36V3.576Zm9.216,6.5H73.12a2.833,2.833,0,0,1,.208-.9,2.411,2.411,0,0,1,.48-.744,2.2,2.2,0,0,1,.728-.5,2.368,2.368,0,0,1,.952-.184,2.327,2.327,0,0,1,.936.184,2.355,2.355,0,0,1,.736.5,2.331,2.331,0,0,1,.5.744A2.783,2.783,0,0,1,77.872,10.072Zm1.312,2.3H77.84a1.934,1.934,0,0,1-.728,1.216,2.354,2.354,0,0,1-1.416.4,2.817,2.817,0,0,1-1.168-.224,2.289,2.289,0,0,1-.816-.6,2.337,2.337,0,0,1-.464-.864,3.283,3.283,0,0,1-.128-1.032h6.192a6.586,6.586,0,0,0-.136-1.584,4.585,4.585,0,0,0-.608-1.536A3.623,3.623,0,0,0,77.4,6.992a3.394,3.394,0,0,0-1.832-.456,3.762,3.762,0,0,0-1.56.32,3.666,3.666,0,0,0-1.232.9,4.13,4.13,0,0,0-.808,1.36,4.978,4.978,0,0,0-.288,1.728,6.631,6.631,0,0,0,.28,1.744A3.806,3.806,0,0,0,72.7,13.96a3.391,3.391,0,0,0,1.224.9,4.249,4.249,0,0,0,1.72.32,3.755,3.755,0,0,0,2.336-.7A3.306,3.306,0,0,0,79.184,12.376Z" transform="translate(6827.918 2240.378)"/>
    <path id="Path_206" data-name="Path 206" class="cls-3" d="M2.768,9.048V4.856H5.744a2.8,2.8,0,0,1,1.9.536,1.983,1.983,0,0,1,.6,1.56,2.009,2.009,0,0,1-.6,1.568,2.714,2.714,0,0,1-1.9.528ZM1.248,3.576V15h1.52V10.328H6.256a3.48,3.48,0,0,0,2.616-.88,3.391,3.391,0,0,0,.888-2.5,3.364,3.364,0,0,0-.888-2.488,3.547,3.547,0,0,0-2.616-.888Zm10.144,0V15h1.36V10.328A3.351,3.351,0,0,1,12.9,9.3a2.344,2.344,0,0,1,.456-.824,2.025,2.025,0,0,1,.76-.544,2.772,2.772,0,0,1,1.08-.192,1.665,1.665,0,0,1,1.232.448A1.643,1.643,0,0,1,16.88,9.4V15h1.36V9.56A5.119,5.119,0,0,0,18.1,8.336a2.318,2.318,0,0,0-.472-.952,2.236,2.236,0,0,0-.88-.624,3.59,3.59,0,0,0-1.36-.224,3.8,3.8,0,0,0-.76.08,3.361,3.361,0,0,0-.752.248,2.546,2.546,0,0,0-.648.432,1.809,1.809,0,0,0-.448.648h-.032V3.576Zm9.888,7.3a4.115,4.115,0,0,1,.2-1.336,2.883,2.883,0,0,1,.552-.984,2.351,2.351,0,0,1,.824-.608,2.508,2.508,0,0,1,2,0,2.351,2.351,0,0,1,.824.608,2.883,2.883,0,0,1,.552.984,4.115,4.115,0,0,1,.2,1.336,4.115,4.115,0,0,1-.2,1.336,2.8,2.8,0,0,1-.552.976,2.4,2.4,0,0,1-.824.6,2.508,2.508,0,0,1-2,0,2.4,2.4,0,0,1-.824-.6,2.8,2.8,0,0,1-.552-.976A4.115,4.115,0,0,1,21.28,10.872Zm-1.44,0a5.434,5.434,0,0,0,.256,1.7,3.871,3.871,0,0,0,.768,1.368,3.533,3.533,0,0,0,1.264.912,4.737,4.737,0,0,0,3.464,0,3.55,3.55,0,0,0,1.256-.912,3.871,3.871,0,0,0,.768-1.368,5.434,5.434,0,0,0,.256-1.7,5.509,5.509,0,0,0-.256-1.7,3.861,3.861,0,0,0-.768-1.376,3.636,3.636,0,0,0-1.256-.92,4.632,4.632,0,0,0-3.464,0,3.618,3.618,0,0,0-1.264.92A3.861,3.861,0,0,0,20.1,9.168,5.509,5.509,0,0,0,19.84,10.872ZM31.36,6.728V4.248H30v2.48H28.592v1.2H30v5.264a3.143,3.143,0,0,0,.112.928,1.128,1.128,0,0,0,.344.544,1.328,1.328,0,0,0,.608.264,4.884,4.884,0,0,0,.9.072h1.04V13.8h-.624a4.536,4.536,0,0,1-.52-.024.672.672,0,0,1-.312-.1.4.4,0,0,1-.152-.224,1.484,1.484,0,0,1-.04-.384V7.928h1.648v-1.2ZM35.5,10.872a4.115,4.115,0,0,1,.2-1.336,2.883,2.883,0,0,1,.552-.984,2.351,2.351,0,0,1,.824-.608,2.508,2.508,0,0,1,2,0,2.351,2.351,0,0,1,.824.608,2.883,2.883,0,0,1,.552.984,4.115,4.115,0,0,1,.2,1.336,4.115,4.115,0,0,1-.2,1.336,2.8,2.8,0,0,1-.552.976,2.4,2.4,0,0,1-.824.6,2.508,2.508,0,0,1-2,0,2.4,2.4,0,0,1-.824-.6,2.8,2.8,0,0,1-.552-.976A4.115,4.115,0,0,1,35.5,10.872Zm-1.44,0a5.434,5.434,0,0,0,.256,1.7,3.871,3.871,0,0,0,.768,1.368,3.533,3.533,0,0,0,1.264.912,4.737,4.737,0,0,0,3.464,0,3.55,3.55,0,0,0,1.256-.912,3.871,3.871,0,0,0,.768-1.368,5.434,5.434,0,0,0,.256-1.7,5.509,5.509,0,0,0-.256-1.7,3.861,3.861,0,0,0-.768-1.376,3.636,3.636,0,0,0-1.256-.92,4.632,4.632,0,0,0-3.464,0,3.618,3.618,0,0,0-1.264.92,3.861,3.861,0,0,0-.768,1.376A5.509,5.509,0,0,0,34.064,10.872Zm16.9-6.016V15h1.52V4.856h3.808V3.576H47.152v1.28Zm7.808.384V3.576h-1.36V5.24Zm-1.36,1.488V15h1.36V6.728Zm5.36,0V4.248h-1.36v2.48H60v1.2h1.408v5.264a3.143,3.143,0,0,0,.112.928,1.128,1.128,0,0,0,.344.544,1.328,1.328,0,0,0,.608.264,4.884,4.884,0,0,0,.9.072h1.04V13.8h-.624a4.536,4.536,0,0,1-.52-.024.672.672,0,0,1-.312-.1.4.4,0,0,1-.152-.224,1.484,1.484,0,0,1-.04-.384V7.928h1.648v-1.2ZM66,3.576V15h1.36V3.576Zm9.216,6.5H70.464a2.833,2.833,0,0,1,.208-.9,2.411,2.411,0,0,1,.48-.744,2.2,2.2,0,0,1,.728-.5,2.368,2.368,0,0,1,.952-.184,2.327,2.327,0,0,1,.936.184,2.355,2.355,0,0,1,.736.5,2.331,2.331,0,0,1,.5.744A2.783,2.783,0,0,1,75.216,10.072Zm1.312,2.3H75.184a1.934,1.934,0,0,1-.728,1.216,2.354,2.354,0,0,1-1.416.4,2.817,2.817,0,0,1-1.168-.224,2.289,2.289,0,0,1-.816-.6,2.337,2.337,0,0,1-.464-.864,3.283,3.283,0,0,1-.128-1.032h6.192a6.586,6.586,0,0,0-.136-1.584,4.585,4.585,0,0,0-.608-1.536,3.623,3.623,0,0,0-1.168-1.16,3.394,3.394,0,0,0-1.832-.456,3.762,3.762,0,0,0-1.56.32,3.666,3.666,0,0,0-1.232.9,4.13,4.13,0,0,0-.808,1.36,4.978,4.978,0,0,0-.288,1.728,6.631,6.631,0,0,0,.28,1.744,3.806,3.806,0,0,0,.744,1.376,3.391,3.391,0,0,0,1.224.9,4.249,4.249,0,0,0,1.72.32,3.755,3.755,0,0,0,2.336-.7A3.306,3.306,0,0,0,76.528,12.376Z" transform="translate(6827.918 2529.378)"/>
    <path id="Path_204" data-name="Path 204" class="cls-3" d="M1.232,3.576V15h1.44V5.832H2.7L8.672,15h1.664V3.576H8.9V12.84H8.864L2.848,3.576Zm12.336,7.3a4.115,4.115,0,0,1,.2-1.336,2.883,2.883,0,0,1,.552-.984,2.351,2.351,0,0,1,.824-.608,2.508,2.508,0,0,1,2,0,2.351,2.351,0,0,1,.824.608,2.883,2.883,0,0,1,.552.984,4.115,4.115,0,0,1,.2,1.336,4.115,4.115,0,0,1-.2,1.336,2.8,2.8,0,0,1-.552.976,2.4,2.4,0,0,1-.824.6,2.508,2.508,0,0,1-2,0,2.4,2.4,0,0,1-.824-.6,2.8,2.8,0,0,1-.552-.976A4.115,4.115,0,0,1,13.568,10.872Zm-1.44,0a5.434,5.434,0,0,0,.256,1.7,3.871,3.871,0,0,0,.768,1.368,3.533,3.533,0,0,0,1.264.912,4.286,4.286,0,0,0,1.728.328,4.272,4.272,0,0,0,1.736-.328,3.55,3.55,0,0,0,1.256-.912,3.871,3.871,0,0,0,.768-1.368,5.434,5.434,0,0,0,.256-1.7,5.509,5.509,0,0,0-.256-1.7,3.861,3.861,0,0,0-.768-1.376,3.636,3.636,0,0,0-1.256-.92,4.183,4.183,0,0,0-1.736-.336,4.2,4.2,0,0,0-1.728.336,3.618,3.618,0,0,0-1.264.92,3.861,3.861,0,0,0-.768,1.376A5.509,5.509,0,0,0,12.128,10.872Zm11.52-4.144V4.248h-1.36v2.48H20.88v1.2h1.408v5.264a3.143,3.143,0,0,0,.112.928,1.128,1.128,0,0,0,.344.544,1.328,1.328,0,0,0,.608.264,4.884,4.884,0,0,0,.9.072H25.3V13.8h-.624a4.536,4.536,0,0,1-.52-.024.672.672,0,0,1-.312-.1.4.4,0,0,1-.152-.224,1.484,1.484,0,0,1-.04-.384V7.928H25.3v-1.2Zm8.9,3.344H27.792a2.833,2.833,0,0,1,.208-.9,2.411,2.411,0,0,1,.48-.744,2.2,2.2,0,0,1,.728-.5,2.368,2.368,0,0,1,.952-.184,2.327,2.327,0,0,1,.936.184,2.355,2.355,0,0,1,.736.5,2.331,2.331,0,0,1,.5.744A2.782,2.782,0,0,1,32.544,10.072Zm1.312,2.3H32.512a1.934,1.934,0,0,1-.728,1.216,2.354,2.354,0,0,1-1.416.4,2.817,2.817,0,0,1-1.168-.224,2.289,2.289,0,0,1-.816-.6,2.337,2.337,0,0,1-.464-.864,3.283,3.283,0,0,1-.128-1.032h6.192a6.586,6.586,0,0,0-.136-1.584,4.585,4.585,0,0,0-.608-1.536,3.623,3.623,0,0,0-1.168-1.16,3.394,3.394,0,0,0-1.832-.456,3.762,3.762,0,0,0-1.56.32,3.666,3.666,0,0,0-1.232.9,4.13,4.13,0,0,0-.808,1.36,4.978,4.978,0,0,0-.288,1.728,6.631,6.631,0,0,0,.28,1.744,3.806,3.806,0,0,0,.744,1.376,3.391,3.391,0,0,0,1.224.9,4.249,4.249,0,0,0,1.72.32,3.755,3.755,0,0,0,2.336-.7A3.306,3.306,0,0,0,33.856,12.376Zm8.8-7.52V15h1.52V4.856h3.808V3.576H38.848v1.28Zm7.808.384V3.576H49.1V5.24ZM49.1,6.728V15h1.36V6.728Zm5.36,0V4.248H53.1v2.48H51.7v1.2H53.1v5.264a3.143,3.143,0,0,0,.112.928,1.128,1.128,0,0,0,.344.544,1.328,1.328,0,0,0,.608.264,4.884,4.884,0,0,0,.9.072h1.04V13.8h-.624a4.536,4.536,0,0,1-.52-.024.672.672,0,0,1-.312-.1.4.4,0,0,1-.152-.224,1.484,1.484,0,0,1-.04-.384V7.928h1.648v-1.2ZM57.7,3.576V15h1.36V3.576Zm9.216,6.5H62.16a2.833,2.833,0,0,1,.208-.9,2.411,2.411,0,0,1,.48-.744,2.2,2.2,0,0,1,.728-.5,2.368,2.368,0,0,1,.952-.184,2.327,2.327,0,0,1,.936.184,2.355,2.355,0,0,1,.736.5,2.331,2.331,0,0,1,.5.744A2.782,2.782,0,0,1,66.912,10.072Zm1.312,2.3H66.88a1.934,1.934,0,0,1-.728,1.216,2.354,2.354,0,0,1-1.416.4,2.817,2.817,0,0,1-1.168-.224,2.289,2.289,0,0,1-.816-.6,2.337,2.337,0,0,1-.464-.864,3.283,3.283,0,0,1-.128-1.032h6.192a6.586,6.586,0,0,0-.136-1.584,4.585,4.585,0,0,0-.608-1.536,3.623,3.623,0,0,0-1.168-1.16,3.394,3.394,0,0,0-1.832-.456,3.762,3.762,0,0,0-1.56.32,3.666,3.666,0,0,0-1.232.9,4.13,4.13,0,0,0-.808,1.36,4.978,4.978,0,0,0-.288,1.728A6.631,6.631,0,0,0,61,12.584a3.806,3.806,0,0,0,.744,1.376,3.391,3.391,0,0,0,1.224.9,4.249,4.249,0,0,0,1.72.32,3.755,3.755,0,0,0,2.336-.7A3.306,3.306,0,0,0,68.224,12.376Z" transform="translate(7117.918 2240.378)"/>
    <path id="Path_207" data-name="Path 207" class="cls-3" d="M1.248,3.576V15h1.52V9.768H8.016V8.488H2.768V4.856H8.752V3.576Zm9.952,7.3a4.115,4.115,0,0,1,.2-1.336,2.883,2.883,0,0,1,.552-.984,2.351,2.351,0,0,1,.824-.608,2.508,2.508,0,0,1,2,0,2.351,2.351,0,0,1,.824.608,2.883,2.883,0,0,1,.552.984,4.115,4.115,0,0,1,.2,1.336,4.115,4.115,0,0,1-.2,1.336,2.8,2.8,0,0,1-.552.976,2.4,2.4,0,0,1-.824.6,2.508,2.508,0,0,1-2,0,2.4,2.4,0,0,1-.824-.6,2.8,2.8,0,0,1-.552-.976A4.115,4.115,0,0,1,11.2,10.872Zm-1.44,0a5.434,5.434,0,0,0,.256,1.7,3.871,3.871,0,0,0,.768,1.368,3.533,3.533,0,0,0,1.264.912,4.286,4.286,0,0,0,1.728.328,4.272,4.272,0,0,0,1.736-.328,3.55,3.55,0,0,0,1.256-.912,3.871,3.871,0,0,0,.768-1.368,5.434,5.434,0,0,0,.256-1.7,5.509,5.509,0,0,0-.256-1.7,3.861,3.861,0,0,0-.768-1.376,3.636,3.636,0,0,0-1.256-.92,4.183,4.183,0,0,0-1.736-.336,4.2,4.2,0,0,0-1.728.336,3.618,3.618,0,0,0-1.264.92,3.861,3.861,0,0,0-.768,1.376A5.509,5.509,0,0,0,9.76,10.872Zm9.712-7.3V15h1.36V3.576Zm4.464,7.36a5.442,5.442,0,0,1,.128-1.184,3.132,3.132,0,0,1,.416-1.024,2.166,2.166,0,0,1,.768-.72,2.336,2.336,0,0,1,1.168-.272,2.524,2.524,0,0,1,1.2.264,2.329,2.329,0,0,1,.808.7,2.91,2.91,0,0,1,.456,1,4.844,4.844,0,0,1,.008,2.312,2.977,2.977,0,0,1-.44,1,2.245,2.245,0,0,1-1.952.984,2.429,2.429,0,0,1-1.144-.256,2.274,2.274,0,0,1-.8-.688,3.044,3.044,0,0,1-.464-.984A4.23,4.23,0,0,1,23.936,10.936ZM30.336,15V3.576h-1.36V7.832h-.032a2.191,2.191,0,0,0-.552-.616,3.136,3.136,0,0,0-.7-.4A3.493,3.493,0,0,0,26.96,6.6a4.028,4.028,0,0,0-.688-.064,3.765,3.765,0,0,0-1.656.344,3.4,3.4,0,0,0-1.184.928,3.918,3.918,0,0,0-.7,1.368A5.836,5.836,0,0,0,22.5,10.84a5.655,5.655,0,0,0,.24,1.664,4.113,4.113,0,0,0,.712,1.376,3.441,3.441,0,0,0,1.184.944,3.731,3.731,0,0,0,1.672.352,4.032,4.032,0,0,0,1.584-.3,2,2,0,0,0,1.056-.992h.032V15Zm7.84-4.928H33.424a2.833,2.833,0,0,1,.208-.9,2.411,2.411,0,0,1,.48-.744,2.2,2.2,0,0,1,.728-.5,2.368,2.368,0,0,1,.952-.184,2.327,2.327,0,0,1,.936.184,2.355,2.355,0,0,1,.736.5,2.331,2.331,0,0,1,.5.744A2.783,2.783,0,0,1,38.176,10.072Zm1.312,2.3H38.144a1.934,1.934,0,0,1-.728,1.216,2.354,2.354,0,0,1-1.416.4,2.817,2.817,0,0,1-1.168-.224,2.289,2.289,0,0,1-.816-.6,2.337,2.337,0,0,1-.464-.864,3.283,3.283,0,0,1-.128-1.032h6.192a6.585,6.585,0,0,0-.136-1.584,4.585,4.585,0,0,0-.608-1.536A3.623,3.623,0,0,0,37.7,6.992a3.394,3.394,0,0,0-1.832-.456,3.762,3.762,0,0,0-1.56.32,3.666,3.666,0,0,0-1.232.9,4.13,4.13,0,0,0-.808,1.36,4.978,4.978,0,0,0-.288,1.728,6.631,6.631,0,0,0,.28,1.744,3.806,3.806,0,0,0,.744,1.376,3.391,3.391,0,0,0,1.224.9,4.249,4.249,0,0,0,1.72.32,3.755,3.755,0,0,0,2.336-.7A3.306,3.306,0,0,0,39.488,12.376Zm1.488-5.648V15h1.36V11.32A5.655,5.655,0,0,1,42.5,9.9a2.714,2.714,0,0,1,.512-1.048,2.194,2.194,0,0,1,.928-.656,3.847,3.847,0,0,1,1.392-.224V6.536a3.056,3.056,0,0,0-1.824.448,3.684,3.684,0,0,0-1.216,1.488h-.032V6.728Zm12.64-1.872V15h1.52V4.856h3.808V3.576H49.808v1.28Zm7.808.384V3.576h-1.36V5.24Zm-1.36,1.488V15h1.36V6.728Zm5.36,0V4.248h-1.36v2.48H62.656v1.2h1.408v5.264a3.143,3.143,0,0,0,.112.928,1.128,1.128,0,0,0,.344.544,1.328,1.328,0,0,0,.608.264,4.884,4.884,0,0,0,.9.072h1.04V13.8h-.624a4.536,4.536,0,0,1-.52-.024.672.672,0,0,1-.312-.1.4.4,0,0,1-.152-.224,1.484,1.484,0,0,1-.04-.384V7.928h1.648v-1.2Zm3.232-3.152V15h1.36V3.576Zm9.216,6.5H73.12a2.833,2.833,0,0,1,.208-.9,2.411,2.411,0,0,1,.48-.744,2.2,2.2,0,0,1,.728-.5,2.368,2.368,0,0,1,.952-.184,2.327,2.327,0,0,1,.936.184,2.355,2.355,0,0,1,.736.5,2.331,2.331,0,0,1,.5.744A2.783,2.783,0,0,1,77.872,10.072Zm1.312,2.3H77.84a1.934,1.934,0,0,1-.728,1.216,2.354,2.354,0,0,1-1.416.4,2.817,2.817,0,0,1-1.168-.224,2.289,2.289,0,0,1-.816-.6,2.337,2.337,0,0,1-.464-.864,3.283,3.283,0,0,1-.128-1.032h6.192a6.586,6.586,0,0,0-.136-1.584,4.585,4.585,0,0,0-.608-1.536A3.623,3.623,0,0,0,77.4,6.992a3.394,3.394,0,0,0-1.832-.456,3.762,3.762,0,0,0-1.56.32,3.666,3.666,0,0,0-1.232.9,4.13,4.13,0,0,0-.808,1.36,4.978,4.978,0,0,0-.288,1.728,6.631,6.631,0,0,0,.28,1.744A3.806,3.806,0,0,0,72.7,13.96a3.391,3.391,0,0,0,1.224.9,4.249,4.249,0,0,0,1.72.32,3.755,3.755,0,0,0,2.336-.7A3.306,3.306,0,0,0,79.184,12.376Zm7.072-2.96q0-.416.008-.92a8.022,8.022,0,0,1,.08-1.008,7.494,7.494,0,0,1,.208-.984,2.608,2.608,0,0,1,.4-.84,2.061,2.061,0,0,1,.664-.584,2.238,2.238,0,0,1,1.952,0,2.061,2.061,0,0,1,.664.584,2.608,2.608,0,0,1,.4.84,7.491,7.491,0,0,1,.208.984A8.022,8.022,0,0,1,90.92,8.5q.008.5.008.92,0,.64-.04,1.432a6.028,6.028,0,0,1-.256,1.488,2.81,2.81,0,0,1-.7,1.176,2.122,2.122,0,0,1-2.688,0,2.81,2.81,0,0,1-.7-1.176,6.029,6.029,0,0,1-.256-1.488Q86.256,10.056,86.256,9.416Zm-1.44.016q0,.624.032,1.3a8.82,8.82,0,0,0,.16,1.312,6.238,6.238,0,0,0,.368,1.208,3.252,3.252,0,0,0,.656,1,2.9,2.9,0,0,0,1.048.68,4.758,4.758,0,0,0,3.032,0,2.913,2.913,0,0,0,1.04-.68,3.253,3.253,0,0,0,.656-1,6.238,6.238,0,0,0,.368-1.208,8.82,8.82,0,0,0,.16-1.312q.032-.672.032-1.3t-.032-1.3a8.82,8.82,0,0,0-.16-1.312,6.434,6.434,0,0,0-.368-1.216A3.227,3.227,0,0,0,91.152,4.6,2.988,2.988,0,0,0,90.1,3.912a4.593,4.593,0,0,0-3.024,0,2.988,2.988,0,0,0-1.048.688,3.227,3.227,0,0,0-.656,1.008,6.433,6.433,0,0,0-.368,1.216,8.82,8.82,0,0,0-.16,1.312Q84.816,8.808,84.816,9.432ZM96.528,8.52V9.672a6.586,6.586,0,0,1,.816-.048,3.209,3.209,0,0,1,.952.136,2.019,2.019,0,0,1,1.272,1.1,2.174,2.174,0,0,1,.192.936,2.042,2.042,0,0,1-.736,1.608,2.431,2.431,0,0,1-.784.432,2.918,2.918,0,0,1-.944.152,2.231,2.231,0,0,1-1.776-.7,2.765,2.765,0,0,1-.64-1.8H93.52a4.14,4.14,0,0,0,.248,1.568,3.116,3.116,0,0,0,.76,1.16,3.222,3.222,0,0,0,1.2.712,4.838,4.838,0,0,0,1.568.24,5.181,5.181,0,0,0,1.512-.216,3.571,3.571,0,0,0,1.24-.648,3.125,3.125,0,0,0,.84-1.08,3.409,3.409,0,0,0,.312-1.5,3.114,3.114,0,0,0-.5-1.776,2.364,2.364,0,0,0-1.544-.976V8.952a2.865,2.865,0,0,0,1.12-.9,2.193,2.193,0,0,0,.448-1.36,3.239,3.239,0,0,0-.264-1.36,2.525,2.525,0,0,0-.728-.944,3.166,3.166,0,0,0-1.1-.552,4.876,4.876,0,0,0-1.368-.184,3.839,3.839,0,0,0-1.5.272,2.98,2.98,0,0,0-1.08.752,3.316,3.316,0,0,0-.664,1.152A5.163,5.163,0,0,0,93.76,7.32h1.36a3.42,3.42,0,0,1,.128-.944,2.257,2.257,0,0,1,.392-.784,1.908,1.908,0,0,1,.672-.536,2.139,2.139,0,0,1,.952-.2,2.248,2.248,0,0,1,1.44.456A1.639,1.639,0,0,1,99.28,6.68a1.765,1.765,0,0,1-.176.8,1.691,1.691,0,0,1-.472.584,2.1,2.1,0,0,1-.688.352,2.8,2.8,0,0,1-.824.12h-.448A.742.742,0,0,1,96.528,8.52Z" transform="translate(7117.918 2529.378)"/>
    <path id="Path_203" data-name="Path 203" class="cls-3" d="M1.248,3.576V15h1.52V9.768H8.016V8.488H2.768V4.856H8.752V3.576Zm9.952,7.3a4.115,4.115,0,0,1,.2-1.336,2.883,2.883,0,0,1,.552-.984,2.351,2.351,0,0,1,.824-.608,2.508,2.508,0,0,1,2,0,2.351,2.351,0,0,1,.824.608,2.883,2.883,0,0,1,.552.984,4.115,4.115,0,0,1,.2,1.336,4.115,4.115,0,0,1-.2,1.336,2.8,2.8,0,0,1-.552.976,2.4,2.4,0,0,1-.824.6,2.508,2.508,0,0,1-2,0,2.4,2.4,0,0,1-.824-.6,2.8,2.8,0,0,1-.552-.976A4.115,4.115,0,0,1,11.2,10.872Zm-1.44,0a5.434,5.434,0,0,0,.256,1.7,3.871,3.871,0,0,0,.768,1.368,3.533,3.533,0,0,0,1.264.912,4.286,4.286,0,0,0,1.728.328,4.272,4.272,0,0,0,1.736-.328,3.55,3.55,0,0,0,1.256-.912,3.871,3.871,0,0,0,.768-1.368,5.434,5.434,0,0,0,.256-1.7,5.509,5.509,0,0,0-.256-1.7,3.861,3.861,0,0,0-.768-1.376,3.636,3.636,0,0,0-1.256-.92,4.183,4.183,0,0,0-1.736-.336,4.2,4.2,0,0,0-1.728.336,3.618,3.618,0,0,0-1.264.92,3.861,3.861,0,0,0-.768,1.376A5.509,5.509,0,0,0,9.76,10.872Zm9.712-7.3V15h1.36V3.576Zm4.464,7.36a5.442,5.442,0,0,1,.128-1.184,3.132,3.132,0,0,1,.416-1.024,2.166,2.166,0,0,1,.768-.72,2.336,2.336,0,0,1,1.168-.272,2.524,2.524,0,0,1,1.2.264,2.329,2.329,0,0,1,.808.7,2.91,2.91,0,0,1,.456,1,4.844,4.844,0,0,1,.008,2.312,2.977,2.977,0,0,1-.44,1,2.245,2.245,0,0,1-1.952.984,2.429,2.429,0,0,1-1.144-.256,2.274,2.274,0,0,1-.8-.688,3.044,3.044,0,0,1-.464-.984A4.23,4.23,0,0,1,23.936,10.936ZM30.336,15V3.576h-1.36V7.832h-.032a2.191,2.191,0,0,0-.552-.616,3.136,3.136,0,0,0-.7-.4A3.493,3.493,0,0,0,26.96,6.6a4.028,4.028,0,0,0-.688-.064,3.765,3.765,0,0,0-1.656.344,3.4,3.4,0,0,0-1.184.928,3.918,3.918,0,0,0-.7,1.368A5.836,5.836,0,0,0,22.5,10.84a5.655,5.655,0,0,0,.24,1.664,4.113,4.113,0,0,0,.712,1.376,3.441,3.441,0,0,0,1.184.944,3.731,3.731,0,0,0,1.672.352,4.032,4.032,0,0,0,1.584-.3,2,2,0,0,0,1.056-.992h.032V15Zm7.84-4.928H33.424a2.833,2.833,0,0,1,.208-.9,2.411,2.411,0,0,1,.48-.744,2.2,2.2,0,0,1,.728-.5,2.368,2.368,0,0,1,.952-.184,2.327,2.327,0,0,1,.936.184,2.355,2.355,0,0,1,.736.5,2.331,2.331,0,0,1,.5.744A2.783,2.783,0,0,1,38.176,10.072Zm1.312,2.3H38.144a1.934,1.934,0,0,1-.728,1.216,2.354,2.354,0,0,1-1.416.4,2.817,2.817,0,0,1-1.168-.224,2.289,2.289,0,0,1-.816-.6,2.337,2.337,0,0,1-.464-.864,3.283,3.283,0,0,1-.128-1.032h6.192a6.585,6.585,0,0,0-.136-1.584,4.585,4.585,0,0,0-.608-1.536A3.623,3.623,0,0,0,37.7,6.992a3.394,3.394,0,0,0-1.832-.456,3.762,3.762,0,0,0-1.56.32,3.666,3.666,0,0,0-1.232.9,4.13,4.13,0,0,0-.808,1.36,4.978,4.978,0,0,0-.288,1.728,6.631,6.631,0,0,0,.28,1.744,3.806,3.806,0,0,0,.744,1.376,3.391,3.391,0,0,0,1.224.9,4.249,4.249,0,0,0,1.72.32,3.755,3.755,0,0,0,2.336-.7A3.306,3.306,0,0,0,39.488,12.376Zm1.488-5.648V15h1.36V11.32A5.655,5.655,0,0,1,42.5,9.9a2.714,2.714,0,0,1,.512-1.048,2.194,2.194,0,0,1,.928-.656,3.847,3.847,0,0,1,1.392-.224V6.536a3.056,3.056,0,0,0-1.824.448,3.684,3.684,0,0,0-1.216,1.488h-.032V6.728Zm12.64-1.872V15h1.52V4.856h3.808V3.576H49.808v1.28Zm7.808.384V3.576h-1.36V5.24Zm-1.36,1.488V15h1.36V6.728Zm5.36,0V4.248h-1.36v2.48H62.656v1.2h1.408v5.264a3.143,3.143,0,0,0,.112.928,1.128,1.128,0,0,0,.344.544,1.328,1.328,0,0,0,.608.264,4.884,4.884,0,0,0,.9.072h1.04V13.8h-.624a4.536,4.536,0,0,1-.52-.024.672.672,0,0,1-.312-.1.4.4,0,0,1-.152-.224,1.484,1.484,0,0,1-.04-.384V7.928h1.648v-1.2Zm3.232-3.152V15h1.36V3.576Zm9.216,6.5H73.12a2.833,2.833,0,0,1,.208-.9,2.411,2.411,0,0,1,.48-.744,2.2,2.2,0,0,1,.728-.5,2.368,2.368,0,0,1,.952-.184,2.327,2.327,0,0,1,.936.184,2.355,2.355,0,0,1,.736.5,2.331,2.331,0,0,1,.5.744A2.783,2.783,0,0,1,77.872,10.072Zm1.312,2.3H77.84a1.934,1.934,0,0,1-.728,1.216,2.354,2.354,0,0,1-1.416.4,2.817,2.817,0,0,1-1.168-.224,2.289,2.289,0,0,1-.816-.6,2.337,2.337,0,0,1-.464-.864,3.283,3.283,0,0,1-.128-1.032h6.192a6.586,6.586,0,0,0-.136-1.584,4.585,4.585,0,0,0-.608-1.536A3.623,3.623,0,0,0,77.4,6.992a3.394,3.394,0,0,0-1.832-.456,3.762,3.762,0,0,0-1.56.32,3.666,3.666,0,0,0-1.232.9,4.13,4.13,0,0,0-.808,1.36,4.978,4.978,0,0,0-.288,1.728,6.631,6.631,0,0,0,.28,1.744A3.806,3.806,0,0,0,72.7,13.96a3.391,3.391,0,0,0,1.224.9,4.249,4.249,0,0,0,1.72.32,3.755,3.755,0,0,0,2.336-.7A3.306,3.306,0,0,0,79.184,12.376Zm7.072-2.96q0-.416.008-.92a8.022,8.022,0,0,1,.08-1.008,7.494,7.494,0,0,1,.208-.984,2.608,2.608,0,0,1,.4-.84,2.061,2.061,0,0,1,.664-.584,2.238,2.238,0,0,1,1.952,0,2.061,2.061,0,0,1,.664.584,2.608,2.608,0,0,1,.4.84,7.491,7.491,0,0,1,.208.984A8.022,8.022,0,0,1,90.92,8.5q.008.5.008.92,0,.64-.04,1.432a6.028,6.028,0,0,1-.256,1.488,2.81,2.81,0,0,1-.7,1.176,2.122,2.122,0,0,1-2.688,0,2.81,2.81,0,0,1-.7-1.176,6.029,6.029,0,0,1-.256-1.488Q86.256,10.056,86.256,9.416Zm-1.44.016q0,.624.032,1.3a8.82,8.82,0,0,0,.16,1.312,6.238,6.238,0,0,0,.368,1.208,3.252,3.252,0,0,0,.656,1,2.9,2.9,0,0,0,1.048.68,4.758,4.758,0,0,0,3.032,0,2.913,2.913,0,0,0,1.04-.68,3.253,3.253,0,0,0,.656-1,6.238,6.238,0,0,0,.368-1.208,8.82,8.82,0,0,0,.16-1.312q.032-.672.032-1.3t-.032-1.3a8.82,8.82,0,0,0-.16-1.312,6.434,6.434,0,0,0-.368-1.216A3.227,3.227,0,0,0,91.152,4.6,2.988,2.988,0,0,0,90.1,3.912a4.593,4.593,0,0,0-3.024,0,2.988,2.988,0,0,0-1.048.688,3.227,3.227,0,0,0-.656,1.008,6.433,6.433,0,0,0-.368,1.216,8.82,8.82,0,0,0-.16,1.312Q84.816,8.808,84.816,9.432Zm8.928-1.76H95.1a3.848,3.848,0,0,1,.1-1.016,2.706,2.706,0,0,1,.392-.9,2.132,2.132,0,0,1,.7-.648,1.978,1.978,0,0,1,1.016-.248A2.484,2.484,0,0,1,98.16,5a2.017,2.017,0,0,1,1.168,1.064,1.957,1.957,0,0,1,.176.84,2.555,2.555,0,0,1-.728,1.872,5.6,5.6,0,0,1-.9.76q-.544.376-1.264.824-.592.352-1.136.752a5.358,5.358,0,0,0-.976.928,4.6,4.6,0,0,0-.712,1.24,6.024,6.024,0,0,0-.36,1.72h7.408V13.8H95.008a2.15,2.15,0,0,1,.408-.936,4.4,4.4,0,0,1,.752-.76,8.331,8.331,0,0,1,.968-.664q.528-.312,1.056-.632.528-.336,1.024-.7a5.179,5.179,0,0,0,.88-.824,3.785,3.785,0,0,0,.616-1.032,3.535,3.535,0,0,0,.232-1.328,3.334,3.334,0,0,0-.28-1.408A2.91,2.91,0,0,0,99.9,4.5a3.362,3.362,0,0,0-1.128-.624,4.349,4.349,0,0,0-1.384-.216,4,4,0,0,0-1.6.3,3.266,3.266,0,0,0-1.176.84,3.39,3.39,0,0,0-.7,1.272A4.587,4.587,0,0,0,93.744,7.672Z" transform="translate(7407.918 2240.378)"/>
    <path id="Path_208" data-name="Path 208" class="cls-3" d="M2.768,9.048V4.856H5.744a2.8,2.8,0,0,1,1.9.536,1.983,1.983,0,0,1,.6,1.56,2.009,2.009,0,0,1-.6,1.568,2.714,2.714,0,0,1-1.9.528ZM1.248,3.576V15h1.52V10.328H6.256a3.48,3.48,0,0,0,2.616-.88,3.391,3.391,0,0,0,.888-2.5,3.364,3.364,0,0,0-.888-2.488,3.547,3.547,0,0,0-2.616-.888Zm10.144,0V15h1.36V10.328A3.351,3.351,0,0,1,12.9,9.3a2.344,2.344,0,0,1,.456-.824,2.025,2.025,0,0,1,.76-.544,2.772,2.772,0,0,1,1.08-.192,1.665,1.665,0,0,1,1.232.448A1.643,1.643,0,0,1,16.88,9.4V15h1.36V9.56A5.119,5.119,0,0,0,18.1,8.336a2.318,2.318,0,0,0-.472-.952,2.236,2.236,0,0,0-.88-.624,3.59,3.59,0,0,0-1.36-.224,3.8,3.8,0,0,0-.76.08,3.361,3.361,0,0,0-.752.248,2.546,2.546,0,0,0-.648.432,1.809,1.809,0,0,0-.448.648h-.032V3.576Zm9.888,7.3a4.115,4.115,0,0,1,.2-1.336,2.883,2.883,0,0,1,.552-.984,2.351,2.351,0,0,1,.824-.608,2.508,2.508,0,0,1,2,0,2.351,2.351,0,0,1,.824.608,2.883,2.883,0,0,1,.552.984,4.115,4.115,0,0,1,.2,1.336,4.115,4.115,0,0,1-.2,1.336,2.8,2.8,0,0,1-.552.976,2.4,2.4,0,0,1-.824.6,2.508,2.508,0,0,1-2,0,2.4,2.4,0,0,1-.824-.6,2.8,2.8,0,0,1-.552-.976A4.115,4.115,0,0,1,21.28,10.872Zm-1.44,0a5.434,5.434,0,0,0,.256,1.7,3.871,3.871,0,0,0,.768,1.368,3.533,3.533,0,0,0,1.264.912,4.737,4.737,0,0,0,3.464,0,3.55,3.55,0,0,0,1.256-.912,3.871,3.871,0,0,0,.768-1.368,5.434,5.434,0,0,0,.256-1.7,5.509,5.509,0,0,0-.256-1.7,3.861,3.861,0,0,0-.768-1.376,3.636,3.636,0,0,0-1.256-.92,4.632,4.632,0,0,0-3.464,0,3.618,3.618,0,0,0-1.264.92A3.861,3.861,0,0,0,20.1,9.168,5.509,5.509,0,0,0,19.84,10.872ZM31.36,6.728V4.248H30v2.48H28.592v1.2H30v5.264a3.143,3.143,0,0,0,.112.928,1.128,1.128,0,0,0,.344.544,1.328,1.328,0,0,0,.608.264,4.884,4.884,0,0,0,.9.072h1.04V13.8h-.624a4.536,4.536,0,0,1-.52-.024.672.672,0,0,1-.312-.1.4.4,0,0,1-.152-.224,1.484,1.484,0,0,1-.04-.384V7.928h1.648v-1.2ZM35.5,10.872a4.115,4.115,0,0,1,.2-1.336,2.883,2.883,0,0,1,.552-.984,2.351,2.351,0,0,1,.824-.608,2.508,2.508,0,0,1,2,0,2.351,2.351,0,0,1,.824.608,2.883,2.883,0,0,1,.552.984,4.115,4.115,0,0,1,.2,1.336,4.115,4.115,0,0,1-.2,1.336,2.8,2.8,0,0,1-.552.976,2.4,2.4,0,0,1-.824.6,2.508,2.508,0,0,1-2,0,2.4,2.4,0,0,1-.824-.6,2.8,2.8,0,0,1-.552-.976A4.115,4.115,0,0,1,35.5,10.872Zm-1.44,0a5.434,5.434,0,0,0,.256,1.7,3.871,3.871,0,0,0,.768,1.368,3.533,3.533,0,0,0,1.264.912,4.737,4.737,0,0,0,3.464,0,3.55,3.55,0,0,0,1.256-.912,3.871,3.871,0,0,0,.768-1.368,5.434,5.434,0,0,0,.256-1.7,5.509,5.509,0,0,0-.256-1.7,3.861,3.861,0,0,0-.768-1.376,3.636,3.636,0,0,0-1.256-.92,4.632,4.632,0,0,0-3.464,0,3.618,3.618,0,0,0-1.264.92,3.861,3.861,0,0,0-.768,1.376A5.509,5.509,0,0,0,34.064,10.872Zm16.9-6.016V15h1.52V4.856h3.808V3.576H47.152v1.28Zm7.808.384V3.576h-1.36V5.24Zm-1.36,1.488V15h1.36V6.728Zm5.36,0V4.248h-1.36v2.48H60v1.2h1.408v5.264a3.143,3.143,0,0,0,.112.928,1.128,1.128,0,0,0,.344.544,1.328,1.328,0,0,0,.608.264,4.884,4.884,0,0,0,.9.072h1.04V13.8h-.624a4.536,4.536,0,0,1-.52-.024.672.672,0,0,1-.312-.1.4.4,0,0,1-.152-.224,1.484,1.484,0,0,1-.04-.384V7.928h1.648v-1.2ZM66,3.576V15h1.36V3.576Zm9.216,6.5H70.464a2.833,2.833,0,0,1,.208-.9,2.411,2.411,0,0,1,.48-.744,2.2,2.2,0,0,1,.728-.5,2.368,2.368,0,0,1,.952-.184,2.327,2.327,0,0,1,.936.184,2.355,2.355,0,0,1,.736.5,2.331,2.331,0,0,1,.5.744A2.783,2.783,0,0,1,75.216,10.072Zm1.312,2.3H75.184a1.934,1.934,0,0,1-.728,1.216,2.354,2.354,0,0,1-1.416.4,2.817,2.817,0,0,1-1.168-.224,2.289,2.289,0,0,1-.816-.6,2.337,2.337,0,0,1-.464-.864,3.283,3.283,0,0,1-.128-1.032h6.192a6.586,6.586,0,0,0-.136-1.584,4.585,4.585,0,0,0-.608-1.536,3.623,3.623,0,0,0-1.168-1.16,3.394,3.394,0,0,0-1.832-.456,3.762,3.762,0,0,0-1.56.32,3.666,3.666,0,0,0-1.232.9,4.13,4.13,0,0,0-.808,1.36,4.978,4.978,0,0,0-.288,1.728,6.631,6.631,0,0,0,.28,1.744,3.806,3.806,0,0,0,.744,1.376,3.391,3.391,0,0,0,1.224.9,4.249,4.249,0,0,0,1.72.32,3.755,3.755,0,0,0,2.336-.7A3.306,3.306,0,0,0,76.528,12.376Z" transform="translate(7407.918 2529.378)"/>
    <path id="Path_202" data-name="Path 202" class="cls-3" d="M11.568,15,14.624,3.576H13.1l-2.32,9.5h-.032l-2.528-9.5H6.576l-2.56,9.5H3.984l-2.24-9.5H.192L3.12,15H4.7l2.64-9.6h.032L9.984,15Zm9.1-4.928H15.92a2.833,2.833,0,0,1,.208-.9,2.411,2.411,0,0,1,.48-.744,2.2,2.2,0,0,1,.728-.5,2.368,2.368,0,0,1,.952-.184,2.327,2.327,0,0,1,.936.184,2.355,2.355,0,0,1,.736.5,2.331,2.331,0,0,1,.5.744A2.783,2.783,0,0,1,20.672,10.072Zm1.312,2.3H20.64a1.934,1.934,0,0,1-.728,1.216,2.354,2.354,0,0,1-1.416.4,2.817,2.817,0,0,1-1.168-.224,2.289,2.289,0,0,1-.816-.6,2.337,2.337,0,0,1-.464-.864,3.283,3.283,0,0,1-.128-1.032h6.192a6.586,6.586,0,0,0-.136-1.584,4.585,4.585,0,0,0-.608-1.536A3.623,3.623,0,0,0,20.2,6.992a3.394,3.394,0,0,0-1.832-.456,3.762,3.762,0,0,0-1.56.32,3.666,3.666,0,0,0-1.232.9,4.13,4.13,0,0,0-.808,1.36,4.978,4.978,0,0,0-.288,1.728,6.631,6.631,0,0,0,.28,1.744A3.806,3.806,0,0,0,15.5,13.96a3.391,3.391,0,0,0,1.224.9,4.249,4.249,0,0,0,1.72.32,3.755,3.755,0,0,0,2.336-.7A3.306,3.306,0,0,0,21.984,12.376Zm1.584-8.8V15h1.36V13.9h.032a2.191,2.191,0,0,0,.552.616,2.907,2.907,0,0,0,.7.392,3.777,3.777,0,0,0,.744.208,4.088,4.088,0,0,0,.68.064,3.841,3.841,0,0,0,1.656-.336,3.319,3.319,0,0,0,1.184-.92,3.918,3.918,0,0,0,.7-1.368,5.836,5.836,0,0,0,.232-1.664,5.654,5.654,0,0,0-.24-1.664,4.2,4.2,0,0,0-.712-1.384,3.4,3.4,0,0,0-1.184-.952A3.731,3.731,0,0,0,27.6,6.536a3.942,3.942,0,0,0-1.584.312,2.036,2.036,0,0,0-1.056,1h-.032V3.576Zm6.4,7.216a5.442,5.442,0,0,1-.128,1.184A3.132,3.132,0,0,1,29.424,13a2.187,2.187,0,0,1-.76.72,2.325,2.325,0,0,1-1.176.272,2.524,2.524,0,0,1-1.2-.264,2.329,2.329,0,0,1-.808-.7,2.91,2.91,0,0,1-.456-1,4.844,4.844,0,0,1-.008-2.312,2.977,2.977,0,0,1,.44-1,2.245,2.245,0,0,1,1.952-.984,2.429,2.429,0,0,1,1.144.256,2.274,2.274,0,0,1,.8.688,3.044,3.044,0,0,1,.464.984A4.23,4.23,0,0,1,29.968,10.792Zm3.12-7.216V15h1.36V3.576ZM38,5.24V3.576H36.64V5.24ZM36.64,6.728V15H38V6.728Zm3.472,0V15h1.36V10.328A3.351,3.351,0,0,1,41.624,9.3a2.344,2.344,0,0,1,.456-.824,2.025,2.025,0,0,1,.76-.544,2.772,2.772,0,0,1,1.08-.192,1.665,1.665,0,0,1,1.232.448A1.643,1.643,0,0,1,45.6,9.4V15h1.36V9.56a5.119,5.119,0,0,0-.136-1.224,2.318,2.318,0,0,0-.472-.952,2.236,2.236,0,0,0-.88-.624,3.59,3.59,0,0,0-1.36-.224,2.864,2.864,0,0,0-2.688,1.5h-.032V6.728Zm8.976-3.152V15h1.36V11.864l1.28-1.184L54.56,15h1.728l-3.52-5.264,3.28-3.008H54.224l-3.776,3.616V3.576Zm15.488,1.28V15H66.1V4.856H69.9V3.576H60.768v1.28Zm7.808.384V3.576h-1.36V5.24Zm-1.36,1.488V15h1.36V6.728Zm5.36,0V4.248h-1.36v2.48H73.616v1.2h1.408v5.264a3.143,3.143,0,0,0,.112.928,1.128,1.128,0,0,0,.344.544,1.328,1.328,0,0,0,.608.264,4.884,4.884,0,0,0,.9.072h1.04V13.8h-.624a4.536,4.536,0,0,1-.52-.024.672.672,0,0,1-.312-.1.4.4,0,0,1-.152-.224,1.484,1.484,0,0,1-.04-.384V7.928h1.648v-1.2Zm3.232-3.152V15h1.36V3.576Zm9.216,6.5H84.08a2.833,2.833,0,0,1,.208-.9,2.411,2.411,0,0,1,.48-.744,2.2,2.2,0,0,1,.728-.5,2.368,2.368,0,0,1,.952-.184,2.327,2.327,0,0,1,.936.184,2.355,2.355,0,0,1,.736.5,2.331,2.331,0,0,1,.5.744A2.783,2.783,0,0,1,88.832,10.072Zm1.312,2.3H88.8a1.934,1.934,0,0,1-.728,1.216,2.354,2.354,0,0,1-1.416.4,2.817,2.817,0,0,1-1.168-.224,2.289,2.289,0,0,1-.816-.6,2.337,2.337,0,0,1-.464-.864,3.283,3.283,0,0,1-.128-1.032h6.192a6.586,6.586,0,0,0-.136-1.584,4.585,4.585,0,0,0-.608-1.536,3.623,3.623,0,0,0-1.168-1.16,3.394,3.394,0,0,0-1.832-.456,3.762,3.762,0,0,0-1.56.32,3.666,3.666,0,0,0-1.232.9,4.13,4.13,0,0,0-.808,1.36,4.978,4.978,0,0,0-.288,1.728,6.631,6.631,0,0,0,.28,1.744,3.806,3.806,0,0,0,.744,1.376,3.391,3.391,0,0,0,1.224.9,4.249,4.249,0,0,0,1.72.32,3.755,3.755,0,0,0,2.336-.7A3.306,3.306,0,0,0,90.144,12.376Z" transform="translate(7697.918 2240.378)"/>
    <path id="Path_209" data-name="Path 209" class="cls-3" d="M11.568,15,14.624,3.576H13.1l-2.32,9.5h-.032l-2.528-9.5H6.576l-2.56,9.5H3.984l-2.24-9.5H.192L3.12,15H4.7l2.64-9.6h.032L9.984,15Zm9.1-4.928H15.92a2.833,2.833,0,0,1,.208-.9,2.411,2.411,0,0,1,.48-.744,2.2,2.2,0,0,1,.728-.5,2.368,2.368,0,0,1,.952-.184,2.327,2.327,0,0,1,.936.184,2.355,2.355,0,0,1,.736.5,2.331,2.331,0,0,1,.5.744A2.783,2.783,0,0,1,20.672,10.072Zm1.312,2.3H20.64a1.934,1.934,0,0,1-.728,1.216,2.354,2.354,0,0,1-1.416.4,2.817,2.817,0,0,1-1.168-.224,2.289,2.289,0,0,1-.816-.6,2.337,2.337,0,0,1-.464-.864,3.283,3.283,0,0,1-.128-1.032h6.192a6.586,6.586,0,0,0-.136-1.584,4.585,4.585,0,0,0-.608-1.536A3.623,3.623,0,0,0,20.2,6.992a3.394,3.394,0,0,0-1.832-.456,3.762,3.762,0,0,0-1.56.32,3.666,3.666,0,0,0-1.232.9,4.13,4.13,0,0,0-.808,1.36,4.978,4.978,0,0,0-.288,1.728,6.631,6.631,0,0,0,.28,1.744A3.806,3.806,0,0,0,15.5,13.96a3.391,3.391,0,0,0,1.224.9,4.249,4.249,0,0,0,1.72.32,3.755,3.755,0,0,0,2.336-.7A3.306,3.306,0,0,0,21.984,12.376Zm1.584-8.8V15h1.36V13.9h.032a2.191,2.191,0,0,0,.552.616,2.907,2.907,0,0,0,.7.392,3.777,3.777,0,0,0,.744.208,4.088,4.088,0,0,0,.68.064,3.841,3.841,0,0,0,1.656-.336,3.319,3.319,0,0,0,1.184-.92,3.918,3.918,0,0,0,.7-1.368,5.836,5.836,0,0,0,.232-1.664,5.654,5.654,0,0,0-.24-1.664,4.2,4.2,0,0,0-.712-1.384,3.4,3.4,0,0,0-1.184-.952A3.731,3.731,0,0,0,27.6,6.536a3.942,3.942,0,0,0-1.584.312,2.036,2.036,0,0,0-1.056,1h-.032V3.576Zm6.4,7.216a5.442,5.442,0,0,1-.128,1.184A3.132,3.132,0,0,1,29.424,13a2.187,2.187,0,0,1-.76.72,2.325,2.325,0,0,1-1.176.272,2.524,2.524,0,0,1-1.2-.264,2.329,2.329,0,0,1-.808-.7,2.91,2.91,0,0,1-.456-1,4.844,4.844,0,0,1-.008-2.312,2.977,2.977,0,0,1,.44-1,2.245,2.245,0,0,1,1.952-.984,2.429,2.429,0,0,1,1.144.256,2.274,2.274,0,0,1,.8.688,3.044,3.044,0,0,1,.464.984A4.23,4.23,0,0,1,29.968,10.792Zm3.12-7.216V15h1.36V3.576ZM38,5.24V3.576H36.64V5.24ZM36.64,6.728V15H38V6.728Zm3.472,0V15h1.36V10.328A3.351,3.351,0,0,1,41.624,9.3a2.344,2.344,0,0,1,.456-.824,2.025,2.025,0,0,1,.76-.544,2.772,2.772,0,0,1,1.08-.192,1.665,1.665,0,0,1,1.232.448A1.643,1.643,0,0,1,45.6,9.4V15h1.36V9.56a5.119,5.119,0,0,0-.136-1.224,2.318,2.318,0,0,0-.472-.952,2.236,2.236,0,0,0-.88-.624,3.59,3.59,0,0,0-1.36-.224,2.864,2.864,0,0,0-2.688,1.5h-.032V6.728Zm8.976-3.152V15h1.36V11.864l1.28-1.184L54.56,15h1.728l-3.52-5.264,3.28-3.008H54.224l-3.776,3.616V3.576Zm15.488,1.28V15H66.1V4.856H69.9V3.576H60.768v1.28Zm7.808.384V3.576h-1.36V5.24Zm-1.36,1.488V15h1.36V6.728Zm5.36,0V4.248h-1.36v2.48H73.616v1.2h1.408v5.264a3.143,3.143,0,0,0,.112.928,1.128,1.128,0,0,0,.344.544,1.328,1.328,0,0,0,.608.264,4.884,4.884,0,0,0,.9.072h1.04V13.8h-.624a4.536,4.536,0,0,1-.52-.024.672.672,0,0,1-.312-.1.4.4,0,0,1-.152-.224,1.484,1.484,0,0,1-.04-.384V7.928h1.648v-1.2Zm3.232-3.152V15h1.36V3.576Zm9.216,6.5H84.08a2.833,2.833,0,0,1,.208-.9,2.411,2.411,0,0,1,.48-.744,2.2,2.2,0,0,1,.728-.5,2.368,2.368,0,0,1,.952-.184,2.327,2.327,0,0,1,.936.184,2.355,2.355,0,0,1,.736.5,2.331,2.331,0,0,1,.5.744A2.783,2.783,0,0,1,88.832,10.072Zm1.312,2.3H88.8a1.934,1.934,0,0,1-.728,1.216,2.354,2.354,0,0,1-1.416.4,2.817,2.817,0,0,1-1.168-.224,2.289,2.289,0,0,1-.816-.6,2.337,2.337,0,0,1-.464-.864,3.283,3.283,0,0,1-.128-1.032h6.192a6.586,6.586,0,0,0-.136-1.584,4.585,4.585,0,0,0-.608-1.536,3.623,3.623,0,0,0-1.168-1.16,3.394,3.394,0,0,0-1.832-.456,3.762,3.762,0,0,0-1.56.32,3.666,3.666,0,0,0-1.232.9,4.13,4.13,0,0,0-.808,1.36,4.978,4.978,0,0,0-.288,1.728,6.631,6.631,0,0,0,.28,1.744,3.806,3.806,0,0,0,.744,1.376,3.391,3.391,0,0,0,1.224.9,4.249,4.249,0,0,0,1.72.32,3.755,3.755,0,0,0,2.336-.7A3.306,3.306,0,0,0,90.144,12.376Z" transform="translate(7697.918 2529.378)"/>
    <text id="T" class="cls-8" transform="translate(7243 2141)"><tspan x="-20.755" y="0">T</tspan></text>
    <g id="Group_9" data-name="Group 9" transform="matrix(0.602, 0.799, -0.799, 0.602, 7405.814, 1151.93)">
      <g id="Ellipse_9" data-name="Ellipse 9" class="cls-9" transform="translate(1002 220)">
        <ellipse class="cls-11" cx="13.5" cy="19.5" rx="13.5" ry="19.5"/>
        <ellipse class="cls-12" cx="13.5" cy="19.5" rx="11" ry="17"/>
      </g>
      <g id="Ellipse_10" data-name="Ellipse 10" class="cls-9" transform="translate(1002 243)">
        <ellipse class="cls-11" cx="13.5" cy="19.5" rx="13.5" ry="19.5"/>
        <ellipse class="cls-12" cx="13.5" cy="19.5" rx="11" ry="17"/>
      </g>
    </g>
    <g id="Group_10" data-name="Group 10" transform="matrix(0.602, 0.799, -0.799, 0.602, 7405.814, 1440.93)">
      <g id="Ellipse_9-2" data-name="Ellipse 9" class="cls-9" transform="translate(1002 220)">
        <ellipse class="cls-11" cx="13.5" cy="19.5" rx="13.5" ry="19.5"/>
        <ellipse class="cls-12" cx="13.5" cy="19.5" rx="11" ry="17"/>
      </g>
      <g id="Ellipse_10-2" data-name="Ellipse 10" class="cls-9" transform="translate(1002 243)">
        <ellipse class="cls-11" cx="13.5" cy="19.5" rx="13.5" ry="19.5"/>
        <ellipse class="cls-12" cx="13.5" cy="19.5" rx="11" ry="17"/>
      </g>
    </g>
    <g id="Group_13" data-name="Group 13" transform="translate(6750 1862)">
      <g id="Rectangle_95" data-name="Rectangle 95" class="cls-9" transform="translate(752 512)">
        <rect class="cls-11" width="62" height="58"/>
        <rect class="cls-12" x="2.5" y="2.5" width="57" height="53"/>
      </g>
      <rect id="Rectangle_96" data-name="Rectangle 96" class="cls-5" width="58" height="12" transform="translate(754 556)"/>
    </g>
    <g id="Group_14" data-name="Group 14" transform="translate(6170 1862)">
      <g id="Rectangle_95-2" data-name="Rectangle 95" class="cls-9" transform="translate(752 512)">
        <rect class="cls-11" width="62" height="58"/>
        <rect class="cls-12" x="2.5" y="2.5" width="57" height="53"/>
      </g>
      <rect id="Rectangle_96-2" data-name="Rectangle 96" class="cls-5" width="58" height="12" transform="translate(754 556)"/>
    </g>
    <rect id="Rectangle_474" data-name="Rectangle 474" class="cls-10" width="32" height="4" transform="translate(6832 1942)"/>
    <rect id="Rectangle_478" data-name="Rectangle 478" class="cls-10" width="32" height="4" transform="translate(6890 1942)"/>
    <rect id="Rectangle_475" data-name="Rectangle 475" class="cls-10" width="32" height="4" transform="translate(6832 1949)"/>
    <rect id="Rectangle_480" data-name="Rectangle 480" class="cls-10" width="32" height="4" transform="translate(6890 1949)"/>
    <rect id="Rectangle_476" data-name="Rectangle 476" class="cls-10" width="32" height="4" transform="translate(6832 1956)"/>
    <rect id="Rectangle_481" data-name="Rectangle 481" class="cls-10" width="32" height="4" transform="translate(6890 1956)"/>
    <rect id="Rectangle_477" data-name="Rectangle 477" class="cls-5" width="5" height="26" transform="translate(6838 1938)"/>
    <rect id="Rectangle_479" data-name="Rectangle 479" class="cls-5" width="5" height="26" transform="translate(6897 1938)"/>
    <rect id="Rectangle_482" data-name="Rectangle 482" class="cls-5" width="5" height="26" transform="translate(6910 1938)"/>
  </g>
</svg>
