<svg xmlns="http://www.w3.org/2000/svg" viewBox="0 0 1301.75 1038.97"><title>Asset 1@2x</title><g id="Layer_2" data-name="Layer 2"><g id="Layer_1-2" data-name="Layer 1"><ellipse cx="53.93" cy="705.85" rx="21.75" ry="55.42" transform="translate(-642.86 580.88) rotate(-75.46)" fill="#a7a9ac"/><ellipse cx="63.63" cy="705.36" rx="15.85" ry="55.42" transform="translate(-635.12 589.9) rotate(-75.46)" fill="#fff"/><path d="M71.16,810.87,22.91,776.16a9,9,0,0,1-2.05-12.56l43.43-77.5a9,9,0,0,1,12.56-2.05l64.49,46.39A9,9,0,0,1,143.38,743L83.72,808.82A9,9,0,0,1,71.16,810.87Z" fill="#a7a9ac"/><path d="M277.25,499.88c-2.6-24.24,6.87-45.13,21.16-46.67s28,16.87,30.58,41.11a71.32,71.32,0,0,1-.2,17.27,54.56,54.56,0,0,0,3.6-19.68c0-24.85-16-45-35.76-45s-35.76,20.14-35.76,45c0,24,15,43.66,33.83,44.93C286,530.2,279,516.4,277.25,499.88Z" fill="#a7a9ac"/><path d="M291.3,454a22.2,22.2,0,0,1,7.06-1.16c17.62,0,31.9,21.11,31.9,47.15,0,16-5.37,30.09-13.6,38.62" fill="#fff"/><path d="M326.36,595.08H266.92a9,9,0,0,1-9-9l-10-88.27a9,9,0,0,1,9-9h79.44a9,9,0,0,1,9,9l-10,88.27A9,9,0,0,1,326.36,595.08Z" fill="#a7a9ac"/><path d="M57.4,499.88c-2.6-24.24,6.87-45.13,21.16-46.67s28,16.87,30.58,41.11a71.32,71.32,0,0,1-.2,17.27,54.56,54.56,0,0,0,3.6-19.68c0-24.85-16-45-35.76-45S41,467.06,41,491.91c0,24,15,43.66,33.83,44.93C66.1,530.2,59.17,516.4,57.4,499.88Z" fill="#a7a9ac"/><path d="M71.45,454a22.2,22.2,0,0,1,7.06-1.16c17.62,0,31.9,21.11,31.9,47.15,0,16-5.37,30.09-13.6,38.62" fill="#fff"/><path d="M107.83,595.08H48.39a9,9,0,0,1-9-9l-10-88.27a9,9,0,0,1,9-9h79.44a9,9,0,0,1,9,9l-10,88.27A9,9,0,0,1,107.83,595.08Z" fill="#a7a9ac"/><path d="M54.7,53.91C52,29.24,61.69,8,76.24,6.41s28.48,17.18,31.13,41.85a72.6,72.6,0,0,1-.2,17.58,55.54,55.54,0,0,0,3.66-20c0-25.3-16.3-45.8-36.4-45.8S38,20.51,38,45.8c0,24.47,15.25,44.45,34.43,45.73C63.55,84.78,56.5,70.73,54.7,53.91Z" fill="#a7a9ac"/><path d="M69,7.16A22.6,22.6,0,0,1,76.19,6c17.93,0,32.47,21.49,32.47,48,0,16.26-5.47,30.63-13.84,39.32" fill="#fff"/><path d="M116.25,147H37.73L28.27,40.72h80.41a17,17,0,0,1,17,17Z" fill="#a7a9ac"/><rect x="54.23" y="91.84" width="43.99" height="4.02" fill="#fff"/><rect x="54.23" y="103.08" width="43.99" height="4.02" fill="#fff"/><rect x="54.23" y="114.31" width="43.99" height="4.02" fill="#fff"/><path d="M76.26,6.59s-.34.16-1,.42c-.31.13-.72.28-1.16.47s-.94.43-1.49.66c-1.11.5-2.42,1.17-3.84,1.93l-1.08.62-1.1.71c-.73.5-1.51,1-2.25,1.58a32.19,32.19,0,0,0-8.2,9.14c-.57.95-1.11,1.95-1.63,3s-1,2.11-1.41,3.22a51.92,51.92,0,0,0-2.18,7,70.72,70.72,0,0,0-1.41,7.38c-.15,1.24-.31,2.48-.43,3.72s-.19,2.46-.28,3.67c-.12,2.42-.19,4.79-.15,7s.14,4.38.33,6.34a46.59,46.59,0,0,0,.75,5.28A18.63,18.63,0,0,0,51,72.5a5,5,0,0,0,1.43,1.93,3.33,3.33,0,0,0,.8.41l-.2.6a.13.13,0,0,0,.24.08v0a4,4,0,0,1-1.11-.1,5.39,5.39,0,0,1-2.51-1.65c-1.76-1.87-3.38-5.14-4.54-9.22A60.74,60.74,0,0,1,43,50.22a62.62,62.62,0,0,1,1.57-16.5,42,42,0,0,1,6.89-15.1,30.71,30.71,0,0,1,11.1-9.29A29.64,29.64,0,0,1,68,7.26c.83-.24,1.62-.4,2.35-.57s1.41-.27,2-.36c1.23-.17,2.2-.28,2.85-.32l1-.08a.32.32,0,0,1,.16.61Z" fill="#fff"/><rect x="36.66" y="56.46" width="28.5" height="21.21" fill="#a7a9ac"/><circle cx="47.63" cy="56.46" r="7.33" fill="#fff"/><path d="M57.4,282.5c-2.6-24.24,6.87-45.13,21.16-46.67s28,16.87,30.58,41.11a71.32,71.32,0,0,1-.2,17.27,54.56,54.56,0,0,0,3.6-19.68c0-24.85-16-45-35.76-45S41,249.69,41,274.54c0,24,15,43.66,33.83,44.93C66.1,312.83,59.17,299,57.4,282.5Z" fill="#a7a9ac"/><path d="M71.45,236.58a22.2,22.2,0,0,1,7.06-1.16c17.62,0,31.9,21.11,31.9,47.15,0,16-5.37,30.09-13.6,38.62" fill="#fff"/><path d="M116.25,374.71H37.73L28.27,268.44h80.41a17,17,0,0,1,17,17Z" fill="#a7a9ac"/><path d="M78.58,236s-.33.16-1,.41c-.31.13-.7.27-1.14.47s-.92.42-1.46.65c-1.09.49-2.38,1.15-3.78,1.9-.7.39-1.42.82-2.14,1.31s-1.48,1-2.21,1.55a31.62,31.62,0,0,0-8.05,9c-.56.93-1.09,1.91-1.6,2.92s-1,2.07-1.38,3.16a51,51,0,0,0-2.14,6.85,69.47,69.47,0,0,0-1.38,7.25c-.14,1.22-.31,2.44-.42,3.65s-.18,2.42-.28,3.61c-.12,2.38-.19,4.71-.14,6.91s.11,4.31.3,6.23.43,3.68.77,5.18a18.3,18.3,0,0,0,1.18,3.73,4.86,4.86,0,0,0,1.41,1.9,3.27,3.27,0,0,0,.79.4l-.19.59a.12.12,0,1,0,.23.08v0a3.88,3.88,0,0,1-1.09-.1A5.29,5.29,0,0,1,52.43,302c-1.73-1.83-3.32-5-4.46-9.06a59.67,59.67,0,0,1-2.09-14,61.51,61.51,0,0,1,1.54-16.21,41.28,41.28,0,0,1,6.77-14.83,30.17,30.17,0,0,1,10.9-9.13,29.12,29.12,0,0,1,5.34-2c.82-.24,1.6-.39,2.31-.56s1.38-.26,2-.35c1.21-.17,2.16-.28,2.8-.31l1-.08a.32.32,0,0,1,.16.6Z" fill="#fff"/><rect x="36.66" y="284.18" width="28.5" height="21.21" fill="#a7a9ac"/><circle cx="50.46" cy="285" r="7.2" fill="#fff"/><path d="M277.25,282.5c-2.6-24.24,6.87-45.13,21.16-46.67s28,16.87,30.58,41.11a71.32,71.32,0,0,1-.2,17.27,54.56,54.56,0,0,0,3.6-19.68c0-24.85-16-45-35.76-45s-35.76,20.14-35.76,45c0,24,15,43.66,33.83,44.93C286,312.83,279,299,277.25,282.5Z" fill="#a7a9ac"/><path d="M291.3,236.58a22.2,22.2,0,0,1,7.06-1.16c17.62,0,31.9,21.11,31.9,47.15,0,16-5.37,30.09-13.6,38.62" fill="#fff"/><path d="M336.1,374.71H257.58l-9.46-106.27h80.41a17,17,0,0,1,17,17Z" fill="#a7a9ac"/><path d="M298.42,235.95l-1,.34c-.31.11-.71.22-1.15.39s-.94.36-1.49.55c-1.11.42-2.43,1-3.88,1.68-.72.35-1.47.75-2.23,1.2s-1.56.89-2.33,1.45c-.39.26-.79.54-1.17.85s-.78.6-1.15.94a28.3,28.3,0,0,0-2.27,2.07,34,34,0,0,0-4.06,5.13,30.35,30.35,0,0,0-1.72,3c-.5,1.07-1,2.14-1.47,3.27a49.1,49.1,0,0,0-2.25,7.06,65.58,65.58,0,0,0-1.37,7.44c-.28,2.5-.57,5-.62,7.42s-.09,4.79,0,7,.29,4.36.57,6.29a46.45,46.45,0,0,0,1,5.21,16.8,16.8,0,0,0,1.44,3.71A4.79,4.79,0,0,0,275,302.8a3.41,3.41,0,0,0,.83.33l-.12.47a.08.08,0,1,0,.16,0h0a3.81,3.81,0,0,1-1.07-.1,5.21,5.21,0,0,1-2.42-1.61c-1.71-1.82-3.28-5-4.41-9a59.54,59.54,0,0,1-2.07-14,61.37,61.37,0,0,1,1.56-16.17,41.15,41.15,0,0,1,6.73-14.79,30,30,0,0,1,10.85-9.1,29.5,29.5,0,0,1,5.32-2c.81-.24,1.59-.4,2.3-.57s1.38-.27,2-.36c1.21-.17,2.15-.28,2.79-.32l1-.08a.25.25,0,0,1,.1.48Z" fill="#fff"/><rect x="256.51" y="286.18" width="28.5" height="21.21" fill="#a7a9ac"/><circle cx="270.31" cy="291" r="7.2" fill="#fff"/><rect x="273.62" y="317.01" width="46.43" height="5" rx="2.5" ry="2.5" fill="#fff"/><rect x="273.62" y="331.53" width="46.43" height="5" rx="2.5" ry="2.5" fill="#fff"/><rect x="273.62" y="346.05" width="46.43" height="5" rx="2.5" ry="2.5" fill="#fff"/><path d="M277.25,58.55c-2.6-24.24,6.87-45.13,21.16-46.67S326.39,28.76,329,53a71.32,71.32,0,0,1-.2,17.27,54.56,54.56,0,0,0,3.6-19.68c0-24.85-16-45-35.76-45s-35.76,20.14-35.76,45c0,24,15,43.66,33.83,44.93C286,88.87,279,75.07,277.25,58.55Z" fill="#a7a9ac"/><path d="M291.3,12.63a22.2,22.2,0,0,1,7.06-1.16c17.62,0,31.9,21.11,31.9,47.15,0,16-5.37,30.09-13.6,38.62" fill="#fff"/><path d="M336.1,150.75H257.58L248.12,44.48h80.41a17,17,0,0,1,17,17Z" fill="#a7a9ac"/><path d="M298.42,12l-1,.34c-.31.11-.71.22-1.15.39s-.94.36-1.49.55c-1.11.42-2.43,1-3.88,1.68-.72.35-1.47.75-2.23,1.2s-1.56.89-2.33,1.45c-.39.26-.79.54-1.17.85s-.78.6-1.15.94a28.29,28.29,0,0,0-2.27,2.07,34,34,0,0,0-4.06,5.13,30.35,30.35,0,0,0-1.72,3c-.5,1.07-1,2.14-1.47,3.27a49.1,49.1,0,0,0-2.25,7.06,65.58,65.58,0,0,0-1.37,7.44c-.28,2.5-.57,5-.62,7.42s-.09,4.79,0,7,.29,4.36.57,6.29a46.45,46.45,0,0,0,1,5.21A16.8,16.8,0,0,0,273.36,77,4.79,4.79,0,0,0,275,78.85a3.42,3.42,0,0,0,.83.33l-.12.47a.08.08,0,1,0,.16,0h0a3.81,3.81,0,0,1-1.07-.1A5.21,5.21,0,0,1,272.34,78c-1.71-1.82-3.28-5-4.41-9a59.54,59.54,0,0,1-2.07-14,61.37,61.37,0,0,1,1.56-16.17A41.15,41.15,0,0,1,274.15,24,30,30,0,0,1,285,14.85a29.5,29.5,0,0,1,5.32-2c.81-.24,1.59-.4,2.3-.57s1.38-.27,2-.36c1.21-.17,2.15-.28,2.79-.32l1-.08a.25.25,0,0,1,.1.48Z" fill="#fff"/><rect x="256.51" y="62.22" width="28.5" height="21.21" fill="#a7a9ac"/><circle cx="270.31" cy="67.05" r="7.2" fill="#fff"/><rect x="273.62" y="93.06" width="46.43" height="5" rx="2.5" ry="2.5" fill="#fff"/><rect x="273.62" y="107.58" width="46.43" height="5" rx="2.5" ry="2.5" fill="#fff"/><rect x="273.62" y="122.1" width="46.43" height="5" rx="2.5" ry="2.5" fill="#fff"/><rect x="55.33" y="317.01" width="46.43" height="5" rx="2.5" ry="2.5" fill="#fff"/><rect x="55.33" y="331.53" width="46.43" height="5" rx="2.5" ry="2.5" fill="#fff"/><rect x="55.33" y="346.05" width="46.43" height="5" rx="2.5" ry="2.5" fill="#fff"/><path d="M78.58,453.39s-.33.16-1,.41c-.31.13-.7.27-1.14.47s-.92.42-1.46.65c-1.09.49-2.38,1.15-3.78,1.9-.7.39-1.42.82-2.14,1.31s-1.48,1-2.21,1.55a31.62,31.62,0,0,0-8.05,9c-.56.93-1.09,1.91-1.6,2.92s-1,2.07-1.38,3.16a51,51,0,0,0-2.14,6.85,69.47,69.47,0,0,0-1.38,7.25c-.14,1.22-.31,2.44-.42,3.65s-.18,2.42-.28,3.61c-.12,2.38-.19,4.71-.14,6.91s.11,4.31.3,6.23.43,3.68.77,5.18a18.29,18.29,0,0,0,1.18,3.73,4.86,4.86,0,0,0,1.41,1.9,3.27,3.27,0,0,0,.79.4l-.19.59a.12.12,0,0,0,.23.08v0a3.88,3.88,0,0,1-1.09-.1,5.29,5.29,0,0,1-2.47-1.62c-1.73-1.83-3.32-5-4.46-9.06a59.67,59.67,0,0,1-2.09-14A61.51,61.51,0,0,1,47.43,480a41.28,41.28,0,0,1,6.77-14.83,30.17,30.17,0,0,1,10.9-9.13,29.12,29.12,0,0,1,5.34-2c.82-.24,1.6-.39,2.31-.56s1.38-.26,2-.35c1.21-.17,2.16-.28,2.8-.31l1-.08a.32.32,0,0,1,.16.6Z" fill="#fff"/><rect x="36.66" y="501.55" width="28.5" height="21.21" fill="#a7a9ac"/><circle cx="50.46" cy="502.38" r="7.2" fill="#fff"/><path d="M298.43,453.37s-.33.15-1,.39c-.31.12-.7.26-1.15.44s-.93.4-1.47.62c-1.1.47-2.39,1.1-3.81,1.83-.71.37-1.44.79-2.17,1.27s-1.51.93-2.26,1.5a32.56,32.56,0,0,0-4.38,3.93,31.06,31.06,0,0,0-3.85,5.08c-.58.94-1.12,1.93-1.64,2.95s-1,2.09-1.41,3.19a50.32,50.32,0,0,0-2.17,6.92,68.1,68.1,0,0,0-1.38,7.31c-.14,1.23-.3,2.46-.41,3.68s-.17,2.43-.25,3.63c-.1,2.4-.15,4.73-.08,6.95s.16,4.33.38,6.25a51.63,51.63,0,0,0,.85,5.19,17.75,17.75,0,0,0,1.27,3.72,4.83,4.83,0,0,0,1.47,1.87,3.32,3.32,0,0,0,.8.38l-.17.55a.11.11,0,1,0,.21.06h0a3.85,3.85,0,0,1-1.08-.1,5.26,5.26,0,0,1-2.45-1.62c-1.73-1.83-3.3-5-4.44-9a59.63,59.63,0,0,1-2.09-14,61.46,61.46,0,0,1,1.55-16.2,41.24,41.24,0,0,1,6.75-14.82A30.13,30.13,0,0,1,285,456.11a29.24,29.24,0,0,1,5.33-2c.81-.24,1.59-.4,2.31-.56s1.38-.26,2-.35c1.21-.17,2.16-.28,2.8-.32l1-.08a.29.29,0,0,1,.14.56Z" fill="#fff"/><rect x="256.51" y="503.55" width="28.5" height="21.21" fill="#a7a9ac"/><circle cx="270.31" cy="508.38" r="7.2" fill="#fff"/><rect x="273.62" y="534.38" width="46.43" height="5" rx="2.5" ry="2.5" fill="#fff"/><rect x="273.62" y="548.9" width="46.43" height="5" rx="2.5" ry="2.5" fill="#fff"/><rect x="273.62" y="563.42" width="46.43" height="5" rx="2.5" ry="2.5" fill="#fff"/><rect x="54.89" y="534.38" width="46.43" height="5" rx="2.5" ry="2.5" fill="#fff"/><rect x="54.89" y="548.9" width="46.43" height="5" rx="2.5" ry="2.5" fill="#fff"/><rect x="54.89" y="563.42" width="46.43" height="5" rx="2.5" ry="2.5" fill="#fff"/><circle cx="71.96" cy="719.42" r="7.33" fill="#fff"/><rect x="53.24" y="748.85" width="46.43" height="5" rx="2.5" ry="2.5" transform="translate(450.74 95.39) rotate(35.52)" fill="#fff"/><rect x="44.8" y="760.66" width="46.43" height="5" rx="2.5" ry="2.5" transform="translate(456.03 102.49) rotate(35.52)" fill="#fff"/><rect x="36.37" y="772.48" width="46.43" height="5" rx="2.5" ry="2.5" transform="matrix(0.81, 0.58, -0.58, 0.81, 461.33, 109.59)" fill="#fff"/><path d="M16.24,691.55l.06.85a12.86,12.86,0,0,0,.41,2.21,11.77,11.77,0,0,0,1.4,3,16.49,16.49,0,0,0,2.8,3.17,33.93,33.93,0,0,0,4.13,3c1.57,1,3.34,1.84,5.17,2.75.92.45,1.88.86,2.86,1.28s2,.8,3,1.22c2,.82,4.13,1.56,6.26,2.24s4.25,1.44,6.37,2.05,4.21,1.29,6.26,1.82,4,1.1,5.92,1.57,3.68.91,5.34,1.28,3.19.69,4.55.92,2.54.4,3.51.46a6.29,6.29,0,0,0,2.14-.13.92.92,0,0,0,.53-.35l.38.1h0a1.31,1.31,0,0,1-.58.77,5.76,5.76,0,0,1-2.32.72,38,38,0,0,1-8.44,0A117.84,117.84,0,0,1,41,715.07a78.84,78.84,0,0,1-12.54-5.42A34,34,0,0,1,19,702.39a15,15,0,0,1-2.56-4.07,11.53,11.53,0,0,1-.87-3.62,11.69,11.69,0,0,1,.1-2.4l.14-.82a.2.2,0,0,1,.39,0Z" fill="#fff"/><ellipse cx="286.42" cy="706.85" rx="21.75" ry="55.42" transform="translate(-469.69 806.67) rotate(-75.46)" fill="#a7a9ac"/><ellipse cx="296.12" cy="706.36" rx="15.85" ry="55.42" transform="translate(-461.96 815.7) rotate(-75.46)" fill="#fff"/><path d="M303.65,811.87,255.4,777.16a9,9,0,0,1-2.05-12.56l43.43-77.5a9,9,0,0,1,12.56-2.05l64.49,46.39A9,9,0,0,1,375.87,744l-59.66,65.82A9,9,0,0,1,303.65,811.87Z" fill="#a7a9ac"/><circle cx="306.89" cy="722.98" r="5.77" fill="#fff"/><rect x="285.73" y="749.85" width="46.43" height="5" rx="2.5" ry="2.5" transform="translate(494.58 -39.49) rotate(35.52)" fill="#fff"/><rect x="277.29" y="761.66" width="46.43" height="5" rx="2.5" ry="2.5" transform="translate(499.87 -32.39) rotate(35.52)" fill="#fff"/><rect x="268.86" y="773.48" width="46.43" height="5" rx="2.5" ry="2.5" transform="translate(505.17 -25.29) rotate(35.52)" fill="#fff"/><path d="M248.73,692.55l.06.85a12.86,12.86,0,0,0,.41,2.21,11.77,11.77,0,0,0,1.4,3,16.49,16.49,0,0,0,2.8,3.17,33.93,33.93,0,0,0,4.13,3c1.57,1,3.34,1.84,5.17,2.75.92.45,1.88.86,2.86,1.28s2,.8,3,1.22c2,.82,4.13,1.56,6.26,2.24s4.25,1.44,6.37,2.05,4.21,1.29,6.26,1.82,4,1.1,5.92,1.57,3.68.91,5.34,1.28,3.19.69,4.55.92,2.54.4,3.51.46a6.29,6.29,0,0,0,2.14-.13.92.92,0,0,0,.53-.35l.38.1h0a1.31,1.31,0,0,1-.58.77,5.76,5.76,0,0,1-2.32.72,38,38,0,0,1-8.44,0,117.84,117.84,0,0,1-24.94-5.37A78.84,78.84,0,0,1,261,710.65a34,34,0,0,1-9.46-7.26,15,15,0,0,1-2.56-4.07,11.53,11.53,0,0,1-.87-3.62,11.69,11.69,0,0,1,.1-2.4l.14-.82a.2.2,0,0,1,.39,0Z" fill="#fff"/><ellipse cx="350.42" cy="710.96" rx="19.41" ry="54.96" transform="translate(-442.15 720.53) rotate(-64.45)" fill="#fff"/><path d="M376.54,741.38l.26-.81a12.87,12.87,0,0,0,.44-2.21,11.77,11.77,0,0,0-.19-3.31,16.49,16.49,0,0,0-1.43-4,33.93,33.93,0,0,0-2.73-4.32c-1.1-1.48-2.42-2.94-3.78-4.46-.69-.75-1.43-1.5-2.19-2.24s-1.55-1.48-2.33-2.24c-1.58-1.51-3.26-3-5-4.4s-3.41-2.91-5.16-4.27-3.44-2.75-5.15-4-3.33-2.51-4.92-3.65-3.09-2.2-4.49-3.17-2.71-1.82-3.88-2.54-2.21-1.31-3.09-1.72a6.29,6.29,0,0,0-2-.67.92.92,0,0,0-.62.13l-.31-.23h0a1.31,1.31,0,0,1,.83-.5,5.76,5.76,0,0,1,2.42.19,38,38,0,0,1,7.83,3.16,117.84,117.84,0,0,1,21.18,14.22,78.84,78.84,0,0,1,9.64,9.67A34,34,0,0,1,378,730.28a15,15,0,0,1,.87,4.73,11.53,11.53,0,0,1-.53,3.68,11.69,11.69,0,0,1-1,2.19l-.44.71a.2.2,0,0,1-.36-.16Z" fill="#a7a9ac"/><ellipse cx="57.56" cy="918.72" rx="21.75" ry="55.42" transform="translate(-846.2 743.83) rotate(-75.46)" fill="#a7a9ac"/><ellipse cx="67.26" cy="918.24" rx="15.85" ry="55.42" transform="translate(-838.46 752.86) rotate(-75.46)" fill="#fff"/><path d="M74.79,1023.74,26.54,989a9,9,0,0,1-2-12.61l43.77-78a9,9,0,0,1,12.6-2.1l64.49,46.39a9,9,0,0,1,2,12.61l-60,66.29A9,9,0,0,1,74.79,1023.74Z" fill="#a7a9ac"/><circle cx="77.96" cy="935.73" r="5.8" fill="#fff"/><rect x="56.87" y="961.72" width="46.43" height="5" rx="2.5" ry="2.5" transform="translate(575.09 132.89) rotate(35.52)" fill="#fff"/><rect x="48.44" y="973.54" width="46.43" height="5" rx="2.5" ry="2.5" transform="translate(580.38 139.99) rotate(35.52)" fill="#fff"/><rect x="40" y="985.36" width="46.43" height="5" rx="2.5" ry="2.5" transform="matrix(0.81, 0.58, -0.58, 0.81, 585.68, 147.09)" fill="#fff"/><path d="M19.87,904.43l.06.85a12.86,12.86,0,0,0,.41,2.21,11.77,11.77,0,0,0,1.4,3,16.5,16.5,0,0,0,2.8,3.17,33.93,33.93,0,0,0,4.13,3c1.57,1,3.34,1.84,5.17,2.75.92.45,1.88.86,2.86,1.28s2,.8,3,1.22c2,.82,4.13,1.56,6.26,2.24s4.25,1.44,6.37,2.05,4.21,1.29,6.26,1.82,4,1.1,5.92,1.57,3.68.91,5.34,1.28,3.19.69,4.55.92,2.54.4,3.51.46a6.29,6.29,0,0,0,2.14-.13.92.92,0,0,0,.53-.35l.38.1h0a1.31,1.31,0,0,1-.58.77,5.76,5.76,0,0,1-2.32.72,38,38,0,0,1-8.44,0,117.83,117.83,0,0,1-24.94-5.37,78.84,78.84,0,0,1-12.54-5.42,34,34,0,0,1-9.46-7.26,15,15,0,0,1-2.56-4.07,11.53,11.53,0,0,1-.87-3.62,11.69,11.69,0,0,1,.1-2.4l.14-.82a.2.2,0,0,1,.39,0Z" fill="#fff"/><ellipse cx="111.4" cy="924.1" rx="12.37" ry="46.77" transform="translate(-689.74 450.24) rotate(-52.52)" fill="#a7a9ac"/><ellipse cx="108.53" cy="922.82" rx="10.57" ry="44.75" transform="translate(-689.85 447.46) rotate(-52.52)" fill="#fff"/><ellipse cx="285" cy="920.2" rx="21.75" ry="55.42" transform="translate(-677.28 965.11) rotate(-75.46)" fill="#a7a9ac"/><ellipse cx="294.71" cy="919.72" rx="15.85" ry="55.42" transform="translate(-669.54 974.13) rotate(-75.46)" fill="#fff"/><path d="M302.24,1025.23,254,990.52a9.08,9.08,0,0,1-2-12.7L296.41,899a9.08,9.08,0,0,1,12.66-2.19l64.49,46.39a9.08,9.08,0,0,1,2,12.7L314.89,1023A9.08,9.08,0,0,1,302.24,1025.23Z" fill="#a7a9ac"/><circle cx="304.89" cy="935.96" r="5.8" fill="#fff"/><rect x="284.31" y="963.2" width="46.43" height="5" rx="2.5" ry="2.5" transform="matrix(0.81, 0.58, -0.58, 0.81, 618.27, 1.03)" fill="#fff"/><rect x="275.88" y="975.02" width="46.43" height="5" rx="2.5" ry="2.5" transform="translate(623.56 8.13) rotate(35.52)" fill="#fff"/><rect x="267.44" y="986.84" width="46.43" height="5" rx="2.5" ry="2.5" transform="translate(628.86 15.23) rotate(35.52)" fill="#fff"/><path d="M247.32,905.91l.06.85a12.86,12.86,0,0,0,.41,2.21,11.77,11.77,0,0,0,1.4,3,16.49,16.49,0,0,0,2.8,3.17,33.93,33.93,0,0,0,4.13,3c1.57,1,3.34,1.84,5.17,2.75.92.45,1.88.86,2.86,1.28s2,.8,3,1.22c2,.82,4.13,1.56,6.26,2.24s4.25,1.44,6.37,2.05S284,929,286,929.51s4,1.1,5.92,1.57,3.68.91,5.34,1.28,3.19.69,4.55.92,2.54.4,3.51.46a6.29,6.29,0,0,0,2.14-.13.92.92,0,0,0,.53-.35l.38.1h0a1.31,1.31,0,0,1-.58.77,5.76,5.76,0,0,1-2.32.72,38,38,0,0,1-8.44,0,117.83,117.83,0,0,1-24.94-5.37A78.83,78.83,0,0,1,259.57,924a34,34,0,0,1-9.46-7.26,15,15,0,0,1-2.56-4.07,11.53,11.53,0,0,1-.87-3.62,11.69,11.69,0,0,1,.1-2.4l.14-.82a.2.2,0,0,1,.39,0Z" fill="#fff"/><ellipse cx="340.35" cy="926.53" rx="15.8" ry="44.75" transform="translate(-602.02 632.89) rotate(-52.52)" fill="#a7a9ac"/><ellipse cx="336.83" cy="923.79" rx="11.6" ry="44.75" transform="translate(-582.01 573.68) rotate(-49.11)" fill="#fff"/><text transform="translate(490.56 142.56)" font-size="60.31" fill="#a7a9ac" font-family="Dosis-Medium, Dosis">Fil<tspan x="55.3" y="0" letter-spacing="-0.04em">e</tspan><tspan x="80.63" y="0" letter-spacing="-0.05em">W</tspan><tspan x="126.71" y="0">ell</tspan></text><text transform="translate(472.36 437.98)" font-size="60.31" fill="#a7a9ac" font-family="Exo2-Regular, Exo 2">Fil<tspan x="65.37" y="0" letter-spacing="-0.01em">e</tspan><tspan x="97.16" y="0" letter-spacing="-0.02em">W</tspan><tspan x="153.25" y="0">el</tspan><tspan x="203.54" y="0" letter-spacing="-0.03em">l</tspan></text><text transform="translate(473.73 732.63)" font-size="60.31" fill="#a7a9ac" font-family="Intro-Regular-Alt, Intro Regular Alt">Fil<tspan x="65.68" y="0" letter-spacing="-0.05em">e</tspan><tspan x="95.47" y="0" letter-spacing="-0.05em">W</tspan><tspan x="151.2" y="0" letter-spacing="0em">el</tspan><tspan x="201.25" y="0" letter-spacing="-0.02em">l</tspan></text><text transform="translate(774.21 732.63)" font-size="60.31" fill="#a7a9ac" font-family="Lora-Regular, Lora"><tspan letter-spacing="-0.01em">F</tspan><tspan x="32.75" y="0" letter-spacing="0em">ile</tspan><tspan x="98.79" y="0" font-family="Lora-Italic, Lora" font-style="italic" letter-spacing="-0.06em">W</tspan><tspan x="154.94" y="0" font-family="Lora-Italic, Lora" font-style="italic">ell</tspan></text><text transform="translate(772.41 1024.84)" font-size="60.31" fill="#a7a9ac" font-family="Raleway-Light, Raleway">Fil<tspan x="63.93" y="0" letter-spacing="-0.06em">e</tspan><tspan x="95.65" y="0" letter-spacing="-0.06em">W</tspan><tspan x="154.69" y="0" letter-spacing="0em">el</tspan><tspan x="205.47" y="0" letter-spacing="-0.03em">l</tspan></text><text transform="translate(776.3 438.29)" font-size="60.31" fill="#a7a9ac" font-family="MuseoSans-300, Museo Sans">Fil<tspan x="59.89" y="0" letter-spacing="-0.01em">e</tspan><tspan x="92.39" y="0" letter-spacing="-0.02em">W</tspan><tspan x="147.16" y="0">ell</tspan></text><text transform="translate(776.73 141.63)" font-size="60.31" fill="#a7a9ac" font-family="Quicksand-Regular, Quicksand">Fi<tspan x="47.04" y="0" letter-spacing="-0.01em">le</tspan><tspan x="93.24" y="0" letter-spacing="-0.01em">W</tspan><tspan x="150.59" y="0">ell</tspan></text><text transform="translate(473.73 1021.48)" font-size="60.31" fill="#a7a9ac" font-family="CrimsonText-Regular, Crimson Text">File<tspan x="88.4" y="0" letter-spacing="-0.08em">W</tspan><tspan x="147.07" y="0" letter-spacing="0em">ell</tspan></text><path d="M573.75,329c-1.2-11.18,3.17-20.81,9.76-21.52s12.9,7.78,14.1,19a32.89,32.89,0,0,1-.09,8,25.16,25.16,0,0,0,1.66-9.08c0-11.46-7.38-20.75-16.49-20.75s-16.49,9.29-16.49,20.75c0,11.08,6.91,20.14,15.6,20.72C577.76,343,574.57,336.63,573.75,329Z" fill="#a7a9ac"/><path d="M580.23,307.83a10.24,10.24,0,0,1,3.26-.53c8.12,0,14.71,9.73,14.71,21.74,0,7.37-2.48,13.88-6.27,17.81" fill="#fff"/><path d="M600.89,371.53H564.68l-4.36-49H597.4a7.85,7.85,0,0,1,7.85,7.85Z" fill="#a7a9ac"/><path d="M583.51,307.54l-.44.15c-.29.08-.71.26-1.22.44s-1.12.46-1.79.78a18.33,18.33,0,0,0-2.1,1.22,16.05,16.05,0,0,0-2.12,1.78,15.66,15.66,0,0,0-1.87,2.37,18.65,18.65,0,0,0-1.48,2.89,19.3,19.3,0,0,0-1,3.26,24.28,24.28,0,0,0-.64,3.43c-.11,1.15-.26,2.3-.28,3.42s0,2.21,0,3.24.13,2,.26,2.9a12.41,12.41,0,0,0,1.14,4.11,2.25,2.25,0,0,0,.74.84,1.43,1.43,0,0,0,.38.15l-.05.22a0,0,0,0,0,.07,0h0a1.76,1.76,0,0,1-.49,0,2.39,2.39,0,0,1-1.11-.75,10.6,10.6,0,0,1-2-4.16,28.93,28.93,0,0,1-.26-13.92,19,19,0,0,1,3.11-6.81,13.84,13.84,0,0,1,5-4.18,15.49,15.49,0,0,1,4.42-1.38c.56-.08,1-.14,1.29-.16l.45,0a.11.11,0,0,1,0,.22Z" fill="#fff"/><rect x="564.18" y="330.71" width="13.14" height="9.78" fill="#a7a9ac"/><circle cx="570.55" cy="332.93" r="3.32" fill="#fff"/><rect x="572.08" y="344.93" width="21.41" height="2.31" rx="1.15" ry="1.15" fill="#fff"/><rect x="572.08" y="351.62" width="21.41" height="2.31" rx="1.15" ry="1.15" fill="#fff"/><rect x="572.08" y="358.32" width="21.41" height="2.31" rx="1.15" ry="1.15" fill="#fff"/><path d="M872.41,329c-1.2-11.18,3.17-20.81,9.76-21.52s12.9,7.78,14.1,19a32.89,32.89,0,0,1-.09,8,25.16,25.16,0,0,0,1.66-9.08c0-11.46-7.38-20.75-16.49-20.75s-16.49,9.29-16.49,20.75c0,11.08,6.91,20.14,15.6,20.72C876.43,343,873.23,336.63,872.41,329Z" fill="#a7a9ac"/><path d="M878.89,307.83a10.24,10.24,0,0,1,3.26-.53c8.12,0,14.71,9.73,14.71,21.74,0,7.37-2.48,13.88-6.27,17.81" fill="#fff"/><path d="M899.55,371.53H863.34l-4.36-49h37.08a7.85,7.85,0,0,1,7.85,7.85Z" fill="#a7a9ac"/><path d="M882.18,307.54l-.44.15c-.29.08-.71.26-1.22.44s-1.12.46-1.79.78a18.33,18.33,0,0,0-2.1,1.22,16.05,16.05,0,0,0-2.12,1.78,15.66,15.66,0,0,0-1.87,2.37,18.66,18.66,0,0,0-1.48,2.89,19.3,19.3,0,0,0-1,3.26,24.28,24.28,0,0,0-.64,3.43c-.12,1.15-.26,2.3-.28,3.42s0,2.21,0,3.24.13,2,.26,2.9a12.41,12.41,0,0,0,1.14,4.11,2.25,2.25,0,0,0,.74.84,1.43,1.43,0,0,0,.38.15l-.05.22a0,0,0,0,0,.07,0h0a1.76,1.76,0,0,1-.49,0,2.39,2.39,0,0,1-1.11-.75,10.6,10.6,0,0,1-2-4.16,28.93,28.93,0,0,1-.26-13.92,19,19,0,0,1,3.11-6.81,13.84,13.84,0,0,1,5-4.18,15.49,15.49,0,0,1,4.42-1.38c.56-.08,1-.14,1.29-.16l.45,0a.11.11,0,0,1,0,.22Z" fill="#fff"/><rect x="862.85" y="330.71" width="13.14" height="9.78" fill="#a7a9ac"/><circle cx="869.21" cy="332.93" r="3.32" fill="#fff"/><rect x="870.74" y="344.93" width="21.41" height="2.31" rx="1.15" ry="1.15" fill="#fff"/><rect x="870.74" y="351.62" width="21.41" height="2.31" rx="1.15" ry="1.15" fill="#fff"/><rect x="870.74" y="358.32" width="21.41" height="2.31" rx="1.15" ry="1.15" fill="#fff"/><path d="M573.75,29.27c-1.2-11.18,3.17-20.81,9.76-21.52s12.9,7.78,14.1,19a32.89,32.89,0,0,1-.09,8,25.16,25.16,0,0,0,1.66-9.08c0-11.46-7.38-20.75-16.49-20.75S566.2,14.14,566.2,25.6c0,11.08,6.91,20.14,15.6,20.72C577.76,43.26,574.57,36.89,573.75,29.27Z" fill="#a7a9ac"/><path d="M580.23,8.09a10.24,10.24,0,0,1,3.26-.53c8.12,0,14.71,9.73,14.71,21.74,0,7.37-2.48,13.88-6.27,17.81" fill="#fff"/><path d="M600.89,71.79H564.68l-4.36-49H597.4a7.85,7.85,0,0,1,7.85,7.85Z" fill="#a7a9ac"/><path d="M583.51,7.8l-.44.15c-.29.08-.71.26-1.22.44s-1.12.46-1.79.78a18.33,18.33,0,0,0-2.1,1.22,16,16,0,0,0-2.12,1.78A15.66,15.66,0,0,0,574,14.53a18.65,18.65,0,0,0-1.48,2.89,19.3,19.3,0,0,0-1,3.26,24.28,24.28,0,0,0-.64,3.43c-.11,1.15-.26,2.3-.28,3.42s0,2.21,0,3.24.13,2,.26,2.9A12.41,12.41,0,0,0,572,37.79a2.25,2.25,0,0,0,.74.84,1.43,1.43,0,0,0,.38.15L573,39a0,0,0,1,0,.07,0h0a1.76,1.76,0,0,1-.49,0,2.39,2.39,0,0,1-1.11-.75,10.6,10.6,0,0,1-2-4.16,28.93,28.93,0,0,1-.26-13.92,19,19,0,0,1,3.11-6.81,13.84,13.84,0,0,1,5-4.18,15.49,15.49,0,0,1,4.42-1.38c.56-.08,1-.14,1.29-.16l.45,0a.11.11,0,0,1,0,.22Z" fill="#fff"/><rect x="564.18" y="30.96" width="13.14" height="9.78" fill="#a7a9ac"/><circle cx="570.55" cy="33.19" r="3.32" fill="#fff"/><rect x="572.08" y="45.18" width="21.41" height="2.31" rx="1.15" ry="1.15" fill="#fff"/><rect x="572.08" y="51.88" width="21.41" height="2.31" rx="1.15" ry="1.15" fill="#fff"/><rect x="572.08" y="58.58" width="21.41" height="2.31" rx="1.15" ry="1.15" fill="#fff"/><path d="M872.41,29.27c-1.2-11.18,3.17-20.81,9.76-21.52s12.9,7.78,14.1,19a32.89,32.89,0,0,1-.09,8,25.16,25.16,0,0,0,1.66-9.08c0-11.46-7.38-20.75-16.49-20.75s-16.49,9.29-16.49,20.75c0,11.08,6.91,20.14,15.6,20.72C876.43,43.26,873.23,36.89,872.41,29.27Z" fill="#a7a9ac"/><path d="M878.89,8.09a10.24,10.24,0,0,1,3.26-.53c8.12,0,14.71,9.73,14.71,21.74,0,7.37-2.48,13.88-6.27,17.81" fill="#fff"/><path d="M899.55,71.79H863.34l-4.36-49h37.08a7.85,7.85,0,0,1,7.85,7.85Z" fill="#a7a9ac"/><path d="M882.18,7.8l-.44.15c-.29.08-.71.26-1.22.44s-1.12.46-1.79.78a18.34,18.34,0,0,0-2.1,1.22,16.05,16.05,0,0,0-2.12,1.78,15.66,15.66,0,0,0-1.87,2.37,18.66,18.66,0,0,0-1.48,2.89,19.3,19.3,0,0,0-1,3.26,24.28,24.28,0,0,0-.64,3.43c-.12,1.15-.26,2.3-.28,3.42s0,2.21,0,3.24.13,2,.26,2.9a12.41,12.41,0,0,0,1.14,4.11,2.25,2.25,0,0,0,.74.84,1.43,1.43,0,0,0,.38.15l-.05.22a0,0,0,1,0,.07,0h0a1.76,1.76,0,0,1-.49,0,2.39,2.39,0,0,1-1.11-.75,10.6,10.6,0,0,1-2-4.16,28.93,28.93,0,0,1-.26-13.92A19,19,0,0,1,871,13.33a13.84,13.84,0,0,1,5-4.18,15.49,15.49,0,0,1,4.42-1.38c.56-.08,1-.14,1.29-.16l.45,0a.11.11,0,0,1,0,.22Z" fill="#fff"/><rect x="862.85" y="30.96" width="13.14" height="9.78" fill="#a7a9ac"/><circle cx="869.21" cy="33.19" r="3.32" fill="#fff"/><rect x="870.74" y="45.18" width="21.41" height="2.31" rx="1.15" ry="1.15" fill="#fff"/><rect x="870.74" y="51.88" width="21.41" height="2.31" rx="1.15" ry="1.15" fill="#fff"/><rect x="870.74" y="58.58" width="21.41" height="2.31" rx="1.15" ry="1.15" fill="#fff"/><text transform="translate(1078.59 141.63)" font-size="60.31" fill="#a7a9ac" font-family="Quicksand-Medium, Quicksand">Fi<tspan x="47.71" y="0" letter-spacing="-0.01em">le</tspan><tspan x="96.13" y="0" letter-spacing="-0.01em">W</tspan><tspan x="152.7" y="0" letter-spacing="0em">ell</tspan></text><path d="M1174.27,29.27c-1.2-11.18,3.17-20.81,9.76-21.52s12.9,7.78,14.1,19a32.89,32.89,0,0,1-.09,8,25.16,25.16,0,0,0,1.66-9.08c0-11.46-7.38-20.75-16.49-20.75s-16.49,9.29-16.49,20.75c0,11.08,6.91,20.14,15.6,20.72C1178.29,43.26,1175.09,36.89,1174.27,29.27Z" fill="#a7a9ac"/><path d="M1180.75,8.09a10.24,10.24,0,0,1,3.26-.53c8.12,0,14.71,9.73,14.71,21.74,0,7.37-2.48,13.88-6.27,17.81" fill="#fff"/><path d="M1201.41,71.79H1165.2l-4.36-49h37.08a7.85,7.85,0,0,1,7.85,7.85Z" fill="#a7a9ac"/><path d="M1184,7.8l-.44.15c-.29.08-.71.26-1.22.44s-1.12.46-1.79.78a18.35,18.35,0,0,0-2.1,1.22,16.06,16.06,0,0,0-2.12,1.78,15.66,15.66,0,0,0-1.87,2.37,18.64,18.64,0,0,0-1.48,2.89,19.3,19.3,0,0,0-1,3.26,24.28,24.28,0,0,0-.64,3.43c-.12,1.15-.26,2.3-.28,3.42s0,2.21,0,3.24.13,2,.26,2.9a12.41,12.41,0,0,0,1.14,4.11,2.25,2.25,0,0,0,.74.84,1.43,1.43,0,0,0,.38.15l-.05.22a0,0,0,0,0,.07,0h0a1.76,1.76,0,0,1-.49,0,2.4,2.4,0,0,1-1.11-.75,10.6,10.6,0,0,1-2-4.16,28.94,28.94,0,0,1-.26-13.92,19,19,0,0,1,3.11-6.81,13.84,13.84,0,0,1,5-4.18,15.49,15.49,0,0,1,4.42-1.38c.56-.08,1-.14,1.29-.16l.45,0a.11.11,0,0,1,0,.22Z" fill="#fff"/><rect x="1164.71" y="30.96" width="13.14" height="9.78" fill="#a7a9ac"/><circle cx="1171.07" cy="33.19" r="3.32" fill="#fff"/><rect x="1172.6" y="45.18" width="21.41" height="2.31" rx="1.15" ry="1.15" fill="#fff"/><rect x="1172.6" y="51.88" width="21.41" height="2.31" rx="1.15" ry="1.15" fill="#fff"/><rect x="1172.6" y="58.58" width="21.41" height="2.31" rx="1.15" ry="1.15" fill="#fff"/><text transform="translate(1074.15 439.92)" font-size="60.31" fill="#a7a9ac" stroke="#a7a9ac" stroke-miterlimit="10" stroke-width="0.84" font-family="AcherusGrotesque-Regular, Acherus Grotesque" letter-spacing="-0.03em">F<tspan x="35.88" y="0" letter-spacing="-0.01em">ile</tspan><tspan x="105.06" y="0" letter-spacing="-0.05em">W</tspan><tspan x="159.82" y="0" letter-spacing="-0.01em">ell</tspan></text><path d="M1178.71,327.57c-1.2-11.18,3.17-20.81,9.76-21.52s12.9,7.78,14.1,19a32.89,32.89,0,0,1-.09,8,25.16,25.16,0,0,0,1.66-9.08c0-11.46-7.38-20.75-16.49-20.75s-16.49,9.29-16.49,20.75c0,11.08,6.91,20.14,15.6,20.72C1182.72,341.55,1179.53,335.18,1178.71,327.57Z" fill="#a7a9ac"/><path d="M1185.19,306.39a10.24,10.24,0,0,1,3.26-.53c8.12,0,14.71,9.73,14.71,21.74,0,7.37-2.48,13.88-6.27,17.81" fill="#fff"/><path d="M1205.85,370.09h-36.21l-4.36-49h37.08a7.85,7.85,0,0,1,7.85,7.85Z" fill="#a7a9ac"/><path d="M1188.47,306.09l-.44.15c-.29.08-.71.26-1.22.44s-1.12.46-1.79.78a18.34,18.34,0,0,0-2.1,1.22,16.05,16.05,0,0,0-2.12,1.78,15.66,15.66,0,0,0-1.87,2.37,18.66,18.66,0,0,0-1.48,2.89,19.3,19.3,0,0,0-1,3.26,24.26,24.26,0,0,0-.64,3.43c-.12,1.15-.26,2.3-.28,3.42s0,2.21,0,3.24.13,2,.26,2.9a12.41,12.41,0,0,0,1.14,4.11,2.25,2.25,0,0,0,.74.84,1.43,1.43,0,0,0,.38.15l-.05.22a0,0,0,0,0,.07,0h0a1.76,1.76,0,0,1-.49,0,2.4,2.4,0,0,1-1.11-.75,10.6,10.6,0,0,1-2-4.16,28.93,28.93,0,0,1-.26-13.92,19,19,0,0,1,3.11-6.81,13.84,13.84,0,0,1,5-4.18,15.49,15.49,0,0,1,4.42-1.38c.56-.08,1-.14,1.29-.16l.45,0a.11.11,0,0,1,0,.22Z" fill="#fff"/><rect x="1169.14" y="329.26" width="13.14" height="9.78" fill="#a7a9ac"/><circle cx="1175.51" cy="331.49" r="3.32" fill="#fff"/><rect x="1177.04" y="343.48" width="21.41" height="2.31" rx="1.15" ry="1.15" fill="#fff"/><rect x="1177.04" y="350.18" width="21.41" height="2.31" rx="1.15" ry="1.15" fill="#fff"/><rect x="1177.04" y="356.87" width="21.41" height="2.31" rx="1.15" ry="1.15" fill="#fff"/><text transform="translate(1085.1 732.63)" font-size="60.31" fill="#a7a9ac" font-family="Calibri-Bold, Calibri" font-weight="700">File<tspan x="87.67" y="0" letter-spacing="-0.04em">W</tspan><tspan x="140.17" y="0">ell</tspan></text><path d="M1176.15,620.27c-1.2-11.18,3.17-20.81,9.76-21.52s12.9,7.78,14.1,19a32.89,32.89,0,0,1-.09,8,25.16,25.16,0,0,0,1.66-9.08c0-11.46-7.38-20.75-16.49-20.75s-16.49,9.29-16.49,20.75c0,11.08,6.91,20.14,15.6,20.72C1180.16,634.26,1177,627.89,1176.15,620.27Z" fill="#a7a9ac"/><path d="M1182.63,599.09a10.24,10.24,0,0,1,3.26-.53c8.12,0,14.71,9.73,14.71,21.74,0,7.37-2.48,13.88-6.27,17.81" fill="#fff"/><path d="M1203.29,662.79h-36.21l-4.36-49h37.08a7.85,7.85,0,0,1,7.85,7.85Z" fill="#a7a9ac"/><path d="M1185.91,598.8l-.44.15c-.29.08-.71.26-1.22.44s-1.12.46-1.79.78a18.35,18.35,0,0,0-2.1,1.22,16.06,16.06,0,0,0-2.12,1.78,15.66,15.66,0,0,0-1.87,2.37,18.65,18.65,0,0,0-1.48,2.89,19.3,19.3,0,0,0-1,3.26,24.28,24.28,0,0,0-.64,3.43c-.12,1.15-.26,2.3-.28,3.42s0,2.21,0,3.24.13,2,.26,2.9a12.41,12.41,0,0,0,1.14,4.11,2.25,2.25,0,0,0,.74.84,1.44,1.44,0,0,0,.38.15l-.05.22a0,0,0,0,0,.07,0h0a1.76,1.76,0,0,1-.49,0,2.39,2.39,0,0,1-1.11-.74,10.6,10.6,0,0,1-2-4.16,28.94,28.94,0,0,1-.26-13.92,19,19,0,0,1,3.11-6.81,13.84,13.84,0,0,1,5-4.18,15.49,15.49,0,0,1,4.42-1.38c.56-.08,1-.14,1.29-.16l.45,0a.11.11,0,0,1,0,.22Z" fill="#fff"/><rect x="1166.58" y="621.97" width="13.14" height="9.78" fill="#a7a9ac"/><circle cx="1172.95" cy="624.19" r="3.32" fill="#fff"/><rect x="1174.47" y="636.19" width="21.41" height="2.31" rx="1.15" ry="1.15" fill="#fff"/><rect x="1174.47" y="642.88" width="21.41" height="2.31" rx="1.15" ry="1.15" fill="#fff"/><rect x="1174.47" y="649.58" width="21.41" height="2.31" rx="1.15" ry="1.15" fill="#fff"/><path d="M573.75,615.62c-1.2-11.18,3.17-20.81,9.76-21.52s12.9,7.78,14.1,19a32.89,32.89,0,0,1-.09,8,25.16,25.16,0,0,0,1.66-9.08c0-11.46-7.38-20.75-16.49-20.75s-16.49,9.29-16.49,20.75c0,11.08,6.91,20.14,15.6,20.72C577.76,629.61,574.57,623.24,573.75,615.62Z" fill="#a7a9ac"/><path d="M580.23,594.45a10.24,10.24,0,0,1,3.26-.53c8.12,0,14.71,9.73,14.71,21.74,0,7.37-2.48,13.88-6.27,17.81" fill="#fff"/><path d="M600.89,658.15H564.68l-4.36-49H597.4a7.85,7.85,0,0,1,7.85,7.85Z" fill="#a7a9ac"/><path d="M583.51,594.15l-.44.15c-.29.08-.71.26-1.22.44s-1.12.46-1.79.78a18.34,18.34,0,0,0-2.1,1.22,16.06,16.06,0,0,0-2.12,1.78,15.66,15.66,0,0,0-1.87,2.37,18.65,18.65,0,0,0-1.48,2.89,19.3,19.3,0,0,0-1,3.26,24.28,24.28,0,0,0-.64,3.43c-.11,1.15-.26,2.3-.28,3.42s0,2.21,0,3.24.13,2,.26,2.9a12.41,12.41,0,0,0,1.14,4.11,2.25,2.25,0,0,0,.74.84,1.43,1.43,0,0,0,.38.15l-.05.22a0,0,0,0,0,.07,0h0a1.75,1.75,0,0,1-.49,0,2.39,2.39,0,0,1-1.11-.75,10.6,10.6,0,0,1-2-4.16,28.93,28.93,0,0,1-.26-13.92,19,19,0,0,1,3.11-6.81,13.84,13.84,0,0,1,5-4.18,15.49,15.49,0,0,1,4.42-1.38c.56-.08,1-.14,1.29-.16l.45,0a.11.11,0,0,1,0,.22Z" fill="#fff"/><rect x="564.18" y="617.32" width="13.14" height="9.78" fill="#a7a9ac"/><circle cx="570.55" cy="619.54" r="3.32" fill="#fff"/><rect x="572.08" y="631.54" width="21.41" height="2.31" rx="1.15" ry="1.15" fill="#fff"/><rect x="572.08" y="638.23" width="21.41" height="2.31" rx="1.15" ry="1.15" fill="#fff"/><rect x="572.08" y="644.93" width="21.41" height="2.31" rx="1.15" ry="1.15" fill="#fff"/><path d="M874.09,615.62c-1.2-11.18,3.17-20.81,9.76-21.52s12.9,7.78,14.1,19a32.89,32.89,0,0,1-.09,8,25.16,25.16,0,0,0,1.66-9.08c0-11.46-7.38-20.75-16.49-20.75s-16.49,9.29-16.49,20.75c0,11.08,6.91,20.14,15.6,20.72C878.11,629.61,874.91,623.24,874.09,615.62Z" fill="#a7a9ac"/><path d="M880.57,594.45a10.24,10.24,0,0,1,3.26-.53c8.12,0,14.71,9.73,14.71,21.74,0,7.37-2.48,13.88-6.27,17.81" fill="#fff"/><path d="M901.23,658.15H865l-4.36-49h37.08a7.85,7.85,0,0,1,7.85,7.85Z" fill="#a7a9ac"/><path d="M883.86,594.15l-.44.15c-.29.08-.71.26-1.22.44s-1.12.46-1.79.78a18.34,18.34,0,0,0-2.1,1.22,16.06,16.06,0,0,0-2.12,1.78,15.66,15.66,0,0,0-1.87,2.37,18.66,18.66,0,0,0-1.48,2.89,19.3,19.3,0,0,0-1,3.26,24.27,24.27,0,0,0-.64,3.43c-.12,1.15-.26,2.3-.28,3.42s0,2.21,0,3.24.13,2,.26,2.9a12.41,12.41,0,0,0,1.14,4.11,2.25,2.25,0,0,0,.74.84,1.43,1.43,0,0,0,.38.15l-.05.22a0,0,0,0,0,.07,0h0a1.75,1.75,0,0,1-.49,0,2.4,2.4,0,0,1-1.11-.75,10.6,10.6,0,0,1-2-4.16,28.93,28.93,0,0,1-.26-13.92,19,19,0,0,1,3.11-6.81,13.84,13.84,0,0,1,5-4.18,15.49,15.49,0,0,1,4.42-1.38c.56-.08,1-.14,1.29-.16l.45,0a.11.11,0,0,1,0,.22Z" fill="#fff"/><rect x="864.53" y="617.32" width="13.14" height="9.78" fill="#a7a9ac"/><circle cx="870.89" cy="619.54" r="3.32" fill="#fff"/><rect x="872.42" y="631.54" width="21.41" height="2.31" rx="1.15" ry="1.15" fill="#fff"/><rect x="872.42" y="638.23" width="21.41" height="2.31" rx="1.15" ry="1.15" fill="#fff"/><rect x="872.42" y="644.93" width="21.41" height="2.31" rx="1.15" ry="1.15" fill="#fff"/><path d="M573.75,911.61c-1.2-11.18,3.17-20.81,9.76-21.52s12.9,7.78,14.1,19a32.89,32.89,0,0,1-.09,8,25.16,25.16,0,0,0,1.66-9.08c0-11.46-7.38-20.75-16.49-20.75s-16.49,9.29-16.49,20.75c0,11.08,6.91,20.14,15.6,20.72C577.76,925.6,574.57,919.23,573.75,911.61Z" fill="#a7a9ac"/><path d="M580.23,890.44a10.24,10.24,0,0,1,3.26-.53c8.12,0,14.71,9.73,14.71,21.74,0,7.37-2.48,13.88-6.27,17.81" fill="#fff"/><path d="M600.89,954.14H564.68l-4.36-49H597.4a7.85,7.85,0,0,1,7.85,7.85Z" fill="#a7a9ac"/><path d="M583.51,890.14l-.44.15c-.29.08-.71.26-1.22.44s-1.12.46-1.79.78a18.33,18.33,0,0,0-2.1,1.22,16,16,0,0,0-2.12,1.78,15.66,15.66,0,0,0-1.87,2.37,18.65,18.65,0,0,0-1.48,2.89,19.31,19.31,0,0,0-1,3.26,24.28,24.28,0,0,0-.64,3.43c-.11,1.15-.26,2.3-.28,3.42s0,2.21,0,3.24.13,2,.26,2.9a12.41,12.41,0,0,0,1.14,4.11,2.25,2.25,0,0,0,.74.84,1.43,1.43,0,0,0,.38.15l-.05.22a0,0,0,1,0,.07,0h0a1.76,1.76,0,0,1-.49,0,2.39,2.39,0,0,1-1.11-.74,10.6,10.6,0,0,1-2-4.16,28.93,28.93,0,0,1-.26-13.92,19,19,0,0,1,3.11-6.81,13.84,13.84,0,0,1,5-4.18,15.49,15.49,0,0,1,4.42-1.38c.56-.08,1-.14,1.29-.16l.45,0a.11.11,0,0,1,0,.22Z" fill="#fff"/><rect x="564.18" y="913.31" width="13.14" height="9.78" fill="#a7a9ac"/><circle cx="570.55" cy="915.53" r="3.32" fill="#fff"/><rect x="572.08" y="927.53" width="21.41" height="2.31" rx="1.15" ry="1.15" fill="#fff"/><rect x="572.08" y="934.22" width="21.41" height="2.31" rx="1.15" ry="1.15" fill="#fff"/><rect x="572.08" y="940.92" width="21.41" height="2.31" rx="1.15" ry="1.15" fill="#fff"/><path d="M872.41,911.61c-1.2-11.18,3.17-20.81,9.76-21.52s12.9,7.78,14.1,19a32.89,32.89,0,0,1-.09,8,25.16,25.16,0,0,0,1.66-9.08c0-11.46-7.38-20.75-16.49-20.75s-16.49,9.29-16.49,20.75c0,11.08,6.91,20.14,15.6,20.72C876.43,925.6,873.23,919.23,872.41,911.61Z" fill="#a7a9ac"/><path d="M878.89,890.44a10.24,10.24,0,0,1,3.26-.53c8.12,0,14.71,9.73,14.71,21.74,0,7.37-2.48,13.88-6.27,17.81" fill="#fff"/><path d="M899.55,954.14H863.34l-4.36-49h37.08a7.85,7.85,0,0,1,7.85,7.85Z" fill="#a7a9ac"/><path d="M882.18,890.14l-.44.15c-.29.08-.71.26-1.22.44s-1.12.46-1.79.78a18.33,18.33,0,0,0-2.1,1.22,16.05,16.05,0,0,0-2.12,1.78,15.66,15.66,0,0,0-1.87,2.37,18.66,18.66,0,0,0-1.48,2.89,19.31,19.31,0,0,0-1,3.26,24.28,24.28,0,0,0-.64,3.43c-.12,1.15-.26,2.3-.28,3.42s0,2.21,0,3.24.13,2,.26,2.9a12.41,12.41,0,0,0,1.14,4.11,2.25,2.25,0,0,0,.74.84,1.43,1.43,0,0,0,.38.15l-.05.22a0,0,0,0,0,.07,0h0a1.76,1.76,0,0,1-.49,0,2.39,2.39,0,0,1-1.11-.74,10.6,10.6,0,0,1-2-4.16,28.93,28.93,0,0,1-.26-13.92,19,19,0,0,1,3.11-6.81,13.84,13.84,0,0,1,5-4.18,15.49,15.49,0,0,1,4.42-1.38c.56-.08,1-.14,1.29-.16l.45,0a.11.11,0,0,1,0,.22Z" fill="#fff"/><rect x="862.85" y="913.31" width="13.14" height="9.78" fill="#a7a9ac"/><circle cx="869.21" cy="915.53" r="3.32" fill="#fff"/><rect x="870.74" y="927.53" width="21.41" height="2.31" rx="1.15" ry="1.15" fill="#fff"/><rect x="870.74" y="934.22" width="21.41" height="2.31" rx="1.15" ry="1.15" fill="#fff"/><rect x="870.74" y="940.92" width="21.41" height="2.31" rx="1.15" ry="1.15" fill="#fff"/><path d="M1078.13,1024.84V982H1106v2.77H1081.2v17h21v2.65h-21v20.39Z" fill="#a7a9ac" stroke="#a7a9ac" stroke-linecap="round" stroke-linejoin="round" stroke-width="1.68"/><path d="M1113,986.36v-5.55h3v5.55Zm0,38.48V993.47h3v31.36Z" fill="#a7a9ac" stroke="#a7a9ac" stroke-linecap="round" stroke-linejoin="round" stroke-width="1.68"/><path d="M1125.77,980.81h3.08v37.81a3.81,3.81,0,0,0,1,2.77,3.64,3.64,0,0,0,2.74,1,10.26,10.26,0,0,0,1.6-.15,8.48,8.48,0,0,0,1.72-.45l.6,2.41a12.5,12.5,0,0,1-2.53.69,15,15,0,0,1-2.59.27,5.5,5.5,0,0,1-4.07-1.54,5.58,5.58,0,0,1-1.54-4.13Z" fill="#a7a9ac" stroke="#a7a9ac" stroke-linecap="round" stroke-linejoin="round" stroke-width="1.68"/><path d="M1154.48,1025.44a14.61,14.61,0,0,1-6.15-1.3,15.17,15.17,0,0,1-4.92-3.56A16.91,16.91,0,0,1,1139,1009a16.63,16.63,0,0,1,4.4-11.37,15,15,0,0,1,4.85-3.47,15.2,15.2,0,0,1,12.21,0,15.32,15.32,0,0,1,4.89,3.5,16,16,0,0,1,3.2,5.13,16.81,16.81,0,0,1,1.15,6.18v.75a1.64,1.64,0,0,1-.06.57h-27.5a14,14,0,0,0,1.27,5,14.29,14.29,0,0,0,2.74,4,12.34,12.34,0,0,0,3.83,2.65,11.3,11.3,0,0,0,4.64,1,11.49,11.49,0,0,0,3.2-.45,13,13,0,0,0,2.92-1.24,10.55,10.55,0,0,0,2.41-1.9,8.92,8.92,0,0,0,1.66-2.44l2.65.72a10,10,0,0,1-2,3.11,13.27,13.27,0,0,1-3,2.44,15.36,15.36,0,0,1-3.77,1.6A15.63,15.63,0,0,1,1154.48,1025.44Zm12.3-17.49a14.23,14.23,0,0,0-1.24-5.07,13.54,13.54,0,0,0-2.71-4,12.19,12.19,0,0,0-3.83-2.59,12,12,0,0,0-9.29,0,12.18,12.18,0,0,0-3.83,2.59,12.56,12.56,0,0,0-2.65,4,15.27,15.27,0,0,0-1.18,5Z" fill="#a7a9ac" stroke="#a7a9ac" stroke-linecap="round" stroke-linejoin="round" stroke-width="1.68"/><path d="M1190.18,982.32h3l6.39,15.56,6.39-15.56h3l-7.54,18,9,20.87,16.4-39.2h3.38l-18.33,42.82h-2.83l-9.41-22-9.47,22h-2.83L1169.07,982h3.32l16.46,39.2,8.87-20.87Z" fill="#a7a9ac" stroke="#a7a9ac" stroke-linecap="round" stroke-linejoin="round" stroke-width="1.68"/><path d="M1245.24,1025.44a14.61,14.61,0,0,1-6.15-1.3,15.17,15.17,0,0,1-4.92-3.56,16.91,16.91,0,0,1-4.43-11.55,16.63,16.63,0,0,1,4.4-11.37,15,15,0,0,1,4.85-3.47,15.2,15.2,0,0,1,12.21,0,15.32,15.32,0,0,1,4.89,3.5,16,16,0,0,1,3.2,5.13,16.81,16.81,0,0,1,1.15,6.18v.75a1.64,1.64,0,0,1-.06.57h-27.5a14,14,0,0,0,1.27,5,14.29,14.29,0,0,0,2.74,4,12.34,12.34,0,0,0,3.83,2.65,11.3,11.3,0,0,0,4.64,1,11.49,11.49,0,0,0,3.2-.45,13,13,0,0,0,2.92-1.24,10.55,10.55,0,0,0,2.41-1.9,8.92,8.92,0,0,0,1.66-2.44l2.65.72a10,10,0,0,1-2,3.11,13.27,13.27,0,0,1-3,2.44,15.36,15.36,0,0,1-3.77,1.6A15.63,15.63,0,0,1,1245.24,1025.44Zm12.3-17.49a14.23,14.23,0,0,0-1.24-5.07,13.54,13.54,0,0,0-2.71-4,12.19,12.19,0,0,0-3.83-2.59,12,12,0,0,0-9.29,0,12.18,12.18,0,0,0-3.83,2.59,12.56,12.56,0,0,0-2.65,4,15.27,15.27,0,0,0-1.18,5Z" fill="#a7a9ac" stroke="#a7a9ac" stroke-linecap="round" stroke-linejoin="round" stroke-width="1.68"/><path d="M1267.32,980.81h3.08v37.81a3.81,3.81,0,0,0,1,2.77,3.64,3.64,0,0,0,2.74,1,10.26,10.26,0,0,0,1.6-.15,8.48,8.48,0,0,0,1.72-.45l.6,2.41a12.5,12.5,0,0,1-2.53.69,15,15,0,0,1-2.59.27,5.5,5.5,0,0,1-4.07-1.54,5.58,5.58,0,0,1-1.54-4.13Z" fill="#a7a9ac" stroke="#a7a9ac" stroke-linecap="round" stroke-linejoin="round" stroke-width="1.68"/><path d="M1282.94,980.81H1286v37.81a3.81,3.81,0,0,0,1,2.77,3.64,3.64,0,0,0,2.74,1,10.26,10.26,0,0,0,1.6-.15,8.48,8.48,0,0,0,1.72-.45l.6,2.41a12.5,12.5,0,0,1-2.53.69,15,15,0,0,1-2.59.27,5.5,5.5,0,0,1-4.07-1.54,5.58,5.58,0,0,1-1.54-4.13Z" fill="#a7a9ac" stroke="#a7a9ac" stroke-linecap="round" stroke-linejoin="round" stroke-width="1.68"/><path d="M1176.87,911.61c-1.2-11.18,3.17-20.81,9.76-21.52s12.9,7.78,14.1,19a32.89,32.89,0,0,1-.09,8,25.16,25.16,0,0,0,1.66-9.08c0-11.46-7.38-20.75-16.49-20.75s-16.49,9.29-16.49,20.75c0,11.08,6.91,20.14,15.6,20.72C1180.88,925.6,1177.68,919.23,1176.87,911.61Z" fill="#a7a9ac"/><path d="M1183.35,890.44a10.24,10.24,0,0,1,3.26-.53c8.12,0,14.71,9.73,14.71,21.74,0,7.37-2.48,13.88-6.27,17.81" fill="#fff"/><path d="M1204,954.14h-36.21l-4.36-49h37.08a7.85,7.85,0,0,1,7.85,7.85Z" fill="#a7a9ac"/><path d="M1186.63,890.14l-.44.15c-.29.08-.71.26-1.22.44s-1.12.46-1.79.78a18.34,18.34,0,0,0-2.11,1.22,16.06,16.06,0,0,0-2.12,1.78,15.66,15.66,0,0,0-1.87,2.37,18.65,18.65,0,0,0-1.48,2.89,19.3,19.3,0,0,0-1,3.26,24.28,24.28,0,0,0-.64,3.43c-.12,1.15-.26,2.3-.28,3.42s0,2.21,0,3.24.13,2,.26,2.9a12.41,12.41,0,0,0,1.14,4.11,2.25,2.25,0,0,0,.74.84,1.44,1.44,0,0,0,.38.15l-.05.22a0,0,0,0,0,.07,0h0a1.76,1.76,0,0,1-.49,0,2.39,2.39,0,0,1-1.11-.74,10.6,10.6,0,0,1-2-4.16,28.94,28.94,0,0,1-.26-13.92,19,19,0,0,1,3.11-6.81,13.84,13.84,0,0,1,5-4.18,15.49,15.49,0,0,1,4.42-1.38c.56-.08,1-.14,1.29-.16l.45,0a.11.11,0,0,1,0,.22Z" fill="#fff"/><rect x="1167.3" y="913.31" width="13.14" height="9.78" fill="#a7a9ac"/><circle cx="1173.67" cy="915.53" r="3.32" fill="#fff"/><rect x="1175.19" y="927.53" width="21.41" height="2.31" rx="1.15" ry="1.15" fill="#fff"/><rect x="1175.19" y="934.22" width="21.41" height="2.31" rx="1.15" ry="1.15" fill="#fff"/><rect x="1175.19" y="940.92" width="21.41" height="2.31" rx="1.15" ry="1.15" fill="#fff"/></g></g></svg>