<svg xmlns="http://www.w3.org/2000/svg" viewBox="0 0 886.58 548.48"><title>Asset 1@2x</title><g id="Layer_2" data-name="Layer 2"><g id="Layer_1-2" data-name="Layer 1"><path d="M50.92,25.58c.23,1.46.49,2.92.68,4.39A21.57,21.57,0,0,0,52,33.65a2.49,2.49,0,0,0,3.4,1.66,4.49,4.49,0,0,0,3.11-4.86l-3.68,2.27a8,8,0,0,1-.31-2.29A77.32,77.32,0,0,1,57,20.22a8.51,8.51,0,0,0,.66-5.15C53.34,13,53.34,13,52.75,16.3c-1.51-.35-2.86-.13-3.67,1.32C47.17,21,45.25,24.46,43.49,28a5.52,5.52,0,0,0-.25,2.91c.24,2.21,1.71,2.9,3.55,1.63C49.18,30.84,50.9,28.69,50.92,25.58Zm646,299.26c-2.6.33-4.84,1.78-6.89-.45-1.91,4.89-7.07,2.18-9.91,4.92-.25,2.76-1,5.71,2,7.91-3.33,4.56-6.51,8.9-9.67,13.25-.41.57-.72,1.22-1.09,1.83-3.34,5.54-3.77,11.82-4.41,18-.33,3.19,1.8,6,5.24,6.88,3.73,1,7.56,1.38,11.31-.25,1-.44,2.07-.71,3.16-1.08,1.64,6-.89,12.31,2.49,18,2.13-.2,4.36-.58,6.6-.6,9.36-.06,18.72,0,28.09,0,2.15,0,4.26-.11,5.34,2.65,4.66-4.42,10-.92,15.23-1.93,0-3.23.17-6.33,0-9.4A12.86,12.86,0,0,1,748,374.13a31.76,31.76,0,0,0,2.58-3.5c-3.42-1.19-3.16,2.79-5.28,3.39-.22-.52-.53-.9-.48-1.22q1.59-9.65,3.26-19.28c.22-1.25.6-2.47.78-3.72.62-4.21,1.19-8.43,1.77-12.65a5.71,5.71,0,0,1,3.79-4.71c2.29-1,1.9,2.21,3.69,2,3.3-2.4-.1-5.86,1.76-8.86-8.6.42-16.62.23-24.56.57a4.16,4.16,0,0,1-.37-1c-.28-4.67-1.8-5.89-5.76-3.91-5.1,2.54-10.5,3.08-16,3.36-2,.1-4,0-6.66,0-2.62,2.1-6.34,2.42-10.33,2.56ZM637,143.17l4.71,6.21c1.16-2.11,3-1.82,5-1.44,4.45.84,8.91,1.91,13.41,2.16a226.79,226.79,0,0,0,50.5-2.42c4.62-.77,9.21-1.7,12.41-5.75,1.78-2.25,2.08-3.23.8-5.2-2,2.49-2.45,6.68-7.13,6.92a10.57,10.57,0,0,1-.29-2.71c.24-1.35,1.25-2.74,1-4a33.43,33.43,0,0,1,1-14.73c1.3-4.74.66-10,3.61-14.32.33-.48,0-1.62-.35-2.3a17.79,17.79,0,0,1-1.67-10,115.29,115.29,0,0,1,3-16.69c1-3.53-.36-8.08,4.43-10.32-1-.49-1.45-.92-2-1-8.06-.46-16.12-.91-24.18-1.26-4.08-.18-8.32.71-12.18-1a3.23,3.23,0,0,0-4.41,1.12c-1.62-1.14-2.24-3.64-4.7-2.33l1.57,3-5.45-3.08-.33,3.12c-1.46-.72-2.67-1.24-3.79-1.89-.85-.49-1.93-1.82-2.35-1.62-2.56,1.25-5.1-.59-7.8.18l1.4,3.12h-12l-.15.83,5.16,1.7c-5.71,1-5.71,1-7.52,2.54l8.72-.46c-.92,5.9-1.83,11.18-2.55,16.49-.48,3.51-.69,7.07-1,10.6-.15,1.65-.51,3.08-3,2.61.32-3.34.85-6.55.88-9.77s1.23-6.31-.65-10.28a23.22,23.22,0,0,0-.71,2.66c-.53,5.07-1.15,10.14-1.47,15.22a5.05,5.05,0,0,1-2.43,4.53c-1.61,1-3,2.4-3.05,4.79-.15,7.76-.34,15.54-.9,23.28-.28,3.9-1.37,7.73-2.1,11.67ZM70.89,277c-.85-.71-1.46-1.27-2.12-1.78-5.05-3.92-10.13-7.79-16.19-10.13a55.23,55.23,0,0,1-7.8-3.37c-2-1.12-3.53-2.89-5.87-4.87-2.62.16-5.58-1.23-8.45-3.51.7-.75,1.24-1.39,1.83-2,5.58-5.44,11.21-10.84,16.75-16.32,3.37-3.33,4.06-3.31,7.89-.72a70.85,70.85,0,0,0,9.56,5.44C70,241.35,73.91,242,77.13,244c6.06,3.67,13.27,3.67,19.9,7.35-.24-1.35-.13-2.44-.56-2.73a15.76,15.76,0,0,0-3.81-1.74c-4.28-1.44-8.61-2.72-12.86-4.23-2.54-.9-4.91-2.26-7.45-3.14-5.24-1.82-10.34-3.76-14.71-7.41-3.56-3-6.7-2.42-10,1.06-2.34,2.47-4.64,5-7.08,7.35-4.42,4.29-8.92,8.48-13.83,13.14l8.79,5.09c-3.73,5.2-9.19,8.22-12.41,13.25l17.24,8.74-6.43,3.1-1.83-3.43c-2.24,4.56-6.31,7.29-8.47,11.19a78.08,78.08,0,0,1,7.32,2.93,43.06,43.06,0,0,1,4.8,3.47c1.84,1.31,3.56,2.93,5.59,3.79,5.1,2.13,10.37,3.83,15.51,5.85,3.09,1.22,6.49,2.13,7.92,6.22,3.76-2.5,5.23,2.37,8.71,2.49-.91-2.79-3.76-4.64-2.27-8,3.05.71,2.4,4.06,4.18,5.75,1.2-1.37,2.38-2.74,3.58-4.09,3.37-3.8,6.92-7.46,10.06-11.45,2.09-2.65,4.33-5,7.5-6,2.22-.73,3.19-2.83,2.82-4.09-.51-1.72.85-2.4.9-3L88.88,278l7.32-6.87c-4.44.09-4.59-.26-2.9-5.9,1.47-.39,3.1,1.46,4.55-.14-2.06-1.52-3.91-3.11-6-4.34-4.24-2.55-4.29-2.48-.92-5.69.41-.39,1.05-.67,1.24-1.14a14.3,14.3,0,0,0,.45-2.87C87.09,255.21,79.33,264.54,70.89,277Zm262.7,98c-.71.57-1.48,1.16-2.23,1.78-5.72,4.75-8.81,10.58-7.47,18.24a24.84,24.84,0,0,1,.29,3,7.88,7.88,0,0,0,2.68,5.59c3.82,3.56,6.83,7.9,11.22,11s8.52,7,13,10.17c4.25,3,10.56,2.13,14.32-1.34a82.74,82.74,0,0,1,6.58-5.4c3.07-2.3,6.89-3.92,9.23-6.78,5-6.14,11.5-10.42,17.65-15.13,6.91-5.29,13.48-4.62,19.49,1.29,3.22,3.17,4.71,7.06,6.1,11.07a40.66,40.66,0,0,1,1,5.83c.07.36.44.66.7,1l1.67-1.12c.77-2.86,1.45-5.29,2.05-7.74.19-.79.51-2.08.14-2.38-2.76-2.24-2.34-5.91-4.1-8.62a15.29,15.29,0,0,1-2.41-6.73c-.49-5.64-4-8.76-8.68-10.39a182.94,182.94,0,0,0-18.42-5,9.33,9.33,0,0,1-5.57-3.46c-1.86-2.3-4.05-4.32-6.13-6.44-4.9-5-9.82-10-14.67-15-1,1.64-1,1.66-.17,2.81a17.6,17.6,0,0,1,2.23,3.05c2.61,6.23,5.09,9.33,10.94,13.41.56.39.87,1.1,1.39,1.57a14.26,14.26,0,0,0,2.31,1.77c2.26,1.3,4.57,2.52,7.18,3.94l-6.26,11.94,8,7.94c-.9.72-1.81,1.41-2.67,2.14-3.56,3-7.09,6.07-10.67,9.07-2.49,2.09-4.91,4.29-7.56,6.14-4.64,3.25-9.52,6.15-14.14,9.41s-8.53,2.85-11.51-1.87a13.63,13.63,0,0,0-4.54-4.22,65.31,65.31,0,0,1-8.66-6.1,42.66,42.66,0,0,1-7.82-8.89c-3.68-6-1.43-18.1,5.58-22.94,1.77-1.23,3.15-1.52,5-.28a8.91,8.91,0,0,0,3.53,1.37c5.75.88,11.5,1.8,17.29,2.36,3,.29,5.64.43,7.52,3.53a5.78,5.78,0,0,0,6.58,2.89,7.77,7.77,0,0,0,5.71-5.71c1.31-4.53.38-6.64-3.89-8.46-3.36-1.44-5-1-7.93,2.68a4.51,4.51,0,0,1-3.73,2,64.55,64.55,0,0,1-15.48-.55A16.08,16.08,0,0,1,340,373l27.5-21.08-1.74-2.83c-1.92-.43-3.52-.73-5.08-1.16-2.46-.68-4.85-1.62-7.34-2.13-5.68-1.16-11.39-2.16-17.1-3.13a5.89,5.89,0,0,0-3.35.19c-4.4,2.16-9,4.05-12.27,7.95a4.34,4.34,0,0,0-.85,2.64,20.27,20.27,0,0,0,5.93,14.15C328.15,370.15,330.86,372.42,333.6,374.95Zm89.61-260.72C418.83,116,418.87,116,419,121c.05,2.12-.08,4.25-.14,6.38-.23,8.75-.47,17.5-.68,25.55,1.57,2.07,4.28,1.56,4.37,4-1.76,1.86-4.87,0-6.85,3,2.27,0,4,.3,5.57-.05a87.5,87.5,0,0,1,19-1.94,17,17,0,0,0,2.13-.11c6.86-.88,13.68-2.64,20.46-.45l2.86-3.45c-.57-2.47-1.33-4.47-1.43-6.5-.16-3.25.07-6.52.21-9.77.12-2.94-.41-6.21.71-8.74,1.25-2.81.59-4.44-1-6.47-2.39-3.08-5.12-6-4.87-10.41,0-.78-.58-1.58-.78-2.39s-.69-1.94-.35-2.45c1.47-2.17.24-4.42.53-6.59.57-4.28-2.2-7.13-4.15-10.4a11,11,0,0,0-9.67-5.84c-.21,0-.41-.34-.87-.75.08-1.46.06-3.16.28-4.83.29-2.21,1-4.38,1.11-6.59a8.17,8.17,0,0,1,2.58-6c2.76-2.62,5.31-5.45,7.92-8.16-2.58-3.08-3.6-3.42-6.05-1.38-3.9,3.25-7.58,6.75-11.35,10.14l.85.34c.08,1.68.79,3.69.12,5-1.81,3.53-1.21,7.21-1.51,10.84-.1,1.26,0,2.53,0,3.84a7.74,7.74,0,0,1-1.48.93c-6.19,2.12-9.81,7-13.1,12.21a5.37,5.37,0,0,0-.61,5.28A12.86,12.86,0,0,1,423.21,114.22ZM175.58,548.48c.66-.81,1-1.1,1.17-1.47,1.88-5.52,4.06-10.89,7.52-15.66.32-.44.74-1.09.63-1.52-.91-3.62.9-6.67,2.14-9.74,2.11-5.22,4.66-10.25,7-15.39a41.17,41.17,0,0,0,2.36-5.92,14.19,14.19,0,0,0,.22-4.45c-.28-5.19-2.33-10.42.31-15l-7.51-2.59,2.6-5.89-.82-.41c-4.52,3.52-5,9.8-8.57,14l-5.15-6,.76-3.76-.81-1.19c-1.1,4.54-3.82,3.24-6.34,3-3.16-.24-6.39-.06-8.8,2.3a43.6,43.6,0,0,0-6.09,7.07,16.91,16.91,0,0,0-3,9.15c0,4.79-.33,9.58-.53,14.57-1.08.21-2,.42-3,.58s-1.77.23-3,.38c1.65,2.9,4.42.29,6.09,2.21.58,4.76,1.05,9.79,1.86,14.77a20,20,0,0,0,2.13,5.85c.84,1.63,1.33,3,.37,4.76a21.47,21.47,0,0,0-1.28,4.2l1,.56,3.46-3.59c5.17,1.61,10.54,3,15.93.92C176.81,543.33,172.25,545.22,175.58,548.48Zm142.6-261.21c10.94-.81,21.3-1.28,31.59-2.43,11.73-1.31,23.39-2.67,35.24-1.42,4.15.44,8.45-.48,12.68-.74,2.87-.18,3.56-1,3.76-3.95.76-11.2,1.42-22.41,2.41-33.59.45-5.05,1.65-10,2.31-15.07a4.43,4.43,0,0,0-1.08-3c-2.34-2.85-4.88-5.53-7.27-8.34s-4.66-5.61-6.87-8.29H364.58c0-2.86-.16-6,0-9,.43-7,.5-7-1.34-8.74-1.76,6.2.77,12.64-1.85,18.84l-6.59.43c.31-3.22.68-5.87.77-8.53.08-2.5.89-5.13-1.13-7.53l-1.6,16.8-18.29.89c-10,.49-11,2.21-12.25,11.95-.07.56,0,1.14,0,1.71-.32,3.68-.6,7.36-1,11-.36,3.25-1,6.47-1.27,9.72-.85,11.63-1.6,23.26-2.32,34.9A27.78,27.78,0,0,0,318.18,287.27Zm-92.48-182c.24-5.87.41-11.8.78-17.73a3.35,3.35,0,0,1,1.65-2.48,5.69,5.69,0,0,1,5.08.06c0,.45.05.67,0,.71-1,.6-2,1.18-3.28,1.91.81.3,1.44.59,2.09.77,4.92,1.36,9.87,0,14.8,0,2.52,0,4.49.14,5.74,2,1.55-.9,2.78-2.21,4.06-2.27,5.45-.24,10.91-.1,16.72-.1l-1.72,18.36c-5.2,1-10.45.61-15.52,2,.5,1.46,1.18,2.49,1.13,3.49-.23,4.8-.45,9.62-1.05,14.38-.85,6.78-.55,13.56-.45,20.35,0,.5.48,1,.73,1.47,2.93,0,5.76.14,8.57,0,4.11-.24,8.19-.84,12.3-1s8.53,0,12.78-.21c2.37-.1,3.4-1.23,3.42-3.46,0-3-.16-6-.18-8.93,0-4.93,0-9.86,0-14.44l2.7-1.28c-1.82-3.88-6.41-5.92-5.67-10.92-5-1.66-10.21-1.44-15.83-1.18l1.73-18.62c6.25-1.42,12.06-.5,17.85-.44,8.09.08,16.18.19,24.27.14a18.65,18.65,0,0,0,4.35-.92l-.6-10.36c-3.51-.45-5.36.28-5.29,2.1h3L319,84.93c-7.45,2.36-24.71-.31-41.72.41-.21,0-.43-.32-.76-.59l.37-3.63c1.74,0,3.26,0,4.79,0,6.81-.07,13.62-.1,20.42-.25,2.69-.06,5.38-.37,8.07-.62,1.17-.11,2.34-.33,1.82-2.41-.72,0-1.51,0-2.29,0-8.08.47-16.16,1-24.24,1.4-3.25.14-6.51-.22-9.77-.31-2.54-.07-5.09-.1-7.63-.13-1.4,0-2.81-.08-4.21,0-2.37.18-4.8.94-7.07.59s-4.4-.53-6.44.79c-.23.15-.77-.18-1-.25l-.48-3.43c-3.33,5.5-7.77,6.2-13.08,4.55-.48-.15-1.09.19-1.65.27l-14.3,2c-1.86,6.57.3,13.81-1.85,20.86-2.68.38-5.63.34-8.21,1.29s-5.9-.75-8.21,2C205.3,109.3,220.44,107.89,225.7,105.31ZM515,338.51c0,2.46.41,4.37,2.28,5.58a39.57,39.57,0,0,0,6.55,3.91c2.42,1,2.94,2.39,3.1,4.82.42,6.51,1,13,2,19.47a55.19,55.19,0,0,1,0,15.56c-.56,4.43-.89,9,1.33,13.74,2-2.56,4.23-1.76,6.07-.69,1.35.78,2.21,1.41,3.73.5.61-.37,1.65,0,2.5,0,5.93-.27,11.89-.34,17.79-.93a59.34,59.34,0,0,0,10.72-2.37c2.31-.68,4.12-.4,6,2a15.52,15.52,0,0,0,1.25-3.35c.31-3.47-.17-7.14,2.94-9.67,1.64-1.23,4.17,1.2,6.08-1.9l-6-.7c0-2.81-.32-5.5.06-8.08,1.27-8.7,2.91-17.34,4.14-26a4.89,4.89,0,0,1,3.27-4.42c2.5-1,5-2,7.43-3.17,2-1,3.94-2.38,4.15-5.16-2.23,1.12-4,2.79-6.13,4a78.59,78.59,0,0,1-7.9,3.33l1.31-8.13c3.35-2.83,6.86,1.53,10.65-1.83l-10.13-2c-.11-.31-.21-.45-.19-.57.23-1.39.49-2.78.73-4.17.52-3.08-.57-5-3.66-5.56a34.86,34.86,0,0,0-7.62-.43c-8.51.38-17,.89-25.51,1.43-2.68.17-5.35.53-8,.86s-5.65,1.27-8.4,1c-5.06-.45-8.62,2.65-12.33,3.79l1.25,6.9Zm-469.13,110c-.18,4.41,1.08,6.17,4.49,7.08,7.77,2.07,15.38.33,21.79-3.4,9.76-5.68,19.21-12.18,26.11-21.55a4.52,4.52,0,0,1,1.57-1.41c4.35-2.08,8.8-4,13.09-6.18,2.73-1.41,5.75-2.79,7.75-5,4.86-5.34,9.23-11.13,13.74-16.78A39.92,39.92,0,0,0,138,396c1.22-2.16.82-3-1.31-4.56a40,40,0,0,1-5.29-4.13c-2-2.06-4.11-2.4-6.92-2-5.4.79-10.2,2.89-15,5.36-2.92,1.52-5.88,2.85-7.7,5.82a5.39,5.39,0,0,1-1.9,1.64,28.79,28.79,0,0,0-9,7.55,23.74,23.74,0,0,1-10.63,7.91,65,65,0,0,0-12.77,7.55c-6.28,4.46-11.34,10.29-16.52,15.95C48,440.45,45.73,444.22,45.86,448.49ZM594.7,213.37c-.9-1.39-1.85-2.24-2-3.19a33,33,0,0,1-.19-6.65c.46-6.27-1.84-11.67-5-16.82-1-1.57-1.89-3.17-2.89-4.73-1.91-3-4.3-5.18-8.07-5.6a24.36,24.36,0,0,1-4.73-1.54l1-3.53a9,9,0,0,1-6.5-2,4.51,4.51,0,0,0-2.74-.76c-5.3.13-10.6.43-15.9.54a12.63,12.63,0,0,1-3.34-1c-2.82,3.06-5.87,6.26-9.88,8.28-.12.06-.2.2-.31.29-7.95,6.69-13.35,14.93-15.57,25.17-.63,2.89-1.4,5.75-2.1,8.63l-.67-.53c-.81.67-2.17,1.24-2.32,2-.29,1.53,1,2.14,2.45,2.19s2.75.21,4.51.35c.41,4.54.82,8.75,1.16,13,.74,9.34,1.41,18.69,2.16,28a52.06,52.06,0,0,0,1,7.58c.8,3.44,2.43,6.69,2.08,10.37,0,.39.52.84,1.12,1.73l1.7-3.52c2.42.16,4.52.48,6.6.4q11.27-.43,22.52-1.12a9.41,9.41,0,0,1,5.63,1.39c3.9,2.28,6.3,1.08,7.49-3.24q3.34-12.09,6.89-24.12c2.5-8.42,5.21-16.77,7.68-25.19.92-3.14,2.33-5.43,5.93-5.65A9.89,9.89,0,0,0,594.7,213.37Zm287.78-7.83c3.25-1.12,3.24-1.12,3.41-4.57,0-.7.28-1.4.32-2.1.28-6.59,1.67-13.39-3.5-19-.54-.59-.64-1.58-1.06-2.31-1.65-2.81-3.19-5.7-5.06-8.35a16.17,16.17,0,0,0-13.06-6.94c-2.26-.12-4.51-.57-6.77-.64-7.11-.23-14.09.16-20.88,2.89-4,1.63-7.13,4.56-10.83,6.53a26.82,26.82,0,0,0-8.92,8.34c-7.1,9.76-7.19,20.74-4.76,31.77,3.74,2,7,.47,10.57-.3,4.28,14.82,10.49,28.88,11.73,44,.64.4.87.64,1.12.68a8.49,8.49,0,0,0,2.11.18c10.6-1,21.16-2.77,31.87-1.91a3.77,3.77,0,0,0,.85-.11c3.08-.47,6.21-2,9.53,1.32,2.47-14.91,4.93-29,5.63-43.25,0-.56-.63-1.15-.69-1.26l-15.17,3.67c-1.48-4.62-.45-8.92,1-13.69l13.28,9C885.78,207.21,882.2,206.93,882.48,205.54ZM731,515.39a28.69,28.69,0,0,1,4.76-.29c2.39.26,4.74.85,7.11,1.27a35.25,35.25,0,0,0,13.09,0c6.24-1.22,12.49-2.53,18.95-2,6,.46,11.51-1.52,16.88-3.73,2.69-1.11,5.05-3.06,7.49-4.72.43-.29.52-1.07,1.16-2.48l-7,2.4a227.82,227.82,0,0,1,2.92-32.11c-2.23-1.28-4.27-3.09-6.61-3.67-10.52-2.61-21.13-4.12-32-1.93-5.83,1.18-11.84,1.57-17.62,2.92-7.12,1.65-12.09,4.74-11.3,13,.53,5.6-.37,11.34-.67,17-.11,2.08-.31,4.16-.5,6.64l-3.54-1.56C723.62,511.74,729.4,512,731,515.39ZM41.69,100.19c4.2,1.83,7,7.28,12.47,4,.75-5.34,1.44-10.55,2.24-15.74.23-1.47.06-3.39,2-3.89,2.43-.64,4.86-1.53,7.48-.33a8,8,0,0,0,4.13.68c5.65-.7,11.27-1.63,17.13-2.5-1.53-2.34-1.93-2.78-3.79-2.06C80,81.67,76.45,81.69,73,82.22a14,14,0,0,1-6.64-.14c-1.42-.45-3.06-.17-4.6-.25A17,17,0,0,1,58,81.51c-3.49-1-6.54-.89-9.07,2.23-3.2,4-6.61,7.75-9.83,11.69a4.11,4.11,0,0,0-.53,2.35q-.3,12.33-.51,24.66c-.13,7.17-1,14.38,1.06,21.7,2.69.84,5.5.47,8.28-.08,3.9-.76,7.77-1.76,11.69-2.41,3.48-.58,7.25-1.76,10.48-1,4.19,1,8.11.07,12.12.13s4.84-1.12,5.09-5.32c.27-4.53.73-9.05,1-13.58.21-3,.33-6,.45-8.94.25-6.24.52-12.47.66-18.71.06-2.68-.11-5.38-.32-8.06-.13-1.68-1.14-2-2.57-1.42.72,13.88-.76,49.81-2.14,53.71-6.94,0-13.88-.53-20.7.15s-13.49,2.55-20.11,3.88a12.38,12.38,0,0,1-2.6-8.6c.24-7.82.26-15.64.48-23.45C41.09,107.1,41.44,103.77,41.69,100.19ZM586.07,443.26a14.59,14.59,0,0,0,.66-3.5c-.13-1.67-.82-3.31-.89-5a31.35,31.35,0,0,0-4.11-14.83c-1.66-2.8-4.16-5.77-7-7.05a16.82,16.82,0,0,0-16.65,1.47c-8.46,5.6-14.53,13.13-16.4,23.35-.67,3.63-2.1,5.61-5.91,5.67a3.55,3.55,0,0,0-3.76,2.46l7.54-1.31a7.93,7.93,0,0,1,.52,1.81c.05,4.39,0,8.78.07,13.17,0,2.19,1.55,3.66,3.42,3.32s5.07-3.76,5.21-5.73c.06-.81.05-2-.43-2.41a21.28,21.28,0,0,0-3.84-2.23c.33-2.07.84-4.28,1-6.51a3.15,3.15,0,0,1,3.23-3.25c3.53-.25,7.13-.73,10.62-.37,6.46.67,12.89,1.77,19.29,2.92,3.27.59,6.43.92,9.65-.14a17.43,17.43,0,0,1,3-.33c0,3,.23,5.73,0,8.38-1.09,10.57-2.35,21.13-3.51,31.7q-1.08,9.72-2,19.45a10.62,10.62,0,0,0,.62,2.71c.75-.89,1.33-1.26,1.37-1.67,1.93-20.72,6.38-41.23,5.57-62.77ZM487.52,64.18c-.5,5.72-.88,11.06-1.47,16.38-.34,3,.6,4,3.7,3.54,3.78-.53,7.62-.69,11.39-1.3a56.64,56.64,0,0,0,8.61-2.22c.57-.19.76-1.55,1.12-2.38a5.86,5.86,0,0,0-2.14-.76c-1.55.11-3.07.57-4.61.8-3.72.54-7.41,1.51-11.33,1,0-3.1-.32-6,.09-8.72s-.29-5.46,1.91-8c1.42-1.61-.14-4.74-2.4-5.58-1.38-.52-3.17-1-4.46-.55-5.25,1.81-11.19,1.53-15.9,5.23,0,.36,0,.78,0,1.2-.09,3.33-.09,3.52,2.93,3.87a19,19,0,0,0,5.88-.26A55.88,55.88,0,0,0,487.52,64.18ZM741.15,268.11a58.38,58.38,0,0,0,1.79-11.43q.52-15.94.78-31.88c0-2,.26-3.57,1.61-4-.23-5.93-6.1-7.88-8-12.45,1.71-2,5-.08,6.29-3.14a8.28,8.28,0,0,0-2.33-.22c-4.38,1-8.48-.21-12.46-1.67a43.52,43.52,0,0,0-17.57-2.41c-9.08.5-18.15,1.11-27.22,1.75a32.47,32.47,0,0,0-4.43.92,7,7,0,0,0,4.32,1.18c8.8-.48,17.59-1.1,26.39-1.58,7.88-.43,15.53.56,22.73,4-1,4.85-4.95,8.86-3.3,14.63l11.88-1.36c0,1.85.07,3.36,0,4.88-.38,7.22-.88,14.43-1.2,21.65-.27,6.36.49,12.78-1.49,19C738.55,267.25,739,268.19,741.15,268.11ZM23.22,31c-.55-1.06-1.17-1.68-1.11-2.24a34.78,34.78,0,0,1,1.12-7.11c1.87-5.79,4.09-11.46,6-17.23A20.94,20.94,0,0,0,29.75,0C26.41-.22,26,1.82,25.39,3.7c-1.36,4.43-2.7,8.86-4.16,13.64-3.06-1.72-4.82.66-6.55,2.15C11,22.66,8.8,26.77,9.41,31.82a4.58,4.58,0,0,0,2,3c1.32.78,2.27-.4,3.11-1.48,1.34-1.72,2.82-3.35,4.37-5.17a8.84,8.84,0,0,1,.78,1.51c1,4.27,3,4.93,6.39,2,1.24-1,2.35-2.25,3.78-3.63.36,1,.4,1.86.83,2.27.75.7,1.85,1.7,2.6,1.55,1.5-.3,1.15-1.7.66-2.79-1.54-3.46-.17-6.3,1.78-9.09a30.26,30.26,0,0,0,3-5.11,2.7,2.7,0,0,0-.61-2.54,2.59,2.59,0,0,0-2.52.52c-1.43,2.09-3.17,4.26-3.66,6.64C30.85,24.82,26.62,27.24,23.22,31ZM533.66,511.47l.25.75a37.18,37.18,0,0,0,5.41,0,152.61,152.61,0,0,1,25.84-1.57c6.25.14,12.51.26,18.76.07a47.1,47.1,0,0,0,8.8-1.48,12.49,12.49,0,0,0,3-1.67c-1-.87-2-1.24-2.52-.94-3.43,1.83-7.13,1.65-10.81,1.72-11.36.23-22.72.4-34.07.67-2.93.07-5.85.43-8.83.66-.72-2.41-1.3-4.58-2-6.71-3-8.87-2.89-18.18-3.85-27.33-.85-8.18-1.8-16.35-2.77-24.51-.12-1.05-.43-2.27-2.56-2.09.34,2.41.77,4.74,1,7.09.92,10.17,1.73,20.36,2.69,30.52.32,3.37.84,6.74,1.47,10.06.82,4.29,1.85,8.53,2.81,12.85ZM736.19,273.29c-1.67-1.55-3.8-1.57-5.88-1.65q-9.36-.37-18.72-.66c-2.27-.07-4.55-.09-6.83,0-4.68.13-9.35.43-14,.48a34,34,0,0,1-5.11-.66c-3.32-10.23-4-21.83-4.67-31.85s-1.49-19.81-2.22-29.71c-.09-1.23-.29-2.28-2.43-2.16q1.15,16.63,2.31,33.21c.79,11.13,1.41,22.28,4.95,32.87,2.45.11,4.56.28,6.67.29,11.52,0,23,0,34.55.12a56.43,56.43,0,0,1,8.78,1.16C734.82,274.9,735.76,275,736.19,273.29ZM148.86,238.67a19.68,19.68,0,0,0-2.58,7c-.59,4.06-1,8.24-2.41,12.05-1.55,4.26-1.3,8.77-2.67,13-.12.38.73,1.08,1.61,2.31,1.08-3.94,2.22-7,2.71-10.18.78-5.08,4.53-6.83,8.67-9.27-.31,4.78-3.36,8.45-2.05,12.86,3.35-.42,3.32-3.38,4.86-4.83,3.59,2,3.59,2,7.21-1.79,3.81,2.52,4.35,2.34,6.22-2.47l-3.32,1.35c.19-5.17,2.8-8.84,5.65-12.51a4.59,4.59,0,0,0-2.47.54c-2.88,1.94-4.17,4.94-5,8.14-.71,2.79-2.49,4.46-4.94,6-1.55-3.7,1.61-6.44,1.16-9.7-2.41,1-2.34,1-2.82,2.23-.93,2.42-1.94,4.81-2.92,7.21l-.81-.33c.3-3.56,2.19-6.61,4.11-10.18-4.88.23-7.46,4.1-11.73,5.5.51-3.19,1-5.94,1.38-8.71S150.86,241.61,148.86,238.67ZM201.17,8.87c-2.24-.87-2.87.67-3.54,1.81-1.14,2-2.07,4-3.14,6-2.32,4.32-4.66,8.63-7.36,13.61-1.85-5.16-.11-10-2.21-15-4.56,4.37-5.11,10.7-9.79,15.33-.06-5.22,1.87-9.62.25-14-.48.27-.91.38-.93.54-.7,5.74-1.45,11.48-2,17.24-.11,1.25,1,1.93,2.72,1.47l7.62-13.62.9.22c.07,1.5.17,3,.2,4.49.05,2.13,0,4.27.15,6.39a2.58,2.58,0,0,0,1.33,1.91c.57.18,1.5-.44,2.13-.89a4.26,4.26,0,0,0,.89-1.43q6.33-11.29,12.62-22.6A4.29,4.29,0,0,0,201.17,8.87ZM182.11,232.7c-1.29.61-2.06.73-2.19,1.08-3.29,9.11-4.46,18.66-5.56,28.21-.06.51.63,1.1.78,1.34l9.5-6.54c.64,1.68,1.12,3.51,3.34,3.23s3-2.05,4.29-4.31l-4.33,2.38c-1.5-2.4-.93-4.22.62-6,1.29-1.5,2.47-3.1,3.62-4.71.79-1.1,1.29-2.39,0-3.44s-2.47-.25-3.34.73a13.18,13.18,0,0,0-2.09,3.15,31.61,31.61,0,0,0-1.56,4.4c-1,3.45-3.34,5.25-7,5.87-.8-5.5,3.41-8.79,4.77-13.28l-3.74,2.47ZM111,24.33c-.16-.56-.45-1-.36-1.34,1-3.53,1.93-7.09,3.14-10.55a5.13,5.13,0,0,1,2.33-2.28A59.44,59.44,0,0,1,122.64,7,30.92,30.92,0,0,1,127,5.85l-.39,2.59,4.53-4.28c-2.28-.36-3.59-.89-4.78-.71-6.55,1-12.05,4.52-17.76,7.54-.09,0-.08.26-.19.7l1.95,1.24c-2.07,7.68-4.16,15.27-6.13,22.89a9.79,9.79,0,0,0,.29,3.1c3-.95,3.23-3.28,3.35-5,.32-4.61,2.43-7.17,7-8.22,2.45-.57,4.7-2,7-3l-.3-.92C117.77,20.83,114.58,23.37,111,24.33Zm97.24,227a8.32,8.32,0,0,1-1.2-9c1.25-3,2.69-6,3.8-9,.71-2,2.33-4,.34-6.76-4.92,3.85-4.79,9.82-7.45,14.76-3.65.44-5.73,3.15-7.1,6.62-.57,1.44-.83,3.1-1.71,4.32-1.71,2.37-.61,4.07.63,5.94,4.2-1.86,5.67-4.1,4.87-7.47l-2.84,3.37a17.57,17.57,0,0,1,4.6-10.34c.95,2.57,1.42,4.93,2.6,6.86,2.73,4.46,5.72,4.08,8.23-1ZM440.46,56.26l-.82-.83-2.44,1.88c-1.33,1-2.75,3-4,2.9-3.45-.34-4.82,2.12-6.53,4a59.26,59.26,0,0,0-4.55,6.37c3.41,2,3.31,1.81,5.65.79,2.88-1.27,5.06-3.35,7.54-5.13C439,63.58,440.23,60.3,440.46,56.26Zm-278,216.64c-2.85-1.89-3.87-2-4.91.28-1.72,3.82-4,7.94-3.9,11.87a49.58,49.58,0,0,1-1,10.75c-.14.74.43,1.62.93,3.28.86-1.53,1.45-2.18,1.58-2.9.47-2.64.69-5.33,1.19-8,.22-1.2.54-2.84,1.38-3.37,2.58-1.61,5.44-2.77,8.75-4.38-.1,2.09-.14,3.62-.25,5.15a18.33,18.33,0,0,0-.35,3.37c.07.63.91,1.17,1.4,1.74.49-.42,1.16-.75,1.43-1.28a6.33,6.33,0,0,0,.37-2.08c.36-2.93.74-5.86,1-8.8a12.35,12.35,0,0,0-.27-2.4c-3.83,3.5-8,5-13,6.25C158,278.23,157.1,273.83,162.48,272.9ZM226,2.34c-1.41.37-1.84.35-1.92.51a125,125,0,0,0-9.74,27.5,6,6,0,0,0-.19,2.52,2.81,2.81,0,0,0,1.26,1.91c.46.16,1.47-.55,1.88-1.13a44.53,44.53,0,0,0,2.59-4.33c.11-.19,0-.52-.05-.79l-2.24.2Zm200.62,418.5c-1.94,1.66-4.65,2.93-5.48,5-.94,2.3-.53,5.35-.1,8a4.7,4.7,0,0,0,4.73,4.34L423.52,435c4.17,1,6.15.11,7.68-3.2C433.18,427.54,431.85,424,426.64,420.85ZM374,201.7c1.84,2.37,2.29,2.61,4.05,1.31s3.25-2.86,5-4.44l.25,5.76a14.78,14.78,0,0,0,5.62-5.79l-3.31,1a66,66,0,0,0,2.24-6.89c.45-2.14,2.88-3.78,1.54-7.37-1.41,2.3-2.32,4-3.43,5.5-.8,1.11-1.76,2.8-2.82,2.93C378.15,194.4,376.37,198.32,374,201.7ZM135.27,266c-2,2.11-3.62,3.61-5,5.3a12.73,12.73,0,0,0-2.23,3.92c-.14.42,1,1.41,1.74,1.88.2.13,1.49-.73,1.47-1.06-.28-3.26,2.46-4.62,4.08-6.63,1.16-1.44,2.49-2.66,2.33-5.32-1.92-.09-3.83-.11-5.72-.28-.91-.08-2.46-.28-2.55-.69a3.75,3.75,0,0,1,.55-3c2.59-2.6,5.41-5,8.16-7.4.67-.6,1.39-1.14,2.09-1.71a5.2,5.2,0,0,0-4.16.52,76.86,76.86,0,0,0-7.4,6.35,8.38,8.38,0,0,0-1.74,3.37c-.83,2.5.23,4.14,2.89,4.5C131.28,265.87,132.81,265.84,135.27,266ZM456.89,72.62c4-4.25,8.09-8.52,12-12.92.6-.66.53-1.93.77-2.91l-.78-.6a24.83,24.83,0,0,0-2.75,1.4c-2.05,1.37-3.91,3.1-6.09,4.2-3.6,1.82-5.48,4.81-7.13,8.2,1.22,1,2.08,1.72,3,2.4C456.13,72.55,456.46,72.53,456.89,72.62ZM234.42.9c-.64.17-.84.17-.89.25-5.09,8.79-7.24,18.56-9.32,28.34a7,7,0,0,0,.14,2.95,20.12,20.12,0,0,0,1.58,3.26,18.51,18.51,0,0,0,1.22-3.43A86.49,86.49,0,0,1,233.75,7C234.56,5.08,235.45,3.21,234.42.9ZM153.09,18.57c-1.17.47-2.31.58-2.83,1.2a40.13,40.13,0,0,0-3.87,5.52c-1.12,1.91-2,4-2.82,5.8a23.23,23.23,0,0,0,.68,3.67c.34,1,.91,2.39,1.66,2.59a4.79,4.79,0,0,0,3.45-.72A19.32,19.32,0,0,0,153,33.19c.37-.42.34-1.2.65-2.44l-5.85,4c-.36-.58-.49-.7-.5-.82-.2-3.05,1.22-5.35,3.18-7.58C152.19,24.39,154.46,22.47,153.09,18.57Zm48.48,12.29c-.14-3.23,1.1-4.93,2.69-6.7a34.23,34.23,0,0,0,4.31-6.61c.32-.6-.31-1.71-.5-2.58-.85.3-1.93.36-2.5.93a24.9,24.9,0,0,0-5.86,10.19,30.21,30.21,0,0,0-1.36,5.74c-.21,1.77,1,2.6,2.7,2.1,2-.61,5.25-4,6.23-6.69Zm2.75,235.59c-1.11-.1-1.79-.37-2.06-.14a33.36,33.36,0,0,0-4.69,4.23c-.7.84-1.3,2.64-.87,3.33.61,1,2.16,1.57,3.42,1.86a37.55,37.55,0,0,0,5.73.37c-1.54,2.05-2.39,3.28-3.34,4.43A25.46,25.46,0,0,0,200,283.4c-.36.61-.07,1.61-.07,2.44l.84.34c2-2.27,4.34-4.35,6-6.85,2.06-3,.92-5.08-2.72-5.57-1.61-.22-3.24-.3-5.68-.52ZM140.68,14.14l-1-.5c-.53.52-1.29.94-1.56,1.57-1.85,4.28-4.56,22.1-3.83,24.83,2.54.42,2.7-1.56,2.95-3.16.91-5.85,1.67-11.72,2.53-17.58C140,17.57,140.36,15.86,140.68,14.14ZM7.25,15.85C6,16.36,4.8,16.47,4.55,17A43.85,43.85,0,0,0,0,34.5c-.06,2.09,1.13,2.62,2.94,2.26ZM389.71,204.45c4-3.51,6.12-8.17,11.34-8.47.08,2.28-2.43,4-.78,6.19,4.75-2.82,5.57-4.82,3.84-8.79l-9.58,2.8.84-4.41C391.42,195.38,389.95,199.09,389.71,204.45Zm-204.81,79A4.49,4.49,0,0,1,186,278a29.46,29.46,0,0,0,3.67-4.56c.73-1.09,1-2.71-.43-3.27-1-.37-2.92-.07-3.42.64-2.78,4-4.79,8.32-3.92,13.39.29,1.68,1.43,2.51,3.1,1.78a6.83,6.83,0,0,0,4.41-5.33ZM423.41,181.65c-4.88,3.86-11.34,16.15-10.24,20.71.27,0,.75.17.79.09,3-6,5.9-12,8.78-18.08A13.5,13.5,0,0,0,423.41,181.65Zm156.2,303,0-.93c-8.33-4.41-17.25-1.35-25.9-1.81a14.91,14.91,0,0,0-3.74.77c.63,1,1.13,1.19,1.62,1.17,5.12-.17,10.23-.46,15.35-.56,3.68-.07,7.41-.23,10.86,1.55C578.29,485.08,579,484.74,579.62,484.67ZM176,265.91c-1.84,6.27-1.87,12.69-2.28,19.06-.08,1.28,1.08,1.91,2.51,1,.19-3.31.35-6.65.59-10S177.92,269.22,176,265.91ZM129.57,18.8c-1.15,2-2.13,3-2.44,4.29-1,4-1.76,8-2.5,12-.12.67.38,1.45.59,2.19.69-.33,1.73-.49,2-1a21.28,21.28,0,0,0,1.67-4.78c.75-3.44,1.36-6.9,1.94-10.37C130.89,20.67,130.35,20.17,129.57,18.8Zm280.61,177,5.51-11.91c-3.63,2-7.14,8.37-8.47,14.21-.27,1.18-.8,2.49,1.09,3.53l4.62-5.62ZM549.27,471c2.91,1.51,5.56.42,8.07.38,2.67,0,5.34-.56,8-.77s5.37-.41,8.06-.39c5.32,0,5.32.1,7.27-1.16C573.22,468,554.56,469.1,549.27,471Zm2.54,23.49c2.38.54,4.52-.54,6.78-1a29.12,29.12,0,0,1,7.15-.68,41,41,0,0,1,6.76,1.51C565.58,488.74,558.68,491.85,551.81,494.51Zm4.94-36.3c14.11,1.57,18.06,1.3,22-1.7C571.62,460.06,564,455.94,556.75,458.21ZM79.32,26.08c-2.95-2-2.95-2-5.31.63C75.87,28.58,77.36,27.54,79.32,26.08ZM13.73,5C12.34,2.85,11.1,1.94,8.94,1.9,9.57,4.54,11.43,4.4,13.73,5ZM407.36,180l.21-1c-.93-.8-1.87-1.69-3.31.35Zm34.37,18.4-.54-1.36c-.7.36-1.4.72-2.07,1.12,0,0,.22.67.3.66C440.19,198.69,441,198.52,441.73,198.37Zm-223.26,79c-.46.66-1,1.1-.93,1.43s.65,1,1,1a1.42,1.42,0,0,0,1-1C219.61,278.46,219,278,218.47,277.37ZM79.81,15.7c-.39,1-.78,1.55-.67,1.92s.71.6,1.1.88c.22-.35.64-.72.61-1S80.38,16.63,79.81,15.7ZM426.28,198.76c-.76-.5-1.18-1-1.55-1s-.67.65-.77,1.07c0,.18.53.72.8.71S425.54,199.18,426.28,198.76Zm6.33.39c-.58-.43-1-.92-1.17-.84a2.37,2.37,0,0,0-.95,1.06c-.05.12.58.79.78.74A5,5,0,0,0,432.6,199.15Z" fill="#fff" opacity="0.3"/><path d="M696.93,324.84l-.71,2.33c4-.14,7.71-.46,10.33-2.56,2.63,0,4.65.09,6.66,0,5.5-.28,10.9-.82,16-3.36,4-2,5.48-.76,5.76,3.91a4.16,4.16,0,0,0,.37,1c7.94-.34,16-.15,24.56-.57-1.86,3,1.54,6.46-1.76,8.86-1.79.25-1.4-3-3.69-2a5.71,5.71,0,0,0-3.79,4.71c-.58,4.22-1.15,8.44-1.77,12.65-.18,1.25-.57,2.47-.78,3.72q-1.66,9.63-3.26,19.28c-.05.32.26.69.48,1.22,2.11-.6,1.86-4.58,5.28-3.39a31.76,31.76,0,0,1-2.58,3.5,12.86,12.86,0,0,0-3.63,10.49c.22,3.07,0,6.17,0,9.4-5.26,1-10.57-2.5-15.23,1.93-1.08-2.76-3.19-2.66-5.34-2.65-9.36,0-18.72,0-28.09,0-2.23,0-4.47.39-6.6.6-3.38-5.73-.84-12-2.49-18-1.09.37-2.16.64-3.16,1.08-3.74,1.63-7.58,1.2-11.31.25-3.44-.88-5.57-3.69-5.24-6.88.65-6.19,1.07-12.47,4.41-18,.37-.61.67-1.26,1.09-1.83,3.16-4.35,6.34-8.69,9.67-13.25-3-2.2-2.26-5.15-2-7.91,2.84-2.74,8,0,9.91-4.92C692.09,326.62,694.33,325.17,696.93,324.84Zm8.66,16.26c1.77-2.83,4.54-5.07,5-8.73-5,3.13-6.76,8.83-10.31,13.09-.59.71-.75,1.78-1.38,3.37a10.14,10.14,0,0,0,5.48-6.07c-.85,1.28-1.41,2.56,0,4.18a20.48,20.48,0,0,0,2.39-3C707.42,342.7,707.31,341.48,705.58,341.1Zm36.93,18.41h0c1.74,1.69-.44,2.86-.57,4.31a1.9,1.9,0,0,0-1.94,2.57c1,2.18-.25,3.86-1.26,5-3.15,3.5-2.79,8.33-5.08,12.1-.23.38,0,1,0,1.72,3.29-1,3.37-3.94,4.11-6.17,1.16-3.47,2.07-7,4.79-8.75l-.37-6.23c3.7-1.76,1.9-5.59,3-8.33.32-.79-.7-2.12-1.06-3.08l2.57-5.93-.81-.45c-2.08,2-4.18,4.07-6.23,6.15a1.88,1.88,0,0,0-.32,1.21c0,6-3,10.67-6.89,14.93l.23-4.48-4.89,5.56c-1.65-.87-3-.7-4.12.83-1.7,2.23-3.55,4.34-5.52,6.73L715,374.54l-4.55,4.79,1.58.93-4.57,7.18c2.66-.31,3-3.39,5.6-2.87l-1.4,3.13a44,44,0,0,1,5.2-.62c3,0,3.24-.17,3.9-4l-3.26,2.1c2.31-4.93,4.73-9.55,8.61-13.42l.82,4.12,5.58-7.5c1.23,1.13,2.12.23,2.79-.63,1.64-2.09,3.1-4.32,4.76-6.39A12.47,12.47,0,0,1,742.51,359.51ZM736,352l.93-3.68L735.19,347a43.74,43.74,0,0,0,4.72-4,50.33,50.33,0,0,0,3.71-5.28l-.79-.68-4.89,4.61-2-3.09c-7.34,8.94-13.12,18.34-19.86,27.63l4.9-.63c2.48-4.6,4.34-9.7,10.44-10.59-3.19,4.35-6.65,8.45-10.14,12.53a2.18,2.18,0,0,1-1.06.43,7.52,7.52,0,0,0-5,6l4-4.16,1.6,2.75,12.41-15.46v1.71l.84.37c3.62-4,5-9.57,8.49-13.65l4.18-.79a11.62,11.62,0,0,0,.57-9.58c-2.4,3.58-4.43,6.6-6.45,9.63C739.16,347.16,737.57,349.6,736,352Zm-43.75,10.45,2.83-3.32-1.52,1.29-.91-3.39-2.58,1.1v3.92l2.29.29c-3,2.81-4.15,6.13-2.78,10.12.34,0,.67.1.87,0,5.69-3.25,11.35-6.53,17.05-9.76a3.57,3.57,0,0,1,2-.53c2.14.25,3.07-1,3.78-2.69A58.37,58.37,0,0,1,723,343.61c1.38-1.59,2.36-3.53,3.64-5.23a38.68,38.68,0,0,1,2.83-3.06l-2.11,5.1.59.34,3.5-3.71c-.22-.37-.26-.53-.37-.6-.55-.36-1.11-.7-1.67-1.05l3.19-8.08-4.87-1.14c-5.29,9.25-5.38,9.36-8.92,10.45,2.31-3.41,6.52-5.53,5.87-10.67-.87.57-1.9.91-1.91,1.29-.08,2.73-2.2,4.14-3.55,6.08-1.57,2.26-3.45,4.19-4,7.3-.44,2.5-2.77,4.66-4.41,7.19L709,345.3l-4.43,5.46,2.22.76a26.58,26.58,0,0,0-2.91,2.4C700.55,357.59,697.13,361,692.22,362.48Zm-4.72-25.37c-1.35-.87-2.53-1.32-3.36.29-3.18,6.15-6.55,12.21-9.36,18.52-1,2.31-.75,5.23-.94,7.88-.11,1.52.76,2.38,2.07,3.32,2.61,1.85,4.82.74,7.18-.19,4.13-1.64,4.28-1.83,4.3-6.18q.07-10.39.1-20.78C687.51,339,687.5,338,687.5,337.12ZM733,380.33c-3.3-1.91-4.12,3.06-8,2.8,5.12-4.21,9.25-8.13,10.7-13.94-2.14,2.23-4,4.7-5.92,7.06-.63.76-2,1.92-2.4,1.71-1.6-.82-2.31.3-2.72,1.16-1.22,2.6-2.17,5.33-3.23,8l.58.24,3.93-2.94-1.86,5.24c3.26-.51,5.72-1.23,7.43-3.54C729.34,383.63,729.7,382.35,733,380.33Zm-22.6-6.12c-5.52,3.28-5.26,9.4-8.28,13.66l2.88,1.4c1.92-4.64,3.73-9,5.51-13.4C710.65,375.53,710.47,375.06,710.4,374.21Zm-13.12,9.5c5.05-4,10.09-8.06,11.75-14.74C703.91,372.9,700.82,378.49,697.29,383.71ZM715.4,391c-.85-.76-1.53-1.82-2-1.75-3,.44-6.05,1.15-10,2,5.59,1,14.77.74,17.89-.33l-2.58-1.9Zm-16.47-3.88-6.25,2.1-.6-4.38c-1.7,2.75-1.46,4.46-.15,6.47l7.5-.92Zm-7.18-52c-1.31.41-2.18.49-2.22.73-.48,2.64-1.3,5.3.16,8.06Zm-15,41.65c.67-2.76,1.19-4.72-.79-6.92l-1.81,3.92Zm27.7-44.26-3.53,5.65C705,337.34,705.1,337.22,704.46,332.48Zm8,4.7,5.1-5.8C714.54,331.77,712.31,332.85,712.45,337.18Zm20.64-11.36c-.47-1.63-.48-3-1-3.25-1.32-.6-2.63-.19-3.4,1.63ZM689.64,379.4l.89.08,1.69-4.55H689.1Zm49.19,1.69.81.55c1.66-1.59,3-3.3,2.11-6.75Zm-39.15-8-3,5C700.31,376.95,700.64,376.29,699.68,373.07Zm-14.32-43.92c-2.43,1-2.43,1-2.19,3.93C684.58,332.06,686.1,331.29,685.36,329.15Zm8.59,22.24,1.19.61,1.85-4.74-.57-.25Zm47.52,37.8-.74-.38-2.32,2.69,2.86.42Zm-53.24-21.41c-3.1.08-3.1.08-4,3.16Zm50-38.54.72,1,3.7-2.57C739.85,326.94,739.28,328.55,738.19,329.23Zm-50.93,43.09-1-.48-1.17,2.55.77.39Zm50.32-37.27-.5-.9-1.91,1.59.32.4Zm-40.93-.23-.79-.51c-.45,1-.91,2-1.33,2.94,0,0,.38.19.86.44Zm58.23-4.6.91.23.63-2.32-1-.25ZM672,371.38l.45.31c.36-.34.85-.62,1-1a5,5,0,0,0,.19-1.55L673,369Zm10.89-1.08c-.59-.4-.94-.82-1.19-.77a1.4,1.4,0,0,0-.87.79c-.07.2.44.87.53.84A9.06,9.06,0,0,0,682.9,370.3Z" opacity="0.3"/><path d="M637,143.17l3.56.32c.74-3.93,1.83-7.77,2.1-11.67.55-7.74.75-15.52.9-23.28,0-2.39,1.44-3.74,3.05-4.79a5.05,5.05,0,0,0,2.43-4.53c.31-5.09.94-10.15,1.47-15.22a23.22,23.22,0,0,1,.71-2.66c1.89,4,.68,7.19.65,10.28s-.56,6.43-.88,9.77c2.53.47,2.89-1,3-2.61.33-3.53.54-7.09,1-10.6.72-5.31,1.63-10.59,2.55-16.49l-8.72.46c1.8-1.55,1.8-1.55,7.52-2.54l-5.16-1.7.15-.83h12L662,63.95c2.7-.78,5.24,1.07,7.8-.18.41-.2,1.5,1.13,2.35,1.62,1.13.65,2.33,1.17,3.79,1.89l.33-3.12,5.45,3.08-1.57-3c2.46-1.31,3.08,1.19,4.7,2.33a3.23,3.23,0,0,1,4.41-1.12c3.86,1.67,8.09.79,12.18,1,8.06.35,16.12.8,24.18,1.26.5,0,1,.46,2,1-4.79,2.25-3.47,6.79-4.43,10.32a115.29,115.29,0,0,0-3,16.69,17.79,17.79,0,0,0,1.67,10c.34.68.68,1.83.35,2.3-3,4.35-2.31,9.58-3.61,14.32a33.43,33.43,0,0,0-1,14.73c.21,1.22-.8,2.61-1,4a10.57,10.57,0,0,0,.29,2.71c4.68-.24,5.08-4.43,7.13-6.92,1.28,2,1,2.95-.8,5.2-3.2,4-7.79,5-12.41,5.75a226.79,226.79,0,0,1-50.5,2.42c-4.5-.26-9-1.33-13.41-2.16-2-.38-3.85-.67-5,1.44Zm14.31-3.59a31.66,31.66,0,0,0,16,3.9c12.48-.18,25-.59,37.44-1.06A27.83,27.83,0,0,0,711,141c2.23-.62,3.09-2.12,3-4.49a60.68,60.68,0,0,1,.24-7.62c.33-4.36.78-8.71,1.13-13.08,0-.44-.29-.91-.74-2.24l-2.1,5.53L712,119v-4.74c-9.56,1.75-19,1.09-28.48.67s-18.86-1.46-28.47-2.25Zm31-67.78c-3.76-1.58-3.08,3.55-6,3.16l.75-3.57c-3.87-.81-3.65,4.22-6.95,4.2l1.67-4.23c-3.17,1.15-4.54,5.85-8.75,2.75l.79-3.06-4.66.58c-.21,9.92-2.82,19.26-3,28.87L684.7,96.9l2.22-26.29a18.39,18.39,0,0,0-2.59,2c-.61.74-.94,1.71-1.58,2.41-.24.27-1,0-1.86,0ZM713,96.58l4.2-22.68c-.56-.46-.77-.78-1-.8-7.19-.49-14.39-.92-21.59-1.42-2.23-.15-3,.93-3.1,3-.11,2.38-.4,4.75-.65,7.12-.52,4.88-1.06,9.76-1.6,14.77Zm-65.92,42.37c2.34-.11,2.54-1.62,2.75-3.26.69-5.48,1.46-11,2.19-16.44.22-1.68.48-3.37.57-5.07.12-2-1-2.31-3-1.85-.39,4.18-.77,8.25-1.16,12.32-.37,3.87.55,7.94-1.24,11.6l-.93-.09.61-13.19a73,73,0,0,0-2.25,12.54,54.55,54.55,0,0,0-.11,7.53c.09,2.18,1.52,3.16,3.59,3.51a156.66,156.66,0,0,0,30.9,1.95c9.77-.31,19.52-1.52,29.27-2.4a25.29,25.29,0,0,0,4.14-.87c1.91-.5,2-1.64,1.13-3.09a36.12,36.12,0,0,1-5.48,1.29c-9.05.69-18.11,1.37-27.18,1.78a139.08,139.08,0,0,1-16.59-.14C658.26,144.62,652.34,143.22,647.13,138.95Zm62.69-39.39c-2,2-4,1.35-6,1.08-4.71-.63-9.45-1-13.92-1.52-1.94,3.72-2.14,7.91-.9,13.21,5.82,1.36,17,1.24,23-.25.07-.12.2-.24.21-.36.43-3.73,2.3-7.79-2.34-10.41C709.65,101.2,709.82,100.42,709.82,99.56ZM686.43,112v-2.54l-2.51,1.37.72-11.45c-10,1.09-19.45,1.44-28.93,3.57l-.82,7Zm36.51-42.2-3.28-.45c-.69,4.38-1.28,8.44-2,12.49-.65,3.76-1.52,7.49-2.09,11.27-.2,1.35-1,3.21,1.22,3.92.26-.15.68-.25.72-.42C719.31,87.88,721.06,79.15,722.94,69.8Zm-6.79,0-.3-1c-6.17-1.14-20.7-.8-23,.53.2.17.38.48.59.49,6.35.39,12.69.83,19,1.07C713.71,71,714.94,70.2,716.16,69.81ZM686.74,93c1.69-3.85,3.56-18.16,2.61-21.67C687.34,79,688.07,86.13,686.74,93Zm-33.65,10.64c-2.88,1.48-3.85,3.34-3,5.35.66,1.58,1.67,1.65,3,.55Zm61.71,7.15c1.17-1.78,2.47-3.6.66-6.06A4.83,4.83,0,0,0,714.79,110.77Zm2.52-10.7-.66-.38a30.93,30.93,0,0,0-1.77,2.63,18.21,18.21,0,0,0,1.71,1.26Zm-70.16,9.49c1.57-1.27,1.73-2.34.55-3.71C646.32,107,645.88,108,647.14,109.56Zm28.61-41.23c-.12.29-.26.63-.37,1,0,0,.22.23.29.21.33-.12.65-.28,1-.43Z" opacity="0.3"/><path d="M70.89,277c8.43-12.42,16.19-21.74,21.76-25.93a14.3,14.3,0,0,1-.45,2.87c-.19.47-.83.75-1.24,1.14-3.37,3.21-3.32,3.15.92,5.69,2.06,1.24,3.9,2.82,6,4.34-1.44,1.6-3.07-.25-4.55.14-1.69,5.64-1.53,6,2.9,5.9L88.88,278l11.36,7.41c0,.64-1.41,1.32-.9,3,.38,1.26-.6,3.36-2.82,4.09-3.17,1-5.41,3.37-7.5,6-3.14,4-6.69,7.64-10.06,11.45-1.2,1.35-2.38,2.72-3.58,4.09-1.78-1.69-1.12-5-4.18-5.75-1.48,3.35,1.36,5.21,2.27,8-3.48-.12-4.94-5-8.71-2.49-1.43-4.09-4.83-5-7.92-6.22-5.14-2-10.42-3.72-15.51-5.85-2-.85-3.76-2.48-5.59-3.79a43.06,43.06,0,0,0-4.8-3.47,78.08,78.08,0,0,0-7.32-2.93c2.16-3.9,6.23-6.63,8.47-11.19l1.83,3.43,6.43-3.1L23.11,272c3.22-5,8.68-8.05,12.41-13.25l-8.79-5.09c4.91-4.66,9.42-8.85,13.83-13.14,2.44-2.37,4.74-4.88,7.08-7.35,3.29-3.47,6.43-4,10-1.06,4.38,3.64,9.47,5.59,14.71,7.41,2.54.88,4.91,2.25,7.45,3.14,4.25,1.51,8.58,2.78,12.86,4.23a15.76,15.76,0,0,1,3.81,1.74c.43.29.31,1.38.56,2.73-6.63-3.68-13.84-3.68-19.9-7.35C73.91,242,70,241.35,66.5,239.72a70.85,70.85,0,0,1-9.56-5.44c-3.82-2.59-4.52-2.61-7.89.72-5.54,5.48-11.17,10.88-16.75,16.32-.6.58-1.14,1.22-1.83,2,2.87,2.27,5.83,3.67,8.45,3.51,2.34,2,3.92,3.75,5.87,4.87a55.23,55.23,0,0,0,7.8,3.37c6.06,2.33,11.14,6.2,16.19,10.13C69.43,275.68,70,276.24,70.89,277Zm10.86,19.83c-3.3,1.51-.59,4.58-1.86,7.53l-3.17-4.65c-1.29,3.26,2.36,5.94.09,8.92A39.14,39.14,0,0,0,87,298.73l-.66-.86L83,299.66l-1.29-2.88c-1.77-3.55-.41-7,.38-10.35l7-3.29,2.2.72c-1.06-4.7-2.86-5.63-5.95-3-3.84,3.23-7.37,6.83-10.73,10l2,4.15L79,294l.67,3.21Zm-11.87-3.06c-.16.82-.19,1.87-1.45,1.51-3.82-1.07-8.12-.92-10.88-4.68-.52-.7-2.26-.76-3.41-.67s-2.18.79-1.41,2.33l1.68-.37c.24,3.55-.08,7.06,2.46,10.29,2-2.54.4-5.2,1.41-8.06.55,1.14.71,2.07,1.24,2.42A7.12,7.12,0,0,0,62,297c.25,2.66.52,5.32.73,8,.13,1.61.87,2.23,2.84,1.82-.19-1.87.17-4-.67-5.34-1.29-2.09,0-2.6,1.75-4.23,0,1.67.3,2.71.05,3.6-.38,1.34-.37,2.36,1,3.32l.35-4.72,3.36.25,1.85-4.79-3.51-1.09c0-4.25,0-8.51.14-12.76.05-2.26-.93-3.31-3.33-3.34l-.6,7.46-.92-.07a49.1,49.1,0,0,1,.1-7.7c.27-1.71.05-2.67-1.39-3.5-2.21-1.27-4.37-2.61-6.55-3.93h0l-18.76-9.09L37,264l-.37-3c-1.86,2.08-3.31,3.91-5,5.52s-3.54,3-5.24,4.37c3.12,3.77,7.29,4.33,11.41,6.12l1.31-12.94c1.73,4.73-2.1,9.58,1.58,14.26L42.34,267l.89.11c-.09,1.35-.13,2.71-.28,4.05-.21,1.82-.61,3.61-.73,5.43-.19,2.83.38,3.48,3.32,4.36a4.52,4.52,0,0,1,1.13.29c3.7,2.38,7.36,4.8,11.06,7.17,1,.66,2.54.88,3.17,1.78C63.18,293.4,66.3,294,69.88,293.73ZM86,261c-.87.53-1.3.66-1.52.95-3.71,4.8-7.45,9.58-11.08,14.44-3,4-2,8.36-1.71,12.92,3.07-1.19,3.89-3.06,4-5.77.14-2.32-.66-5,1.2-7.22,1.51,2.64-1.16,5.52,1.16,8.11,1.18-1,2.6-1.62,3.23-2.74s.49-2.68.68-4l3.21.81ZM37.08,295.18c2.2,4.81,10,8.17,16.21,7.63-.45-1.8-1.63-2.39-3.43-2.42-2.35-.05-4.48-.36-6.37-2.43C42.19,296.53,39.65,296.22,37.08,295.18Zm51.18-21.09c3.54-5.34,3.39-9.85-.52-12.37C88.08,265.84,86.47,269.63,88.27,274.09ZM48.13,285c-1.81-1.09-3.38-2.19-5.06-3-1.94-1-2.75.15-3.24,2.43C42.8,283.46,44.58,288.19,48.13,285Zm21.71,22.27c3.14-1.42,3.85-3.49,2.21-5.58a2.22,2.22,0,0,0-1.75-.82A2,2,0,0,0,69,302.24,45,45,0,0,0,69.83,307.23ZM94.4,289.11c1.2-.87,2.33-1.26,2.47-1.87.42-1.86-1.06-2.55-3-3.7Zm-46-1.39c-3.68,1-3.68,1-3.66,3.15C47.61,289.92,47.61,289.92,48.42,287.72ZM44.07,294l.48.93,4-.43L48,291.77Zm9.24-5.64c-1.06-1.43-2.23-2.56-4-1C49.95,290.25,51.86,288.44,53.31,288.31Zm33.94,1.17c-.62.86-1.3,1.4-1.23,1.81a1.86,1.86,0,0,0,1.29,1.19c.34.06,1.14-.71,1.15-1.13S87.85,290.36,87.25,289.48Zm-52.39,1.64-.91,0-.15,3.42H35Zm16,.44c-1.23,1.63-1.25,2.31,0,5.72Zm37,5.61c1.11-1.19,2-2.05.51-3.41C86.85,294.71,86.74,295.68,87.86,297.17Z" opacity="0.3"/><path d="M333.6,374.95c-2.74-2.53-5.44-4.79-7.87-7.33a20.27,20.27,0,0,1-5.93-14.15,4.34,4.34,0,0,1,.85-2.64c3.26-3.89,7.88-5.78,12.27-7.95a5.89,5.89,0,0,1,3.35-.19c5.71,1,11.42,2,17.1,3.13,2.49.51,4.88,1.46,7.34,2.13,1.56.43,3.16.73,5.08,1.16l1.74,2.83L340,373a16.08,16.08,0,0,0,8.23,4.4,64.55,64.55,0,0,0,15.48.55,4.51,4.51,0,0,0,3.73-2c2.91-3.68,4.57-4.12,7.93-2.68,4.27,1.83,5.2,3.94,3.89,8.46a7.77,7.77,0,0,1-5.71,5.71,5.78,5.78,0,0,1-6.58-2.89c-1.88-3.11-4.47-3.24-7.52-3.53-5.79-.56-11.54-1.47-17.29-2.36a8.91,8.91,0,0,1-3.53-1.37c-1.83-1.24-3.2-.94-5,.28-7,4.84-9.26,16.92-5.58,22.94a42.66,42.66,0,0,0,7.82,8.89,65.31,65.31,0,0,0,8.66,6.1,13.63,13.63,0,0,1,4.54,4.22c3,4.72,6.94,5.08,11.51,1.87s9.5-6.17,14.14-9.41c2.65-1.86,5.07-4.05,7.56-6.14,3.57-3,7.11-6.05,10.67-9.07.86-.73,1.76-1.41,2.67-2.14l-8-7.94,6.26-11.94c-2.61-1.42-4.92-2.64-7.18-3.94a14.26,14.26,0,0,1-2.31-1.77c-.52-.46-.83-1.18-1.39-1.57-5.85-4.08-8.33-7.18-10.94-13.41a17.6,17.6,0,0,0-2.23-3.05c-.83-1.16-.81-1.17.17-2.81,4.85,4.94,9.77,9.94,14.67,15,2.07,2.12,4.27,4.14,6.13,6.44a9.33,9.33,0,0,0,5.57,3.46,182.94,182.94,0,0,1,18.42,5c4.72,1.63,8.19,4.75,8.68,10.39a15.29,15.29,0,0,0,2.41,6.73c1.76,2.71,1.34,6.39,4.1,8.62.36.3,0,1.59-.14,2.38-.6,2.45-1.28,4.88-2.05,7.74l-1.67,1.12c-.25-.36-.63-.66-.7-1a40.66,40.66,0,0,0-1-5.83c-1.38-4-2.88-7.9-6.1-11.07-6-5.91-12.58-6.57-19.49-1.29-6.15,4.71-12.61,9-17.65,15.13-2.34,2.86-6.16,4.48-9.23,6.78a82.74,82.74,0,0,0-6.58,5.4c-3.76,3.47-10.07,4.35-14.32,1.34-4.49-3.18-8.51-7-13-10.17s-7.39-7.41-11.22-11a7.88,7.88,0,0,1-2.68-5.59,24.84,24.84,0,0,0-.29-3c-1.34-7.66,1.75-13.48,7.47-18.24C332.11,376.11,332.88,375.51,333.6,374.95Zm26.15-21.72c-5.48-4.08-11-6.57-17.48-6.69-1.55,0-3.11-.31-4.65-.24-5.12.23-10.19.51-13.38,5.59-1.64,2.61-2.09,4.23-.24,6.54,3.19,4,6.53,7.84,10.05,11.52,2.14,2.24,3.4,2.19,5.9.19,6-4.76,11.88-9.62,17.78-14.48A20,20,0,0,0,359.75,353.22Zm34.47,25.65c-1.57,3.48-4.82,5.42-3.22,9a8.12,8.12,0,0,0,7.92,4.34Zm10,7.72.11-2.48H399.9c-.59,2-1.07,4.11-.29,5.41,1.86.72,2.85,1.12,3.84,1.49a10.22,10.22,0,0,0,2.89.95,35.63,35.63,0,0,0,5.33-.32c1.18-.13,1.63-.83,1.09-2.29l-3.45.95ZM403,377.08l0-.95-8.32-1.8,3.1,10.63,4.11-4-2.75-3Zm12.34,3c-.13,2.4,2.56,2.41,3.14,4.2l-2.6,4.28a26.51,26.51,0,0,0,4.14,0c1.58-.27,2.51-2.1,1.43-3.16C419.68,383.57,418.76,380.66,415.39,380.1Zm-1.85,1.19a6.88,6.88,0,0,1-.57,2.19,3.47,3.47,0,0,1-1.83,1.36c-.51.1-1.33-1-1.72-.83-.72.29-1.24,1.11-1.93,1.8,4.05,2,6.7,1.21,8.21-2.91ZM376.2,357.69c2.44,2.86,3.45,7.29,8.09,7.86Zm49.18,42.17c-1.27,1.48-1.53,2.62,1.14,3.58ZM422.84,391l-1.39.66,2.1,3.55.8-.4ZM407.4,380.3c1.22,1.73,2.11,1.72,3.09.83.15-.13.12-.45.21-.83ZM404,382.1l2.81-2.35C404.51,379,403.75,379.5,404,382.1Zm15.46,10.33c-.66-.48-1.28-1.11-1.45-1a4.87,4.87,0,0,0-1.11,1.34c.43.26.87.72,1.3.72S418.89,392.92,419.44,392.43Z" opacity="0.3"/><path d="M423.21,114.22a12.86,12.86,0,0,0-.41-9,5.37,5.37,0,0,1,.61-5.28c3.29-5.21,6.91-10.09,13.1-12.21a7.74,7.74,0,0,0,1.48-.93c0-1.31-.09-2.58,0-3.84.3-3.63-.31-7.31,1.51-10.84.67-1.3,0-3.31-.12-5l-.85-.34c3.77-3.39,7.46-6.9,11.35-10.14,2.45-2,3.48-1.7,6.05,1.38-2.61,2.71-5.17,5.54-7.92,8.16a8.17,8.17,0,0,0-2.58,6c-.1,2.21-.82,4.38-1.11,6.59-.22,1.67-.2,3.36-.28,4.83.46.41.66.75.87.75a11,11,0,0,1,9.67,5.84c1.95,3.27,4.72,6.12,4.15,10.4-.29,2.17.94,4.43-.53,6.59-.34.51.14,1.63.35,2.45s.83,1.62.78,2.39c-.26,4.38,2.48,7.33,4.87,10.41,1.58,2,2.24,3.66,1,6.47-1.12,2.52-.59,5.79-.71,8.74-.14,3.26-.37,6.53-.21,9.77.1,2,.86,4,1.43,6.5l-2.86,3.45c-6.77-2.19-13.6-.43-20.46.45a17,17,0,0,1-2.13.11,87.5,87.5,0,0,0-19,1.94c-1.58.35-3.3.05-5.57.05,2-3,5.09-1.14,6.85-3-.09-2.42-2.8-1.9-4.37-4,.22-8,.45-16.8.68-25.55.06-2.13.19-4.26.14-6.38C418.87,116,418.83,116,423.21,114.22Zm29.29,1.49a14.57,14.57,0,0,0-2.42-.23q-10.5.71-21,1.51c-3,.23-3.58.68-4.23,3.62a31.59,31.59,0,0,0-.51,4.64c-.32,4.67-.74,9.33-.87,14-.15,5.22,0,10.44,0,15.94,1.68.17,3.55.91,4.2.31,1.47-1.36,2.77-.92,4.31-.72a26.35,26.35,0,0,0,6.31.45c7.3-.81,14.57-1.87,22.3-2.9V128.5c-3-1.43-5.47-.29-8,1.42C450,125,453.18,120.48,452.5,115.71Zm-25.95-2.5c1.28.41,2.21,1,3.09.94,8.57-.66,17.14-1.42,25.71-2.17.11,0,.21-.17.51-.43l-.3-2.1c-1.56-1.13-2.72-1.58-3.25-2.43a26.23,26.23,0,0,1-3.38-9.52c-.7-3.95-3.14-5.69-7.13-5a14.4,14.4,0,0,0-5,2.11C430,98.9,428.82,106.17,426.56,113.22ZM456,116.87c-1.79,3-1.59,5.75-1.54,8.74l7.36-.35C460.78,121.59,458.54,119.48,456,116.87Zm-2.35-16.13.43-.08-.47-2.91-.5.1Zm-20.63-7.8-.58-.5-2.27,2.49.65.56Z" opacity="0.3"/><path d="M175.58,548.48c-3.32-3.26,1.24-5.15.6-8.17-5.39,2.07-10.77.68-15.93-.92L156.78,543l-1-.56a21.47,21.47,0,0,1,1.28-4.2c1-1.78.47-3.13-.37-4.76a20,20,0,0,1-2.13-5.85c-.8-5-1.28-10-1.86-14.77-1.67-1.93-4.45.69-6.09-2.21,1.21-.15,2.1-.23,3-.38s1.9-.37,3-.58c.19-5,.48-9.77.53-14.57a16.91,16.91,0,0,1,3-9.15,43.6,43.6,0,0,1,6.09-7.07c2.41-2.37,5.64-2.54,8.8-2.3,2.52.19,5.24,1.5,6.34-3l.81,1.19-.76,3.76,5.15,6c3.62-4.23,4.06-10.51,8.57-14l.82.41-2.6,5.89,7.51,2.59c-2.65,4.6-.6,9.82-.31,15a14.19,14.19,0,0,1-.22,4.45A41.17,41.17,0,0,1,194,504.7c-2.32,5.13-4.87,10.17-7,15.39-1.24,3.06-3.05,6.12-2.14,9.74.11.43-.31,1.08-.63,1.52-3.45,4.77-5.63,10.14-7.52,15.66C176.62,547.38,176.24,547.67,175.58,548.48Zm3.32-33c-3.2,1.33-4.65-2-7.17-2.61L161.21,535.3c2.17,2.49,4.45,3.39,7,2.62Zm-6-32.72c-3.57-1.18-6.21-1.11-8.34.46-3.52,2.59-6.2,5.9-6.11,10.63.07,4,.27,7.95.47,11.92a18.57,18.57,0,0,0,.75,2.92C164.46,499.73,167.71,490.94,172.89,482.71ZM160.45,530l1,.17c2.22-4.86,4.2-9.85,6.73-14.54a11.89,11.89,0,0,0,1-10.08c-.53-1.58-.42-3.37-.68-5.06-.15-1-.48-2-.95-3.79l-6,12,6.94.67c-2.72,2.7-5.85,1.11-8.44,3A84,84,0,0,0,160.45,530Zm10.1,8.42a8.63,8.63,0,0,0,9.45-5.8c1.2-3,2.15-6.14,3.27-9.19,1.19-3.24,2.44-6.45,3.73-9.85l-5.34.92Zm17.79-60.2c-1.7,3.14-3.25,5.83-4.6,8.61a4.29,4.29,0,0,0-.31,2.88c1.43,4.57.23,8.9-.82,13.29a7.83,7.83,0,0,0,.25,2.52,9.57,9.57,0,0,0,2.92-3.88c2-5.1,4.19-10.18,5.8-15.42.57-1.85-.05-4.18-.57-6.18C190.82,479.28,189.37,478.87,188.33,478.22Zm-16.4,27.95c2.66-3.24,2.83-7,4.77-9.64,2.47-3.41-.4-6.41-.69-9.45l3.19-1.71-3.93-2.41C169.44,490,169.92,497.47,171.93,506.17ZM179.11,496c-2,3.75-3.72,6.62-5,9.69-1.37,3.35-.09,4.8,3.81,4.69C179.12,506,180.35,501.61,179.11,496Zm11.27-1-5.75,13.2C188.73,505.8,190.38,501.77,190.38,495.08Zm-34.8,13.66,1.1,0c.44-3.48.54-6.95-1.1-10.33Zm18-28.7c-2.49-2.56-6.23-2.31-9.45.63Zm19.48,15.89-2,7.35C193.49,501.27,193.85,498.74,193.06,495.94ZM156.51,518c.61-4.47.61-4.47-.56-6.13C154.72,513.84,155,515.58,156.51,518Zm26.69-7.11.38.84c1.78-.36,1.78-.36,3.17-2.18Z" opacity="0.3"/><path d="M318.18,287.27a27.78,27.78,0,0,1-.5-4.35c.72-11.64,1.47-23.27,2.32-34.9.24-3.25.91-6.47,1.27-9.72.41-3.67.68-7.35,1-11,0-.57,0-1.14,0-1.71,1.21-9.74,2.29-11.45,12.25-11.95l18.29-.89,1.6-16.8c2,2.4,1.21,5,1.13,7.53-.09,2.66-.47,5.31-.77,8.53l6.59-.43c2.62-6.21.09-12.64,1.85-18.84,1.84,1.75,1.77,1.75,1.34,8.74-.19,3.08,0,6.17,0,9h26.37c2.21,2.68,4.5,5.51,6.87,8.29s4.93,5.49,7.27,8.34a4.43,4.43,0,0,1,1.08,3c-.67,5-1.87,10-2.31,15.07-1,11.18-1.65,22.39-2.41,33.59-.2,3-.89,3.77-3.76,3.95-4.23.26-8.52,1.18-12.68.74-11.86-1.25-23.51.12-35.24,1.42C339.48,286,329.12,286.45,318.18,287.27Zm34.38-72.56c-7.63.43-15,.83-22.32,1.29a5,5,0,0,0-2,.73c-3.31,1.84-3.6,5.07-3.76,8.33-.14,3-.12,6-.4,8.94-.8,8.62-1.78,17.23-2.55,25.85-.39,4.38-.57,8.79-.7,13.19-.11,3.76,0,7.53,0,11.44a21.85,21.85,0,0,0,2.86.17c9.19-.78,18.37-1.65,27.57-2.37,9.76-.77,19.5-2.13,29.35-1.22,5.93.55,11.87.84,18.12-1.34l4.25-49-15,.87V212.24c-2.91,0-5.6,0-8.3,0s-5.41,0-8.11.15c-8.75.61-8.75.65-6.67,9.62a31.42,31.42,0,0,1,5.37-.87c1.11,0,2.75.56,3.17,1.38a3.75,3.75,0,0,1-.57,3.45,21,21,0,0,1-5,3.7c-3.55,2-3.6,1.88-3.27,6.19a59.91,59.91,0,0,1,6.42-2c1.47-.29,3.4-.44,4.15,1.3s-.73,3-2,3.84a49.26,49.26,0,0,1-6.28,3.59c-3.31,1.62-3.39,1.66-2.6,6,1.51,0,3.06-.12,4.58,0,2.7.26,3.54,2,1.67,4a21.32,21.32,0,0,1-5.46,3.91,5.92,5.92,0,0,0-3.46,4.95,45,45,0,0,1-1.54,5.95c-1.34-1.27-2.13-2-2.86-2.73-2.92-3-2.88-3-6.94-1.53-1.76.62-3.35,2.41-5.66,1.15a5.2,5.2,0,0,1,0-1.57,5.35,5.35,0,0,1,.9-1.31c2.94,1.62,2.94,1.62,7.05-1.22l-2.13-4.72c-2.9.39-5.79,3.32-8.35-1,1.85-1.51,3.5-3.32,5.54-4.39,3-1.58,3.23-3.93,3-6.73a29,29,0,0,1-3.49,0c-3-.38-4-2.42-2.17-4.74a12.87,12.87,0,0,1,3.74-3.26,5.08,5.08,0,0,0,2.87-4.38C351.94,225.76,352.22,220.54,352.56,214.71Zm9.16-1.2a33.32,33.32,0,0,0-5.18.48,3,3,0,0,0-1.91,1.86,74.8,74.8,0,0,0-1,17.55c2.73-.93,5.08-1.73,7.43-2.55,1.54-.54,1.58-1.86,1.51-3.15C362.34,223.1,362,218.49,361.72,213.51Zm28.63,15.94,13-.82c-4.18-5-7.79-9.29-11.43-13.58-.22-.26-.7-.3-1.58-.66ZM352.43,247.8l9.85-4.3c-.76-3.8.51-7.38-.48-11.32A56.71,56.71,0,0,0,355,235a4.48,4.48,0,0,0-1.91,2.92C352.71,240.79,352.68,243.77,352.43,247.8Zm9.45-2.18c-3,1.11-5.43,1.87-7.72,2.91a3.22,3.22,0,0,0-1.56,2.18,11.79,11.79,0,0,0,.24,4.61c.43,1.48.66,3.55,3.18,3.18,3.49-.5,5.74-2.1,5.84-4.47C362,251.5,361.88,248.95,361.88,245.62Zm2.46-3.95c3.89-.13,6-3,8.86-5.3C367.42,235,363.87,237.26,364.33,241.67Zm.63-12.52c3.17-1.3,6.18-2.08,6.77-5.82C366.19,222.82,364.45,224.2,365,229.15Zm-1.35,21.52.6,5.16,5.71-5.16Zm-13.07-13.73a20.92,20.92,0,0,0-3.25,1.71,2,2,0,0,0-.64,1.78,2.15,2.15,0,0,0,1.57,1C350.31,241.72,350.8,240.84,350.54,236.94Zm8.3,27,1.61-5.5-4.77,2.35Zm-13.75-9.6c4.91,0,5.38-.41,4.44-3.6Z" opacity="0.3"/><path d="M225.7,105.31c-5.26,2.57-20.4,4-24.23,2.15,2.31-2.73,5.6-1,8.21-2s5.54-.91,8.21-1.29c2.15-7.05,0-14.3,1.85-20.86l14.3-2c.56-.08,1.17-.42,1.65-.27,5.31,1.65,9.75,1,13.08-4.55l.48,3.43c.25.07.79.4,1,.25,2-1.32,4.09-1.15,6.44-.79s4.7-.41,7.07-.59c1.4-.11,2.8,0,4.21,0,2.54,0,5.09.05,7.63.13,3.26.09,6.53.45,9.77.31,8.09-.35,16.16-.93,24.24-1.4.79,0,1.58,0,2.29,0,.52,2.08-.65,2.31-1.82,2.41-2.69.25-5.37.56-8.07.62-6.81.15-13.61.18-20.42.25-1.52,0-3,0-4.79,0l-.37,3.63c.33.27.55.6.76.59,17-.72,34.27,1.95,41.72-.41l.86-6.27h-3c-.08-1.82,1.78-2.56,5.29-2.1l.6,10.36a18.65,18.65,0,0,1-4.35.92c-8.09.06-16.18-.06-24.27-.14-5.79-.06-11.6-1-17.85.44l-1.73,18.62c5.62-.26,10.84-.48,15.83,1.18-.74,5,3.85,7,5.67,10.92l-2.7,1.28c0,4.58,0,9.51,0,14.44,0,3,.2,6,.18,8.93,0,2.23-1,3.36-3.42,3.46-4.26.17-8.53,0-12.78.21s-8.19.79-12.3,1c-2.81.17-5.64,0-8.57,0-.25-.48-.72-1-.73-1.47-.1-6.79-.4-13.57.45-20.35.6-4.76.82-9.58,1.05-14.38,0-1-.63-2-1.13-3.49,5.07-1.42,10.32-1,15.52-2l1.72-18.36c-5.81,0-11.27-.14-16.72.1-1.28.06-2.51,1.36-4.06,2.27-1.24-1.84-3.22-2-5.74-2-4.93,0-9.89,1.36-14.8,0-.66-.18-1.28-.47-2.09-.77,1.26-.73,2.27-1.3,3.28-1.91.06,0,0-.26,0-.71a5.69,5.69,0,0,0-5.08-.06,3.35,3.35,0,0,0-1.65,2.48C226.11,93.51,225.94,99.45,225.7,105.31ZM259.31,146c2,0,3.51.12,5,0,4.64-.42,9.25-1.08,13.89-1.36,3.78-.23,7.58,0,11.85,0l.8-26.09-7.28,1.3c-1.32-3.8,1.58-6.74,2-10.39a33.29,33.29,0,0,0-5.52-.77c-5.24.13-10.47.45-15.7.79-4.1.27-4.35.68-4.67,4.92-.5,6.66-1.16,13.3-1.62,20A29.83,29.83,0,0,0,259.31,146ZM236.17,86.8l9.55-.66-.17-3.06C238,83.62,238,83.62,236.17,86.8ZM268,81.41l-.24,4.22,5.87-.35.29-3.86Zm-7.18-.15v4.47l4.05-.37.36-3.83Zm26.58,30.18L286,116.56l4.92-.37ZM258.14,81.8l-4.08.23.41,3.58C257.58,85.42,257.58,85.42,258.14,81.8Zm-6.54.53c-1.54-.48-2.77-.45-3,1.24-.19,1.12,0,2.36,1.51,2.52a5.38,5.38,0,0,0,1.54-.3Z" opacity="0.3"/><path d="M515,338.51l9.5-2.3-1.25-6.9c3.71-1.14,7.27-4.24,12.33-3.79,2.75.25,5.59-.68,8.4-1s5.34-.69,8-.86c8.5-.53,17-1,25.51-1.43a34.86,34.86,0,0,1,7.62.43c3.1.55,4.19,2.48,3.66,5.56-.24,1.39-.5,2.78-.73,4.17,0,.12.08.26.19.57l10.13,2c-3.79,3.36-7.3-1-10.65,1.83l-1.31,8.13a78.59,78.59,0,0,0,7.9-3.33c2.09-1.16,3.9-2.84,6.13-4-.21,2.78-2.1,4.13-4.15,5.16-2.4,1.21-4.93,2.16-7.43,3.17a4.89,4.89,0,0,0-3.27,4.42c-1.23,8.7-2.87,17.34-4.14,26-.38,2.59-.06,5.27-.06,8.08l6,.7c-1.91,3.11-4.44.67-6.08,1.9-3.11,2.53-2.64,6.2-2.94,9.67a15.52,15.52,0,0,1-1.25,3.35c-1.93-2.44-3.74-2.72-6-2a59.34,59.34,0,0,1-10.72,2.37c-5.9.58-11.86.66-17.79.93-.84,0-1.89-.37-2.5,0-1.52.91-2.38.29-3.73-.5-1.84-1.07-4.12-1.87-6.07.69-2.22-4.77-1.89-9.31-1.33-13.74a55.19,55.19,0,0,0,0-15.56c-1-6.44-1.58-13-2-19.47-.16-2.43-.68-3.86-3.1-4.82a39.57,39.57,0,0,1-6.55-3.91C515.39,342.88,515,341,515,338.51ZM575.29,386c3.93-4.77,3.53-9.91,4.48-14.71.49-2.51,1.08-5,1.49-7.52.82-5,1.54-10,2.35-15.35l-10.44,2.35-.49,4.27-25,2.54.37-5.43-18.52-2a10,10,0,0,0-.51,2.5c.71,7.05,1.47,14.1,2.25,21.14.06.53.26,1.4.56,1.48,2.67.69,1.54,2.89,1.84,4.47s.1,3.43.63,5c.86,2.52,2.15,4.9,3.39,7.64,2.09-.21,4.35-.33,6.57-.68s4.47-.9,6.69.59L538.08,394a8.56,8.56,0,0,0,.67,1.35,2.52,2.52,0,0,0,.95.83c4.63,1.83,9.4,3.08,14.42,2.34,6.69-1,13.35-2.17,20.15-3.29.91-2.34,2.67-4.35,1.92-7.33a158.35,158.35,0,0,1-36.44,1.31c5.81-2.35,11.92-.86,17.87-1.4S569.75,386.6,575.29,386Zm-46.23-37.9,18.78,2,1.58-4.43c2.29,1.72,4.5,1.05,6.91.6,5.33-1,10.74-1.57,16.15-2.31l1,4.87c2.72-.71,5.16-1.38,7.62-2,2.23-.54,3.17-1.92,3.45-4.18.69-5.6,1.58-11.18,2.39-16.82a8.3,8.3,0,0,0-6.24-1.69c-8.93.61-17.87,1-26.8,1.51-3.11.18-6.21.54-9.31.86s-6.19.83-9.3,1a15.21,15.21,0,0,0-7.57,2.39ZM571,346.35c-3.67.21-7.07.17-10.39.67s-6.67,1.56-10.18,2.42c.44.52.58.85.77.89,5.79,1.14,11.55.16,17.31-.27C570.69,349.9,571.39,348.58,571,346.35Zm-54.08-6.14c2,3.4,4.86,4.43,7.87,6.06.42-3.05.75-5.58-1.25-8Zm32.77,14c3.82.3,7.15,1,10.41.17,3.09-.75,6.59.12,9.35-2.09-6.24-.06-12.41.21-18.58.53C550.63,352.85,550.4,353.37,549.7,354.23Zm-16.06,43.54c-.1-3.36-.1-3.36-2.68-4.06C531.07,397.2,531.07,397.2,533.64,397.76Z" opacity="0.3"/><path d="M45.86,448.49c-.12-4.27,2.13-8,5.15-11.35,5.18-5.65,10.23-11.49,16.52-15.95a65,65,0,0,1,12.77-7.55,23.74,23.74,0,0,0,10.63-7.91,28.79,28.79,0,0,1,9-7.55,5.39,5.39,0,0,0,1.9-1.64c1.83-3,4.78-4.3,7.7-5.82,4.76-2.47,9.56-4.57,15-5.36,2.82-.41,4.9-.07,6.92,2a40,40,0,0,0,5.29,4.13c2.13,1.54,2.53,2.4,1.31,4.56a39.92,39.92,0,0,1-3.65,5.23c-4.51,5.65-8.88,11.44-13.74,16.78-2,2.2-5,3.58-7.75,5-4.29,2.2-8.74,4.09-13.09,6.18a4.52,4.52,0,0,0-1.57,1.41c-6.89,9.37-16.35,15.86-26.11,21.55-6.4,3.73-14,5.48-21.79,3.4C46.93,454.66,45.68,452.9,45.86,448.49Zm49.43-18.11c-1.58-.34-2.1-.47-2.63-.57-7.35-1.41-8.91-3.46-8.52-11.06a33,33,0,0,0-.25-3.76,28,28,0,0,0-10.39,5.64c-4.69,3.87-9.35,7.78-13.89,11.83a33.71,33.71,0,0,0-4.75,5.43c-2.15,3-1.79,7.29.65,10.76,1.64,2.34,6.19,4,9.17,3,4.58-1.47,9.06-3.21,12.89-6.26,3.21-2.55,6.57-4.93,9.71-7.57C89.85,435.7,92.2,433.29,95.29,430.38Zm8.24-7.12a37.31,37.31,0,0,0,4.87-1.78,55.56,55.56,0,0,0,5.36-3.46,62.17,62.17,0,0,0,6.88-5c4.94-4.53,6.8-11,10-16.65,1.07-1.89-.46-3.5-1.67-4.92-1-1.17-2.2-1.08-3.48-.51-8.12,3.62-16.3,7.12-24.33,10.92-3,1.41-6,3.19-7.1,6.84C103.58,410.48,105.92,413.93,103.53,423.26Zm-3.17-9.32-2.92-.65c-7.36-1.68-10.16,2.43-8.85,8.84.4,2,1.33,4,3.69,4.08s4.38,0,6.08-2.56C100.47,420.53,100.7,417.47,100.36,413.94ZM51.63,453.47l-1.87-8.84C46.9,448.28,47.43,451.89,51.63,453.47Zm7.87,0-5.64-3C54.06,454.35,54.11,454.39,59.5,453.48Zm53.85-60.34,9.69-3C120.24,389.56,115.81,391,113.35,393.14Zm20.78,4.42c2.36-4,2.36-4,0-4.42Zm-6-9.91.18-.71-2-.21-.05.68Z" opacity="0.3"/><path d="M594.7,213.37a9.89,9.89,0,0,1-2.29.83c-3.6.22-5,2.51-5.93,5.65-2.47,8.42-5.18,16.78-7.68,25.19q-3.57,12-6.89,24.12c-1.2,4.32-3.6,5.53-7.49,3.24a9.41,9.41,0,0,0-5.63-1.39q-11.25.69-22.52,1.12c-2.08.08-4.18-.24-6.6-.4l-1.7,3.52c-.6-.89-1.16-1.33-1.12-1.73.34-3.68-1.28-6.93-2.08-10.37a52.06,52.06,0,0,1-1-7.58c-.75-9.34-1.42-18.69-2.16-28-.33-4.21-.75-8.42-1.16-13-1.76-.14-3.13-.3-4.51-.35s-2.74-.67-2.45-2.19c.15-.8,1.51-1.37,2.32-2l.67.53c.7-2.87,1.47-5.73,2.1-8.63,2.22-10.24,7.62-18.49,15.57-25.17.11-.09.19-.23.31-.29,4-2,7.05-5.22,9.88-8.28a12.63,12.63,0,0,0,3.34,1c5.3-.11,10.6-.41,15.9-.54a4.51,4.51,0,0,1,2.74.76,9,9,0,0,0,6.5,2l-1,3.53a24.36,24.36,0,0,0,4.73,1.54c3.77.42,6.16,2.63,8.07,5.6,1,1.55,1.92,3.16,2.89,4.73,3.18,5.16,5.47,10.55,5,16.82a33,33,0,0,0,.19,6.65C592.84,211.13,593.8,212,594.7,213.37ZM519,209.86c1.23.88,3,1.47,3.23,2.43A79.41,79.41,0,0,1,524,223.59c.82,9.31,1.38,18.64,2.2,27.94.3,3.38,1.17,6.71,1.54,10.08.54,4.87,1.75,6.21,6.6,6.36,5.51.17,11,.2,16.54.34,2.27.05,4.54.21,6.8.33,2,.1,4,.24,6,.33,3.78.18,4.76-.57,6-4.3,1.87-5.78,3.93-11.51,5.65-17.33a280.66,280.66,0,0,0,7.2-30c.18-1,1.3-2,2.21-2.67,1.08-.83,2.56-1.16,3.55-2.06.84-.76,1.83-2.1,1.71-3-.66-5-.85-10.34-2.72-14.93-2.27-5.56-5.55-10.91-11-14.33-1.53-1-3-2.46-4.61-2.73s-3.35.75-4.78,1.13c-.95-.73-1.8-1.94-2.79-2.06a51.79,51.79,0,0,0-9.64-.44c-3.65.25-7.26,1.06-11.25,1.68l-1.44-2.46c-1.88,1-3.45,1.5-4.55,2.5-4.26,3.87-9,7.15-11.32,13C523.37,197.2,520.44,203.3,519,209.86ZM550.54,174l-.69-.76L547.65,175l.42.56Z" opacity="0.3"/><path d="M882.48,205.54c-.28,1.38,3.31,1.67.7,4l-13.28-9c-1.44,4.77-2.47,9.07-1,13.69l15.17-3.67c.06.11.72.7.69,1.26-.71,14.29-3.17,28.33-5.63,43.25-3.32-3.37-6.45-1.8-9.53-1.32a3.77,3.77,0,0,1-.85.11c-10.72-.86-21.27.89-31.87,1.91a8.49,8.49,0,0,1-2.11-.18c-.25,0-.47-.28-1.12-.68-1.24-15.09-7.45-29.15-11.73-44-3.56.76-6.82,2.29-10.57.3-2.44-11-2.35-22,4.76-31.77A26.82,26.82,0,0,1,825,171c3.7-2,6.79-4.9,10.83-6.53,6.79-2.74,13.77-3.12,20.88-2.89,2.26.07,4.51.53,6.77.64a16.17,16.17,0,0,1,13.06,6.94c1.87,2.65,3.42,5.54,5.06,8.35.43.73.52,1.71,1.06,2.31,5.16,5.62,3.78,12.41,3.5,19,0,.7-.28,1.4-.32,2.1C885.71,204.43,885.73,204.43,882.48,205.54Zm-62-2.2c1.24-.55,2.45-1.42,3.74-1.59,6.47-.82,13-1.45,19.44-2.17,4.23-.47,8.64-.39,12.62-1.65,5.09-1.62,10-1.38,15-1.09,1.34,4,4.78,5.33,8,6.64,1.82.74,3.2-.3,3.54-2.44.46-2.91.55-5.87.9-8.8a5.61,5.61,0,0,0-1.13-4.36c-3.43-4.48-5.67-9.7-9.09-14.27s-7.77-7-12.68-8.65c-6.56-2.17-13.43-1.32-19.7,1-10,3.68-18.64,9.63-24.94,18.49-4.88,6.86-4.95,17.36-.37,23.41.56-.13,1.22-.27,1.86-.46s1.23-.4,1.8-.59l-1.95-4.73,3,1.19q3.29,8.51,6.58,17a158,158,0,0,1,8.59,29.26c.84,4.74,1,4.9,5.79,3.84a114.12,114.12,0,0,1,22.84-2.21c4.2-.07,8.4-.64,12.33-1,2.73-6.23,1.82-12.52,3-18.48s3.35-11.65,2.27-18.08c-4.73.93-9.17,1.73-13.57,2.68-2.43.52-3.52-.22-3.36-2.64,0-.69.42-1.36.49-2.06.45-4.13,2.14-8.21.59-12.67-2.67.12-5.42-.35-7.71.46-4.68,1.67-9.53,1.21-14.26,1.94-6,.93-12.13,1.4-18.2,2C824.17,203.52,822.32,203.36,820.48,203.35Z" opacity="0.3"/><path d="M731,515.39c-1.56-3.43-7.34-3.66-6.83-9.19l3.54,1.56c.19-2.48.39-4.56.5-6.64.29-5.67,1.2-11.41.67-17-.79-8.3,4.18-11.39,11.3-13,5.79-1.34,11.79-1.74,17.62-2.92,10.87-2.19,21.49-.68,32,1.93,2.34.58,4.37,2.39,6.61,3.67a227.82,227.82,0,0,0-2.92,32.11l7-2.4c-.64,1.42-.74,2.19-1.16,2.48-2.44,1.67-4.8,3.62-7.49,4.72-5.37,2.2-10.92,4.18-16.88,3.73-6.46-.49-12.71.82-18.95,2a35.25,35.25,0,0,1-13.09,0c-2.37-.42-4.72-1-7.11-1.27A28.69,28.69,0,0,0,731,515.39Zm53.82-4.53-4.51.9.36,1,4.1-2c2.28.56,4.2.15,5.36-2.31Zm-53.46-28.19c0,6.84,0,13.46,0,20.08a4.11,4.11,0,0,0,2.15,3.41,21.35,21.35,0,0,0,10,4.24c4.36.49,8.65,2,13,2.07,10.5.13,20.42-2.66,29.89-7.18,1.59-.76,2.55-1.62,2.7-3.39.11-1.27.52-2.51.59-3.78.24-4.47,1.62-8.9.76-13.2A164.39,164.39,0,0,1,731.32,482.67Zm62.53-7.39c-1.53-1.13-2.71-2.58-4.17-3a31.67,31.67,0,0,0-9.19-1.24c-10.07.52-20.1,1.61-30.17,2.09-5.39.26-10.28,2-15.19,3.81a8.1,8.1,0,0,0-1.91,1.52c2.37,2,5.91,3.27,9.85,4.13,6.64,1.44,13.31.43,20,.56,6.85.13,13.55-.9,20.28-2.05A17.23,17.23,0,0,0,793.85,475.28Zm-33.13-4.94-.21-.35-8.07,1.12.06.37ZM731,506.7c1.09,3.41,1.41,3.57,6,3.58ZM786.75,482l.29.63,2.72-1-.22-.66ZM768.83,470.4l-.16-.46-2.13.13v.33Z" opacity="0.3"/><path d="M41.69,100.19c-.25,3.58-.6,6.92-.69,10.26-.21,7.82-.24,15.64-.48,23.45a12.38,12.38,0,0,0,2.6,8.6c6.62-1.33,13.3-3.2,20.11-3.88s13.76-.15,20.7-.15c1.38-3.9,2.87-39.83,2.14-53.71,1.43-.57,2.44-.26,2.57,1.42.2,2.68.38,5.37.32,8.06-.14,6.24-.42,12.48-.66,18.71-.12,3-.24,6-.45,8.94-.31,4.53-.77,9.05-1,13.58-.25,4.2-1,5.37-5.09,5.32s-7.94.89-12.12-.13c-3.23-.78-7,.4-10.48,1-3.92.65-7.79,1.65-11.69,2.41-2.78.54-5.58.92-8.28.08-2.07-7.32-1.19-14.53-1.06-21.7q.22-12.33.51-24.66a4.11,4.11,0,0,1,.53-2.35c3.22-3.94,6.63-7.73,9.83-11.69,2.52-3.12,5.58-3.23,9.07-2.23a17,17,0,0,0,3.72.31c1.54.08,3.18-.2,4.6.25a14,14,0,0,0,6.64.14c3.47-.52,7-.55,10.35-1.86,1.85-.72,2.25-.29,3.79,2.06-5.85.88-11.48,1.8-17.13,2.5a8,8,0,0,1-4.13-.68c-2.62-1.2-5-.31-7.48.33-1.92.5-1.75,2.42-2,3.89-.8,5.19-1.49,10.39-2.24,15.74C48.72,107.46,45.89,102,41.69,100.19ZM41,96.27c3.48,2.33,6.08,5.65,10.85,6.15l3-19.29C47.83,85.86,46,92.42,41,96.27Z" opacity="0.3"/><path d="M586.07,443.26l7.16-.7c.81,21.54-3.64,42-5.57,62.77,0,.42-.62.78-1.37,1.67a10.62,10.62,0,0,1-.62-2.71q1-9.73,2-19.45c1.17-10.57,2.43-21.12,3.51-31.7.27-2.64,0-5.34,0-8.38a17.43,17.43,0,0,0-3,.33c-3.22,1.06-6.38.72-9.65.14-6.4-1.15-12.83-2.25-19.29-2.92-3.49-.36-7.08.11-10.62.37a3.15,3.15,0,0,0-3.23,3.25c-.17,2.23-.67,4.44-1,6.51a21.28,21.28,0,0,1,3.84,2.23c.48.44.49,1.6.43,2.41-.14,2-3.34,5.38-5.21,5.73s-3.41-1.13-3.42-3.32c0-4.39,0-8.78-.07-13.17a7.93,7.93,0,0,0-.52-1.81L532,445.84a3.55,3.55,0,0,1,3.76-2.46c3.82-.06,5.25-2,5.91-5.67,1.88-10.21,7.94-17.74,16.4-23.35a16.82,16.82,0,0,1,16.65-1.47c2.85,1.29,5.35,4.26,7,7.05a31.35,31.35,0,0,1,4.11,14.83c.07,1.67.76,3.31.89,5A14.59,14.59,0,0,1,586.07,443.26Zm-15.22-29.88c-1.16-.22-2.3-.77-3.27-.55-4.57,1-8.9,2.5-12.66,5.63-4.62,3.84-7.62,8.77-10.18,14-1.38,2.8-1.83,6.06-2.73,9.23,3.66-.51,6.74-1.11,9.86-1.34a45.48,45.48,0,0,1,9.76,0c6.43.95,12.79,2.4,19.19,3.6a8.92,8.92,0,0,0,2.11-.13c-.28-2.22-.49-4.16-.79-6.09-.76-5-1.3-10.09-2.42-15s-3.34-6.53-8.62-6.9a4,4,0,0,1-1.16-.51Zm-29.14,41,.84,0,1.86-10.48C541.05,444.77,540.71,446.34,541.71,454.35Zm4.53.94-1.91,2.61C546.78,458.1,547.45,457.45,546.24,455.29Z" opacity="0.3"/><path d="M487.52,64.18a55.88,55.88,0,0,1-6.67,2.27,19,19,0,0,1-5.88.26c-3-.35-3-.54-2.93-3.87,0-.42,0-.84,0-1.2,4.71-3.7,10.65-3.42,15.9-5.23,1.29-.44,3.08,0,4.46.55,2.26.84,3.82,4,2.4,5.58-2.2,2.49-1.52,5.31-1.91,8s-.09,5.62-.09,8.72c3.92.52,7.62-.45,11.33-1,1.54-.22,3.06-.68,4.61-.8a5.86,5.86,0,0,1,2.14.76c-.36.82-.55,2.19-1.12,2.38a56.64,56.64,0,0,1-8.61,2.22c-3.77.61-7.6.77-11.39,1.3-3.1.43-4-.5-3.7-3.54C486.64,75.24,487,69.9,487.52,64.18Z" opacity="0.3"/><path d="M741.15,268.11c-2.15.07-2.6-.87-2.19-2.17,2-6.23,1.21-12.66,1.49-19,.31-7.22.81-14.44,1.2-21.65.08-1.51,0-3,0-4.88l-11.88,1.36c-1.64-5.77,2.31-9.77,3.3-14.63-7.2-3.41-14.85-4.4-22.73-4-8.8.48-17.59,1.1-26.39,1.58a7,7,0,0,1-4.32-1.18,32.47,32.47,0,0,1,4.43-.92c9.07-.64,18.14-1.25,27.22-1.75a43.52,43.52,0,0,1,17.57,2.41c4,1.45,8.08,2.7,12.46,1.67a8.28,8.28,0,0,1,2.33.22c-1.3,3.06-4.59,1.11-6.29,3.14,1.88,4.57,7.74,6.52,8,12.45-1.36.45-1.58,2-1.61,4q-.25,15.94-.78,31.88A58.38,58.38,0,0,1,741.15,268.11Zm-6.31-58.85c-.94,3.84-3.49,6.28-2.88,10,3.41.56,6.53-.45,10.52-1.14Z" opacity="0.3"/><path d="M23.22,31c3.4-3.74,7.63-6.16,8.71-11.47.49-2.38,2.23-4.55,3.66-6.64a2.59,2.59,0,0,1,2.52-.52,2.7,2.7,0,0,1,.61,2.54,30.26,30.26,0,0,1-3,5.11c-1.95,2.79-3.32,5.63-1.78,9.09.48,1.09.84,2.49-.66,2.79-.75.15-1.86-.85-2.6-1.55-.44-.41-.48-1.23-.83-2.27-1.43,1.38-2.54,2.58-3.78,3.63-3.41,2.88-5.39,2.22-6.39-2a8.84,8.84,0,0,0-.78-1.51c-1.55,1.82-3,3.44-4.37,5.17-.84,1.07-1.78,2.25-3.11,1.48a4.58,4.58,0,0,1-2-3C8.8,26.77,11,22.66,14.68,19.49c1.73-1.49,3.48-3.87,6.55-2.15C22.69,12.56,24,8.13,25.39,3.7,26,1.82,26.41-.22,29.75,0a20.94,20.94,0,0,1-.5,4.39c-1.94,5.77-4.16,11.44-6,17.23a34.78,34.78,0,0,0-1.12,7.11C22.05,29.3,22.67,29.92,23.22,31ZM12.55,32.66a42.61,42.61,0,0,0,7.22-11.17A20.3,20.3,0,0,0,18.11,20,3.65,3.65,0,0,0,17,19.7C13.24,24,12,27.2,12.55,32.66Z" opacity="0.3"/><path d="M533.66,511.47l2.64-1.94c-1-4.32-2-8.57-2.81-12.85-.64-3.33-1.16-6.69-1.47-10.06-1-10.17-1.77-20.35-2.69-30.52-.21-2.35-.64-4.68-1-7.09,2.13-.18,2.44,1,2.56,2.09,1,8.17,1.91,16.34,2.77,24.51,1,9.16.85,18.46,3.85,27.33.72,2.12,1.3,4.3,2,6.71,3-.23,5.9-.59,8.83-.66,11.36-.27,22.71-.44,34.07-.67,3.67-.07,7.38.11,10.81-1.72.57-.3,1.49.06,2.52.94a12.49,12.49,0,0,1-3,1.67,47.1,47.1,0,0,1-8.8,1.48c-6.25.19-12.51.07-18.76-.07a152.61,152.61,0,0,0-25.84,1.57,37.18,37.18,0,0,1-5.41,0Z" opacity="0.3"/><path d="M736.19,273.29c-.42,1.67-1.36,1.61-2.63,1.39a56.43,56.43,0,0,0-8.78-1.16c-11.52-.15-23-.08-34.55-.12-2.11,0-4.22-.18-6.67-.29-3.53-10.59-4.16-21.74-4.95-32.87s-1.54-22.12-2.31-33.21c2.14-.12,2.34.93,2.43,2.16.73,9.91,1.52,19.81,2.22,29.71s1.35,21.62,4.67,31.85a34,34,0,0,0,5.11.66c4.68,0,9.35-.34,14-.48,2.27-.07,4.55,0,6.83,0q9.36.29,18.72.66C732.39,271.72,734.52,271.74,736.19,273.29Z" opacity="0.3"/><path d="M148.86,238.67c2,2.94.25,5.52-.14,8.18s-.87,5.52-1.38,8.71c4.27-1.4,6.85-5.28,11.73-5.5-1.92,3.57-3.8,6.62-4.11,10.18l.81.33c1-2.4,2-4.79,2.92-7.21.48-1.24.4-1.27,2.82-2.23.44,3.26-2.72,6-1.16,9.7,2.44-1.51,4.22-3.18,4.94-6,.82-3.2,2.12-6.2,5-8.14a4.59,4.59,0,0,1,2.47-.54c-2.85,3.67-5.46,7.34-5.65,12.51l3.32-1.35c-1.87,4.81-2.41,5-6.22,2.47-3.62,3.82-3.62,3.82-7.21,1.79-1.54,1.45-1.51,4.41-4.86,4.83-1.31-4.41,1.74-8.08,2.05-12.86-4.14,2.43-7.89,4.19-8.67,9.27-.49,3.17-1.63,6.24-2.71,10.18-.89-1.23-1.74-1.93-1.61-2.31,1.38-4.23,1.13-8.74,2.67-13,1.39-3.81,1.82-8,2.41-12.05A19.68,19.68,0,0,1,148.86,238.67Z" opacity="0.3"/><path d="M201.17,8.87a4.29,4.29,0,0,1-.12,1.47q-6.28,11.31-12.62,22.6a4.26,4.26,0,0,1-.89,1.43c-.63.46-1.56,1.07-2.13.89a2.58,2.58,0,0,1-1.33-1.91c-.2-2.11-.1-4.26-.15-6.39,0-1.5-.13-3-.2-4.49l-.9-.22L175.2,35.87c-1.7.46-2.83-.22-2.72-1.47.52-5.76,1.27-11.5,2-17.24,0-.16.45-.27.93-.54,1.63,4.42-.31,8.82-.25,14,4.68-4.64,5.23-11,9.79-15.33,2.1,5,.35,9.84,2.21,15,2.7-5,5-9.29,7.36-13.61,1.07-2,2-4.08,3.14-6C198.3,9.54,198.93,8,201.17,8.87Z" opacity="0.3"/><path d="M182.11,232.7l-2.89,14.55,3.74-2.47c-1.35,4.5-5.57,7.79-4.77,13.28,3.7-.62,6-2.42,7-5.87a31.61,31.61,0,0,1,1.56-4.4,13.18,13.18,0,0,1,2.09-3.15c.87-1,2.06-1.8,3.34-.73s.74,2.34,0,3.44c-1.15,1.61-2.34,3.21-3.62,4.71-1.54,1.8-2.12,3.62-.62,6l4.33-2.38c-1.3,2.25-2,4-4.29,4.31s-2.69-1.56-3.34-3.23l-9.5,6.54c-.15-.25-.83-.84-.78-1.34,1.1-9.55,2.27-19.09,5.56-28.21C180.05,233.43,180.82,233.31,182.11,232.7Z" opacity="0.3"/><path d="M111,24.33c3.54-1,6.73-3.5,10.53-2.61l.3.92c-2.34,1-4.59,2.44-7,3-4.53,1.06-6.63,3.61-7,8.22-.12,1.77-.32,4.09-3.35,5a9.79,9.79,0,0,1-.29-3.1c2-7.62,4.06-15.21,6.13-22.89l-1.95-1.24c.12-.44.11-.65.19-.7,5.71-3,11.22-6.55,17.76-7.54,1.2-.18,2.5.34,4.78.71l-4.53,4.28L127,5.85A30.92,30.92,0,0,0,122.64,7a59.44,59.44,0,0,0-6.48,3.2,5.13,5.13,0,0,0-2.33,2.28c-1.21,3.46-2.16,7-3.14,10.55C110.6,23.33,110.89,23.77,111,24.33Z" opacity="0.3"/><path d="M208.29,251.36l4.8-1.77c-2.5,5.13-5.5,5.5-8.23,1-1.18-1.93-1.66-4.29-2.6-6.86a17.57,17.57,0,0,0-4.6,10.34l2.84-3.37c.8,3.37-.67,5.61-4.87,7.47-1.24-1.87-2.35-3.57-.63-5.94.88-1.21,1.14-2.87,1.71-4.32,1.36-3.47,3.45-6.18,7.1-6.62,2.66-4.94,2.53-10.92,7.45-14.76,2,2.79.37,4.81-.34,6.76-1.12,3.06-2.55,6-3.8,9A8.32,8.32,0,0,0,208.29,251.36Z" opacity="0.3"/><path d="M440.46,56.26c-.23,4-1.41,7.32-5.12,10-2.48,1.77-4.66,3.86-7.54,5.13-2.33,1-2.23,1.25-5.65-.79a59.26,59.26,0,0,1,4.55-6.37c1.72-1.87,3.09-4.32,6.53-4,1.21.12,2.63-1.87,4-2.9l2.44-1.88Z" opacity="0.3"/><path d="M162.48,272.9c-5.38.93-4.49,5.33-5.58,9.52,5-1.2,9.14-2.75,13-6.25a12.35,12.35,0,0,1,.27,2.4c-.3,2.94-.68,5.87-1,8.8a6.33,6.33,0,0,1-.37,2.08c-.27.53-.94.86-1.43,1.28-.49-.58-1.33-1.12-1.4-1.74a18.33,18.33,0,0,1,.35-3.37c.12-1.52.16-3.05.25-5.15-3.31,1.61-6.17,2.77-8.75,4.38-.84.53-1.16,2.17-1.38,3.37-.5,2.64-.72,5.32-1.19,8-.13.73-.72,1.37-1.58,2.9-.5-1.66-1.07-2.54-.93-3.28a49.58,49.58,0,0,0,1-10.75c-.11-3.93,2.18-8,3.9-11.87C158.61,270.88,159.63,271,162.48,272.9Z" opacity="0.3"/><path d="M226,2.34l-8.41,26.4,2.24-.2c0,.27.16.6.05.79a44.53,44.53,0,0,1-2.59,4.33c-.42.58-1.43,1.29-1.88,1.13a2.81,2.81,0,0,1-1.26-1.91,6,6,0,0,1,.19-2.52,125,125,0,0,1,9.74-27.5C224.19,2.7,224.61,2.71,226,2.34Z" opacity="0.3"/><path d="M426.64,420.85c5.21,3.15,6.54,6.69,4.56,11-1.53,3.31-3.51,4.23-7.68,3.2l2.27,3.09a4.7,4.7,0,0,1-4.73-4.34c-.43-2.62-.84-5.67.1-8C422,423.78,424.69,422.51,426.64,420.85Zm0,1.23-2.8,7.11.67.32,2.15-2.31.49.3-1.39,6.3c1.05-1.29,1.53-2.47,2.23-2.62,2.92-.62,2.55-2.82,2-4.55C429.61,425.2,428.19,424.06,426.66,422.08Z" opacity="0.3"/><path d="M374,201.7c2.35-3.38,4.13-7.3,9.16-7.95,1.06-.13,2-1.82,2.82-2.93,1.1-1.53,2-3.21,3.43-5.5,1.34,3.59-1.09,5.22-1.54,7.37a66,66,0,0,1-2.24,6.89l3.31-1a14.78,14.78,0,0,1-5.62,5.79l-.25-5.76c-1.76,1.58-3.27,3.17-5,4.44S375.86,204.07,374,201.7Zm3.81-2.35.87.77c1.14-.73,2.23-1.5,2.27-4.2Z" opacity="0.3"/><path d="M135.27,266c-2.46-.12-4-.09-5.49-.29-2.66-.36-3.72-2-2.89-4.5a8.38,8.38,0,0,1,1.74-3.37,76.86,76.86,0,0,1,7.4-6.35,5.2,5.2,0,0,1,4.16-.52c-.7.57-1.42,1.12-2.09,1.71-2.75,2.44-5.57,4.8-8.16,7.4a3.75,3.75,0,0,0-.55,3c.09.41,1.64.61,2.55.69,1.89.17,3.79.2,5.72.28.16,2.66-1.17,3.88-2.33,5.32-1.62,2-4.36,3.37-4.08,6.63,0,.33-1.26,1.19-1.47,1.06-.73-.47-1.88-1.46-1.74-1.88a12.73,12.73,0,0,1,2.23-3.92C131.65,269.57,133.26,268.06,135.27,266Z" opacity="0.3"/><path d="M456.89,72.62c-.43-.09-.77-.07-1-.22-.89-.68-1.75-1.41-3-2.4,1.64-3.4,3.53-6.38,7.13-8.2,2.18-1.1,4-2.83,6.09-4.2a24.83,24.83,0,0,1,2.75-1.4l.78.6c-.24,1-.18,2.25-.77,2.91C465,64.1,460.88,68.37,456.89,72.62Z" opacity="0.3"/><path d="M234.42.9c1,2.3.14,4.18-.67,6.13a86.49,86.49,0,0,0-6.59,25.24,18.51,18.51,0,0,1-1.22,3.43,20.12,20.12,0,0,1-1.58-3.26,7,7,0,0,1-.14-2.95c2.07-9.78,4.22-19.55,9.32-28.34C233.58,1.07,233.78,1.08,234.42.9Z" opacity="0.3"/><path d="M153.09,18.57c1.37,3.9-.9,5.82-2.59,7.73-2,2.23-3.38,4.52-3.18,7.58,0,.12.14.24.5.82l5.85-4c-.31,1.24-.28,2-.65,2.44a19.32,19.32,0,0,1-3.66,3.45,4.79,4.79,0,0,1-3.45.72c-.75-.21-1.31-1.61-1.66-2.59a23.23,23.23,0,0,1-.68-3.67c.87-1.81,1.71-3.89,2.82-5.8a40.13,40.13,0,0,1,3.87-5.52C150.78,19.15,151.91,19,153.09,18.57Z" opacity="0.3"/><path d="M52.75,16.3c.59-3.31.59-3.31,4.87-1.24A8.51,8.51,0,0,1,57,20.22,77.32,77.32,0,0,0,54.5,30.45a8,8,0,0,0,.31,2.29l3.68-2.27a4.49,4.49,0,0,1-3.11,4.86A2.49,2.49,0,0,1,52,33.65,21.57,21.57,0,0,1,51.6,30c-.19-1.47-.45-2.93-.68-4.39l.1.1c.92-2.41,1.8-4.85,2.79-7.23.55-1.33.43-2.14-1.18-2.27Z" opacity="0.3"/><path d="M201.57,30.86l5.71-3.63c-1,2.68-4.2,6.09-6.23,6.69-1.66.5-2.9-.33-2.7-2.1a30.21,30.21,0,0,1,1.36-5.74,24.9,24.9,0,0,1,5.86-10.19c.57-.57,1.65-.63,2.5-.93.19.87.82,2,.5,2.58a34.23,34.23,0,0,1-4.31,6.61C202.67,25.93,201.43,27.63,201.57,30.86Z" opacity="0.3"/><path d="M204.31,266.45l-5.91,6.79c2.44.22,4.07.3,5.68.52,3.64.5,4.78,2.55,2.72,5.57-1.7,2.5-4,4.58-6,6.85l-.84-.34c0-.83-.3-1.82.07-2.44a25.46,25.46,0,0,1,2.52-2.86c.95-1.15,1.8-2.38,3.34-4.43a37.55,37.55,0,0,1-5.73-.37c-1.26-.29-2.81-.89-3.42-1.86-.43-.69.17-2.5.87-3.33a33.36,33.36,0,0,1,4.69-4.23C202.52,266.08,203.2,266.35,204.31,266.45Z" opacity="0.3"/><path d="M140.68,14.14c-.32,1.72-.71,3.43-1,5.16-.86,5.86-1.62,11.73-2.53,17.58-.25,1.6-.4,3.58-2.95,3.16-.73-2.73,2-20.55,3.83-24.83.27-.63,1-1.05,1.56-1.57Z" opacity="0.3"/><path d="M7.25,15.85,2.95,36.76c-1.81.36-3-.17-2.94-2.26A43.85,43.85,0,0,1,4.55,17C4.8,16.47,6,16.36,7.25,15.85Z" opacity="0.3"/><path d="M389.71,204.45c.23-5.36,1.71-9.08,5.67-12.68l-.84,4.41,9.58-2.8c1.73,4,.91,6-3.84,8.79-1.65-2.24.85-3.91.78-6.19C395.83,196.28,393.75,200.94,389.71,204.45Z" opacity="0.3"/><path d="M184.9,283.43l4.53-2.8A6.83,6.83,0,0,1,185,286c-1.67.73-2.81-.1-3.1-1.78-.88-5.07,1.14-9.41,3.92-13.39.5-.71,2.47-1,3.42-.64,1.46.56,1.16,2.18.43,3.27A29.46,29.46,0,0,1,186,278,4.49,4.49,0,0,0,184.9,283.43Z" opacity="0.3"/><path d="M50.92,25.58c0,3.12-1.74,5.26-4.13,6.92-1.83,1.27-3.3.58-3.55-1.63A5.52,5.52,0,0,1,43.49,28c1.76-3.5,3.67-6.91,5.59-10.33.81-1.45,2.16-1.67,3.67-1.32l-.12-.13c-1.67,2.71-3.41,5.37-5,8.14a29.26,29.26,0,0,0-1.53,4.37l4.89-3Z" opacity="0.3"/><path d="M423.41,181.65a13.5,13.5,0,0,1-.67,2.72c-2.88,6.05-5.82,12.07-8.78,18.08,0,.08-.52-.06-.79-.09C412.08,197.81,418.53,185.51,423.41,181.65Z" opacity="0.3"/><path d="M579.62,484.67c-.6.07-1.33.41-1.77.18-3.46-1.78-7.18-1.62-10.86-1.55-5.12.1-10.23.39-15.35.56-.49,0-1-.2-1.62-1.17a14.91,14.91,0,0,1,3.74-.77c8.64.46,17.56-2.6,25.9,1.81Z" opacity="0.3"/><path d="M176,265.91c1.95,3.31,1.05,6.72.81,10.11s-.39,6.68-.59,10c-1.43.86-2.59.24-2.51-1C174.11,278.6,174.14,272.18,176,265.91Z" opacity="0.3"/><path d="M129.57,18.8c.78,1.37,1.32,1.87,1.26,2.27-.57,3.47-1.18,6.94-1.94,10.37a21.28,21.28,0,0,1-1.67,4.78c-.26.54-1.31.69-2,1-.21-.73-.72-1.52-.59-2.19.73-4,1.51-8,2.5-12C127.44,21.84,128.42,20.75,129.57,18.8Z" opacity="0.3"/><path d="M410.18,195.83l2.74.21-4.62,5.62c-1.89-1-1.36-2.35-1.09-3.53,1.34-5.84,4.84-12.23,8.47-14.21Z" opacity="0.3"/><path d="M549.27,471c5.29-1.92,24-3,31.41-1.94-2,1.25-2,1.19-7.27,1.16-2.69,0-5.38.18-8.06.39s-5.34.72-8,.77C554.82,471.44,552.18,472.53,549.27,471Z" opacity="0.3"/><path d="M551.81,494.51c6.87-2.66,13.77-5.77,20.7-.14a41,41,0,0,0-6.76-1.51,29.12,29.12,0,0,0-7.15.68C556.33,494,554.18,495.05,551.81,494.51Z" opacity="0.3"/><path d="M556.75,458.21c7.22-2.27,14.88,1.84,22-1.7C574.8,459.52,570.86,459.78,556.75,458.21Z" opacity="0.3"/><path d="M79.32,26.08c-2,1.46-3.45,2.5-5.31.63C76.37,24.13,76.37,24.13,79.32,26.08Z" opacity="0.3"/><path d="M13.73,5c-2.3-.65-4.16-.51-4.79-3.15C11.1,1.94,12.34,2.85,13.73,5Z" opacity="0.3"/><path d="M407.36,180l-3.11-.62c1.45-2,2.38-1.14,3.31-.35Z" opacity="0.3"/><path d="M441.73,198.37c-.77.15-1.54.32-2.32.42-.08,0-.32-.64-.3-.66.68-.4,1.38-.76,2.07-1.12Z" opacity="0.3"/><path d="M218.47,277.37c.55.68,1.14,1.1,1.11,1.46a1.42,1.42,0,0,1-1,1c-.37,0-.93-.6-1-1S218,278,218.47,277.37Z" opacity="0.3"/><path d="M79.81,15.7c.57.93,1,1.32,1,1.76s-.39.69-.61,1c-.39-.29-1-.51-1.1-.88S79.41,16.74,79.81,15.7Z" opacity="0.3"/><path d="M426.28,198.76c-.74.42-1.12.8-1.52.82s-.85-.53-.8-.71c.1-.42.46-1,.77-1.07S425.51,198.26,426.28,198.76Z" opacity="0.3"/><path d="M432.6,199.15a5,5,0,0,1-1.34,1c-.19.05-.83-.62-.78-.74a2.37,2.37,0,0,1,.95-1.06C431.57,198.23,432,198.72,432.6,199.15Z" opacity="0.3"/><path d="M729.53,335.31a40.2,40.2,0,0,0-2.84,3.08c-1.28,1.69-2.26,3.63-3.64,5.23a58.37,58.37,0,0,0-9.78,15.88c-.71,1.71-1.64,2.94-3.78,2.69a3.57,3.57,0,0,0-2,.53c-5.7,3.23-11.36,6.51-17.05,9.76-.21.12-.54,0-.87,0-1.38-4-.26-7.32,2.78-10.12l-.12.13c4.92-1.45,8.34-4.91,11.64-8.57a26.58,26.58,0,0,1,2.91-2.4l-2.22-.76L709,345.3l1.91,2.53c1.63-2.53,4-4.69,4.41-7.19.54-3.11,2.42-5,4-7.3,1.35-1.94,3.47-3.36,3.55-6.08,0-.38,1-.72,1.91-1.29.65,5.14-3.56,7.26-5.87,10.67,3.55-1.1,3.64-1.21,8.92-10.45l4.87,1.14-3.19,8.08Z" fill="#fff" opacity="0.3"/><path d="M687.5,337.12c0,.89,0,1.87,0,2.85q0,10.39-.1,20.78c0,4.34-.17,4.54-4.3,6.18-2.35.93-4.57,2-7.18.19-1.32-.93-2.18-1.8-2.07-3.32.19-2.65-.09-5.57.94-7.88,2.81-6.31,6.18-12.37,9.36-18.52C685,335.79,686.15,336.24,687.5,337.12Z" fill="#fff" opacity="0.3"/><path d="M733.14,357.05l-12.41,15.46-1.6-2.75-4,4.16a7.52,7.52,0,0,1,5-6,2.18,2.18,0,0,0,1.06-.43c3.49-4.08,6.95-8.18,10.14-12.53-6.1.9-8,6-10.44,10.59l-4.9.63c6.74-9.29,12.52-18.69,19.86-27.63l2,3.09,4.89-4.61.79.68a50.33,50.33,0,0,1-3.71,5.28,43.74,43.74,0,0,1-4.72,4l1.71,1.34L736,352l.16-.18a5.8,5.8,0,0,0-2.65,4.86Z" fill="#fff" opacity="0.3"/><path d="M732.53,368.39,727,375.87l-.82-4.12c-3.88,3.88-6.3,8.49-8.61,13.42l3.26-2.1c-.67,3.84-.95,4-3.9,4a44,44,0,0,0-5.2.62l1.4-3.13c-2.62-.53-2.94,2.55-5.6,2.87l4.57-7.18-1.58-.93,4.55-4.79,3.14,2.62c2-2.38,3.82-4.5,5.52-6.73,1.16-1.53,2.47-1.7,4.12-.83l4.89-5.56c-.11,2.15-.17,3.32-.23,4.47Z" fill="#fff" opacity="0.3"/><path d="M733,380.33c-3.3,2-3.66,3.3-1.48,5.79-1.72,2.31-4.17,3-7.43,3.54l1.86-5.24L722,387.36l-.58-.24c1.06-2.68,2-5.4,3.23-8,.4-.86,1.11-2,2.72-1.16.41.21,1.76-.94,2.4-1.71,2-2.36,3.78-4.83,5.92-7.06-1.45,5.81-5.58,9.73-10.7,13.94C728.88,383.39,729.69,378.42,733,380.33Z" fill="#fff" opacity="0.3"/><path d="M742.51,359.51a12.47,12.47,0,0,0-2.41,1.85c-1.66,2.07-3.12,4.3-4.76,6.39-.68.86-1.56,1.76-2.8.64l-.07.13c3.85-4.25,6.88-8.88,6.89-14.92a1.88,1.88,0,0,1,.32-1.21c2-2.08,4.15-4.11,6.23-6.15l.81.45-2.57,5.93c.36,1,1.38,2.3,1.06,3.08-1.12,2.74.69,6.57-3,8.33l-.22-.22c.13-1.44,2.31-2.62.57-4.31l.77-3.7-.79-.06Z" fill="#fff" opacity="0.3"/><path d="M733.14,357.05l.33-.34,2.65-4.86L736,352c1.6-2.43,3.19-4.87,4.81-7.29,2-3,4-6,6.45-9.63a11.62,11.62,0,0,1-.57,9.58l-4.18.79c-3.48,4.08-4.87,9.61-8.49,13.65l-.84-.37Z" fill="#fff" opacity="0.3"/><path d="M742.18,364l.37,6.23c-2.72,1.78-3.64,5.27-4.79,8.75-.74,2.23-.81,5.15-4.11,6.17,0-.69-.2-1.34,0-1.72,2.3-3.76,1.93-8.59,5.08-12.1,1-1.12,2.23-2.81,1.26-5a1.9,1.9,0,0,1,1.94-2.57Z" fill="#fff" opacity="0.3"/><path d="M710.4,374.21c.07.85.25,1.32.11,1.66-1.77,4.39-3.59,8.76-5.51,13.4l-2.88-1.4C705.14,383.61,704.88,377.49,710.4,374.21Z" fill="#fff" opacity="0.3"/><path d="M697.29,383.71c3.53-5.23,6.62-10.81,11.75-14.74C707.37,375.65,702.34,379.7,697.29,383.71Z" fill="#fff" opacity="0.3"/><path d="M704.37,342.76a10.14,10.14,0,0,1-5.48,6.07c.63-1.6.79-2.66,1.38-3.37,3.56-4.26,5.33-10,10.31-13.09-.46,3.66-3.23,5.9-5,8.73Z" fill="#fff" opacity="0.3"/><path d="M715.4,391l3.23-2,2.58,1.9c-3.13,1.07-12.3,1.28-17.89.33,4-.81,7-1.52,10-2C713.87,389.2,714.55,390.26,715.4,391Z" fill="#fff" opacity="0.3"/><path d="M698.94,387.14l.49,3.27-7.5.92c-1.31-2-1.55-3.72.15-6.47l.6,4.38Z" fill="#fff" opacity="0.3"/><path d="M692.33,362.36l-2.29-.29v-3.92l2.58-1.1.91,3.39,1.52-1.29-2.84,3.33Z" fill="#fff" opacity="0.3"/><path d="M691.75,335.09l-2.06,8.78c-1.46-2.76-.64-5.42-.16-8.06C689.58,335.59,690.45,335.5,691.75,335.09Z" fill="#fff" opacity="0.3"/><path d="M676.76,376.75l-2.6-3,1.81-3.92C677.94,372,677.42,374,676.76,376.75Z" fill="#fff" opacity="0.3"/><path d="M704.37,342.76l1.21-1.66c1.73.38,1.84,1.6,1.2,2.83a20.48,20.48,0,0,1-2.39,3C703,345.32,703.52,344,704.37,342.76Z" fill="#fff" opacity="0.3"/><path d="M704.46,332.48c.64,4.73.56,4.86-3.53,5.65Z" fill="#fff" opacity="0.3"/><path d="M712.45,337.18c-.14-4.33,2.09-5.41,5.1-5.8Z" fill="#fff" opacity="0.3"/><path d="M733.08,325.82l-4.41-1.62c.76-1.82,2.08-2.23,3.4-1.63C732.6,322.81,732.61,324.18,733.08,325.82Z" fill="#fff" opacity="0.3"/><path d="M689.64,379.4l-.54-4.47h3.12l-1.69,4.55Z" fill="#fff" opacity="0.3"/><path d="M738.83,381.08l2.93-6.2c.89,3.45-.45,5.16-2.11,6.75Z" fill="#fff" opacity="0.3"/><path d="M699.68,373.07c1,3.22.63,3.88-3,5Z" fill="#fff" opacity="0.3"/><path d="M729.45,335.41c.56.35,1.12.69,1.67,1.05.11.07.15.23.37.6l-3.5,3.71-.59-.34,2.12-5.11Z" fill="#fff" opacity="0.3"/><path d="M685.36,329.15c.74,2.14-.77,2.91-2.19,3.93C682.93,330.1,682.93,330.1,685.36,329.15Z" fill="#fff" opacity="0.3"/><path d="M693.94,351.39,696.4,347l.57.25L695.13,352Z" fill="#fff" opacity="0.3"/><path d="M741.46,389.19l-.2,2.73-2.86-.42,2.32-2.69Z" fill="#fff" opacity="0.3"/><path d="M688.22,367.78l-4,3.16C685.12,367.86,685.12,367.86,688.22,367.78Z" fill="#fff" opacity="0.3"/><path d="M738.19,329.23c1.1-.69,1.66-2.29,4.42-1.53l-3.7,2.57Z" fill="#fff" opacity="0.3"/><path d="M687.26,372.32l-1.38,2.45-.77-.39,1.17-2.55Z" fill="#fff" opacity="0.3"/><path d="M737.58,335.05l-2.08,1.09-.32-.4,1.91-1.59Z" fill="#fff" opacity="0.3"/><path d="M696.65,334.82l-1.26,2.87c-.48-.24-.87-.42-.86-.44.42-1,.88-2,1.33-2.94Z" fill="#fff" opacity="0.3"/><path d="M754.88,330.22l.54-2.34,1,.25-.63,2.32Z" fill="#fff" opacity="0.3"/><path d="M672,371.38l1-2.42.66.14a5,5,0,0,1-.19,1.55c-.19.42-.69.69-1,1Z" fill="#fff" opacity="0.3"/><path d="M682.9,370.3a9.06,9.06,0,0,1-1.53.87c-.09,0-.6-.63-.53-.84a1.4,1.4,0,0,1,.87-.79C682,369.48,682.31,369.9,682.9,370.3Z" fill="#fff" opacity="0.3"/><path d="M651.35,139.58,655,112.7c9.6.78,19,1.83,28.47,2.25s18.92,1.08,28.48-.67V119l.55.12,2.1-5.53c.45,1.32.78,1.8.74,2.24-.35,4.36-.81,8.71-1.13,13.08a60.68,60.68,0,0,0-.24,7.62c.12,2.37-.74,3.87-3,4.49a27.83,27.83,0,0,1-6.2,1.38c-12.48.47-25,.88-37.44,1.06A31.66,31.66,0,0,1,651.35,139.58Z" fill="#fff" opacity="0.3"/><path d="M682.33,71.8,680.89,75c.84,0,1.61.22,1.86,0,.64-.7,1-1.67,1.58-2.41a18.39,18.39,0,0,1,2.59-2L684.7,96.9l-28.53,3.61c.23-9.61,2.84-18.95,3-28.87l4.66-.58-.79,3.06c4.2,3.1,5.58-1.6,8.75-2.75l-1.67,4.23c3.3,0,3.07-5,6.95-4.2L676.36,75C679.25,75.35,678.58,70.22,682.33,71.8Z" fill="#fff" opacity="0.3"/><path d="M713,96.58H689.31c.54-5,1.08-9.88,1.6-14.77.25-2.37.54-4.74.65-7.12.1-2.08.87-3.16,3.1-3,7.19.49,14.39.93,21.59,1.42.23,0,.43.33,1,.8Z" fill="#fff" opacity="0.3"/><path d="M647.13,138.95c5.21,4.27,11.13,5.67,17.21,6.12a139.08,139.08,0,0,0,16.59.14c9.07-.4,18.12-1.09,27.18-1.78a36.12,36.12,0,0,0,5.48-1.29c.89,1.45.78,2.59-1.13,3.09a25.29,25.29,0,0,1-4.14.87c-9.75.87-19.5,2.09-29.27,2.4a156.66,156.66,0,0,1-30.9-1.95c-2.06-.35-3.5-1.33-3.59-3.51a54.55,54.55,0,0,1,.11-7.53A73,73,0,0,1,646.92,123l-.61,13.19.93.09c1.79-3.66.87-7.73,1.24-11.6.39-4.07.77-8.14,1.16-12.32,2-.46,3.12-.17,3,1.85-.1,1.69-.35,3.38-.57,5.07-.72,5.48-1.49,11-2.19,16.44C649.67,137.33,649.47,138.84,647.13,138.95Z" fill="#fff" opacity="0.3"/><path d="M709.82,99.56c0,.86-.17,1.64,0,1.75,4.65,2.62,2.77,6.68,2.34,10.41,0,.13-.14.24-.21.36-5.93,1.49-17.16,1.61-23,.25-1.24-5.3-1-9.49.9-13.21,4.47.47,9.21.89,13.92,1.52C705.85,100.91,707.8,101.6,709.82,99.56Z" fill="#fff" opacity="0.3"/><path d="M686.43,112l-31.53-2,.82-7c9.47-2.13,18.92-2.48,28.93-3.57l-.72,11.45,2.51-1.37Z" fill="#fff" opacity="0.3"/><path d="M722.94,69.8c-1.88,9.35-3.63,18.08-5.41,26.81,0,.18-.45.27-.72.42-2.23-.71-1.42-2.57-1.22-3.92.56-3.77,1.44-7.5,2.09-11.27.7-4,1.29-8.12,2-12.49Z" fill="#fff" opacity="0.3"/><path d="M716.16,69.81c-1.21.39-2.44,1.14-3.64,1.1-6.35-.24-12.7-.67-19-1.07-.21,0-.39-.32-.59-.49,2.27-1.34,16.8-1.68,23-.53Z" fill="#fff" opacity="0.3"/><path d="M686.74,93c1.33-6.85.6-14,2.61-21.67C690.3,74.83,688.42,89.14,686.74,93Z" fill="#fff" opacity="0.3"/><path d="M653.08,103.63v5.9c-1.34,1.1-2.35,1-3-.55C649.23,107,650.21,105.1,653.08,103.63Z" fill="#fff" opacity="0.3"/><path d="M714.79,110.77a4.83,4.83,0,0,1,.66-6.06C717.26,107.17,716,109,714.79,110.77Z" fill="#fff" opacity="0.3"/><path d="M717.31,100.07l-.73,3.5a18.21,18.21,0,0,1-1.71-1.26,30.93,30.93,0,0,1,1.77-2.63Z" fill="#fff" opacity="0.3"/><path d="M647.14,109.56c-1.26-1.55-.82-2.59.55-3.71C648.88,107.23,648.71,108.29,647.14,109.56Z" fill="#fff" opacity="0.3"/><path d="M675.76,68.34l.89.76c-.32.15-.64.31-1,.43-.07,0-.3-.17-.29-.21C675.49,69,675.64,68.63,675.76,68.34Z" fill="#fff" opacity="0.3"/><path d="M57.2,270c2.18,1.31,4.34,2.66,6.55,3.93,1.44.83,1.66,1.79,1.39,3.5a49.1,49.1,0,0,0-.1,7.7l.92.07.6-7.46c2.41,0,3.38,1.08,3.33,3.34-.1,4.25-.1,8.51-.14,12.76l.12-.12c-3.58.3-6.71-.32-9-3.56-.63-.89-2.14-1.12-3.17-1.78-3.7-2.36-7.37-4.79-11.06-7.17a4.52,4.52,0,0,0-1.13-.29c-2.94-.88-3.51-1.53-3.32-4.36.12-1.82.53-3.62.73-5.43.15-1.34.19-2.7.28-4.05l-.89-.11-1.63,11.37c-3.68-4.68.15-9.53-1.58-14.26L37.82,277c-4.12-1.79-8.29-2.35-11.41-6.12,1.7-1.4,3.58-2.78,5.24-4.37s3.12-3.44,5-5.52l.37,3,1.44-3.07L57.21,270c0,2.82-2.37,5.43-.2,9.37C56.36,275.57,59,273,57.2,270Zm-10.56,7.08,1-9.05C45.4,270.88,45.57,274,46.64,277.08ZM52.33,271c-2.36,3-2.36,3-.86,6.33ZM61,283.91l.57-9.08-.89,0A16.14,16.14,0,0,0,61,283.91Zm4.74,3.44c-.75,2.08-.75,2.08.86,3.89Z" fill="#fff" opacity="0.3"/><path d="M86,261l-.78,17.51L82,277.75c-.19,1.31,0,2.87-.68,4s-2.06,1.79-3.23,2.74c-2.32-2.59.35-5.47-1.16-8.11-1.85,2.26-1.06,4.9-1.2,7.22-.16,2.71-1,4.58-4,5.77-.27-4.56-1.24-9,1.71-12.92,3.63-4.86,7.37-9.65,11.08-14.44C84.69,261.71,85.12,261.58,86,261ZM84.59,266l-.71-.15-1.42,6.11.9.19Z" fill="#fff" opacity="0.3"/><path d="M69.76,293.84l3.51,1.09-1.85,4.79-3.36-.25-.35,4.72c-1.34-1-1.34-2-1-3.32.25-.89,0-1.92-.05-3.6-1.72,1.62-3,2.14-1.75,4.23.84,1.36.48,3.46.67,5.34-2,.41-2.71-.21-2.84-1.82-.21-2.67-.49-5.34-.73-8a7.12,7.12,0,0,1-2.51-.52c-.53-.35-.69-1.28-1.24-2.42-1,2.86.57,5.53-1.41,8.06-2.54-3.23-2.22-6.74-2.46-10.29l-1.68.37c-.77-1.54.23-2.25,1.41-2.33s2.89,0,3.41.67c2.77,3.76,7.07,3.61,10.88,4.68,1.26.36,1.3-.69,1.46-1.52Z" fill="#fff" opacity="0.3"/><path d="M81.77,296.79l-2.12.47L79,294l-2.34.9-2-4.15c3.36-3.15,6.89-6.75,10.73-10,3.09-2.6,4.88-1.67,5.95,3l-2.2-.72-7,3.29c-.79,3.38-2.15,6.81-.38,10.35Z" fill="#fff" opacity="0.3"/><path d="M81.73,296.78,83,299.66l3.36-1.8.66.86a39.14,39.14,0,0,1-10.23,9.86c2.27-3-1.38-5.67-.09-8.92l3.17,4.65c1.28-3-1.43-6,1.87-7.53Z" fill="#fff" opacity="0.3"/><path d="M37.08,295.18c2.57,1,5.1,1.35,6.41,2.77,1.89,2.07,4,2.38,6.37,2.43,1.8,0,3,.63,3.43,2.42C47.07,303.35,39.29,300,37.08,295.18Z" fill="#fff" opacity="0.3"/><path d="M88.27,274.09c-1.8-4.45-.19-8.24-.52-12.37C91.65,264.24,91.81,268.75,88.27,274.09Z" fill="#fff" opacity="0.3"/><path d="M48.13,285c-3.55,3.24-5.33-1.49-8.3-.59.49-2.28,1.29-3.38,3.24-2.43C44.75,282.77,46.31,283.86,48.13,285Z" fill="#fff" opacity="0.3"/><path d="M69.83,307.23a45,45,0,0,1-.8-5,2,2,0,0,1,1.26-1.42,2.22,2.22,0,0,1,1.75.82C73.68,303.74,73,305.8,69.83,307.23Z" fill="#fff" opacity="0.3"/><path d="M94.4,289.11l-.53-5.57c1.95,1.15,3.43,1.83,3,3.7C96.74,287.85,95.6,288.24,94.4,289.11Z" fill="#fff" opacity="0.3"/><path d="M48.42,287.72c-.81,2.2-.81,2.2-3.66,3.15C44.75,288.75,44.75,288.75,48.42,287.72Z" fill="#fff" opacity="0.3"/><path d="M44.07,294,48,291.77l.54,2.68-4,.43Z" fill="#fff" opacity="0.3"/><path d="M53.31,288.31c-1.45.12-3.36,1.94-4-1C51.08,285.75,52.25,286.89,53.31,288.31Z" fill="#fff" opacity="0.3"/><path d="M87.25,289.48c.61.88,1.22,1.39,1.21,1.87s-.81,1.19-1.15,1.13A1.86,1.86,0,0,1,86,291.3C86,290.88,86.63,290.34,87.25,289.48Z" fill="#fff" opacity="0.3"/><path d="M34.86,291.12l.18,3.45H33.79l.15-3.42Z" fill="#fff" opacity="0.3"/><path d="M50.91,291.56v5.72C49.65,293.87,49.67,293.19,50.91,291.56Z" fill="#fff" opacity="0.3"/><path d="M87.86,297.17c-1.12-1.48-1-2.46.51-3.41C89.9,295.11,89,296,87.86,297.17Z" fill="#fff" opacity="0.3"/><path d="M359.75,353.22a20,20,0,0,1-2,2.43c-5.9,4.86-11.8,9.72-17.78,14.48-2.5,2-3.76,2-5.9-.19-3.52-3.68-6.86-7.55-10.05-11.52-1.85-2.31-1.4-3.93.24-6.54,3.19-5.08,8.26-5.36,13.38-5.59,1.54-.07,3.1.21,4.65.24C348.74,346.65,354.26,349.14,359.75,353.22Z" fill="#fff" opacity="0.3"/><path d="M394.22,378.88l4.7,13.32a8.12,8.12,0,0,1-7.92-4.34C389.4,384.3,392.64,382.35,394.22,378.88Z" fill="#fff" opacity="0.3"/><path d="M404.22,386.6l5.09,3.71,3.45-.95c.55,1.45.09,2.16-1.09,2.29a35.63,35.63,0,0,1-5.33.32,10.22,10.22,0,0,1-2.89-.95c-1-.37-2-.76-3.84-1.49-.79-1.31-.3-3.37.29-5.41h4.43Z" fill="#fff" opacity="0.3"/><path d="M403,377.08l-3.88.84,2.75,3-4.11,4-3.1-10.63,8.32,1.8Z" fill="#fff" opacity="0.3"/><path d="M415.39,380.1c3.37.57,4.29,3.47,6.11,5.27,1.08,1.07.15,2.89-1.43,3.16a26.51,26.51,0,0,1-4.14,0l2.6-4.28C418,382.51,415.26,382.49,415.39,380.1Z" fill="#fff" opacity="0.3"/><path d="M413.54,381.29l2.16,1.61c-1.5,4.12-4.16,4.91-8.21,2.91.7-.69,1.21-1.51,1.93-1.8.39-.16,1.21.93,1.72.83a3.47,3.47,0,0,0,1.83-1.36A6.88,6.88,0,0,0,413.54,381.29Z" fill="#fff" opacity="0.3"/><path d="M376.2,357.69l8.09,7.86C379.65,365,378.64,360.55,376.2,357.69Z" fill="#fff" opacity="0.3"/><path d="M425.38,399.87l1.14,3.58C423.85,402.49,424.1,401.34,425.38,399.87Z" fill="#fff" opacity="0.3"/><path d="M422.84,391l1.51,3.81-.8.4-2.1-3.55Z" fill="#fff" opacity="0.3"/><path d="M407.4,380.3h3.29c-.09.37-.06.69-.21.83C409.51,382,408.61,382,407.4,380.3Z" fill="#fff" opacity="0.3"/><path d="M404,382.1c-.24-2.6.52-3.06,2.81-2.35Z" fill="#fff" opacity="0.3"/><path d="M419.44,392.43c-.56.49-.91,1-1.27,1.05s-.86-.46-1.3-.72a4.87,4.87,0,0,1,1.11-1.34C418.17,391.31,418.78,392,419.44,392.43Z" fill="#fff" opacity="0.3"/><path d="M452.5,115.71c.67,4.77-2.5,9.3,0,14.2,2.53-1.7,5.05-2.85,8-1.42v23.85c-7.73,1-15,2.09-22.3,2.9a26.35,26.35,0,0,1-6.31-.45c-1.54-.21-2.84-.65-4.31.72-.64.59-2.52-.14-4.2-.31,0-5.5-.12-10.73,0-15.94.13-4.67.55-9.34.87-14a31.59,31.59,0,0,1,.51-4.64c.65-2.94,1.2-3.38,4.23-3.62q10.5-.81,21-1.51A14.57,14.57,0,0,1,452.5,115.71Zm-18.77,27.78c2,1.94,4.48,1,6.74,1.12a32.08,32.08,0,0,0,6.81-.09c2.17-.32,4.58,1.65,7-.83C447.17,142,440.48,143,433.73,143.49Zm.26-9.6c6.4.71,12.61-1,18.92-1.14C446.48,130.42,440.22,132.54,434,133.89Zm10-8-.08-1-11.68,1.38C437,129,440.4,126.67,444,125.88Z" fill="#fff" opacity="0.3"/><path d="M426.56,113.22c2.26-7.05,3.48-14.31,10.23-18.57a14.4,14.4,0,0,1,5-2.11c4-.7,6.43,1,7.13,5a26.23,26.23,0,0,0,3.38,9.52c.53.84,1.69,1.29,3.25,2.43l.3,2.1c-.3.26-.4.42-.51.43-8.57.75-17.13,1.51-25.71,2.17C428.77,114.23,427.84,113.63,426.56,113.22Z" fill="#fff" opacity="0.3"/><path d="M456,116.87c2.5,2.61,4.74,4.71,5.82,8.38l-7.36.35C454.45,122.62,454.25,119.88,456,116.87Z" fill="#fff" opacity="0.3"/><path d="M453.69,100.74l-.54-2.89.5-.1.47,2.91Z" fill="#fff" opacity="0.3"/><path d="M433.06,92.94l-2.21,2.55-.65-.56,2.27-2.49Z" fill="#fff" opacity="0.3"/><path d="M178.89,515.44l-10.72,22.48c-2.51.77-4.79-.13-7-2.62l10.51-22.47C174.24,513.46,175.7,516.77,178.89,515.44Z" fill="#fff" opacity="0.3"/><path d="M172.89,482.71c-5.19,8.22-8.44,17-13.24,25.93a18.57,18.57,0,0,1-.75-2.92c-.2-4-.39-7.95-.47-11.92-.09-4.73,2.6-8,6.11-10.63C166.68,481.6,169.33,481.53,172.89,482.71Z" fill="#fff" opacity="0.3"/><path d="M160.45,530a84,84,0,0,1-.4-17.66c2.59-1.84,5.72-.25,8.44-3l-6.94-.67,6-12c.47,1.84.79,2.8.95,3.79.26,1.68.15,3.47.68,5.06a11.89,11.89,0,0,1-1,10.08c-2.53,4.69-4.51,9.68-6.73,14.54Z" fill="#fff" opacity="0.3"/><path d="M170.55,538.41l11.1-23.92,5.34-.92c-1.29,3.4-2.54,6.61-3.73,9.85-1.12,3.05-2.07,6.17-3.27,9.19A8.63,8.63,0,0,1,170.55,538.41Z" fill="#fff" opacity="0.3"/><path d="M188.33,478.22c1,.66,2.49,1.07,2.68,1.8.52,2,1.14,4.33.57,6.18-1.62,5.24-3.77,10.32-5.8,15.42a9.57,9.57,0,0,1-2.92,3.88,7.83,7.83,0,0,1-.25-2.52c1-4.39,2.25-8.72.82-13.29a4.29,4.29,0,0,1,.31-2.88C185.08,484,186.63,481.35,188.33,478.22Z" fill="#fff" opacity="0.3"/><path d="M171.93,506.17c-2-8.7-2.49-16.21,3.34-23.22l3.93,2.41L176,487.07c.28,3,3.16,6,.69,9.45C174.76,499.2,174.59,502.92,171.93,506.17Z" fill="#fff" opacity="0.3"/><path d="M179.11,496c1.23,5.57,0,10-1.16,14.38-3.91.11-5.18-1.34-3.81-4.69C175.4,502.66,177.16,499.79,179.11,496Z" fill="#fff" opacity="0.3"/><path d="M190.38,495.08c0,6.69-1.65,10.71-5.75,13.2Z" fill="#fff" opacity="0.3"/><path d="M155.59,508.75v-10.3c1.64,3.38,1.55,6.85,1.1,10.33Z" fill="#fff" opacity="0.3"/><path d="M173.58,480l-9.45.63C167.35,477.73,171.09,477.49,173.58,480Z" fill="#fff" opacity="0.3"/><path d="M193.06,495.94c.79,2.81.43,5.33-2,7.35Z" fill="#fff" opacity="0.3"/><path d="M156.51,518c-1.5-2.46-1.79-4.19-.56-6.13C157.12,513.56,157.12,513.56,156.51,518Z" fill="#fff" opacity="0.3"/><path d="M183.2,510.92l3.55-1.34c-1.39,1.83-1.39,1.83-3.17,2.18Z" fill="#fff" opacity="0.3"/><path d="M352.56,214.71c-.33,5.83-.62,11.05-.93,16.28a5.08,5.08,0,0,1-2.87,4.38,12.87,12.87,0,0,0-3.74,3.26c-1.79,2.32-.8,4.36,2.17,4.74a29,29,0,0,0,3.49,0c.21,2.8,0,5.16-3,6.73-2,1.07-3.69,2.89-5.54,4.39,2.56,4.35,5.45,1.42,8.35,1l2.13,4.72c-4.12,2.84-4.12,2.84-7.05,1.22a5.35,5.35,0,0,0-.9,1.31,5.2,5.2,0,0,0,0,1.57c2.31,1.26,3.9-.53,5.66-1.15,4.06-1.42,4-1.51,6.94,1.53.73.76,1.53,1.46,2.86,2.73a45,45,0,0,0,1.54-5.95,5.92,5.92,0,0,1,3.46-4.95,21.32,21.32,0,0,0,5.46-3.91c1.87-2,1-3.73-1.67-4-1.52-.15-3.06,0-4.58,0-.79-4.36-.71-4.4,2.6-6a49.26,49.26,0,0,0,6.28-3.59c1.24-.85,2.72-2.08,2-3.84s-2.68-1.6-4.15-1.3a59.91,59.91,0,0,0-6.42,2c-.33-4.31-.28-4.22,3.27-6.19a21,21,0,0,0,5-3.7,3.75,3.75,0,0,0,.57-3.45c-.42-.82-2.06-1.38-3.17-1.38a31.42,31.42,0,0,0-5.37.87c-2.08-9-2.08-9,6.67-9.62,2.69-.19,5.4-.13,8.11-.15s5.38,0,8.3,0v19.34l15-.87-4.25,49c-6.25,2.19-12.19,1.89-18.12,1.34-9.84-.91-19.58.45-29.35,1.22-9.19.73-18.38,1.6-27.57,2.37a21.85,21.85,0,0,1-2.86-.17c0-3.91-.09-7.68,0-11.44.13-4.4.3-8.81.7-13.19.77-8.62,1.75-17.23,2.55-25.85.27-3,.25-6,.4-8.94.15-3.27.45-6.5,3.76-8.33a5,5,0,0,1,2-.73C337.58,215.54,344.93,215.14,352.56,214.71Z" fill="#fff" opacity="0.3"/><path d="M361.72,213.51c.32,5,.62,9.59.89,14.2.07,1.29,0,2.61-1.51,3.15-2.35.82-4.7,1.61-7.43,2.55a74.8,74.8,0,0,1,1-17.55,3,3,0,0,1,1.91-1.86A33.32,33.32,0,0,1,361.72,213.51Z" fill="#fff" opacity="0.3"/><path d="M390.35,229.44v-15c.87.35,1.35.39,1.58.66,3.64,4.29,7.25,8.6,11.43,13.58Z" fill="#fff" opacity="0.3"/><path d="M352.43,247.8c.25-4,.28-7,.69-9.92A4.48,4.48,0,0,1,355,235a56.71,56.71,0,0,1,6.77-2.78c1,3.94-.27,7.53.48,11.32Z" fill="#fff" opacity="0.3"/><path d="M361.88,245.62c0,3.33.08,5.88,0,8.42-.1,2.36-2.35,4-5.84,4.47-2.52.36-2.76-1.7-3.18-3.18a11.79,11.79,0,0,1-.24-4.61,3.22,3.22,0,0,1,1.56-2.18C356.45,247.48,358.86,246.73,361.88,245.62Z" fill="#fff" opacity="0.3"/><path d="M364.33,241.67c-.46-4.41,3.08-6.63,8.86-5.3C370.35,238.7,368.23,241.54,364.33,241.67Z" fill="#fff" opacity="0.3"/><path d="M365,229.15c-.51-5,1.23-6.33,6.77-5.82C371.14,227.08,368.13,227.85,365,229.15Z" fill="#fff" opacity="0.3"/><path d="M363.61,250.67h6.31l-5.71,5.16Z" fill="#fff" opacity="0.3"/><path d="M350.54,236.94c.26,3.9-.23,4.78-2.31,4.52a2.15,2.15,0,0,1-1.57-1,2,2,0,0,1,.64-1.78A20.92,20.92,0,0,1,350.54,236.94Z" fill="#fff" opacity="0.3"/><path d="M358.83,263.93l-3.15-3.15,4.77-2.35Z" fill="#fff" opacity="0.3"/><path d="M345.08,254.34l4.44-3.6C350.46,253.92,350,254.31,345.08,254.34Z" fill="#fff" opacity="0.3"/><path d="M259.31,146a29.83,29.83,0,0,1-1.21-11.71c.46-6.66,1.12-13.3,1.62-20,.32-4.24.57-4.65,4.67-4.92,5.23-.34,10.47-.66,15.7-.79a33.29,33.29,0,0,1,5.52.77c-.42,3.65-3.32,6.59-2,10.39l7.28-1.3-.8,26.09c-4.27,0-8.07-.18-11.85,0-4.64.28-9.26.95-13.89,1.36C262.82,146.12,261.26,146,259.31,146Z" fill="#fff" opacity="0.3"/><path d="M236.17,86.8c1.85-3.18,1.85-3.18,9.38-3.72l.17,3.06Z" fill="#fff" opacity="0.3"/><path d="M268,81.41h5.92l-.29,3.86-5.87.35Z" fill="#fff" opacity="0.3"/><path d="M260.8,81.27l4.41.26-.36,3.83-4.05.37Z" fill="#fff" opacity="0.3"/><path d="M287.37,111.45l3.54,4.74-4.92.37Z" fill="#fff" opacity="0.3"/><path d="M258.14,81.8c-.56,3.61-.56,3.61-3.67,3.81L254.05,82Z" fill="#fff" opacity="0.3"/><path d="M251.6,82.33v3.46a5.38,5.38,0,0,1-1.54.3c-1.55-.16-1.7-1.4-1.51-2.52C248.83,81.88,250.06,81.85,251.6,82.33Z" fill="#fff" opacity="0.3"/><path d="M575.29,386c-5.54.58-11.59,1.26-17.66,1.82s-12.06-.94-17.87,1.4a158.35,158.35,0,0,0,36.44-1.31c.74,3-1,5-1.92,7.33-6.8,1.12-13.46,2.3-20.15,3.29-5,.74-9.78-.52-14.42-2.34a2.52,2.52,0,0,1-.95-.83,8.56,8.56,0,0,1-.67-1.35l12.86-1.74c-2.23-1.49-4.44-1-6.69-.59s-4.48.47-6.57.68c-1.24-2.74-2.53-5.12-3.39-7.64-.53-1.55-.32-3.33-.63-5s.84-3.79-1.84-4.47c-.3-.08-.5-1-.56-1.48-.78-7-1.54-14.09-2.25-21.14a10,10,0,0,1,.51-2.5l18.52,2-.37,5.43,25-2.54.49-4.27,10.44-2.35c-.81,5.32-1.53,10.34-2.35,15.35-.41,2.52-1,5-1.49,7.52C578.82,376.12,579.22,381.26,575.29,386Z" fill="#fff" opacity="0.3"/><path d="M529.05,348.12,527.69,330a15.21,15.21,0,0,1,7.57-2.39c3.11-.18,6.2-.69,9.3-1s6.2-.68,9.31-.86c8.93-.53,17.87-.9,26.8-1.51a8.3,8.3,0,0,1,6.24,1.69c-.82,5.64-1.7,11.22-2.39,16.82-.28,2.26-1.23,3.64-3.45,4.18-2.46.6-4.9,1.27-7.62,2l-1-4.87c-5.41.75-10.82,1.3-16.15,2.31-2.41.46-4.62,1.12-6.91-.6l-1.58,4.43Z" fill="#fff" opacity="0.3"/><path d="M571,346.35c.39,2.23-.31,3.55-2.48,3.71-5.77.43-11.53,1.4-17.31.27-.2,0-.33-.37-.77-.89,3.5-.86,6.8-1.91,10.18-2.42S567.33,346.56,571,346.35Z" fill="#fff" opacity="0.3"/><path d="M516.92,340.2l6.62-1.89c2,2.37,1.67,4.9,1.25,8C521.79,344.63,518.91,343.6,516.92,340.2Z" fill="#fff" opacity="0.3"/><path d="M549.7,354.23c.7-.85.93-1.38,1.18-1.39,6.17-.33,12.34-.6,18.58-.53-2.75,2.21-6.25,1.34-9.35,2.09C556.85,355.18,553.52,354.53,549.7,354.23Z" fill="#fff" opacity="0.3"/><path d="M533.64,397.76c-2.57-.56-2.57-.56-2.68-4.06C533.54,394.4,533.54,394.4,533.64,397.76Z" fill="#fff" opacity="0.3"/><path d="M95.29,430.38c-3.09,2.91-5.43,5.32-8,7.48-3.14,2.64-6.5,5-9.71,7.57-3.84,3.05-8.32,4.79-12.89,6.26-3,1-7.53-.71-9.17-3-2.44-3.47-2.8-7.78-.65-10.76a33.71,33.71,0,0,1,4.75-5.43c4.54-4,9.2-8,13.89-11.83A28,28,0,0,1,83.88,415a33,33,0,0,1,.25,3.76c-.39,7.61,1.17,9.66,8.52,11.06C93.18,429.91,93.71,430,95.29,430.38Z" fill="#fff" opacity="0.3"/><path d="M103.53,423.26c2.39-9.33.05-12.77-9.47-14.52,1.1-3.66,4.11-5.43,7.1-6.84,8-3.8,16.21-7.29,24.33-10.92,1.28-.57,2.48-.66,3.48.51,1.21,1.42,2.74,3,1.67,4.92-3.19,5.63-5.05,12.12-10,16.65a62.17,62.17,0,0,1-6.88,5,55.56,55.56,0,0,1-5.36,3.46A37.31,37.31,0,0,1,103.53,423.26Z" fill="#fff" opacity="0.3"/><path d="M100.36,413.94c.34,3.53.11,6.59-2,9.72-1.7,2.54-3.79,2.65-6.08,2.56s-3.29-2.12-3.69-4.08c-1.31-6.41,1.49-10.52,8.85-8.84Z" fill="#fff" opacity="0.3"/><path d="M51.63,453.47c-4.2-1.58-4.74-5.19-1.87-8.84Z" fill="#fff" opacity="0.3"/><path d="M59.5,453.48c-5.39.9-5.44.87-5.64-3Z" fill="#fff" opacity="0.3"/><path d="M113.35,393.14c2.46-2.17,6.89-3.59,9.69-3Z" fill="#fff" opacity="0.3"/><path d="M134.14,397.56v-4.42C136.49,393.61,136.49,393.61,134.14,397.56Z" fill="#fff" opacity="0.3"/><path d="M128.11,387.65l-1.85-.24.05-.68,2,.21Z" fill="#fff" opacity="0.3"/><path d="M519,209.86c1.43-6.56,4.36-12.66,6.86-19,2.31-5.82,7.06-9.1,11.32-13,1.1-1,2.67-1.49,4.55-2.5l1.44,2.46c4-.62,7.61-1.43,11.25-1.68a51.79,51.79,0,0,1,9.64.44c1,.12,1.84,1.33,2.79,2.06,1.43-.38,3.21-1.39,4.78-1.13s3.08,1.77,4.61,2.73c5.42,3.42,8.69,8.76,11,14.33,1.88,4.59,2.07,9.9,2.72,14.93.12.95-.87,2.29-1.71,3-1,.9-2.47,1.23-3.55,2.06-.91.7-2,1.67-2.21,2.67a280.66,280.66,0,0,1-7.2,30c-1.72,5.83-3.78,11.55-5.65,17.33-1.21,3.73-2.19,4.48-6,4.3-2-.09-4-.23-6-.33-2.27-.12-4.53-.27-6.8-.33-5.51-.13-11-.17-16.54-.34-4.85-.15-6.06-1.49-6.6-6.36-.37-3.38-1.25-6.7-1.54-10.08-.82-9.31-1.37-18.64-2.2-27.94a79.41,79.41,0,0,0-1.79-11.29C522,211.34,520.24,210.74,519,209.86Zm8.94,1.87.3.77a75,75,0,0,1,9.12-1.56c7.07-.37,14.16-.73,21.22-.46,8.06.31,16.09,1.31,24.14,2,.93.08,1.88,0,2.93,0a3,3,0,0,0-3.19-3c-8.61-.39-17.22-.86-25.83-1.18-8.77-.32-17.54-.48-26.31-.77-2.45-.08-4.78,0-6.81,1.66a37.32,37.32,0,0,0,6.33.13c.29,0,.59.44,1,.73Zm6.76,14.72c1.85,2.95,3.73,2.43,5.53,2.24a40.53,40.53,0,0,1,6.75-.6c5.5.36,11,1,16.48,1.58,2.54.26,5.14.94,7.89-1.45a17.31,17.31,0,0,0-2.79-.75c-3.67-.25-7.34-.4-11-.62q-6.58-.39-13.15-.84c-1.95-.13-3.89-.44-5.84-.43A19.91,19.91,0,0,0,534.71,226.46Zm3.5,14.31c.49.76.72,1.58,1.17,1.73a14.83,14.83,0,0,0,4.08.88c5.48.24,11,.36,16.45.51,1.19,0,2.24-.21,2.38-2.36ZM563,254.35c-6.23-1.49-18.66-.88-21.43,1.55l18.88.22a8.41,8.41,0,0,0,1.65-.1c.23,0,.46-.32.6-.55A5.31,5.31,0,0,0,563,254.35Z" fill="#fff" opacity="0.3"/><path d="M550.54,174l-2.47,1.59-.42-.56,2.21-1.79Z" fill="#fff" opacity="0.3"/><path d="M820.48,203.35c1.84,0,3.69.17,5.51,0,6.08-.57,12.18-1,18.2-2,4.73-.73,9.58-.27,14.26-1.94,2.29-.82,5-.35,7.71-.46,1.56,4.46-.14,8.54-.59,12.67-.08.7-.44,1.36-.49,2.06-.16,2.42.94,3.16,3.36,2.64,4.41-1,8.84-1.76,13.57-2.68,1.07,6.44-1.08,12.2-2.27,18.08s-.3,12.24-3,18.48c-3.93.32-8.13.89-12.33,1a114.12,114.12,0,0,0-22.84,2.21c-4.75,1.05-5,.9-5.79-3.84a158,158,0,0,0-8.59-29.26q-3.28-8.51-6.58-17Zm21.38,25.13c.49.11,1,.4,1.45.29a127.81,127.81,0,0,1,26.49-3.2c1.12,0,2.25-.46,1.93-2.56C861.71,224.2,851.59,224.4,841.86,228.48Zm1.27,9c4.28.52,7.63-1.24,11.12-1.5l11.13-.84C861.5,232.91,847.41,234.36,843.13,237.51Zm17.15-23.4c-1.88-3-4-2.32-5.78-2-4.32.73-8.62,1.64-12.9,2.56-.5.11-.89.72-1.75,1.46C847,217,852.86,212.28,860.28,214.11Z" fill="#fff" opacity="0.3"/><path d="M820.59,203.28l-3-1.19,1.95,4.73c-.57.19-1.18.42-1.8.59s-1.3.32-1.86.46c-4.57-6.05-4.51-16.55.37-23.41,6.3-8.85,14.94-14.81,24.94-18.49,6.27-2.31,13.14-3.16,19.7-1,4.91,1.63,9.28,4.11,12.68,8.65s5.66,9.78,9.09,14.27a5.61,5.61,0,0,1,1.13,4.36c-.34,2.93-.44,5.89-.9,8.8-.34,2.14-1.72,3.18-3.54,2.44-3.23-1.31-6.66-2.6-8-6.64-5-.29-9.95-.54-15,1.09-4,1.27-8.4,1.18-12.62,1.65-6.48.72-13,1.35-19.44,2.17-1.29.17-2.5,1-3.74,1.59Z" fill="#fff" opacity="0.3"/><path d="M731.32,482.67a164.39,164.39,0,0,0,59.13,2.25c.87,4.3-.52,8.73-.76,13.2-.07,1.27-.48,2.51-.59,3.78-.16,1.77-1.11,2.63-2.7,3.39-9.47,4.52-19.39,7.31-29.89,7.18-4.34-.05-8.63-1.58-13-2.07a21.35,21.35,0,0,1-10-4.24,4.11,4.11,0,0,1-2.15-3.41C731.3,496.13,731.32,489.51,731.32,482.67Z" fill="#fff" opacity="0.3"/><path d="M793.85,475.28a17.23,17.23,0,0,1-10.54,5.86c-6.73,1.15-13.43,2.18-20.28,2.05-6.66-.13-13.33.88-20-.56-3.94-.86-7.49-2.15-9.85-4.13a8.1,8.1,0,0,1,1.91-1.52c4.92-1.83,9.8-3.55,15.19-3.81,10.07-.48,20.11-1.57,30.17-2.09a31.67,31.67,0,0,1,9.19,1.24C791.13,472.7,792.32,474.15,793.85,475.28Z" fill="#fff" opacity="0.3"/><path d="M760.72,470.34l-8.22,1.14-.06-.37,8.07-1.12Z" fill="#fff" opacity="0.3"/><path d="M731,506.7l6,3.58C732.45,510.27,732.12,510.11,731,506.7Z" fill="#fff" opacity="0.3"/><path d="M784.73,510.8l-4.1,2-.36-1,4.51-.9Z" fill="#fff" opacity="0.3"/><path d="M784.78,510.86l5.31-2.37c-1.16,2.46-3.07,2.87-5.36,2.31Z" fill="#fff" opacity="0.3"/><path d="M786.75,482l2.78-1,.22.66-2.72,1Z" fill="#fff" opacity="0.3"/><path d="M768.83,470.4h-2.28v-.33l2.13-.13Z" fill="#fff" opacity="0.3"/><path d="M41,96.27c5-3.85,6.81-10.41,13.81-13.14l-3,19.29C47.09,101.93,44.49,98.61,41,96.27Z" fill="#fff" opacity="0.3"/><path d="M570.85,413.37l-.92,1.85a4,4,0,0,0,1.16.51c5.28.37,7.47,1.83,8.62,6.9s1.66,10,2.42,15c.29,1.93.5,3.87.79,6.09a8.92,8.92,0,0,1-2.11.13c-6.4-1.2-12.76-2.65-19.19-3.6a45.48,45.48,0,0,0-9.76,0c-3.12.22-6.2.82-9.86,1.34.9-3.17,1.36-6.43,2.73-9.23,2.56-5.2,5.56-10.13,10.18-14,3.76-3.13,8.1-4.59,12.66-5.63C568.54,412.6,569.69,413.16,570.85,413.37Zm-14,10.51c-3.84.68-4.36,4.14-5.61,7q2.75-3.55,5.5-7.1c.92-.58,2.35-.76,2-2.52C557.36,421.7,556.4,422.28,556.88,423.89Z" fill="#fff" opacity="0.3"/><path d="M541.71,454.35c-1-8-.65-9.58,2.69-10.44l-1.86,10.48Z" fill="#fff" opacity="0.3"/><path d="M546.24,455.29c1.22,2.16.54,2.81-1.91,2.61Z" fill="#fff" opacity="0.3"/><path d="M734.84,209.26l7.64,8.83c-4,.69-7.11,1.7-10.52,1.14C731.35,215.55,733.91,213.1,734.84,209.26Z" fill="#fff" opacity="0.3"/><path d="M12.55,32.66C12,27.2,13.24,24,17,19.7a3.65,3.65,0,0,1,1.07.35,20.3,20.3,0,0,1,1.66,1.45A42.61,42.61,0,0,1,12.55,32.66Z" fill="#fff" opacity="0.3"/><path d="M426.66,422.08c1.54,2,2.95,3.12,3.38,4.55.52,1.73.89,3.92-2,4.55-.7.15-1.18,1.33-2.23,2.62l1.39-6.3-.49-.3-2.15,2.31-.67-.32Z" fill="#fff" opacity="0.3"/><path d="M377.83,199.35l3.14-3.43c0,2.7-1.14,3.47-2.27,4.2Z" fill="#fff" opacity="0.3"/><path d="M51,25.68l-4.89,3a29.26,29.26,0,0,1,1.53-4.37c1.57-2.76,3.31-5.43,5-8.14,1.61.13,1.73.94,1.18,2.27C52.82,20.83,51.95,23.26,51,25.68Z" fill="#fff" opacity="0.3"/><path d="M736.13,351.85l-2.65,4.86A5.8,5.8,0,0,1,736.13,351.85Z" opacity="0.3"/><path d="M742.51,359.51v-3.77l.79.06-.77,3.7Z" opacity="0.3"/><path d="M46.64,277.08c-1.07-3.07-1.24-6.2,1-9.05Z" opacity="0.3"/><path d="M52.33,271l-.86,6.33C50,274,50,274,52.33,271Z" opacity="0.3"/><path d="M61,283.91a16.14,16.14,0,0,1-.32-9.12l.89,0Z" opacity="0.3"/><path d="M57.2,270c1.84,3-.84,5.57-.19,9.38-2.16-3.93.18-6.55.2-9.37Z" opacity="0.3"/><path d="M65.7,287.35l.86,3.89C65,289.43,65,289.43,65.7,287.35Z" opacity="0.3"/><path d="M84.59,266l-1.23,6.15-.9-.19,1.42-6.11Z" opacity="0.3"/><path d="M433.73,143.49c6.75-.53,13.44-1.5,20.59.2-2.46,2.48-4.87.51-7,.83a32.08,32.08,0,0,1-6.81.09C438.2,144.46,435.76,145.43,433.73,143.49Z" opacity="0.3"/><path d="M434,133.89c6.23-1.36,12.5-3.47,18.92-1.14C446.6,132.86,440.38,134.6,434,133.89Z" opacity="0.3"/><path d="M444,125.88c-3.57.78-7,3.08-11.76.35l11.68-1.38Z" opacity="0.3"/><path d="M528,211.73l2.87-1.66c-.37-.29-.68-.74-1-.73a37.32,37.32,0,0,1-6.33-.13c2-1.63,4.37-1.74,6.81-1.66,8.77.29,17.54.44,26.31.77,8.61.32,17.22.79,25.83,1.18a3,3,0,0,1,3.19,3c-1.05,0-2,.07-2.93,0-8-.68-16.08-1.68-24.14-2-7.06-.27-14.16.1-21.22.46a75,75,0,0,0-9.12,1.56Z" opacity="0.3"/><path d="M534.71,226.46a19.91,19.91,0,0,1,3.86-.87c1.95,0,3.89.3,5.84.43q6.57.44,13.15.84c3.67.22,7.34.37,11,.62a17.31,17.31,0,0,1,2.79.75c-2.74,2.39-5.34,1.71-7.89,1.45-5.49-.56-11-1.22-16.48-1.58a40.53,40.53,0,0,0-6.75.6C538.44,228.89,536.56,229.4,534.71,226.46Z" opacity="0.3"/><path d="M538.21,240.77l24.08.76c-.13,2.15-1.19,2.39-2.38,2.36-5.48-.14-11-.26-16.45-.51a14.83,14.83,0,0,1-4.08-.88C538.93,242.35,538.7,241.52,538.21,240.77Z" opacity="0.3"/><path d="M563,254.35a5.31,5.31,0,0,1-.3,1.12c-.14.23-.37.51-.6.55a8.41,8.41,0,0,1-1.65.1l-18.88-.22C544.35,253.47,556.78,252.86,563,254.35Z" opacity="0.3"/><path d="M841.86,228.48c9.73-4.08,19.85-4.28,29.87-5.47.32,2.1-.81,2.54-1.93,2.56a127.81,127.81,0,0,0-26.49,3.2C842.88,228.88,842.35,228.59,841.86,228.48Z" opacity="0.3"/><path d="M843.13,237.51c4.28-3.14,18.37-4.59,22.25-2.35l-11.13.84C850.76,236.26,847.41,238,843.13,237.51Z" opacity="0.3"/><path d="M860.28,214.11c-7.42-1.83-13.27,2.89-20.43,2,.86-.74,1.25-1.36,1.75-1.46,4.29-.92,8.58-1.83,12.9-2.56C856.3,211.78,858.4,211.12,860.28,214.11Z" opacity="0.3"/><path d="M556.77,423.79l-5.5,7.09c1.25-2.85,1.77-6.32,5.61-7Z" opacity="0.3"/><path d="M556.88,423.89c-.48-1.61.49-2.19,1.85-2.63.39,1.76-1,1.94-2,2.52Z" opacity="0.3"/></g></g></svg>