<svg xmlns="http://www.w3.org/2000/svg" xmlns:xlink="http://www.w3.org/1999/xlink" viewBox="1350 0 1280 800">
  <defs>
    <style>
      .cls-1 {
        clip-path: url(#clip-Sign_up_screen);
      }

      .cls-2 {
        fill: #707070;
      }

      .cls-3 {
        fill: #e5e5e5;
      }

      .cls-4, .cls-7 {
        fill: #fff;
      }

      .cls-4 {
        stroke: #707070;
      }

      .cls-5 {
        stroke: none;
      }

      .cls-6 {
        fill: none;
      }
    </style>
    <clipPath id="clip-Sign_up_screen">
      <rect x="1350" width="1280" height="800"/>
    </clipPath>
  </defs>
  <g id="Sign_up_screen" data-name="Sign up screen" class="cls-1">
    <rect class="cls-7" x="1350" width="1280" height="800"/>
    <path id="Path_2" data-name="Path 2" class="cls-2" d="M2.76-28.56V0h3.4V-28.56ZM13.92-10.32a10.288,10.288,0,0,1,.5-3.34,7.208,7.208,0,0,1,1.38-2.46,5.877,5.877,0,0,1,2.06-1.52,6.131,6.131,0,0,1,2.5-.52,6.131,6.131,0,0,1,2.5.52,5.877,5.877,0,0,1,2.06,1.52,7.208,7.208,0,0,1,1.38,2.46,10.288,10.288,0,0,1,.5,3.34,10.288,10.288,0,0,1-.5,3.34,6.988,6.988,0,0,1-1.38,2.44,5.988,5.988,0,0,1-2.06,1.5,6.131,6.131,0,0,1-2.5.52,6.131,6.131,0,0,1-2.5-.52,5.988,5.988,0,0,1-2.06-1.5,6.988,6.988,0,0,1-1.38-2.44A10.288,10.288,0,0,1,13.92-10.32Zm-3.6,0a13.584,13.584,0,0,0,.64,4.24,9.678,9.678,0,0,0,1.92,3.42A8.833,8.833,0,0,0,16.04-.38a10.716,10.716,0,0,0,4.32.82A10.68,10.68,0,0,0,24.7-.38a8.874,8.874,0,0,0,3.14-2.28,9.678,9.678,0,0,0,1.92-3.42,13.584,13.584,0,0,0,.64-4.24,13.773,13.773,0,0,0-.64-4.26,9.652,9.652,0,0,0-1.92-3.44,9.09,9.09,0,0,0-3.14-2.3,10.458,10.458,0,0,0-4.34-.84,10.493,10.493,0,0,0-4.32.84,9.044,9.044,0,0,0-3.16,2.3,9.652,9.652,0,0,0-1.92,3.44A13.773,13.773,0,0,0,10.32-10.32ZM52.24-1.76V-20.68h-3.2v2.96H49a6.052,6.052,0,0,0-2.56-2.58,7.633,7.633,0,0,0-3.6-.86,9.21,9.21,0,0,0-4.52,1.02,8.771,8.771,0,0,0-2.96,2.6,10.308,10.308,0,0,0-1.6,3.52,15.71,15.71,0,0,0-.48,3.78,13.7,13.7,0,0,0,.58,4.02A9.626,9.626,0,0,0,35.6-2.9,8.455,8.455,0,0,0,38.48-.64,9.109,9.109,0,0,0,42.52.2,8.264,8.264,0,0,0,46.3-.7a5.715,5.715,0,0,0,2.66-2.82h.08v1.36A13.751,13.751,0,0,1,48.7,1a6.6,6.6,0,0,1-1.1,2.46,5.331,5.331,0,0,1-1.92,1.6,6.3,6.3,0,0,1-2.84.58,9.17,9.17,0,0,1-1.76-.18,6.4,6.4,0,0,1-1.7-.58,4.231,4.231,0,0,1-1.32-1.04,2.515,2.515,0,0,1-.58-1.56h-3.4a5.345,5.345,0,0,0,.88,2.84A6.336,6.336,0,0,0,36.98,7,9.008,9.008,0,0,0,39.7,8.04a14.068,14.068,0,0,0,2.94.32q4.96,0,7.28-2.52T52.24-1.76Zm-9.52-1a5.192,5.192,0,0,1-2.8-.7,5.4,5.4,0,0,1-1.8-1.84,7.965,7.965,0,0,1-.96-2.54,14.245,14.245,0,0,1-.28-2.8,11.668,11.668,0,0,1,.34-2.84,7.039,7.039,0,0,1,1.08-2.4,5.444,5.444,0,0,1,1.9-1.66,5.869,5.869,0,0,1,2.8-.62,5.4,5.4,0,0,1,2.72.64,5.3,5.3,0,0,1,1.82,1.7,7.476,7.476,0,0,1,1.02,2.38,11.335,11.335,0,0,1,.32,2.68,12.5,12.5,0,0,1-.34,2.88A8.41,8.41,0,0,1,47.48-5.3a5.578,5.578,0,0,1-1.9,1.84A5.511,5.511,0,0,1,42.72-2.76Zm17.12-7.56a10.288,10.288,0,0,1,.5-3.34,7.208,7.208,0,0,1,1.38-2.46,5.877,5.877,0,0,1,2.06-1.52,6.131,6.131,0,0,1,2.5-.52,6.131,6.131,0,0,1,2.5.52,5.877,5.877,0,0,1,2.06,1.52,7.208,7.208,0,0,1,1.38,2.46,10.288,10.288,0,0,1,.5,3.34,10.288,10.288,0,0,1-.5,3.34,6.988,6.988,0,0,1-1.38,2.44,5.988,5.988,0,0,1-2.06,1.5,6.131,6.131,0,0,1-2.5.52,6.131,6.131,0,0,1-2.5-.52,5.988,5.988,0,0,1-2.06-1.5,6.988,6.988,0,0,1-1.38-2.44A10.288,10.288,0,0,1,59.84-10.32Zm-3.6,0a13.584,13.584,0,0,0,.64,4.24A9.678,9.678,0,0,0,58.8-2.66,8.833,8.833,0,0,0,61.96-.38a10.716,10.716,0,0,0,4.32.82,10.68,10.68,0,0,0,4.34-.82,8.875,8.875,0,0,0,3.14-2.28,9.678,9.678,0,0,0,1.92-3.42,13.584,13.584,0,0,0,.64-4.24,13.773,13.773,0,0,0-.64-4.26,9.652,9.652,0,0,0-1.92-3.44,9.091,9.091,0,0,0-3.14-2.3,10.458,10.458,0,0,0-4.34-.84,10.493,10.493,0,0,0-4.32.84,9.044,9.044,0,0,0-3.16,2.3,9.652,9.652,0,0,0-1.92,3.44A13.773,13.773,0,0,0,56.24-10.32Z" transform="translate(1438 62)"/>
    <rect id="Rectangle_11" data-name="Rectangle 11" class="cls-3" width="522.916" height="596.048" transform="translate(1729 144.469)"/>
    <path id="Path_3" data-name="Path 3" class="cls-2" d="M14.73-15.15h2.7a7.551,7.551,0,0,0-.675-3.045,5.933,5.933,0,0,0-1.68-2.115A6.93,6.93,0,0,0,12.6-21.54a11.445,11.445,0,0,0-3.06-.39,10.988,10.988,0,0,0-2.865.375,7.877,7.877,0,0,0-2.49,1.14,5.77,5.77,0,0,0-1.755,1.95,5.675,5.675,0,0,0-.66,2.8,4.684,4.684,0,0,0,.585,2.445,4.743,4.743,0,0,0,1.56,1.59,9.066,9.066,0,0,0,2.2.99q1.23.375,2.505.66t2.505.555a11.421,11.421,0,0,1,2.2.705,4.3,4.3,0,0,1,1.56,1.125,2.688,2.688,0,0,1,.585,1.8A3.5,3.5,0,0,1,15-3.87a3.493,3.493,0,0,1-1.26,1.185,5.7,5.7,0,0,1-1.755.615,10.64,10.64,0,0,1-1.935.18,9.156,9.156,0,0,1-2.34-.3,5.823,5.823,0,0,1-1.995-.93,4.774,4.774,0,0,1-1.38-1.6A4.838,4.838,0,0,1,3.81-7.05H1.11a7.532,7.532,0,0,0,.7,3.375,6.471,6.471,0,0,0,1.92,2.34A8.409,8.409,0,0,0,6.555.03a12.559,12.559,0,0,0,3.4.45A13.022,13.022,0,0,0,12.915.135,8.551,8.551,0,0,0,15.6-.975a6.3,6.3,0,0,0,1.965-1.98A5.378,5.378,0,0,0,18.33-5.88a5.372,5.372,0,0,0-.585-2.64,5.212,5.212,0,0,0-1.56-1.74,8.263,8.263,0,0,0-2.2-1.1q-1.23-.4-2.505-.7t-2.5-.555a13.117,13.117,0,0,1-2.205-.645,4.338,4.338,0,0,1-1.56-1A2.233,2.233,0,0,1,4.62-15.87a3.479,3.479,0,0,1,.405-1.755,3.15,3.15,0,0,1,1.08-1.125,4.7,4.7,0,0,1,1.545-.6,8.713,8.713,0,0,1,1.77-.18A6.048,6.048,0,0,1,13.065-18.5,4.463,4.463,0,0,1,14.73-15.15Zm9.33-3.15v-3.12H21.51v3.12Zm-2.55,2.79V0h2.55V-15.51ZM41.4-1.32V-15.51H39v2.22h-.03a4.539,4.539,0,0,0-1.92-1.935,5.725,5.725,0,0,0-2.7-.645,6.907,6.907,0,0,0-3.39.765,6.578,6.578,0,0,0-2.22,1.95,7.731,7.731,0,0,0-1.2,2.64,11.783,11.783,0,0,0-.36,2.835,10.271,10.271,0,0,0,.435,3.015,7.219,7.219,0,0,0,1.305,2.49A6.341,6.341,0,0,0,31.08-.48a6.832,6.832,0,0,0,3.03.63,6.2,6.2,0,0,0,2.835-.675,4.286,4.286,0,0,0,2-2.115H39v1.02A10.313,10.313,0,0,1,38.745.75a4.952,4.952,0,0,1-.825,1.845,4,4,0,0,1-1.44,1.2,4.728,4.728,0,0,1-2.13.435A6.878,6.878,0,0,1,33.03,4.1a4.8,4.8,0,0,1-1.275-.435,3.173,3.173,0,0,1-.99-.78,1.886,1.886,0,0,1-.435-1.17H27.78a4.009,4.009,0,0,0,.66,2.13,4.752,4.752,0,0,0,1.515,1.41A6.756,6.756,0,0,0,32,6.03a10.551,10.551,0,0,0,2.2.24q3.72,0,5.46-1.89T41.4-1.32Zm-7.14-.75a3.894,3.894,0,0,1-2.1-.525,4.051,4.051,0,0,1-1.35-1.38,5.974,5.974,0,0,1-.72-1.9,10.684,10.684,0,0,1-.21-2.1,8.751,8.751,0,0,1,.255-2.13,5.279,5.279,0,0,1,.81-1.8,4.083,4.083,0,0,1,1.425-1.245,4.4,4.4,0,0,1,2.1-.465,4.051,4.051,0,0,1,2.04.48,3.974,3.974,0,0,1,1.365,1.275,5.607,5.607,0,0,1,.765,1.785,8.5,8.5,0,0,1,.24,2.01,9.371,9.371,0,0,1-.255,2.16,6.308,6.308,0,0,1-.795,1.935A4.184,4.184,0,0,1,36.4-2.595,4.133,4.133,0,0,1,34.26-2.07ZM45.24-15.51V0h2.55V-8.76a6.283,6.283,0,0,1,.285-1.935,4.395,4.395,0,0,1,.855-1.545,3.8,3.8,0,0,1,1.425-1.02,5.2,5.2,0,0,1,2.025-.36,3.122,3.122,0,0,1,2.31.84,3.081,3.081,0,0,1,.84,2.28V0h2.55V-10.2a9.6,9.6,0,0,0-.255-2.3,4.346,4.346,0,0,0-.885-1.785,4.192,4.192,0,0,0-1.65-1.17,6.731,6.731,0,0,0-2.55-.42,5.369,5.369,0,0,0-5.04,2.82h-.06v-2.46ZM83.1,0V-15.51H80.55v8.76a6.283,6.283,0,0,1-.285,1.935A4.395,4.395,0,0,1,79.41-3.27a3.8,3.8,0,0,1-1.425,1.02,5.2,5.2,0,0,1-2.025.36,3.122,3.122,0,0,1-2.31-.84,3.081,3.081,0,0,1-.84-2.28v-10.5H70.26v10.2a9.6,9.6,0,0,0,.255,2.295A4.346,4.346,0,0,0,71.4-1.23,4.066,4.066,0,0,0,73.05-.075a6.955,6.955,0,0,0,2.55.4,6.2,6.2,0,0,0,2.97-.675A5.211,5.211,0,0,0,80.64-2.46h.06V0Zm3.93-15.51V5.91h2.55V-2.07h.06A4.108,4.108,0,0,0,90.675-.915,5.451,5.451,0,0,0,91.98-.18a7.082,7.082,0,0,0,1.4.39A7.665,7.665,0,0,0,94.65.33,7.2,7.2,0,0,0,97.755-.3a6.223,6.223,0,0,0,2.22-1.725,7.346,7.346,0,0,0,1.32-2.565,10.942,10.942,0,0,0,.435-3.12,10.6,10.6,0,0,0-.45-3.12,7.884,7.884,0,0,0-1.335-2.595,6.377,6.377,0,0,0-2.22-1.785,7,7,0,0,0-3.135-.66,7.391,7.391,0,0,0-2.97.585,3.818,3.818,0,0,0-1.98,1.875h-.06v-2.1Zm12,7.62a10.2,10.2,0,0,1-.24,2.22,5.873,5.873,0,0,1-.78,1.92A4.1,4.1,0,0,1,96.585-2.4a4.36,4.36,0,0,1-2.205.51,4.733,4.733,0,0,1-2.25-.5A4.367,4.367,0,0,1,90.615-3.69a5.457,5.457,0,0,1-.855-1.875,8.938,8.938,0,0,1-.27-2.2,8.994,8.994,0,0,1,.255-2.13,5.582,5.582,0,0,1,.825-1.875,4.389,4.389,0,0,1,1.47-1.335,4.379,4.379,0,0,1,2.19-.51,4.555,4.555,0,0,1,2.145.48,4.263,4.263,0,0,1,1.5,1.29,5.708,5.708,0,0,1,.87,1.845A7.93,7.93,0,0,1,99.03-7.89Z" transform="translate(1735 133)"/>
    <path id="Path_4" data-name="Path 4" class="cls-2" d="M17.36,4.72V19h9.46V17.4H19.26V4.72Zm12.08,9.12a5.144,5.144,0,0,1,.25-1.67,3.6,3.6,0,0,1,.69-1.23,2.938,2.938,0,0,1,1.03-.76,3.135,3.135,0,0,1,2.5,0,2.938,2.938,0,0,1,1.03.76,3.6,3.6,0,0,1,.69,1.23,5.144,5.144,0,0,1,.25,1.67,5.144,5.144,0,0,1-.25,1.67,3.494,3.494,0,0,1-.69,1.22,2.994,2.994,0,0,1-1.03.75,3.135,3.135,0,0,1-2.5,0,2.994,2.994,0,0,1-1.03-.75,3.494,3.494,0,0,1-.69-1.22A5.144,5.144,0,0,1,29.44,13.84Zm-1.8,0a6.792,6.792,0,0,0,.32,2.12,4.839,4.839,0,0,0,.96,1.71,4.416,4.416,0,0,0,1.58,1.14,5.921,5.921,0,0,0,4.33,0,4.437,4.437,0,0,0,1.57-1.14,4.839,4.839,0,0,0,.96-1.71,6.792,6.792,0,0,0,.32-2.12,6.887,6.887,0,0,0-.32-2.13,4.826,4.826,0,0,0-.96-1.72,4.545,4.545,0,0,0-1.57-1.15,5.79,5.79,0,0,0-4.33,0,4.522,4.522,0,0,0-1.58,1.15,4.826,4.826,0,0,0-.96,1.72A6.887,6.887,0,0,0,27.64,13.84ZM48.6,18.12V8.66H47v1.48h-.02A3.026,3.026,0,0,0,45.7,8.85a3.816,3.816,0,0,0-1.8-.43,4.6,4.6,0,0,0-2.26.51,4.385,4.385,0,0,0-1.48,1.3,5.154,5.154,0,0,0-.8,1.76,7.855,7.855,0,0,0-.24,1.89,6.848,6.848,0,0,0,.29,2.01,4.813,4.813,0,0,0,.87,1.66,4.227,4.227,0,0,0,1.44,1.13,4.555,4.555,0,0,0,2.02.42,4.132,4.132,0,0,0,1.89-.45,2.858,2.858,0,0,0,1.33-1.41H47v.68a6.875,6.875,0,0,1-.17,1.58,3.3,3.3,0,0,1-.55,1.23,2.666,2.666,0,0,1-.96.8,3.152,3.152,0,0,1-1.42.29,4.585,4.585,0,0,1-.88-.09,3.2,3.2,0,0,1-.85-.29,2.115,2.115,0,0,1-.66-.52,1.258,1.258,0,0,1-.29-.78h-1.7a2.673,2.673,0,0,0,.44,1.42,3.168,3.168,0,0,0,1.01.94,4.5,4.5,0,0,0,1.36.52,7.034,7.034,0,0,0,1.47.16,4.726,4.726,0,0,0,3.64-1.26A5.445,5.445,0,0,0,48.6,18.12Zm-4.76-.5a2.6,2.6,0,0,1-1.4-.35,2.7,2.7,0,0,1-.9-.92,3.983,3.983,0,0,1-.48-1.27,7.122,7.122,0,0,1-.14-1.4,5.834,5.834,0,0,1,.17-1.42,3.52,3.52,0,0,1,.54-1.2,2.722,2.722,0,0,1,.95-.83,2.934,2.934,0,0,1,1.4-.31,2.7,2.7,0,0,1,1.36.32,2.649,2.649,0,0,1,.91.85,3.738,3.738,0,0,1,.51,1.19,5.668,5.668,0,0,1,.16,1.34,6.247,6.247,0,0,1-.17,1.44,4.2,4.2,0,0,1-.53,1.29,2.789,2.789,0,0,1-.95.92A2.756,2.756,0,0,1,43.84,17.62ZM58.52,6.8V4.72h-1.7V6.8Zm-1.7,1.86V19h1.7V8.66Zm4.34,0V19h1.7V13.16a4.189,4.189,0,0,1,.19-1.29,2.93,2.93,0,0,1,.57-1.03,2.531,2.531,0,0,1,.95-.68,3.465,3.465,0,0,1,1.35-.24,2.081,2.081,0,0,1,1.54.56A2.054,2.054,0,0,1,68.02,12v7h1.7V12.2a6.4,6.4,0,0,0-.17-1.53,2.9,2.9,0,0,0-.59-1.19,2.8,2.8,0,0,0-1.1-.78,4.487,4.487,0,0,0-1.7-.28A3.579,3.579,0,0,0,62.8,10.3h-.04V8.66Z" transform="translate(2163 115)"/>
    <g id="Rectangle_12" data-name="Rectangle 12" class="cls-4" transform="translate(1811 322)">
      <rect class="cls-5" width="358" height="59"/>
      <rect class="cls-6" x="0.5" y="0.5" width="357" height="58"/>
    </g>
    <g id="Rectangle_13" data-name="Rectangle 13" class="cls-4" transform="translate(1811 431)">
      <rect class="cls-5" width="358" height="59"/>
      <rect class="cls-6" x="0.5" y="0.5" width="357" height="58"/>
    </g>
    <g id="Rectangle_14" data-name="Rectangle 14" class="cls-4" transform="translate(1811 540)">
      <rect class="cls-5" width="358" height="59"/>
      <rect class="cls-6" x="0.5" y="0.5" width="357" height="58"/>
    </g>
    <g id="Rectangle_15" data-name="Rectangle 15" class="cls-4" transform="translate(1811 649)">
      <rect class="cls-5" width="358" height="59"/>
      <rect class="cls-6" x="0.5" y="0.5" width="357" height="58"/>
    </g>
    <g id="Rectangle_16" data-name="Rectangle 16" class="cls-4" transform="translate(1811 181)">
      <rect class="cls-5" width="358" height="59"/>
      <rect class="cls-6" x="0.5" y="0.5" width="357" height="58"/>
    </g>
    <path id="Path_7" data-name="Path 7" class="cls-2" d="M1.54,4.72V19h1.8V7.54h.04L10.84,19h2.08V4.72h-1.8V16.3h-.04L3.56,4.72ZM24.88,18.96V17.64a1.684,1.684,0,0,1-.52.1q-.4,0-.47-.28a3.979,3.979,0,0,1-.07-.88V11.26a2.784,2.784,0,0,0-.34-1.46,2.4,2.4,0,0,0-.9-.87,3.633,3.633,0,0,0-1.25-.41,9.679,9.679,0,0,0-1.39-.1,7.274,7.274,0,0,0-1.64.18,4.023,4.023,0,0,0-1.38.59,3.033,3.033,0,0,0-.96,1.07,3.672,3.672,0,0,0-.4,1.62h1.7a1.74,1.74,0,0,1,.78-1.55,3.6,3.6,0,0,1,1.8-.41,5.588,5.588,0,0,1,.81.06,2.2,2.2,0,0,1,.74.24,1.44,1.44,0,0,1,.54.52,1.7,1.7,0,0,1,.21.9.928.928,0,0,1-.28.73,1.849,1.849,0,0,1-.76.38,7.41,7.41,0,0,1-1.11.2q-.63.07-1.33.21-.66.12-1.29.3a3.62,3.62,0,0,0-1.12.53,2.617,2.617,0,0,0-.79.91,3.037,3.037,0,0,0-.3,1.44,2.994,2.994,0,0,0,.27,1.33,2.446,2.446,0,0,0,.74.9,2.972,2.972,0,0,0,1.09.5,5.6,5.6,0,0,0,1.32.15,5.388,5.388,0,0,0,2.01-.37,4.067,4.067,0,0,0,1.63-1.21,1.608,1.608,0,0,0,.39,1.21,1.463,1.463,0,0,0,1.05.37A2.4,2.4,0,0,0,24.88,18.96Zm-2.76-5.3V15.4a1.922,1.922,0,0,1-.18.77,2.288,2.288,0,0,1-.56.76,3.029,3.029,0,0,1-.98.58,4.027,4.027,0,0,1-1.44.23,3.539,3.539,0,0,1-.75-.08,1.845,1.845,0,0,1-.64-.26,1.417,1.417,0,0,1-.44-.47,1.382,1.382,0,0,1-.17-.71,1.6,1.6,0,0,1,.29-1.01,1.892,1.892,0,0,1,.75-.57,4.228,4.228,0,0,1,1.04-.29q.58-.09,1.15-.16t1.09-.18A2.116,2.116,0,0,0,22.12,13.66Zm4.34-5V19h1.7V12.56a2.468,2.468,0,0,1,.15-.75,2.878,2.878,0,0,1,1.34-1.59,2.539,2.539,0,0,1,1.27-.3,2.286,2.286,0,0,1,.95.17,1.448,1.448,0,0,1,.59.48,1.952,1.952,0,0,1,.31.73,4.394,4.394,0,0,1,.09.92V19h1.7V12.56a2.6,2.6,0,0,1,.72-1.92,2.676,2.676,0,0,1,1.98-.72,2.425,2.425,0,0,1,1.01.18,1.5,1.5,0,0,1,.61.49,1.838,1.838,0,0,1,.3.73,4.809,4.809,0,0,1,.08.9V19h1.7V11.42a3.4,3.4,0,0,0-.25-1.37,2.4,2.4,0,0,0-.7-.93,2.924,2.924,0,0,0-1.08-.53,5.413,5.413,0,0,0-1.41-.17,3.865,3.865,0,0,0-1.87.46,3.61,3.61,0,0,0-1.37,1.3,2.24,2.24,0,0,0-1.1-1.36,4.03,4.03,0,0,0-5.08,1.36h-.04V8.66ZM50.7,12.84H44.76a3.541,3.541,0,0,1,.26-1.13,3.014,3.014,0,0,1,.6-.93,2.748,2.748,0,0,1,.91-.63,2.96,2.96,0,0,1,1.19-.23,2.908,2.908,0,0,1,1.17.23,2.944,2.944,0,0,1,.92.62,2.914,2.914,0,0,1,.62.93A3.478,3.478,0,0,1,50.7,12.84Zm1.64,2.88H50.66a2.417,2.417,0,0,1-.91,1.52,2.942,2.942,0,0,1-1.77.5,3.521,3.521,0,0,1-1.46-.28,2.862,2.862,0,0,1-1.02-.75,2.922,2.922,0,0,1-.58-1.08,4.1,4.1,0,0,1-.16-1.29H52.5a8.232,8.232,0,0,0-.17-1.98,5.732,5.732,0,0,0-.76-1.92,4.529,4.529,0,0,0-1.46-1.45,4.242,4.242,0,0,0-2.29-.57,4.7,4.7,0,0,0-1.95.4,4.583,4.583,0,0,0-1.54,1.12,5.162,5.162,0,0,0-1.01,1.7,6.222,6.222,0,0,0-.36,2.16,8.288,8.288,0,0,0,.35,2.18,4.758,4.758,0,0,0,.93,1.72,4.238,4.238,0,0,0,1.53,1.12,5.311,5.311,0,0,0,2.15.4,4.694,4.694,0,0,0,2.92-.88A4.132,4.132,0,0,0,52.34,15.72ZM57,6.98V4.72H55.94V6.98l-2.12-.8-.36.96,2.12.76-1.3,1.82.9.62,1.3-1.92,1.38,1.92.82-.62L57.36,7.9l2.18-.76-.4-.96Z" transform="translate(1828 292)"/>
    <path id="Path_9" data-name="Path 9" class="cls-2" d="M1.56,4.72V19h9.92V17.4H3.46V12.46h7.42v-1.6H3.46V6.32h7.96V4.72ZM13.5,8.66V19h1.7V12.56a2.468,2.468,0,0,1,.15-.75,2.878,2.878,0,0,1,1.34-1.59,2.539,2.539,0,0,1,1.27-.3,2.286,2.286,0,0,1,.95.17,1.448,1.448,0,0,1,.59.48,1.952,1.952,0,0,1,.31.73,4.394,4.394,0,0,1,.09.92V19h1.7V12.56a2.6,2.6,0,0,1,.72-1.92,2.676,2.676,0,0,1,1.98-.72,2.425,2.425,0,0,1,1.01.18,1.5,1.5,0,0,1,.61.49,1.838,1.838,0,0,1,.3.73,4.809,4.809,0,0,1,.08.9V19H28V11.42a3.4,3.4,0,0,0-.25-1.37,2.4,2.4,0,0,0-.7-.93,2.924,2.924,0,0,0-1.08-.53,5.413,5.413,0,0,0-1.41-.17,3.865,3.865,0,0,0-1.87.46,3.61,3.61,0,0,0-1.37,1.3,2.24,2.24,0,0,0-1.1-1.36,3.757,3.757,0,0,0-1.74-.4,3.76,3.76,0,0,0-3.34,1.76H15.1V8.66Zm26.22,10.3V17.64a1.684,1.684,0,0,1-.52.1q-.4,0-.47-.28a3.979,3.979,0,0,1-.07-.88V11.26a2.784,2.784,0,0,0-.34-1.46,2.4,2.4,0,0,0-.9-.87,3.633,3.633,0,0,0-1.25-.41,9.679,9.679,0,0,0-1.39-.1,7.274,7.274,0,0,0-1.64.18,4.023,4.023,0,0,0-1.38.59,3.033,3.033,0,0,0-.96,1.07,3.672,3.672,0,0,0-.4,1.62h1.7a1.74,1.74,0,0,1,.78-1.55,3.6,3.6,0,0,1,1.8-.41,5.588,5.588,0,0,1,.81.06,2.2,2.2,0,0,1,.74.24,1.44,1.44,0,0,1,.54.52,1.7,1.7,0,0,1,.21.9.928.928,0,0,1-.28.73,1.85,1.85,0,0,1-.76.38,7.41,7.41,0,0,1-1.11.2q-.63.07-1.33.21-.66.12-1.29.3a3.62,3.62,0,0,0-1.12.53,2.617,2.617,0,0,0-.79.91,3.037,3.037,0,0,0-.3,1.44,2.994,2.994,0,0,0,.27,1.33,2.446,2.446,0,0,0,.74.9,2.972,2.972,0,0,0,1.09.5,5.6,5.6,0,0,0,1.32.15,5.388,5.388,0,0,0,2.01-.37,4.067,4.067,0,0,0,1.63-1.21,1.608,1.608,0,0,0,.39,1.21,1.463,1.463,0,0,0,1.05.37A2.4,2.4,0,0,0,39.72,18.96Zm-2.76-5.3V15.4a1.922,1.922,0,0,1-.18.77,2.288,2.288,0,0,1-.56.76,3.029,3.029,0,0,1-.98.58,4.027,4.027,0,0,1-1.44.23,3.539,3.539,0,0,1-.75-.08,1.845,1.845,0,0,1-.64-.26,1.417,1.417,0,0,1-.44-.47,1.382,1.382,0,0,1-.17-.71,1.6,1.6,0,0,1,.29-1.01,1.892,1.892,0,0,1,.75-.57,4.228,4.228,0,0,1,1.04-.29q.58-.09,1.15-.16t1.09-.18A2.116,2.116,0,0,0,36.96,13.66ZM43.1,6.8V4.72H41.4V6.8ZM41.4,8.66V19h1.7V8.66Zm4.44-3.94V19h1.7V4.72Zm7.08,2.26V4.72H51.86V6.98l-2.12-.8-.36.96,2.12.76L50.2,9.72l.9.62,1.3-1.92,1.38,1.92.82-.62L53.28,7.9l2.18-.76-.4-.96Z" transform="translate(1828 401)"/>
    <path id="Path_11" data-name="Path 11" class="cls-2" d="M3.46,11.56V6.32H7.18a3.494,3.494,0,0,1,2.37.67,2.479,2.479,0,0,1,.75,1.95,2.511,2.511,0,0,1-.75,1.96,3.393,3.393,0,0,1-2.37.66ZM1.56,4.72V19h1.9V13.16H7.82a4.35,4.35,0,0,0,3.27-1.1A4.239,4.239,0,0,0,12.2,8.94a4.2,4.2,0,0,0-1.11-3.11A4.434,4.434,0,0,0,7.82,4.72ZM23.4,18.96V17.64a1.684,1.684,0,0,1-.52.1q-.4,0-.47-.28a3.979,3.979,0,0,1-.07-.88V11.26A2.784,2.784,0,0,0,22,9.8a2.4,2.4,0,0,0-.9-.87,3.633,3.633,0,0,0-1.25-.41,9.679,9.679,0,0,0-1.39-.1,7.274,7.274,0,0,0-1.64.18,4.023,4.023,0,0,0-1.38.59,3.033,3.033,0,0,0-.96,1.07,3.672,3.672,0,0,0-.4,1.62h1.7a1.74,1.74,0,0,1,.78-1.55,3.6,3.6,0,0,1,1.8-.41,5.588,5.588,0,0,1,.81.06,2.2,2.2,0,0,1,.74.24,1.44,1.44,0,0,1,.54.52,1.7,1.7,0,0,1,.21.9.928.928,0,0,1-.28.73,1.849,1.849,0,0,1-.76.38,7.41,7.41,0,0,1-1.11.2q-.63.07-1.33.21-.66.12-1.29.3a3.62,3.62,0,0,0-1.12.53,2.617,2.617,0,0,0-.79.91,3.037,3.037,0,0,0-.3,1.44,2.994,2.994,0,0,0,.27,1.33,2.446,2.446,0,0,0,.74.9,2.972,2.972,0,0,0,1.09.5,5.6,5.6,0,0,0,1.32.15,5.388,5.388,0,0,0,2.01-.37,4.067,4.067,0,0,0,1.63-1.21,1.608,1.608,0,0,0,.39,1.21,1.463,1.463,0,0,0,1.05.37A2.4,2.4,0,0,0,23.4,18.96Zm-2.76-5.3V15.4a1.922,1.922,0,0,1-.18.77,2.288,2.288,0,0,1-.56.76,3.029,3.029,0,0,1-.98.58,4.027,4.027,0,0,1-1.44.23,3.539,3.539,0,0,1-.75-.08,1.845,1.845,0,0,1-.64-.26,1.417,1.417,0,0,1-.44-.47,1.382,1.382,0,0,1-.17-.71,1.6,1.6,0,0,1,.29-1.01,1.892,1.892,0,0,1,.75-.57,4.228,4.228,0,0,1,1.04-.29q.58-.09,1.15-.16t1.09-.18A2.116,2.116,0,0,0,20.64,13.66Zm5.38,2.08h-1.7a3.741,3.741,0,0,0,.4,1.63,3.009,3.009,0,0,0,.96,1.08,4.023,4.023,0,0,0,1.38.59,7.274,7.274,0,0,0,1.64.18,8.4,8.4,0,0,0,1.57-.15,4.264,4.264,0,0,0,1.42-.53,3.048,3.048,0,0,0,1.02-1,2.88,2.88,0,0,0,.39-1.56,2.438,2.438,0,0,0-.29-1.24,2.589,2.589,0,0,0-.76-.83,4.076,4.076,0,0,0-1.08-.53,12.765,12.765,0,0,0-1.25-.34q-.6-.14-1.2-.27a6.923,6.923,0,0,1-1.08-.32,2.475,2.475,0,0,1-.79-.48.957.957,0,0,1-.31-.73,1.009,1.009,0,0,1,.2-.65,1.43,1.43,0,0,1,.52-.4,2.593,2.593,0,0,1,.71-.21,5.058,5.058,0,0,1,.77-.06,3.86,3.86,0,0,1,.83.09,2.544,2.544,0,0,1,.75.29,1.7,1.7,0,0,1,.56.53,1.721,1.721,0,0,1,.26.83h1.7a3.8,3.8,0,0,0-.4-1.57,2.691,2.691,0,0,0-.91-1,3.748,3.748,0,0,0-1.31-.52,8.164,8.164,0,0,0-1.62-.15,5.71,5.71,0,0,0-1.37.17,4.132,4.132,0,0,0-1.24.52,2.862,2.862,0,0,0-.9.91,2.477,2.477,0,0,0-.35,1.34,2.261,2.261,0,0,0,.5,1.56,3.375,3.375,0,0,0,1.25.87,8.457,8.457,0,0,0,1.63.48q.88.17,1.63.38a4.255,4.255,0,0,1,1.25.55,1.132,1.132,0,0,1,.5,1,1.253,1.253,0,0,1-.24.79,1.521,1.521,0,0,1-.61.47,3.079,3.079,0,0,1-.81.22,6.224,6.224,0,0,1-.84.06,5.039,5.039,0,0,1-1.01-.1,2.834,2.834,0,0,1-.88-.33,1.809,1.809,0,0,1-.63-.62A1.914,1.914,0,0,1,26.02,15.74Zm10,0h-1.7a3.741,3.741,0,0,0,.4,1.63,3.009,3.009,0,0,0,.96,1.08,4.023,4.023,0,0,0,1.38.59,7.274,7.274,0,0,0,1.64.18,8.4,8.4,0,0,0,1.57-.15,4.264,4.264,0,0,0,1.42-.53,3.048,3.048,0,0,0,1.02-1,2.88,2.88,0,0,0,.39-1.56,2.438,2.438,0,0,0-.29-1.24,2.589,2.589,0,0,0-.76-.83,4.076,4.076,0,0,0-1.08-.53,12.765,12.765,0,0,0-1.25-.34q-.6-.14-1.2-.27a6.923,6.923,0,0,1-1.08-.32,2.475,2.475,0,0,1-.79-.48.957.957,0,0,1-.31-.73,1.009,1.009,0,0,1,.2-.65,1.43,1.43,0,0,1,.52-.4,2.593,2.593,0,0,1,.71-.21,5.058,5.058,0,0,1,.77-.06,3.86,3.86,0,0,1,.83.09,2.544,2.544,0,0,1,.75.29,1.7,1.7,0,0,1,.56.53,1.721,1.721,0,0,1,.26.83h1.7a3.8,3.8,0,0,0-.4-1.57,2.691,2.691,0,0,0-.91-1,3.748,3.748,0,0,0-1.31-.52,8.164,8.164,0,0,0-1.62-.15,5.71,5.71,0,0,0-1.37.17,4.132,4.132,0,0,0-1.24.52,2.862,2.862,0,0,0-.9.91,2.477,2.477,0,0,0-.35,1.34,2.261,2.261,0,0,0,.5,1.56,3.375,3.375,0,0,0,1.25.87,8.457,8.457,0,0,0,1.63.48q.88.17,1.63.38a4.255,4.255,0,0,1,1.25.55,1.132,1.132,0,0,1,.5,1,1.253,1.253,0,0,1-.24.79,1.521,1.521,0,0,1-.61.47,3.079,3.079,0,0,1-.81.22,6.224,6.224,0,0,1-.84.06,5.039,5.039,0,0,1-1.01-.1,2.834,2.834,0,0,1-.88-.33,1.809,1.809,0,0,1-.63-.62A1.914,1.914,0,0,1,36.02,15.74ZM55.22,19l3.3-10.34H56.76l-2.32,8.46H54.4L52.24,8.66H50.38L48.3,17.12h-.04L45.92,8.66H44.04L47.36,19H49.2l2.08-8.22h.04L53.42,19Zm6.16-5.16a5.144,5.144,0,0,1,.25-1.67,3.6,3.6,0,0,1,.69-1.23,2.938,2.938,0,0,1,1.03-.76,3.135,3.135,0,0,1,2.5,0,2.938,2.938,0,0,1,1.03.76,3.6,3.6,0,0,1,.69,1.23,5.144,5.144,0,0,1,.25,1.67,5.144,5.144,0,0,1-.25,1.67,3.494,3.494,0,0,1-.69,1.22,2.994,2.994,0,0,1-1.03.75,3.135,3.135,0,0,1-2.5,0,2.994,2.994,0,0,1-1.03-.75,3.494,3.494,0,0,1-.69-1.22A5.144,5.144,0,0,1,61.38,13.84Zm-1.8,0a6.792,6.792,0,0,0,.32,2.12,4.839,4.839,0,0,0,.96,1.71,4.416,4.416,0,0,0,1.58,1.14,5.921,5.921,0,0,0,4.33,0,4.437,4.437,0,0,0,1.57-1.14,4.839,4.839,0,0,0,.96-1.71,6.792,6.792,0,0,0,.32-2.12,6.887,6.887,0,0,0-.32-2.13,4.826,4.826,0,0,0-.96-1.72,4.545,4.545,0,0,0-1.57-1.15,5.79,5.79,0,0,0-4.33,0,4.522,4.522,0,0,0-1.58,1.15,4.826,4.826,0,0,0-.96,1.72A6.887,6.887,0,0,0,59.58,13.84ZM71.56,8.66V19h1.7V14.4a7.069,7.069,0,0,1,.2-1.77,3.393,3.393,0,0,1,.64-1.31,2.743,2.743,0,0,1,1.16-.82A4.808,4.808,0,0,1,77,10.22V8.42a3.821,3.821,0,0,0-2.28.56,4.605,4.605,0,0,0-1.52,1.86h-.04V8.66Zm7.6,5.26a6.8,6.8,0,0,1,.16-1.48,3.915,3.915,0,0,1,.52-1.28,2.707,2.707,0,0,1,.96-.9,2.919,2.919,0,0,1,1.46-.34,3.155,3.155,0,0,1,1.5.33,2.912,2.912,0,0,1,1.01.87,3.638,3.638,0,0,1,.57,1.25,6.055,6.055,0,0,1,.01,2.89,3.721,3.721,0,0,1-.55,1.25,2.806,2.806,0,0,1-2.44,1.23,3.036,3.036,0,0,1-1.43-.32,2.842,2.842,0,0,1-1-.86,3.805,3.805,0,0,1-.58-1.23A5.287,5.287,0,0,1,79.16,13.92Zm8,5.08V4.72h-1.7v5.32h-.04a2.738,2.738,0,0,0-.69-.77,3.92,3.92,0,0,0-.87-.5,4.367,4.367,0,0,0-.92-.27,5.036,5.036,0,0,0-.86-.08,4.706,4.706,0,0,0-2.07.43,4.25,4.25,0,0,0-1.48,1.16,4.9,4.9,0,0,0-.88,1.71,7.294,7.294,0,0,0-.29,2.08,7.068,7.068,0,0,0,.3,2.08,5.142,5.142,0,0,0,.89,1.72,4.3,4.3,0,0,0,1.48,1.18,4.664,4.664,0,0,0,2.09.44,5.04,5.04,0,0,0,1.98-.38,2.5,2.5,0,0,0,1.32-1.24h.04V19ZM92.52,6.98V4.72H91.46V6.98l-2.12-.8-.36.96,2.12.76L89.8,9.72l.9.62L92,8.42l1.38,1.92.82-.62L92.88,7.9l2.18-.76-.4-.96Z" transform="translate(1828 510)"/>
    <path id="Path_8" data-name="Path 8" class="cls-2" d="M1.386,4.148V17h1.62V6.686h.036L9.756,17h1.872V4.148h-1.62V14.57H9.972L3.2,4.148ZM22.392,16.964V15.776a1.515,1.515,0,0,1-.468.09q-.36,0-.423-.252a3.581,3.581,0,0,1-.063-.792V10.034a2.506,2.506,0,0,0-.306-1.314,2.157,2.157,0,0,0-.81-.783A3.27,3.27,0,0,0,19.2,7.568a8.711,8.711,0,0,0-1.251-.09,6.546,6.546,0,0,0-1.476.162,3.621,3.621,0,0,0-1.242.531,2.729,2.729,0,0,0-.864.963A3.3,3.3,0,0,0,14,10.592h1.53a1.566,1.566,0,0,1,.7-1.395,3.236,3.236,0,0,1,1.62-.369,5.03,5.03,0,0,1,.729.054,1.976,1.976,0,0,1,.666.216,1.3,1.3,0,0,1,.486.468,1.527,1.527,0,0,1,.189.81.835.835,0,0,1-.252.657,1.665,1.665,0,0,1-.684.342,6.669,6.669,0,0,1-1,.18q-.567.063-1.2.189-.594.108-1.161.27a3.258,3.258,0,0,0-1.008.477,2.356,2.356,0,0,0-.711.819,2.733,2.733,0,0,0-.27,1.3,2.7,2.7,0,0,0,.243,1.2,2.2,2.2,0,0,0,.666.81,2.675,2.675,0,0,0,.981.45,5.039,5.039,0,0,0,1.188.135,4.849,4.849,0,0,0,1.809-.333A3.66,3.66,0,0,0,20,15.776a1.448,1.448,0,0,0,.351,1.089,1.317,1.317,0,0,0,.945.333A2.164,2.164,0,0,0,22.392,16.964Zm-2.484-4.77V13.76a1.73,1.73,0,0,1-.162.693,2.059,2.059,0,0,1-.5.684,2.726,2.726,0,0,1-.882.522,3.624,3.624,0,0,1-1.3.207,3.185,3.185,0,0,1-.675-.072,1.66,1.66,0,0,1-.576-.234,1.275,1.275,0,0,1-.4-.423,1.244,1.244,0,0,1-.153-.639,1.437,1.437,0,0,1,.261-.909,1.7,1.7,0,0,1,.675-.513,3.806,3.806,0,0,1,.936-.261q.522-.081,1.035-.144t.981-.162A1.9,1.9,0,0,0,19.908,12.194Zm3.906-4.5V17h1.53V11.2a2.221,2.221,0,0,1,.135-.675A2.59,2.59,0,0,1,26.685,9.1a2.285,2.285,0,0,1,1.143-.27,2.057,2.057,0,0,1,.855.153,1.3,1.3,0,0,1,.531.432,1.757,1.757,0,0,1,.279.657,3.955,3.955,0,0,1,.081.828V17H31.1V11.2a2.335,2.335,0,0,1,.648-1.728,2.408,2.408,0,0,1,1.782-.648,2.182,2.182,0,0,1,.909.162,1.348,1.348,0,0,1,.549.441,1.654,1.654,0,0,1,.27.657,4.328,4.328,0,0,1,.072.81V17h1.53V10.178a3.058,3.058,0,0,0-.225-1.233,2.163,2.163,0,0,0-.63-.837,2.632,2.632,0,0,0-.972-.477,4.872,4.872,0,0,0-1.269-.153,3.479,3.479,0,0,0-1.683.414,3.249,3.249,0,0,0-1.233,1.17,2.016,2.016,0,0,0-.99-1.224A3.627,3.627,0,0,0,25.29,9.062h-.036V7.694ZM45.63,11.456H40.284a3.187,3.187,0,0,1,.234-1.017,2.713,2.713,0,0,1,.54-.837,2.473,2.473,0,0,1,.819-.567,2.664,2.664,0,0,1,1.071-.207A2.617,2.617,0,0,1,44,9.035a2.649,2.649,0,0,1,.828.558,2.622,2.622,0,0,1,.558.837A3.13,3.13,0,0,1,45.63,11.456Zm1.476,2.592H45.594a2.176,2.176,0,0,1-.819,1.368,2.648,2.648,0,0,1-1.593.45,3.169,3.169,0,0,1-1.314-.252,2.575,2.575,0,0,1-.918-.675,2.63,2.63,0,0,1-.522-.972,3.694,3.694,0,0,1-.144-1.161H47.25a7.409,7.409,0,0,0-.153-1.782A5.159,5.159,0,0,0,46.413,9.3,4.076,4.076,0,0,0,45.1,7.991a3.818,3.818,0,0,0-2.061-.513,4.232,4.232,0,0,0-1.755.36A4.125,4.125,0,0,0,39.9,8.846a4.646,4.646,0,0,0-.909,1.53,5.6,5.6,0,0,0-.324,1.944,7.459,7.459,0,0,0,.315,1.962,4.282,4.282,0,0,0,.837,1.548,3.815,3.815,0,0,0,1.377,1.008,4.78,4.78,0,0,0,1.935.36,4.224,4.224,0,0,0,2.628-.792A3.719,3.719,0,0,0,47.106,14.048Z" transform="translate(1828 341)"/>
    <path id="Path_10" data-name="Path 10" class="cls-2" d="M1.152,7.694V17h1.53V11.744a3.77,3.77,0,0,1,.171-1.161,2.637,2.637,0,0,1,.513-.927,2.278,2.278,0,0,1,.855-.612,3.118,3.118,0,0,1,1.215-.216,1.873,1.873,0,0,1,1.386.5,1.849,1.849,0,0,1,.5,1.368V17h1.53V10.88A5.759,5.759,0,0,0,8.7,9.5a2.608,2.608,0,0,0-.531-1.071,2.515,2.515,0,0,0-.99-.7,4.038,4.038,0,0,0-1.53-.252A3.221,3.221,0,0,0,2.628,9.17H2.592V7.694ZM19.4,16.964V15.776a1.515,1.515,0,0,1-.468.09q-.36,0-.423-.252a3.581,3.581,0,0,1-.063-.792V10.034a2.506,2.506,0,0,0-.306-1.314,2.157,2.157,0,0,0-.81-.783,3.27,3.27,0,0,0-1.125-.369,8.711,8.711,0,0,0-1.251-.09,6.546,6.546,0,0,0-1.476.162,3.621,3.621,0,0,0-1.242.531,2.729,2.729,0,0,0-.864.963,3.3,3.3,0,0,0-.36,1.458h1.53a1.566,1.566,0,0,1,.7-1.395,3.236,3.236,0,0,1,1.62-.369,5.03,5.03,0,0,1,.729.054,1.976,1.976,0,0,1,.666.216,1.3,1.3,0,0,1,.486.468,1.527,1.527,0,0,1,.189.81.835.835,0,0,1-.252.657,1.665,1.665,0,0,1-.684.342,6.669,6.669,0,0,1-1,.18q-.567.063-1.2.189-.594.108-1.161.27a3.258,3.258,0,0,0-1.008.477,2.356,2.356,0,0,0-.711.819,2.733,2.733,0,0,0-.27,1.3,2.7,2.7,0,0,0,.243,1.2,2.2,2.2,0,0,0,.666.81,2.675,2.675,0,0,0,.981.45,5.039,5.039,0,0,0,1.188.135,4.849,4.849,0,0,0,1.809-.333,3.66,3.66,0,0,0,1.467-1.089,1.448,1.448,0,0,0,.351,1.089,1.317,1.317,0,0,0,.945.333A2.164,2.164,0,0,0,19.4,16.964Zm-2.484-4.77V13.76a1.73,1.73,0,0,1-.162.693,2.059,2.059,0,0,1-.5.684,2.726,2.726,0,0,1-.882.522,3.624,3.624,0,0,1-1.3.207,3.185,3.185,0,0,1-.675-.072,1.66,1.66,0,0,1-.576-.234,1.275,1.275,0,0,1-.4-.423,1.244,1.244,0,0,1-.153-.639,1.437,1.437,0,0,1,.261-.909,1.7,1.7,0,0,1,.675-.513,3.806,3.806,0,0,1,.936-.261q.522-.081,1.035-.144t.981-.162A1.9,1.9,0,0,0,16.92,12.194Zm3.906-4.5V17h1.53V11.2a2.221,2.221,0,0,1,.135-.675A2.59,2.59,0,0,1,23.7,9.1a2.285,2.285,0,0,1,1.143-.27,2.057,2.057,0,0,1,.855.153,1.3,1.3,0,0,1,.531.432,1.757,1.757,0,0,1,.279.657,3.955,3.955,0,0,1,.081.828V17h1.53V11.2a2.335,2.335,0,0,1,.648-1.728,2.408,2.408,0,0,1,1.782-.648,2.182,2.182,0,0,1,.909.162A1.348,1.348,0,0,1,32,9.431a1.654,1.654,0,0,1,.27.657,4.328,4.328,0,0,1,.072.81V17h1.53V10.178a3.058,3.058,0,0,0-.225-1.233,2.163,2.163,0,0,0-.63-.837,2.632,2.632,0,0,0-.972-.477,4.872,4.872,0,0,0-1.269-.153,3.479,3.479,0,0,0-1.683.414,3.249,3.249,0,0,0-1.233,1.17,2.016,2.016,0,0,0-.99-1.224A3.627,3.627,0,0,0,22.3,9.062h-.036V7.694Zm21.816,3.762H37.3a3.187,3.187,0,0,1,.234-1.017,2.713,2.713,0,0,1,.54-.837,2.473,2.473,0,0,1,.819-.567,2.664,2.664,0,0,1,1.071-.207,2.617,2.617,0,0,1,1.053.207,2.649,2.649,0,0,1,.828.558,2.622,2.622,0,0,1,.558.837A3.13,3.13,0,0,1,42.642,11.456Zm1.476,2.592H42.606a2.176,2.176,0,0,1-.819,1.368,2.648,2.648,0,0,1-1.593.45,3.169,3.169,0,0,1-1.314-.252,2.575,2.575,0,0,1-.918-.675,2.63,2.63,0,0,1-.522-.972,3.694,3.694,0,0,1-.144-1.161h6.966a7.409,7.409,0,0,0-.153-1.782A5.159,5.159,0,0,0,43.425,9.3a4.076,4.076,0,0,0-1.314-1.305,3.818,3.818,0,0,0-2.061-.513,4.232,4.232,0,0,0-1.755.36,4.125,4.125,0,0,0-1.386,1.008A4.646,4.646,0,0,0,36,10.376a5.6,5.6,0,0,0-.324,1.944,7.459,7.459,0,0,0,.315,1.962,4.282,4.282,0,0,0,.837,1.548A3.815,3.815,0,0,0,38.2,16.838a4.78,4.78,0,0,0,1.935.36,4.224,4.224,0,0,0,2.628-.792A3.719,3.719,0,0,0,44.118,14.048ZM54.306,12.14l1.512-5.112H54.684L54.27,8.162a2.047,2.047,0,0,0-2.016-1.476,3.423,3.423,0,0,0-1.737.45,4.443,4.443,0,0,0-1.332,1.17,5.6,5.6,0,0,0-.855,1.638,5.829,5.829,0,0,0-.306,1.854,3.253,3.253,0,0,0,.189,1.116,2.773,2.773,0,0,0,.522.9,2.469,2.469,0,0,0,.81.6,2.437,2.437,0,0,0,1.053.225,2.26,2.26,0,0,0,1.242-.369,4.684,4.684,0,0,0,.99-.837h.054a1.226,1.226,0,0,0,.36.882,1.15,1.15,0,0,0,.792.288,3.028,3.028,0,0,0,1.368-.378,4.9,4.9,0,0,0,1.368-1.062,5.92,5.92,0,0,0,1.053-1.647,5.247,5.247,0,0,0,.423-2.133,5.13,5.13,0,0,0-.486-2.241A5.345,5.345,0,0,0,56.439,5.4a6.252,6.252,0,0,0-1.953-1.143,6.724,6.724,0,0,0-2.358-.414,6.474,6.474,0,0,0-2.583.522A6.728,6.728,0,0,0,47.421,5.8a6.855,6.855,0,0,0-1.44,2.124,6.423,6.423,0,0,0-.531,2.6,6.785,6.785,0,0,0,.522,2.673,6.686,6.686,0,0,0,6.228,4.1,6.95,6.95,0,0,0,1.692-.207,6.374,6.374,0,0,0,1.557-.612,6.509,6.509,0,0,0,1.341-.99,5.875,5.875,0,0,0,1.044-1.341H56.7a5.643,5.643,0,0,1-1.971,1.584,5.541,5.541,0,0,1-2.493.594,5.285,5.285,0,0,1-2.142-.441,5.733,5.733,0,0,1-1.773-1.206,5.622,5.622,0,0,1-1.206-1.809,5.722,5.722,0,0,1-.441-2.25,5.936,5.936,0,0,1,1.584-4.068,5.472,5.472,0,0,1,1.737-1.251,5.09,5.09,0,0,1,2.151-.459,5.208,5.208,0,0,1,1.827.324,4.922,4.922,0,0,1,1.557.927,4.434,4.434,0,0,1,1.494,3.393,4.8,4.8,0,0,1-.234,1.458,6.139,6.139,0,0,1-.594,1.332,3.985,3.985,0,0,1-.8.972,1.336,1.336,0,0,1-.855.378q-.432,0-.432-.558a1.773,1.773,0,0,1,.063-.441Q54.234,12.374,54.306,12.14ZM52.254,7.91a1.12,1.12,0,0,1,.549.144,1.842,1.842,0,0,1,.468.369,1.64,1.64,0,0,1,.324.531,1.75,1.75,0,0,1,.117.63,3.994,3.994,0,0,1-.216,1.224,5.318,5.318,0,0,1-.594,1.251,3.831,3.831,0,0,1-.882.972,1.765,1.765,0,0,1-1.1.387,1.413,1.413,0,0,1-1.116-.495,1.834,1.834,0,0,1-.432-1.251,4.006,4.006,0,0,1,.216-1.251,4.862,4.862,0,0,1,.594-1.215,3.519,3.519,0,0,1,.909-.927A1.992,1.992,0,0,1,52.254,7.91Zm9.108,4.518a6.122,6.122,0,0,1,.144-1.332,3.524,3.524,0,0,1,.468-1.152,2.437,2.437,0,0,1,.864-.81,2.627,2.627,0,0,1,1.314-.306,2.84,2.84,0,0,1,1.35.3,2.62,2.62,0,0,1,.909.783,3.274,3.274,0,0,1,.513,1.125,5.449,5.449,0,0,1,.009,2.6,3.349,3.349,0,0,1-.495,1.125,2.526,2.526,0,0,1-2.2,1.107,2.733,2.733,0,0,1-1.287-.288,2.558,2.558,0,0,1-.9-.774,3.425,3.425,0,0,1-.522-1.107A4.758,4.758,0,0,1,61.362,12.428ZM68.562,17V4.148h-1.53V8.936H67a2.465,2.465,0,0,0-.621-.693,3.528,3.528,0,0,0-.783-.45,3.93,3.93,0,0,0-.828-.243,4.532,4.532,0,0,0-.774-.072,4.236,4.236,0,0,0-1.863.387A3.825,3.825,0,0,0,60.8,8.909,4.407,4.407,0,0,0,60,10.448a6.565,6.565,0,0,0-.261,1.872,6.361,6.361,0,0,0,.27,1.872,4.627,4.627,0,0,0,.8,1.548A3.871,3.871,0,0,0,62.145,16.8a4.2,4.2,0,0,0,1.881.4,4.536,4.536,0,0,0,1.782-.342A2.252,2.252,0,0,0,67,15.74h.036V17Zm3.474-4.644a4.63,4.63,0,0,1,.225-1.5,3.244,3.244,0,0,1,.621-1.107,2.645,2.645,0,0,1,.927-.684,2.821,2.821,0,0,1,2.25,0,2.645,2.645,0,0,1,.927.684,3.244,3.244,0,0,1,.621,1.107,4.63,4.63,0,0,1,.225,1.5,4.63,4.63,0,0,1-.225,1.5,3.145,3.145,0,0,1-.621,1.1,2.7,2.7,0,0,1-.927.675,2.821,2.821,0,0,1-2.25,0,2.7,2.7,0,0,1-.927-.675,3.145,3.145,0,0,1-.621-1.1A4.63,4.63,0,0,1,72.036,12.356Zm-1.62,0a6.113,6.113,0,0,0,.288,1.908,4.355,4.355,0,0,0,.864,1.539,3.975,3.975,0,0,0,1.422,1.026,5.329,5.329,0,0,0,3.9,0A3.993,3.993,0,0,0,78.3,15.8a4.355,4.355,0,0,0,.864-1.539,6.113,6.113,0,0,0,.288-1.908,6.2,6.2,0,0,0-.288-1.917A4.343,4.343,0,0,0,78.3,8.891a4.091,4.091,0,0,0-1.413-1.035,5.211,5.211,0,0,0-3.9,0,4.07,4.07,0,0,0-1.422,1.035,4.343,4.343,0,0,0-.864,1.548A6.2,6.2,0,0,0,70.416,12.356ZM81.252,7.694V17h1.53V11.2a2.221,2.221,0,0,1,.135-.675A2.59,2.59,0,0,1,84.123,9.1a2.285,2.285,0,0,1,1.143-.27,2.057,2.057,0,0,1,.855.153,1.3,1.3,0,0,1,.531.432,1.757,1.757,0,0,1,.279.657,3.955,3.955,0,0,1,.081.828V17h1.53V11.2a2.335,2.335,0,0,1,.648-1.728,2.408,2.408,0,0,1,1.782-.648,2.182,2.182,0,0,1,.909.162,1.348,1.348,0,0,1,.549.441,1.654,1.654,0,0,1,.27.657,4.328,4.328,0,0,1,.072.81V17H94.3V10.178a3.058,3.058,0,0,0-.225-1.233,2.163,2.163,0,0,0-.63-.837,2.632,2.632,0,0,0-.972-.477,4.872,4.872,0,0,0-1.269-.153,3.479,3.479,0,0,0-1.683.414,3.249,3.249,0,0,0-1.233,1.17,2.016,2.016,0,0,0-.99-1.224,3.627,3.627,0,0,0-4.572,1.224h-.036V7.694Zm23.6,9.27V15.776a1.515,1.515,0,0,1-.468.09q-.36,0-.423-.252a3.581,3.581,0,0,1-.063-.792V10.034a2.506,2.506,0,0,0-.306-1.314,2.157,2.157,0,0,0-.81-.783,3.27,3.27,0,0,0-1.125-.369,8.711,8.711,0,0,0-1.251-.09,6.546,6.546,0,0,0-1.476.162,3.621,3.621,0,0,0-1.242.531,2.73,2.73,0,0,0-.864.963,3.3,3.3,0,0,0-.36,1.458h1.53a1.566,1.566,0,0,1,.7-1.395,3.236,3.236,0,0,1,1.62-.369,5.029,5.029,0,0,1,.729.054,1.976,1.976,0,0,1,.666.216,1.3,1.3,0,0,1,.486.468,1.527,1.527,0,0,1,.189.81.835.835,0,0,1-.252.657,1.665,1.665,0,0,1-.684.342,6.669,6.669,0,0,1-1,.18q-.567.063-1.2.189-.594.108-1.161.27a3.258,3.258,0,0,0-1.008.477,2.356,2.356,0,0,0-.711.819,2.733,2.733,0,0,0-.27,1.3,2.7,2.7,0,0,0,.243,1.2,2.2,2.2,0,0,0,.666.81,2.675,2.675,0,0,0,.981.45,5.039,5.039,0,0,0,1.188.135,4.849,4.849,0,0,0,1.809-.333,3.66,3.66,0,0,0,1.467-1.089,1.448,1.448,0,0,0,.351,1.089,1.317,1.317,0,0,0,.945.333A2.164,2.164,0,0,0,104.85,16.964Zm-2.484-4.77V13.76a1.73,1.73,0,0,1-.162.693,2.059,2.059,0,0,1-.5.684,2.726,2.726,0,0,1-.882.522,3.624,3.624,0,0,1-1.3.207,3.185,3.185,0,0,1-.675-.072,1.66,1.66,0,0,1-.576-.234,1.275,1.275,0,0,1-.4-.423,1.244,1.244,0,0,1-.153-.639,1.437,1.437,0,0,1,.261-.909,1.7,1.7,0,0,1,.675-.513,3.806,3.806,0,0,1,.936-.261q.522-.081,1.035-.144t.981-.162A1.9,1.9,0,0,0,102.366,12.194Zm5.526-6.174V4.148h-1.53V6.02Zm-1.53,1.674V17h1.53V7.694Zm3.906,0V17h1.53V11.744a3.77,3.77,0,0,1,.171-1.161,2.637,2.637,0,0,1,.513-.927,2.278,2.278,0,0,1,.855-.612,3.118,3.118,0,0,1,1.215-.216,1.873,1.873,0,0,1,1.386.5,1.848,1.848,0,0,1,.5,1.368V17h1.53V10.88a5.759,5.759,0,0,0-.153-1.377,2.608,2.608,0,0,0-.531-1.071,2.515,2.515,0,0,0-.99-.7,4.038,4.038,0,0,0-1.53-.252,3.221,3.221,0,0,0-3.024,1.692h-.036V7.694ZM120.618,15v2h2V15Zm5.778-2.646a4.63,4.63,0,0,1,.225-1.5,3.244,3.244,0,0,1,.621-1.107,2.645,2.645,0,0,1,.927-.684,2.821,2.821,0,0,1,2.25,0,2.644,2.644,0,0,1,.927.684,3.243,3.243,0,0,1,.621,1.107,4.629,4.629,0,0,1,.225,1.5,4.629,4.629,0,0,1-.225,1.5,3.144,3.144,0,0,1-.621,1.1,2.7,2.7,0,0,1-.927.675,2.821,2.821,0,0,1-2.25,0,2.7,2.7,0,0,1-.927-.675,3.145,3.145,0,0,1-.621-1.1A4.63,4.63,0,0,1,126.4,12.356Zm-1.62,0a6.113,6.113,0,0,0,.288,1.908,4.355,4.355,0,0,0,.864,1.539,3.975,3.975,0,0,0,1.422,1.026,5.329,5.329,0,0,0,3.9,0A3.994,3.994,0,0,0,132.66,15.8a4.355,4.355,0,0,0,.864-1.539,6.113,6.113,0,0,0,.288-1.908,6.2,6.2,0,0,0-.288-1.917,4.344,4.344,0,0,0-.864-1.548,4.091,4.091,0,0,0-1.413-1.035,5.211,5.211,0,0,0-3.9,0,4.07,4.07,0,0,0-1.422,1.035,4.343,4.343,0,0,0-.864,1.548A6.2,6.2,0,0,0,124.776,12.356Zm10.782-4.662V17h1.53V12.86a6.363,6.363,0,0,1,.18-1.593,3.054,3.054,0,0,1,.576-1.179,2.469,2.469,0,0,1,1.044-.738,4.327,4.327,0,0,1,1.566-.252V7.478a3.439,3.439,0,0,0-2.052.5,4.145,4.145,0,0,0-1.368,1.674H137V7.694Zm13.572,8.514V7.694h-1.44V9.026h-.018a2.724,2.724,0,0,0-1.152-1.161,3.435,3.435,0,0,0-1.62-.387,4.144,4.144,0,0,0-2.034.459,3.947,3.947,0,0,0-1.332,1.17,4.639,4.639,0,0,0-.72,1.584,7.07,7.07,0,0,0-.216,1.7,6.163,6.163,0,0,0,.261,1.809,4.331,4.331,0,0,0,.783,1.494,3.8,3.8,0,0,0,1.3,1.017,4.1,4.1,0,0,0,1.818.378,3.719,3.719,0,0,0,1.7-.405,2.572,2.572,0,0,0,1.2-1.269h.036v.612a6.188,6.188,0,0,1-.153,1.422,2.971,2.971,0,0,1-.5,1.107,2.4,2.4,0,0,1-.864.72,2.837,2.837,0,0,1-1.278.261,4.127,4.127,0,0,1-.792-.081,2.878,2.878,0,0,1-.765-.261,1.9,1.9,0,0,1-.594-.468,1.132,1.132,0,0,1-.261-.7h-1.53a2.4,2.4,0,0,0,.4,1.278,2.851,2.851,0,0,0,.909.846,4.054,4.054,0,0,0,1.224.468,6.331,6.331,0,0,0,1.323.144,4.253,4.253,0,0,0,3.276-1.134A4.9,4.9,0,0,0,149.13,16.208Zm-4.284-.45a2.336,2.336,0,0,1-1.26-.315,2.431,2.431,0,0,1-.81-.828,3.584,3.584,0,0,1-.432-1.143,6.41,6.41,0,0,1-.126-1.26,5.25,5.25,0,0,1,.153-1.278,3.168,3.168,0,0,1,.486-1.08,2.45,2.45,0,0,1,.855-.747,2.641,2.641,0,0,1,1.26-.279,2.431,2.431,0,0,1,1.224.288,2.384,2.384,0,0,1,.819.765,3.364,3.364,0,0,1,.459,1.071,5.1,5.1,0,0,1,.144,1.206,5.623,5.623,0,0,1-.153,1.3,3.785,3.785,0,0,1-.477,1.161,2.51,2.51,0,0,1-.855.828A2.48,2.48,0,0,1,144.846,15.758Z" transform="translate(1828 450)"/>
    <path id="Path_12" data-name="Path 12" class="cls-2" d="M5.2,10.556a1.9,1.9,0,0,1-.549,1.386,1.874,1.874,0,0,1-1.4.558,1.874,1.874,0,0,1-1.395-.558,1.9,1.9,0,0,1-.549-1.386A1.878,1.878,0,0,1,3.258,8.612,1.878,1.878,0,0,1,5.2,10.556Zm6.3,0a1.9,1.9,0,0,1-.549,1.386,1.874,1.874,0,0,1-1.4.558,1.874,1.874,0,0,1-1.4-.558,1.9,1.9,0,0,1-.549-1.386A1.878,1.878,0,0,1,9.558,8.612,1.878,1.878,0,0,1,11.5,10.556Zm6.3,0a1.9,1.9,0,0,1-.549,1.386,2.023,2.023,0,0,1-2.79,0,1.9,1.9,0,0,1-.549-1.386,1.944,1.944,0,1,1,3.888,0Zm6.3,0a1.9,1.9,0,0,1-.549,1.386,2.023,2.023,0,0,1-2.79,0,1.9,1.9,0,0,1-.549-1.386,1.944,1.944,0,1,1,3.888,0Zm6.3,0a1.9,1.9,0,0,1-.549,1.386,2.023,2.023,0,0,1-2.79,0,1.9,1.9,0,0,1-.549-1.386,1.944,1.944,0,1,1,3.888,0Zm6.3,0a1.9,1.9,0,0,1-.549,1.386,2.023,2.023,0,0,1-2.79,0,1.9,1.9,0,0,1-.549-1.386,1.944,1.944,0,1,1,3.888,0Zm6.3,0a1.9,1.9,0,0,1-.549,1.386,2.023,2.023,0,0,1-2.79,0,1.9,1.9,0,0,1-.549-1.386,1.944,1.944,0,1,1,3.888,0Zm6.3,0a1.9,1.9,0,0,1-.549,1.386,2.023,2.023,0,0,1-2.79,0,1.9,1.9,0,0,1-.549-1.386,1.944,1.944,0,1,1,3.888,0Zm6.3,0a1.9,1.9,0,0,1-.549,1.386,2.023,2.023,0,0,1-2.79,0,1.9,1.9,0,0,1-.549-1.386,1.944,1.944,0,1,1,3.888,0Zm6.3,0a1.9,1.9,0,0,1-.549,1.386,2.023,2.023,0,0,1-2.79,0,1.9,1.9,0,0,1-.549-1.386,1.944,1.944,0,1,1,3.888,0Zm6.3,0a1.9,1.9,0,0,1-.549,1.386,2.023,2.023,0,0,1-2.79,0,1.9,1.9,0,0,1-.549-1.386,1.944,1.944,0,1,1,3.888,0Zm6.3,0a1.9,1.9,0,0,1-.549,1.386,2.023,2.023,0,0,1-2.79,0,1.9,1.9,0,0,1-.549-1.386,1.944,1.944,0,1,1,3.888,0Zm6.3,0a1.9,1.9,0,0,1-.549,1.386,2.023,2.023,0,0,1-2.79,0,1.9,1.9,0,0,1-.549-1.386,1.944,1.944,0,1,1,3.888,0Zm6.3,0a1.9,1.9,0,0,1-.549,1.386,2.023,2.023,0,0,1-2.79,0,1.9,1.9,0,0,1-.549-1.386,1.944,1.944,0,1,1,3.888,0Zm6.3,0a1.9,1.9,0,0,1-.549,1.386,2.023,2.023,0,0,1-2.79,0,1.9,1.9,0,0,1-.549-1.386,1.944,1.944,0,1,1,3.888,0Zm6.3,0a1.9,1.9,0,0,1-.549,1.386,2.023,2.023,0,0,1-2.79,0,1.9,1.9,0,0,1-.549-1.386,1.944,1.944,0,1,1,3.888,0Zm6.3,0a1.9,1.9,0,0,1-.549,1.386,2.023,2.023,0,0,1-2.79,0,1.9,1.9,0,0,1-.549-1.386,1.944,1.944,0,1,1,3.888,0Zm6.3,0a1.9,1.9,0,0,1-.549,1.386,2.023,2.023,0,0,1-2.79,0,1.9,1.9,0,0,1-.549-1.386,1.944,1.944,0,1,1,3.888,0Zm6.3,0a1.9,1.9,0,0,1-.549,1.386,2.023,2.023,0,0,1-2.79,0,1.9,1.9,0,0,1-.549-1.386,1.944,1.944,0,1,1,3.888,0Zm6.3,0a1.9,1.9,0,0,1-.549,1.386,2.023,2.023,0,0,1-2.79,0,1.9,1.9,0,0,1-.549-1.386,1.944,1.944,0,1,1,3.888,0Z" transform="translate(1828 559)"/>
    <path id="Path_13" data-name="Path 13" class="cls-2" d="M16.446,8.018h1.71a4.782,4.782,0,0,0-.612-1.809,4.451,4.451,0,0,0-1.17-1.3,5.129,5.129,0,0,0-1.6-.792,6.606,6.606,0,0,0-1.908-.27,6.15,6.15,0,0,0-2.619.531A5.413,5.413,0,0,0,8.337,5.822,6.355,6.355,0,0,0,7.176,7.973a8.574,8.574,0,0,0-.4,2.637,9.062,9.062,0,0,0,.369,2.628,6.07,6.07,0,0,0,1.107,2.124,5.126,5.126,0,0,0,1.854,1.413,6.2,6.2,0,0,0,2.61.513,5.416,5.416,0,0,0,3.888-1.35,5.838,5.838,0,0,0,1.674-3.78h-1.71a4.9,4.9,0,0,1-.324,1.476,3.562,3.562,0,0,1-.747,1.179,3.4,3.4,0,0,1-1.134.774,3.815,3.815,0,0,1-1.5.279,4.23,4.23,0,0,1-1.98-.432,3.867,3.867,0,0,1-1.359-1.161,4.973,4.973,0,0,1-.783-1.71,8.328,8.328,0,0,1-.252-2.079A7.445,7.445,0,0,1,8.742,8.54a5.011,5.011,0,0,1,.783-1.665,3.89,3.89,0,0,1,1.35-1.161,4.175,4.175,0,0,1,1.971-.432,3.972,3.972,0,0,1,2.331.684A3.179,3.179,0,0,1,16.446,8.018Zm3.96-3.87V17h1.71V11.51h4.176A2.27,2.27,0,0,1,27.3,11.7a1.688,1.688,0,0,1,.612.5,2.089,2.089,0,0,1,.342.738q.108.423.18.891a6.274,6.274,0,0,1,.108.954q.018.486.036.909a5.547,5.547,0,0,0,.081.765A1.073,1.073,0,0,0,28.9,17H30.81a2.2,2.2,0,0,1-.405-.747,5.855,5.855,0,0,1-.207-.891,8.286,8.286,0,0,1-.09-.954q-.018-.486-.054-.954a8.273,8.273,0,0,0-.153-.9,2.732,2.732,0,0,0-.306-.783,1.973,1.973,0,0,0-.558-.6,2.29,2.29,0,0,0-.909-.36v-.036a2.733,2.733,0,0,0,1.7-1.206,3.9,3.9,0,0,0,.531-2.052,3.1,3.1,0,0,0-1.035-2.466,4.232,4.232,0,0,0-2.871-.9ZM25.68,10.07H22.116V5.588h4.248A2.219,2.219,0,0,1,28.11,6.2a2.306,2.306,0,0,1,.54,1.584,2.358,2.358,0,0,1-.243,1.143,1.922,1.922,0,0,1-.648.7,2.474,2.474,0,0,1-.945.351A6.893,6.893,0,0,1,25.68,10.07Zm7.056-5.922V17h8.928V15.56H34.446V11.114h6.678V9.674H34.446V5.588H41.61V4.148ZM45.948,11.69,48.126,5.7h.036L50.3,11.69Zm1.278-7.542L42.222,17h1.746l1.44-3.87h5.436l1.4,3.87h1.89L49.116,4.148Zm9.432,1.44V17h1.71V5.588h4.284V4.148H52.374v1.44Zm7.416-1.44V17H73V15.56H65.784V11.114h6.678V9.674H65.784V5.588h7.164V4.148Zm16,0V17h1.71V11.114h5.9V9.674h-5.9V5.588h6.732V4.148Zm10.332,0V17h1.71V11.51h4.176A2.27,2.27,0,0,1,97.3,11.7a1.688,1.688,0,0,1,.612.5,2.089,2.089,0,0,1,.342.738q.108.423.18.891a6.273,6.273,0,0,1,.108.954q.018.486.036.909a5.547,5.547,0,0,0,.081.765A1.073,1.073,0,0,0,98.9,17h1.908a2.2,2.2,0,0,1-.4-.747,5.854,5.854,0,0,1-.207-.891,8.287,8.287,0,0,1-.09-.954q-.018-.486-.054-.954a8.273,8.273,0,0,0-.153-.9,2.732,2.732,0,0,0-.306-.783,1.973,1.973,0,0,0-.558-.6,2.29,2.29,0,0,0-.909-.36v-.036a2.733,2.733,0,0,0,1.7-1.206,3.9,3.9,0,0,0,.531-2.052,3.1,3.1,0,0,0-1.035-2.466,4.232,4.232,0,0,0-2.871-.9Zm5.274,5.922H92.118V5.588h4.248a2.219,2.219,0,0,1,1.746.612,2.306,2.306,0,0,1,.54,1.584,2.358,2.358,0,0,1-.243,1.143,1.922,1.922,0,0,1-.648.7,2.474,2.474,0,0,1-.945.351A6.893,6.893,0,0,1,95.682,10.07Zm7.056-5.922V17h8.928V15.56h-7.218V11.114h6.678V9.674h-6.678V5.588h7.164V4.148Zm11,0V17h8.928V15.56h-7.218V11.114h6.678V9.674h-6.678V5.588h7.164V4.148Zm18.216,7.542L134.13,5.7h.036l2.142,5.994Zm1.278-7.542-5,12.852h1.746l1.44-3.87h5.436l1.4,3.87h1.89L135.12,4.148Zm17.208,3.87h1.71a4.782,4.782,0,0,0-.612-1.809,4.451,4.451,0,0,0-1.17-1.3,5.129,5.129,0,0,0-1.6-.792,6.606,6.606,0,0,0-1.908-.27,6.15,6.15,0,0,0-2.619.531,5.412,5.412,0,0,0-1.908,1.449,6.355,6.355,0,0,0-1.161,2.151,8.575,8.575,0,0,0-.4,2.637,9.062,9.062,0,0,0,.369,2.628,6.07,6.07,0,0,0,1.107,2.124,5.126,5.126,0,0,0,1.854,1.413,6.2,6.2,0,0,0,2.61.513,5.416,5.416,0,0,0,3.888-1.35,5.838,5.838,0,0,0,1.674-3.78h-1.71a4.9,4.9,0,0,1-.324,1.476,3.562,3.562,0,0,1-.747,1.179,3.4,3.4,0,0,1-1.134.774,3.815,3.815,0,0,1-1.5.279,4.23,4.23,0,0,1-1.98-.432,3.867,3.867,0,0,1-1.359-1.161,4.973,4.973,0,0,1-.783-1.71,8.328,8.328,0,0,1-.252-2.079,7.445,7.445,0,0,1,.252-1.944,5.012,5.012,0,0,1,.783-1.665,3.89,3.89,0,0,1,1.35-1.161,4.175,4.175,0,0,1,1.971-.432,3.972,3.972,0,0,1,2.331.684A3.179,3.179,0,0,1,150.438,8.018Zm13,0h1.71a4.782,4.782,0,0,0-.612-1.809,4.451,4.451,0,0,0-1.17-1.3,5.129,5.129,0,0,0-1.6-.792,6.606,6.606,0,0,0-1.908-.27,6.15,6.15,0,0,0-2.619.531,5.412,5.412,0,0,0-1.908,1.449,6.355,6.355,0,0,0-1.161,2.151,8.575,8.575,0,0,0-.4,2.637,9.062,9.062,0,0,0,.369,2.628,6.07,6.07,0,0,0,1.107,2.124,5.126,5.126,0,0,0,1.854,1.413,6.2,6.2,0,0,0,2.61.513,5.416,5.416,0,0,0,3.888-1.35,5.838,5.838,0,0,0,1.674-3.78h-1.71a4.9,4.9,0,0,1-.324,1.476,3.562,3.562,0,0,1-.747,1.179,3.4,3.4,0,0,1-1.134.774,3.815,3.815,0,0,1-1.5.279,4.23,4.23,0,0,1-1.98-.432,3.867,3.867,0,0,1-1.359-1.161,4.973,4.973,0,0,1-.783-1.71,8.328,8.328,0,0,1-.252-2.079,7.445,7.445,0,0,1,.252-1.944,5.012,5.012,0,0,1,.783-1.665,3.89,3.89,0,0,1,1.35-1.161,4.175,4.175,0,0,1,1.971-.432,3.972,3.972,0,0,1,2.331.684A3.179,3.179,0,0,1,163.434,8.018Zm4.95,2.556a7.409,7.409,0,0,1,.252-1.917,5.206,5.206,0,0,1,.792-1.7,4.049,4.049,0,0,1,1.386-1.215,4.657,4.657,0,0,1,4.032,0,4.049,4.049,0,0,1,1.386,1.215,5.206,5.206,0,0,1,.792,1.7,7.417,7.417,0,0,1,0,3.834,5.206,5.206,0,0,1-.792,1.7,4.049,4.049,0,0,1-1.386,1.215,4.657,4.657,0,0,1-4.032,0,4.049,4.049,0,0,1-1.386-1.215,5.206,5.206,0,0,1-.792-1.7A7.409,7.409,0,0,1,168.384,10.574Zm-1.71,0a8.282,8.282,0,0,0,.387,2.529,6.373,6.373,0,0,0,1.161,2.151,5.571,5.571,0,0,0,1.926,1.485,6.826,6.826,0,0,0,5.364,0,5.571,5.571,0,0,0,1.926-1.485A6.373,6.373,0,0,0,178.6,13.1a8.457,8.457,0,0,0,0-5.058,6.373,6.373,0,0,0-1.161-2.151A5.667,5.667,0,0,0,175.512,4.4a6.724,6.724,0,0,0-5.364,0,5.667,5.667,0,0,0-1.926,1.494,6.373,6.373,0,0,0-1.161,2.151A8.282,8.282,0,0,0,166.674,10.574Zm24.66,1.782V4.148h-1.71v8.208a3.642,3.642,0,0,1-.855,2.619,3.3,3.3,0,0,1-2.493.891,3.647,3.647,0,0,1-2.646-.891,3.488,3.488,0,0,1-.918-2.619V4.148H181v8.208a4.651,4.651,0,0,0,1.4,3.753,5.829,5.829,0,0,0,3.879,1.179,5.266,5.266,0,0,0,3.744-1.233A4.837,4.837,0,0,0,191.334,12.356Zm2.718-8.208V17h1.62V6.686h.036L202.422,17h1.872V4.148h-1.62V14.57h-.036L195.87,4.148Zm15.93,1.44V17h1.71V5.588h4.284V4.148H205.7v1.44Z" transform="translate(1879 668)"/>
    <path id="Path_5" data-name="Path 5" class="cls-2" d="M22.172,7.91h1.62a4.531,4.531,0,0,0-.405-1.827,3.56,3.56,0,0,0-1.008-1.269,4.158,4.158,0,0,0-1.485-.738,6.867,6.867,0,0,0-1.836-.234,6.593,6.593,0,0,0-1.719.225,4.726,4.726,0,0,0-1.494.684,3.462,3.462,0,0,0-1.053,1.17A3.405,3.405,0,0,0,14.4,7.6a2.81,2.81,0,0,0,.351,1.467,2.846,2.846,0,0,0,.936.954,5.44,5.44,0,0,0,1.323.594q.738.225,1.5.4t1.5.333a6.852,6.852,0,0,1,1.323.423,2.579,2.579,0,0,1,.936.675,1.613,1.613,0,0,1,.351,1.08,1.975,1.975,0,0,1-1.044,1.863,3.42,3.42,0,0,1-1.053.369,6.384,6.384,0,0,1-1.161.108,5.494,5.494,0,0,1-1.4-.18,3.494,3.494,0,0,1-1.2-.558,2.864,2.864,0,0,1-.828-.963,2.9,2.9,0,0,1-.315-1.395H14a4.519,4.519,0,0,0,.423,2.025,3.883,3.883,0,0,0,1.152,1.4,5.045,5.045,0,0,0,1.692.819,7.536,7.536,0,0,0,2.043.27,7.813,7.813,0,0,0,1.773-.207,5.131,5.131,0,0,0,1.611-.666,3.778,3.778,0,0,0,1.179-1.188,3.227,3.227,0,0,0,.459-1.755,3.223,3.223,0,0,0-.351-1.584,3.127,3.127,0,0,0-.936-1.044,4.958,4.958,0,0,0-1.323-.657q-.738-.243-1.5-.423t-1.5-.333a7.871,7.871,0,0,1-1.323-.387,2.6,2.6,0,0,1-.936-.6,1.34,1.34,0,0,1-.351-.963,2.087,2.087,0,0,1,.243-1.053A1.89,1.89,0,0,1,17,5.75a2.82,2.82,0,0,1,.927-.36,5.228,5.228,0,0,1,1.062-.108,3.629,3.629,0,0,1,2.187.621A2.678,2.678,0,0,1,22.172,7.91Zm5.6-1.89V4.148H26.24V6.02ZM26.24,7.694V17h1.53V7.694Zm11.934,8.514V7.694h-1.44V9.026h-.018a2.724,2.724,0,0,0-1.152-1.161,3.435,3.435,0,0,0-1.62-.387,4.144,4.144,0,0,0-2.034.459,3.947,3.947,0,0,0-1.332,1.17,4.639,4.639,0,0,0-.72,1.584,7.07,7.07,0,0,0-.216,1.7A6.163,6.163,0,0,0,29.9,14.2a4.332,4.332,0,0,0,.783,1.494,3.8,3.8,0,0,0,1.3,1.017,4.1,4.1,0,0,0,1.818.378,3.719,3.719,0,0,0,1.7-.405,2.572,2.572,0,0,0,1.2-1.269h.036v.612a6.188,6.188,0,0,1-.153,1.422,2.971,2.971,0,0,1-.5,1.107,2.4,2.4,0,0,1-.864.72,2.837,2.837,0,0,1-1.278.261,4.127,4.127,0,0,1-.792-.081,2.878,2.878,0,0,1-.765-.261,1.9,1.9,0,0,1-.594-.468,1.132,1.132,0,0,1-.261-.7H30a2.4,2.4,0,0,0,.4,1.278,2.851,2.851,0,0,0,.909.846,4.054,4.054,0,0,0,1.224.468,6.331,6.331,0,0,0,1.323.144,4.253,4.253,0,0,0,3.276-1.134A4.9,4.9,0,0,0,38.174,16.208Zm-4.284-.45a2.336,2.336,0,0,1-1.26-.315,2.431,2.431,0,0,1-.81-.828,3.584,3.584,0,0,1-.432-1.143,6.41,6.41,0,0,1-.126-1.26,5.25,5.25,0,0,1,.153-1.278,3.168,3.168,0,0,1,.486-1.08,2.45,2.45,0,0,1,.855-.747,2.641,2.641,0,0,1,1.26-.279,2.431,2.431,0,0,1,1.224.288,2.384,2.384,0,0,1,.819.765,3.364,3.364,0,0,1,.459,1.071,5.1,5.1,0,0,1,.144,1.206,5.623,5.623,0,0,1-.153,1.3,3.785,3.785,0,0,1-.477,1.161,2.51,2.51,0,0,1-.855.828A2.48,2.48,0,0,1,33.89,15.758Zm6.588-8.064V17h1.53V11.744a3.77,3.77,0,0,1,.171-1.161,2.637,2.637,0,0,1,.513-.927,2.278,2.278,0,0,1,.855-.612,3.118,3.118,0,0,1,1.215-.216,1.873,1.873,0,0,1,1.386.5,1.848,1.848,0,0,1,.5,1.368V17h1.53V10.88A5.759,5.759,0,0,0,48.029,9.5,2.608,2.608,0,0,0,47.5,8.432a2.515,2.515,0,0,0-.99-.7,4.038,4.038,0,0,0-1.53-.252A3.221,3.221,0,0,0,41.954,9.17h-.036V7.694ZM63.194,17V7.694h-1.53V12.95a3.77,3.77,0,0,1-.171,1.161,2.637,2.637,0,0,1-.513.927,2.278,2.278,0,0,1-.855.612,3.118,3.118,0,0,1-1.215.216,1.873,1.873,0,0,1-1.386-.5,1.848,1.848,0,0,1-.5-1.368v-6.3H55.49v6.12a5.759,5.759,0,0,0,.153,1.377,2.608,2.608,0,0,0,.531,1.071,2.44,2.44,0,0,0,.99.693,4.173,4.173,0,0,0,1.53.243,3.721,3.721,0,0,0,1.782-.405,3.127,3.127,0,0,0,1.242-1.269h.036V17Zm2.358-9.306V20.546h1.53V15.758h.036a2.465,2.465,0,0,0,.621.693,3.271,3.271,0,0,0,.783.441,4.249,4.249,0,0,0,.837.234,4.6,4.6,0,0,0,.765.072,4.321,4.321,0,0,0,1.863-.378,3.734,3.734,0,0,0,1.332-1.035,4.408,4.408,0,0,0,.792-1.539,6.565,6.565,0,0,0,.261-1.872A6.361,6.361,0,0,0,74.1,10.5a4.73,4.73,0,0,0-.8-1.557,3.826,3.826,0,0,0-1.332-1.071,4.2,4.2,0,0,0-1.881-.4,4.434,4.434,0,0,0-1.782.351,2.291,2.291,0,0,0-1.188,1.125h-.036V7.694Zm7.2,4.572a6.122,6.122,0,0,1-.144,1.332,3.524,3.524,0,0,1-.468,1.152,2.46,2.46,0,0,1-.855.81,2.616,2.616,0,0,1-1.323.306,2.84,2.84,0,0,1-1.35-.3,2.62,2.62,0,0,1-.909-.783,3.274,3.274,0,0,1-.513-1.125,5.449,5.449,0,0,1-.009-2.6,3.349,3.349,0,0,1,.5-1.125,2.526,2.526,0,0,1,2.2-1.107,2.733,2.733,0,0,1,1.287.288,2.558,2.558,0,0,1,.9.774A3.425,3.425,0,0,1,72.581,11,4.758,4.758,0,0,1,72.752,12.266ZM90.392,17l2.97-9.306H91.778L89.69,15.308h-.036L87.71,7.694H86.036l-1.872,7.614h-.036L82.022,7.694H80.33L83.318,17h1.656l1.872-7.4h.036l1.89,7.4ZM96.44,6.02V4.148H94.91V6.02ZM94.91,7.694V17h1.53V7.694Zm6.03,0V4.9H99.41v2.79H97.826v1.35H99.41v5.922a3.536,3.536,0,0,0,.126,1.044,1.269,1.269,0,0,0,.387.612,1.494,1.494,0,0,0,.684.3,5.494,5.494,0,0,0,1.017.081h1.17V15.65h-.7a5.1,5.1,0,0,1-.585-.027.756.756,0,0,1-.351-.117.445.445,0,0,1-.171-.252,1.67,1.67,0,0,1-.045-.432V9.044h1.854V7.694Zm3.546-3.546V17h1.53V11.744a3.77,3.77,0,0,1,.171-1.161,2.637,2.637,0,0,1,.513-.927,2.278,2.278,0,0,1,.855-.612,3.118,3.118,0,0,1,1.215-.216,1.873,1.873,0,0,1,1.386.5,1.848,1.848,0,0,1,.5,1.368V17h1.53V10.88a5.759,5.759,0,0,0-.153-1.377,2.608,2.608,0,0,0-.531-1.071,2.515,2.515,0,0,0-.99-.7,4.038,4.038,0,0,0-1.53-.252,4.273,4.273,0,0,0-.855.09,3.781,3.781,0,0,0-.846.279,2.864,2.864,0,0,0-.729.486,2.036,2.036,0,0,0-.5.729h-.036V4.148ZM129.362,15.4l.45,1.6h1.08V10.232h-5.634v1.44h4.1a4.37,4.37,0,0,1-.234,1.647,3.67,3.67,0,0,1-2.106,2.223,4.583,4.583,0,0,1-1.782.324,4.082,4.082,0,0,1-1.9-.423,4.147,4.147,0,0,1-1.377-1.134,5.053,5.053,0,0,1-.846-1.638,6.484,6.484,0,0,1-.288-1.935,8.034,8.034,0,0,1,.252-2.007,5.379,5.379,0,0,1,.783-1.746,3.91,3.91,0,0,1,3.375-1.7,5.238,5.238,0,0,1,1.359.171,3.739,3.739,0,0,1,1.143.513,3.012,3.012,0,0,1,.846.873,3.363,3.363,0,0,1,.468,1.269h1.71a5.2,5.2,0,0,0-.675-1.935,4.541,4.541,0,0,0-1.224-1.323,4.988,4.988,0,0,0-1.656-.765,7.747,7.747,0,0,0-1.971-.243,5.946,5.946,0,0,0-2.673.567,5.6,5.6,0,0,0-1.908,1.521,6.58,6.58,0,0,0-1.152,2.223,9.113,9.113,0,0,0-.387,2.673,7.231,7.231,0,0,0,.414,2.43,6.261,6.261,0,0,0,1.206,2.07,5.817,5.817,0,0,0,1.926,1.431,6,6,0,0,0,2.574.531,6.079,6.079,0,0,0,2.25-.441A4.273,4.273,0,0,0,129.362,15.4Zm4.914-3.042a4.63,4.63,0,0,1,.225-1.5,3.244,3.244,0,0,1,.621-1.107,2.644,2.644,0,0,1,.927-.684,2.821,2.821,0,0,1,2.25,0,2.644,2.644,0,0,1,.927.684,3.244,3.244,0,0,1,.621,1.107,4.63,4.63,0,0,1,.225,1.5,4.63,4.63,0,0,1-.225,1.5,3.145,3.145,0,0,1-.621,1.1,2.7,2.7,0,0,1-.927.675,2.821,2.821,0,0,1-2.25,0,2.7,2.7,0,0,1-.927-.675,3.145,3.145,0,0,1-.621-1.1A4.63,4.63,0,0,1,134.276,12.356Zm-1.62,0a6.113,6.113,0,0,0,.288,1.908,4.355,4.355,0,0,0,.864,1.539,3.975,3.975,0,0,0,1.422,1.026,5.329,5.329,0,0,0,3.9,0A3.994,3.994,0,0,0,140.54,15.8a4.355,4.355,0,0,0,.864-1.539,6.113,6.113,0,0,0,.288-1.908,6.2,6.2,0,0,0-.288-1.917,4.343,4.343,0,0,0-.864-1.548,4.091,4.091,0,0,0-1.413-1.035,5.211,5.211,0,0,0-3.9,0,4.07,4.07,0,0,0-1.422,1.035,4.343,4.343,0,0,0-.864,1.548A6.2,6.2,0,0,0,132.656,12.356Zm11.952,0a4.63,4.63,0,0,1,.225-1.5,3.244,3.244,0,0,1,.621-1.107,2.644,2.644,0,0,1,.927-.684,2.821,2.821,0,0,1,2.25,0,2.644,2.644,0,0,1,.927.684,3.244,3.244,0,0,1,.621,1.107,4.63,4.63,0,0,1,.225,1.5,4.63,4.63,0,0,1-.225,1.5,3.145,3.145,0,0,1-.621,1.1,2.7,2.7,0,0,1-.927.675,2.821,2.821,0,0,1-2.25,0,2.7,2.7,0,0,1-.927-.675,3.145,3.145,0,0,1-.621-1.1A4.63,4.63,0,0,1,144.608,12.356Zm-1.62,0a6.113,6.113,0,0,0,.288,1.908,4.355,4.355,0,0,0,.864,1.539,3.975,3.975,0,0,0,1.422,1.026,5.329,5.329,0,0,0,3.9,0,3.994,3.994,0,0,0,1.413-1.026,4.355,4.355,0,0,0,.864-1.539,6.113,6.113,0,0,0,.288-1.908,6.2,6.2,0,0,0-.288-1.917,4.343,4.343,0,0,0-.864-1.548,4.091,4.091,0,0,0-1.413-1.035,5.211,5.211,0,0,0-3.9,0,4.07,4.07,0,0,0-1.422,1.035,4.343,4.343,0,0,0-.864,1.548A6.2,6.2,0,0,0,142.988,12.356Zm18.864,3.852V7.694h-1.44V9.026h-.018a2.724,2.724,0,0,0-1.152-1.161,3.435,3.435,0,0,0-1.62-.387,4.144,4.144,0,0,0-2.034.459,3.947,3.947,0,0,0-1.332,1.17,4.639,4.639,0,0,0-.72,1.584,7.07,7.07,0,0,0-.216,1.7,6.163,6.163,0,0,0,.261,1.809,4.331,4.331,0,0,0,.783,1.494,3.8,3.8,0,0,0,1.3,1.017,4.1,4.1,0,0,0,1.818.378,3.719,3.719,0,0,0,1.7-.405,2.572,2.572,0,0,0,1.2-1.269h.036v.612a6.188,6.188,0,0,1-.153,1.422,2.971,2.971,0,0,1-.5,1.107,2.4,2.4,0,0,1-.864.72,2.837,2.837,0,0,1-1.278.261,4.127,4.127,0,0,1-.792-.081,2.878,2.878,0,0,1-.765-.261,1.9,1.9,0,0,1-.594-.468,1.132,1.132,0,0,1-.261-.7h-1.53a2.4,2.4,0,0,0,.4,1.278,2.851,2.851,0,0,0,.909.846,4.054,4.054,0,0,0,1.224.468,6.331,6.331,0,0,0,1.323.144,4.253,4.253,0,0,0,3.276-1.134A4.9,4.9,0,0,0,161.852,16.208Zm-4.284-.45a2.336,2.336,0,0,1-1.26-.315,2.431,2.431,0,0,1-.81-.828,3.584,3.584,0,0,1-.432-1.143,6.41,6.41,0,0,1-.126-1.26,5.25,5.25,0,0,1,.153-1.278,3.168,3.168,0,0,1,.486-1.08,2.45,2.45,0,0,1,.855-.747,2.641,2.641,0,0,1,1.26-.279,2.431,2.431,0,0,1,1.224.288,2.384,2.384,0,0,1,.819.765,3.364,3.364,0,0,1,.459,1.071,5.1,5.1,0,0,1,.144,1.206,5.623,5.623,0,0,1-.153,1.3,3.785,3.785,0,0,1-.477,1.161,2.51,2.51,0,0,1-.855.828A2.48,2.48,0,0,1,157.568,15.758Zm6.678-11.61V17h1.53V4.148Zm10.368,7.308h-5.346a3.187,3.187,0,0,1,.234-1.017,2.712,2.712,0,0,1,.54-.837,2.473,2.473,0,0,1,.819-.567,2.664,2.664,0,0,1,1.071-.207,2.617,2.617,0,0,1,1.053.207,2.649,2.649,0,0,1,.828.558,2.622,2.622,0,0,1,.558.837A3.13,3.13,0,0,1,174.614,11.456Zm1.476,2.592h-1.512a2.176,2.176,0,0,1-.819,1.368,2.648,2.648,0,0,1-1.593.45,3.169,3.169,0,0,1-1.314-.252,2.576,2.576,0,0,1-.918-.675,2.629,2.629,0,0,1-.522-.972,3.693,3.693,0,0,1-.144-1.161h6.966a7.408,7.408,0,0,0-.153-1.782A5.158,5.158,0,0,0,175.4,9.3a4.076,4.076,0,0,0-1.314-1.305,3.818,3.818,0,0,0-2.061-.513,4.232,4.232,0,0,0-1.755.36,4.125,4.125,0,0,0-1.386,1.008,4.646,4.646,0,0,0-.909,1.53,5.6,5.6,0,0,0-.324,1.944,7.46,7.46,0,0,0,.315,1.962,4.282,4.282,0,0,0,.837,1.548,3.815,3.815,0,0,0,1.377,1.008,4.78,4.78,0,0,0,1.935.36,4.224,4.224,0,0,0,2.628-.792A3.719,3.719,0,0,0,176.09,14.048Z" transform="translate(1895 200)"/>
    <path id="Path_6" data-name="Path 6" class="cls-2" d="M66.173,11.276v1.44h13.32v-1.44ZM89.1,12.356a4.63,4.63,0,0,1,.225-1.5,3.244,3.244,0,0,1,.621-1.107,2.645,2.645,0,0,1,.927-.684,2.821,2.821,0,0,1,2.25,0,2.645,2.645,0,0,1,.927.684,3.244,3.244,0,0,1,.621,1.107,4.63,4.63,0,0,1,.225,1.5,4.63,4.63,0,0,1-.225,1.5,3.145,3.145,0,0,1-.621,1.1,2.7,2.7,0,0,1-.927.675,2.821,2.821,0,0,1-2.25,0,2.7,2.7,0,0,1-.927-.675,3.145,3.145,0,0,1-.621-1.1A4.63,4.63,0,0,1,89.1,12.356Zm-1.62,0a6.113,6.113,0,0,0,.288,1.908,4.355,4.355,0,0,0,.864,1.539,3.975,3.975,0,0,0,1.422,1.026,5.329,5.329,0,0,0,3.9,0A3.993,3.993,0,0,0,95.369,15.8a4.355,4.355,0,0,0,.864-1.539,6.113,6.113,0,0,0,.288-1.908,6.2,6.2,0,0,0-.288-1.917,4.343,4.343,0,0,0-.864-1.548,4.091,4.091,0,0,0-1.413-1.035,5.211,5.211,0,0,0-3.9,0,4.07,4.07,0,0,0-1.422,1.035,4.343,4.343,0,0,0-.864,1.548A6.2,6.2,0,0,0,87.485,12.356ZM98.267,7.694V17H99.8V12.86a6.362,6.362,0,0,1,.18-1.593,3.053,3.053,0,0,1,.576-1.179A2.469,2.469,0,0,1,101.6,9.35a4.327,4.327,0,0,1,1.566-.252V7.478a3.439,3.439,0,0,0-2.052.5,4.145,4.145,0,0,0-1.368,1.674h-.036V7.694Zm12.24,3.582v1.44h13.32v-1.44Z" transform="translate(1895 264)"/>
  </g>
</svg>
