<svg xmlns="http://www.w3.org/2000/svg" viewBox="0 0 71.52 72.24"><title>Asset 2</title><g id="Layer_2" data-name="Layer 2"><g id="Layer_1-2" data-name="Layer 1"><rect width="71.52" height="72.24" fill="#02aeaf"/><path d="M43.54,26.75c-.49-4.89-3.81-8.67-7.82-8.67s-7.29,3.74-7.81,8.59H25l2.09,23.46H44.43l2.09-19.7A3.76,3.76,0,0,0,43.54,26.75ZM40.33,44.91H31.19a.55.55,0,0,1,0-1.1h9.15a.55.55,0,1,1,0,1.1Zm0-3.21H31.19a.55.55,0,0,1,0-1.1h9.15a.55.55,0,1,1,0,1.1Zm0-3.21H31.19a.55.55,0,0,1,0-1.1h9.15a.55.55,0,1,1,0,1.1Zm2.42-11.83H31.4c.25-2.85,1.29-5.2,2.81-6.38a8.37,8.37,0,0,0-.76.45,7.83,7.83,0,0,0-1,.85c-.17.16-.31.36-.47.53s-.3.39-.43.6a9.22,9.22,0,0,0-.71,1.38,9,9,0,0,0-.49,1.56A11.72,11.72,0,0,0,30,27.31c0,.55-.13,1.1-.13,1.64,0,.38,0,.75,0,1.12h0a1.6,1.6,0,1,1-.86.26A13.17,13.17,0,0,1,28.93,29a14.79,14.79,0,0,1,0-1.77,12.82,12.82,0,0,1,.29-1.8,9.81,9.81,0,0,1,.59-1.73,8.17,8.17,0,0,1,.89-1.53c.17-.23.37-.44.55-.65s.39-.39.6-.55a6.61,6.61,0,0,1,1.25-.8c.21-.09.41-.2.6-.27l.56-.19.22-.05h0a4.9,4.9,0,0,1,1.56-.26c3.15,0,5.82,3.07,6.72,7.29Z" fill="#edeae5"/></g></g></svg>