<?xml version="1.0" encoding="utf-8"?>
<!-- Generator: Adobe Illustrator 20.1.0, SVG Export Plug-In . SVG Version: 6.00 Build 0)  -->
<svg version="1.1" id="Layer_1" xmlns="http://www.w3.org/2000/svg" xmlns:xlink="http://www.w3.org/1999/xlink" x="0px" y="0px"
	 viewBox="0 0 49.1 49.2" style="enable-background:new 0 0 49.1 49.2;" xml:space="preserve">
<style type="text/css">
	.st0{fill:none;stroke:#505148;stroke-linecap:round;stroke-miterlimit:10;}
</style>
<title>Artboard 1</title>
<path class="st0" d="M13.8,37.3c-6.7-6-7.2-16.3-1.2-23c1.5-1.6,3.2-2.9,5.2-3.8"/>
<path class="st0" d="M3.5,34.5c2.8,6.3,8.2,11.1,14.8,13"/>
<path class="st0" d="M45.1,13.9C38.9,2.7,24.7-1.3,13.5,5C4.3,10.1-0.3,20.8,2.3,31"/>
<path class="st0" d="M31.4,47.5C43.7,43.9,50.7,31,47.1,18.7c-0.1-0.5-0.3-0.9-0.4-1.4"/>
<path class="st0" d="M24.8,8.9c9,0,16.3,7.3,16.3,16.3c0,5.1-2.4,9.9-6.5,13"/>
<path class="st0" d="M20.2,33.6c-4.6-2.5-6.2-8.3-3.7-12.9s8.3-6.2,12.9-3.7s6.2,8.3,3.7,12.9c-0.9,1.5-2.1,2.8-3.7,3.7"/>
<line class="st0" x1="29.4" y1="33.6" x2="31.2" y2="47.5"/>
<line class="st0" x1="20.3" y1="33.7" x2="18.4" y2="47.5"/>
<line class="st0" x1="8.7" y1="28.3" x2="2.3" y2="30.9"/>
<line class="st0" x1="45.1" y1="13.9" x2="38.6" y2="16.5"/>
</svg>
