<svg id="Layer_1" data-name="Layer 1" xmlns="http://www.w3.org/2000/svg" viewBox="0 0 49.13 49.25"><title>Artboard 1</title><path d="M37.31,35.87a16.3,16.3,0,0,1-26.86-4" fill="none" stroke="#231f20" stroke-linecap="round" stroke-miterlimit="10"/><path d="M34.54,46.1a23.27,23.27,0,0,0,13-14.78" fill="none" stroke="#231f20" stroke-linecap="round" stroke-miterlimit="10"/><path d="M14,4.49a23.24,23.24,0,0,0,17,42.83" fill="none" stroke="#231f20" stroke-linecap="round" stroke-miterlimit="10"/><path d="M47.59,18.25A23.25,23.25,0,0,0,17.36,2.94" fill="none" stroke="#231f20" stroke-linecap="round" stroke-miterlimit="10"/><path d="M9,24.78A16.31,16.31,0,0,1,38.31,14.9" fill="none" stroke="#231f20" stroke-linecap="round" stroke-miterlimit="10"/><path d="M33.67,29.4a9.46,9.46,0,1,1,0-9.18" fill="none" stroke="#231f20" stroke-linecap="round" stroke-miterlimit="10"/><line x1="33.7" y1="20.22" x2="47.59" y2="18.4" fill="none" stroke="#231f20" stroke-linecap="round" stroke-miterlimit="10"/><line x1="33.73" y1="29.3" x2="47.56" y2="31.24" fill="none" stroke="#231f20" stroke-linecap="round" stroke-miterlimit="10"/><line x1="28.4" y1="40.93" x2="30.92" y2="47.32" fill="none" stroke="#231f20" stroke-linecap="round" stroke-miterlimit="10"/><line x1="13.99" y1="4.55" x2="16.56" y2="11" fill="none" stroke="#231f20" stroke-linecap="round" stroke-miterlimit="10"/></svg>