<?xml version="1.0" encoding="utf-8"?>
<!-- Generator: Adobe Illustrator 20.1.0, SVG Export Plug-In . SVG Version: 6.00 Build 0)  -->
<svg version="1.1" id="Layer_1" xmlns="http://www.w3.org/2000/svg" xmlns:xlink="http://www.w3.org/1999/xlink" x="0px" y="0px"
	 viewBox="0 0 49.1 49.2" style="enable-background:new 0 0 49.1 49.2;" xml:space="preserve">
<style type="text/css">
	.st0{fill:none;stroke:#FFFFFF;stroke-linecap:round;stroke-miterlimit:10;}
</style>
<title>Artboard 1</title>
<path class="st0" d="M37.3,35.9c-6,6.7-16.3,7.2-23,1.2c-1.6-1.5-2.9-3.2-3.8-5.2"/>
<path class="st0" d="M34.5,46.1c6.3-2.8,11.1-8.2,13-14.8"/>
<path class="st0" d="M14,4.5C2.8,10.7-1.2,24.9,5,36.1c5.1,9.2,15.8,13.8,26,11.2"/>
<path class="st0" d="M47.6,18.2C44,5.9,31.1-1.1,18.7,2.5c-0.5,0.1-0.9,0.3-1.4,0.4"/>
<path class="st0" d="M9,24.8c0-9,7.3-16.3,16.3-16.3c5.1,0,9.9,2.4,13,6.5"/>
<path class="st0" d="M33.7,29.4c-2.5,4.6-8.3,6.2-12.9,3.7s-6.2-8.3-3.7-12.9S25.4,14,30,16.5c1.5,0.9,2.8,2.1,3.7,3.7"/>
<line class="st0" x1="33.7" y1="20.2" x2="47.6" y2="18.4"/>
<line class="st0" x1="33.7" y1="29.3" x2="47.6" y2="31.2"/>
<line class="st0" x1="28.4" y1="40.9" x2="30.9" y2="47.3"/>
<line class="st0" x1="14" y1="4.6" x2="16.6" y2="11"/>
</svg>
